<svg width="278" height="280" viewBox="0 0 278 280" fill="none" xmlns="http://www.w3.org/2000/svg">
<path d="M277.355 0H0V280H277.355V0Z" fill="white"/>
<path d="M221.42 220.87C215.777 226.743 210.73 230.194 206.862 232.8C169.161 258.214 126.064 250.889 112.741 248.385C91.2441 244.346 73.0972 241.497 57.5055 227.275C22.0773 194.962 23.7998 127.554 50.8721 85.7977C54.0815 80.846 81.1121 40.3962 124.303 34.6966C125.36 34.557 126.148 34.4777 126.838 34.4038C133.519 33.6898 174.923 29.9208 208.683 58.4747C213.511 62.566 221.291 69.9351 228.503 81.1796C254.873 122.294 254.957 185.973 221.42 220.87Z" fill="#F4F7FA"/>
<path d="M155.992 199.079C113.45 206.454 100.371 200.74 96.5063 193.872C94.2635 189.882 94.0288 183.546 87.622 175.548C82.2229 168.807 79.1167 169.224 76.8036 164.056C72.7921 155.091 80.4436 150.051 77.3269 141.368C73.9112 131.866 63.1706 133.54 58.5146 122.189C55.9676 115.979 58.9572 114.932 56.6905 108.743C52.0689 96.1275 38.4539 97.2233 33.931 85.8452C31.2972 79.2218 32.6526 70.652 36.9849 65.6045C45.6741 55.4799 66.4802 59.363 78.2517 68.7509C79.7678 69.9584 91.1768 79.3275 92.2817 93.1977C92.9478 101.567 89.3766 105.469 92.3191 110.564C96.4704 117.753 105.871 113.961 110 120.343C115.594 128.996 102.324 142.136 108.717 151.874C111.192 155.643 113.808 154.631 116.282 158.959C120.35 166.078 115.609 172.9 116.545 178.825C117.546 185.185 125.483 192.955 155.992 199.079Z" fill="url(#paint0_linear_1_3674)"/>
<g style="mix-blend-mode:soft-light" opacity="0.28">
<path d="M77.301 88.5282C82.822 101.387 73.8233 109.514 80.2869 119.658C85.5357 127.896 93.8138 126.212 96.0775 133.881C98.2455 141.232 91.2346 144.783 93.1529 153.179C94.7341 160.099 100.057 160.134 105.373 169.084C110.725 178.094 108.561 183.495 111.31 188.998C114.26 194.906 122.633 200.446 145.164 200.772C148.544 200.311 152.147 199.752 155.994 199.085C125.485 192.961 117.547 185.191 116.543 178.829C115.607 172.903 120.348 166.081 116.28 158.963C113.806 154.635 111.19 155.647 108.715 151.878C102.322 142.142 115.593 129 109.998 120.347C105.869 113.961 96.4662 117.757 92.3171 110.568C89.3746 105.473 92.9458 101.571 92.2797 93.2015C91.1748 79.3313 79.7658 69.9637 78.2497 68.7547C66.4812 59.3607 45.6781 55.4777 36.9859 65.6022C36.944 65.6505 36.9044 65.7018 36.8633 65.7531C42.6743 65.9614 49.7965 67.1569 57.1752 70.7079C62.904 73.4633 72.9015 78.2754 77.301 88.5282Z" fill="white"/>
</g>
<path d="M142.31 203.513C127.922 199.815 123.836 195.34 123.204 191.581C122.17 185.429 130.462 181.637 129.352 174.626C128.073 166.551 116.007 164.874 116.378 159.564C116.78 153.828 130.987 154.235 133.918 145.973C136.576 138.482 126.328 134.124 126.408 123.244C126.502 110.254 141.176 107.205 143.752 92.4173C145.512 82.3199 140.415 73.7365 136.415 67.0007C127.418 51.8445 108.924 37.1086 88.0019 38.6022C85.1476 38.806 68.4899 39.9947 64.3632 49.855C60.1812 59.849 70.1652 75.6784 80.3803 84.0656C87.7814 90.1456 93.9863 91.2354 94.3168 96.0196C94.7579 102.472 83.7758 104.831 82.7352 114.234C82.1842 119.206 84.7095 123.453 87.1938 127.63C92.8246 137.099 98.3164 136.746 99.1223 141.993C100.224 149.173 90.2918 152.106 88.0864 162.847C86.5165 170.5 89.8806 177.17 91.781 180.928C99.1776 195.578 119.1 203.968 142.31 203.513Z" fill="url(#paint1_linear_1_3674)"/>
<g style="mix-blend-mode:soft-light" opacity="0.7">
<path d="M59.0698 44.8475C68.1231 49.0382 77.1604 53.2677 86.1818 57.5359C90.7002 59.6491 95.2 61.8083 99.6631 64.0453C101.897 65.1608 104.124 66.2891 106.336 67.4528C108.548 68.6166 110.747 69.8151 112.884 71.1313C113.953 71.7909 115.007 72.4823 116.018 73.2445C116.526 73.6219 117.013 74.0347 117.491 74.4604C117.966 74.8971 118.41 75.3664 118.822 75.8649C119.234 76.3766 119.587 76.9336 119.876 77.5253C120.16 78.1212 120.373 78.7493 120.51 79.3962C120.778 80.6811 120.797 82.0061 120.565 83.2981C120.332 84.5857 119.852 85.8083 119.247 86.9411C118.642 88.074 117.901 89.1185 117.13 90.1208C115.575 92.1238 113.84 93.9411 112.184 95.8068C110.529 97.6725 108.914 99.5728 107.587 101.66C106.925 102.7 106.35 103.793 105.867 104.929C105.402 106.065 105.058 107.248 104.842 108.458C104.46 110.873 104.608 113.4 105.351 115.733C105.738 116.899 106.257 118.016 106.897 119.061C107.534 120.118 108.281 121.106 109.047 122.088C109.813 123.071 110.617 124.045 111.345 125.082C111.719 125.596 112.058 126.139 112.387 126.685C112.71 127.239 112.999 127.813 113.252 128.404C113.764 129.589 114.1 130.843 114.248 132.128C114.395 133.406 114.392 134.699 114.237 135.977C114.088 137.256 113.775 138.511 113.306 139.709C112.826 140.896 112.225 142.03 111.512 143.091C110.121 145.219 108.394 147.063 107.188 149.204C106.576 150.259 106.156 151.415 105.947 152.619C105.763 153.828 105.79 155.059 106.027 156.259C106.265 157.461 106.691 158.618 107.291 159.685C107.91 160.752 108.639 161.751 109.466 162.663C111.102 164.525 113.011 166.176 114.56 168.2C115.334 169.207 115.998 170.322 116.448 171.528C116.886 172.74 117.11 174.021 117.108 175.312C117.11 176.602 116.879 177.883 116.424 179.089C115.961 180.291 115.275 181.376 114.599 182.426C113.923 183.477 113.271 184.543 113.086 185.742C112.862 186.932 113.141 188.171 113.691 189.251C114.26 190.331 115.061 191.289 115.966 192.127C116.879 192.966 117.859 193.728 118.896 194.405C120.974 195.764 123.19 196.913 125.458 197.937C127.726 198.96 130.044 199.878 132.385 200.725C134.726 201.573 137.095 202.358 139.474 203.085C144.236 204.552 149.052 205.834 153.889 207.029L153.881 207.063C149.034 205.91 144.204 204.672 139.426 203.246C137.033 202.542 134.661 201.775 132.307 200.947C129.954 200.117 127.622 199.223 125.336 198.212C123.05 197.202 120.811 196.072 118.697 194.715C117.636 194.035 116.633 193.268 115.696 192.423C114.761 191.572 113.921 190.589 113.315 189.449C112.725 188.309 112.413 186.967 112.649 185.668C112.738 185.017 112.984 184.404 113.258 183.825C113.532 183.246 113.879 182.71 114.21 182.175C114.883 181.118 115.54 180.062 115.976 178.915C116.403 177.763 116.618 176.542 116.609 175.312C116.605 174.083 116.387 172.864 115.964 171.712C115.515 170.565 114.899 169.493 114.136 168.531C112.625 166.574 110.718 164.938 109.039 163.05C108.18 162.11 107.422 161.081 106.776 159.98C106.141 158.859 105.686 157.643 105.431 156.377C105.174 155.106 105.14 153.8 105.328 152.517C105.544 151.238 105.983 150.007 106.626 148.884C107.245 147.758 108.002 146.737 108.754 145.733C109.507 144.729 110.268 143.743 110.948 142.709C111.632 141.687 112.209 140.596 112.667 139.452C113.112 138.309 113.409 137.112 113.55 135.891C113.828 133.452 113.598 130.928 112.605 128.688C111.651 126.423 110.034 124.509 108.485 122.539C107.71 121.549 106.944 120.536 106.281 119.445C105.608 118.351 105.064 117.183 104.658 115.963C103.871 113.508 103.714 110.877 104.11 108.335C104.335 107.069 104.692 105.831 105.177 104.642C105.673 103.464 106.266 102.331 106.949 101.254C108.312 99.1034 109.945 97.1668 111.612 95.2913C113.278 93.4159 114.998 91.6 116.513 89.6392C117.267 88.6581 117.98 87.6468 118.554 86.5653C119.127 85.4838 119.571 84.3419 119.784 83.1555C119.995 81.9676 119.976 80.75 119.731 79.5691C119.485 78.3941 118.963 77.2959 118.21 76.3668C117.826 75.8976 117.41 75.4555 116.966 75.0438C116.511 74.6362 116.046 74.2377 115.552 73.8687C114.574 73.1215 113.54 72.4347 112.487 71.7819C110.379 70.4732 108.195 69.2732 105.997 68.1026C103.798 66.9321 101.577 65.7985 99.3513 64.6762L92.6597 61.3291C90.4326 60.206 88.1786 59.1404 85.9389 58.0415C76.9643 53.6858 68.0042 49.2981 59.0586 44.8785L59.0698 44.8475Z" fill="white"/>
</g>
<path d="M134.078 199.623C128.825 202.383 123.309 204.602 117.615 206.246C102.53 210.597 76.5791 213.627 67.6612 201.859C66.5652 200.413 63.6683 196.59 64.0526 191.869C64.4518 186.959 68.0417 185.444 67.5072 182.375C66.7768 178.178 59.6269 178.496 52.518 173.68C46.4813 169.585 39.217 160.94 39.9205 150.769C40.6897 139.616 50.5781 133.275 51.6538 132.609C58.9622 128.081 70.2261 126.447 77.2684 132.164C83.4996 137.22 84.0827 146.136 84.4677 152.019C85.3386 165.33 79.8237 171.317 83.7949 175.978C87.4124 180.222 93.5486 177.091 97.9459 182.754C99.8254 185.174 99.2916 186.498 102.226 191.234C104.448 194.817 106.848 197.434 107.833 198.362C115.472 205.547 132.562 200.119 134.078 199.623Z" fill="url(#paint2_linear_1_3674)"/>
<g style="mix-blend-mode:soft-light" opacity="0.5">
<path d="M124.623 204.041C117.502 204.045 110.389 203.571 103.33 202.623C82.1973 199.767 79.8088 194.99 79.0238 193.416C77.8045 190.976 78.0258 188.924 78.2605 186.751C78.5237 184.309 78.7965 181.784 77.2139 178.278C75.7673 175.081 73.8819 173.599 72.0555 172.161C70.277 170.761 68.438 169.313 67.0856 166.298C65.3392 162.415 65.87 159.265 66.4292 155.924C66.7357 154.095 67.0527 152.203 67.019 150.084C66.886 141.715 61.1654 133.141 50.0137 124.604L50.1744 124.391C61.3942 132.981 67.1506 141.623 67.2829 150.082C67.3173 152.226 66.9981 154.13 66.6894 155.969C66.1369 159.265 65.6151 162.378 67.3248 166.189C68.651 169.143 70.3824 170.507 72.2163 171.951C74.0658 173.406 75.9774 174.912 77.4494 178.168C79.0657 181.74 78.7764 184.418 78.5222 186.78C78.2919 188.912 78.0736 190.927 79.2585 193.297C80.0278 194.835 82.3685 199.518 103.363 202.353C113.749 203.756 124.445 204.118 135.147 203.429L135.164 203.697C131.647 203.926 128.134 204.041 124.623 204.041Z" fill="white"/>
</g>
<path d="M132.993 232.344L79.2949 228.22V75.6725L132.993 71.6574V232.344Z" fill="url(#paint3_linear_1_3674)"/>
<path d="M83.4453 221.553V82.3488L132.992 78.9865V225.015L83.4453 221.553Z" fill="white"/>
<path d="M169.618 223.579H232.246L232.246 80.6355H169.618V223.579Z" fill="url(#paint4_linear_1_3674)"/>
<path d="M227.168 217.048V87.0656H169.619V217.048H227.168Z" fill="white"/>
<path d="M169.618 223.579L132.992 232.344V71.6574L169.618 80.6348V223.579Z" fill="url(#paint5_linear_1_3674)"/>
<path d="M132.992 225.015V78.9865L169.618 87.1548V217.059L132.992 225.015Z" fill="#D8DEE8"/>
<path d="M245.627 78.2399C245.627 98.2059 217.92 134.64 205.38 150.105C202.26 153.955 196.427 153.955 193.307 150.105C180.767 134.641 153.061 98.2059 153.061 78.2399C153.061 52.4346 173.782 31.5154 199.344 31.5154C224.905 31.5154 245.627 52.4346 245.627 78.2399Z" fill="url(#paint6_linear_1_3674)"/>
<path d="M199.344 104.299C213.6 104.299 225.157 92.632 225.157 78.2401C225.157 63.8482 213.6 52.1812 199.344 52.1812C185.088 52.1812 173.531 63.8482 173.531 78.2401C173.531 92.632 185.088 104.299 199.344 104.299Z" fill="white"/>
<g style="mix-blend-mode:multiply" opacity="0.3">
<path style="mix-blend-mode:multiply" opacity="0.3" d="M199.14 130.921C202.073 111.396 214.846 105.151 212.654 86.7169C210.126 65.4581 191.481 59.7962 191.031 40.8754C190.968 37.9039 191.343 34.9395 192.143 32.0792C170.002 35.5713 153.061 54.9079 153.061 78.24C153.061 98.206 180.768 134.64 193.307 150.106C194.165 151.166 195.283 151.982 196.551 152.472C197.818 152.962 199.19 153.109 200.53 152.898C198.286 144.349 198.218 137.047 199.14 130.921Z" fill="url(#paint7_linear_1_3674)"/>
</g>
<path d="M199.343 182.388C204.567 182.388 208.803 178.112 208.803 172.838C208.803 167.563 204.567 163.288 199.343 163.288C194.118 163.288 189.883 167.563 189.883 172.838C189.883 178.112 194.118 182.388 199.343 182.388Z" fill="url(#paint8_linear_1_3674)"/>
<path d="M123.222 232.679C109.42 230.986 106.571 234.264 92.528 233.618C78.7156 232.986 77.7677 229.648 66.4843 230.332C56.3395 230.946 43.2769 234.483 43.2306 238.313C43.179 242.531 58.8806 248.463 73.9251 246.295C82.298 245.088 81.7187 242.636 89.7373 241.6C104.265 239.724 108.535 247.47 123.222 245.827C131.72 244.875 140.592 241.128 140.43 238.314C140.226 234.764 125.682 232.981 123.222 232.679Z" fill="#D8DEE8"/>
<path d="M119.518 108.994C118.945 108.109 118.623 107.083 118.586 106.027C118.511 103.275 120.536 101.129 120.808 101.252C120.957 101.318 120.769 102.124 120.665 102.482C120.448 103.226 120.216 103.298 120.234 103.64C120.275 104.343 121.281 104.37 121.811 105.3C122.193 105.972 122.224 106.93 121.811 107.687C121.127 108.948 119.583 108.993 119.518 108.994Z" fill="url(#paint9_linear_1_3674)"/>
<path d="M76.3271 168.768L77.1046 166.068L73.8601 163.641L71.8379 162.878L73.0355 166.655L76.3271 168.768Z" fill="url(#paint10_linear_1_3674)"/>
<path d="M80.3439 223.139C80.3439 223.139 78.5699 227.647 79.0364 229.645C77.1315 229.608 75.8965 229.363 75.8965 229.363C75.8965 229.363 76.662 227.307 76.8115 226.289C77.0134 224.913 76.9984 222.687 76.9984 222.687L80.3439 223.139Z" fill="url(#paint11_linear_1_3674)"/>
<path d="M99.9065 233.682C99.7082 233.914 99.5904 234.205 99.5709 234.512C99.5655 234.702 99.5998 234.891 99.6718 235.067C99.9708 235.871 100.449 235.977 100.962 236.829C101.275 237.351 101.216 237.509 101.503 237.743C101.882 238.053 102.339 238.071 102.736 238.075C103.689 238.084 104.641 238.029 105.587 237.913C104.95 237.085 104.272 236.244 103.552 235.392C103.237 235.02 102.922 234.656 102.607 234.3L100.738 233.662L99.9065 233.682Z" fill="#26264F"/>
<path d="M101.463 224.503C101.463 224.503 102.533 230.141 101.171 231.72C100.012 233.299 101.732 232.173 101.732 232.173L103.787 233.984L105.019 236.134C105.019 236.134 103.885 230.616 104.187 228.426C104.489 226.237 104.641 224.759 104.641 224.759L101.463 224.503Z" fill="url(#paint12_linear_1_3674)"/>
<path d="M105.499 162.831C105.499 162.831 108.374 165.429 108.374 176.124C108.374 186.818 107.012 210.037 107.012 210.037L104.833 226.664C104.833 226.664 102.573 226.745 101.06 226.287C99.6977 220.022 97.4781 209.427 98.5375 200.566C98.9912 190.941 94.7539 178.871 94.7539 178.871C94.7539 178.871 91.1221 191.093 88.5489 197.204C85.9757 203.315 81.0775 222.46 80.6245 223.835C77.614 224.111 76.3281 223.307 76.3281 223.307C76.3281 223.307 78.2584 202.703 80.0743 194.913C81.8902 187.123 81.7392 168.33 84.7661 162.982C91.5797 160.234 105.499 162.831 105.499 162.831Z" fill="url(#paint13_linear_1_3674)"/>
<path d="M105.499 162.831C105.499 162.831 108.374 165.429 108.374 176.124C108.374 186.818 107.012 210.037 107.012 210.037L104.833 226.664C104.833 226.664 102.573 226.745 101.06 226.287C99.6977 220.022 97.4781 209.427 98.5375 200.566C98.9912 190.941 94.7539 178.871 94.7539 178.871C94.7539 178.871 91.1221 191.093 88.5489 197.204C85.9757 203.315 81.0775 222.46 80.6245 223.835C77.614 224.111 76.3281 223.307 76.3281 223.307C76.3281 223.307 78.2584 202.703 80.0743 194.913C81.8902 187.123 81.7392 168.33 84.7661 162.982C91.5797 160.234 105.499 162.831 105.499 162.831Z" fill="url(#paint14_linear_1_3674)"/>
<path style="mix-blend-mode:multiply" opacity="0.25" d="M90.5623 182.427C89.6652 188.314 87.871 191.479 83.3855 195.552C79.7971 198.269 82.4884 204.151 81.1427 208.676C80.6942 210.035 79.3485 211.393 78.9 212.752C77.2321 216.12 78.7901 220.24 78.0335 223.807C76.8568 223.642 76.3223 223.312 76.3223 223.312C76.3223 223.312 78.2525 202.708 80.0684 194.918C81.8843 187.128 81.7333 168.334 84.7603 162.987C91.5701 160.237 105.493 162.836 105.493 162.836C105.493 162.836 108.368 165.434 108.368 176.128C108.368 176.996 108.359 177.947 108.343 178.961C105.358 181.628 99.2523 182.22 95.4844 179.263C95.2721 179.1 95.026 178.987 94.7645 178.934C94.7533 178.9 94.7451 178.877 94.7451 178.877C94.7451 178.877 94.7391 178.898 94.7294 178.93C93.0249 178.611 90.9511 180.857 90.5623 182.427Z" fill="url(#paint15_linear_1_3674)"/>
<path d="M79.5032 231.356C79.5032 231.356 79.9451 231.356 79.9084 231.933C79.8718 232.51 80.108 234.494 77.8593 234.587C75.6106 234.679 75.2645 234.426 75.1912 234.426C75.1179 234.426 75.7803 232.528 75.7803 232.528L76.4995 231.598L78.4342 231.393L79.5032 231.356Z" fill="#26264F"/>
<path d="M74.5181 233.347C74.5659 232.868 74.8313 232.114 75.0982 231.507C75.4952 230.606 75.173 230.269 75.5467 229.448C75.6776 229.163 75.8054 228.894 76.0828 228.627C76.1463 228.566 76.7668 227.987 77.6699 228.017C77.9296 228.014 78.186 228.075 78.4175 228.194C78.7659 228.381 78.9408 228.663 79.0903 228.91C79.3251 229.299 79.2713 229.418 79.6323 230.532C79.6925 230.712 79.7397 230.897 79.7736 231.084C79.8035 231.247 79.8232 231.413 79.8327 231.579C79.2436 231.579 76.9769 231.673 76.4977 232.026C76.0185 232.379 75.7785 232.974 75.7785 233.57C75.7785 234.165 75.484 234.445 75.1894 234.426C74.927 234.409 74.4037 233.916 74.5181 233.347Z" fill="#444B8C"/>
<path d="M101.751 230.929C101.244 230.936 100.873 231.343 100.593 232.323C100.312 233.304 98.9673 234.172 100.536 233.964C102.106 233.756 103.245 236.002 103.805 236.832C104.365 237.662 105.87 238.399 105.832 237.587C105.795 236.775 105.131 236.396 104.945 235.567C104.759 234.738 102.906 230.91 101.751 230.929Z" fill="#444B8C"/>
<path d="M75.1369 164.123C74.7631 163.078 72.4404 156.213 76.1963 149.952C79.2711 144.827 84.5917 143.155 85.3498 142.929C89.9676 141.552 92.2822 143.321 93.7392 141.693C96.2122 138.93 93.411 129.521 87.994 127.637C81.8869 125.512 74.5613 133.681 71.5926 139.047C67.6977 146.086 68.6561 153.084 68.8818 154.524C69.3476 157.469 70.3499 160.301 71.8378 162.878L75.1369 164.123Z" fill="url(#paint16_linear_1_3674)"/>
<path d="M91.0843 126.309C96.5357 126.088 100.739 126.176 103.114 128.573C105.622 131.103 103.088 133.96 103.632 140.579C104.465 150.713 110.862 153.188 111.343 163.469C111.462 166.165 111.169 168.863 110.474 171.469C109.07 173.234 106.772 175.725 103.381 177.808C98.4473 180.839 95.5856 180.31 88.4992 182.268C76.9116 185.471 75.8769 189.287 70.1287 188.313C64.32 187.332 59.2237 182.396 59.8397 179.686C60.2083 178.063 62.5497 178.523 65.2455 176.048C68.7203 172.857 67.3806 169.811 70.0226 166.387C73.8173 161.463 79.1035 164.473 82.3368 160.205C85.6083 155.888 84.3105 147.381 81.5534 142.744C79.7524 139.715 78.9817 136.166 77.4491 132.99C77.2617 132.607 77.1887 132.177 77.239 131.752C77.4872 129.685 80.9022 128.562 83.4889 127.74C87.4339 126.479 90.6358 126.327 91.0843 126.309Z" fill="url(#paint17_linear_1_3674)"/>
<path d="M95.6771 126.081L94.6021 125.747C94.6021 125.747 94.321 127.217 90.8641 127.4C88.9451 127.4 87.7048 126.315 87.7048 126.315L86.9707 126.855C86.9707 126.855 88.5818 128.888 91.1452 128.836C94.4526 128.769 95.6771 126.081 95.6771 126.081Z" fill="url(#paint18_linear_1_3674)"/>
<path d="M93.487 121.611C93.2791 119.998 92.0157 118.964 91.7399 118.743C90.5856 117.817 90.3501 117.724 89.9539 117.647L89.4126 117.565H89.3528C89.0358 117.585 88.0819 117.959 87.913 118.081C87.3612 118.473 87.7679 121.251 89.441 124.699L89.6384 125.575C88.1799 125.834 87.8188 126.099 87.8076 126.311C87.7821 126.771 89.3775 127.357 90.8584 127.395C92.714 127.443 94.6838 126.641 94.6465 126.037C94.6315 125.793 94.2809 125.493 92.9337 125.198L92.302 124.302C92.4934 124.067 93.6395 122.8 93.487 121.611Z" fill="url(#paint19_linear_1_3674)"/>
<path d="M91.1928 121.004C90.7718 120.749 90.4519 121.296 90.65 121.774C90.8481 122.251 91.5142 122.55 91.9209 122.266C92.3276 121.981 91.7594 121.346 91.1928 121.004Z" fill="url(#paint20_linear_1_3674)"/>
<path d="M36.6444 120.996C42.184 114.927 55.074 116.591 62.2231 121.465C65.5454 123.729 67.2499 126.405 71.1755 126.63C74.1599 126.8 78.9071 125.668 81.407 122.403C81.7225 121.993 82.9822 120.268 84.8736 118.094C85.7079 117.135 86.537 116.236 87.8228 116.032C88.1495 115.98 89.2358 115.805 89.9542 116.51C90.5358 117.084 90.6786 118.082 90.5067 118.802C90.4035 119.231 90.2704 119.277 90.2899 119.556C90.3429 120.347 91.7701 120.688 91.6908 121.091C91.634 121.375 90.8909 121.271 90.7631 121.628C90.6233 122.02 91.4359 122.357 91.7895 123.342C92.4467 123.786 92.8616 124.89 93.0051 126.368C93.2159 128.54 92.9999 130.306 92.5917 131.636C90.6285 138.036 89.2275 142.615 85.8253 145.172C81.3255 148.557 77.2736 145.432 65.8273 144.937C50.1541 144.258 46.2457 149.624 40.6126 145.955C33.5785 141.377 30.8925 127.297 36.6444 120.996Z" fill="url(#paint21_linear_1_3674)"/>
<path d="M118.855 108.608C118.994 109.932 119.467 115.789 115.465 120.734C111.727 125.355 106.43 126.278 105.447 126.428C100.686 127.154 98.6331 125.083 96.969 126.494C94.1461 128.889 95.6458 138.597 100.757 141.211C106.519 144.159 114.882 137.078 118.55 132.172C123.361 125.737 123.359 118.674 123.334 117.216C123.272 114.234 122.664 111.29 121.54 108.532C120.662 108.264 119.723 108.291 118.861 108.608L118.855 108.608Z" fill="url(#paint22_linear_1_3674)"/>
<path style="mix-blend-mode:multiply" opacity="0.3" d="M69.9552 184.438C71.3494 182.995 69.8146 180.086 71.8735 177.923C73.7843 175.915 75.9478 177.537 79.0242 175.81C82.9699 173.594 81.8822 169.539 85.6515 167.357C88.3616 165.789 89.6354 167.475 93.8481 166.653C98.0608 165.831 103.177 162.905 105.708 157.672C106.667 155.672 107.187 153.486 107.231 151.264C109.124 154.676 111.086 157.946 111.343 163.463C111.462 166.159 111.169 168.858 110.474 171.463C109.07 173.229 106.772 175.719 103.381 177.803C98.4473 180.833 95.5855 180.305 88.4991 182.263C76.9115 185.466 75.8768 189.281 70.1286 188.308C66.4168 187.68 63.0033 185.44 61.1777 183.194C66.5357 185.604 68.9437 185.484 69.9552 184.438Z" fill="url(#paint23_linear_1_3674)"/>
<defs>
<linearGradient id="paint0_linear_1_3674" x1="262731" y1="199507" x2="178327" y2="309172" gradientUnits="userSpaceOnUse">
<stop stop-color="#E38DDD"/>
<stop offset="1" stop-color="#9571F6"/>
</linearGradient>
<linearGradient id="paint1_linear_1_3674" x1="99.8818" y1="39.0362" x2="112.263" y2="140.859" gradientUnits="userSpaceOnUse">
<stop stop-color="#AA80F9"/>
<stop offset="1" stop-color="#6165D7"/>
</linearGradient>
<linearGradient id="paint2_linear_1_3674" x1="88.6116" y1="160.202" x2="79.4333" y2="243.483" gradientUnits="userSpaceOnUse">
<stop stop-color="#E38DDD"/>
<stop offset="1" stop-color="#9571F6"/>
</linearGradient>
<linearGradient id="paint3_linear_1_3674" x1="79.2949" y1="152.001" x2="132.993" y2="152.001" gradientUnits="userSpaceOnUse">
<stop stop-color="#FF9085"/>
<stop offset="1" stop-color="#FB6FBB"/>
</linearGradient>
<linearGradient id="paint4_linear_1_3674" x1="156574" y1="218079" x2="331612" y2="415611" gradientUnits="userSpaceOnUse">
<stop stop-color="#FF9085"/>
<stop offset="1" stop-color="#FB6FBB"/>
</linearGradient>
<linearGradient id="paint5_linear_1_3674" x1="57935.8" y1="323500" x2="91248.2" y2="323547" gradientUnits="userSpaceOnUse">
<stop stop-color="#FF9085"/>
<stop offset="1" stop-color="#FB6FBB"/>
</linearGradient>
<linearGradient id="paint6_linear_1_3674" x1="193.373" y1="61.2761" x2="240.758" y2="182.175" gradientUnits="userSpaceOnUse">
<stop stop-color="#FCB148"/>
<stop offset="0.05" stop-color="#FDBA46"/>
<stop offset="0.14" stop-color="#FFC244"/>
<stop offset="0.32" stop-color="#FFC444"/>
<stop offset="0.48" stop-color="#FDB946"/>
<stop offset="0.78" stop-color="#F99C4D"/>
<stop offset="0.87" stop-color="#F8924F"/>
<stop offset="1" stop-color="#F8924F"/>
</linearGradient>
<linearGradient id="paint7_linear_1_3674" x1="141589" y1="108683" x2="250097" y2="247014" gradientUnits="userSpaceOnUse">
<stop stop-color="#FCB148"/>
<stop offset="0.05" stop-color="#FDBA46"/>
<stop offset="0.14" stop-color="#FFC244"/>
<stop offset="0.32" stop-color="#FFC444"/>
<stop offset="0.48" stop-color="#FDB946"/>
<stop offset="0.78" stop-color="#F99C4D"/>
<stop offset="0.87" stop-color="#F8924F"/>
<stop offset="1" stop-color="#F8924F"/>
</linearGradient>
<linearGradient id="paint8_linear_1_3674" x1="53709.9" y1="39200.6" x2="45946.9" y2="50872.6" gradientUnits="userSpaceOnUse">
<stop stop-color="#FCB148"/>
<stop offset="0.05" stop-color="#FDBA46"/>
<stop offset="0.14" stop-color="#FFC244"/>
<stop offset="0.32" stop-color="#FFC444"/>
<stop offset="0.48" stop-color="#FDB946"/>
<stop offset="0.78" stop-color="#F99C4D"/>
<stop offset="0.87" stop-color="#F8924F"/>
<stop offset="1" stop-color="#F8924F"/>
</linearGradient>
<linearGradient id="paint9_linear_1_3674" x1="119.355" y1="103.794" x2="122.517" y2="108.863" gradientUnits="userSpaceOnUse">
<stop stop-color="#FFC444"/>
<stop offset="1" stop-color="#F36F56"/>
</linearGradient>
<linearGradient id="paint10_linear_1_3674" x1="18759.3" y1="12969.1" x2="18865.3" y2="13163.9" gradientUnits="userSpaceOnUse">
<stop stop-color="#FFC444"/>
<stop offset="1" stop-color="#F36F56"/>
</linearGradient>
<linearGradient id="paint11_linear_1_3674" x1="-9861.31" y1="21491.1" x2="-9861.31" y2="20734.6" gradientUnits="userSpaceOnUse">
<stop stop-color="#FFC444"/>
<stop offset="1" stop-color="#F36F56"/>
</linearGradient>
<linearGradient id="paint12_linear_1_3674" x1="-8031.47" y1="36138.3" x2="-8031.47" y2="34614.4" gradientUnits="userSpaceOnUse">
<stop stop-color="#FFC444"/>
<stop offset="1" stop-color="#F36F56"/>
</linearGradient>
<linearGradient id="paint13_linear_1_3674" x1="108.374" y1="194.197" x2="76.3289" y2="194.197" gradientUnits="userSpaceOnUse">
<stop stop-color="#311944"/>
<stop offset="1" stop-color="#893976"/>
</linearGradient>
<linearGradient id="paint14_linear_1_3674" x1="58959.1" y1="146528" x2="81377.9" y2="165107" gradientUnits="userSpaceOnUse">
<stop stop-color="#311944"/>
<stop offset="1" stop-color="#893976"/>
</linearGradient>
<linearGradient id="paint15_linear_1_3674" x1="62855.3" y1="135575" x2="84443.7" y2="154292" gradientUnits="userSpaceOnUse">
<stop stop-color="#311944"/>
<stop offset="1" stop-color="#893976"/>
</linearGradient>
<linearGradient id="paint16_linear_1_3674" x1="-12192.4" y1="113572" x2="-944.957" y2="90955" gradientUnits="userSpaceOnUse">
<stop stop-color="#FFC444"/>
<stop offset="1" stop-color="#F36F56"/>
</linearGradient>
<linearGradient id="paint17_linear_1_3674" x1="162213" y1="105709" x2="185094" y2="144702" gradientUnits="userSpaceOnUse">
<stop stop-color="#FFC444"/>
<stop offset="1" stop-color="#F36F56"/>
</linearGradient>
<linearGradient id="paint18_linear_1_3674" x1="-17587.5" y1="5104.26" x2="-17679.7" y2="5517.6" gradientUnits="userSpaceOnUse">
<stop stop-color="#E38DDD"/>
<stop offset="1" stop-color="#9571F6"/>
</linearGradient>
<linearGradient id="paint19_linear_1_3674" x1="-14571.4" y1="15807.2" x2="-13813.9" y2="16675.5" gradientUnits="userSpaceOnUse">
<stop stop-color="#FFC444"/>
<stop offset="1" stop-color="#F36F56"/>
</linearGradient>
<linearGradient id="paint20_linear_1_3674" x1="-2531.59" y1="1466.17" x2="-2476.84" y2="1643.2" gradientUnits="userSpaceOnUse">
<stop stop-color="#FFC444"/>
<stop offset="1" stop-color="#F36F56"/>
</linearGradient>
<linearGradient id="paint21_linear_1_3674" x1="92.0422" y1="84.1563" x2="47.8597" y2="153.718" gradientUnits="userSpaceOnUse">
<stop stop-color="#444B8C"/>
<stop offset="1" stop-color="#26264F"/>
</linearGradient>
<linearGradient id="paint22_linear_1_3674" x1="86393.9" y1="57568.5" x2="98534.8" y2="78233.1" gradientUnits="userSpaceOnUse">
<stop stop-color="#FFC444"/>
<stop offset="1" stop-color="#F36F56"/>
</linearGradient>
<linearGradient id="paint23_linear_1_3674" x1="155447" y1="64119.9" x2="165441" y2="91847.3" gradientUnits="userSpaceOnUse">
<stop stop-color="#FFC444"/>
<stop offset="1" stop-color="#F36F56"/>
</linearGradient>
</defs>
</svg>
