<svg width="402" height="405" viewBox="0 0 402 405" fill="none" xmlns="http://www.w3.org/2000/svg">
<g clip-path="url(#clip0_1_2591)">
<path opacity="0.1" d="M207.256 0.0885005C104.345 -2.91272 15.2033 70.8368 1.73461 167.61C-12.9896 273.409 68.0558 368.607 167.773 383.857C291.809 402.822 412.119 293.107 401.319 174.082C393.185 84.4045 311.865 3.13946 207.256 0.0885005Z" fill="#F4F7FA"/>
<path d="M331.5 203.259C320.941 196.627 304.782 206.212 303.354 207.08C288.027 216.419 290.273 229.623 278.32 233.676C265.677 237.96 258.085 224.916 246.586 229.531C234.997 234.189 231.089 252.126 228.937 262.018C224.769 281.162 229.591 290.994 222.361 296.988C215.838 302.399 208.999 296.804 202.113 301.075C188.868 309.287 185.991 347.436 206.993 369.031C225.205 387.748 254.542 387.032 273.771 377.153C287.045 370.335 303.521 355.036 303.284 337.762C303.1 324.379 293.033 320.832 295.126 310.598C298.683 293.197 330.508 290.191 330.06 278.739C329.75 270.815 314.362 268.255 314.795 260.585C315.188 253.623 327.978 253.662 335.307 242.908C343.384 231.08 342.228 209.997 331.5 203.259Z" fill="url(#paint0_linear_1_2591)"/>
<g style="mix-blend-mode:soft-light">
<g style="mix-blend-mode:soft-light">
<g style="mix-blend-mode:soft-light">
<path d="M209.345 392.563L208.473 392.173C223.511 358.379 239.577 327.368 256.226 300.017C269.55 278.126 283.268 258.509 297.018 241.706C320.441 213.079 336.029 202.418 336.184 202.315L336.717 203.106C336.563 203.21 321.058 213.822 297.712 242.365C276.164 268.719 243.342 316.162 209.345 392.563Z" fill="white"/>
</g>
<g style="mix-blend-mode:soft-light">
<path d="M294.871 244.537C294.551 214.925 307.919 193.098 308.054 192.881L308.864 193.385C308.726 193.601 295.507 215.205 295.824 244.528L294.871 244.537Z" fill="white"/>
</g>
<g style="mix-blend-mode:soft-light">
<path d="M253.762 303.895C243.414 273.345 242.37 252.752 243.322 240.858C244.361 227.901 247.827 222.272 247.975 222.038L248.782 222.548C248.746 222.603 245.272 228.277 244.266 241.041C243.336 252.834 244.386 273.259 254.665 303.588L253.762 303.895Z" fill="white"/>
</g>
<g style="mix-blend-mode:soft-light">
<path d="M221.905 363.801C192.283 315.835 196.494 282.847 196.539 282.52L197.484 282.658C197.472 282.741 196.407 291.294 199.191 305.839C201.643 318.646 207.715 339.012 222.716 363.304L221.905 363.801Z" fill="white"/>
</g>
<g style="mix-blend-mode:soft-light">
<path d="M269.206 297.138C265.845 297.14 262.486 296.949 259.146 296.563L259.257 295.615C281.459 298.195 302.071 291.5 315.451 285.43C329.955 278.85 339.31 271.575 339.403 271.501L339.992 272.254C339.898 272.328 330.453 279.673 315.847 286.3C304.4 291.493 287.7 297.138 269.206 297.138Z" fill="white"/>
</g>
<g style="mix-blend-mode:soft-light">
<path d="M233.297 353.075C231.512 353.075 229.704 353.01 227.873 352.881L227.941 351.928C251.185 353.597 270.524 344.063 282.657 335.772C295.811 326.791 303.552 317.295 303.629 317.201L304.364 317.809C304.287 317.904 296.458 327.504 283.188 336.569C271.893 344.288 254.391 353.075 233.297 353.075Z" fill="white"/>
</g>
</g>
</g>
<path d="M181.541 381.625C208.266 354.147 204.598 305.603 187.75 295.154C178.988 289.72 170.286 296.839 161.984 289.955C152.787 282.326 158.922 269.817 153.619 245.462C150.879 232.875 145.91 210.052 131.16 204.124C116.535 198.248 106.877 214.847 90.7856 209.394C75.5743 204.239 78.4331 187.438 58.9295 175.555C57.1152 174.449 36.5534 162.258 23.1178 170.691C9.46836 179.258 7.99621 206.085 18.2612 221.146C27.5881 234.826 43.8617 234.78 44.3626 243.638C44.9144 253.399 25.3336 256.657 24.939 266.738C24.3678 281.31 64.8636 285.137 69.3905 307.278C72.0533 320.299 59.2441 324.813 59.0095 341.842C58.7074 363.822 79.6734 383.295 96.5624 391.963C121.04 404.53 158.378 405.441 181.541 381.625Z" fill="url(#paint1_linear_1_2591)"/>
<g style="mix-blend-mode:soft-light">
<g style="mix-blend-mode:soft-light">
<path d="M169.381 404.999L170.485 404.504C151.354 361.503 130.914 322.051 109.727 287.24C92.7744 259.386 75.3114 234.424 57.8222 213.049C28.0205 176.623 8.1831 163.058 7.9858 162.925L7.3125 163.934C7.50842 164.065 27.2369 177.57 56.942 213.888C84.3568 247.41 126.122 307.778 169.381 404.999Z" fill="white"/>
</g>
<g style="mix-blend-mode:soft-light">
<path d="M60.5571 216.642C60.971 178.961 43.9537 151.187 43.7812 150.911L42.752 151.555C42.9217 151.831 59.7472 179.317 59.3443 216.636L60.5571 216.642Z" fill="white"/>
</g>
<g style="mix-blend-mode:soft-light">
<path d="M112.862 292.168C126.04 253.296 127.361 227.095 126.149 211.965C124.828 195.479 120.417 188.316 120.231 188.018L119.203 188.666C119.249 188.738 123.669 195.957 124.95 212.197C126.132 227.204 124.795 253.193 111.717 291.787L112.862 292.168Z" fill="white"/>
</g>
<g style="mix-blend-mode:soft-light">
<path d="M153.401 368.397C191.093 307.361 185.736 265.388 185.678 264.971L184.475 265.141C184.49 265.244 185.846 276.129 182.303 294.636C179.183 310.933 171.457 336.847 152.363 367.758L153.401 368.397Z" fill="white"/>
</g>
<g style="mix-blend-mode:soft-light">
<path d="M93.2138 283.572C97.4908 283.575 101.764 283.331 106.013 282.841L105.875 281.634C77.6245 284.915 51.3976 276.398 34.3734 268.674C15.9171 260.302 4.01984 251.044 3.89429 250.951L3.14648 251.909C3.26514 252.001 15.2879 261.349 33.8726 269.782C48.4285 276.389 69.6829 283.572 93.2138 283.572Z" fill="white"/>
</g>
<g style="mix-blend-mode:soft-light">
<path d="M138.907 354.748C141.175 354.748 143.474 354.666 145.805 354.502L145.718 353.289C116.141 355.41 91.533 343.284 76.0955 332.739C59.3568 321.305 49.5085 309.228 49.4105 309.11L48.4668 309.875C48.5661 309.998 58.5263 322.212 75.4125 333.746C89.796 343.568 112.066 354.748 138.907 354.748Z" fill="white"/>
</g>
</g>
<path d="M209.665 100.53C220.819 194.951 231.974 288.386 243.129 380.833C243.63 384.978 240.77 388.644 236.769 388.985C191.939 393.245 147.107 397.598 102.275 402.044C94.2727 402.433 89.8866 397.957 89.372 393.477C77.8901 293.678 66.4081 192.833 54.9262 90.943C54.4116 86.3666 58.2817 82.4327 66.2798 82.8237C111.331 86.0423 156.383 89.2172 201.436 92.3483C205.463 92.615 209.164 96.2933 209.665 100.53Z" fill="#26264F"/>
<path d="M215.893 100.337C227.114 195.168 238.339 289.002 249.567 381.838C250.071 385.997 247.194 389.683 243.168 390.027C196.617 393.977 150.065 398.003 103.513 402.108C99.2644 402.486 95.3599 399.117 94.8425 394.614C83.2888 294.357 71.7347 193.043 60.1801 90.6711C59.6613 86.0753 62.7408 82.5477 67.0179 82.8378C113.882 85.9699 160.746 89.0632 207.61 92.1178C211.665 92.3887 215.388 96.0822 215.893 100.337Z" fill="url(#paint2_linear_1_2591)"/>
<path d="M213.186 115.85C223.579 203.711 233.976 290.717 244.377 376.867C244.848 380.761 242.159 384.199 238.397 384.505C194.614 388.092 150.835 391.746 107.06 395.467C103.104 395.807 99.4713 392.652 98.9843 388.47C88.3017 295.866 77.6181 202.359 66.9337 107.949C66.4522 103.677 69.3178 100.371 73.2983 100.607C117.35 103.176 161.401 105.718 205.454 108.233C209.238 108.45 212.716 111.881 213.186 115.85Z" fill="url(#paint3_linear_1_2591)"/>
<path style="mix-blend-mode:multiply" opacity="0.3" d="M205.454 108.233C161.924 105.746 118.394 103.235 74.8633 100.699C76.3263 109.255 78.8958 117.585 82.5069 125.477C96.9469 156.843 118.159 158.577 126.457 185.916C135.012 214.082 115.726 222.896 125.145 248.326C135.368 275.92 160.437 271.927 173.688 302.196C185.107 328.285 170.405 340.212 182.214 356.066C195.159 373.445 219.105 367.553 243.96 373.438C233.701 288.412 223.441 202.55 213.182 115.85C212.717 111.881 209.239 108.45 205.454 108.233Z" fill="url(#paint4_linear_1_2591)"/>
<path d="M141.874 96.6527C142.05 98.1727 141.025 99.35 139.583 99.2657C138.142 99.1814 136.824 97.8646 136.65 96.3308C136.476 94.797 137.499 93.6239 138.942 93.7178C140.385 93.8118 141.697 95.1217 141.874 96.6527Z" fill="#DE8BDF"/>
<path d="M157.598 181.558C163.162 181.558 167.673 176.229 167.673 169.654C167.673 163.08 163.162 157.75 157.598 157.75C152.034 157.75 147.523 163.08 147.523 169.654C147.523 176.229 152.034 181.558 157.598 181.558Z" fill="url(#paint5_linear_1_2591)"/>
<path d="M197.705 181.558C203.27 181.558 207.78 176.229 207.78 169.654C207.78 163.08 203.27 157.75 197.705 157.75C192.141 157.75 187.631 163.08 187.631 169.654C187.631 176.229 192.141 181.558 197.705 181.558Z" fill="url(#paint6_linear_1_2591)"/>
<path d="M177.542 181.558C183.186 181.558 187.761 176.229 187.761 169.654C187.761 163.08 183.186 157.75 177.542 157.75C171.898 157.75 167.322 163.08 167.322 169.654C167.322 176.229 171.898 181.558 177.542 181.558Z" fill="#D8DEE8"/>
<path d="M237.811 181.558C243.375 181.558 247.886 176.229 247.886 169.654C247.886 163.08 243.375 157.75 237.811 157.75C232.247 157.75 227.736 163.08 227.736 169.654C227.736 176.229 232.247 181.558 237.811 181.558Z" fill="url(#paint7_linear_1_2591)"/>
<path d="M217.647 181.558C223.291 181.558 227.867 176.229 227.867 169.654C227.867 163.08 223.291 157.75 217.647 157.75C212.003 157.75 207.428 163.08 207.428 169.654C207.428 176.229 212.003 181.558 217.647 181.558Z" fill="#D8DEE8"/>
<path d="M257.753 181.558C263.397 181.558 267.972 176.229 267.972 169.654C267.972 163.08 263.397 157.75 257.753 157.75C252.109 157.75 247.533 163.08 247.533 169.654C247.533 176.229 252.109 181.558 257.753 181.558Z" fill="#D8DEE8"/>
<path d="M137.434 181.558C143.078 181.558 147.654 176.229 147.654 169.654C147.654 163.08 143.078 157.75 137.434 157.75C131.79 157.75 127.215 163.08 127.215 169.654C127.215 176.229 131.79 181.558 137.434 181.558Z" fill="#D8DEE8"/>
<path d="M64.9121 99.4287L127.434 171.267H288.803L210.609 108.528L64.9121 99.4287Z" fill="url(#paint8_linear_1_2591)"/>
<path d="M64.9121 99.4287L127.434 171.267H147.653L81.7307 100.479L64.9121 99.4287Z" fill="#F4F7FA"/>
<path d="M99.7891 101.606L167.578 171.267H187.551L117.981 102.743L99.7891 101.606Z" fill="#F4F7FA"/>
<path d="M136.307 103.888L207.571 171.267H227.641L154.771 105.04L136.307 103.888Z" fill="#F4F7FA"/>
<path d="M192.128 107.374L173.379 106.202L247.759 171.267H267.926L192.128 107.374Z" fill="#F4F7FA"/>
<path d="M267.939 171.267C268.607 177.071 272.811 181.559 277.912 181.559C283.013 181.559 287.217 177.076 287.884 171.267H267.939Z" fill="url(#paint9_linear_1_2591)"/>
<path opacity="0.63" d="M191.249 216.143C182.522 196 160.382 186.217 141.798 194.293C123.213 202.37 115.223 225.245 123.951 245.389C132.679 265.532 154.818 275.314 173.401 267.236C191.985 259.158 199.976 236.284 191.249 216.143ZM163.845 244.851L164.59 250.525L159.147 251.24L158.458 245.956C154.714 246.28 150.973 245.755 148.702 244.808L149.513 238.08C152.014 239.048 155.446 239.79 159.055 239.314C162.228 238.9 164.226 237.388 163.934 235.169C163.658 233.055 161.704 231.954 157.412 231.104C151.203 229.884 146.788 227.635 146.077 222.24C145.436 217.345 148.376 213.054 154.165 211.103L153.475 205.819L158.918 205.103L159.56 209.997C163.305 209.674 165.907 210.124 167.856 210.772L167.07 217.267C165.552 216.852 162.823 215.901 158.823 216.428C155.213 216.903 154.251 218.615 154.455 220.173C154.697 222.008 156.794 222.919 161.748 224.079C168.665 225.545 171.732 228.255 172.389 233.259C173.031 238.206 170.087 242.893 163.845 244.851Z" fill="#F4F7FA"/>
<g opacity="0.63">
<path opacity="0.63" d="M211.188 325.516L126.125 328.097C124.647 328.143 123.204 327.644 122.068 326.696C120.933 325.748 120.183 324.417 119.961 322.953L116.512 300.241C116.383 299.39 116.436 298.521 116.669 297.692C116.901 296.864 117.307 296.094 117.86 295.435C118.412 294.776 119.099 294.242 119.873 293.869C120.648 293.497 121.493 293.294 122.352 293.274L207.508 291.298C208.979 291.264 210.411 291.768 211.538 292.715C212.664 293.663 213.407 294.989 213.628 296.445L216.984 318.553C217.112 319.4 217.059 320.265 216.829 321.09C216.599 321.915 216.197 322.682 215.649 323.34C215.102 323.998 214.421 324.533 213.652 324.908C212.882 325.283 212.043 325.49 211.188 325.516Z" fill="#F4F7FA"/>
<path opacity="0.63" d="M214.046 344.187L129.033 347.103C127.551 347.153 126.102 346.658 124.962 345.709C123.821 344.761 123.068 343.426 122.845 341.958L122.813 341.744C122.684 340.897 122.737 340.032 122.966 339.207C123.196 338.381 123.598 337.614 124.146 336.956C124.693 336.298 125.374 335.763 126.143 335.388C126.913 335.012 127.752 334.805 128.608 334.779L213.653 332.08C215.132 332.033 216.577 332.531 217.714 333.479C218.851 334.427 219.602 335.76 219.824 337.226C219.952 338.071 219.9 338.934 219.671 339.758C219.442 340.582 219.041 341.348 218.496 342.006C217.95 342.663 217.271 343.198 216.504 343.574C215.737 343.95 214.899 344.159 214.046 344.187Z" fill="#F4F7FA"/>
</g>
<path d="M263.921 245.181C274.442 240.035 294.965 258.674 304.951 276.528C308.93 283.643 313.603 291.995 312.457 301.926C310.425 319.531 290.924 334.973 264.084 340.13C263.328 337.427 262.573 334.724 261.817 332.021C264.752 328.959 269.141 324.54 274.749 319.478C283.366 311.7 285.136 311.187 285.548 308.725C286.902 300.681 266.249 293.948 258.902 279.807C252.587 267.65 255.838 249.134 263.921 245.181Z" fill="url(#paint10_linear_1_2591)"/>
<path d="M277.742 386.679C277.742 386.679 276.015 390.947 276.875 392.621C277.734 394.294 281.879 393.236 287.723 394.131C293.568 395.027 297.599 396.393 297.924 395.181C298.248 393.969 286.137 387.568 285.168 386.682C284.2 385.796 277.742 386.679 277.742 386.679Z" fill="url(#paint11_linear_1_2591)"/>
<path d="M279.289 380.299L283.376 386.679C283.376 386.679 281.493 388.541 278.292 387.848L273.797 381.804L279.289 380.299Z" fill="url(#paint12_linear_1_2591)"/>
<path style="mix-blend-mode:multiply" opacity="0.3" d="M258.902 279.81C252.587 267.65 255.838 249.135 263.921 245.184C266.041 244.148 268.57 244.09 271.333 244.783C269.878 248.991 270.166 252.034 270.885 254.189C274.087 263.801 287.931 262.706 292.256 273.647C294.991 280.556 290.644 283.995 294.523 289.538C298.545 295.283 305.122 294.319 307.153 299.916C308.671 304.085 305.682 306.456 306.829 309.97C307.149 310.948 307.78 311.931 308.839 312.865C301.725 325.677 285.173 336.079 264.084 340.131C263.328 337.429 262.573 334.726 261.817 332.023C264.752 328.961 269.141 324.542 274.749 319.479C283.366 311.701 285.136 311.189 285.548 308.726C286.902 300.682 266.249 293.948 258.902 279.81Z" fill="url(#paint13_linear_1_2591)"/>
<path d="M271.1 248.996C270.644 267.423 270.9 287.348 272.232 308.559C273.798 333.473 276.73 358.282 281.017 382.873L275.825 384.532C258.027 367.16 252.697 351.88 251.239 340.888C250.207 333.118 251.767 332.451 250.376 322.726C247.726 304.21 240.815 297.865 235.961 280.528C234.139 274.021 232.11 264.191 232.236 251.372L271.1 248.996Z" fill="url(#paint14_linear_1_2591)"/>
<path d="M283.851 215.99C283.527 216.064 282.124 216.531 281.569 222.403C280.231 236.56 287.591 242.292 285.778 249.969C284.039 257.339 275.167 260.914 266.036 264.595C259.932 267.055 241.064 274.66 230.081 266.107C225.462 262.514 224.957 258.161 221.665 242.185C213.292 201.597 210.048 198.107 213.569 189.323C219.617 174.234 235.81 167.984 238.504 166.938C267.231 155.852 301.155 176.226 314.56 199.635C316.326 202.716 326.867 221.124 319.461 229.854C314.98 235.137 304.683 235.99 297.888 232.387C288.804 227.579 286.875 215.295 283.851 215.99Z" fill="url(#paint15_linear_1_2591)"/>
<path d="M315.249 226.726C315.344 226.727 315.438 226.707 315.525 226.668C315.68 226.596 315.802 226.465 315.862 226.304C315.921 226.143 315.915 225.965 315.845 225.809C315.599 225.268 309.669 212.523 295.966 207.493C295.805 207.434 295.627 207.442 295.471 207.514C295.315 207.586 295.194 207.718 295.135 207.879C295.076 208.04 295.084 208.219 295.156 208.375C295.228 208.531 295.359 208.652 295.52 208.711C308.701 213.547 314.607 226.22 314.666 226.348C314.718 226.459 314.799 226.555 314.903 226.622C315.006 226.689 315.126 226.725 315.249 226.726Z" fill="url(#paint16_linear_1_2591)"/>
<path style="mix-blend-mode:multiply" opacity="0.3" d="M232.344 184.133C234.157 189.077 228.717 193.36 231.048 198.727C234.391 206.419 247.672 202.472 252.421 210.078C258.049 219.094 245.161 233.881 250.479 238.942C252.902 241.249 255.701 238.296 262.784 239.91C272.873 242.219 275.903 250.201 280.595 248.991C282.07 248.611 283.859 247.269 285.365 243.139C286.02 245.43 286.331 247.606 285.779 249.963C284.039 257.334 275.167 260.908 266.035 264.589C259.933 267.049 241.062 274.654 230.081 266.101C225.462 262.509 224.957 258.156 221.665 242.18C213.292 201.592 210.048 198.101 213.569 189.317C215.489 184.525 218.434 180.629 221.643 177.504C228.558 179.04 231.399 181.546 232.344 184.133Z" fill="url(#paint17_linear_1_2591)"/>
<path d="M249.713 215.143C248.938 215.849 241.079 222.781 231.625 220.414C223.391 218.352 218.337 210.335 217.452 203.589C215.345 187.547 236.216 174.08 233.642 170.833C232.111 168.899 223.893 172.645 218.423 176.023C212.744 179.529 197.397 189.003 194.126 207.595C193.85 209.176 190.24 231.341 202.875 240.497C214.557 248.962 237.441 244.356 252.938 224.33L249.713 215.143Z" fill="url(#paint18_linear_1_2591)"/>
<path d="M300.384 200.496L291.027 230.431C290.878 230.91 290.583 231.33 290.185 231.635C289.786 231.939 289.303 232.112 288.802 232.13L238.442 233.911C238.074 233.924 237.707 233.853 237.37 233.703C237.034 233.553 236.736 233.327 236.499 233.044C236.263 232.761 236.094 232.427 236.006 232.068C235.918 231.71 235.912 231.336 235.991 230.975L242.506 200.91C242.62 200.382 242.908 199.907 243.323 199.561C243.739 199.215 244.257 199.018 244.797 199.001L297.999 197.343C298.386 197.33 298.769 197.411 299.119 197.578C299.468 197.745 299.772 197.993 300.005 198.302C300.239 198.611 300.395 198.971 300.461 199.353C300.527 199.734 300.501 200.126 300.384 200.496Z" fill="#D8DEE8"/>
<path d="M299.937 201.476L290.854 230.53C290.71 230.995 290.424 231.404 290.037 231.699C289.65 231.994 289.181 232.162 288.695 232.179L239.823 233.907C239.465 233.921 239.109 233.852 238.782 233.707C238.454 233.561 238.165 233.342 237.935 233.067C237.705 232.792 237.541 232.467 237.456 232.119C237.371 231.77 237.366 231.407 237.443 231.057L243.764 201.878C243.874 201.364 244.153 200.903 244.556 200.567C244.959 200.231 245.462 200.04 245.986 200.025L297.62 198.423C297.995 198.411 298.367 198.488 298.706 198.649C299.045 198.81 299.34 199.05 299.567 199.349C299.794 199.648 299.946 199.997 300.01 200.367C300.074 200.737 300.049 201.117 299.937 201.476Z" fill="url(#paint19_linear_1_2591)"/>
<path d="M237.449 231.057L243.481 203.211C244.504 205.634 245.826 206.859 247.089 207.483C250.725 209.28 253.557 206.041 261.498 206.349C264.534 206.466 270.742 206.707 274.614 210.728C278.249 214.506 276.704 218.387 278.985 223.7C280.137 226.382 282.274 229.422 286.392 232.267L239.829 233.914C239.47 233.928 239.113 233.859 238.785 233.713C238.457 233.567 238.167 233.348 237.937 233.072C237.707 232.795 237.543 232.47 237.459 232.121C237.374 231.772 237.371 231.408 237.449 231.057Z" fill="url(#paint20_linear_1_2591)"/>
<path d="M268.113 164.06C267.986 164.506 267.949 164.973 268.007 165.434C268.064 165.894 268.213 166.338 268.446 166.74C268.679 167.141 268.99 167.491 269.362 167.768C269.733 168.046 270.156 168.246 270.607 168.356C272.908 168.908 275.711 169.681 276.92 170.374C279.141 171.647 270.159 170.177 261.888 169.982C256.727 169.862 252.87 169.281 250.702 168.863C250.579 168.836 250.469 168.77 250.387 168.674C250.306 168.579 250.258 168.459 250.251 168.334C250.244 168.209 250.278 168.085 250.348 167.981C250.417 167.876 250.519 167.798 250.638 167.757C252.708 167.084 256.062 166.099 258.9 165.736C262.414 165.294 266.182 157.528 266.182 157.528L269.194 160.268L268.113 164.06Z" fill="url(#paint21_linear_1_2591)"/>
<path d="M298.024 210.03L297.453 209.094C297.209 208.155 296.632 207.336 295.83 206.791C295.028 206.245 294.055 206.009 293.093 206.128L290.09 206.5C289.868 206.527 289.655 206.601 289.463 206.715C289.272 206.829 289.106 206.982 288.976 207.164C288.847 207.346 288.756 207.552 288.71 207.771C288.664 207.99 288.664 208.215 288.71 208.434C288.986 209.777 289.707 211.383 291.552 211.258C294.687 211.046 296.69 215.619 296.69 215.619L297.892 213.924C298.292 213.359 298.517 212.689 298.541 211.997C298.564 211.305 298.385 210.621 298.024 210.03Z" fill="url(#paint22_linear_1_2591)"/>
<path d="M274.825 160.08C277.423 159.695 280.332 157.509 280.275 155.701C280.198 153.214 274.53 151.859 271.668 151.172C268.807 150.485 267.58 150.733 266.758 151.359C265.936 151.985 265.367 153.145 265.186 154.133C265.088 154.672 265.083 155.413 265.175 156.888C265.257 158.2 265.233 158.142 265.266 158.529C265.348 159.459 265.602 161.093 266.508 163.365C266.968 162.856 267.472 162.39 268.013 161.969C268.717 161.422 269.488 160.967 270.307 160.615C272.177 159.856 273.25 160.314 274.825 160.08Z" fill="url(#paint23_linear_1_2591)"/>
<path d="M265.124 160.839C265.124 160.839 265.292 164.462 268.702 166.052C271.754 167.477 275.806 161.095 274.691 158.657C274.318 157.843 273.173 156.959 271.988 156.685C271.298 156.524 270.949 156.663 269.815 156.377C268.771 156.112 268.573 155.869 268.159 155.95C267.654 156.053 267.012 156.627 266.53 158.88C266.279 158.001 265.724 157.411 265.123 157.375C264.91 157.375 264.701 157.433 264.52 157.544C263.699 158.076 263.86 159.413 265.124 160.839Z" fill="url(#paint24_linear_1_2591)"/>
<path d="M347.505 165.548C347.505 175.748 339.543 183.771 329.365 183.459C318.773 183.133 309.864 173.971 309.864 163.008C309.864 152.045 318.773 144.086 329.365 145.183C339.546 146.25 347.505 155.349 347.505 165.548Z" fill="url(#paint25_linear_1_2591)"/>
<path d="M350.257 164.669C350.257 174.868 342.293 182.892 332.115 182.578C321.523 182.253 312.614 173.091 312.614 162.128C312.614 151.165 321.523 143.205 332.115 144.31C342.293 145.371 350.257 154.47 350.257 164.669Z" fill="url(#paint26_linear_1_2591)"/>
<path d="M349.459 164.615C349.459 174.365 341.838 182.025 332.116 181.706C322.015 181.379 313.535 172.636 313.535 162.19C313.535 151.744 322.015 144.146 332.116 145.182C341.838 146.179 349.459 154.865 349.459 164.615Z" fill="url(#paint27_linear_1_2591)"/>
<path d="M348.886 164.577C348.886 174.006 341.513 181.401 332.116 181.085C322.367 180.757 314.19 172.312 314.19 162.235C314.19 152.157 322.367 144.816 332.116 145.804C341.513 146.757 348.886 155.149 348.886 164.577Z" fill="url(#paint28_linear_1_2591)"/>
<path d="M332.018 149.012C332.266 149.041 332.494 149.159 332.661 149.344C332.827 149.529 332.921 149.769 332.923 150.018V151.755C333.934 151.869 334.938 152.043 335.928 152.276C336.664 152.45 337.4 152.658 338.136 152.898C338.35 152.97 338.535 153.111 338.66 153.3C338.785 153.489 338.843 153.714 338.826 153.94L338.613 156.116C338.604 156.249 338.562 156.377 338.491 156.489C338.421 156.602 338.324 156.696 338.21 156.762C338.095 156.829 337.966 156.867 337.833 156.872C337.7 156.878 337.569 156.85 337.449 156.793C336.968 156.578 336.475 156.394 335.971 156.24C335.063 155.968 334.128 155.794 333.183 155.72L332.928 155.699V160.673C335.536 161.404 337.457 162.388 338.691 163.625C339.924 164.862 340.539 166.397 340.537 168.232C340.537 170.223 339.856 171.82 338.495 173.021C337.125 174.23 335.204 174.91 332.719 175.058V176.973C332.721 177.091 332.699 177.209 332.654 177.319C332.609 177.429 332.542 177.528 332.458 177.611C332.373 177.694 332.272 177.759 332.161 177.801C332.051 177.844 331.933 177.863 331.814 177.858H331.799C331.553 177.844 331.321 177.736 331.152 177.556C330.983 177.376 330.889 177.138 330.89 176.891V175.002L330.487 174.983C329.365 174.935 328.248 174.816 327.141 174.626C326.361 174.491 325.589 174.313 324.829 174.093C324.608 174.031 324.415 173.895 324.282 173.707C324.15 173.519 324.087 173.291 324.103 173.062L324.354 170.264C324.366 170.124 324.412 169.989 324.487 169.871C324.562 169.752 324.664 169.653 324.784 169.581C324.905 169.51 325.041 169.468 325.181 169.46C325.321 169.452 325.461 169.477 325.589 169.533C326.253 169.796 326.932 170.02 327.623 170.202C328.687 170.484 329.775 170.666 330.873 170.746L330.89 165.219C328.386 164.599 326.516 163.678 325.278 162.456C324.041 161.233 323.422 159.667 323.42 157.758C323.42 155.787 324.092 154.267 325.436 153.198C326.77 152.135 328.667 151.607 331.115 151.609V149.835C331.113 149.719 331.137 149.605 331.183 149.499C331.229 149.393 331.297 149.298 331.382 149.22C331.467 149.143 331.568 149.084 331.678 149.048C331.788 149.012 331.904 149 332.018 149.012ZM331.11 155.645C330.336 155.701 329.733 155.914 329.302 156.285C329.087 156.468 328.918 156.697 328.805 156.956C328.693 157.214 328.64 157.495 328.652 157.777C328.645 158.052 328.695 158.326 328.798 158.581C328.902 158.836 329.057 159.067 329.253 159.26C329.652 159.656 330.273 159.973 331.11 160.209V155.645ZM332.715 165.659V170.731C333.557 170.731 334.201 170.53 334.647 170.127C335.093 169.725 335.318 169.156 335.321 168.421C335.331 168.115 335.281 167.81 335.174 167.524C335.066 167.237 334.904 166.975 334.695 166.752C334.281 166.311 333.622 165.952 332.715 165.661V165.659Z" fill="url(#paint29_linear_1_2591)"/>
<path style="mix-blend-mode:multiply" opacity="0.3" d="M329.082 166.885C329.647 161.281 334.791 158.908 334.119 153.758C333.705 150.58 331.302 147.902 328.618 145.812C320.478 146.667 314.19 153.412 314.19 162.24C314.19 172.317 322.367 180.763 332.116 181.09C333.041 181.12 333.968 181.073 334.886 180.952C331.013 177.09 328.595 171.701 329.082 166.885Z" fill="url(#paint30_linear_1_2591)"/>
<path d="M348.862 53.1114C348.862 49.4649 345.888 46.3808 342.22 46.2205L247.077 42.0752C242.954 41.8956 239.518 44.9023 239.518 48.7934V124.852C239.518 128.743 242.942 131.869 247.066 131.835L249.294 131.81L249.399 131.645L342.151 129.808C345.819 129.778 348.862 128.04 348.862 124.393V53.1114ZM265.642 59.2963C262.099 59.176 259.216 56.3393 259.216 52.9608C259.216 49.5824 262.099 46.9625 265.642 47.1076C269.185 47.2527 272.021 50.0881 272.021 53.4417C272.021 56.7952 269.17 59.4165 265.642 59.2963ZM295.968 60.3284C292.549 60.2124 289.768 57.4267 289.768 54.1105C289.768 50.7942 292.549 48.2158 295.968 48.3567C299.387 48.4977 302.125 51.2806 302.125 54.5747C302.125 57.8689 299.373 60.4445 295.968 60.3284ZM325.242 61.3247C321.94 61.2128 319.254 58.4782 319.254 55.2173C319.254 51.9563 321.94 49.4235 325.242 49.5589C328.543 49.6943 331.185 52.4288 331.185 55.6649C331.185 58.9011 328.529 61.4366 325.242 61.3247Z" fill="url(#paint31_linear_1_2591)"/>
<path d="M350.85 66.3115V53.11C350.842 51.3502 350.158 49.6611 348.938 48.3941C347.719 47.127 346.059 46.3797 344.303 46.3075L249.494 42.1773C247.762 42.1014 246.144 42.5587 244.873 43.4458C243.136 44.6576 242.002 46.5728 242.002 48.814V66.3115H350.85ZM327.342 49.6459C330.622 49.784 333.275 52.5089 333.275 55.745C333.275 58.9811 330.625 61.507 327.342 61.3965C324.06 61.2859 321.37 58.5542 321.37 55.2987C321.37 52.0432 324.05 49.5104 327.342 49.6459ZM298.145 48.4451C301.54 48.5833 304.286 51.3634 304.286 54.6562C304.286 57.9489 301.54 60.5177 298.145 60.4016C294.75 60.2855 291.958 57.5068 291.958 54.1933C291.958 50.8798 294.736 48.3041 298.145 48.4451ZM267.898 47.2015C271.416 47.3466 274.261 50.1778 274.261 53.5286C274.261 56.8795 271.416 59.4938 267.898 59.3736C264.379 59.2533 261.486 56.4221 261.486 53.0492C261.486 49.6763 264.364 47.055 267.898 47.2001V47.2015Z" fill="url(#paint32_linear_1_2591)"/>
<path d="M242 62.3362V124.831C242 128.715 245.229 131.845 249.34 131.81L344.247 131.039C346 131.027 347.677 130.322 348.914 129.078C350.15 127.833 350.845 126.15 350.848 124.394V65.7906L242 62.3362Z" fill="white"/>
<path d="M312.58 74.8287C312.585 74.6232 312.551 74.4187 312.478 74.2266C312.405 74.0346 312.294 73.8589 312.154 73.7095C312.013 73.5601 311.844 73.4401 311.656 73.3561C311.469 73.2722 311.267 73.226 311.062 73.2203L301.672 72.9771C300.775 72.9522 299.657 73.6362 299.657 74.5081V83.3211C299.657 84.193 300.819 84.9212 301.716 84.9391L310.848 85.1174C311.734 85.1339 312.584 84.4458 312.584 83.5794L312.58 74.8287Z" fill="#BFC8D6"/>
<path d="M328.981 75.2489C328.971 74.8275 328.8 74.426 328.502 74.1279C328.205 73.8299 327.804 73.6583 327.383 73.6488L318.601 73.4194C318.398 73.4128 318.195 73.4478 318.005 73.5224C317.816 73.5969 317.644 73.7095 317.499 73.853C317.354 73.9966 317.241 74.1683 317.165 74.3575C317.089 74.5466 317.052 74.7493 317.057 74.9532V83.6736C317.05 84.0887 317.209 84.4895 317.497 84.7879C317.785 85.0864 318.18 85.2581 318.594 85.2654L327.415 85.434C327.618 85.4399 327.821 85.405 328.01 85.3313C328.2 85.2577 328.373 85.1468 328.519 85.0052C328.666 84.8636 328.782 84.6941 328.862 84.5067C328.942 84.3193 328.984 84.1178 328.985 83.914L328.981 75.2489Z" fill="#BFC8D6"/>
<path d="M345.383 75.6717C345.383 74.822 344.627 74.1145 343.774 74.0924L335.07 73.8575C334.207 73.834 333.454 74.5041 333.454 75.3595V83.9942C333.463 84.4118 333.632 84.8101 333.927 85.1055C334.222 85.4009 334.62 85.5706 335.037 85.5791L343.765 85.7504C344.616 85.767 345.383 85.0941 345.383 84.2456V75.6717Z" fill="#BFC8D6"/>
<path d="M312.58 90.8229C312.586 90.6181 312.551 90.4141 312.478 90.2228C312.405 90.0314 312.295 89.8566 312.153 89.7084C312.012 89.5601 311.843 89.4415 311.656 89.3593C311.468 89.2771 311.266 89.2331 311.062 89.2297L301.672 89.0721C300.775 89.0569 299.657 89.7465 299.657 90.6184V99.4272C299.657 100.299 300.819 101.02 301.716 101.029L310.845 101.118C311.731 101.128 312.581 100.428 312.581 99.5667L312.58 90.8229Z" fill="#BFC8D6"/>
<path d="M328.98 91.0882C328.97 90.6689 328.798 90.2699 328.5 89.9752C328.202 89.6806 327.801 89.5134 327.383 89.5088L318.601 89.3624C318.397 89.3588 318.195 89.3963 318.007 89.4724C317.818 89.5486 317.647 89.662 317.503 89.8059C317.359 89.9497 317.245 90.1211 317.168 90.3098C317.092 90.4985 317.054 90.7007 317.057 90.9044V99.6262C317.053 99.8312 317.09 100.035 317.165 100.225C317.241 100.416 317.353 100.59 317.496 100.736C317.639 100.883 317.81 101 317.998 101.08C318.187 101.16 318.389 101.202 318.594 101.203L327.405 101.284C327.609 101.288 327.812 101.251 328.002 101.176C328.193 101.1 328.366 100.987 328.512 100.844C328.658 100.701 328.774 100.53 328.854 100.341C328.933 100.153 328.974 99.9499 328.975 99.7451L328.98 91.0882Z" fill="url(#paint33_linear_1_2591)"/>
<path d="M345.383 91.3537C345.383 90.5039 344.627 89.8034 343.774 89.7896L335.07 89.6362C334.207 89.6224 333.454 90.298 333.454 91.1561V99.7908C333.462 100.207 333.631 100.605 333.927 100.898C334.222 101.191 334.621 101.357 335.037 101.361L343.765 101.449C344.616 101.459 345.383 100.78 345.383 99.929V91.3537Z" fill="#BFC8D6"/>
<path d="M261.385 90.0116C261.385 89.1176 260.557 88.3755 259.615 88.3603L250.121 88.1918C249.906 88.1816 249.692 88.2154 249.491 88.291C249.289 88.3667 249.106 88.4826 248.951 88.6317C248.796 88.7808 248.673 88.9599 248.589 89.1582C248.506 89.3565 248.464 89.5698 248.465 89.785V98.866C248.461 99.082 248.499 99.2966 248.579 99.4974C248.659 99.6981 248.778 99.8807 248.929 100.035C249.081 100.188 249.261 100.31 249.46 100.393C249.66 100.476 249.873 100.517 250.089 100.516L259.669 100.617C260.611 100.626 261.388 99.9162 261.388 99.0235L261.385 90.0116Z" fill="#BFC8D6"/>
<path d="M278.783 90.2783C278.785 90.0661 278.746 89.8554 278.667 89.6585C278.588 89.4615 278.471 89.2823 278.322 89.1311C278.173 88.98 277.996 88.8599 277.801 88.7779C277.605 88.6959 277.395 88.6535 277.183 88.6534L267.681 88.4903C266.747 88.4751 265.857 89.1812 265.857 90.0725V99.054C265.857 99.9453 266.785 100.678 267.719 100.687L277.101 100.78C278.022 100.788 278.781 100.078 278.781 99.195L278.783 90.2783Z" fill="#BFC8D6"/>
<path d="M295.682 90.5685C295.683 90.1429 295.517 89.7338 295.219 89.4306C294.92 89.1274 294.514 88.9548 294.089 88.9504L284.662 88.786C283.746 88.7694 282.758 89.4631 282.758 90.3446V99.2433C282.758 100.125 283.769 100.852 284.689 100.861L293.961 100.961C294.866 100.971 295.687 100.277 295.687 99.4022L295.682 90.5685Z" fill="#BFC8D6"/>
<path d="M312.58 106.811C312.58 105.945 311.946 105.24 311.062 105.233L301.672 105.162C300.775 105.155 299.657 105.852 299.657 106.723V115.53C299.657 116.404 300.819 117.118 301.716 117.118H310.845C311.731 117.118 312.581 116.419 312.581 115.553L312.58 106.811Z" fill="#BFC8D6"/>
<path d="M328.981 106.927C328.972 106.509 328.8 106.111 328.501 105.818C328.203 105.525 327.801 105.361 327.384 105.362L318.602 105.299C318.398 105.297 318.195 105.336 318.006 105.414C317.817 105.491 317.646 105.606 317.502 105.751C317.358 105.896 317.245 106.069 317.168 106.258C317.092 106.448 317.055 106.651 317.058 106.855V115.577C317.054 115.781 317.09 115.985 317.166 116.175C317.241 116.364 317.354 116.537 317.497 116.683C317.641 116.828 317.812 116.944 318 117.022C318.189 117.1 318.391 117.14 318.595 117.139H327.415C327.62 117.14 327.824 117.101 328.014 117.023C328.203 116.946 328.376 116.832 328.522 116.687C328.668 116.543 328.784 116.371 328.863 116.182C328.943 115.993 328.984 115.789 328.985 115.584L328.981 106.927Z" fill="#BFC8D6"/>
<path d="M261.387 106.497C261.387 105.604 260.559 104.869 259.617 104.862L250.123 104.786C249.907 104.778 249.693 104.814 249.492 104.892C249.29 104.969 249.107 105.087 248.952 105.237C248.798 105.388 248.675 105.568 248.592 105.767C248.508 105.966 248.466 106.18 248.467 106.396V115.478C248.462 115.693 248.501 115.907 248.58 116.107C248.66 116.307 248.779 116.489 248.931 116.641C249.083 116.794 249.264 116.914 249.463 116.994C249.663 117.075 249.876 117.114 250.091 117.11L259.671 117.12C260.613 117.12 261.39 116.401 261.39 115.508L261.387 106.497Z" fill="#BFC8D6"/>
<path d="M278.783 106.597C278.786 106.385 278.747 106.175 278.668 105.979C278.589 105.783 278.471 105.604 278.322 105.454C278.173 105.304 277.996 105.186 277.8 105.105C277.604 105.025 277.395 104.985 277.184 104.987L267.681 104.914C266.747 104.914 265.857 105.621 265.857 106.511V115.493C265.857 116.383 266.785 117.108 267.719 117.11H277.101C278.022 117.11 278.781 116.393 278.781 115.51L278.783 106.597Z" fill="#BFC8D6"/>
<path d="M295.682 106.725C295.683 106.515 295.643 106.307 295.564 106.112C295.484 105.917 295.367 105.74 295.219 105.591C295.071 105.442 294.895 105.324 294.701 105.243C294.507 105.162 294.299 105.121 294.089 105.121L284.662 105.045C283.746 105.038 282.758 105.736 282.758 106.62V115.516C282.758 116.398 283.769 117.118 284.689 117.118L293.961 117.13C294.866 117.13 295.687 116.43 295.687 115.555L295.682 106.725Z" fill="#BFC8D6"/>
<path d="M267.303 30.8525C261.36 30.5513 256.441 35.3972 255.965 42.4595L260.986 42.6778C261.4 38.4565 264.126 35.3323 267.303 35.4843C270.738 35.6501 273.628 39.6462 273.628 44.2364C273.628 48.8267 270.731 52.5838 267.303 52.4525C265.51 52.3848 263.868 51.2655 262.697 49.5618C262.016 50.4987 260.845 52.6556 261.954 55.3307C263.542 56.3961 265.394 57.0015 267.303 57.0801C273.512 57.2998 278.533 51.6428 278.533 44.4479C278.533 37.2529 273.514 31.1662 267.303 30.8525Z" fill="#BFC8D6"/>
<path d="M297.519 32.3669C291.781 32.0767 287.033 36.8411 286.575 43.7831L291.421 43.9932C291.815 39.8479 294.456 36.7748 297.519 36.9213C300.83 37.0802 303.626 41.0058 303.626 45.5159C303.626 50.026 300.834 53.7195 297.519 53.5938C295.793 53.5274 294.208 52.4289 293.072 50.7556C292.415 51.6772 291.286 53.7955 292.356 56.4209C293.883 57.4648 295.672 58.0589 297.519 58.1357C303.515 58.3526 308.365 52.784 308.365 45.7204C308.365 38.6568 303.515 32.6709 297.519 32.3669Z" fill="#BFC8D6"/>
<path d="M326.79 33.866C321.251 33.5896 316.669 38.2697 316.227 45.0888L320.902 45.2933C321.285 41.2184 323.829 38.1979 326.79 38.3402C329.989 38.4936 332.684 42.3473 332.684 46.7787C332.684 51.21 329.989 54.8413 326.79 54.7197C325.123 54.6562 323.589 53.577 322.496 51.9341C321.863 52.8405 320.773 54.9229 321.806 57.504C323.275 58.5263 325.004 59.1095 326.791 59.1856C332.578 59.3901 337.256 53.9225 337.256 46.9763C337.256 40.0301 332.576 34.1589 326.79 33.866Z" fill="#BFC8D6"/>
<g style="mix-blend-mode:multiply" opacity="0.3">
<path d="M350.85 121.997V124.396C350.859 126.146 350.175 127.828 348.947 129.074C347.72 130.319 346.05 131.027 344.303 131.042L249.399 131.81C245.288 131.845 242.002 128.715 242.002 124.833V48.8141C242.001 47.7492 242.259 46.7002 242.754 45.7579C243.249 44.8157 243.967 44.0088 244.844 43.4072C248.619 44.7669 253.48 48.5612 255.969 58.8444C260.359 76.965 264.137 84.703 281.063 84.323C291.882 84.0756 300.179 84.5745 305.346 89.3499C308.122 91.9103 310.01 95.706 310.906 101.308C311.432 104.581 313.778 106.668 317.128 108.199C320.409 109.702 324.673 110.671 329.11 111.715C337.258 113.626 346.375 115.793 350.85 121.997Z" fill="#BFC8D6"/>
</g>
<path d="M321.257 98.9587C321.166 98.9664 321.076 98.9436 321 98.8938L318.885 97.501C318.838 97.4675 318.798 97.4249 318.768 97.3758C318.737 97.3266 318.717 97.2719 318.708 97.2148C318.698 97.1577 318.701 97.0993 318.714 97.0431C318.728 96.9869 318.753 96.934 318.787 96.8874C318.851 96.789 318.951 96.7194 319.065 96.6936C319.18 96.6678 319.3 96.6877 319.4 96.7493L321.193 97.9348L326.319 91.855C326.354 91.8101 326.398 91.7727 326.448 91.7449C326.498 91.7171 326.553 91.6995 326.61 91.6931C326.666 91.6867 326.724 91.6916 326.778 91.7075C326.833 91.7234 326.884 91.7501 326.929 91.7859C327.013 91.8649 327.064 91.974 327.069 92.0898C327.074 92.2055 327.034 92.3187 326.956 92.4049L321.576 98.7874C321.496 98.8844 321.381 98.946 321.257 98.9587Z" fill="white"/>
<path d="M381.829 126.276C381.829 138.122 372.585 147.441 360.758 147.077C348.456 146.699 338.108 136.058 338.108 123.325C338.108 110.592 348.456 101.354 360.758 102.63C372.579 103.862 381.829 114.43 381.829 126.276Z" fill="url(#paint34_linear_1_2591)"/>
<path d="M385.023 125.256C385.023 137.102 375.779 146.42 363.952 146.057C351.651 145.678 341.303 135.037 341.303 122.304C341.303 109.571 351.651 100.326 363.952 101.609C375.773 102.842 385.023 113.41 385.023 125.256Z" fill="url(#paint35_linear_1_2591)"/>
<path d="M384.096 125.189C384.096 136.52 375.245 145.406 363.952 145.04C352.225 144.66 342.372 134.505 342.372 122.372C342.372 110.238 352.222 101.413 363.952 102.612C375.245 103.78 384.096 113.868 384.096 125.189Z" fill="url(#paint36_linear_1_2591)"/>
<path d="M383.431 125.148C383.431 136.098 374.867 144.687 363.952 144.321C352.629 143.94 343.134 134.132 343.134 122.426C343.134 110.719 352.629 102.195 363.952 103.343C374.867 104.451 383.431 114.197 383.431 125.148Z" fill="url(#paint37_linear_1_2591)"/>
<path d="M363.84 107.07C364.127 107.104 364.392 107.241 364.585 107.456C364.779 107.671 364.887 107.949 364.891 108.239V110.256C366.065 110.388 367.23 110.59 368.38 110.861C369.24 111.065 370.093 111.306 370.94 111.584C371.189 111.667 371.403 111.831 371.548 112.05C371.694 112.269 371.762 112.531 371.741 112.793L371.494 115.322C371.483 115.475 371.434 115.624 371.353 115.755C371.271 115.885 371.159 115.994 371.026 116.072C370.893 116.149 370.743 116.193 370.589 116.199C370.435 116.205 370.282 116.174 370.143 116.108C369.585 115.859 369.011 115.645 368.426 115.468C367.371 115.151 366.285 114.948 365.188 114.862L364.891 114.837V120.611C367.921 121.46 370.152 122.602 371.584 124.039C373.016 125.476 373.731 127.26 373.728 129.39C373.728 131.703 372.938 133.557 371.358 134.951C369.765 136.356 367.534 137.145 364.65 137.317V139.543C364.652 139.681 364.626 139.817 364.573 139.945C364.521 140.072 364.443 140.187 364.345 140.284C364.246 140.38 364.129 140.455 364.001 140.504C363.873 140.554 363.736 140.576 363.598 140.571H363.579C363.294 140.555 363.026 140.431 362.83 140.224C362.633 140.016 362.524 139.742 362.523 139.456V137.259L362.056 137.238C360.753 137.183 359.454 137.045 358.169 136.824C357.264 136.667 356.367 136.461 355.484 136.206C355.227 136.134 355.003 135.976 354.85 135.757C354.696 135.539 354.623 135.274 354.643 135.008L354.932 131.758C354.947 131.596 355 131.439 355.087 131.301C355.174 131.164 355.293 131.048 355.433 130.966C355.573 130.883 355.731 130.834 355.893 130.825C356.056 130.815 356.218 130.844 356.367 130.91C357.137 131.214 357.924 131.472 358.724 131.683C359.96 132.01 361.225 132.221 362.5 132.315L362.518 125.892C359.61 125.171 357.437 124.103 356.002 122.689C354.566 121.275 353.847 119.459 353.844 117.24C353.844 114.952 354.626 113.188 356.189 111.947C357.739 110.715 359.943 110.101 362.786 110.103V108.042C362.782 107.907 362.807 107.771 362.86 107.646C362.913 107.521 362.992 107.408 363.092 107.316C363.192 107.224 363.31 107.154 363.439 107.112C363.568 107.069 363.705 107.055 363.84 107.07ZM362.786 114.777C361.887 114.843 361.186 115.09 360.684 115.519C360.436 115.732 360.239 115.999 360.108 116.299C359.977 116.599 359.916 116.925 359.93 117.252C359.922 117.571 359.98 117.888 360.1 118.184C360.22 118.48 360.4 118.748 360.628 118.971C361.088 119.432 361.807 119.8 362.786 120.076V114.777ZM364.656 126.408V132.298C365.633 132.298 366.383 132.065 366.907 131.598C367.43 131.131 367.691 130.47 367.689 129.615C367.711 128.899 367.449 128.204 366.962 127.68C366.471 127.164 365.702 126.739 364.656 126.408Z" fill="url(#paint38_linear_1_2591)"/>
<path style="mix-blend-mode:multiply" opacity="0.3" d="M360.428 127.83C361.087 121.32 367.059 118.565 366.28 112.576C365.8 108.886 363.007 105.777 359.892 103.347C350.446 104.34 343.134 112.177 343.134 122.426C343.134 134.131 352.629 143.939 363.952 144.32C365.027 144.356 366.103 144.303 367.17 144.162C362.673 139.683 359.863 133.422 360.428 127.83Z" fill="url(#paint39_linear_1_2591)"/>
</g>
<defs>
<linearGradient id="paint0_linear_1_2591" x1="263.143" y1="299.515" x2="737.204" y2="157.39" gradientUnits="userSpaceOnUse">
<stop stop-color="#AA80F9"/>
<stop offset="1" stop-color="#6165D7"/>
</linearGradient>
<linearGradient id="paint1_linear_1_2591" x1="150.487" y1="204.43" x2="-126.103" y2="611.672" gradientUnits="userSpaceOnUse">
<stop stop-color="#FFC444"/>
<stop offset="1" stop-color="#F36F56"/>
</linearGradient>
<linearGradient id="paint2_linear_1_2591" x1="82.9391" y1="241.895" x2="360.896" y2="197.98" gradientUnits="userSpaceOnUse">
<stop stop-color="#444B8C"/>
<stop offset="1" stop-color="#26264F"/>
</linearGradient>
<linearGradient id="paint3_linear_1_2591" x1="186.799" y1="177.659" x2="-87.5793" y2="745.921" gradientUnits="userSpaceOnUse">
<stop stop-color="#E38DDD"/>
<stop offset="1" stop-color="#9571F6"/>
</linearGradient>
<linearGradient id="paint4_linear_1_2591" x1="256086" y1="265184" x2="-414174" y2="1.12713e+06" gradientUnits="userSpaceOnUse">
<stop stop-color="#E38DDD"/>
<stop offset="1" stop-color="#9571F6"/>
</linearGradient>
<linearGradient id="paint5_linear_1_2591" x1="147.523" y1="169.654" x2="167.674" y2="169.654" gradientUnits="userSpaceOnUse">
<stop stop-color="#FF9085"/>
<stop offset="1" stop-color="#FB6FBB"/>
</linearGradient>
<linearGradient id="paint6_linear_1_2591" x1="27589" y1="29389.2" x2="30531.8" y2="29389.2" gradientUnits="userSpaceOnUse">
<stop stop-color="#FF9085"/>
<stop offset="1" stop-color="#FB6FBB"/>
</linearGradient>
<linearGradient id="paint7_linear_1_2591" x1="33486.6" y1="29389.2" x2="36429.4" y2="29389.2" gradientUnits="userSpaceOnUse">
<stop stop-color="#FF9085"/>
<stop offset="1" stop-color="#FB6FBB"/>
</linearGradient>
<linearGradient id="paint8_linear_1_2591" x1="105401" y1="70466.8" x2="468717" y2="70466.8" gradientUnits="userSpaceOnUse">
<stop stop-color="#FF9085"/>
<stop offset="1" stop-color="#FB6FBB"/>
</linearGradient>
<linearGradient id="paint9_linear_1_2591" x1="39001.8" y1="13310.5" x2="41885" y2="13310.5" gradientUnits="userSpaceOnUse">
<stop stop-color="#FF9085"/>
<stop offset="1" stop-color="#FB6FBB"/>
</linearGradient>
<linearGradient id="paint10_linear_1_2591" x1="312.632" y1="292.221" x2="255.58" y2="292.221" gradientUnits="userSpaceOnUse">
<stop stop-color="#444B8C"/>
<stop offset="1" stop-color="#3E4177"/>
</linearGradient>
<linearGradient id="paint11_linear_1_2591" x1="297.929" y1="390.971" x2="276.635" y2="390.971" gradientUnits="userSpaceOnUse">
<stop stop-color="#311944"/>
<stop offset="1" stop-color="#6B3976"/>
</linearGradient>
<linearGradient id="paint12_linear_1_2591" x1="273.699" y1="353.599" x2="281.169" y2="400.297" gradientUnits="userSpaceOnUse">
<stop stop-color="#311944"/>
<stop offset="1" stop-color="#A03976"/>
</linearGradient>
<linearGradient id="paint13_linear_1_2591" x1="135531" y1="202863" x2="157554" y2="202863" gradientUnits="userSpaceOnUse">
<stop stop-color="#444B8C"/>
<stop offset="1" stop-color="#3E4177"/>
</linearGradient>
<linearGradient id="paint14_linear_1_2591" x1="135327" y1="310955" x2="152577" y2="310955" gradientUnits="userSpaceOnUse">
<stop stop-color="#444B8C"/>
<stop offset="1" stop-color="#3E4177"/>
</linearGradient>
<linearGradient id="paint15_linear_1_2591" x1="-328941" y1="117360" x2="-302462" y2="214905" gradientUnits="userSpaceOnUse">
<stop stop-color="#FFC444"/>
<stop offset="1" stop-color="#F36F56"/>
</linearGradient>
<linearGradient id="paint16_linear_1_2591" x1="-53425.7" y1="30091.3" x2="-54231.6" y2="32915.6" gradientUnits="userSpaceOnUse">
<stop stop-color="#FFC444"/>
<stop offset="1" stop-color="#F36F56"/>
</linearGradient>
<linearGradient id="paint17_linear_1_2591" x1="-231868" y1="106094" x2="-203308" y2="187297" gradientUnits="userSpaceOnUse">
<stop stop-color="#FFC444"/>
<stop offset="1" stop-color="#F36F56"/>
</linearGradient>
<linearGradient id="paint18_linear_1_2591" x1="-196366" y1="88546.7" x2="-173531" y2="153725" gradientUnits="userSpaceOnUse">
<stop stop-color="#FFC444"/>
<stop offset="1" stop-color="#F36F56"/>
</linearGradient>
<linearGradient id="paint19_linear_1_2591" x1="274.814" y1="202.6" x2="253.392" y2="241.166" gradientUnits="userSpaceOnUse">
<stop offset="0.49" stop-color="#EBEFF2"/>
<stop offset="1" stop-color="white"/>
</linearGradient>
<linearGradient id="paint20_linear_1_2591" x1="150190" y1="54344.6" x2="145368" y2="46080.2" gradientUnits="userSpaceOnUse">
<stop offset="0.49" stop-color="#EBEFF2"/>
<stop offset="1" stop-color="white"/>
</linearGradient>
<linearGradient id="paint21_linear_1_2591" x1="79087.2" y1="13784.9" x2="78888.7" y2="17206.4" gradientUnits="userSpaceOnUse">
<stop stop-color="#311944"/>
<stop offset="1" stop-color="#A03976"/>
</linearGradient>
<linearGradient id="paint22_linear_1_2591" x1="26357.9" y1="14735.7" x2="27063.8" y2="14735.7" gradientUnits="userSpaceOnUse">
<stop stop-color="#311944"/>
<stop offset="1" stop-color="#A03976"/>
</linearGradient>
<linearGradient id="paint23_linear_1_2591" x1="-36922.7" y1="13757.7" x2="-35137.7" y2="12078.4" gradientUnits="userSpaceOnUse">
<stop stop-color="#311944"/>
<stop offset="1" stop-color="#6B3976"/>
</linearGradient>
<linearGradient id="paint24_linear_1_2591" x1="31685.1" y1="11039.5" x2="31405.2" y2="11776.2" gradientUnits="userSpaceOnUse">
<stop stop-color="#311944"/>
<stop offset="1" stop-color="#A03976"/>
</linearGradient>
<linearGradient id="paint25_linear_1_2591" x1="322.233" y1="166.347" x2="300.275" y2="173.383" gradientUnits="userSpaceOnUse">
<stop stop-color="#FCB148"/>
<stop offset="0.05" stop-color="#FDBA46"/>
<stop offset="0.14" stop-color="#FFC244"/>
<stop offset="0.32" stop-color="#FFC444"/>
<stop offset="0.48" stop-color="#FDB946"/>
<stop offset="0.78" stop-color="#F99C4D"/>
<stop offset="0.87" stop-color="#F8924F"/>
<stop offset="1" stop-color="#F8924F"/>
</linearGradient>
<linearGradient id="paint26_linear_1_2591" x1="339.993" y1="144.462" x2="320.346" y2="187.74" gradientUnits="userSpaceOnUse">
<stop stop-color="#FFDB44"/>
<stop offset="1" stop-color="#FEEF06"/>
</linearGradient>
<linearGradient id="paint27_linear_1_2591" x1="87899" y1="50559.6" x2="86876.6" y2="45082.2" gradientUnits="userSpaceOnUse">
<stop stop-color="#FCB148"/>
<stop offset="0.05" stop-color="#FDBA46"/>
<stop offset="0.14" stop-color="#FFC244"/>
<stop offset="0.32" stop-color="#FFC444"/>
<stop offset="0.48" stop-color="#FDB946"/>
<stop offset="0.78" stop-color="#F99C4D"/>
<stop offset="0.87" stop-color="#F8924F"/>
<stop offset="1" stop-color="#F8924F"/>
</linearGradient>
<linearGradient id="paint28_linear_1_2591" x1="82889.6" y1="40267.2" x2="86935.3" y2="48689.3" gradientUnits="userSpaceOnUse">
<stop stop-color="#FCB148"/>
<stop offset="0.05" stop-color="#FDBA46"/>
<stop offset="0.14" stop-color="#FFC244"/>
<stop offset="0.32" stop-color="#FFC444"/>
<stop offset="0.48" stop-color="#FDB946"/>
<stop offset="0.78" stop-color="#F99C4D"/>
<stop offset="0.87" stop-color="#F8924F"/>
<stop offset="1" stop-color="#F8924F"/>
</linearGradient>
<linearGradient id="paint29_linear_1_2591" x1="40984.2" y1="31378.3" x2="43444.9" y2="36850.1" gradientUnits="userSpaceOnUse">
<stop stop-color="#FFDB44"/>
<stop offset="1" stop-color="#FEEF06"/>
</linearGradient>
<linearGradient id="paint30_linear_1_2591" x1="48882" y1="40709.5" x2="53919.3" y2="46981.2" gradientUnits="userSpaceOnUse">
<stop stop-color="#FCB148"/>
<stop offset="0.05" stop-color="#FDBA46"/>
<stop offset="0.14" stop-color="#FFC244"/>
<stop offset="0.32" stop-color="#FFC444"/>
<stop offset="0.48" stop-color="#FDB946"/>
<stop offset="0.78" stop-color="#F99C4D"/>
<stop offset="0.87" stop-color="#F8924F"/>
<stop offset="1" stop-color="#F8924F"/>
</linearGradient>
<linearGradient id="paint31_linear_1_2591" x1="239.518" y1="86.9525" x2="348.862" y2="86.9525" gradientUnits="userSpaceOnUse">
<stop stop-color="#311944"/>
<stop offset="1" stop-color="#893976"/>
</linearGradient>
<linearGradient id="paint32_linear_1_2591" x1="191162" y1="9518.97" x2="277035" y2="9518.97" gradientUnits="userSpaceOnUse">
<stop stop-color="#FF9085"/>
<stop offset="1" stop-color="#FB6FBB"/>
</linearGradient>
<linearGradient id="paint33_linear_1_2591" x1="27717.4" y1="8314.35" x2="28748.3" y2="8314.35" gradientUnits="userSpaceOnUse">
<stop stop-color="#FF9085"/>
<stop offset="1" stop-color="#FB6FBB"/>
</linearGradient>
<linearGradient id="paint34_linear_1_2591" x1="112031" y1="41137.9" x2="103923" y2="43689.9" gradientUnits="userSpaceOnUse">
<stop stop-color="#FCB148"/>
<stop offset="0.05" stop-color="#FDBA46"/>
<stop offset="0.14" stop-color="#FFC244"/>
<stop offset="0.32" stop-color="#FFC444"/>
<stop offset="0.48" stop-color="#FDB946"/>
<stop offset="0.78" stop-color="#F99C4D"/>
<stop offset="0.87" stop-color="#F8924F"/>
<stop offset="1" stop-color="#F8924F"/>
</linearGradient>
<linearGradient id="paint35_linear_1_2591" x1="118570" y1="32938.2" x2="111122" y2="49054.2" gradientUnits="userSpaceOnUse">
<stop stop-color="#FFDB44"/>
<stop offset="1" stop-color="#FEEF06"/>
</linearGradient>
<linearGradient id="paint36_linear_1_2591" x1="111906" y1="47795.7" x2="110527" y2="40406.2" gradientUnits="userSpaceOnUse">
<stop stop-color="#FCB148"/>
<stop offset="0.05" stop-color="#FDBA46"/>
<stop offset="0.14" stop-color="#FFC244"/>
<stop offset="0.32" stop-color="#FFC444"/>
<stop offset="0.48" stop-color="#FDB946"/>
<stop offset="0.78" stop-color="#F99C4D"/>
<stop offset="0.87" stop-color="#F8924F"/>
<stop offset="1" stop-color="#F8924F"/>
</linearGradient>
<linearGradient id="paint37_linear_1_2591" x1="105372" y1="34599.2" x2="110830" y2="45960.8" gradientUnits="userSpaceOnUse">
<stop stop-color="#FCB148"/>
<stop offset="0.05" stop-color="#FDBA46"/>
<stop offset="0.14" stop-color="#FFC244"/>
<stop offset="0.32" stop-color="#FFC444"/>
<stop offset="0.48" stop-color="#FDB946"/>
<stop offset="0.78" stop-color="#F99C4D"/>
<stop offset="0.87" stop-color="#F8924F"/>
<stop offset="1" stop-color="#F8924F"/>
</linearGradient>
<linearGradient id="paint38_linear_1_2591" x1="52075.3" y1="26227.6" x2="55394.4" y2="33608.8" gradientUnits="userSpaceOnUse">
<stop stop-color="#FFDB44"/>
<stop offset="1" stop-color="#FEEF06"/>
</linearGradient>
<linearGradient id="paint39_linear_1_2591" x1="62061.8" y1="35245.8" x2="68857.2" y2="43705.7" gradientUnits="userSpaceOnUse">
<stop stop-color="#FCB148"/>
<stop offset="0.05" stop-color="#FDBA46"/>
<stop offset="0.14" stop-color="#FFC244"/>
<stop offset="0.32" stop-color="#FFC444"/>
<stop offset="0.48" stop-color="#FDB946"/>
<stop offset="0.78" stop-color="#F99C4D"/>
<stop offset="0.87" stop-color="#F8924F"/>
<stop offset="1" stop-color="#F8924F"/>
</linearGradient>
<clipPath id="clip0_1_2591">
<rect width="402" height="405" fill="white"/>
</clipPath>
</defs>
</svg>
