<svg width="26" height="26" viewBox="0 0 26 26" fill="none" xmlns="http://www.w3.org/2000/svg">
<g id="Link">
<path id="Vector" d="M12.4253 7.25474L14.4361 5.2439C14.851 4.82862 15.3436 4.49916 15.8859 4.27432C16.4282 4.04949 17.0094 3.9337 17.5964 3.93356C18.1834 3.93343 18.7647 4.04895 19.3071 4.27353C19.8495 4.49811 20.3423 4.82734 20.7573 5.24243C21.1724 5.65752 21.5017 6.15032 21.7262 6.69268C21.9508 7.23504 22.0663 7.81633 22.0662 8.40335C22.0661 8.99037 21.9503 9.57161 21.7254 10.1139C21.5006 10.6561 21.1711 11.1488 20.7559 11.5637L17.8832 14.4363C17.4683 14.8513 16.9757 15.1804 16.4335 15.405C15.8913 15.6296 15.3102 15.7452 14.7234 15.7452C14.1365 15.7452 13.5554 15.6296 13.0132 15.405C12.4711 15.1804 11.9784 14.8513 11.5635 14.4363" stroke="white" stroke-linecap="round" stroke-linejoin="round"/>
<path id="Vector_2" d="M13.5745 18.7451L11.5637 20.7559C11.1488 21.1712 10.6562 21.5006 10.1139 21.7255C9.57164 21.9503 8.9904 22.0661 8.40338 22.0662C7.81636 22.0664 7.23507 21.9508 6.69271 21.7263C6.15035 21.5017 5.65755 21.1725 5.24246 20.7574C4.82737 20.3423 4.49814 19.8495 4.27356 19.3071C4.04898 18.7648 3.93346 18.1835 3.93359 17.5964C3.93373 17.0094 4.04952 16.4282 4.27435 15.8859C4.49919 15.3437 4.82865 14.851 5.24393 14.4361L8.11655 11.5635C8.53151 11.1485 9.02415 10.8194 9.56632 10.5948C10.1085 10.3702 10.6896 10.2546 11.2764 10.2546C11.8633 10.2546 12.4444 10.3702 12.9866 10.5948C13.5287 10.8194 14.0214 11.1485 14.4363 11.5635" stroke="white" stroke-linecap="round" stroke-linejoin="round"/>
</g>
</svg>
