<svg width="402" height="405" viewBox="0 0 402 405" fill="none" xmlns="http://www.w3.org/2000/svg">
<path opacity="0.2" d="M362.169 85.8331C356.198 77.6216 305.088 9.70795 222.238 13.0166C218.097 13.1809 137.298 17.4693 107.494 70.7055C85.4489 110.085 108.789 145.024 81.9017 171.855C58.461 195.236 29.6545 179.759 15.2597 198.664C-6.67712 227.461 28.2579 305.235 81.9314 348.609C137.353 393.396 243.382 426.254 325.799 366.501C418.314 299.414 417.375 161.771 362.169 85.8331Z" fill="#F4F7FA"/>
<path d="M181.302 297.059C189.419 279.095 198.706 251.33 194.858 218.965C190.445 181.799 172.752 172.527 160.36 131.969C142.669 74.0638 173.817 36.9137 151.13 17.3335C140.071 7.78684 121.269 5.73113 108.78 12.7421C73.1462 32.7627 71.0662 136.623 119.19 182.494C140.955 203.236 161.899 203.337 177.162 228.772C190.649 251.239 186.446 278.493 181.302 297.059Z" fill="url(#paint0_linear_1_4214)"/>
<g style="mix-blend-mode:soft-light">
<path d="M190.067 250.593C188.926 242.538 187.098 234.596 184.603 226.854C178.887 209.148 171.566 198.953 162.292 186.044C156.24 177.617 149.382 168.063 141.717 154.613C127.383 129.427 123.035 120.654 119.777 106.921C113.327 79.7383 117.295 56.4416 120.235 44.9709C124.397 28.7124 131.706 13.4325 141.745 0L142.294 0.410577C132.307 13.7735 125.036 28.9746 120.897 45.1493C117.974 56.5591 114.027 79.7368 120.442 106.77C123.682 120.418 128.015 129.16 142.317 154.276C149.963 167.704 156.812 177.239 162.853 185.653C172.157 198.61 179.506 208.843 185.254 226.651C187.762 234.431 189.599 242.413 190.745 250.508L190.067 250.593Z" fill="white"/>
</g>
<g style="mix-blend-mode:soft-light">
<path d="M117.324 88.0179L116.861 87.6965C116.768 87.6328 107.551 81.1626 100.034 69.2219C93.0926 58.1958 86.2115 40.1149 92.8483 16.5874L93.5063 16.7743C86.9387 40.0582 93.745 57.9481 100.613 68.8552C107.101 79.1607 114.849 85.3378 116.792 86.7974C119.437 67.7481 133.005 56.6937 143.983 50.7587C155.969 44.2787 167.534 42.3447 167.649 42.3263L167.76 43.0031C167.645 43.0215 156.18 44.9427 144.291 51.3717C133.351 57.2897 119.806 68.3611 117.395 87.4572L117.324 88.0179Z" fill="white"/>
</g>
<g style="mix-blend-mode:soft-light">
<path d="M120.269 150.19C109.063 150.19 94.48 147.335 82.2598 135.466L82.7356 134.973C104.722 156.331 134.49 148.126 137.657 147.17C132.255 109.907 158.415 93.8932 158.679 93.7346L159.028 94.325C158.765 94.4807 132.865 110.359 138.378 147.36L138.42 147.643L138.147 147.735C137.992 147.785 130.553 150.19 120.269 150.19Z" fill="white"/>
</g>
<g style="mix-blend-mode:soft-light">
<path d="M137.923 188.615C129.31 188.615 118.394 186.607 105.477 180.215L105.78 179.599C138.185 195.636 157.745 183.868 159.908 182.44C153.777 162.175 168.778 132.16 168.93 131.857L169.542 132.169C169.389 132.469 154.391 162.479 160.637 182.48L160.71 182.714L160.513 182.855C160.387 182.952 152.392 188.615 137.923 188.615Z" fill="white"/>
</g>
<path d="M233.208 315.658C237.42 300.51 241.491 276.594 231.307 253.695C213.539 213.746 172.382 221.873 138.642 177.471C111.428 141.659 123.847 117.482 92.1332 92.1971C86.8252 87.9653 58.8617 64.8116 35.1682 74.3426C21.817 79.7084 15.7436 93.0607 14.604 95.5652C-2.62344 133.439 30.6213 199.298 79.5953 233.099C107.734 252.517 117.95 248.286 168.506 272.866C198.213 287.313 219.873 304.11 233.208 315.658Z" fill="url(#paint1_linear_1_4214)"/>
<g style="mix-blend-mode:soft-light">
<path d="M235.631 334.699C231.99 297.197 220.24 271.006 200.719 256.851C191.192 249.943 183.178 248.138 174.694 246.233C165.435 244.147 155.86 241.985 143.881 232.822C132.226 223.903 128.551 216.147 123.9 206.334C119.763 197.609 114.616 186.75 102.059 171.67C91.045 158.451 82.6981 151.912 75.327 146.143C67.264 139.832 60.8969 134.849 54.0991 123.572C43.0241 105.192 38.6311 82.7212 41.0416 56.7727L41.7236 56.8364C39.3231 82.6405 43.6878 104.973 54.6852 123.218C61.418 134.386 67.7413 139.335 75.7478 145.602C83.1458 151.392 91.5307 157.954 102.585 171.227C115.196 186.376 120.364 197.278 124.517 206.037C129.13 215.766 132.772 223.451 144.298 232.274C156.159 241.352 165.657 243.492 174.844 245.56C183.398 247.487 191.478 249.305 201.12 256.296C220.812 270.57 232.652 296.929 236.312 334.634L235.631 334.699Z" fill="white"/>
</g>
<g style="mix-blend-mode:soft-light">
<path d="M79.1842 148.777L78.7267 148.742C50.3042 146.521 30.4149 133.495 18.7342 122.959C6.07903 111.542 0.0593077 100.493 0 100.379L0.602961 100.052C0.662269 100.168 6.63681 111.127 19.2129 122.465C30.7496 132.867 50.3508 145.714 78.3285 148.018C77.3005 142.78 68.321 93.6793 88.6268 75.2883L89.0857 75.798C68.0231 94.8757 78.9752 147.793 79.0882 148.326L79.1842 148.777Z" fill="white"/>
</g>
<g style="mix-blend-mode:soft-light">
<path d="M82.3237 192.546C81.8041 192.546 81.2816 192.546 80.7535 192.536C62.5093 192.313 35.3888 187.965 9.78906 168.522L10.2028 167.974C35.6444 187.298 62.6011 191.618 80.7351 191.85C98.8692 192.082 112.016 188.367 114.073 187.744C109.715 160.162 120.275 123.043 120.382 122.672L121.04 122.863C120.932 123.235 110.341 160.472 114.796 187.929L114.843 188.221L114.56 188.312C114.435 188.356 101.257 192.546 82.3237 192.546Z" fill="white"/>
</g>
<g style="mix-blend-mode:soft-light">
<path d="M104.249 257.606C96.5524 257.599 88.8639 257.091 81.2324 256.085L81.3214 255.404C130.79 261.877 162.569 245.635 166.047 243.751C148.66 216.588 160.949 176.619 161.076 176.218L161.728 176.423C161.603 176.824 149.318 216.793 166.82 243.687L167.018 243.99L166.706 244.171C166.424 244.33 143.079 257.606 104.249 257.606Z" fill="white"/>
</g>
<path d="M134.807 222.894C134.326 222.894 133.862 222.716 133.505 222.393C133.149 222.069 132.925 221.625 132.878 221.145C131.183 203.306 125.394 186.371 116.558 173.442C108.734 161.987 99.4197 155.151 91.6362 155.151H91.6108C63.2632 155.206 57.3324 220.46 57.2759 221.127C57.2197 221.63 56.9698 222.091 56.5794 222.412C56.189 222.733 55.689 222.888 55.186 222.844C54.683 222.801 54.2169 222.562 53.8869 222.179C53.5569 221.796 53.3892 221.299 53.4195 220.794C53.6624 217.962 59.733 151.34 91.6023 151.279H91.6447C100.84 151.279 111.085 158.558 119.759 171.257C128.955 184.72 134.987 202.307 136.743 220.777C136.768 221.031 136.743 221.288 136.669 221.533C136.595 221.777 136.473 222.005 136.312 222.202C136.15 222.399 135.95 222.563 135.725 222.682C135.5 222.802 135.254 222.877 135 222.901C134.933 222.896 134.869 222.894 134.807 222.894Z" fill="url(#paint2_linear_1_4214)"/>
<path d="M16.71 357.192L54.0259 376.134L76.6362 306.569L39.3811 213.309L28.8173 215.907L12.7887 349.84C12.6102 351.321 12.8908 352.821 13.5924 354.136C14.2939 355.452 15.3825 356.519 16.71 357.192Z" fill="url(#paint3_linear_1_4214)"/>
<path style="mix-blend-mode:multiply" opacity="0.52" d="M76.636 306.569L39.3809 213.309L33.1494 214.841C32.4381 224.881 32.4726 234.961 33.2525 244.997C35.749 276.75 44.0436 285.586 40.0305 307.737C36.6895 326.155 29.3932 328.655 30.0315 341.046C30.7263 354.543 40.1138 365.845 51.2764 374.732L54.0299 376.13L76.636 306.569Z" fill="url(#paint4_linear_1_4214)"/>
<path d="M39.3809 213.309H178.519L224.568 362.357L54.0256 376.134L39.3809 213.309Z" fill="url(#paint5_linear_1_4214)"/>
<path d="M82.4848 226.083C82.0486 226.083 81.6252 225.935 81.2835 225.663C80.9418 225.391 80.7018 225.011 80.6025 224.585C80.2071 222.895 71.0652 182.961 83.9548 163.357C87.6502 157.739 92.8114 154.31 99.2957 153.164C132.621 147.277 153.132 219.03 153.989 222.088C154.057 222.333 154.077 222.59 154.047 222.843C154.017 223.096 153.937 223.34 153.813 223.562C153.689 223.784 153.522 223.98 153.322 224.137C153.123 224.295 152.894 224.411 152.649 224.48C152.405 224.549 152.149 224.569 151.897 224.539C151.644 224.508 151.401 224.429 151.179 224.304C150.958 224.179 150.763 224.012 150.606 223.812C150.448 223.612 150.332 223.382 150.264 223.137C150.062 222.429 129.867 151.693 99.9679 156.985C94.496 157.953 90.3162 160.735 87.1871 165.494C75.2055 183.713 84.2782 223.301 84.3713 223.699C84.4883 224.2 84.4019 224.728 84.1313 225.165C83.8607 225.603 83.428 225.915 82.9282 226.032C82.7828 226.066 82.634 226.083 82.4848 226.083Z" fill="url(#paint6_linear_1_4214)"/>
<path style="mix-blend-mode:multiply" opacity="0.3" d="M178.521 213.309H109.495C106.091 216.78 103.675 220.781 103.444 225.269C102.359 246.357 150.713 253.286 155.375 282.184C158.739 303.034 138.041 327.091 119.572 337.809C100.118 349.105 86.9287 343.387 73.7695 355.928C67.987 361.437 64.4652 368.324 62.3711 375.466L224.569 362.362L178.521 213.309Z" fill="url(#paint7_linear_1_4214)"/>
<path d="M87.8383 227.255C88.3169 224.299 86.3147 221.514 83.3664 221.034C80.4181 220.554 77.64 222.562 77.1615 225.518C76.6829 228.474 78.685 231.259 81.6333 231.739C84.5816 232.219 87.3597 230.211 87.8383 227.255Z" fill="url(#paint8_linear_1_4214)"/>
<path d="M159.015 226.253C159.493 223.288 157.483 220.496 154.526 220.017C151.569 219.538 148.785 221.553 148.307 224.518C147.829 227.483 149.839 230.274 152.796 230.754C155.753 231.233 158.537 229.218 159.015 226.253Z" fill="url(#paint9_linear_1_4214)"/>
<path d="M280.677 58.697C292.763 161.111 304.849 262.456 316.935 362.733C317.477 367.23 314.379 371.205 310.044 371.576C261.468 376.196 212.895 380.915 164.325 385.734C155.66 386.159 150.902 381.301 150.345 376.441C137.905 268.191 125.464 158.81 113.024 48.2981C112.466 43.3344 116.66 39.0686 125.324 39.4919C174.137 42.9842 222.949 46.4293 271.758 49.8271C276.125 50.1188 280.134 54.1028 280.677 58.697Z" fill="#26264F"/>
<path d="M287.422 58.486C299.585 161.348 311.747 263.127 323.909 363.823C324.454 368.334 321.337 372.334 316.976 372.706C266.539 376.989 216.102 381.357 165.665 385.809C161.061 386.22 156.831 382.564 156.27 377.681C143.75 268.935 131.229 159.042 118.709 48.0035C118.144 43.0186 121.484 39.1917 126.118 39.5089C176.894 42.9067 227.67 46.2621 278.445 49.5751C282.841 49.8667 286.877 53.872 287.422 58.486Z" fill="url(#paint10_linear_1_4214)"/>
<path d="M284.491 75.3196C295.755 170.616 307.02 264.985 318.283 358.428C318.793 362.65 315.883 366.38 311.805 366.713C264.371 370.603 216.938 374.567 169.506 378.605C165.22 378.974 161.279 375.552 160.751 371.015C149.172 270.572 137.597 169.15 126.026 66.747C125.503 62.1132 128.608 58.5284 132.92 58.7847C180.649 61.57 228.377 64.327 276.106 67.0557C280.214 67.2878 283.982 71.0099 284.491 75.3196Z" fill="url(#paint11_linear_1_4214)"/>
<path style="mix-blend-mode:multiply" opacity="0.35" d="M276.116 67.0529C228.952 64.3573 181.789 61.6329 134.625 58.8796C136.212 68.161 138.998 77.1956 142.913 85.7554C158.556 119.784 181.539 121.658 190.53 151.306C199.793 181.857 178.902 191.418 189.109 219.002C200.184 248.933 227.345 244.6 241.702 277.432C254.075 305.731 238.145 318.667 250.941 335.865C264.965 354.713 290.904 348.324 317.841 354.706C306.725 262.482 295.609 169.353 284.493 75.3197C283.984 71.0101 280.215 67.288 276.116 67.0529Z" fill="url(#paint12_linear_1_4214)"/>
<path d="M207.226 54.4907C207.418 56.1485 206.307 57.4171 204.745 57.3222C203.183 57.2274 201.759 55.8017 201.566 54.1381C201.374 52.4746 202.486 51.2018 204.05 51.3066C205.615 51.4113 207.034 52.8314 207.226 54.4907Z" fill="#DE8BDF"/>
<path d="M224.264 146.586C230.294 146.586 235.181 140.805 235.181 133.674C235.181 126.543 230.294 120.762 224.264 120.762C218.235 120.762 213.348 126.543 213.348 133.674C213.348 140.805 218.235 146.586 224.264 146.586Z" fill="url(#paint13_linear_1_4214)"/>
<path d="M267.718 146.586C273.747 146.586 278.634 140.805 278.634 133.674C278.634 126.543 273.747 120.762 267.718 120.762C261.69 120.762 256.803 126.543 256.803 133.674C256.803 140.805 261.69 146.586 267.718 146.586Z" fill="url(#paint14_linear_1_4214)"/>
<path d="M245.871 146.586C251.986 146.586 256.943 140.805 256.943 133.674C256.943 126.543 251.986 120.762 245.871 120.762C239.756 120.762 234.799 126.543 234.799 133.674C234.799 140.805 239.756 146.586 245.871 146.586Z" fill="#D8DEE8"/>
<path d="M311.171 146.586C317.2 146.586 322.088 140.805 322.088 133.674C322.088 126.543 317.2 120.762 311.171 120.762C305.142 120.762 300.254 126.543 300.254 133.674C300.254 140.805 305.142 146.586 311.171 146.586Z" fill="url(#paint15_linear_1_4214)"/>
<path d="M289.326 146.586C295.441 146.586 300.398 140.805 300.398 133.674C300.398 126.543 295.441 120.762 289.326 120.762C283.211 120.762 278.254 126.543 278.254 133.674C278.254 140.805 283.211 146.586 289.326 146.586Z" fill="#D8DEE8"/>
<path d="M332.777 146.586C338.892 146.586 343.849 140.805 343.849 133.674C343.849 126.543 338.892 120.762 332.777 120.762C326.662 120.762 321.705 126.543 321.705 133.674C321.705 140.805 326.662 146.586 332.777 146.586Z" fill="#D8DEE8"/>
<path d="M202.418 146.586C208.533 146.586 213.49 140.805 213.49 133.674C213.49 126.543 208.533 120.762 202.418 120.762C196.303 120.762 191.346 126.543 191.346 133.674C191.346 140.805 196.303 146.586 202.418 146.586Z" fill="#D8DEE8"/>
<path d="M123.844 57.5034L191.583 135.422H366.419L281.7 67.3714L123.844 57.5034Z" fill="url(#paint16_linear_1_4214)"/>
<path d="M123.844 57.5034L191.583 135.422H213.49L142.065 58.6417L123.844 57.5034Z" fill="#F4F7FA"/>
<path d="M161.631 59.865L235.079 135.422H256.718L181.341 61.0981L161.631 59.865Z" fill="#F4F7FA"/>
<path d="M201.197 62.3384L278.409 135.422H300.153L221.202 63.5899L201.197 62.3384Z" fill="#F4F7FA"/>
<path d="M261.676 66.1198L241.361 64.8499L321.949 135.422H343.8L261.676 66.1198Z" fill="#F4F7FA"/>
<path d="M343.82 135.422C344.543 141.725 349.099 146.586 354.626 146.586C360.153 146.586 364.707 141.725 365.43 135.422H343.82Z" fill="url(#paint17_linear_1_4214)"/>
<path opacity="0.63" d="M260.724 184.098C251.263 162.25 227.28 151.639 207.145 160.398C187.01 169.158 178.347 193.971 187.808 215.82C197.269 237.67 221.252 248.278 241.387 239.519C261.522 230.76 270.18 205.947 260.724 184.098ZM231.034 215.234L231.84 221.387L225.942 222.164L225.19 216.432C221.135 216.783 217.081 216.212 214.62 215.186L215.501 207.889C218.209 208.942 221.927 209.744 225.839 209.227C229.269 208.775 231.442 207.139 231.125 204.725C230.825 202.431 228.709 201.238 224.065 200.316C217.341 198.992 212.552 196.554 211.78 190.701C211.084 185.392 214.269 180.737 220.535 178.622L219.784 172.89L225.682 172.112L226.378 177.423C230.434 177.072 233.252 177.564 235.365 178.262L234.517 185.312C232.865 184.854 229.915 183.831 225.582 184.403C221.67 184.917 220.628 186.774 220.85 188.463C221.111 190.454 223.383 191.436 228.757 192.701C236.251 194.29 239.574 197.231 240.287 202.658C240.986 208.029 237.796 213.113 231.034 215.234Z" fill="#F4F7FA"/>
<path opacity="0.63" d="M282.327 302.734L190.164 305.533C188.563 305.581 187 305.04 185.77 304.012C184.54 302.984 183.727 301.539 183.487 299.952L179.75 275.317C179.61 274.394 179.668 273.452 179.92 272.553C180.172 271.654 180.612 270.819 181.211 270.104C181.81 269.389 182.553 268.81 183.393 268.406C184.232 268.002 185.148 267.781 186.079 267.76L278.341 265.618C279.935 265.579 281.488 266.125 282.71 267.153C283.932 268.18 284.738 269.619 284.977 271.2L288.612 295.178C288.752 296.097 288.695 297.036 288.446 297.932C288.196 298.827 287.76 299.66 287.166 300.374C286.572 301.089 285.833 301.668 284.999 302.075C284.165 302.482 283.254 302.706 282.327 302.734Z" fill="#F4F7FA"/>
<path opacity="0.63" d="M285.424 322.985L193.315 326.144C191.71 326.199 190.141 325.661 188.905 324.632C187.669 323.604 186.853 322.156 186.612 320.564L186.576 320.332C186.437 319.414 186.494 318.476 186.742 317.581C186.991 316.686 187.426 315.854 188.019 315.14C188.611 314.426 189.348 313.847 190.181 313.439C191.013 313.031 191.923 312.805 192.849 312.776L284.992 309.85C286.594 309.798 288.16 310.338 289.392 311.366C290.625 312.394 291.438 313.84 291.679 315.429C291.818 316.346 291.762 317.282 291.515 318.176C291.267 319.07 290.834 319.901 290.243 320.615C289.652 321.328 288.917 321.909 288.086 322.317C287.256 322.726 286.348 322.953 285.424 322.985Z" fill="#F4F7FA"/>
<path d="M238.22 187.639C238.782 185.8 238.83 183.841 238.361 181.976C237.09 177.129 232.447 174.414 232.032 174.77C231.808 174.961 232.543 176.275 232.908 176.845C233.666 178.035 234.112 178.042 234.25 178.648C234.533 179.898 232.779 180.461 232.319 182.365C231.987 183.736 232.419 185.425 233.529 186.538C235.372 188.385 238.111 187.672 238.22 187.639Z" fill="url(#paint18_linear_1_4214)"/>
<path d="M346.36 278.859L344.936 273.947L350.882 269.528L354.587 268.139L352.393 275.014L346.36 278.859Z" fill="url(#paint19_linear_1_4214)"/>
<path d="M339 377.82C339 377.82 342.248 386.023 341.401 389.66C344.891 389.592 347.151 389.146 347.151 389.146C347.151 389.146 345.747 385.404 345.473 383.551C345.103 381.048 345.131 376.996 345.131 376.996L339 377.82Z" fill="url(#paint20_linear_1_4214)"/>
<path d="M303.151 397.005C303.513 397.427 303.728 397.956 303.765 398.512C303.775 398.857 303.712 399.202 303.58 399.521C303.026 400.985 302.155 401.177 301.215 402.731C300.641 403.679 300.75 403.965 300.226 404.393C299.533 404.959 298.694 404.989 297.967 404.997C296.221 405.013 294.475 404.914 292.742 404.701C293.91 403.191 295.153 401.662 296.47 400.114C297.049 399.437 297.627 398.776 298.204 398.132L301.635 396.97L303.151 397.005Z" fill="#26264F"/>
<path d="M300.298 380.3C300.298 380.3 298.336 390.562 300.831 393.436C302.958 396.309 299.805 394.26 299.805 394.26L296.039 397.552L293.779 401.463C293.779 401.463 295.858 391.421 295.303 387.436C294.748 383.45 294.471 380.762 294.471 380.762L300.298 380.3Z" fill="url(#paint21_linear_1_4214)"/>
<path d="M292.901 268.057C292.901 268.057 287.633 272.783 287.633 292.247C287.633 311.711 290.128 353.975 290.128 353.975L294.123 384.243C294.123 384.243 298.264 384.385 301.042 383.556C303.537 372.157 307.605 352.871 305.664 336.744C304.832 319.225 312.597 297.259 312.597 297.259C312.597 297.259 319.254 319.504 323.967 330.626C328.681 341.748 337.664 376.592 338.491 379.095C344.008 379.597 346.364 378.134 346.364 378.134C346.364 378.134 342.827 340.636 339.499 326.458C336.17 312.28 336.447 278.075 330.901 268.343C318.416 263.335 292.901 268.057 292.901 268.057Z" fill="url(#paint22_linear_1_4214)"/>
<path d="M292.901 268.057C292.901 268.057 287.633 272.783 287.633 292.247C287.633 311.711 290.128 353.975 290.128 353.975L294.123 384.243C294.123 384.243 298.264 384.385 301.042 383.556C303.537 372.157 307.605 352.871 305.664 336.744C304.832 319.225 312.597 297.259 312.597 297.259C312.597 297.259 319.254 319.504 323.967 330.626C328.681 341.748 337.664 376.592 338.491 379.095C344.008 379.597 346.364 378.134 346.364 378.134C346.364 378.134 342.827 340.636 339.499 326.458C336.17 312.28 336.447 278.075 330.901 268.343C318.416 263.335 292.901 268.057 292.901 268.057Z" fill="url(#paint23_linear_1_4214)"/>
<path style="mix-blend-mode:multiply" opacity="0.25" d="M320.276 303.721C321.918 314.43 325.204 320.195 333.42 327.608C339.993 332.55 335.063 343.259 337.527 351.496C338.349 353.967 340.815 356.437 341.635 358.909C344.692 365.04 341.837 372.538 343.224 379.029C345.382 378.73 346.36 378.128 346.36 378.128C346.36 378.128 342.823 340.63 339.495 326.452C336.166 312.275 336.443 278.069 330.896 268.337C318.416 263.333 292.901 268.054 292.901 268.054C292.901 268.054 287.633 272.78 287.633 292.244C287.633 293.824 287.65 295.556 287.679 297.401C293.15 302.254 304.342 303.333 311.239 297.953C311.627 297.655 312.078 297.451 312.558 297.354L312.593 297.25L312.621 297.347C315.762 296.775 319.563 300.864 320.276 303.721Z" fill="url(#paint24_linear_1_4214)"/>
<path d="M340.54 392.773C340.54 392.773 339.729 392.773 339.797 393.823C339.865 394.872 339.431 398.483 343.552 398.653C347.672 398.823 348.308 398.36 348.442 398.36C348.576 398.36 347.362 394.907 347.362 394.907L346.044 393.208L342.498 392.836L340.54 392.773Z" fill="#26264F"/>
<path d="M349.676 396.398C349.588 395.526 349.101 394.154 348.613 393.048C347.885 391.407 348.483 390.794 347.787 389.299C347.547 388.782 347.312 388.292 346.798 387.807C346.681 387.695 345.544 386.642 343.889 386.695C343.413 386.691 342.944 386.802 342.519 387.018C341.88 387.359 341.559 387.868 341.287 388.322C340.863 389.03 340.956 389.247 340.298 391.274C340.188 391.602 340.101 391.937 340.038 392.278C339.984 392.576 339.948 392.877 339.93 393.18C341.011 393.18 345.164 393.348 346.043 393.992C346.921 394.636 347.36 395.72 347.36 396.803C347.36 397.886 347.901 398.394 348.44 398.36C348.928 398.33 349.885 397.434 349.676 396.398Z" fill="#444B8C"/>
<path d="M299.77 391.995C300.698 392.009 301.378 392.749 301.888 394.535C302.398 396.32 304.866 397.897 301.991 397.521C299.116 397.144 297.026 401.227 296 402.736C294.973 404.246 292.217 405.589 292.284 404.112C292.352 402.636 293.569 401.948 293.911 400.431C294.253 398.915 297.653 391.961 299.77 391.995Z" fill="#444B8C"/>
<path d="M344.255 261.23C344.381 259.213 344.992 246.023 335.211 237.008C327.203 229.627 316.995 229.433 315.545 229.427C306.72 229.389 303.542 233.675 300.153 231.57C294.403 228.009 294.564 210.129 303.142 204.057C312.812 197.211 329.843 207.738 337.786 215.587C348.206 225.892 350.072 238.612 350.398 241.245C351.07 246.631 350.742 252.095 349.429 257.361L344.255 261.23Z" fill="url(#paint25_linear_1_4214)"/>
<path d="M297.032 203.319C287.328 205.726 279.975 208.039 277.01 213.443C273.878 219.152 279.786 222.844 282.181 234.693C285.853 252.83 275.847 260.437 280.204 278.651C281.36 283.424 283.244 287.99 285.788 292.188C289.153 294.552 294.458 297.728 301.48 299.628C311.699 302.394 316.467 300.004 329.929 299.792C351.951 299.443 355.697 305.581 365.319 300.934C375.05 296.24 381.517 284.997 379.06 280.58C377.589 277.934 373.694 279.937 367.703 276.993C359.972 273.201 360.784 267.191 354.401 262.552C345.222 255.898 337.456 263.863 329.598 258.063C321.653 252.196 319.627 236.662 322.129 227.144C323.764 220.927 323.322 214.328 324.411 207.991C324.546 207.227 324.456 206.44 324.153 205.726C322.667 202.239 316.09 202.029 311.12 201.917C303.542 201.749 297.831 203.121 297.032 203.319Z" fill="url(#paint26_linear_1_4214)"/>
<path d="M288.838 205.277L290.561 204.144C290.561 204.144 291.799 206.568 297.976 205.116C299.987 204.531 301.749 203.294 302.986 201.599L304.552 202.165C304.552 202.165 302.746 206.543 298.209 207.767C292.354 209.347 288.838 205.277 288.838 205.277Z" fill="url(#paint27_linear_1_4214)"/>
<path d="M290.426 196.342C289.973 193.415 291.673 190.962 292.046 190.431C293.609 188.221 293.974 187.936 294.634 187.599L295.545 187.175L295.651 187.149C296.215 187.02 298.079 187.187 298.447 187.313C299.616 187.716 300.306 192.773 299.11 199.662L299.208 201.294C301.905 200.998 302.674 201.279 302.803 201.643C303.078 202.433 300.566 204.276 297.982 205.101C294.741 206.136 290.865 205.738 290.626 204.668C290.53 204.233 290.994 203.535 293.216 202.324L293.873 200.432C293.418 200.125 290.761 198.492 290.426 196.342Z" fill="url(#paint28_linear_1_4214)"/>
<path d="M294.155 194.104C294.766 193.444 295.606 194.234 295.5 195.171C295.394 196.108 294.371 196.972 293.516 196.68C292.662 196.389 293.331 194.991 294.155 194.104Z" fill="url(#paint29_linear_1_4214)"/>
<path d="M390.145 166.115C377.322 158.35 355.481 167.868 345.369 180.053C340.671 185.717 339.026 191.265 332.236 193.67C327.071 195.5 318.142 195.954 312.09 191.533C311.328 190.975 308.237 188.608 303.806 185.777C301.853 184.53 299.936 183.383 297.571 183.686C296.971 183.764 294.969 184.009 294.064 185.616C293.329 186.917 293.583 188.731 294.251 189.903C294.651 190.602 294.908 190.611 295.017 191.115C295.325 192.531 292.986 193.86 293.322 194.513C293.566 194.982 294.822 194.418 295.227 194.977C295.673 195.59 294.408 196.597 294.289 198.498C293.359 199.611 293.188 201.755 293.685 204.411C294.414 208.315 295.689 211.29 297.074 213.404C303.773 223.585 308.564 230.867 315.841 233.593C325.474 237.202 331.021 229.661 350.914 222.926C378.153 213.705 387.747 221.076 395.802 211.774C405.865 200.162 403.459 174.177 390.145 166.115Z" fill="url(#paint30_linear_1_4214)"/>
<path d="M239.195 186.626C239.618 189.011 241.755 199.491 251.303 206.081C260.223 212.238 270.011 211.136 271.818 210.895C280.564 209.723 283.129 205.049 286.772 206.663C292.954 209.401 295.232 227.137 287.563 234.327C278.917 242.433 260.612 234.347 251.672 227.655C239.951 218.877 236.369 206.53 235.68 203.966C234.28 198.723 233.86 193.265 234.441 187.869C235.851 186.951 237.518 186.516 239.195 186.627V186.626Z" fill="url(#paint31_linear_1_4214)"/>
<path style="mix-blend-mode:multiply" opacity="0.3" d="M363.669 294.076C360.485 292.27 361.712 286.399 356.993 283.675C352.615 281.146 349.627 285.09 343.339 283.649C335.273 281.809 335.131 274.155 327.394 272.278C321.83 270.927 320.444 274.527 312.612 275.251C304.781 275.974 294.298 273.484 287.195 265.639C284.493 262.635 282.47 259.082 281.264 255.222C279.663 262.159 277.866 268.876 280.208 278.651C281.364 283.425 283.247 287.99 285.791 292.188C289.156 294.552 294.461 297.728 301.484 299.628C311.703 302.394 316.47 300.004 329.933 299.792C351.954 299.444 355.701 305.581 365.323 300.935C371.536 297.934 376.409 292.266 378.485 287.407C370.279 294.361 365.979 295.387 363.669 294.076Z" fill="url(#paint32_linear_1_4214)"/>
<defs>
<linearGradient id="paint0_linear_1_4214" x1="196.118" y1="68.4588" x2="127.274" y2="179.027" gradientUnits="userSpaceOnUse">
<stop stop-color="#E38DDD"/>
<stop offset="1" stop-color="#9571F6"/>
</linearGradient>
<linearGradient id="paint1_linear_1_4214" x1="149.717" y1="128.004" x2="104.682" y2="262.02" gradientUnits="userSpaceOnUse">
<stop stop-color="#AA80F9"/>
<stop offset="1" stop-color="#6165D7"/>
</linearGradient>
<linearGradient id="paint2_linear_1_4214" x1="54092.7" y1="88767.9" x2="56221.4" y2="120971" gradientUnits="userSpaceOnUse">
<stop stop-color="#E38DDD"/>
<stop offset="1" stop-color="#9571F6"/>
</linearGradient>
<linearGradient id="paint3_linear_1_4214" x1="-3.09308" y1="233.996" x2="44.2598" y2="313.197" gradientUnits="userSpaceOnUse">
<stop stop-color="#FF9085"/>
<stop offset="1" stop-color="#FB6FBB"/>
</linearGradient>
<linearGradient id="paint4_linear_1_4214" x1="1417.65" y1="264304" x2="49677.9" y2="287488" gradientUnits="userSpaceOnUse">
<stop stop-color="#FF9085"/>
<stop offset="1" stop-color="#FB6FBB"/>
</linearGradient>
<linearGradient id="paint5_linear_1_4214" x1="103675" y1="306070" x2="260675" y2="443650" gradientUnits="userSpaceOnUse">
<stop stop-color="#FF9085"/>
<stop offset="1" stop-color="#FB6FBB"/>
</linearGradient>
<linearGradient id="paint6_linear_1_4214" x1="57376.5" y1="75903.2" x2="64082" y2="120812" gradientUnits="userSpaceOnUse">
<stop stop-color="#E38DDD"/>
<stop offset="1" stop-color="#9571F6"/>
</linearGradient>
<linearGradient id="paint7_linear_1_4214" x1="92803.9" y1="302256" x2="245321" y2="419799" gradientUnits="userSpaceOnUse">
<stop stop-color="#FF9085"/>
<stop offset="1" stop-color="#FB6FBB"/>
</linearGradient>
<linearGradient id="paint8_linear_1_4214" x1="5837.46" y1="17353.1" x2="6004.57" y2="17415.1" gradientUnits="userSpaceOnUse">
<stop stop-color="#E38DDD"/>
<stop offset="1" stop-color="#9571F6"/>
</linearGradient>
<linearGradient id="paint9_linear_1_4214" x1="11355.3" y1="17354.6" x2="11522.9" y2="17416.6" gradientUnits="userSpaceOnUse">
<stop stop-color="#E38DDD"/>
<stop offset="1" stop-color="#9571F6"/>
</linearGradient>
<linearGradient id="paint10_linear_1_4214" x1="143.234" y1="212.171" x2="444.406" y2="164.641" gradientUnits="userSpaceOnUse">
<stop stop-color="#444B8C"/>
<stop offset="1" stop-color="#26264F"/>
</linearGradient>
<linearGradient id="paint11_linear_1_4214" x1="278.765" y1="94.8106" x2="-19.0514" y2="710.925" gradientUnits="userSpaceOnUse">
<stop stop-color="#FFC444"/>
<stop offset="1" stop-color="#F36F56"/>
</linearGradient>
<linearGradient id="paint12_linear_1_4214" x1="363213" y1="199242" x2="-406597" y2="1.18815e+06" gradientUnits="userSpaceOnUse">
<stop stop-color="#FFC444"/>
<stop offset="1" stop-color="#F36F56"/>
</linearGradient>
<linearGradient id="paint13_linear_1_4214" x1="33201.3" y1="24502.9" x2="36577" y2="24502.9" gradientUnits="userSpaceOnUse">
<stop stop-color="#FF9085"/>
<stop offset="1" stop-color="#FB6FBB"/>
</linearGradient>
<linearGradient id="paint14_linear_1_4214" x1="39958.4" y1="24502.9" x2="43333.6" y2="24502.9" gradientUnits="userSpaceOnUse">
<stop stop-color="#FF9085"/>
<stop offset="1" stop-color="#FB6FBB"/>
</linearGradient>
<linearGradient id="paint15_linear_1_4214" x1="46725.8" y1="24502.9" x2="50101.5" y2="24502.9" gradientUnits="userSpaceOnUse">
<stop stop-color="#FF9085"/>
<stop offset="1" stop-color="#FB6FBB"/>
</linearGradient>
<linearGradient id="paint16_linear_1_4214" x1="212870" y1="53146.8" x2="629578" y2="53146.8" gradientUnits="userSpaceOnUse">
<stop stop-color="#FF9085"/>
<stop offset="1" stop-color="#FB6FBB"/>
</linearGradient>
<linearGradient id="paint17_linear_1_4214" x1="52958.7" y1="11253.6" x2="56265.6" y2="11253.6" gradientUnits="userSpaceOnUse">
<stop stop-color="#FF9085"/>
<stop offset="1" stop-color="#FB6FBB"/>
</linearGradient>
<linearGradient id="paint18_linear_1_4214" x1="280.651" y1="293.62" x2="260.444" y2="244.574" gradientUnits="userSpaceOnUse">
<stop stop-color="#311944"/>
<stop offset="1" stop-color="#893976"/>
</linearGradient>
<linearGradient id="paint19_linear_1_4214" x1="24195.8" y1="20739.9" x2="24382.1" y2="21084.9" gradientUnits="userSpaceOnUse">
<stop stop-color="#FFC444"/>
<stop offset="1" stop-color="#F36F56"/>
</linearGradient>
<linearGradient id="paint20_linear_1_4214" x1="10133" y1="35404" x2="10133" y2="34068.2" gradientUnits="userSpaceOnUse">
<stop stop-color="#FFC444"/>
<stop offset="1" stop-color="#F36F56"/>
</linearGradient>
<linearGradient id="paint21_linear_1_4214" x1="7156.75" y1="59550.3" x2="7156.75" y2="56860" gradientUnits="userSpaceOnUse">
<stop stop-color="#FFC444"/>
<stop offset="1" stop-color="#F36F56"/>
</linearGradient>
<linearGradient id="paint22_linear_1_4214" x1="46706.9" y1="271745" x2="71132.8" y2="271745" gradientUnits="userSpaceOnUse">
<stop stop-color="#311944"/>
<stop offset="1" stop-color="#893976"/>
</linearGradient>
<linearGradient id="paint23_linear_1_4214" x1="45931.1" y1="235097" x2="85569.1" y2="268175" gradientUnits="userSpaceOnUse">
<stop stop-color="#311944"/>
<stop offset="1" stop-color="#893976"/>
</linearGradient>
<linearGradient id="paint24_linear_1_4214" x1="52854.7" y1="216792" x2="91012.6" y2="250103" gradientUnits="userSpaceOnUse">
<stop stop-color="#311944"/>
<stop offset="1" stop-color="#893976"/>
</linearGradient>
<linearGradient id="paint25_linear_1_4214" x1="-16591.1" y1="248818" x2="-41628.2" y2="214690" gradientUnits="userSpaceOnUse">
<stop stop-color="#E38DDD"/>
<stop offset="1" stop-color="#9571F6"/>
</linearGradient>
<linearGradient id="paint26_linear_1_4214" x1="67778" y1="155818" x2="117126" y2="211456" gradientUnits="userSpaceOnUse">
<stop stop-color="#E38DDD"/>
<stop offset="1" stop-color="#9571F6"/>
</linearGradient>
<linearGradient id="paint27_linear_1_4214" x1="-10072.9" y1="13995.4" x2="-9630.9" y2="14733.9" gradientUnits="userSpaceOnUse">
<stop stop-color="#E38DDD"/>
<stop offset="1" stop-color="#9571F6"/>
</linearGradient>
<linearGradient id="paint28_linear_1_4214" x1="6745.76" y1="53567.3" x2="3783.3" y2="47312.1" gradientUnits="userSpaceOnUse">
<stop stop-color="#311944"/>
<stop offset="1" stop-color="#893976"/>
</linearGradient>
<linearGradient id="paint29_linear_1_4214" x1="5305.28" y1="4571.8" x2="5267.85" y2="4229.94" gradientUnits="userSpaceOnUse">
<stop stop-color="#311944"/>
<stop offset="1" stop-color="#893976"/>
</linearGradient>
<linearGradient id="paint30_linear_1_4214" x1="61649.1" y1="64317.9" x2="113207" y2="128830" gradientUnits="userSpaceOnUse">
<stop stop-color="#444B8C"/>
<stop offset="1" stop-color="#26264F"/>
</linearGradient>
<linearGradient id="paint31_linear_1_4214" x1="33934.5" y1="80093.3" x2="57871.5" y2="109293" gradientUnits="userSpaceOnUse">
<stop stop-color="#E38DDD"/>
<stop offset="1" stop-color="#9571F6"/>
</linearGradient>
<linearGradient id="paint32_linear_1_4214" x1="38063.9" y1="72894.7" x2="56548" y2="105816" gradientUnits="userSpaceOnUse">
<stop stop-color="#E38DDD"/>
<stop offset="1" stop-color="#9571F6"/>
</linearGradient>
</defs>
</svg>
