<svg width="411" height="406" viewBox="0 0 411 406" fill="none" xmlns="http://www.w3.org/2000/svg">
<path opacity="0.1" d="M97.7642 24.342C84.1056 43.8963 100.12 75.5962 79.8531 90.2991C60.1253 104.619 35.8817 81.1505 17.2951 93.4726C-10.2869 111.755 -5.24896 195.398 35.076 247.367C47.2043 262.988 57.338 269.076 61.8248 286.752C71.4623 324.706 37.5928 347.283 44.0337 366.055C58.5501 408.327 281.74 443.787 371.298 316.768C413.123 257.443 419.382 171.776 382.012 106.712C314.481 -10.8626 128.413 -19.5268 97.7642 24.342Z" fill="#F4F7FA"/>
<path d="M158.697 314.296C141.131 302.738 183.688 198.794 222.06 130.06C253.572 73.6117 290.651 25.8824 301.358 31.3977C309.553 35.6169 299.285 69.4821 306.717 72.187C316.674 75.803 337.626 15.9209 357.989 17.9372C370.535 19.1768 381.376 43.7646 381.782 66.3622C382.514 107.133 349.149 134.135 276.566 204.953C183.552 295.701 167.738 320.247 158.697 314.296Z" fill="url(#paint0_linear_1_3487)"/>
<g style="mix-blend-mode:soft-light" opacity="0.3">
<path d="M188.644 247.126C198.428 217.804 197.585 199.095 215.382 180.137C230.926 163.578 240.528 168.308 258.861 149.166C279.626 127.486 272.365 116.138 289.758 99.3482C313.914 76.0347 337.141 88.9947 357.622 68.0388C364.095 61.4156 370.769 50.9131 374.026 33.3028C378.585 42.5382 381.572 54.7099 381.782 66.358C382.514 107.129 349.149 134.131 276.566 204.949C183.552 295.701 167.738 320.247 158.696 314.299C157.323 313.395 156.317 311.926 155.648 309.96C173.282 285.975 182.95 264.195 188.644 247.126Z" fill="white"/>
</g>
<path opacity="0.2" d="M115.348 379.728C154.226 292.843 198.29 230.724 231.351 190.256C305.744 99.2048 341.955 96.3322 357.841 97.54C379.013 99.1557 406.2 111.243 410.38 131.531C418.201 169.475 342.032 219.318 350.353 233.649C354.656 241.063 375.702 228.832 384.2 238.539C395.817 251.815 373.283 293.911 367.223 304.063C320.373 382.501 165.326 381.514 115.348 379.728Z" fill="#D8DEE8"/>
<g style="mix-blend-mode:soft-light" opacity="0.2">
<path d="M190.313 313.314C225.189 290.953 235.609 293.194 254.335 272.504C288.864 234.355 276.219 201.558 308.22 177.109C331.035 159.678 344.301 171.124 376.321 152.697C389.353 145.195 400.034 135.885 408.735 126.321C409.458 127.997 410.01 129.741 410.383 131.528C418.204 169.472 342.035 219.315 350.356 233.646C354.659 241.06 375.705 228.829 384.202 238.536C395.82 251.812 373.286 293.908 367.226 304.059C320.373 382.501 165.326 381.514 115.348 379.728C116.056 378.137 116.771 376.585 117.483 375.016C145.352 344.863 171.081 325.645 190.313 313.314Z" fill="white"/>
</g>
<path d="M104.712 299.903L106.261 310.336L77.688 343.135L67.7901 343.67L76.3804 317.378C76.3804 317.378 81.7235 313.577 69.264 314.514L27.4492 326.151L27.6575 323.491L76.7898 303.122C76.7898 303.122 93.5264 300.838 104.712 299.903Z" fill="url(#paint1_linear_1_3487)"/>
<path d="M38.9454 310.693C32.2109 310.982 26.7058 306.581 26.7188 300.867L27.1744 94.8452C27.1874 89.1275 32.7128 84.8967 39.4488 85.4116L343.04 108.592C347.738 108.951 351.529 113.092 351.516 117.826L351.049 288.404C351.036 293.135 347.224 297.152 342.526 297.358L38.9454 310.693Z" fill="#97A6B7"/>
<path d="M41.7419 310.731C35.0102 311.02 29.5065 306.62 29.5196 300.908L29.9766 94.9365C29.9882 89.2187 35.5121 84.9894 42.2452 85.5029L345.696 108.673C350.392 109.032 354.182 113.173 354.169 117.906L353.7 288.45C353.687 293.18 349.876 297.195 345.179 297.402L41.7419 310.731Z" fill="url(#paint2_linear_1_3487)"/>
<g style="mix-blend-mode:multiply" opacity="0.3">
<path d="M345.696 112.691L42.2357 90.2946C38.6384 90.0299 35.705 92.2863 35.6993 95.3383L35.342 255.469L35.2422 300.688C35.2422 303.737 38.1567 306.087 41.7511 305.938L345.193 293.386C347.711 293.282 349.751 291.14 349.758 288.601L349.865 249.611L350.228 117.626C350.235 115.086 348.206 112.876 345.696 112.691Z" fill="#D8DEE8"/>
</g>
<path d="M41.7909 288.464C40.3908 288.509 39.2525 287.58 39.2539 286.394L39.6806 95.6207C39.6806 94.4347 40.8262 93.5509 42.2263 93.6521L345.687 115.503C346.169 115.547 346.618 115.768 346.946 116.125C347.274 116.481 347.458 116.946 347.462 117.43L347.028 276.888C347.025 277.367 346.838 277.827 346.506 278.172C346.174 278.517 345.722 278.721 345.243 278.743L41.7909 288.464Z" fill="url(#paint3_linear_1_3487)"/>
<g style="mix-blend-mode:soft-light" opacity="0.6">
<path d="M314.248 284.439C289.214 268.3 306.859 224.056 278.713 200.967C250.201 177.577 209.695 204.438 189.524 180.328C174.459 162.327 192.186 141.581 177.807 124.603C155.188 97.893 96.6484 131.93 69.6623 105.315C65.8221 101.526 61.9471 95.8376 59.7529 86.8379L42.2511 85.5C35.518 84.9865 29.9941 89.2159 29.9825 94.9336L29.5254 300.905C29.5124 306.617 35.0218 311.03 41.7477 310.728L345.188 297.399C349.885 297.192 353.696 293.177 353.709 288.447V285.409C334.042 291.845 322.002 289.439 314.248 284.439Z" fill="white"/>
</g>
<path d="M296.99 299.082L297.463 303.688L323.334 319.47L327.371 316.516L312.029 302.756C312.029 302.756 309.014 301.848 313.53 300.837L328.015 300.765L326.91 299.968L308.235 297.765C308.235 297.765 301.847 298.388 296.99 299.082Z" fill="url(#paint4_linear_1_3487)"/>
<path d="M154.358 44.8985L58.2024 38.1003L57.2681 36.4109L56.8602 36.3819C52.3068 36.0652 48.5996 39.3428 48.5996 43.6821V187.764C48.5996 192.115 52.3025 195.642 56.8558 195.642H58.2184L58.6378 194.788L153.842 192.52C157.999 192.52 161.965 192.3 161.965 188.164V51.1876C161.965 47.0392 158.515 45.1878 154.358 44.8985Z" fill="url(#paint5_linear_1_3487)"/>
<path d="M156.132 43.1645L58.5433 36.3822C53.9914 36.0654 50.2871 39.3358 50.2871 43.6866V187.768C50.2871 192.119 53.9914 195.647 58.5433 195.647H156.132C157.118 195.65 158.095 195.458 159.007 195.083C159.918 194.708 160.747 194.157 161.446 193.462C162.145 192.766 162.699 191.939 163.078 191.029C163.457 190.119 163.652 189.143 163.654 188.157V51.1806C163.648 47.0394 160.289 43.4523 156.132 43.1645Z" fill="url(#paint6_linear_1_3487)"/>
<g style="mix-blend-mode:soft-light">
<path d="M155.375 68.8325L59.3672 63.2854V47.7913L155.375 53.9878V68.8325Z" fill="white"/>
</g>
<g style="mix-blend-mode:soft-light">
<path d="M155.375 151.413L59.3672 149.478V142.647L155.375 144.867V151.413Z" fill="white"/>
</g>
<g style="mix-blend-mode:soft-light">
<path d="M155.375 163.261L59.3672 161.845V155.012L155.375 156.716V163.261Z" fill="white"/>
</g>
<g style="mix-blend-mode:soft-light">
<path d="M155.375 175.109L59.3672 174.211V167.379L155.375 168.564V175.109Z" fill="white"/>
</g>
<path d="M155.375 128.125L59.3672 125.171V69.3173L155.375 74.6112V128.125Z" fill="white"/>
<path d="M124.537 98.911C124.537 107.603 117.343 114.388 108.402 114.062C99.3868 113.734 92.0273 106.312 92.0273 97.4978C92.0273 88.6833 99.3868 81.9024 108.399 82.358C117.34 82.8093 124.537 90.2194 124.537 98.911Z" fill="url(#paint7_linear_1_3487)"/>
<path d="M116.451 97.3793L105.201 90.3091C104.255 89.7161 103.053 90.3221 103.053 91.3954V104.558C103.059 104.807 103.128 105.051 103.254 105.267C103.38 105.482 103.559 105.662 103.774 105.789C103.989 105.917 104.232 105.987 104.482 105.994C104.732 106.002 104.979 105.945 105.201 105.831L116.451 99.7384C117.364 99.2466 117.364 97.9535 116.451 97.3793Z" fill="white"/>
<path d="M336.193 222.801L289.167 219.532C286.972 219.387 285.188 220.955 285.188 223.052V263.771C285.188 265.868 286.972 267.568 289.167 267.568H336.193C337.151 267.568 338.069 267.188 338.747 266.511C339.425 265.834 339.807 264.917 339.809 263.959V226.655C339.793 225.678 339.414 224.742 338.745 224.03C338.077 223.317 337.167 222.879 336.193 222.801Z" fill="url(#paint8_linear_1_3487)"/>
<g style="mix-blend-mode:soft-light">
<path d="M335.828 259.414L289.564 258.98V255.688L335.828 256.26V259.414Z" fill="white"/>
</g>
<path d="M335.828 253.142L289.564 251.719V224.804L335.828 227.355V253.142Z" fill="white"/>
<path d="M322.699 230.765L297.82 229.752C297.618 229.743 297.416 229.773 297.226 229.843C297.036 229.912 296.862 230.018 296.714 230.156C296.567 230.29 296.449 230.454 296.368 230.636C296.287 230.817 296.245 231.014 296.244 231.213L296.068 246.865C296.065 247.131 296.118 247.395 296.222 247.64C296.326 247.885 296.479 248.106 296.673 248.288C297.042 248.643 297.532 248.843 298.043 248.848H298.13L322.554 248.641C323.045 248.626 323.511 248.423 323.856 248.072C324.2 247.722 324.396 247.252 324.403 246.761L324.569 232.746C324.575 232.238 324.384 231.747 324.035 231.377C323.686 231.008 323.207 230.788 322.699 230.765ZM322.801 233.079L313.928 240.776C313.356 241.274 312.619 241.541 311.861 241.526C311.221 241.513 310.6 241.303 310.083 240.926L298.338 232.422C298.291 232.389 298.252 232.347 298.222 232.299C298.191 232.25 298.171 232.196 298.162 232.139C298.152 232.083 298.154 232.025 298.167 231.97C298.181 231.914 298.205 231.861 298.238 231.815C298.31 231.723 298.414 231.662 298.53 231.646C298.646 231.63 298.763 231.659 298.857 231.728L310.591 240.236C310.996 240.535 311.491 240.688 311.994 240.668C312.497 240.649 312.978 240.459 313.359 240.129L322.243 232.434C322.329 232.363 322.439 232.329 322.55 232.338C322.661 232.347 322.764 232.4 322.837 232.484C322.91 232.568 322.947 232.678 322.941 232.789C322.934 232.9 322.884 233.004 322.801 233.079Z" fill="url(#paint9_linear_1_3487)"/>
<path d="M272.165 74.8441L185.491 68.8284C181.441 68.5478 178.212 71.4479 178.28 75.3084L179.601 150.267C179.669 154.126 183.01 157.256 187.049 157.256H273.617C274.487 157.261 275.349 157.093 276.153 156.759C276.956 156.426 277.684 155.936 278.295 155.316C278.906 154.697 279.386 153.961 279.707 153.153C280.029 152.345 280.185 151.48 280.167 150.611L278.958 81.9518C278.893 78.2823 275.856 75.1016 272.165 74.8441Z" fill="#D8DEE8"/>
<path d="M272.479 130.701L187.267 128.08L186.395 78.5337L271.643 83.2302L272.479 130.701Z" fill="white"/>
<path d="M237.094 97.4446C237.001 97.4447 236.912 97.4102 236.843 97.3478C236.775 97.2855 236.732 97.1998 236.723 97.1076C236.396 93.6796 235.277 90.4222 233.576 87.9358C232.067 85.7329 230.271 84.4181 228.771 84.4181C223.305 84.4282 222.162 96.9775 222.15 97.1033C222.14 97.2003 222.092 97.2894 222.017 97.3514C221.941 97.4135 221.845 97.4436 221.748 97.4353C221.65 97.4269 221.56 97.3809 221.497 97.3069C221.433 97.233 221.401 97.137 221.407 97.0397C221.455 96.4943 222.625 83.6833 228.769 83.6718H228.777C230.548 83.6718 232.524 85.0719 234.196 87.5135C235.97 90.1026 237.133 93.4843 237.471 97.0368C237.476 97.0855 237.471 97.1347 237.457 97.1816C237.442 97.2284 237.419 97.272 237.388 97.3097C237.357 97.3475 237.318 97.3787 237.275 97.4016C237.232 97.4246 237.184 97.4387 237.135 97.4432L237.094 97.4446Z" fill="url(#paint10_linear_1_3487)"/>
<path d="M214.324 123.272L221.518 126.914L225.878 113.536L218.699 95.6089L216.663 96.1079L213.572 121.866C213.539 122.149 213.594 122.435 213.728 122.686C213.862 122.938 214.07 123.142 214.324 123.272Z" fill="url(#paint11_linear_1_3487)"/>
<path style="mix-blend-mode:multiply" opacity="0.3" d="M225.879 113.536L218.7 95.6089L217.498 95.8982C217.362 97.8294 217.368 99.7681 217.519 101.698C218 107.804 219.6 109.509 218.82 113.763C218.177 117.305 216.769 117.786 216.892 120.169C217.027 122.764 218.836 124.942 220.989 126.646L221.519 126.915L225.879 113.536Z" fill="url(#paint12_linear_1_3487)"/>
<path d="M218.695 95.6015H245.522L254.402 124.264L221.519 126.914L218.695 95.6015Z" fill="url(#paint13_linear_1_3487)"/>
<path d="M228.051 98.1142C228.051 98.3205 227.989 98.5221 227.875 98.6936C227.76 98.8651 227.597 98.9988 227.407 99.0777C227.216 99.1567 227.007 99.1773 226.804 99.1371C226.602 99.0968 226.416 98.9975 226.27 98.8517C226.124 98.7058 226.025 98.52 225.985 98.3177C225.945 98.1154 225.965 97.9057 226.044 97.7151C226.123 97.5246 226.257 97.3617 226.428 97.2471C226.6 97.1325 226.801 97.0714 227.008 97.0714C227.145 97.0712 227.28 97.098 227.407 97.1503C227.534 97.2027 227.649 97.2795 227.746 97.3764C227.842 97.4733 227.919 97.5883 227.972 97.7149C228.024 97.8415 228.051 97.9772 228.051 98.1142Z" fill="url(#paint14_linear_1_3487)"/>
<path d="M227.008 98.0578C226.923 98.0577 226.842 98.029 226.776 97.9765C226.71 97.924 226.664 97.8507 226.645 97.7685C226.568 97.4445 224.805 89.764 227.291 85.9946C227.618 85.4781 228.051 85.0367 228.561 84.6994C229.07 84.3621 229.646 84.1365 230.249 84.0376C236.673 82.9065 240.628 96.7054 240.793 97.2927C240.82 97.3886 240.808 97.4912 240.759 97.578C240.71 97.6648 240.629 97.7287 240.533 97.7555C240.437 97.7824 240.334 97.77 240.248 97.7212C240.161 97.6724 240.097 97.5911 240.07 97.4951C240.033 97.3577 236.139 83.7541 230.379 84.7738C229.876 84.8546 229.396 85.0425 228.972 85.3247C228.548 85.6069 228.189 85.9769 227.92 86.4097C225.606 89.913 227.361 97.527 227.378 97.6036C227.4 97.6999 227.384 97.8012 227.332 97.8853C227.28 97.9694 227.196 98.0293 227.1 98.052C227.07 98.0573 227.039 98.0592 227.008 98.0578Z" fill="url(#paint15_linear_1_3487)"/>
<g style="mix-blend-mode:multiply" opacity="0.3">
<path style="mix-blend-mode:multiply" opacity="0.3" d="M245.523 95.6089H232.216C231.559 96.2771 231.094 97.0466 231.049 97.9087C230.84 101.959 240.161 103.297 241.062 108.855C241.71 112.865 237.72 117.49 234.158 119.559C230.406 121.729 227.865 120.631 225.335 123.042C224.22 124.101 223.542 125.426 223.137 126.803L254.411 124.283L245.523 95.6089Z" fill="url(#paint16_linear_1_3487)"/>
</g>
<path d="M241.652 98.0172C241.652 98.2235 241.591 98.4251 241.476 98.5966C241.362 98.7681 241.199 98.9018 241.008 98.9807C240.818 99.0597 240.608 99.0803 240.406 99.0401C240.204 98.9998 240.018 98.9005 239.872 98.7547C239.726 98.6088 239.627 98.423 239.586 98.2207C239.546 98.0184 239.567 97.8087 239.646 97.6182C239.725 97.4276 239.858 97.2647 240.03 97.1501C240.201 97.0355 240.403 96.9744 240.609 96.9744C240.886 96.9744 241.151 97.0842 241.347 97.2798C241.542 97.4754 241.652 97.7407 241.652 98.0172Z" fill="url(#paint17_linear_1_3487)"/>
<path d="M56.5649 199.536L131.694 200.285C134.896 200.317 137.52 203.054 137.563 206.398L138.404 271.435C138.447 274.788 135.89 277.522 132.682 277.542L57.4559 278.003C55.7646 278.008 54.14 277.345 52.9356 276.157C51.7312 274.97 51.0445 273.355 51.0251 271.664L50.2859 205.832C50.2727 205.003 50.426 204.18 50.7366 203.411C51.0472 202.643 51.509 201.944 52.0944 201.357C52.6799 200.77 53.3772 200.306 54.1451 199.994C54.913 199.681 55.7358 199.525 56.5649 199.536Z" fill="#D8DEE8"/>
<path d="M57.8045 252.708L131.773 252.012L131.219 208.709L57.291 207.555L57.8045 252.708Z" fill="white"/>
<path d="M103.14 237.988C104.392 235.959 105.157 233.667 105.375 231.293C105.5 229.657 105.215 228.017 104.544 226.52C103.473 224.04 101.542 222.572 99.6771 221.155C98.2857 220.096 96.9709 219.096 96.0611 217.725L95.8991 217.479C95.361 216.674 94.7535 215.761 94.6768 215.02C94.6392 214.662 94.4711 214.33 94.2043 214.087C93.9376 213.844 93.591 213.708 93.2304 213.704C92.8746 213.711 92.5354 213.856 92.2846 214.108C92.0338 214.361 91.8911 214.701 91.8867 215.057L91.0882 240.586C89.8596 239.742 88.4224 239.253 86.9341 239.171C83.0852 238.952 79.8698 241.341 79.77 244.503C79.6702 247.665 82.7264 250.413 86.5768 250.633C90.4272 250.853 93.6426 248.463 93.741 245.301L94.2617 228.602C96.3344 229.545 99.7032 231.835 100.494 236.78C100.322 237.042 100.134 237.293 99.9317 237.533C99.6769 237.812 99.5409 238.18 99.5525 238.558C99.5641 238.936 99.7224 239.294 99.9939 239.558C100.123 239.69 100.278 239.794 100.45 239.865C100.621 239.935 100.804 239.97 100.989 239.968C101.175 239.965 101.357 239.925 101.526 239.849C101.695 239.774 101.847 239.665 101.973 239.529C102.371 239.087 102.729 238.612 103.044 238.108C103.08 238.071 103.112 238.031 103.14 237.988Z" fill="url(#paint18_linear_1_3487)"/>
<path d="M298.254 158.605L159.767 151.356L158.649 149.331L158.159 149.296C152.705 148.917 148.265 152.835 148.265 158.05L145.416 268.547C145.416 273.761 149.855 277.988 155.311 277.988H156.938L157.443 276.964L294.783 270.813C299.764 270.813 304.517 270.55 304.517 265.593L307.367 166.127C307.367 161.17 303.234 158.951 298.254 158.605Z" fill="#D8DEE8"/>
<path d="M297.53 274.568C298.711 274.571 299.88 274.341 300.971 273.892C302.063 273.442 303.055 272.783 303.891 271.95C304.728 271.117 305.392 270.128 305.846 269.038C306.3 267.949 306.535 266.781 306.537 265.6L309.391 166.127C309.391 161.17 305.367 156.869 300.386 156.525L160.181 149.293C154.726 148.914 150.287 152.833 150.287 158.047L147.438 268.544C147.438 273.758 151.877 277.985 157.333 277.985L297.53 274.568Z" fill="white"/>
<path d="M296.195 263.133L160.23 266.559C158.104 266.613 156.436 264.771 156.51 262.447L159.665 162.578C159.739 160.254 161.522 158.442 163.642 158.529L299.317 164.282C301.089 164.358 302.468 166.135 302.401 168.251L299.532 259.217C299.461 261.335 297.965 263.088 296.195 263.133Z" fill="#D8DEE8"/>
<g style="mix-blend-mode:soft-light" opacity="0.48">
<path d="M266.935 237.701C255.508 230.541 246.091 238.502 237.519 229.815C232.322 224.55 235.069 220.931 228.716 213.127C221.679 204.483 216.841 207.052 209.743 199.241C200.775 189.359 205.635 182.224 197.862 175.067C188.432 166.389 177.742 173.518 168.767 165.195C164.895 161.605 162.869 156.554 161.894 151.237L152.87 150.818C151.287 150.744 149.961 152.04 149.909 153.711L146.193 271.959C146.141 273.631 147.385 274.949 148.97 274.904L303.191 270.52C303.948 270.498 304.638 270.064 305.083 269.408C293.834 268.45 287.04 264.137 282.747 259.806C274.348 251.33 276.098 243.441 266.935 237.701Z" fill="white"/>
</g>
<path d="M305.237 146.089L304.741 142.116C304.741 142.116 300.739 137.936 300.836 135.937C300.938 133.783 301.093 130.812 302.398 130.52C303.974 130.167 306.332 133.812 307.353 136.625C307.926 138.216 308.21 139.896 308.191 141.587L309.637 146.888L305.237 146.089Z" fill="white"/>
<path d="M302.423 141.209C302.423 141.209 300.119 139.63 299.74 136.761C299.361 133.893 300.449 136.835 302.633 138.046L304.812 139.258C304.812 139.258 307.143 140.451 306.641 141.351C306.139 142.25 302.423 141.209 302.423 141.209Z" fill="white"/>
<path d="M302.528 147.089C304.755 144.679 306.896 143.711 308.85 143.565C317.517 142.92 327.936 158.029 328.647 172.001C328.698 173.001 329.29 188.611 317.378 198.582C299.995 213.134 268.252 205.413 262.871 192.705C261.099 188.51 261.595 182.386 261.682 181.317C262.109 176.193 263.779 171.25 266.548 166.918C280.279 171.053 297.267 173.628 302.453 167.002C306.316 162.064 307.919 154.811 302.528 147.089Z" fill="url(#paint19_linear_1_3487)"/>
<path d="M189.811 167.016C216.733 159.331 245.338 159.867 271.953 168.555C272.9 174.908 273.847 181.261 274.794 187.615C274.878 195.952 274.492 204.287 273.637 212.58C272.598 222.656 271.887 222.776 269.787 236.97C266.363 260.113 267.299 266.241 262.459 268.814C259.311 270.489 258.25 270.246 242.527 267.974C231.984 266.451 227.529 266.069 222.118 267.604C214.748 269.692 211.27 271.302 208.3 269.837C205.455 268.43 205.241 263.512 205.162 254.95C205.039 241.743 205.352 232.785 205.404 229.576C205.639 214.85 202.205 203.437 197.808 188.822C195.575 181.402 192.905 174.12 189.811 167.016Z" fill="url(#paint20_linear_1_3487)"/>
<path d="M239.565 147.505C239.351 150.395 238.84 153.254 238.042 156.039C237.391 158.29 237.013 158.851 236.555 159.291C235.865 159.952 234.861 160.465 229.373 161.242C226.386 161.666 226.012 161.609 225.922 161.887C225.488 163.248 233.057 168.787 241.399 168.461C246.503 168.262 251.335 165.888 251.181 164.374C251.028 162.859 245.919 163.153 244.649 160.297C243.767 158.313 245.167 155.757 246.741 153.682C245.611 151.085 240.695 150.107 239.565 147.505Z" fill="url(#paint21_linear_1_3487)"/>
<path d="M249.652 151.007C251.284 149.918 252.221 147.365 251.463 145.291C250.809 143.506 249.107 142.703 248.087 142.222C245.134 140.827 240.835 140.762 238.555 143.071C237.204 144.439 237.784 148.437 237.848 149.146C237.922 149.943 238.396 150.371 238.733 151.069C239.202 152.038 239.926 153.573 241.095 156.132C241.503 155.491 241.967 154.888 242.481 154.328C243.151 153.599 243.913 152.961 244.747 152.428C246.997 151.051 248.11 152.037 249.652 151.007Z" fill="url(#paint22_linear_1_3487)"/>
<path d="M239.052 153.611C239.052 153.611 239.979 157.542 244.085 158.656C247.761 159.654 250.95 151.93 249.216 149.468C248.637 148.648 247.181 147.892 245.815 147.809C245.009 147.76 244.658 147.975 243.343 147.87C242.13 147.773 241.855 147.543 241.424 147.706C240.884 147.91 240.288 148.658 240.215 151.208C239.757 150.294 239.021 149.752 238.346 149.823C238.113 149.859 237.894 149.959 237.714 150.112C236.905 150.848 237.358 152.287 239.052 153.611Z" fill="url(#paint23_linear_1_3487)"/>
<path d="M241.422 147.178C241.552 147.364 240.809 147.818 240.466 148.701C239.802 150.417 240.9 153.123 242.676 153.926C243.728 154.4 244.241 153.862 246.1 154.288C247.005 154.499 247.872 154.85 248.669 155.329C248.589 157.432 247.418 159.156 245.815 159.596C244.091 160.069 242.488 158.873 241.823 158.382C241.376 158.05 239.942 156.988 239.588 155.258C239.219 153.456 240.384 152.841 239.721 151.482C239.388 150.796 238.797 150.346 238.484 149.133C238.416 148.872 238.368 148.606 238.34 148.338C239.598 147.692 241.233 146.909 241.422 147.178Z" fill="url(#paint24_linear_1_3487)"/>
<path d="M247.123 155.592C247.123 155.592 246.212 155.724 244.894 155.193C244.829 155.167 244.749 155.161 244.732 155.193C244.658 155.307 245.332 156.161 246.2 156.206C246.816 156.242 247.431 155.869 247.399 155.71C247.386 155.649 247.256 155.613 247.123 155.592Z" fill="url(#paint25_linear_1_3487)"/>
<path d="M198.478 229.259L202.291 229.227C202.291 229.227 206.568 225.987 208.46 226.29C210.351 226.592 213.149 228.025 213.486 228.315C213.823 228.604 212.391 230.06 211.011 229.848C209.631 229.635 206.517 230.227 205.927 231.403C205.337 232.579 202.915 233.191 202.529 232.467L197.383 233.228L198.478 229.259Z" fill="white"/>
<path d="M199.669 228.008C199.84 231.093 199.09 233.148 197.914 234.527C192.684 240.635 175.67 237.246 165.776 228.277C158.453 221.639 154.783 211.688 155.2 202.946C156.023 185.885 172.628 169.903 196.727 165.237C199.94 175.816 203.153 186.396 206.366 196.975C191.612 196.51 185.194 206.638 186.278 214.508C187.085 220.372 190.928 226.32 199.669 228.008Z" fill="url(#paint26_linear_1_3487)"/>
<path style="mix-blend-mode:multiply" opacity="0.3" d="M256.566 260.891C248.911 257.275 249.169 250.535 242.012 247.384C231.8 242.889 220.085 251.683 218.383 249.014C216.612 246.237 230.513 238.62 228.953 230.399C227.715 223.864 218.156 224.567 213.332 215.477C208.757 206.855 213.692 199.309 209.499 196.191C207.996 195.073 205.304 194.533 200.09 196.521C203.327 207.699 205.586 217.529 205.4 229.576C205.348 232.785 205.034 241.743 205.157 254.951C205.236 263.512 205.446 268.43 208.295 269.837C211.262 271.302 214.744 269.693 222.113 267.604C227.524 266.069 231.992 264.448 242.534 265.971C258.257 268.243 259.312 270.489 262.454 268.815C264.504 267.725 265.516 265.99 266.264 262.595C263.095 262.789 259.748 262.395 256.566 260.891Z" fill="url(#paint27_linear_1_3487)"/>
<path d="M258.08 249.653C258.08 257.227 251.811 263.137 244.02 262.854C236.168 262.564 229.756 256.106 229.756 248.422C229.756 240.739 236.168 234.826 244.02 235.23C251.811 235.623 258.08 242.086 258.08 249.653Z" fill="#F4F7FA"/>
<path d="M236.116 252.049C236.228 252.107 236.534 252.049 237.03 251.887C237.174 251.849 237.37 251.792 237.624 251.716C237.879 251.641 238.112 251.572 238.321 251.515C238.531 251.459 238.732 251.402 238.92 251.355C238.953 251.355 239.055 251.333 239.223 251.303C239.359 251.279 239.494 251.246 239.626 251.203C239.72 251.174 239.806 251.124 239.878 251.058C239.972 250.963 240.022 250.778 240.022 250.501C240.029 250.224 240.013 249.947 239.973 249.673C239.933 249.403 239.912 249.131 239.908 248.858C239.908 248.591 239.947 248.416 240.032 248.33C240.09 248.279 240.156 248.237 240.228 248.206C240.315 248.165 240.384 248.138 240.433 248.121C240.482 248.103 240.578 248.082 240.702 248.051L240.918 247.998C242.807 247.421 244.825 247.421 246.714 247.998L246.93 248.051C247.061 248.082 247.15 248.105 247.2 248.122C247.249 248.139 247.318 248.167 247.405 248.206C247.476 248.237 247.542 248.279 247.6 248.33C247.684 248.416 247.726 248.591 247.723 248.858C247.721 249.131 247.7 249.403 247.659 249.673C247.619 249.947 247.603 250.224 247.61 250.501C247.61 250.778 247.668 250.963 247.755 251.058C247.827 251.124 247.913 251.174 248.007 251.203C248.139 251.246 248.273 251.279 248.41 251.303C248.578 251.333 248.679 251.35 248.712 251.355C248.901 251.402 249.1 251.456 249.31 251.515C249.52 251.575 249.754 251.641 250.008 251.716C250.263 251.792 250.461 251.849 250.603 251.887C251.099 252.052 251.404 252.107 251.517 252.049C251.582 252.018 251.64 251.975 251.688 251.922C251.853 251.748 251.998 251.557 252.122 251.352C252.252 251.151 252.365 250.939 252.459 250.718C252.595 250.383 252.557 249.844 252.344 249.103C252.134 248.295 251.657 247.582 250.992 247.078C250.834 246.96 250.668 246.854 250.496 246.758C250.302 246.65 250.156 246.571 250.062 246.525C249.968 246.479 249.784 246.395 249.524 246.276C249.264 246.158 249.106 246.085 249.049 246.058C248.465 245.776 247.852 245.557 247.221 245.406C244.979 244.943 242.666 244.943 240.423 245.406C239.792 245.557 239.179 245.775 238.595 246.057C238.538 246.085 238.379 246.159 238.12 246.276C237.861 246.394 237.686 246.477 237.581 246.525C237.475 246.573 237.336 246.65 237.147 246.758C236.975 246.853 236.809 246.959 236.651 247.076C236.511 247.183 236.378 247.299 236.253 247.423C235.799 247.894 235.47 248.472 235.297 249.103C235.085 249.844 235.047 250.383 235.184 250.718C235.277 250.94 235.39 251.152 235.521 251.353C235.645 251.558 235.79 251.749 235.955 251.923C236 251.975 236.055 252.017 236.116 252.049Z" fill="url(#paint28_linear_1_3487)"/>
<path d="M225.469 249.276C225.469 256.849 219.2 262.761 211.409 262.478C203.557 262.188 197.145 255.73 197.145 248.045C197.145 240.36 203.557 234.448 211.409 234.853C219.2 235.247 225.469 241.698 225.469 249.276Z" fill="url(#paint29_linear_1_3487)"/>
<path d="M206.35 250.117C207.161 249.306 207.161 247.991 206.35 247.18C205.538 246.369 204.223 246.369 203.412 247.18C202.601 247.991 202.601 249.306 203.412 250.117C204.223 250.929 205.538 250.929 206.35 250.117Z" fill="#F4F7FA"/>
<path d="M211.153 250.847C212.3 250.847 213.23 249.917 213.23 248.77C213.23 247.623 212.3 246.693 211.153 246.693C210.006 246.693 209.076 247.623 209.076 248.77C209.076 249.917 210.006 250.847 211.153 250.847Z" fill="#F4F7FA"/>
<path d="M217.427 250.847C218.574 250.847 219.504 249.917 219.504 248.77C219.504 247.623 218.574 246.693 217.427 246.693C216.28 246.693 215.35 247.623 215.35 248.77C215.35 249.917 216.28 250.847 217.427 250.847Z" fill="#F4F7FA"/>
<path d="M105.601 343.641C146.007 331.503 187.666 328.957 228.072 316.819C229.857 316.284 231.713 316.017 233.577 316.026C237.627 316.045 245.069 316.428 252.32 318.63C255.668 319.642 257.849 316.476 260.648 317.432C260.937 317.532 262.732 318.17 263.516 319.717C264.406 321.469 263.661 323.699 261.572 325.35C237.947 336.209 213.183 346.937 187.278 357.534C176.438 361.952 165.692 366.215 155.04 370.324C152.489 371.991 145.858 375.82 136.874 375.631C128.471 375.451 122.73 371.854 117.468 368.556C112.839 365.663 107.978 362.601 105.595 357.069C103.698 352.655 101.028 345.014 105.601 343.641Z" fill="url(#paint30_linear_1_3487)"/>
<path d="M103.395 343.93L226.82 310.164C228.238 309.775 229.705 309.6 231.174 309.643C234.978 309.757 242.766 310.327 250.345 312.942C255.655 314.775 259.565 316.188 262.139 317.137C263.654 317.698 263.675 319.451 262.173 320.03C224.25 334.602 184.065 349.174 146.303 363.746C143.448 364.823 140.32 364.938 137.393 364.073C131.632 362.375 124.575 359.694 117.353 355.395C112.214 352.356 107.451 348.721 103.165 344.564C102.942 344.347 103.067 344.02 103.395 343.93Z" fill="white"/>
<path d="M138.776 340.2V341.661C138.782 341.742 138.765 341.823 138.726 341.895C138.582 342.193 138.12 342.481 137.384 342.694L133.644 343.776C132.168 344.21 130.191 344.159 129.222 343.68L125.305 341.735C124.912 341.544 124.757 341.301 124.82 341.064L124.81 339.7L126.03 340.216C126.127 340.184 126.226 340.152 126.333 340.126L130.036 339.13C131.454 338.751 133.308 338.794 134.245 339.225L137.811 340.877L138.125 340.2H138.776Z" fill="white"/>
<path d="M149.603 346.819C149.603 346.797 149.603 346.776 149.603 346.754V345.293H149.16L148.366 345.77L144.485 343.972C143.439 343.488 141.439 343.446 139.987 343.877L136.242 344.988C136.154 345.014 136.07 345.041 135.989 345.07V344.51L134.807 344.684L134.797 346.073C134.797 346.308 134.988 346.537 135.375 346.728L139.786 348.913C140.875 349.454 143.015 349.492 144.531 349.012L148.292 347.8C149.109 347.538 149.555 347.175 149.594 346.818L149.603 346.819Z" fill="white"/>
<path d="M162.593 342.629L162.561 341.362L161.847 340.928L161.196 341.642L157.482 340.074C156.407 339.621 154.444 339.585 153.077 339.993L149.908 340.933L149.849 340.952L149.759 340.332L148.622 340.476V341.824C148.582 342.086 148.787 342.348 149.26 342.561L153.618 344.512C154.739 345.014 156.829 345.051 158.247 344.594L161.42 343.573C162.217 343.324 162.612 342.971 162.593 342.629Z" fill="white"/>
<path d="M151.689 337.886V336.669L150.943 336.525L150.418 337.103L147.162 335.731C146.196 335.323 144.375 335.286 143.032 335.647L140.063 336.439L140.17 336.295L139.591 335.61L138.514 335.926L138.55 337.271C138.44 337.533 138.6 337.798 139.071 338.009L142.959 339.744C143.962 340.194 145.899 340.233 147.298 339.83L150.464 338.914C151.38 338.644 151.809 338.249 151.689 337.886Z" fill="white"/>
<path d="M160.74 351.494C159.084 350.59 156.912 349.674 155.857 349.242C154.684 348.698 152.522 348.663 151.035 349.149L147.264 350.395L145.915 350.05C145.873 350.296 145.77 350.975 145.915 351.531C145.94 351.677 146 351.813 146.091 351.929C146.233 352.081 146.404 352.203 146.593 352.289L151.605 354.774C152.837 355.385 155.159 355.428 156.708 354.87L160.484 353.504C160.642 353.444 161.707 353.013 161.695 352.424V350.966L160.74 351.494Z" fill="white"/>
<path d="M174.663 347.695L174.679 346.376L173.391 346.785L168.883 344.885C167.683 344.379 165.573 344.344 164.175 344.805L160.993 345.854V345.142L159.801 345.421V346.79C159.771 347.079 160.011 347.38 160.545 347.62L165.473 349.826C166.733 350.39 168.992 350.426 170.437 349.905L173.605 348.761C174.218 348.538 174.568 348.252 174.652 347.958C174.679 347.873 174.683 347.782 174.663 347.695Z" fill="white"/>
<path d="M174.31 337.483H173.188L172.852 337.953L169.236 336.55C168.138 336.125 166.219 336.093 164.917 336.48L162.488 337.203L162.299 336.721H161.101V338.082C161.066 338.341 161.291 338.6 161.798 338.805L166.074 340.554C167.221 341.023 169.265 341.056 170.604 340.624L173.256 339.772C173.918 339.559 174.268 339.273 174.301 338.986L174.31 337.483Z" fill="white"/>
<path d="M186.336 343.655V342.196L184.871 342.315L184.76 342.575L180.604 340.962C179.383 340.489 177.319 340.459 176.001 340.896L173.694 341.658L172.281 341.18V342.659C172.291 342.931 172.556 343.203 173.091 343.421L177.905 345.39C179.187 345.915 181.391 345.945 182.745 345.456L185.377 344.504C186.033 344.276 186.346 343.961 186.336 343.655Z" fill="white"/>
<path d="M163.433 333.266H162.099L161.919 333.713L158.897 332.54C157.906 332.155 156.117 332.123 154.847 332.466L152.363 333.133C152.343 332.939 152.301 332.789 152.219 332.789C151.984 332.789 150.953 332.589 150.953 332.589L150.97 333.93C150.902 334.173 151.091 334.419 151.566 334.614L155.397 336.181C156.429 336.603 158.328 336.636 159.648 336.254L162.305 335.485C163.047 335.271 163.421 334.97 163.429 334.675H163.443L163.433 333.266Z" fill="white"/>
<path d="M174.112 330.267H172.82L172.564 330.701L169.517 329.605C168.504 329.242 166.747 329.213 165.527 329.54L163.774 330.011C163.79 329.906 163.787 329.832 163.745 329.832C163.601 329.832 162.154 329.447 162.154 329.447V330.894H162.167C162.157 331.111 162.36 331.328 162.817 331.498L166.664 332.945C167.719 333.343 169.582 333.372 170.836 333.009L173.068 332.362C173.791 332.151 174.135 331.856 174.089 331.566H174.1L174.112 330.267Z" fill="white"/>
<path d="M214.161 332.376L214.173 331.245L213.532 330.936L213.489 331.08C212.262 329.696 209.418 328.211 205.313 326.957C197.461 324.559 187.564 323.812 182.723 325.205C182.062 325.377 181.432 325.653 180.857 326.022L180.785 325.733L179.959 325.912V327.375C179.878 328.917 182.386 330.837 187.265 332.53C195.424 335.359 206.664 336.36 211.785 334.647C213.292 334.144 214.05 333.473 214.154 332.713V332.699C214.169 332.592 214.172 332.484 214.161 332.376ZM202.361 331.59C200.365 332.225 196.085 331.863 192.889 330.798C189.766 329.757 188.898 328.445 190.864 327.853C192.829 327.262 196.884 327.59 200.032 328.588C203.258 329.609 204.337 330.96 202.355 331.59H202.361Z" fill="white"/>
<path d="M184.931 335.527H184.941V334.063H183.361C183.317 334.063 183.204 334.32 183.129 334.497L179.925 333.34C178.809 332.937 176.925 332.906 175.687 333.277L174.174 333.727L174.112 333.438L172.408 333.266V334.75H172.423C172.441 334.98 172.677 335.208 173.166 335.394L177.339 336.969C178.506 337.403 180.507 337.436 181.777 337.028L183.994 336.315C184.658 336.105 184.965 335.814 184.931 335.527Z" fill="white"/>
<path d="M196.757 338.473L195.567 338.568L195.422 338.92L191.227 337.41C189.991 336.966 187.97 336.941 186.72 337.353L185.013 337.918C184.914 337.819 184.817 337.734 184.775 337.734C184.675 337.734 183.55 337.484 183.55 337.484V338.813C183.505 339.102 183.784 339.406 184.407 339.64L188.972 341.364C190.274 341.853 192.419 341.878 193.695 341.418L195.888 340.627C196.445 340.426 196.718 340.167 196.738 339.903H196.751L196.757 338.473Z" fill="white"/>
<path d="M208.677 319.989L203.425 321.531L203.164 321.122H201.395L201.415 322.448C201.305 322.766 201.678 323.103 202.537 323.358L204.662 323.986C206.175 324.432 208.557 324.454 209.956 324.027L216.272 322.099V320.64L208.677 319.989Z" fill="white"/>
<path d="M224.783 319.191V319.136L224.76 317.793C224.76 317.793 223.425 317.87 223.347 317.793C223.269 317.717 223.057 318.083 222.991 318.198L221.323 317.764C219.826 317.377 217.587 317.371 216.304 317.747L210.275 318.058V319.516L217.881 321.605L223.943 319.756C224.462 319.597 224.732 319.397 224.774 319.189L224.783 319.191Z" fill="white"/>
<path d="M238.391 322.743L238.375 321.353L236.35 320.865L236.419 321.677L234.539 321.189C232.909 320.767 230.556 320.756 229.262 321.162L223.188 321.608V323.067L231.493 325.35L237.595 323.353C238.117 323.183 238.373 322.967 238.388 322.743H238.391Z" fill="white"/>
<path d="M221.575 323.566L217.453 324.859L217.527 324.657L216.063 324.091L214.298 324.959L214.273 326.358C214.327 326.662 214.768 326.971 215.585 327.213L217.918 327.903C219.576 328.393 222.08 328.417 223.492 327.956L229.866 325.872V324.412L221.575 323.566Z" fill="white"/>
<path d="M251.289 319.834L251.244 318.533L250.93 318.141L250.062 318.667V318.913C249.845 318.839 249.602 318.768 249.331 318.703C247.491 318.269 245.016 318.207 243.439 318.54L243.15 317.95H242.013V319.319C242.009 319.35 242.009 319.38 242.013 319.411C242.048 319.784 242.684 320.179 243.876 320.475C245.96 320.994 248.908 321.012 250.424 320.51C251.003 320.32 251.276 320.086 251.292 319.84L251.289 319.834Z" fill="white"/>
<path d="M205.314 325.499C197.461 323.099 187.565 322.354 182.723 323.747C177.766 325.173 179.577 328.407 187.267 331.075C195.426 333.905 206.666 334.906 211.788 333.194C216.774 331.522 213.623 328.037 205.314 325.499ZM192.889 329.337C189.766 328.297 188.898 326.986 190.864 326.394C192.83 325.802 196.884 326.131 200.033 327.129C203.252 328.15 204.332 329.499 202.356 330.13C200.38 330.761 196.085 330.403 192.889 329.337Z" fill="url(#paint31_linear_1_3487)"/>
<path d="M250.421 319.046C248.905 319.548 245.957 319.53 243.873 319.011C241.813 318.498 241.4 317.694 242.913 317.211C244.426 316.727 247.271 316.745 249.332 317.239C251.419 317.74 251.923 318.55 250.421 319.046Z" fill="url(#paint32_linear_1_3487)"/>
<path d="M223.941 318.301L217.879 320.15L210.273 318.061L216.302 316.291C217.585 315.913 219.824 315.921 221.321 316.308L223.477 316.865C225.01 317.263 225.228 317.908 223.941 318.301Z" fill="url(#paint33_linear_1_3487)"/>
<path d="M208.678 318.528L216.273 320.64L209.955 322.567C208.558 322.993 206.176 322.973 204.661 322.526L202.538 321.897C201.063 321.463 201.011 320.78 202.393 320.372L208.678 318.528Z" fill="url(#paint34_linear_1_3487)"/>
<path d="M237.593 321.894L231.49 323.89L223.184 321.607L229.259 319.702C230.552 319.297 232.905 319.308 234.535 319.73L236.893 320.34C238.572 320.773 238.889 321.47 237.593 321.894Z" fill="url(#paint35_linear_1_3487)"/>
<path d="M221.576 322.12L229.874 324.425L223.5 326.51C222.088 326.971 219.584 326.944 217.927 326.456L215.594 325.766C213.979 325.289 213.829 324.548 215.233 324.109L221.576 322.12Z" fill="url(#paint36_linear_1_3487)"/>
<path d="M169.522 328.141L173.379 329.528C174.467 329.92 174.34 330.541 173.078 330.905L170.847 331.552C169.593 331.914 167.73 331.885 166.675 331.487L162.828 330.04C161.78 329.644 161.999 329.028 163.298 328.681L165.533 328.08C166.748 327.749 168.509 327.777 169.522 328.141Z" fill="url(#paint37_linear_1_3487)"/>
<path d="M179.926 331.886L184.103 333.387C185.26 333.805 185.224 334.463 183.993 334.86L181.775 335.573C180.506 335.981 178.505 335.953 177.338 335.514L173.165 333.938C172.045 333.516 172.184 332.864 173.454 332.485L175.683 331.824C176.926 331.456 178.81 331.484 179.926 331.886Z" fill="url(#paint38_linear_1_3487)"/>
<path d="M195.892 339.169L193.7 339.96C192.424 340.42 190.274 340.394 188.977 339.905L184.419 338.182C183.22 337.729 183.262 337.037 184.515 336.626L186.728 335.894C187.977 335.48 189.998 335.506 191.235 335.95L195.794 337.591C197.034 338.039 197.087 338.738 195.892 339.169Z" fill="url(#paint39_linear_1_3487)"/>
<path d="M158.897 331.087L162.744 332.58C163.813 332.995 163.612 333.649 162.295 334.026L159.637 334.796C158.318 335.176 156.419 335.143 155.386 334.721L151.556 333.154C150.532 332.736 150.824 332.087 152.187 331.721L154.84 331.008C156.117 330.664 157.906 330.695 158.897 331.087Z" fill="url(#paint40_linear_1_3487)"/>
<path d="M173.26 338.311L170.609 339.164C169.27 339.598 167.226 339.564 166.079 339.095L161.803 337.345C160.705 336.896 160.918 336.206 162.26 335.809L164.916 335.02C166.218 334.634 168.137 334.665 169.235 335.091L173.522 336.753C174.668 337.199 174.559 337.894 173.26 338.311Z" fill="url(#paint41_linear_1_3487)"/>
<path d="M185.385 343.05L182.752 344.001C181.398 344.49 179.195 344.46 177.912 343.935L173.099 341.966C171.917 341.483 172.04 340.747 173.356 340.311L176.006 339.435C177.324 339.001 179.388 339.03 180.608 339.503L185.425 341.372C186.659 341.851 186.649 342.593 185.385 343.05Z" fill="url(#paint42_linear_1_3487)"/>
<path d="M147.161 334.27L151.078 335.921C152.122 336.363 151.849 337.054 150.453 337.459L147.286 338.375C145.894 338.778 143.96 338.739 142.947 338.289L139.059 336.554C138.064 336.108 138.442 335.421 139.875 335.036L143.025 334.19C144.373 333.817 146.194 333.855 147.161 334.27Z" fill="url(#paint43_linear_1_3487)"/>
<path d="M157.481 338.609L161.863 340.457C162.987 340.932 162.8 341.671 161.429 342.113L158.255 343.135C156.833 343.592 154.743 343.554 153.627 343.051L149.269 341.101C148.198 340.621 148.496 339.889 149.915 339.466L153.084 338.526C154.448 338.126 156.407 338.162 157.481 338.609Z" fill="url(#paint44_linear_1_3487)"/>
<path d="M173.613 347.302L170.445 348.446C168.999 348.968 166.741 348.932 165.481 348.366L160.555 346.161C159.397 345.643 159.604 344.859 161.003 344.395L164.185 343.346C165.582 342.883 167.693 342.912 168.893 343.424L173.836 345.51C175.045 346.023 174.958 346.816 173.613 347.302Z" fill="url(#paint45_linear_1_3487)"/>
<path d="M134.24 337.764L138.203 339.601C139.216 340.071 138.854 340.807 137.379 341.234L133.641 342.316C132.164 342.743 130.187 342.699 129.217 342.218L125.3 340.275C124.341 339.801 124.815 339.07 126.33 338.664L130.034 337.669C131.45 337.288 133.304 337.33 134.24 337.764Z" fill="url(#paint46_linear_1_3487)"/>
<path d="M144.486 342.514L148.937 344.578C150.035 345.086 149.757 345.88 148.296 346.346L144.535 347.557C143.019 348.044 140.879 348.001 139.79 347.46L135.379 345.274C134.342 344.759 134.74 343.972 136.247 343.538L139.992 342.428C141.44 341.986 143.44 342.027 144.486 342.514Z" fill="url(#paint47_linear_1_3487)"/>
<path d="M160.481 352.045L156.705 353.41C155.156 353.969 152.834 353.925 151.602 353.315L146.59 350.83C145.463 350.272 145.771 349.428 147.264 348.935L151.035 347.688C152.522 347.198 154.684 347.238 155.857 347.782L160.902 350.121C162.097 350.674 161.919 351.526 160.481 352.045Z" fill="url(#paint48_linear_1_3487)"/>
<defs>
<linearGradient id="paint0_linear_1_3487" x1="312.887" y1="3.78056" x2="203.854" y2="432.198" gradientUnits="userSpaceOnUse">
<stop stop-color="#FF9085"/>
<stop offset="1" stop-color="#FB6FBB"/>
</linearGradient>
<linearGradient id="paint1_linear_1_3487" x1="27.4492" y1="321.786" x2="106.261" y2="321.786" gradientUnits="userSpaceOnUse">
<stop stop-color="#444B8C"/>
<stop offset="1" stop-color="#26264F"/>
</linearGradient>
<linearGradient id="paint2_linear_1_3487" x1="66287.2" y1="308631" x2="794966" y2="308631" gradientUnits="userSpaceOnUse">
<stop stop-color="#444B8C"/>
<stop offset="1" stop-color="#26264F"/>
</linearGradient>
<linearGradient id="paint3_linear_1_3487" x1="347.456" y1="191.055" x2="39.2553" y2="191.055" gradientUnits="userSpaceOnUse">
<stop stop-color="#FFC444"/>
<stop offset="1" stop-color="#F36F56"/>
</linearGradient>
<linearGradient id="paint4_linear_1_3487" x1="63998.2" y1="46608.8" x2="70652.6" y2="46608.8" gradientUnits="userSpaceOnUse">
<stop stop-color="#444B8C"/>
<stop offset="1" stop-color="#26264F"/>
</linearGradient>
<linearGradient id="paint5_linear_1_3487" x1="143.97" y1="40.1369" x2="11.7793" y2="298.071" gradientUnits="userSpaceOnUse">
<stop stop-color="#311944"/>
<stop offset="1" stop-color="#893976"/>
</linearGradient>
<linearGradient id="paint6_linear_1_3487" x1="146.323" y1="39.1492" x2="13.2585" y2="298.789" gradientUnits="userSpaceOnUse">
<stop stop-color="#E38DDD"/>
<stop offset="1" stop-color="#9571F6"/>
</linearGradient>
<linearGradient id="paint7_linear_1_3487" x1="20776.2" y1="21630.3" x2="28082.5" y2="21630.3" gradientUnits="userSpaceOnUse">
<stop stop-color="#FF9085"/>
<stop offset="1" stop-color="#FB6FBB"/>
</linearGradient>
<linearGradient id="paint8_linear_1_3487" x1="325.737" y1="217.687" x2="280.319" y2="306.309" gradientUnits="userSpaceOnUse">
<stop stop-color="#AA80F9"/>
<stop offset="1" stop-color="#6165D7"/>
</linearGradient>
<linearGradient id="paint9_linear_1_3487" x1="57884.4" y1="27667.9" x2="55163.1" y2="31155.8" gradientUnits="userSpaceOnUse">
<stop stop-color="#E38DDD"/>
<stop offset="1" stop-color="#9571F6"/>
</linearGradient>
<linearGradient id="paint10_linear_1_3487" x1="23296.3" y1="8497.26" x2="23643.7" y2="8647.74" gradientUnits="userSpaceOnUse">
<stop stop-color="#444B8C"/>
<stop offset="1" stop-color="#26264F"/>
</linearGradient>
<linearGradient id="paint11_linear_1_3487" x1="17125.1" y1="21647.9" x2="19181.9" y2="23004.7" gradientUnits="userSpaceOnUse">
<stop stop-color="#AA80F9"/>
<stop offset="1" stop-color="#6165D7"/>
</linearGradient>
<linearGradient id="paint12_linear_1_3487" x1="12658.6" y1="21467.3" x2="14408.3" y2="22310.2" gradientUnits="userSpaceOnUse">
<stop stop-color="#AA80F9"/>
<stop offset="1" stop-color="#6165D7"/>
</linearGradient>
<linearGradient id="paint13_linear_1_3487" x1="53136.4" y1="22982.6" x2="58821.8" y2="27977.6" gradientUnits="userSpaceOnUse">
<stop stop-color="#AA80F9"/>
<stop offset="1" stop-color="#6165D7"/>
</linearGradient>
<linearGradient id="paint14_linear_1_3487" x1="3317.81" y1="1504.36" x2="3323.86" y2="1506.61" gradientUnits="userSpaceOnUse">
<stop stop-color="#444B8C"/>
<stop offset="1" stop-color="#26264F"/>
</linearGradient>
<linearGradient id="paint15_linear_1_3487" x1="22743.3" y1="8141.06" x2="22985.3" y2="9766.72" gradientUnits="userSpaceOnUse">
<stop stop-color="#444B8C"/>
<stop offset="1" stop-color="#26264F"/>
</linearGradient>
<linearGradient id="paint16_linear_1_3487" x1="46646.1" y1="22803.4" x2="52172" y2="27072" gradientUnits="userSpaceOnUse">
<stop stop-color="#AA80F9"/>
<stop offset="1" stop-color="#6165D7"/>
</linearGradient>
<linearGradient id="paint17_linear_1_3487" x1="3527.69" y1="1502.85" x2="3533.76" y2="1505.1" gradientUnits="userSpaceOnUse">
<stop stop-color="#444B8C"/>
<stop offset="1" stop-color="#26264F"/>
</linearGradient>
<linearGradient id="paint18_linear_1_3487" x1="14218.5" y1="59510.4" x2="18762.4" y2="59510.4" gradientUnits="userSpaceOnUse">
<stop stop-color="#FFC444"/>
<stop offset="1" stop-color="#F36F56"/>
</linearGradient>
<linearGradient id="paint19_linear_1_3487" x1="156213" y1="-78788.6" x2="101569" y2="-57929.2" gradientUnits="userSpaceOnUse">
<stop stop-color="#FF9085"/>
<stop offset="1" stop-color="#FB6FBB"/>
</linearGradient>
<linearGradient id="paint20_linear_1_3487" x1="-297242" y1="184879" x2="-247211" y2="101622" gradientUnits="userSpaceOnUse">
<stop stop-color="#FF9085"/>
<stop offset="1" stop-color="#FB6FBB"/>
</linearGradient>
<linearGradient id="paint21_linear_1_3487" x1="-76518.1" y1="19738.3" x2="-73800.3" y2="15105" gradientUnits="userSpaceOnUse">
<stop stop-color="#FFC444"/>
<stop offset="1" stop-color="#F36F56"/>
</linearGradient>
<linearGradient id="paint22_linear_1_3487" x1="-55549.3" y1="1877.89" x2="-53839.6" y2="-109.295" gradientUnits="userSpaceOnUse">
<stop stop-color="#444B8C"/>
<stop offset="1" stop-color="#26264F"/>
</linearGradient>
<linearGradient id="paint23_linear_1_3487" x1="-40454.6" y1="206.435" x2="-41165" y2="2782.41" gradientUnits="userSpaceOnUse">
<stop stop-color="#FFC444"/>
<stop offset="1" stop-color="#F36F56"/>
</linearGradient>
<linearGradient id="paint24_linear_1_3487" x1="-41152.9" y1="3588.59" x2="-39659.3" y2="2025.22" gradientUnits="userSpaceOnUse">
<stop stop-color="#444B8C"/>
<stop offset="1" stop-color="#26264F"/>
</linearGradient>
<linearGradient id="paint25_linear_1_3487" x1="247.019" y1="156.337" x2="245.211" y2="160.313" gradientUnits="userSpaceOnUse">
<stop stop-color="#FFC444"/>
<stop offset="1" stop-color="#F36F56"/>
</linearGradient>
<linearGradient id="paint26_linear_1_3487" x1="-193764" y1="113990" x2="-158973" y2="61388.3" gradientUnits="userSpaceOnUse">
<stop stop-color="#FF9085"/>
<stop offset="1" stop-color="#FB6FBB"/>
</linearGradient>
<linearGradient id="paint27_linear_1_3487" x1="-226085" y1="129437" x2="-193463" y2="68630.6" gradientUnits="userSpaceOnUse">
<stop stop-color="#FF9085"/>
<stop offset="1" stop-color="#FB6FBB"/>
</linearGradient>
<linearGradient id="paint28_linear_1_3487" x1="26088.7" y1="13692.5" x2="28035.5" y2="9145.61" gradientUnits="userSpaceOnUse">
<stop stop-color="#FF9085"/>
<stop offset="1" stop-color="#FB6FBB"/>
</linearGradient>
<linearGradient id="paint29_linear_1_3487" x1="29326.7" y1="52520.3" x2="49539.4" y2="44305" gradientUnits="userSpaceOnUse">
<stop stop-color="#E38DDD"/>
<stop offset="1" stop-color="#9571F6"/>
</linearGradient>
<linearGradient id="paint30_linear_1_3487" x1="114699" y1="142842" x2="293482" y2="142842" gradientUnits="userSpaceOnUse">
<stop stop-color="#444B8C"/>
<stop offset="1" stop-color="#26264F"/>
</linearGradient>
<linearGradient id="paint31_linear_1_3487" x1="29882.9" y1="27333.7" x2="48632.6" y2="5198.92" gradientUnits="userSpaceOnUse">
<stop stop-color="#444B8C"/>
<stop offset="1" stop-color="#26264F"/>
</linearGradient>
<linearGradient id="paint32_linear_1_3487" x1="8479.68" y1="6724.99" x2="12680.4" y2="936.47" gradientUnits="userSpaceOnUse">
<stop stop-color="#444B8C"/>
<stop offset="1" stop-color="#26264F"/>
</linearGradient>
<linearGradient id="paint33_linear_1_3487" x1="12712.9" y1="10419.4" x2="19591.2" y2="1277.29" gradientUnits="userSpaceOnUse">
<stop stop-color="#444B8C"/>
<stop offset="1" stop-color="#26264F"/>
</linearGradient>
<linearGradient id="paint34_linear_1_3487" x1="13003.3" y1="10915.8" x2="20275.3" y2="1479.2" gradientUnits="userSpaceOnUse">
<stop stop-color="#444B8C"/>
<stop offset="1" stop-color="#26264F"/>
</linearGradient>
<linearGradient id="paint35_linear_1_3487" x1="13627.9" y1="11503.3" x2="21148.6" y2="1836.42" gradientUnits="userSpaceOnUse">
<stop stop-color="#444B8C"/>
<stop offset="1" stop-color="#26264F"/>
</linearGradient>
<linearGradient id="paint36_linear_1_3487" x1="13949" y1="12080.1" x2="21912.5" y2="2103.49" gradientUnits="userSpaceOnUse">
<stop stop-color="#444B8C"/>
<stop offset="1" stop-color="#26264F"/>
</linearGradient>
<linearGradient id="paint37_linear_1_3487" x1="10272.7" y1="9823.62" x2="17056" y2="2056.14" gradientUnits="userSpaceOnUse">
<stop stop-color="#444B8C"/>
<stop offset="1" stop-color="#26264F"/>
</linearGradient>
<linearGradient id="paint38_linear_1_3487" x1="11003.9" y1="10848.4" x2="18400.7" y2="2667.44" gradientUnits="userSpaceOnUse">
<stop stop-color="#444B8C"/>
<stop offset="1" stop-color="#26264F"/>
</linearGradient>
<linearGradient id="paint39_linear_1_3487" x1="11855.2" y1="12056.7" x2="19951.7" y2="3412.04" gradientUnits="userSpaceOnUse">
<stop stop-color="#444B8C"/>
<stop offset="1" stop-color="#26264F"/>
</linearGradient>
<linearGradient id="paint40_linear_1_3487" x1="10683" y1="10601.5" x2="18072" y2="2451.23" gradientUnits="userSpaceOnUse">
<stop stop-color="#444B8C"/>
<stop offset="1" stop-color="#26264F"/>
</linearGradient>
<linearGradient id="paint41_linear_1_3487" x1="11553.2" y1="11864.7" x2="19704.7" y2="3214.37" gradientUnits="userSpaceOnUse">
<stop stop-color="#444B8C"/>
<stop offset="1" stop-color="#26264F"/>
</linearGradient>
<linearGradient id="paint42_linear_1_3487" x1="12581.5" y1="13380.4" x2="21614.4" y2="4163.87" gradientUnits="userSpaceOnUse">
<stop stop-color="#444B8C"/>
<stop offset="1" stop-color="#26264F"/>
</linearGradient>
<linearGradient id="paint43_linear_1_3487" x1="11242.4" y1="11600.1" x2="19397.2" y2="2952.44" gradientUnits="userSpaceOnUse">
<stop stop-color="#444B8C"/>
<stop offset="1" stop-color="#26264F"/>
</linearGradient>
<linearGradient id="paint44_linear_1_3487" x1="12166.3" y1="13031" x2="21173.3" y2="3870.17" gradientUnits="userSpaceOnUse">
<stop stop-color="#444B8C"/>
<stop offset="1" stop-color="#26264F"/>
</linearGradient>
<linearGradient id="paint45_linear_1_3487" x1="13283.2" y1="14807.5" x2="23309.9" y2="5051.95" gradientUnits="userSpaceOnUse">
<stop stop-color="#444B8C"/>
<stop offset="1" stop-color="#26264F"/>
</linearGradient>
<linearGradient id="paint46_linear_1_3487" x1="11828.9" y1="12706.1" x2="20826.2" y2="3543.42" gradientUnits="userSpaceOnUse">
<stop stop-color="#444B8C"/>
<stop offset="1" stop-color="#26264F"/>
</linearGradient>
<linearGradient id="paint47_linear_1_3487" x1="12838.8" y1="14387.2" x2="22826.3" y2="4681.39" gradientUnits="userSpaceOnUse">
<stop stop-color="#444B8C"/>
<stop offset="1" stop-color="#26264F"/>
</linearGradient>
<linearGradient id="paint48_linear_1_3487" x1="14047" y1="16440.5" x2="25186.5" y2="6121.08" gradientUnits="userSpaceOnUse">
<stop stop-color="#444B8C"/>
<stop offset="1" stop-color="#26264F"/>
</linearGradient>
</defs>
</svg>
