<svg width="300" height="293" viewBox="0 0 300 293" fill="none" xmlns="http://www.w3.org/2000/svg">
<path d="M268.939 55.3334C264.397 49.1033 225.518 -2.4208 162.498 0.094208C159.349 0.216601 97.8876 3.46597 75.2178 43.8556C58.4478 73.7324 76.2024 100.241 55.7444 120.596C37.9183 138.333 16.0122 126.593 5.05422 140.936C-11.6259 162.783 14.941 221.789 55.7693 254.696C97.9266 288.675 178.579 313.603 241.265 268.269C311.646 217.372 310.932 112.946 268.939 55.3334Z" fill="#F4F7FA"/>
<path d="M179.298 79.9561C179.771 79.9594 180.229 79.7866 180.581 79.4713C180.934 79.1559 181.156 78.7206 181.206 78.2502C182.881 60.9386 188.613 44.4892 197.344 31.9326C205.081 20.8089 214.291 14.1694 221.986 14.1694H222.012C250.042 14.2235 255.905 77.5905 255.962 78.2307C256.005 78.7362 256.247 79.204 256.635 79.531C257.023 79.8581 257.525 80.0176 258.03 79.9745C258.536 79.9314 259.004 79.6892 259.331 79.3013C259.658 78.9133 259.817 78.4113 259.774 77.9057C259.535 75.1513 253.533 10.4586 222.02 10.3979H221.986C212.893 10.3979 202.763 17.4664 194.187 29.7978C185.089 42.8721 179.132 59.9508 177.399 77.8884C177.376 78.1368 177.402 78.3873 177.477 78.6254C177.551 78.8635 177.672 79.0845 177.832 79.2758C177.992 79.4671 178.189 79.6248 178.41 79.7398C178.631 79.8549 178.873 79.9251 179.122 79.9463C179.176 79.9528 179.238 79.9561 179.298 79.9561Z" fill="url(#paint0_linear_1_2891)"/>
<path d="M296.071 248.17L259.172 272.025L236.816 184.417L273.654 66.9651L284.102 70.235L299.951 238.917C300.307 242.735 298.757 246.433 296.071 248.17Z" fill="url(#paint1_linear_1_2891)"/>
<path style="mix-blend-mode:multiply" opacity="0.3" d="M236.816 184.417L273.653 66.9651L279.814 68.8941C280.518 81.5471 280.484 94.2302 279.712 106.879C277.244 146.868 269.043 157.996 273.015 185.893C276.319 209.088 283.533 212.237 282.902 227.842C282.216 244.84 272.932 259.073 261.89 270.265L259.167 272.025L236.816 184.417Z" fill="url(#paint2_linear_1_2891)"/>
<path d="M273.654 66.9651L134.703 75.9593L90.5449 254.675L259.173 272.025L273.654 66.9651Z" fill="url(#paint3_linear_1_2891)"/>
<g style="mix-blend-mode:multiply" opacity="0.3">
<path style="mix-blend-mode:multiply" opacity="0.3" d="M134.702 75.9593L207.163 71.2683C208.386 73.5548 210.005 77.2786 210.304 82.0291C212.088 110.126 163.324 119.222 158.956 153.711C155.629 179.969 176.096 210.266 194.357 223.764C213.597 237.986 226.635 230.784 239.646 246.573C245.364 253.505 248.845 262.184 250.911 271.176L90.5488 254.675L134.702 75.9593Z" fill="url(#paint4_linear_1_2891)"/>
</g>
<path d="M231.03 83.0539C231.458 83.0557 231.875 82.9132 232.213 82.6493C232.551 82.3854 232.79 82.0155 232.892 81.5992C233.283 79.9572 242.321 41.1738 229.576 22.1412C225.923 16.6855 220.819 13.3549 214.412 12.2415C181.466 6.52477 161.18 76.2042 160.333 79.1785C160.266 79.4181 160.247 79.6686 160.278 79.9155C160.308 80.1625 160.387 80.401 160.51 80.6171C160.634 80.8333 160.799 81.0229 160.996 81.1749C161.192 81.327 161.418 81.4384 161.658 81.5028C162.143 81.6402 162.663 81.5808 163.105 81.3375C163.547 81.0942 163.875 80.6866 164.018 80.2031C164.216 79.5088 184.184 10.8226 213.747 15.9631C219.163 16.9022 223.293 19.6046 226.386 24.2252C238.234 41.918 229.262 80.3623 229.17 80.7479C229.115 80.9896 229.109 81.2399 229.151 81.4842C229.193 81.7285 229.282 81.9621 229.415 82.1716C229.548 82.3811 229.72 82.5624 229.923 82.705C230.126 82.8477 230.354 82.9489 230.596 83.003C230.738 83.0364 230.884 83.0534 231.03 83.0539Z" fill="url(#paint5_linear_1_2891)"/>
<path d="M231.02 90.2511C233.974 90.2511 236.369 87.1937 236.369 83.4221C236.369 79.6505 233.974 76.593 231.02 76.593C228.066 76.593 225.672 79.6505 225.672 83.4221C225.672 87.1937 228.066 90.2511 231.02 90.2511Z" fill="url(#paint6_linear_1_2891)"/>
<path d="M161.276 89.6177C164.23 89.6177 166.625 86.5602 166.625 82.7886C166.625 79.017 164.23 75.9595 161.276 75.9595C158.322 75.9595 155.928 79.017 155.928 82.7886C155.928 86.5602 158.322 89.6177 161.276 89.6177Z" fill="url(#paint7_linear_1_2891)"/>
<path d="M133.887 74.3444L136.939 72.0103C137.829 72.2626 152.453 76.6579 155.352 89.52C155.751 91.2887 157.218 97.8091 153.646 102.001C147.66 109.027 130.284 106.26 122.127 96.4336C115.715 88.7077 114.918 76.5355 118.621 74.2545C123.102 71.4947 136.46 81.819 137.479 82.6053C139.52 84.1835 141.378 85.8634 141.703 85.5688C142.25 85.0673 137.864 79.3332 133.887 74.3444Z" fill="url(#paint8_linear_1_2891)"/>
<path d="M94.4482 68.8596C97.2643 69.7261 101.329 72.1544 107.005 71.2652C108.713 70.9977 114.765 70.0488 116.911 65.034C118.801 60.6192 116.112 56.1665 115.777 55.6281C113.847 52.5228 110.87 51.2957 107.545 49.9883C103.233 48.2878 101.288 48.6344 98.0842 47.8221C90.1579 45.8161 90.0073 40.6312 82.8901 37.0656C73.7973 32.5089 69.3565 38.621 61.8115 34.5993C53.3415 30.0838 56.3363 20.9942 48.8541 14.9677C38.4691 6.60711 14.1888 9.2066 6.54518 23.6316C2.13254 31.963 2.9633 44.8197 9.19233 52.0365C12.823 56.2434 18.0339 58.4811 17.7728 62.2319C17.5876 64.9018 14.4303 65.2647 12.5793 69.0556C10.1964 73.9459 12.4038 79.5619 12.7612 80.4652C16.0767 88.8843 31.1938 94.0638 44.5162 92.2691C68.5301 89.0327 79.1523 64.1328 94.4482 68.8596Z" fill="url(#paint9_linear_1_2891)"/>
<path d="M87.4134 71.2488C94.9 71.2195 104.167 71.3018 113.638 72.3016C134.001 74.4505 133.2 84.5831 129.513 93.8189C125.751 103.242 125.882 111.568 125.957 114.529C126.079 119.295 126.945 123.124 128.679 130.776C131.691 144.064 133.936 147.116 131.82 150.514C128.727 155.468 120.06 155.224 118.539 155.151C110.841 154.78 109.208 150.263 102.717 149.548C95.1751 148.717 93.4323 154.381 82.9466 158.191C70.5698 162.689 54.636 161.5 47.235 153.209C44.3777 150.009 42.544 145.589 43.769 144.197C45.4424 142.303 51.261 147.754 57.4564 145.592C61.5604 144.159 61.1889 141.005 66.1041 137.928C72.0179 134.224 75.4969 136.953 79.5066 134.56C85.7627 130.829 84.4175 119.953 84.9222 102.045C85.2195 91.7436 86.051 81.4643 87.4134 71.2488Z" fill="url(#paint10_linear_1_2891)"/>
<path d="M87.4129 71.2488C76.5513 71.7785 72.6694 83.083 61.3302 85.3142C54.461 86.666 44.2169 84.8106 29.4994 70.5188L23.2422 73.414C25.3857 86.2457 31.3407 93.4517 34.264 96.4845C50.9636 113.814 82.6385 113.273 99.793 98.4265C105.175 93.7691 108.209 88.4889 109.857 85.0207C104.433 78.274 96.5425 70.8037 87.4129 71.2488Z" fill="url(#paint11_linear_1_2891)"/>
<path d="M111.192 62.8871C111.034 62.7743 110.852 62.7003 110.661 62.6712C110.469 62.6421 110.273 62.6586 110.089 62.7196C109.905 62.7805 109.738 62.884 109.602 63.0218C109.465 63.1595 109.363 63.3275 109.304 63.5121C108.593 65.7119 107.123 69.4541 105.12 70.3899C102.236 71.7352 97.8935 71.1481 97.3444 71.6789C96.7952 72.2096 110.295 79.2152 119.287 76.0309C119.35 76.0083 119.412 75.9808 119.47 75.9485L119.983 75.6734C120.206 75.5536 120.387 75.3676 120.5 75.141C120.613 74.9145 120.654 74.6584 120.616 74.4079C120.578 74.1574 120.464 73.9247 120.289 73.7417C120.113 73.5588 119.886 73.4345 119.637 73.3859C117.904 73.0436 113.355 71.7384 112.215 69.7574C112.084 69.5299 112.046 67.7406 112.079 67.4828L112.449 64.5844C112.476 64.3647 112.444 64.1416 112.356 63.9386C112.267 63.7356 112.126 63.5602 111.946 63.4309L111.192 62.8871Z" fill="url(#paint12_linear_1_2891)"/>
<path d="M109.071 64.4034C109.071 64.4034 110.535 67.0159 113.403 66.3422C115.969 65.7389 115.26 59.2131 113.396 58.2567C112.775 57.9318 111.567 57.9015 110.71 58.3044C110.105 58.5882 108.384 60.2713 108.994 62.4625C108.395 62.208 107.828 62.3065 107.655 62.5979C107.438 62.9672 107.897 63.5608 108.002 63.6951C108.275 64.0373 108.649 64.285 109.071 64.4034Z" fill="url(#paint13_linear_1_2891)"/>
<path d="M27.7463 71.3313L26.7227 69.3123C26.7227 69.3123 31.9542 60.7557 27.6661 59.3801C23.3781 58.0045 24.5868 60.4535 25.0732 61.6211C25.5595 62.7887 24.7764 66.5948 24.0312 67.758C23.286 68.9213 24.5868 72.7957 24.5868 72.7957L27.7463 71.3313Z" fill="url(#paint14_linear_1_2891)"/>
<path style="mix-blend-mode:multiply" opacity="0.3" d="M64.8032 152.533C67.511 150.691 65.6459 147.081 68.7079 144.165C71.5099 141.496 74.5762 143.081 79.5857 141.655C85.6078 139.936 90.2728 135.048 92.4163 130.776C93.9446 127.731 93.8244 125.737 92.4163 110.136C91.0776 95.2789 90.6996 91.6505 88.79 91.1696C85.3165 90.2944 82.2057 101.21 75.4016 101.211C71.5597 101.211 71.0387 97.73 66.195 95.9115C57.9806 92.8235 52.1079 100.08 43.3238 99.8161C41.0785 99.7468 38.3555 99.1663 35.248 97.4149C47.9043 109.627 68.293 112.296 84.8226 106.762C84.5984 121.862 85.1854 131.171 79.5023 134.561C75.4947 136.951 72.0136 134.225 66.0997 137.929C61.1845 141.006 61.556 144.16 57.4521 145.593C51.2566 147.759 45.4381 142.304 43.7646 144.198C42.6501 145.46 44.0657 149.205 46.4724 152.279C47.9575 151.655 49.532 151.27 51.1375 151.138C57.621 150.633 61.6112 154.704 64.8032 152.533Z" fill="url(#paint15_linear_1_2891)"/>
<path d="M156.842 49.2821L157.209 47.1841L159.917 46.5212C160.212 46.4496 160.522 46.474 160.802 46.5909C161.082 46.7078 161.318 46.911 161.474 47.1711C163.186 49.9872 167.923 59.2057 164.458 70.0867C164.369 70.3653 164.197 70.61 163.965 70.7876C163.732 70.9652 163.451 71.0672 163.159 71.0799C162.4 71.1014 161.64 71.0779 160.884 71.0095L156.842 49.2821Z" fill="url(#paint16_linear_1_2891)"/>
<path d="M136.004 64.8412L133.673 71.0269C133.673 71.0269 132.759 72.6732 132.646 73.4541C131.508 73.9101 129.676 73.3556 129.676 73.3556L130.28 65.1553L135.829 64.7112L136.004 64.8412Z" fill="url(#paint17_linear_1_2891)"/>
<path d="M136.265 72.9505L135.463 70.4192C135.463 70.4192 134.497 68.331 131.773 67.9746C129.049 67.6183 129.078 69.0892 129.078 69.0892L130.856 69.6145C130.856 69.6145 132.006 69.947 132.793 71.6128C133.897 73.309 135.014 74.0867 135.014 74.0867L136.265 72.9505Z" fill="url(#paint18_linear_1_2891)"/>
<path d="M126.088 60.4231C126.088 60.4231 148.406 55.3475 157.208 47.1819C165.618 56.0072 160.891 71.003 160.891 71.003C160.891 71.003 136.621 65.4477 126.868 66.6326C124.8 64.6808 126.088 60.4231 126.088 60.4231Z" fill="url(#paint19_linear_1_2891)"/>
<path d="M169.247 75.1405C169.02 74.8656 168.871 74.5347 168.815 74.1825C168.759 73.8302 168.799 73.4695 168.93 73.1378C176.535 53.8484 165.96 43.7083 165.856 43.6108C165.664 43.4323 165.509 43.2177 165.4 42.9793C165.291 42.7409 165.23 42.4833 165.22 42.2213C165.211 41.9593 165.253 41.698 165.344 41.4523C165.436 41.2066 165.574 40.9813 165.753 40.7892C165.931 40.5972 166.146 40.4422 166.384 40.3331C166.623 40.224 166.88 40.163 167.142 40.1534C167.404 40.1439 167.666 40.186 167.911 40.2775C168.157 40.3689 168.383 40.5078 168.575 40.6863C169.099 41.1727 181.238 52.8054 172.644 74.6022C172.517 74.9253 172.307 75.2096 172.036 75.4271C171.766 75.6446 171.443 75.7877 171.1 75.8424C170.757 75.8971 170.406 75.8614 170.081 75.7389C169.756 75.6163 169.469 75.4112 169.247 75.1437V75.1405Z" fill="url(#paint20_linear_1_2891)"/>
<path d="M221.429 266.426C221.429 269.567 219.199 272.269 216.464 272.43L23.7354 284.203C20.0842 284.419 15.9629 281.329 15.9629 277.679V142.803C15.9629 139.153 20.1871 136.088 23.835 136.235L216.464 144.481C219.199 144.589 221.429 147.256 221.429 150.397V266.426Z" fill="url(#paint21_linear_1_2891)"/>
<path d="M225.002 266.647C225.002 269.802 222.761 272.517 220.013 272.679L25.225 284.226C21.5565 284.443 18.5411 281.627 18.5411 277.954V142.431C18.5381 141.565 18.7113 140.709 19.0499 139.913C19.3886 139.117 19.8857 138.398 20.5109 137.8C21.1362 137.202 21.8766 136.738 22.687 136.436C23.4974 136.133 24.3609 135.998 25.225 136.04L220.013 144.118C222.761 144.226 225.002 146.906 225.002 150.062V266.647Z" fill="url(#paint22_linear_1_2891)"/>
<path d="M225.002 234.875L18.541 245.466V270.288L225.002 258.169V234.875Z" fill="url(#paint23_linear_1_2891)"/>
<g style="mix-blend-mode:multiply" opacity="0.15">
<path style="mix-blend-mode:multiply" opacity="0.15" d="M79.4746 180.851C79.2417 196.254 69.6084 204.258 58.8834 204.217C47.1975 204.172 37.8296 195.212 38.0527 180.497C38.2639 166.509 47.0762 156.545 60.169 157.523C72.873 158.476 79.6652 168.28 79.4746 180.851ZM51.7337 180.556C51.6113 188.591 54.2411 194.431 59.3773 194.529C64.3206 194.62 66.7847 189.583 66.9125 181.154C67.0284 173.532 65.0712 167.521 59.6751 167.197C54.422 166.88 51.8496 172.875 51.7337 180.556ZM62.5768 230.074L99.7951 162.685C100.143 162.054 100.665 161.537 101.299 161.194C101.932 160.851 102.651 160.697 103.369 160.75C103.997 160.797 104.604 161.001 105.133 161.343C105.662 161.684 106.097 162.153 106.398 162.706C106.698 163.26 106.856 163.879 106.855 164.509C106.855 165.139 106.696 165.758 106.395 166.311L69.5889 233.681C69.2779 234.25 68.8254 234.729 68.2751 235.072C67.7249 235.414 67.0955 235.609 66.4479 235.638L66.0363 235.656C63.1021 235.787 61.1547 232.655 62.5768 230.074ZM126.258 211.084C126.041 225.349 117.774 233.155 108.598 233.558C98.7293 233.991 90.7672 226.122 90.868 212.565C91.0629 199.676 98.5744 190.088 109.746 190.388C120.618 190.68 126.434 199.441 126.258 211.084ZM102.62 212.02C102.403 219.439 104.644 224.716 109.031 224.584C113.255 224.461 115.371 219.702 115.49 211.906C115.598 204.857 114.027 199.391 109.412 199.335C104.828 199.284 102.727 204.927 102.62 212.02Z" fill="url(#paint24_linear_1_2891)"/>
</g>
<path d="M81.2724 180.134C81.0395 195.536 71.4062 203.541 60.6811 203.5C48.9953 203.455 39.6284 194.495 39.8516 179.78C40.0628 165.792 48.874 155.828 61.9668 156.806C74.6707 157.759 81.463 167.559 81.2724 180.134ZM53.5314 179.838C53.4101 187.874 56.0388 193.714 61.175 193.811C66.1195 193.903 68.5836 188.866 68.7114 180.436C68.8262 172.815 66.8701 166.804 61.4729 166.48C56.2208 166.163 53.6473 172.158 53.5314 179.838ZM64.3756 229.357L101.597 161.972C101.945 161.341 102.467 160.824 103.101 160.481C103.734 160.138 104.453 159.984 105.171 160.037C105.8 160.084 106.406 160.287 106.935 160.629C107.464 160.971 107.899 161.44 108.2 161.993C108.5 162.547 108.658 163.167 108.657 163.796C108.656 164.426 108.498 165.046 108.196 165.599L71.3899 232.969C71.0791 233.538 70.6267 234.017 70.0764 234.36C69.5261 234.703 68.8966 234.898 68.2489 234.926L67.8373 234.944C64.8999 235.07 62.9535 231.931 64.3756 229.357ZM128.057 210.367C127.84 224.632 119.572 232.438 110.402 232.841C100.532 233.274 92.5715 225.405 92.6711 211.848C92.8661 198.959 100.378 189.371 111.55 189.671C122.416 189.963 128.232 198.724 128.057 210.367ZM104.419 211.303C104.202 218.722 106.442 223.999 110.829 223.867C115.053 223.744 117.169 218.985 117.287 211.188C117.396 204.14 115.825 198.674 111.211 198.618C106.626 198.566 104.522 204.213 104.419 211.303Z" fill="white"/>
<path style="mix-blend-mode:multiply" opacity="0.3" d="M220.012 144.111L27.4688 136.127C36.1586 161.863 48.6048 173.386 59.2931 179.034C79.6438 189.777 94.24 179.517 111.685 193.426C129.581 207.696 122.769 225.312 141.622 237.184C155.792 246.105 164.926 239.481 179.62 247.546C190.505 253.521 197.305 263.636 201.654 273.77L220.012 272.687C222.76 272.524 225.001 269.81 225.001 266.655V150.056C225.001 146.899 222.76 144.225 220.012 144.111Z" fill="url(#paint25_linear_1_2891)"/>
<path style="mix-blend-mode:multiply" opacity="0.3" d="M208.113 205.793L203.416 201.335L198.958 206.034L194.26 201.575L189.802 206.273L185.106 201.816L180.649 206.513L175.95 202.056L171.492 206.754L166.795 202.296L162.336 206.994L157.639 202.536L153.181 207.235L148.483 202.777L144.025 207.475L139.327 203.017L134.87 207.715L128.866 202.02V272.393C128.866 272.393 128.621 276.423 123.748 277.484L206.84 271.392C207.759 271.323 208.655 271.068 209.473 270.642C210.354 269.497 210.83 268.092 210.828 266.647V202.935L208.113 205.793Z" fill="url(#paint26_linear_1_2891)"/>
<path d="M213.86 210.112L209.161 205.654L204.709 210.351L200.011 205.894L195.553 210.591L190.855 206.133L186.397 210.832L181.699 206.374L177.242 211.072L172.54 206.614L168.081 211.317L163.382 206.859L158.924 211.557L154.226 207.093L149.768 211.791L145.071 207.332L140.613 212.031L134.61 206.335V276.709C134.61 276.709 134.364 280.739 129.492 281.799L212.583 275.708C214.302 275.58 215.91 274.807 217.083 273.543C218.256 272.279 218.908 270.619 218.908 268.895V204.79L213.86 210.112Z" fill="white"/>
<path d="M209.498 242.022L199.222 242.485C198.89 242.501 198.577 242.645 198.347 242.885C198.117 243.125 197.988 243.445 197.986 243.777V248.494C197.986 248.67 198.022 248.844 198.092 249.006C198.162 249.168 198.264 249.313 198.392 249.434C198.52 249.555 198.671 249.649 198.836 249.709C199.002 249.769 199.177 249.795 199.353 249.785L209.629 249.206C209.959 249.188 210.269 249.044 210.496 248.803C210.723 248.563 210.85 248.245 210.849 247.915V243.315C210.849 243.14 210.813 242.968 210.744 242.807C210.675 242.647 210.574 242.502 210.448 242.381C210.322 242.26 210.173 242.166 210.01 242.105C209.846 242.043 209.672 242.015 209.498 242.022Z" fill="#F4F7FA"/>
<path d="M209.484 251.137L199.208 251.718C198.878 251.738 198.569 251.882 198.342 252.122C198.115 252.362 197.988 252.68 197.986 253.01V257.935C197.987 258.112 198.024 258.286 198.095 258.448C198.165 258.61 198.268 258.756 198.397 258.877C198.526 258.997 198.678 259.091 198.844 259.151C199.01 259.211 199.187 259.236 199.363 259.226L209.638 258.57C209.967 258.549 210.274 258.404 210.499 258.164C210.724 257.924 210.85 257.607 210.849 257.279V252.43C210.85 252.254 210.814 252.08 210.745 251.918C210.675 251.756 210.574 251.61 210.446 251.489C210.318 251.368 210.166 251.274 210.001 251.214C209.836 251.153 209.659 251.127 209.484 251.137Z" fill="#F4F7FA"/>
<path d="M210.849 228.95V220.512C210.849 220.338 210.815 220.166 210.747 220.006C210.679 219.846 210.579 219.701 210.454 219.581C210.329 219.46 210.181 219.366 210.019 219.303C209.856 219.241 209.683 219.212 209.51 219.219L199.234 219.588C198.9 219.601 198.583 219.743 198.351 219.984C198.118 220.225 197.988 220.546 197.986 220.881V229.413C197.987 229.588 198.023 229.761 198.092 229.921C198.161 230.082 198.262 230.226 198.388 230.347C198.514 230.468 198.664 230.562 198.827 230.624C198.99 230.685 199.165 230.714 199.339 230.706L209.615 230.243C209.947 230.226 210.26 230.083 210.49 229.842C210.719 229.602 210.848 229.282 210.849 228.95Z" fill="#F4F7FA"/>
<path d="M188.148 242.984L146.307 244.871C145.974 244.886 145.661 245.029 145.431 245.27C145.201 245.51 145.072 245.83 145.072 246.163V251.476C145.073 251.652 145.109 251.826 145.179 251.987C145.249 252.148 145.351 252.294 145.479 252.414C145.606 252.535 145.757 252.629 145.922 252.69C146.087 252.75 146.263 252.777 146.438 252.768L188.279 250.409C188.609 250.391 188.919 250.247 189.146 250.007C189.373 249.766 189.5 249.449 189.5 249.118V244.277C189.499 244.102 189.463 243.93 189.394 243.769C189.325 243.609 189.224 243.464 189.098 243.344C188.972 243.223 188.823 243.129 188.66 243.067C188.496 243.006 188.322 242.977 188.148 242.984Z" fill="#F4F7FA"/>
<path d="M188.137 252.34L146.297 254.698C145.967 254.717 145.656 254.861 145.429 255.102C145.202 255.342 145.076 255.66 145.076 255.991V261.31C145.076 261.487 145.112 261.662 145.183 261.824C145.253 261.986 145.355 262.132 145.484 262.253C145.613 262.374 145.766 262.468 145.932 262.527C146.098 262.587 146.275 262.612 146.452 262.601L188.293 259.93C188.621 259.909 188.929 259.764 189.154 259.524C189.379 259.284 189.504 258.968 189.504 258.639V253.632C189.504 253.456 189.468 253.281 189.398 253.12C189.328 252.958 189.227 252.812 189.099 252.691C188.971 252.571 188.819 252.477 188.654 252.417C188.489 252.356 188.313 252.33 188.137 252.34Z" fill="#F4F7FA"/>
<path d="M189.5 229.912V221.282C189.5 221.108 189.465 220.936 189.397 220.776C189.329 220.617 189.229 220.472 189.104 220.351C188.979 220.231 188.831 220.137 188.669 220.075C188.507 220.012 188.334 219.984 188.16 219.99L146.319 221.499C145.985 221.512 145.668 221.654 145.436 221.895C145.204 222.136 145.074 222.457 145.072 222.792V231.805C145.072 231.979 145.108 232.152 145.176 232.313C145.245 232.474 145.346 232.619 145.472 232.74C145.598 232.86 145.748 232.954 145.911 233.016C146.075 233.077 146.249 233.105 146.424 233.097L188.264 231.21C188.598 231.195 188.913 231.052 189.143 230.81C189.374 230.568 189.502 230.246 189.5 229.912Z" fill="#F4F7FA"/>
<defs>
<linearGradient id="paint0_linear_1_2891" x1="292.807" y1="49.177" x2="225.253" y2="46.2396" gradientUnits="userSpaceOnUse">
<stop stop-color="#AB316D"/>
<stop offset="1" stop-color="#792D3D"/>
</linearGradient>
<linearGradient id="paint1_linear_1_2891" x1="299.999" y1="169.496" x2="236.816" y2="169.496" gradientUnits="userSpaceOnUse">
<stop stop-color="#FFC444"/>
<stop offset="1" stop-color="#F36F56"/>
</linearGradient>
<linearGradient id="paint2_linear_1_2891" x1="124694" y1="320961" x2="144336" y2="320961" gradientUnits="userSpaceOnUse">
<stop stop-color="#FFC444"/>
<stop offset="1" stop-color="#F36F56"/>
</linearGradient>
<linearGradient id="paint3_linear_1_2891" x1="622064" y1="296448" x2="866026" y2="663489" gradientUnits="userSpaceOnUse">
<stop stop-color="#FFC444"/>
<stop offset="1" stop-color="#F36F56"/>
</linearGradient>
<linearGradient id="paint4_linear_1_2891" x1="542533" y1="251033" x2="759014" y2="658868" gradientUnits="userSpaceOnUse">
<stop stop-color="#FFC444"/>
<stop offset="1" stop-color="#F36F56"/>
</linearGradient>
<linearGradient id="paint5_linear_1_2891" x1="270739" y1="-4748.45" x2="254125" y2="146942" gradientUnits="userSpaceOnUse">
<stop stop-color="#AB316D"/>
<stop offset="1" stop-color="#792D3D"/>
</linearGradient>
<linearGradient id="paint6_linear_1_2891" x1="40730.9" y1="-5227.67" x2="26826.6" y2="15489.4" gradientUnits="userSpaceOnUse">
<stop stop-color="#AB316D"/>
<stop offset="1" stop-color="#792D3D"/>
</linearGradient>
<linearGradient id="paint7_linear_1_2891" x1="45701.7" y1="-820.426" x2="31797.3" y2="19896.5" gradientUnits="userSpaceOnUse">
<stop stop-color="#AB316D"/>
<stop offset="1" stop-color="#792D3D"/>
</linearGradient>
<linearGradient id="paint8_linear_1_2891" x1="131.843" y1="72.437" x2="148.482" y2="130.841" gradientUnits="userSpaceOnUse">
<stop stop-color="#AA80F9"/>
<stop offset="1" stop-color="#6165D7"/>
</linearGradient>
<linearGradient id="paint9_linear_1_2891" x1="41.2497" y1="-1.59169" x2="68.974" y2="83.1679" gradientUnits="userSpaceOnUse">
<stop stop-color="#444B8C"/>
<stop offset="1" stop-color="#26264F"/>
</linearGradient>
<linearGradient id="paint10_linear_1_2891" x1="63750.6" y1="65398.5" x2="96569.4" y2="180260" gradientUnits="userSpaceOnUse">
<stop stop-color="#AA80F9"/>
<stop offset="1" stop-color="#6165D7"/>
</linearGradient>
<linearGradient id="paint11_linear_1_2891" x1="53722" y1="29573.8" x2="60554.5" y2="82826.4" gradientUnits="userSpaceOnUse">
<stop stop-color="#AA80F9"/>
<stop offset="1" stop-color="#6165D7"/>
</linearGradient>
<linearGradient id="paint12_linear_1_2891" x1="-13026.6" y1="10691.1" x2="-11480.4" y2="5462.94" gradientUnits="userSpaceOnUse">
<stop stop-color="#FFC444"/>
<stop offset="1" stop-color="#F36F56"/>
</linearGradient>
<linearGradient id="paint13_linear_1_2891" x1="-4153.54" y1="3845.03" x2="-1740.95" y2="6117.03" gradientUnits="userSpaceOnUse">
<stop stop-color="#FFC444"/>
<stop offset="1" stop-color="#F36F56"/>
</linearGradient>
<linearGradient id="paint14_linear_1_2891" x1="1426.07" y1="6615.87" x2="527.169" y2="13229.2" gradientUnits="userSpaceOnUse">
<stop stop-color="#FFC444"/>
<stop offset="1" stop-color="#F36F56"/>
</linearGradient>
<linearGradient id="paint15_linear_1_2891" x1="18999.8" y1="70073.8" x2="50346" y2="70073.8" gradientUnits="userSpaceOnUse">
<stop stop-color="#AA80F9"/>
<stop offset="1" stop-color="#6165D7"/>
</linearGradient>
<linearGradient id="paint16_linear_1_2891" x1="12976.9" y1="13400.5" x2="13700.7" y2="13400.5" gradientUnits="userSpaceOnUse">
<stop stop-color="#AA80F9"/>
<stop offset="1" stop-color="#6165D7"/>
</linearGradient>
<linearGradient id="paint17_linear_1_2891" x1="28914.8" y1="33523.3" x2="27222.9" y2="33724" gradientUnits="userSpaceOnUse">
<stop stop-color="#AB316D"/>
<stop offset="1" stop-color="#792D3D"/>
</linearGradient>
<linearGradient id="paint18_linear_1_2891" x1="4006.65" y1="6402.96" x2="4215.31" y2="6773.32" gradientUnits="userSpaceOnUse">
<stop stop-color="#FFC444"/>
<stop offset="1" stop-color="#F36F56"/>
</linearGradient>
<linearGradient id="paint19_linear_1_2891" x1="52619.4" y1="10569.4" x2="46239.7" y2="24916" gradientUnits="userSpaceOnUse">
<stop stop-color="#444B8C"/>
<stop offset="1" stop-color="#26264F"/>
</linearGradient>
<linearGradient id="paint20_linear_1_2891" x1="16170.6" y1="19168.5" x2="17187" y2="19168.5" gradientUnits="userSpaceOnUse">
<stop stop-color="#AA80F9"/>
<stop offset="1" stop-color="#6165D7"/>
</linearGradient>
<linearGradient id="paint21_linear_1_2891" x1="-17.746" y1="192.25" x2="14.4953" y2="197.431" gradientUnits="userSpaceOnUse">
<stop stop-color="#FF9085"/>
<stop offset="1" stop-color="#FB6FBB"/>
</linearGradient>
<linearGradient id="paint22_linear_1_2891" x1="119792" y1="196641" x2="283752" y2="469353" gradientUnits="userSpaceOnUse">
<stop stop-color="#FF9085"/>
<stop offset="1" stop-color="#FB6FBB"/>
</linearGradient>
<linearGradient id="paint23_linear_1_2891" x1="131327" y1="77355.9" x2="214909" y2="231237" gradientUnits="userSpaceOnUse">
<stop stop-color="#444B8C"/>
<stop offset="1" stop-color="#26264F"/>
</linearGradient>
<linearGradient id="paint24_linear_1_2891" x1="30357.9" y1="142550" x2="102562" y2="143994" gradientUnits="userSpaceOnUse">
<stop stop-color="#FF9085"/>
<stop offset="1" stop-color="#FB6FBB"/>
</linearGradient>
<linearGradient id="paint25_linear_1_2891" x1="179217" y1="144940" x2="329332" y2="402156" gradientUnits="userSpaceOnUse">
<stop stop-color="#FF9085"/>
<stop offset="1" stop-color="#FB6FBB"/>
</linearGradient>
<linearGradient id="paint26_linear_1_2891" x1="99611.5" y1="168519" x2="169621" y2="168519" gradientUnits="userSpaceOnUse">
<stop stop-color="#FF9085"/>
<stop offset="1" stop-color="#FB6FBB"/>
</linearGradient>
</defs>
</svg>
