<svg width="61" height="60" viewBox="0 0 61 60" fill="none" xmlns="http://www.w3.org/2000/svg">
<g id="&#208;&#152;&#208;&#186;&#208;&#190;&#208;&#189;&#208;&#186;&#208;&#176;">
<rect id="Rectangle 3" width="60" height="60" fill="white"/>
<g id="Group 3">
<g id="Group">
<g id="Group_2">
<g id="Group_3">
<path id="Vector" d="M46.4509 30.9677H36.7734V22.2581H46.4509V30.9677Z" fill="#41B7E9"/>
</g>
<g id="Group_4">
<path id="Vector_2" d="M50 9.85484C50 14.1929 46.4833 17.7097 42.1452 17.7097H40.8548C36.5167 17.7097 33 14.1929 33 9.85484V9.85484C33 5.51673 36.5167 2 40.8548 2H42.1452C46.4833 2 50 5.51673 50 9.85484V9.85484Z" fill="#41B7E9"/>
</g>
</g>
<g id="Group_5">
<g id="Group_6">
<path id="Vector_3" d="M26.1296 59.9999C21.3277 59.9999 17.4199 56.0922 17.4199 51.2902C17.4199 46.4883 21.3277 42.5806 26.1296 42.5806C30.9315 42.5806 34.8393 46.4883 34.8393 51.2902C34.8393 56.0922 30.9315 59.9999 26.1296 59.9999ZM26.1296 47.4193C23.9948 47.4193 22.2586 49.1554 22.2586 51.2902C22.2586 53.4251 23.9948 55.1612 26.1296 55.1612C28.2644 55.1612 30.0006 53.4251 30.0006 51.2902C30.0006 49.1554 28.2644 47.4193 26.1296 47.4193Z" fill="#41B7E9"/>
</g>
</g>
<g id="Group_7">
<path id="Vector_4" d="M30.9668 37.7419H40.6442V42.5807H30.9668V37.7419Z" fill="#41B7E9"/>
</g>
<g id="Group_8">
<path id="Vector_5" d="M16.2455 19.619C15.9223 18.3241 14.7639 17.4193 13.4294 17.4193H9.67742V15.4838H13.4294C15.6542 15.4838 17.5839 16.9916 18.1239 19.1496L24.0474 42.8429C24.6687 42.69 25.3142 42.6 25.979 42.5883L20.0013 18.6803C19.2465 15.659 16.5445 13.5483 13.4294 13.5483H2.90323C1.30258 13.5483 0 14.8509 0 16.4516C0 18.0522 1.30258 19.3548 2.90323 19.3548H13.4294C13.8735 19.3548 14.2597 19.6567 14.3681 20.0883L20.5084 44.6487C21.03 44.2064 21.6048 43.829 22.2213 43.5183L16.2455 19.619ZM1.93548 16.4516C1.93548 15.9183 2.37 15.4838 2.90323 15.4838H7.74194V17.4193H2.90323C2.37 17.4193 1.93548 16.9848 1.93548 16.4516Z" fill="#1F2428"/>
<path id="Vector_6" d="M59.9031 44.7358C59.4996 43.2261 57.9067 42.2719 56.3496 42.6793L56.1299 42.7364V24.1935C56.1299 22.5929 54.8273 21.2903 53.2267 21.2903H30.0009C28.4002 21.2903 27.0977 22.5929 27.0977 24.1935V42.6377C27.7693 42.7122 28.4157 42.87 29.0331 43.0887V24.1935C29.0331 23.6603 29.4677 23.2258 30.0009 23.2258H53.2267C53.7599 23.2258 54.1944 23.6603 54.1944 24.1935V43.2532L34.3857 48.5351C34.588 49.1409 34.7312 49.7729 34.796 50.429L56.8451 44.549C57.3696 44.4087 57.898 44.73 58.0335 45.2332C58.1709 45.749 57.8631 46.2813 57.3483 46.4187L34.7544 52.4438C34.6538 53.1967 34.4631 53.9196 34.1825 54.6L57.8467 48.2893C59.3922 47.8761 60.3144 46.2822 59.9031 44.7358V44.7358Z" fill="#1F2428"/>
<path id="Vector_7" d="M26.1297 46.4517C23.4617 46.4517 21.291 48.6223 21.291 51.2904C21.291 53.9584 23.4617 56.1291 26.1297 56.1291C28.7978 56.1291 30.9684 53.9584 30.9684 51.2904C30.9684 48.6223 28.7978 46.4517 26.1297 46.4517ZM26.1297 54.1936C24.5291 54.1936 23.2265 52.891 23.2265 51.2904C23.2265 49.6897 24.5291 48.3871 26.1297 48.3871C27.7304 48.3871 29.033 49.6897 29.033 51.2904C29.033 52.891 27.7304 54.1936 26.1297 54.1936Z" fill="#1F2428"/>
<path id="Vector_8" d="M26.1299 52.258C26.6643 52.258 27.0976 51.8247 27.0976 51.2903C27.0976 50.7558 26.6643 50.3225 26.1299 50.3225C25.5954 50.3225 25.1621 50.7558 25.1621 51.2903C25.1621 51.8247 25.5954 52.258 26.1299 52.258Z" fill="#1F2428"/>
<path id="Vector_9" d="M40.6445 25.1614H42.58V30.9678H40.6445V25.1614Z" fill="#1F2428"/>
<path id="Vector_10" d="M34.8379 40.6453H36.7734V42.5807H34.8379V40.6453Z" fill="#1F2428"/>
<path id="Vector_11" d="M30.9668 40.6453H32.9023V42.5807H30.9668V40.6453Z" fill="#1F2428"/>
<path id="Vector_12" d="M38.709 40.6453H40.6445V42.5807H38.709V40.6453Z" fill="#1F2428"/>
<path id="Vector_13" d="M30.9668 36.7742H40.6442V38.7097H30.9668V36.7742Z" fill="#1F2428"/>
<path id="Vector_14" d="M41.613 19.3548C46.9491 19.3548 51.2904 15.0135 51.2904 9.67742C51.2904 4.34129 46.9491 0 41.613 0C36.2768 0 31.9355 4.34129 31.9355 9.67742C31.9355 15.0135 36.2768 19.3548 41.613 19.3548ZM41.613 1.93548C45.8817 1.93548 49.3549 5.40871 49.3549 9.67742C49.3549 13.9461 45.8817 17.4194 41.613 17.4194C37.3443 17.4194 33.871 13.9461 33.871 9.67742C33.871 5.40871 37.3443 1.93548 41.613 1.93548Z" fill="#1F2428"/>
<path id="Vector_15" d="M44.232 10.9286L42.58 9.27666V3.87085H40.6445V10.0779L42.8636 12.297L44.232 10.9286Z" fill="#1F2428"/>
<path id="Vector_16" d="M6.77419 40.6452H12.5806C14.1813 40.6452 15.4839 39.3426 15.4839 37.742C15.4839 36.1413 14.1813 34.8387 12.5806 34.8387H4.83871C4.30548 34.8387 3.87097 34.4042 3.87097 33.871C3.87097 33.3378 4.30548 32.9033 4.83871 32.9033H14.5161V30.9678H4.83871C3.23806 30.9678 1.93548 32.2704 1.93548 33.871C1.93548 35.4716 3.23806 36.7742 4.83871 36.7742H12.5806C13.1139 36.7742 13.5484 37.2087 13.5484 37.742C13.5484 38.2752 13.1139 38.7097 12.5806 38.7097H6.77419C5.17355 38.7097 3.87097 40.0123 3.87097 41.6129C3.87097 43.2136 5.17355 44.5162 6.77419 44.5162H10.6452C11.1784 44.5162 11.6129 44.9507 11.6129 45.4839C11.6129 46.0171 11.1784 46.4516 10.6452 46.4516H2.90323C1.30258 46.4516 0 47.7542 0 49.3549C0 50.9555 1.30258 52.2581 2.90323 52.2581H15.4839V50.3226H2.90323C2.37 50.3226 1.93548 49.8881 1.93548 49.3549C1.93548 48.8216 2.37 48.3871 2.90323 48.3871H10.6452C12.2458 48.3871 13.5484 47.0845 13.5484 45.4839C13.5484 43.8833 12.2458 42.5807 10.6452 42.5807H6.77419C6.24097 42.5807 5.80645 42.1462 5.80645 41.6129C5.80645 41.0797 6.24097 40.6452 6.77419 40.6452Z" fill="#1F2428"/>
</g>
</g>
</g>
</g>
</svg>
