<svg width="52" height="52" viewBox="0 0 52 52" fill="none" xmlns="http://www.w3.org/2000/svg">
<g id="&#208;&#152;&#208;&#186;&#208;&#190;&#208;&#189;&#208;&#186;&#208;&#176;">
<rect id="Rectangle 404" width="52" height="52" fill="white"/>
<g id="Group 20">
<g id="Group">
<path id="Vector" d="M51.1604 5.87102V10.9033H10.9023V5.87102C10.9023 4.94844 11.6572 4.1936 12.5798 4.1936H15.9346V6.70973C15.9346 7.17102 16.312 7.54844 16.7733 7.54844H18.4507C18.912 7.54844 19.2894 7.17102 19.2894 6.70973V4.1936H22.6443V6.70973C22.6443 7.17102 23.0217 7.54844 23.483 7.54844H25.1604C25.6217 7.54844 25.9991 7.17102 25.9991 6.70973V4.1936H36.0636V6.70973C36.0636 7.17102 36.4411 7.54844 36.9023 7.54844H38.5798C39.0411 7.54844 39.4185 7.17102 39.4185 6.70973V4.1936H42.7733V6.70973C42.7733 7.17102 43.1507 7.54844 43.612 7.54844H45.2894C45.7507 7.54844 46.1281 7.17102 46.1281 6.70973V4.1936H49.483C50.4056 4.1936 51.1604 4.94844 51.1604 5.87102Z" fill="#41B7E9"/>
<path id="Vector_2" d="M49.4832 3.35484H46.967V2.51613C46.967 1.1289 45.8381 0 44.4509 0C43.0637 0 41.9348 1.1289 41.9348 2.51613V3.35484H40.2574V2.51613C40.2574 1.1289 39.1285 0 37.7412 0C36.354 0 35.2251 1.1289 35.2251 2.51613V3.35484H26.838V2.51613C26.838 1.1289 25.7091 0 24.3219 0C22.9347 0 21.8058 1.1289 21.8058 2.51613V3.35484H20.1283V2.51613C20.1283 1.1289 18.9994 0 17.6122 0C16.225 0 15.0961 1.1289 15.0961 2.51613V3.35484H12.58C11.1927 3.35484 10.0638 4.48374 10.0638 5.87097V21.8065H6.70898V26.8387H8.3864V29.4974H10.0638V26.8387H13.4187V29.4974H15.0961V26.8387H16.7735V21.8065H11.7412V5.87097C11.7412 5.408 12.1178 5.03226 12.58 5.03226H15.0961V6.70968C15.0961 7.63477 15.8484 8.3871 16.7735 8.3871H18.4509C19.376 8.3871 20.1283 7.63477 20.1283 6.70968V5.03226H21.8058V6.70968C21.8058 7.63477 22.5581 8.3871 23.4832 8.3871H25.1606C26.0857 8.3871 26.838 7.63477 26.838 6.70968V5.03226H35.2251V6.70968C35.2251 7.63477 35.9774 8.3871 36.9025 8.3871H38.58C39.505 8.3871 40.2574 7.63477 40.2574 6.70968V5.03226H41.9348V6.70968C41.9348 7.63477 42.6871 8.3871 43.6122 8.3871H45.2896C46.2147 8.3871 46.967 7.63477 46.967 6.70968V5.03226H49.4832C49.9453 5.03226 50.3219 5.408 50.3219 5.87097V36.0645C50.3219 36.5275 49.9453 36.9032 49.4832 36.9032H22.3526V38.5806H49.4832C50.8704 38.5806 51.9993 37.4517 51.9993 36.0645V5.87097C51.9993 4.48374 50.8704 3.35484 49.4832 3.35484ZM15.0961 23.4839V25.1613H8.3864V23.4839H15.0961ZM16.7735 6.70968V2.51613C16.7735 2.05316 17.1501 1.67742 17.6122 1.67742C18.0743 1.67742 18.4509 2.05316 18.4509 2.51613L18.4518 6.70968H16.7735ZM23.4832 6.70968V2.51613C23.4832 2.05316 23.8598 1.67742 24.3219 1.67742C24.784 1.67742 25.1606 2.05316 25.1606 2.51613L25.1614 6.70968H23.4832ZM36.9025 6.70968V2.51613C36.9025 2.05316 37.2791 1.67742 37.7412 1.67742C38.2034 1.67742 38.58 2.05316 38.58 2.51613L38.5808 6.70968H36.9025ZM43.6122 6.70968V2.51613C43.6122 2.05316 43.9888 1.67742 44.4509 1.67742C44.913 1.67742 45.2896 2.05316 45.2896 2.51613L45.2905 6.70968H43.6122Z" fill="#1F2428"/>
<g id="Group_2">
<path id="Vector_3" d="M46.9686 35.2258H20.9686V33.5483H45.2912V15.0967H16.7751V20.0753H15.0977V13.4193H46.9686V35.2258Z" fill="#1F2428"/>
</g>
<path id="Vector_4" d="M31.0326 23.4838C30.1075 23.4838 29.3552 22.7315 29.3552 21.8064C29.3552 20.8813 30.1075 20.129 31.0326 20.129C31.9577 20.129 32.71 20.8813 32.71 21.8064H34.3874C34.3874 20.2473 33.3139 18.9456 31.8713 18.5707V16.7742H30.1939V18.5707C28.7513 18.9456 27.6777 20.2473 27.6777 21.8064C27.6777 23.6566 29.1824 25.1613 31.0326 25.1613C31.9577 25.1613 32.71 25.9136 32.71 26.8387C32.71 27.7638 31.9577 28.5161 31.0326 28.5161C30.1075 28.5161 29.3552 27.7638 29.3552 26.8387H27.6777C27.6777 28.3978 28.7513 29.6995 30.1939 30.0744V31.8709H31.8713V30.0744C33.3139 29.6995 34.3874 28.3978 34.3874 26.8387C34.3874 24.9885 32.8828 23.4838 31.0326 23.4838Z" fill="#1F2428"/>
<path id="Vector_5" d="M11.7419 28.5161C5.25703 28.5161 0 33.7731 0 40.258C0 46.743 5.25703 52 11.7419 52C18.2268 52 23.4839 46.743 23.4839 40.258C23.4839 33.7731 18.2268 28.5161 11.7419 28.5161ZM11.7419 47.8064C7.57271 47.8064 4.19355 44.4273 4.19355 40.258C4.19355 36.0888 7.57271 32.7097 11.7419 32.7097C15.9112 32.7097 19.2903 36.0888 19.2903 40.258C19.2903 44.4273 15.9112 47.8064 11.7419 47.8064Z" fill="#41B7E9"/>
<g id="Group_3">
<path id="Vector_6" d="M11.7426 48.6452C7.11792 48.6452 3.35547 44.8827 3.35547 40.2581C3.35547 35.6334 7.11792 31.871 11.7426 31.871C16.3672 31.871 20.1297 35.6334 20.1297 40.2581C20.1297 44.8827 16.3672 48.6452 11.7426 48.6452ZM11.7426 33.5484C8.04302 33.5484 5.03289 36.5585 5.03289 40.2581C5.03289 43.9576 8.04302 46.9677 11.7426 46.9677C15.4421 46.9677 18.4522 43.9576 18.4522 40.2581C18.4522 36.5585 15.4421 33.5484 11.7426 33.5484Z" fill="#1F2428"/>
</g>
<g id="Group_4">
<path id="Vector_7" d="M10.6566 42.5285L9.4707 41.3425L10.9024 39.9109V35.2258H12.5798V40.6053L10.6566 42.5285Z" fill="#1F2428"/>
</g>
</g>
</g>
</g>
</svg>
