<svg width="52" height="52" viewBox="0 0 52 52" fill="none" xmlns="http://www.w3.org/2000/svg">
<g id="&#208;&#152;&#208;&#186;&#208;&#190;&#208;&#189;&#208;&#186;&#208;&#176;">
<rect id="Rectangle 406" width="52" height="52" fill="white"/>
<g id="Group 22">
<g id="Group">
<g id="Group_2">
<path id="Vector" d="M35.2266 29.3549H48.6459V33.5484H35.2266V29.3549Z" fill="#41B7E9"/>
</g>
<g id="Group_3">
<path id="Vector_2" d="M3.35547 15.0968H16.7748V19.2904H3.35547V15.0968Z" fill="#41B7E9"/>
</g>
<g id="Group_4">
<path id="Vector_3" d="M13.4199 30.1936H28.5167V34.3872H13.4199V30.1936Z" fill="#41B7E9"/>
</g>
<g id="Group_5">
<g id="Group_6">
<path id="Vector_4" d="M42.7746 21.8065C37.6879 21.8065 33.5488 17.6674 33.5488 12.5807C33.5488 7.49389 37.6879 3.35486 42.7746 3.35486C47.8614 3.35486 52.0004 7.49389 52.0004 12.5807C52.0004 17.6674 47.8614 21.8065 42.7746 21.8065Z" fill="#41B7E9"/>
</g>
</g>
<g id="Group_7">
<path id="Vector_5" d="M25.1621 3.35486H30.1944V5.03228H25.1621V3.35486Z" fill="#1F2428"/>
<path id="Vector_6" d="M21.8066 3.35486H23.4841V5.03228H21.8066V3.35486Z" fill="#1F2428"/>
<path id="Vector_7" d="M16.7751 38.5807C15.85 38.5807 15.0977 39.333 15.0977 40.2581V41.9355C15.0977 42.8606 15.85 43.6129 16.7751 43.6129H17.2666C17.7144 43.6129 18.1355 43.4385 18.4525 43.1215L20.4771 41.0968L18.4525 39.0722C18.1355 38.7551 17.7144 38.5807 17.2666 38.5807H16.7751ZM17.2666 41.9355H16.7751V40.2581H17.2666L18.1053 41.0968L17.2666 41.9355Z" fill="#1F2428"/>
<path id="Vector_8" d="M25.1618 38.5807C24.2367 38.5807 23.4844 39.333 23.4844 40.2581V41.9355C23.4844 42.8606 24.2367 43.6129 25.1618 43.6129H26.8392C27.7643 43.6129 28.5166 42.8606 28.5166 41.9355V40.2581C28.5166 39.333 27.7643 38.5807 26.8392 38.5807H25.1618ZM25.1618 41.9355V40.2581H26.8392L26.8401 41.9355H25.1618Z" fill="#1F2428"/>
<path id="Vector_9" d="M35.2255 43.6129C36.1506 43.6129 36.9029 42.8606 36.9029 41.9355V40.2581C36.9029 39.333 36.1506 38.5807 35.2255 38.5807H34.734C34.2861 38.5807 33.8651 38.7551 33.5481 39.0722L31.5234 41.0968L33.5481 43.1215C33.8651 43.4385 34.2861 43.6129 34.734 43.6129H35.2255ZM34.734 40.2581H35.2255L35.2263 41.9355H34.734L33.8953 41.0968L34.734 40.2581Z" fill="#1F2428"/>
<path id="Vector_10" d="M42.7748 18.4516C44.625 18.4516 46.1296 16.9469 46.1296 15.0967V13.4193H39.4199V15.0967C39.4199 16.9469 40.9246 18.4516 42.7748 18.4516ZM44.4522 15.0967C44.4522 16.0218 43.6999 16.7742 42.7748 16.7742C41.8497 16.7742 41.0973 16.0218 41.0973 15.0967H44.4522Z" fill="#1F2428"/>
<path id="Vector_11" d="M46.1294 10.9032C46.5915 10.9032 46.9681 11.279 46.9681 11.742H48.6455C48.6455 10.3547 47.5166 9.22583 46.1294 9.22583C44.7422 9.22583 43.6133 10.3547 43.6133 11.742H45.2907C45.2907 11.279 45.6673 10.9032 46.1294 10.9032Z" fill="#1F2428"/>
<path id="Vector_12" d="M40.2572 11.742H41.9346C41.9346 10.3547 40.8057 9.22583 39.4185 9.22583C38.0312 9.22583 36.9023 10.3547 36.9023 11.742H38.5798C38.5798 11.279 38.9563 10.9032 39.4185 10.9032C39.8806 10.9032 40.2572 11.279 40.2572 11.742Z" fill="#1F2428"/>
<path id="Vector_13" d="M46.9668 31.871H48.6442V33.5484H46.9668V31.871Z" fill="#1F2428"/>
<path id="Vector_14" d="M35.2266 31.871H45.2911V33.5484H35.2266V31.871Z" fill="#1F2428"/>
<path id="Vector_15" d="M35.2266 28.5161H48.6459V30.1935H35.2266V28.5161Z" fill="#1F2428"/>
<path id="Vector_16" d="M49.4839 25.1613H43.836L41.9355 24.0752V21.7637C41.3585 21.7117 40.799 21.6026 40.2581 21.4483V23.1165L38.4641 22.0916C38.1386 21.9046 37.7663 21.8065 37.3897 21.8065C36.1962 21.8065 35.2258 22.7768 35.2258 23.9703V25.1613H34.3871C32.9999 25.1613 31.871 26.2902 31.871 27.6774V34.3871C31.871 35.7743 32.9999 36.9032 34.3871 36.9032H40.2581V42.7742C40.2581 44.1614 39.1292 45.2903 37.7419 45.2903H14.2581C12.8708 45.2903 11.7419 44.1614 11.7419 42.7742V25.5286L13.5359 26.5535C13.8614 26.7406 14.2337 26.8387 14.6103 26.8387C15.8038 26.8387 16.7742 25.8683 16.7742 24.6748V23.4839H17.6129C19.0001 23.4839 20.129 22.355 20.129 20.9677V14.2581C20.129 12.8708 19.0001 11.7419 17.6129 11.7419H11.7419V8.3871H34.5666C34.8735 7.78826 35.2375 7.22381 35.6628 6.70968H11.7419V4.19355C11.7419 2.80632 12.8708 1.67742 14.2581 1.67742H37.7419C38.969 1.67742 39.9897 2.56142 40.2103 3.72471C40.7412 3.57039 41.2897 3.458 41.855 3.40181C41.4834 1.4669 39.7825 0 37.7419 0H14.2581C11.9457 0 10.0645 1.88123 10.0645 4.19355V11.7419H2.51613C1.1289 11.7419 0 12.8708 0 14.2581V20.9677C0 22.355 1.1289 23.4839 2.51613 23.4839H8.164L10.0645 24.57V47.8065C10.0645 50.1188 11.9457 52 14.2581 52H37.7419C40.0543 52 41.9355 50.1188 41.9355 47.8065V36.9032H49.4839C50.8711 36.9032 52 35.7743 52 34.3871V27.6774C52 26.2902 50.8711 25.1613 49.4839 25.1613ZM8.61019 21.8065H2.51613C2.054 21.8065 1.67742 21.4307 1.67742 20.9677V14.2581C1.67742 13.7951 2.054 13.4194 2.51613 13.4194H17.6129C18.075 13.4194 18.4516 13.7951 18.4516 14.2581V20.9677C18.4516 21.4307 18.075 21.8065 17.6129 21.8065H15.0968V24.6748C15.0968 25.0279 14.6741 25.2712 14.3688 25.0975L8.61019 21.8065ZM40.2581 47.8065C40.2581 49.1937 39.1292 50.3226 37.7419 50.3226H14.2581C12.8708 50.3226 11.7419 49.1937 11.7419 47.8065V46.1072C12.4448 46.6398 13.3103 46.9677 14.2581 46.9677H37.7419C38.6897 46.9677 39.5552 46.6398 40.2581 46.1072V47.8065ZM50.3226 34.3871C50.3226 34.8501 49.946 35.2258 49.4839 35.2258H34.3871C33.925 35.2258 33.5484 34.8501 33.5484 34.3871V27.6774C33.5484 27.2145 33.925 26.8387 34.3871 26.8387H36.9032V23.9703C36.9032 23.6172 37.3251 23.374 37.6312 23.5476L43.3898 26.8387H49.4839C49.946 26.8387 50.3226 27.2145 50.3226 27.6774V34.3871Z" fill="#1F2428"/>
<path id="Vector_17" d="M13.4199 30.1936H25.1619V31.871H13.4199V30.1936Z" fill="#1F2428"/>
<path id="Vector_18" d="M26.8379 30.1936H28.5153V31.871H26.8379V30.1936Z" fill="#1F2428"/>
<path id="Vector_19" d="M13.4199 33.5483H28.5167V35.2258H13.4199V33.5483Z" fill="#1F2428"/>
<path id="Vector_20" d="M3.35547 15.0968H5.03289V16.7742H3.35547V15.0968Z" fill="#1F2428"/>
<path id="Vector_21" d="M6.70898 15.0968H16.7735V16.7742H6.70898V15.0968Z" fill="#1F2428"/>
<path id="Vector_22" d="M3.35547 18.4517H16.7748V20.1291H3.35547V18.4517Z" fill="#1F2428"/>
</g>
</g>
</g>
</g>
</svg>
