<svg width="66" height="66" viewBox="0 0 66 66" fill="none" xmlns="http://www.w3.org/2000/svg">
<g id="&#208;&#167;&#208;&#176;&#209;&#130;">
<circle id="Ellipse 16" cx="33" cy="33" r="32.25" stroke="white" stroke-width="1.5"/>
<g id="Group 27">
<g id="_x31_4_comment">
<g id="Group">
<path id="Vector" d="M26.4488 46.9652C26.3152 46.9652 26.1807 46.9352 26.0544 46.8752C25.7409 46.7235 25.5401 46.4064 25.5401 46.0565V41.513H22.814C21.311 41.513 20.0879 40.2899 20.0879 38.7869V24.2478C20.0879 22.7448 21.311 21.5217 22.814 21.5217H44.6227C46.1257 21.5217 47.3488 22.7448 47.3488 24.2478V38.7869C47.3488 40.2899 46.1257 41.513 44.6227 41.513H33.5829L27.0167 46.7662C26.8522 46.898 26.6514 46.9652 26.4488 46.9652ZM22.814 23.3391C22.3124 23.3391 21.9053 23.7471 21.9053 24.2478V38.7869C21.9053 39.2876 22.3124 39.6956 22.814 39.6956H26.4488C26.9513 39.6956 27.3575 40.1018 27.3575 40.6043V44.1664L32.696 39.8946C32.8578 39.7656 33.0568 39.6956 33.264 39.6956H44.6227C45.1243 39.6956 45.5314 39.2876 45.5314 38.7869V24.2478C45.5314 23.7471 45.1243 23.3391 44.6227 23.3391H22.814Z" fill="white"/>
</g>
<g id="Group_2">
<path id="Vector_2" d="M40.9888 30.609H26.4497C25.9472 30.609 25.541 30.2019 25.541 29.7003C25.541 29.1987 25.9472 28.7916 26.4497 28.7916H40.9888C41.4914 28.7916 41.8975 29.1987 41.8975 29.7003C41.8975 30.2019 41.4914 30.609 40.9888 30.609Z" fill="white"/>
</g>
<g id="Group_3">
<path id="Vector_3" d="M33.7193 34.2437H26.4497C25.9472 34.2437 25.541 33.8366 25.541 33.335C25.541 32.8334 25.9472 32.4263 26.4497 32.4263H33.7193C34.2218 32.4263 34.628 32.8334 34.628 33.335C34.628 33.8366 34.2218 34.2437 33.7193 34.2437Z" fill="white"/>
</g>
</g>
</g>
</g>
</svg>
