<svg width="66" height="66" viewBox="0 0 66 66" fill="none" xmlns="http://www.w3.org/2000/svg">
<g id="&#208;&#146;&#208;&#176;&#208;&#185;&#208;&#177;&#208;&#181;&#209;&#128;">
<circle id="Ellipse 15" cx="33" cy="33" r="32.25" stroke="white" stroke-width="1.5"/>
<g id="Group">
<path id="Vector" d="M45.6114 20.3424C44.8167 19.6118 41.5997 17.2728 34.4288 17.2407C34.4288 17.2407 25.9761 16.7281 21.8556 20.509C19.5614 22.8032 18.7539 26.1548 18.6706 30.3202C18.5873 34.4793 18.4783 42.2782 25.9954 44.393H26.0018L25.9954 47.6164C25.9954 47.6164 25.9505 48.9237 26.8092 49.1865C27.8474 49.5069 28.4626 48.5136 29.4559 47.4434C30.0006 46.8538 30.7504 45.9951 31.3207 45.335C36.4602 45.7644 40.4142 44.7775 40.8628 44.6301C41.9009 44.2905 47.7774 43.5407 48.7323 35.7417C49.7191 27.7184 48.2516 22.6366 45.6114 20.3424ZM46.4829 35.1778C45.6755 41.6887 40.914 42.0988 40.0361 42.3808C39.6644 42.5025 36.1911 43.3677 31.8206 43.0793C31.8206 43.0793 28.5651 47.0076 27.5526 48.0265C27.3924 48.1868 27.2065 48.2508 27.0848 48.2188C26.9118 48.1739 26.8605 47.9689 26.8669 47.6677C26.8669 47.2319 26.8925 42.3039 26.8925 42.3039C26.8861 42.3039 26.8861 42.3039 26.8925 42.3039C20.529 40.5416 20.9007 33.9025 20.9712 30.4292C21.0417 26.9558 21.6953 24.1041 23.6371 22.188C27.1168 19.0351 34.3006 19.5029 34.3006 19.5029C40.3629 19.5285 43.2659 21.3549 43.9388 21.9637C46.1753 23.8862 47.316 28.4682 46.4829 35.1778Z" fill="white"/>
<path id="Vector_2" d="M37.3834 30.551C37.1719 30.551 36.9925 30.3844 36.9797 30.1665C36.9092 28.7887 36.2619 28.1159 34.9418 28.0454C34.7175 28.0325 34.5445 27.8403 34.5573 27.616C34.5701 27.3917 34.7624 27.2187 34.9867 27.2315C36.7297 27.3276 37.7038 28.3273 37.7935 30.1217C37.8064 30.346 37.6333 30.5382 37.409 30.5446C37.3962 30.551 37.3898 30.551 37.3834 30.551Z" fill="white"/>
<path id="Vector_3" d="M39.4586 31.2436H39.4522C39.2279 31.2372 39.0484 31.0513 39.0548 30.827C39.0869 29.4428 38.6896 28.3214 37.8437 27.3985C37.0042 26.4757 35.8442 25.9759 34.3126 25.8669C34.0884 25.8477 33.9217 25.6555 33.941 25.4312C33.9602 25.2069 34.1524 25.0403 34.3767 25.0595C36.107 25.1877 37.472 25.79 38.446 26.8538C39.4265 27.924 39.9007 29.2634 39.8687 30.8463C39.8623 31.0705 39.6765 31.2436 39.4586 31.2436Z" fill="white"/>
<path id="Vector_4" d="M41.5875 32.0766C41.3632 32.0766 41.1838 31.8972 41.1838 31.6729C41.1646 29.1929 40.4533 27.3024 39.005 25.8861C37.5759 24.4891 35.7623 23.7778 33.6283 23.7586C33.404 23.7586 33.2246 23.5727 33.2246 23.3484C33.2246 23.1241 33.4105 22.9447 33.6283 22.9447C35.9802 22.9639 37.9796 23.7522 39.5625 25.303C41.1518 26.8538 41.9656 28.9942 41.9913 31.6601C41.9977 31.8908 41.8182 32.0766 41.5875 32.0766C41.5939 32.0766 41.5939 32.0766 41.5875 32.0766Z" fill="white"/>
<path id="Vector_5" d="M35.0377 35.5691C35.0377 35.5691 35.608 35.6203 35.9156 35.2422L36.5116 34.4925C36.8 34.1208 37.4985 33.8837 38.1778 34.2618C38.5559 34.4732 39.2416 34.8962 39.6645 35.2102C40.1195 35.5434 41.0423 36.3124 41.0487 36.3189C41.4909 36.6905 41.5934 37.2352 41.2922 37.8184C41.2922 37.8184 41.2922 37.8248 41.2922 37.8312C40.9846 38.3759 40.5681 38.8886 40.049 39.3628C40.0426 39.3628 40.0426 39.3692 40.0362 39.3692C39.6068 39.7281 39.1839 39.9332 38.7737 39.978C38.7225 39.9909 38.6648 39.9909 38.5879 39.9909C38.4085 39.9909 38.229 39.9652 38.0496 39.9075L38.0368 39.8883C37.3959 39.7089 36.3322 39.2603 34.5634 38.2798C33.4099 37.6454 32.4551 36.9981 31.6412 36.3509C31.2119 36.0113 30.7761 35.6332 30.3275 35.1846C30.3147 35.1718 30.2955 35.1525 30.2827 35.1397C30.2698 35.1269 30.2506 35.1077 30.2378 35.0949C30.225 35.082 30.2057 35.0628 30.1929 35.05C30.1801 35.0372 30.1609 35.018 30.1481 35.0051C29.7059 34.5566 29.3214 34.1208 28.9818 33.6914C28.3345 32.884 27.6873 31.9227 27.0528 30.7692C26.0724 28.9941 25.6238 27.9303 25.4443 27.2959L25.4251 27.2831C25.3674 27.1036 25.3418 26.9242 25.3418 26.7447C25.3418 26.6678 25.3418 26.6102 25.3546 26.5589C25.4059 26.1424 25.6109 25.7258 25.9634 25.2965C25.9634 25.29 25.9698 25.29 25.9698 25.2836C26.444 24.7582 26.9567 24.348 27.5014 24.0404C27.5014 24.0404 27.5078 24.0404 27.5142 24.0404C28.091 23.7392 28.6357 23.8418 29.0138 24.2839C29.0138 24.2839 29.7892 25.2131 30.1224 25.6681C30.4365 26.0975 30.8594 26.7768 31.0709 27.1549C31.449 27.8342 31.2119 28.5327 30.8402 28.8211L30.0904 29.417C29.7123 29.7246 29.7636 30.295 29.7636 30.295C29.7636 30.295 30.8722 34.5117 35.0377 35.5691Z" fill="white"/>
</g>
</g>
</svg>
