<svg width="66" height="66" viewBox="0 0 66 66" fill="none" xmlns="http://www.w3.org/2000/svg">
<g id="&#208;&#146;&#208;&#176;&#209;&#130;&#209;&#129;&#208;&#176;&#208;&#191;">
<circle id="Ellipse 14" cx="33" cy="33" r="32.25" stroke="white" stroke-width="1.5"/>
<path id="Vector" d="M44.4315 21.6148C41.6401 18.7646 37.7815 17.2174 33.8407 17.2174C25.4666 17.2174 18.7344 23.9764 18.8165 32.2012C18.8165 34.8071 19.5554 37.3315 20.7869 39.6116L18.6523 47.3478L26.616 45.312C28.8327 46.5335 31.2956 47.1035 33.7586 47.1035C42.0506 47.1035 48.7828 40.3446 48.7828 32.1198C48.7828 28.1295 47.2229 24.3836 44.4315 21.6148ZM33.8407 44.5791C31.624 44.5791 29.4073 44.0091 27.5191 42.869L27.0265 42.6247L22.2647 43.8462L23.4962 39.2045L23.1678 38.7159C19.5554 32.9341 21.2795 25.2793 27.1907 21.6963C33.1018 18.1132 40.737 19.8233 44.3494 25.6865C47.9618 31.5497 46.2377 39.123 40.3266 42.7061C38.4383 43.9276 36.1395 44.5791 33.8407 44.5791ZM41.0654 35.54L40.1624 35.1328C40.1624 35.1328 38.8488 34.5628 38.0278 34.1556C37.9457 34.1556 37.8636 34.0742 37.7815 34.0742C37.5352 34.0742 37.371 34.1556 37.2068 34.237C37.2068 34.237 37.1247 34.3185 35.9753 35.6214C35.8932 35.7843 35.729 35.8657 35.5648 35.8657H35.4827C35.4006 35.8657 35.2364 35.7843 35.1543 35.7028L34.7438 35.54C33.8407 35.1328 33.0197 34.6442 32.3629 33.9927C32.1987 33.8299 31.9524 33.667 31.7882 33.5041C31.2135 32.9341 30.6388 32.2826 30.2283 31.5497L30.1462 31.3869C30.0641 31.3054 30.0641 31.224 29.982 31.0611C29.982 30.8983 29.982 30.7354 30.0641 30.654C30.0641 30.654 30.3925 30.2468 30.6388 30.0025C30.803 29.8396 30.8851 29.5953 31.0493 29.4324C31.2135 29.1881 31.2956 28.8624 31.2135 28.6181C31.1314 28.2109 30.1462 26.0122 29.8999 25.5236C29.7357 25.2793 29.5715 25.1979 29.3252 25.1165H29.079C28.9148 25.1165 28.6685 25.1165 28.4222 25.1165C28.258 25.1165 28.0938 25.1979 27.9296 25.1979L27.8475 25.2793C27.6833 25.3608 27.5191 25.5236 27.3549 25.6051C27.1907 25.7679 27.1086 25.9308 26.9444 26.0937C26.3697 26.8266 26.0413 27.7223 26.0413 28.6181C26.0413 29.2696 26.2055 29.921 26.4518 30.4911L26.5339 30.7354C27.2728 32.2826 28.258 33.667 29.5715 34.8885L29.8999 35.2142C30.1462 35.4585 30.3925 35.6214 30.5567 35.8657C32.2808 37.3315 34.2512 38.3901 36.4679 38.9602C36.7142 39.0416 37.0426 39.0416 37.2889 39.123C37.5352 39.123 37.8636 39.123 38.1099 39.123C38.5204 39.123 39.013 38.9602 39.3414 38.7973C39.5877 38.6344 39.7519 38.6344 39.9161 38.4716L40.0803 38.3087C40.2445 38.1458 40.4087 38.0644 40.5728 37.9015C40.737 37.7387 40.9012 37.5758 40.9833 37.4129C41.1475 37.0872 41.2296 36.68 41.3117 36.2729C41.3117 36.11 41.3117 35.8657 41.3117 35.7028C41.3117 35.7028 41.2296 35.6214 41.0654 35.54Z" fill="white"/>
</g>
</svg>
