<svg width="26" height="26" viewBox="0 0 26 26" fill="none" xmlns="http://www.w3.org/2000/svg">
<path d="M13 22.75C18.3848 22.75 22.75 18.3848 22.75 13C22.75 7.61522 18.3848 3.25 13 3.25C7.61522 3.25 3.25 7.61522 3.25 13C3.25 18.3848 7.61522 22.75 13 22.75Z" stroke="#1F2428" stroke-linecap="round" stroke-linejoin="round"/>
<path d="M21.7514 17.3036L16.238 13.9126C16.1413 13.8531 16.0333 13.8146 15.9209 13.7994L13.6033 13.487C13.4293 13.4636 13.2524 13.4971 13.099 13.5827C12.9457 13.6682 12.8241 13.8011 12.7527 13.9615L11.3614 17.0834C11.2967 17.2285 11.276 17.3895 11.3018 17.5463C11.3277 17.7032 11.399 17.849 11.5069 17.9657L13.4163 20.0309C13.5028 20.1245 13.5662 20.2372 13.6011 20.3598C13.636 20.4825 13.6416 20.6116 13.6174 20.7368L13.2285 22.7474" stroke="#1F2428" stroke-linecap="round" stroke-linejoin="round"/>
<path d="M6.59756 5.64746L5.68917 7.79548C5.60817 7.98701 5.60369 8.2023 5.67665 8.39703L6.84369 11.5118C6.89148 11.6393 6.97057 11.7528 7.07369 11.8418C7.17681 11.9308 7.30064 11.9924 7.43381 12.021L9.61029 12.4888C9.73106 12.5148 9.84432 12.5679 9.94146 12.6443C10.0386 12.7206 10.1171 12.818 10.1709 12.9292L10.5574 13.7277C10.6239 13.8651 10.7278 13.981 10.8571 14.0621C10.9865 14.1432 11.1361 14.1862 11.2887 14.1862H12.653" stroke="#1F2428" stroke-linecap="round" stroke-linejoin="round"/>
<path d="M15.4847 3.56982L16.4326 5.26779C16.5223 5.4283 16.5548 5.61446 16.5249 5.79586C16.4951 5.97725 16.4046 6.14316 16.2682 6.26647L13.5351 8.73825C13.4887 8.7802 13.4376 8.81665 13.3829 8.84689L12.1396 9.53348C12.0193 9.5999 11.8842 9.63473 11.7468 9.63473H9.57889C9.41902 9.63473 9.2627 9.68189 9.12951 9.77031C8.99632 9.85874 8.89217 9.98448 8.83011 10.1318L7.98438 12.1395" stroke="#1F2428" stroke-linecap="round" stroke-linejoin="round"/>
</svg>
