<svg width="300" height="295" viewBox="0 0 300 295" fill="none" xmlns="http://www.w3.org/2000/svg">
<path d="M264.35 253.198C256.637 261.149 249.734 265.822 244.453 269.349C192.924 303.756 134.021 293.839 115.81 290.45C86.4274 284.981 61.6251 281.123 40.3153 261.871C-8.10658 218.123 -5.75151 126.863 31.2491 70.3308C35.6361 63.628 72.5811 8.86553 131.607 1.14878C133.048 0.959388 134.129 0.85234 135.072 0.752497C144.204 -0.214026 200.792 -5.32044 246.935 33.3405C253.54 38.8741 264.17 48.8563 274.027 64.0788C310.072 119.742 310.186 205.953 264.35 253.198Z" fill="#F4F7FA"/>
<path d="M73.1747 149.093C70.4213 155.039 73.045 160.986 75.5637 164.99C76.1648 164.99 76.5137 165.16 77.12 165.309C82.597 166.64 85.1661 165.962 90.7337 166.366C91.9328 166.452 95.4932 165.56 96.9229 165.093L99.5755 164.178C99.5755 164.178 104.283 149.714 96.8859 145.72C89.4892 141.725 92.3219 127.326 92.9416 119.478C94.6245 98.1769 71.605 100.114 71.5792 72.5666C71.572 65.242 74.0084 51.2681 67.8325 45.4329C60.7951 38.7846 55.6578 45.3063 51.133 39.747C44.0616 31.0576 32.5848 27.9408 25.745 36.8835C18.9927 45.7088 27.1964 63.2771 47.5901 77.3972C61.0741 89.1838 61.2799 92.7133 60.2228 101.306C59.4797 107.325 53.7382 123.006 61.9078 129.267C70.0775 135.529 76.3223 142.294 73.1747 149.093Z" fill="url(#paint0_linear_1_2826)"/>
<g style="mix-blend-mode:soft-light" opacity="0.5">
<g style="mix-blend-mode:soft-light" opacity="0.5">
<path d="M87.8335 166.59L88.2401 166.538C87.9375 164.117 87.603 161.678 87.2458 159.29C84.5964 141.609 80.3937 124.814 74.752 109.374C69.9709 96.29 64.0935 83.9918 57.2826 72.8238C51.8056 63.842 45.7007 55.5375 39.1276 48.1409C34.509 42.9408 29.7114 38.2399 24.8695 34.1731C24.0255 33.4629 23.1197 32.7846 22.2499 32.1289C21.0868 31.255 19.8825 30.3502 18.812 29.3662L18.5352 29.6678C19.6221 30.6662 20.8326 31.5761 22.0039 32.4562C22.8727 33.1088 23.7702 33.784 24.606 34.486C29.4325 38.5446 34.2157 43.2352 38.8208 48.4157C45.3744 55.7886 51.4649 64.0756 56.9326 73.0368C63.726 84.1832 69.5931 96.4557 74.3671 109.514C79.9995 124.929 84.196 141.696 86.8403 159.351C87.1974 161.735 87.532 164.175 87.8335 166.59Z" fill="#FCFDFE"/>
</g>
<g style="mix-blend-mode:soft-light" opacity="0.5">
<path d="M64.6555 86.9665L65.0271 86.7926C57.5584 70.8743 64.1161 41.4658 64.1841 41.1714L63.7837 41.0798C63.7127 41.3783 57.1251 70.9196 64.6555 86.9665Z" fill="#FCFDFE"/>
</g>
<g style="mix-blend-mode:soft-light" opacity="0.5">
<path d="M81.6455 133.327L82.0356 133.193C78.2271 121.781 56.8617 112.972 56.6466 112.885L56.4922 113.264C56.7042 113.356 77.8957 122.094 81.6455 133.327Z" fill="#FCFDFE"/>
</g>
<g style="mix-blend-mode:soft-light" opacity="0.5">
<path d="M83.248 139.986L83.6535 139.928C82.5213 132.155 85.1337 120.953 91.0049 108.384C91.3003 107.752 91.3003 107.752 91.29 107.675L90.8834 107.729L91.0893 107.702L90.8916 107.65C90.8772 107.696 90.7661 107.933 90.6364 108.21C84.7292 120.853 82.1055 132.139 83.248 139.986Z" fill="#FCFDFE"/>
</g>
<g style="mix-blend-mode:soft-light" opacity="0.5">
<path d="M87.2194 162.177L87.591 162.004C83.9483 154.159 71.4977 151.063 71.3721 151.033L71.2754 151.43C71.3989 151.46 83.6601 154.511 87.2194 162.177Z" fill="#FCFDFE"/>
</g>
<g style="mix-blend-mode:soft-light" opacity="0.5">
<path d="M88.4529 166.622C89.9969 159.819 93.5439 153.241 99.2978 146.501L98.989 146.235C93.1919 153.029 89.616 159.663 88.0566 166.531L88.4529 166.622Z" fill="#FCFDFE"/>
</g>
<g style="mix-blend-mode:soft-light" opacity="0.5">
<path d="M42.6181 52.8325L42.9784 52.6379C38.332 44.0195 35.45 33.888 34.503 30.5582C34.2735 29.7522 34.1942 29.4692 34.1458 29.3755L33.7773 29.5546C33.8113 29.6266 33.9431 30.0878 34.1088 30.6704C35.0588 34.0105 37.9512 44.1739 42.6181 52.8325Z" fill="#FCFDFE"/>
</g>
<g style="mix-blend-mode:soft-light" opacity="0.5">
<path d="M52.2458 65.7287L52.533 65.4364C45.9897 58.995 27.6288 59.2019 26.8496 59.2132L26.8568 59.6249C27.0452 59.6198 45.8239 59.4077 52.2458 65.7287Z" fill="#FCFDFE"/>
</g>
</g>
<path d="M105.666 200.613L81.7938 208.095C81.7938 208.095 73.4615 197.259 76.603 186.782C83.0115 165.409 63.8395 161.287 56.0744 158.36C44.3567 153.945 37.2287 145.73 46.6047 136.011C57.219 125.015 40.1077 109.97 20.1565 105.562C0.637706 101.249 -2.97106 64.0583 40.1437 69.5024C65.8909 72.7529 69.8466 97.7313 74.8429 109.869C79.8391 122.007 98.7229 117.223 97.148 134.458C95.8038 149.177 88.472 161.905 99.1449 168.391C109.818 174.878 113.776 184.659 105.666 200.613Z" fill="url(#paint1_linear_1_2826)"/>
<g style="mix-blend-mode:soft-light" opacity="0.5">
<g style="mix-blend-mode:soft-light" opacity="0.5">
<path d="M96.0275 206.062L95.5026 206.126C95.4635 205.802 91.3452 173.311 77.5524 142.333C64.8466 113.794 41.085 80.7351 0.0586707 85.3166L0 84.7916C18.2631 82.7567 34.6806 87.8724 48.7976 100.01C60.0747 109.706 69.9129 123.877 78.0393 142.127C91.8619 173.178 95.9874 205.737 96.0275 206.062Z" fill="#BEB8F2"/>
</g>
<g style="mix-blend-mode:soft-light" opacity="0.5">
<path d="M54.4785 105.337L53.9639 105.431C50.8183 88.139 37.0667 66.4803 36.9277 66.2641L37.3642 65.979C37.5072 66.1972 51.3144 87.9414 54.4785 105.337Z" fill="#BEB8F2"/>
</g>
<g style="mix-blend-mode:soft-light" opacity="0.5">
<path d="M44.8497 97.5078C24.5722 92.2583 10.3111 102.295 10.1701 102.397L9.86133 101.969C10.0044 101.866 24.4559 91.6757 44.9825 96.9962L44.8497 97.5078Z" fill="#BEB8F2"/>
</g>
<g style="mix-blend-mode:soft-light" opacity="0.5">
<path d="M85.4667 163.077C72.3842 141.083 38.242 145.384 37.9126 145.454L37.7695 144.947C38.0866 144.844 72.7218 140.617 85.9207 162.807L85.4667 163.077Z" fill="#BEB8F2"/>
</g>
<g style="mix-blend-mode:soft-light" opacity="0.5">
<path d="M82.466 152.956L81.9401 153.007C80.3313 136.758 93.5898 121.073 93.7236 120.917L94.125 121.26C93.9922 121.42 80.8789 136.937 82.466 152.956Z" fill="#BEB8F2"/>
</g>
<g style="mix-blend-mode:soft-light" opacity="0.5">
<path d="M94.7439 201.025C91.1187 192.005 75.6193 188.82 75.4629 188.789L75.5658 188.275C76.2143 188.403 91.5005 191.545 95.2328 200.832L94.7439 201.025Z" fill="#BEB8F2"/>
</g>
<g style="mix-blend-mode:soft-light" opacity="0.5">
<path d="M93.8725 193.321L93.3486 193.391C92.3193 185.774 100.722 174.294 103.483 170.523C103.873 169.99 104.21 169.529 104.254 169.435L104.736 169.652C104.676 169.786 104.453 170.092 103.912 170.835C101.181 174.564 92.8669 185.914 93.8725 193.321Z" fill="#BEB8F2"/>
</g>
</g>
<path d="M83.0648 206.654L83.3324 206.778C88.6426 209.223 94.8761 210.957 102.206 211.425L106.511 211.396C107.804 208.024 108.43 204.585 104.101 203.145C97.3784 200.908 97.578 188.97 99.5718 184.806C102.034 179.651 107.519 167.53 97.1807 163.911C88.5736 160.896 82.4029 160.71 82.1363 149.5C81.8697 138.291 75.9749 131.123 65.8063 131.479C55.1015 131.853 46.7826 117.369 37.8883 121.857C22.3899 129.68 35.4478 154.758 53.7706 162.469C72.0933 170.179 61.2537 176.535 60.4734 185.678C59.4081 198.159 76.3917 196.005 80.7066 201.052C82.1662 202.761 82.8424 204.72 83.0648 206.654Z" fill="url(#paint2_linear_1_2826)"/>
<g style="mix-blend-mode:soft-light" opacity="0.5">
<g style="mix-blend-mode:soft-light" opacity="0.5">
<path d="M93.4067 210.116L93.9038 210.03C87.6024 173.689 63.6946 140.584 31.5101 123.635L31.2754 124.081C63.324 140.959 87.132 173.926 93.4067 210.116Z" fill="#FCFDFE"/>
</g>
<g style="mix-blend-mode:soft-light" opacity="0.5">
<path d="M88.2754 190.598L88.7798 190.611C89.1719 176.121 101.883 165.162 102.012 165.054L101.684 164.669C101.555 164.779 88.6737 175.879 88.2754 190.598Z" fill="#FCFDFE"/>
</g>
<g style="mix-blend-mode:soft-light" opacity="0.5">
<path d="M92.0652 203.463L92.516 203.236C85.8903 190.114 59.2487 187.564 58.978 187.541L58.9316 188.043C59.2003 188.067 85.5661 190.595 92.0652 203.463Z" fill="#FCFDFE"/>
</g>
<g style="mix-blend-mode:soft-light" opacity="0.5">
<path d="M71.2146 158.725L71.6829 158.537C67.3352 147.72 74.7585 131.457 74.8337 131.295L74.3767 131.083C74.2995 131.247 66.7865 147.706 71.2146 158.725Z" fill="#FCFDFE"/>
</g>
<g style="mix-blend-mode:soft-light" opacity="0.5">
<path d="M55.5892 141.273L55.8651 140.851C44.7403 133.591 27.1143 136.957 26.9414 136.993L27.0443 137.488C27.2101 137.453 44.6373 134.127 55.5892 141.273Z" fill="#FCFDFE"/>
</g>
</g>
<path d="M208.659 23.1226V268.183C208.659 271.848 205.528 272.637 201.978 272.753L80.2939 279.046L78.4504 279.106C77.5559 279.138 76.6642 278.989 75.8287 278.668C74.9933 278.347 74.2313 277.861 73.5885 277.238C72.9458 276.615 72.4355 275.869 72.0884 275.044C71.7412 274.219 71.5644 273.332 71.5684 272.437V18.8695C71.5644 17.9744 71.7412 17.0878 72.0884 16.2628C72.4355 15.4377 72.9457 14.6914 73.5885 14.0684C74.2312 13.4455 74.9932 12.9588 75.8287 12.6377C76.6642 12.3166 77.5559 12.1675 78.4504 12.1996L80.9527 12.2819L203.084 21.7804C206.632 21.8967 208.659 19.4542 208.659 23.1226Z" fill="url(#paint3_linear_1_2826)"/>
<path d="M212.449 23.1226V268.183C212.449 271.848 209.549 274.941 205.999 275.058L82.2414 279.106C81.347 279.138 80.4552 278.989 79.6198 278.668C78.7843 278.347 78.0223 277.861 77.3795 277.238C76.7368 276.615 76.2265 275.869 75.8794 275.044C75.5322 274.219 75.3554 273.332 75.3594 272.437V18.8695C75.3554 17.9744 75.5323 17.0878 75.8794 16.2628C76.2265 15.4377 76.7368 14.6914 77.3795 14.0684C78.0222 13.4455 78.7842 12.9588 79.6197 12.6377C80.4552 12.3166 81.3469 12.1675 82.2414 12.1996L206 16.2489C209.549 16.3662 212.449 19.4542 212.449 23.1226Z" fill="url(#paint4_linear_1_2826)"/>
<path d="M208.444 36.594V263.615C208.444 267.036 205.733 269.92 202.416 270.024L86.0501 273.68C85.2167 273.709 84.3862 273.568 83.6083 273.268C82.8304 272.967 82.1211 272.513 81.5228 271.932C80.9246 271.351 80.4497 270.656 80.1267 269.887C79.8036 269.118 79.639 268.292 79.6426 267.458V33.0408C79.6393 32.2064 79.8041 31.3799 80.1271 30.6105C80.4501 29.8411 80.9247 29.1446 81.5227 28.5626C82.1207 27.9806 82.8297 27.525 83.6075 27.2229C84.3854 26.9208 85.2161 26.7784 86.0501 26.8043L202.421 30.201C205.733 30.2946 208.444 33.1726 208.444 36.594Z" fill="url(#paint5_linear_1_2826)"/>
<path d="M147.373 21.8513C147.377 22.1527 147.32 22.4517 147.205 22.7305C147.091 23.0093 146.921 23.262 146.706 23.4736C146.492 23.6851 146.236 23.851 145.956 23.9614C145.675 24.0718 145.375 24.1243 145.074 24.1158C143.804 24.0777 142.774 22.9979 142.774 21.7051C142.77 21.4036 142.827 21.1043 142.941 20.8254C143.056 20.5465 143.226 20.2936 143.441 20.0821C143.656 19.8705 143.911 19.7046 144.192 19.5944C144.473 19.4842 144.773 19.4319 145.074 19.4406C145.694 19.469 146.279 19.7355 146.707 20.1846C147.135 20.6337 147.374 21.2308 147.373 21.8513Z" fill="#DE8BDF"/>
<path d="M197.681 140.768L91.0447 140.636C89.5272 140.631 88.0739 140.024 87.0036 138.948C85.9333 137.872 85.3336 136.416 85.3361 134.899V38.2739C85.3306 37.529 85.4755 36.7907 85.7622 36.1032C86.0489 35.4156 86.4714 34.793 87.0044 34.2727C87.5374 33.7523 88.17 33.3449 88.8643 33.0749C89.5585 32.8049 90.3001 32.6778 91.0447 32.7012L197.681 35.6605C200.666 35.7439 203.08 38.3017 203.08 41.3752V135.209C203.082 138.283 200.665 140.772 197.681 140.768Z" fill="#F4F7FA"/>
<path d="M164.764 129.632L125.186 129.474C124.935 129.471 124.695 129.369 124.519 129.19C124.343 129.011 124.245 128.77 124.246 128.519V116.888C124.245 116.764 124.269 116.641 124.316 116.526C124.363 116.411 124.432 116.307 124.519 116.219C124.607 116.132 124.71 116.062 124.825 116.014C124.939 115.967 125.062 115.942 125.186 115.943L164.764 116.234C165.012 116.238 165.249 116.34 165.423 116.517C165.596 116.695 165.693 116.934 165.69 117.183V128.695C165.692 128.817 165.669 128.939 165.623 129.053C165.577 129.166 165.509 129.27 165.423 129.357C165.337 129.444 165.234 129.514 165.121 129.561C165.008 129.608 164.887 129.632 164.764 129.632Z" fill="#C281E8"/>
<path d="M193.659 84.8761L98.4023 83.4176V45.686L193.659 48.0287V84.8761Z" fill="#D8DEE8"/>
<path d="M193.659 105.002L98.4023 104.026V90.7102L193.659 91.9979V105.002Z" fill="#D8DEE8"/>
<path d="M197.683 260.59L91.0466 263.678C90.3024 263.702 89.5609 263.576 88.8666 263.307C88.1723 263.038 87.5396 262.631 87.0064 262.111C86.4733 261.592 86.0506 260.969 85.7639 260.282C85.4772 259.595 85.3324 258.857 85.3381 258.112V161.492C85.3361 159.974 85.9358 158.517 87.0057 157.44C88.0757 156.364 89.5287 155.755 91.0466 155.747L197.683 155.483C200.668 155.475 203.082 157.961 203.082 161.034V254.868C203.084 257.945 200.667 260.503 197.683 260.59Z" fill="#F4F7FA"/>
<path d="M182.87 225.37L106.552 226.898C106.309 226.903 106.067 226.86 105.84 226.769C105.614 226.679 105.408 226.545 105.235 226.374C105.062 226.202 104.924 225.998 104.831 225.773C104.738 225.548 104.691 225.307 104.693 225.063V169.599C104.692 169.103 104.886 168.626 105.235 168.274C105.583 167.921 106.057 167.72 106.552 167.715L182.87 167.303C183.107 167.305 183.342 167.353 183.56 167.446C183.779 167.539 183.977 167.673 184.143 167.843C184.309 168.012 184.44 168.213 184.529 168.433C184.617 168.653 184.661 168.889 184.659 169.126V223.497C184.659 224.511 183.858 225.35 182.87 225.37Z" fill="#D8DEE8"/>
<path d="M164.766 249.68L125.188 250.709C125.065 250.713 124.942 250.691 124.828 250.645C124.713 250.6 124.609 250.532 124.521 250.446C124.434 250.359 124.364 250.256 124.317 250.142C124.27 250.028 124.247 249.906 124.248 249.783V238.152C124.248 237.899 124.346 237.657 124.521 237.475C124.696 237.293 124.935 237.187 125.188 237.178L164.766 236.282C164.888 236.279 165.009 236.301 165.122 236.346C165.236 236.391 165.339 236.459 165.425 236.545C165.512 236.631 165.58 236.734 165.626 236.847C165.672 236.96 165.694 237.081 165.692 237.203V248.716C165.693 248.965 165.597 249.205 165.424 249.385C165.251 249.565 165.015 249.671 164.766 249.68Z" fill="#C281E8"/>
<path d="M145.073 201.025C144.685 201.027 144.308 200.898 144.003 200.659L102.232 168.807C101.282 168.087 100.997 166.563 101.606 165.411C102.216 164.258 103.468 163.916 104.417 164.641L145.111 195.726L187.989 164.207C188.916 163.526 190.113 163.899 190.665 165.041C191.218 166.184 190.907 167.66 189.981 168.342L146.093 200.662C145.8 200.888 145.443 201.015 145.073 201.025Z" fill="#F4F7FA"/>
<g style="mix-blend-mode:multiply" opacity="0.5">
<path d="M212.451 38.208C207.406 38.8295 202.422 39.8717 197.551 41.3237C188.708 43.9619 166.538 50.5752 154.648 69.2181C140.81 90.9118 148.564 116.875 150.436 123.132C156.628 143.863 172.24 162.282 181.183 172.835C191.665 185.201 196.211 187.592 197.189 195.48C198.76 208.115 188.614 214.301 188.019 234.378C187.899 238.399 187.782 243.964 189.935 250.611C194.146 263.617 203.934 271.146 208.735 274.334C209.973 195.623 211.212 116.914 212.451 38.208Z" fill="#D8DEE8"/>
</g>
<path d="M226.879 129.254C237.116 124.254 257.083 142.363 266.8 159.708C270.672 166.62 275.219 174.736 274.103 184.383C272.126 201.486 253.153 216.489 227.038 221.498C226.303 218.872 225.568 216.246 224.832 213.62C227.687 210.647 231.958 206.353 237.415 201.434C245.798 193.878 247.52 193.374 247.923 190.989C249.239 183.174 229.144 176.632 221.996 162.889C215.851 151.08 219.014 133.09 226.879 129.254Z" fill="url(#paint6_linear_1_2826)"/>
<path d="M240.328 266.722C240.328 266.722 238.647 270.869 239.483 272.493C240.36 274.197 242.897 273.69 250.039 273.959C257.347 274.233 259.006 274.82 259.303 274.085C259.887 272.617 254.204 267.954 247.557 266.722C245.167 266.288 242.718 266.288 240.328 266.722Z" fill="url(#paint7_linear_1_2826)"/>
<path d="M241.834 260.524L245.811 266.723C245.811 266.723 243.978 268.531 240.865 267.855L236.49 261.983L241.834 260.524Z" fill="url(#paint8_linear_1_2826)"/>
<path style="mix-blend-mode:multiply" opacity="0.3" d="M221.997 162.893C215.852 151.08 219.012 133.094 226.88 129.254C228.939 128.247 231.403 128.19 234.092 128.864C232.676 132.952 232.959 135.908 233.655 138.002C236.771 147.34 250.241 146.277 254.447 156.906C257.108 163.625 252.877 166.959 256.653 172.346C260.564 177.928 266.965 176.992 268.941 182.433C270.414 186.484 267.509 188.788 268.626 192.2C268.935 193.151 269.552 194.106 270.582 195.013C263.661 207.46 247.556 217.567 227.037 221.503C226.302 218.876 225.566 216.251 224.831 213.625C227.686 210.652 231.957 206.358 237.414 201.439C245.797 193.883 247.519 193.379 247.921 190.994C249.24 183.174 229.145 176.63 221.997 162.893Z" fill="url(#paint9_linear_1_2826)"/>
<path d="M233.864 132.96C233.421 150.863 233.67 170.222 234.966 190.827C236.488 215.032 239.34 239.134 243.51 263.025L238.462 264.636C221.142 247.755 215.958 232.915 214.54 222.236C213.536 214.688 215.055 214.038 213.701 204.591C211.128 186.6 204.397 180.438 199.675 163.596C197.902 157.274 195.929 147.724 196.055 135.274L233.864 132.96Z" fill="url(#paint10_linear_1_2826)"/>
<path d="M246.271 100.893C245.957 100.965 244.591 101.419 244.052 107.124C242.75 120.878 249.911 126.447 248.148 133.905C246.456 141.065 237.823 144.539 228.938 148.11C223.001 150.5 204.636 157.888 193.955 149.58C189.46 146.08 188.968 141.86 185.762 126.34C177.614 86.906 174.458 83.5206 177.885 74.9773C183.769 60.3178 199.525 54.2469 202.146 53.2372C230.098 42.4757 263.105 62.2735 276.148 85.011C277.866 88.0053 288.122 105.889 280.916 114.371C276.556 119.502 266.537 120.331 259.925 116.831C251.092 112.156 249.215 100.219 246.271 100.893Z" fill="url(#paint11_linear_1_2826)"/>
<path d="M276.821 111.324C276.911 111.324 277.001 111.305 277.083 111.268C277.234 111.198 277.352 111.07 277.409 110.914C277.467 110.758 277.461 110.585 277.392 110.433C277.152 109.909 271.382 97.5253 258.049 92.6391C257.971 92.6076 257.887 92.5921 257.802 92.5936C257.718 92.5951 257.635 92.6136 257.557 92.6479C257.48 92.6823 257.411 92.7318 257.353 92.7935C257.296 92.8552 257.251 92.9279 257.222 93.0072C257.193 93.0865 257.18 93.1708 257.184 93.2552C257.189 93.3395 257.21 93.4221 257.247 93.4981C257.283 93.5741 257.335 93.6419 257.399 93.6975C257.462 93.7531 257.536 93.7954 257.617 93.8218C270.441 98.5227 276.187 110.832 276.247 110.956C276.297 111.066 276.378 111.159 276.48 111.224C276.582 111.29 276.7 111.324 276.821 111.324Z" fill="url(#paint12_linear_1_2826)"/>
<path d="M224.477 97.1816C224.55 96.6123 225.128 92.6834 228.408 91.4246C230.039 90.7988 232.907 90.6155 234.024 92.4076C234.725 93.5326 234.664 95.3205 233.743 96.1986C232.579 97.3071 231.062 95.9927 228.97 96.9005C226.455 97.9957 226.047 101.033 225.179 100.832C224.494 100.673 224.288 98.6844 224.477 97.1816Z" fill="url(#paint13_linear_1_2826)"/>
<path style="mix-blend-mode:multiply" opacity="0.3" d="M196.16 69.945C197.925 74.7467 192.632 78.9092 194.9 84.1227C198.152 91.5965 211.075 87.7603 215.693 95.1507C221.168 103.91 208.628 118.276 213.802 123.193C216.16 125.434 218.883 122.564 225.775 124.138C235.59 126.38 238.538 134.137 243.104 132.96C244.54 132.591 246.281 131.287 247.745 127.275C248.383 129.501 248.687 131.614 248.146 133.905C246.453 141.065 237.821 144.539 228.936 148.11C222.998 150.5 204.634 157.888 193.954 149.58C189.459 146.08 188.966 141.86 185.76 126.34C177.612 86.906 174.456 83.5206 177.883 74.9773C179.751 70.3227 182.618 66.5369 185.739 63.5015C192.473 64.996 195.237 67.4304 196.16 69.945Z" fill="url(#paint14_linear_1_2826)"/>
<path d="M224.272 93.4801C223.518 94.1656 215.062 103.247 205.863 100.948C197.853 98.9447 192.934 91.1559 192.07 84.6022C190.021 69.0164 210.327 55.9338 207.819 52.779C206.347 50.9262 198.506 54.3662 193.01 57.8226C188.504 60.6543 169.619 72.5212 170.125 92.4188C170.177 94.4373 170.502 107.233 178.97 113.623C190.407 122.247 208.082 122.018 226.965 101.168L224.272 93.4801Z" fill="url(#paint15_linear_1_2826)"/>
<path d="M265.556 74.3831L256.451 103.466C256.305 103.93 256.019 104.338 255.632 104.633C255.245 104.928 254.776 105.096 254.29 105.113L242.385 106.845C242.026 106.857 241.669 106.788 241.342 106.642C241.014 106.496 240.724 106.277 240.494 106.001C240.264 105.726 240.1 105.402 240.014 105.054C239.928 104.705 239.923 104.342 239.999 103.991L248.027 74.2215C248.139 73.7085 248.419 73.2475 248.823 72.9118C249.227 72.5761 249.731 72.385 250.256 72.3688L263.238 71.324C263.613 71.3129 263.986 71.3917 264.324 71.5539C264.663 71.716 264.958 71.9568 265.185 72.2562C265.412 72.5555 265.564 72.9047 265.628 73.2747C265.693 73.6447 265.668 74.0247 265.556 74.3831Z" fill="url(#paint16_linear_1_2826)"/>
<path d="M265.12 75.3395L256.283 103.566C256.142 104.018 255.864 104.414 255.488 104.701C255.111 104.988 254.655 105.151 254.182 105.168L243.721 106.848C243.373 106.86 243.026 106.793 242.708 106.651C242.39 106.509 242.109 106.296 241.885 106.029C241.662 105.762 241.503 105.447 241.42 105.109C241.336 104.771 241.332 104.418 241.406 104.078L249.247 75.1697C249.355 74.6715 249.626 74.2237 250.018 73.8975C250.409 73.5713 250.899 73.3854 251.408 73.3694L262.866 72.371C263.23 72.3596 263.592 72.4356 263.922 72.5927C264.251 72.7498 264.538 72.9833 264.758 73.2738C264.979 73.5644 265.127 73.9035 265.19 74.2628C265.253 74.6222 265.229 74.9913 265.12 75.3395Z" fill="url(#paint17_linear_1_2826)"/>
<path style="mix-blend-mode:multiply" opacity="0.3" d="M241.406 104.078L248.897 76.4583C249.655 76.8164 250.365 77.2688 251.01 77.8046C253.961 80.3346 255.652 84.9161 254.677 88.5794C253.434 93.2525 248.668 93.3966 248.008 97.2843C247.493 100.328 249.964 103.55 251.999 105.519L243.721 106.849C243.373 106.861 243.026 106.794 242.708 106.652C242.39 106.51 242.109 106.297 241.885 106.03C241.662 105.762 241.503 105.448 241.419 105.109C241.336 104.771 241.332 104.418 241.406 104.078Z" fill="url(#paint18_linear_1_2826)"/>
<path d="M230.96 50.4435C230.836 50.8769 230.801 51.3309 230.856 51.7783C230.912 52.2256 231.058 52.6571 231.284 53.0468C231.511 53.4365 231.814 53.7764 232.175 54.0461C232.537 54.3158 232.949 54.5097 233.387 54.6163C235.625 55.1567 238.351 55.904 239.529 56.572C241.69 57.8072 232.941 56.3805 224.903 56.1911C219.881 56.0738 216.129 55.5097 214.018 55.1032C213.897 55.0792 213.787 55.0155 213.706 54.9222C213.624 54.8289 213.576 54.7113 213.569 54.5877C213.562 54.4642 213.596 54.3418 213.666 54.2399C213.737 54.1379 213.839 54.0621 213.956 54.0244C215.967 53.3708 219.234 52.4084 221.995 52.0605C225.415 51.6313 229.081 44.0864 229.081 44.0864L232.007 46.7534L230.96 50.4435Z" fill="url(#paint19_linear_1_2826)"/>
<path d="M260.062 95.1085L259.507 94.1996C259.269 93.2866 258.707 92.4911 257.927 91.961C257.147 91.4309 256.2 91.2022 255.264 91.3175L252.342 91.6778C252.125 91.7045 251.917 91.776 251.73 91.8875C251.543 91.999 251.381 92.1482 251.255 92.3256C251.128 92.503 251.04 92.7047 250.996 92.918C250.951 93.1313 250.952 93.3514 250.997 93.5645C251.269 94.8676 251.969 96.4281 253.764 96.3066C256.813 96.1007 258.762 100.545 258.762 100.545L259.932 98.8984C260.323 98.3491 260.543 97.6969 260.567 97.0231C260.59 96.3493 260.415 95.6835 260.062 95.1085Z" fill="url(#paint20_linear_1_2826)"/>
<path d="M237.49 46.5764C240.017 46.2017 242.848 44.0782 242.792 42.3222C242.717 39.9105 237.202 38.5889 234.418 37.9219C231.634 37.2549 230.44 37.4947 229.641 38.103C228.824 38.7258 228.287 39.8385 228.111 40.7988C228.016 41.3217 228.008 42.0412 228.1 43.475C228.18 44.7483 228.157 44.6917 228.189 45.0684C228.269 45.9711 228.516 47.5593 229.396 49.7621C229.844 49.2683 230.334 48.8147 230.862 48.4065C231.097 48.2243 232.031 47.5182 233.092 47.091C234.913 46.3592 235.956 46.8038 237.49 46.5764Z" fill="url(#paint21_linear_1_2826)"/>
<path d="M228.051 47.3083C228.051 47.3083 228.214 50.8285 231.531 52.3746C234.501 53.758 238.442 47.5574 237.359 45.189C236.996 44.3995 235.876 43.5421 234.729 43.2745C234.05 43.117 233.718 43.2518 232.615 42.9739C231.598 42.7176 231.4 42.4809 231.008 42.5622C230.516 42.6651 229.89 43.2199 229.422 45.4072C229.179 44.5539 228.637 43.9816 228.053 43.9466C227.846 43.9452 227.643 44.0016 227.467 44.1092C226.663 44.6218 226.821 45.928 228.051 47.3083Z" fill="url(#paint22_linear_1_2826)"/>
<defs>
<linearGradient id="paint0_linear_1_2826" x1="36.9217" y1="28.6232" x2="109.478" y2="187.28" gradientUnits="userSpaceOnUse">
<stop stop-color="#AA80F9"/>
<stop offset="1" stop-color="#6165D7"/>
</linearGradient>
<linearGradient id="paint1_linear_1_2826" x1="21.6489" y1="75.0521" x2="111.428" y2="194.584" gradientUnits="userSpaceOnUse">
<stop stop-color="#E38DDD"/>
<stop offset="1" stop-color="#9571F6"/>
</linearGradient>
<linearGradient id="paint2_linear_1_2826" x1="51.4721" y1="127.109" x2="102.192" y2="215.044" gradientUnits="userSpaceOnUse">
<stop stop-color="#FFC444"/>
<stop offset="1" stop-color="#F36F56"/>
</linearGradient>
<linearGradient id="paint3_linear_1_2826" x1="237.258" y1="231.478" x2="119.989" y2="131.443" gradientUnits="userSpaceOnUse">
<stop stop-color="#444B8C"/>
<stop offset="1" stop-color="#26264F"/>
</linearGradient>
<linearGradient id="paint4_linear_1_2826" x1="707511" y1="229330" x2="718518" y2="-346797" gradientUnits="userSpaceOnUse">
<stop stop-color="#444B8C"/>
<stop offset="1" stop-color="#26264F"/>
</linearGradient>
<linearGradient id="paint5_linear_1_2826" x1="79.6375" y1="150.242" x2="208.444" y2="150.242" gradientUnits="userSpaceOnUse">
<stop stop-color="#FF9085"/>
<stop offset="1" stop-color="#FB6FBB"/>
</linearGradient>
<linearGradient id="paint6_linear_1_2826" x1="274.275" y1="174.953" x2="218.763" y2="174.953" gradientUnits="userSpaceOnUse">
<stop stop-color="#444B8C"/>
<stop offset="1" stop-color="#3E4177"/>
</linearGradient>
<linearGradient id="paint7_linear_1_2826" x1="47366.3" y1="17936.8" x2="47635.9" y2="21916.1" gradientUnits="userSpaceOnUse">
<stop stop-color="#444B8C"/>
<stop offset="1" stop-color="#26264F"/>
</linearGradient>
<linearGradient id="paint8_linear_1_2826" x1="236.396" y1="234.585" x2="243.643" y2="279.955" gradientUnits="userSpaceOnUse">
<stop stop-color="#311944"/>
<stop offset="1" stop-color="#A03976"/>
</linearGradient>
<linearGradient id="paint9_linear_1_2826" x1="33193.6" y1="158350" x2="61139" y2="158350" gradientUnits="userSpaceOnUse">
<stop stop-color="#444B8C"/>
<stop offset="1" stop-color="#3E4177"/>
</linearGradient>
<linearGradient id="paint10_linear_1_2826" x1="44582" y1="254445" x2="66467.6" y2="254445" gradientUnits="userSpaceOnUse">
<stop stop-color="#444B8C"/>
<stop offset="1" stop-color="#3E4177"/>
</linearGradient>
<linearGradient id="paint11_linear_1_2826" x1="-131637" y1="39303" x2="-98135.6" y2="162917" gradientUnits="userSpaceOnUse">
<stop stop-color="#FFC444"/>
<stop offset="1" stop-color="#F36F56"/>
</linearGradient>
<linearGradient id="paint12_linear_1_2826" x1="-14014.2" y1="18146.6" x2="-15034.1" y2="21727.6" gradientUnits="userSpaceOnUse">
<stop stop-color="#FFC444"/>
<stop offset="1" stop-color="#F36F56"/>
</linearGradient>
<linearGradient id="paint13_linear_1_2826" x1="22045.3" y1="8232.44" x2="22843" y2="9611.13" gradientUnits="userSpaceOnUse">
<stop stop-color="#311944"/>
<stop offset="1" stop-color="#A03976"/>
</linearGradient>
<linearGradient id="paint14_linear_1_2826" x1="-102222" y1="39095.4" x2="-66077.7" y2="142022" gradientUnits="userSpaceOnUse">
<stop stop-color="#FFC444"/>
<stop offset="1" stop-color="#F36F56"/>
</linearGradient>
<linearGradient id="paint15_linear_1_2826" x1="218.268" y1="103.63" x2="134.506" y2="34.7867" gradientUnits="userSpaceOnUse">
<stop stop-color="#FFC444"/>
<stop offset="0.26" stop-color="#FFC145"/>
<stop offset="0.46" stop-color="#FDB747"/>
<stop offset="0.65" stop-color="#FBA64A"/>
<stop offset="0.82" stop-color="#F78F4F"/>
<stop offset="0.99" stop-color="#F37056"/>
<stop offset="1" stop-color="#F36F56"/>
</linearGradient>
<linearGradient id="paint16_linear_1_2826" x1="68009.2" y1="35608.9" x2="58896.6" y2="30637.7" gradientUnits="userSpaceOnUse">
<stop stop-color="#444B8C"/>
<stop offset="1" stop-color="#26264F"/>
</linearGradient>
<linearGradient id="paint17_linear_1_2826" x1="-18962.5" y1="27079.7" x2="-24493.9" y2="33984.6" gradientUnits="userSpaceOnUse">
<stop stop-color="#444B8C"/>
<stop offset="1" stop-color="#26264F"/>
</linearGradient>
<linearGradient id="paint18_linear_1_2826" x1="31844.4" y1="21610" x2="41164.6" y2="31708.6" gradientUnits="userSpaceOnUse">
<stop stop-color="#444B8C"/>
<stop offset="1" stop-color="#26264F"/>
</linearGradient>
<linearGradient id="paint19_linear_1_2826" x1="29926.6" y1="3574.27" x2="29675.5" y2="7911.23" gradientUnits="userSpaceOnUse">
<stop stop-color="#311944"/>
<stop offset="1" stop-color="#A03976"/>
</linearGradient>
<linearGradient id="paint20_linear_1_2826" x1="7643.04" y1="8717.04" x2="8539.26" y2="8717.04" gradientUnits="userSpaceOnUse">
<stop stop-color="#311944"/>
<stop offset="1" stop-color="#A03976"/>
</linearGradient>
<linearGradient id="paint21_linear_1_2826" x1="34703.3" y1="3222.65" x2="34159.8" y2="5171.08" gradientUnits="userSpaceOnUse">
<stop stop-color="#444B8C"/>
<stop offset="1" stop-color="#26264F"/>
</linearGradient>
<linearGradient id="paint22_linear_1_2826" x1="11802.7" y1="3216.99" x2="11448.5" y2="4150.84" gradientUnits="userSpaceOnUse">
<stop stop-color="#311944"/>
<stop offset="1" stop-color="#A03976"/>
</linearGradient>
</defs>
</svg>
