<svg width="300" height="294" viewBox="0 0 300 294" fill="none" xmlns="http://www.w3.org/2000/svg">
<path d="M272.104 229.954C211.6 307.339 69.92 308.582 30.6972 265.596C15.0436 248.443 10.9099 218.982 4.83437 175.706C1.90963 154.875 1.49135 138.082 1.24234 126.56C0.386109 87.3704 -0.0398226 67.7753 6.26834 54.4426C24.3399 16.2802 87.1156 1.42719 127.692 0.739147C130.524 0.690365 133.381 0.708931 136.262 0.794846C183.769 2.21462 237.385 21.9888 270.451 64.2477C273.906 68.6569 277.097 73.2668 280.007 78.0534C310.188 127.688 305.11 187.737 272.104 229.954Z" fill="#F4F7FA"/>
<path d="M126.268 233.013C136.959 225.464 138.87 205.687 136.252 192.415C133.194 176.919 125.192 176.509 123.754 164.273C121.073 141.491 147.72 133.571 146.84 110.382C146.12 91.4245 128.039 89.522 128.197 68.4951C128.312 53.3211 137.782 47.0162 133.528 33.7752C133.164 32.6437 129.068 20.4926 118.69 17.6531C108.216 14.7862 97.4692 23.0821 92.1516 29.7637C82.3224 42.1158 89.5993 50.796 83.3261 69.7118C74.7867 95.4654 56.2511 94.6179 53.8822 114.88C51.9262 131.613 64.1144 136.05 61.5763 154.558C59.2206 171.746 47.8547 174.166 47.3786 185.881C46.2821 212.83 104.46 248.412 126.268 233.013Z" fill="url(#paint0_linear_1_3033)"/>
<g style="mix-blend-mode:soft-light" opacity="0.7">
<g style="mix-blend-mode:soft-light" opacity="0.7">
<path d="M110.852 245.673C110.787 245.673 110.722 245.655 110.666 245.622C100.631 239.724 92.2682 231.992 85.8115 222.63C79.688 213.749 73.3558 204.568 73.8669 193.085C74.2557 184.348 78.3206 179.68 83.4678 173.77C88.3748 168.137 94.482 161.124 98.7577 148.138C101.196 140.726 104.233 131.5 101.892 120.456C100.533 114.046 98.0259 110.418 95.8122 107.218C93.487 103.862 91.4884 100.972 91.8718 96.006C92.4845 88.0509 96.7329 82.9703 101.652 77.0881C104.636 73.5201 107.721 69.8309 110.426 65.0397C118.031 51.5716 118.233 33.44 111.026 11.1474C111.011 11.1014 111.005 11.053 111.009 11.0048C111.013 10.9567 111.026 10.9098 111.048 10.8668C111.07 10.8238 111.1 10.7855 111.137 10.7542C111.174 10.7229 111.217 10.6991 111.263 10.6843C111.309 10.6695 111.357 10.6638 111.405 10.6677C111.453 10.6716 111.5 10.6849 111.543 10.7069C111.586 10.7289 111.624 10.7592 111.656 10.796C111.687 10.8327 111.711 10.8753 111.726 10.9213C118.998 33.4192 118.776 51.7474 111.07 65.4012C108.331 70.2514 105.225 73.9668 102.224 77.5588C97.3849 83.3471 93.2064 88.3415 92.6133 96.0617C92.2508 100.768 94.091 103.429 96.4216 106.8C98.6736 110.057 101.227 113.749 102.616 120.303C104.997 131.542 101.927 140.871 99.461 148.371C95.1416 161.498 88.9765 168.575 84.0292 174.254C78.977 180.054 74.9863 184.637 74.6085 193.117C74.1094 204.354 80.3695 213.431 86.4242 222.211C92.8198 231.486 101.104 239.149 111.046 244.988C111.116 245.029 111.17 245.092 111.2 245.167C111.23 245.241 111.235 245.324 111.214 245.402C111.193 245.48 111.147 245.548 111.083 245.597C111.019 245.646 110.94 245.673 110.86 245.673H110.852Z" fill="white"/>
</g>
</g>
<g style="mix-blend-mode:soft-light" opacity="0.7">
<g style="mix-blend-mode:soft-light" opacity="0.7">
<path d="M102.996 126.075C102.922 126.074 102.849 126.052 102.788 126.009C102.726 125.967 102.68 125.907 102.653 125.838C102.627 125.768 102.622 125.692 102.639 125.62C102.657 125.547 102.696 125.482 102.751 125.432C119.757 110.238 127.747 96.1404 131.455 86.9894C135.472 77.0794 135.469 70.6785 135.468 70.6151C135.468 70.5668 135.477 70.5189 135.495 70.4742C135.513 70.4294 135.54 70.3887 135.574 70.3543C135.608 70.3199 135.648 70.2925 135.693 70.2737C135.737 70.255 135.785 70.2452 135.833 70.2449C135.93 70.2446 136.023 70.2827 136.092 70.3508C136.161 70.4189 136.2 70.5116 136.201 70.6086C136.201 70.8729 136.211 77.1854 132.153 87.2177C128.418 96.4517 120.37 110.672 103.238 125.981C103.172 126.04 103.085 126.073 102.996 126.075Z" fill="white"/>
</g>
</g>
<g style="mix-blend-mode:soft-light" opacity="0.7">
<g style="mix-blend-mode:soft-light" opacity="0.7">
<path d="M94.8158 158.928C94.731 158.928 94.6488 158.899 94.5832 158.845C85.0903 151.091 77.8735 142.293 73.1304 132.698C69.3509 125.081 67.1019 116.796 66.511 108.313C65.4986 93.8392 69.6378 83.3722 69.6782 83.2684C69.6962 83.2237 69.7229 83.1829 69.7568 83.1485C69.7906 83.1141 69.8309 83.0867 69.8753 83.0678C69.9197 83.0489 69.9674 83.039 70.0156 83.0386C70.0639 83.0382 70.1118 83.0472 70.1565 83.0653C70.2013 83.0834 70.242 83.1101 70.2764 83.1439C70.3109 83.1777 70.3383 83.218 70.3572 83.2624C70.376 83.3068 70.386 83.3545 70.3864 83.4028C70.3868 83.451 70.3777 83.4989 70.3597 83.5437C70.3182 83.6463 66.2369 93.9834 67.246 108.297C68.1765 121.496 73.7551 140.882 95.0451 158.276C95.1055 158.324 95.1494 158.389 95.1707 158.463C95.192 158.536 95.1897 158.615 95.164 158.687C95.1383 158.76 95.0906 158.822 95.0275 158.866C94.9645 158.91 94.8893 158.933 94.8125 158.931L94.8158 158.928Z" fill="white"/>
</g>
</g>
<g style="mix-blend-mode:soft-light" opacity="0.7">
<g style="mix-blend-mode:soft-light" opacity="0.7">
<path d="M79.2809 213.209C79.1926 213.209 79.1073 213.177 79.0406 213.119C78.974 213.061 78.9304 212.981 78.9178 212.894C78.9052 212.806 78.9245 212.717 78.9721 212.643C79.0197 212.568 79.0925 212.514 79.1771 212.488C104.251 205.132 117.328 191.765 123.881 181.848C130.973 171.117 132.159 162.031 132.171 161.94C132.187 161.848 132.239 161.765 132.314 161.709C132.39 161.653 132.484 161.628 132.578 161.639C132.671 161.651 132.757 161.698 132.817 161.77C132.877 161.843 132.907 161.936 132.9 162.03C132.888 162.123 131.679 171.381 124.491 182.253C117.869 192.273 104.668 205.775 79.3803 213.194C79.348 213.203 79.3145 213.209 79.2809 213.209Z" fill="white"/>
</g>
</g>
<g style="mix-blend-mode:soft-light" opacity="0.7">
<g style="mix-blend-mode:soft-light" opacity="0.7">
<path d="M111.584 63.0367C111.533 63.0366 111.483 63.026 111.436 63.0055C111.39 62.985 111.348 62.9551 111.313 62.9176C96.9725 47.3668 95.2262 31.1366 96.2855 20.2655C97.4345 8.48796 102.042 0.267474 102.089 0.185564C102.141 0.109223 102.22 0.0551683 102.31 0.0341154C102.399 0.0130626 102.494 0.026549 102.574 0.0719011C102.655 0.117253 102.715 0.191159 102.744 0.278967C102.772 0.366775 102.767 0.462073 102.728 0.545967C102.682 0.626785 98.1411 8.73696 97.0151 20.3638C95.9754 31.0809 97.7064 47.0752 111.854 62.4109C111.903 62.4633 111.935 62.5288 111.947 62.5993C111.959 62.6699 111.95 62.7424 111.922 62.808C111.893 62.8736 111.846 62.9293 111.786 62.9684C111.726 63.0075 111.656 63.0282 111.584 63.028V63.0367Z" fill="white"/>
</g>
</g>
<path d="M98.5942 286.633C101.309 287.019 107.555 285.463 109.016 284.386C118.736 277.219 137.816 264.983 140.485 252.495C140.941 250.363 132.1 245.825 131.318 243.54C126.384 239.281 124.408 238.107 121.707 231.752C113.734 212.989 149.587 191.792 119.96 172.68C98.2579 158.681 75.9336 161.322 88.6722 125.152C101.411 88.9814 90.7243 13.6986 44.6801 28.6706C18.2505 37.2635 32.2811 74.8886 14.3952 94.8451C-2.60161 113.809 1.71886 134.479 21.4275 154.118C41.1361 173.758 25.8626 180.455 13.3075 199.47C-1.77378 222.311 35.6033 237.415 53.4466 242.917C67.8212 247.347 101.428 268.326 98.5942 286.633Z" fill="url(#paint1_linear_1_3033)"/>
<g style="mix-blend-mode:soft-light" opacity="0.7">
<g style="mix-blend-mode:soft-light" opacity="0.7">
<path d="M124.13 269.409L124.516 268.973C57.1587 209.551 32.3553 116.605 58.1667 20.342L57.6032 20.1902C45.3713 65.8118 44.5271 112.469 55.1645 155.116C66.3479 199.951 90.1968 239.473 124.13 269.409Z" fill="#FCFDFE"/>
</g>
<g style="mix-blend-mode:soft-light" opacity="0.7">
<path d="M5.94918 208.245C30.4894 207.075 68.1811 217.267 89.9702 230.961L90.2804 230.467C68.405 216.717 30.5626 206.486 5.92188 207.659L5.94918 208.245Z" fill="#FCFDFE"/>
</g>
<g style="mix-blend-mode:soft-light" opacity="0.7">
<path d="M111.041 257.592L111.534 257.279C104.348 245.996 103.141 231.513 107.949 214.233C111.475 201.564 118.091 187.711 127.617 173.059L127.127 172.741C117.57 187.439 110.929 201.344 107.388 214.072C102.534 231.523 103.762 246.167 111.041 257.592Z" fill="#FCFDFE"/>
</g>
<g style="mix-blend-mode:soft-light" opacity="0.7">
<path d="M53.8901 149.004L54.398 148.716C41.9477 126.751 18.042 115.194 0.181294 109.367L0 109.922C17.7624 115.717 41.5316 127.201 53.8901 149.004Z" fill="#FCFDFE"/>
</g>
<g style="mix-blend-mode:soft-light" opacity="0.7">
<path d="M47.6719 91.5403L48.2442 91.6495C53.814 63.7553 76.2027 44.003 89.0527 34.7112L88.7109 34.2383C75.7932 43.5847 53.28 63.4528 47.6719 91.5403Z" fill="#FCFDFE"/>
</g>
</g>
<path d="M297.842 269.049L8.93164 266.537V273.982C8.93164 276.004 10.1909 277.722 11.8979 278.023L93.5894 292.684C94.5562 292.858 95.5418 292.905 96.5207 292.822L294.699 276.106C296.468 275.957 297.839 274.233 297.839 272.157L297.842 269.049Z" fill="url(#paint2_linear_1_3033)"/>
<path d="M204.836 256.979L12.1099 270.601C8.66093 270.844 5.85742 268.255 5.85742 264.813V127.039C5.86205 125.385 6.52315 123.8 7.69549 122.633C8.86784 121.465 10.4556 120.811 12.1099 120.814H204.836C207.676 120.814 209.969 123.334 209.969 126.443V250.988C209.975 254.098 207.678 256.78 204.836 256.979Z" fill="url(#paint3_linear_1_3033)"/>
<path d="M207.91 256.979L15.1802 270.601C11.7312 270.844 8.92773 268.255 8.92773 264.813V127.039C8.93236 125.385 9.59346 123.8 10.7658 122.633C11.9381 121.465 13.5259 120.811 15.1802 120.814H207.91C210.749 120.814 213.043 123.334 213.043 126.443V250.988C213.048 254.098 210.752 256.78 207.91 256.979Z" fill="url(#paint4_linear_1_3033)"/>
<path d="M201.907 248.2L22.4016 260.03C19.5948 260.216 17.3145 258.089 17.3145 255.283V134.66C17.3165 133.31 17.8525 132.015 18.8056 131.059C19.7587 130.102 21.0514 129.562 22.4016 129.555L201.907 128.813C204.25 128.803 206.146 130.868 206.146 133.425V243.293C206.146 245.848 204.25 248.045 201.907 248.2Z" fill="url(#paint5_linear_1_3033)"/>
<path d="M118.352 124.581C118.352 125.861 117.361 126.901 116.135 126.906C114.91 126.91 113.914 125.871 113.914 124.589C113.914 123.307 114.909 122.265 116.135 122.264C117.362 122.263 118.352 123.302 118.352 124.581Z" fill="white"/>
<g style="mix-blend-mode:soft-light" opacity="0.48">
<path d="M161.476 219.191C146.623 211.197 134.938 221.326 123.662 211.328C116.827 205.268 120.183 200.75 111.772 191.695C102.456 181.666 96.3918 185.033 87.03 176.012C75.1924 164.6 81.1129 155.72 70.9167 147.525C58.5461 137.587 45.2068 146.786 33.4314 137.253C28.353 133.141 25.5681 127.162 24.1112 120.805H12.5892C11.6195 120.805 10.6895 121.19 10.0037 121.876C9.31782 122.561 8.93222 123.491 8.93164 124.461V267.284C8.93164 269.303 10.5698 270.823 12.5892 270.679L209.01 256.737C209.974 256.669 210.829 256.106 211.377 255.29C196.999 254.766 188.165 249.946 182.518 244.963C171.473 235.215 173.388 225.603 161.476 219.191Z" fill="white"/>
</g>
<path d="M203.102 256.363L8.93164 270.699L93.5959 285.892C94.5627 286.066 95.5483 286.113 96.5272 286.029L297.845 269.049L206.195 256.46C205.17 256.319 204.133 256.287 203.102 256.363Z" fill="url(#paint6_linear_1_3033)"/>
<path style="mix-blend-mode:multiply" opacity="0.3" d="M37.2637 271.06L198.917 258.947L248.946 265.763L88.6867 278.711L37.2637 271.06Z" fill="url(#paint7_linear_1_3033)"/>
<path d="M198.172 53.6322V240.037C198.172 244.813 194.391 248.774 189.501 249.089L187.929 249.185L29.4121 258.944C33.489 258.289 36.428 254.856 36.428 250.825V50.9062L144.793 52.7312L198.172 53.6322Z" fill="white"/>
<path d="M181.31 114.949L57.1758 116.052V94.349L181.31 94.3152V114.949Z" fill="#D8DEE8"/>
<path d="M147.196 133.041L65.0098 134.373V122.112L147.196 121.182V133.041Z" fill="#D8DEE8"/>
<path d="M174.186 132.603L153.99 132.931V121.104L174.186 120.876V132.603Z" fill="#D8DEE8"/>
<path d="M115.722 150.156L65.0098 151.32V139.06L115.722 138.144V150.156Z" fill="#D8DEE8"/>
<path d="M174.186 148.815L153.99 149.278V137.452L174.186 137.088V148.815Z" fill="#D8DEE8"/>
<path d="M129.22 166.361L65.0098 168.268V156.009L129.22 154.414V166.361Z" fill="#D8DEE8"/>
<path d="M174.186 165.025L153.99 165.626V153.799L174.186 153.298V165.025Z" fill="#D8DEE8"/>
<path d="M93.0568 184.195L65.0098 185.217V172.957L93.0568 172.071V184.195Z" fill="#D8DEE8"/>
<path d="M174.186 181.237L153.99 181.973V170.148L174.186 169.51V181.237Z" fill="#D8DEE8"/>
<path d="M57.1758 110.265V208.448L119.433 205.614L181.31 202.794V109.446L57.1758 110.265ZM177.857 199.506L118.133 202.143L60.9884 204.666V113.849L177.854 112.912L177.857 199.506Z" fill="#D8DEE8"/>
<path d="M115.975 213.387L59.1569 216.151C58.0648 216.205 57.1758 217.089 57.1758 218.126V232.094C57.1758 233.132 58.0637 233.922 59.1569 233.862L115.975 230.695C117.019 230.637 117.864 229.77 117.864 228.758V215.128C117.864 214.116 117.019 213.337 115.975 213.387Z" fill="#D8DEE8"/>
<path d="M179.517 210.295L125.627 212.917C124.591 212.967 123.75 213.826 123.75 214.837V228.436C123.75 229.445 124.591 230.217 125.627 230.159L179.517 227.163C179.998 227.133 180.45 226.922 180.783 226.572C181.115 226.223 181.303 225.761 181.31 225.278V211.994C181.312 211.762 181.266 211.533 181.175 211.319C181.084 211.106 180.951 210.914 180.782 210.755C180.614 210.595 180.415 210.472 180.197 210.393C179.979 210.314 179.748 210.281 179.517 210.295Z" fill="#D8DEE8"/>
<path d="M181.31 86.8354L57.1758 86.1746V71.7869L181.31 72.5677V86.8354Z" fill="#D8DEE8"/>
<path d="M236.077 103.321L232.711 103.994C232.711 103.994 215.038 126.547 217.563 135.13C220.088 143.714 232.711 137.151 232.711 137.151L236.077 103.321Z" fill="url(#paint8_linear_1_3033)"/>
<path d="M258.258 263.902C258.826 264.364 258.93 265.516 258.999 266.269C259.029 266.607 259.044 266.775 259.006 266.894C258.732 267.761 257.05 267.852 254.413 268.122C250.244 268.548 249.004 268.876 248.677 268.256C248.371 267.674 249.114 266.727 249.195 266.618C249.642 266.053 250.193 265.848 251.255 265.498C253.221 264.851 254.55 264.497 254.953 264.389C257.465 263.718 257.885 263.598 258.258 263.902Z" fill="url(#paint9_linear_1_3033)"/>
<path d="M255.777 260.094L255.359 264.844C255.477 265.074 256.888 265.762 258.011 265.172L259.082 260.503L255.777 260.094Z" fill="url(#paint10_linear_1_3033)"/>
<path d="M224.173 260.117C224.853 260.87 225.008 262.254 224.416 262.936C223.824 263.619 222.96 263.103 220.485 263.178C217.826 263.257 217.132 263.885 215.327 263.386C214.597 263.184 213.308 262.696 213.332 262.174C213.35 261.808 214.005 261.619 216.197 260.884C219.307 259.842 219.294 259.785 219.954 259.676C221.607 259.401 223.274 259.126 224.173 260.117Z" fill="url(#paint11_linear_1_3033)"/>
<path d="M222.468 255.783L221.135 260.217C221.235 260.455 222.591 261.249 223.756 260.747L225.736 256.442L222.468 255.783Z" fill="url(#paint12_linear_1_3033)"/>
<path d="M234.315 158.663C234.101 175.342 232.883 191.994 230.667 208.527C228.475 224.883 225.31 241.094 221.189 257.074L226.292 258.446C230.607 254.423 236.05 248.089 238.677 239.139C240.307 233.583 239.763 230.729 240.798 223.896C242.445 213.016 245.779 207.316 249.227 198.542C252.324 190.659 255.985 179.089 257.948 163.623L234.315 158.663Z" fill="url(#paint13_linear_1_3033)"/>
<path style="mix-blend-mode:multiply" opacity="0.3" d="M233.049 230.221C234.756 225.507 236.834 224.054 237.761 219.113C238.57 214.804 237.46 213.404 237.425 209.014C237.356 200.267 241.7 197.371 243.148 190.164C243.932 186.258 238.801 176.393 234.094 167.872C234.204 164.729 234.277 161.658 234.312 158.659L257.946 163.62C255.98 179.086 252.321 190.656 249.224 198.539C245.776 207.312 242.442 213.013 240.795 223.892C239.761 230.725 240.305 233.58 238.674 239.135C236.048 248.085 230.604 254.42 226.289 258.443L225.807 258.313C230.157 252.644 231.508 247.829 231.704 244.023C231.901 240.092 230.916 236.119 233.049 230.221Z" fill="url(#paint14_linear_1_3033)"/>
<path d="M250.693 160.415C251.735 179.369 252.584 198.672 253.24 218.324C253.727 233.069 254.088 247.625 254.323 261.992L259.534 262.635C261.921 258.202 263.747 253.489 264.971 248.605C266.827 241.167 266.396 236.749 267.21 229.04C268.123 220.392 269.449 218.508 271.797 207.601C276.564 185.463 278.948 174.394 273.629 167.509C271.904 165.273 266.492 159.67 250.693 160.415Z" fill="url(#paint15_linear_1_3033)"/>
<path d="M274.754 103.901C268.507 102.143 262.087 101.071 255.608 100.703C243.715 100.031 237.766 99.7336 234.275 102.467C223.447 110.946 233.708 141.254 229.85 157.183C226.603 170.582 226.484 170.815 226.484 170.815C225.719 172.313 224.472 174.395 224.969 176.874C225.359 178.825 226.835 181.066 228.84 181.756C233.007 183.189 235.393 176.527 242.305 174.518C249.527 172.418 257.608 176.593 267.826 181.864C274.329 185.221 276.55 187.362 278.828 186.3C283.215 184.254 282.01 173.039 281.521 168.459C279.575 150.259 277.385 128.954 274.754 103.901Z" fill="url(#paint16_linear_1_3033)"/>
<path d="M244.915 134.794C245.229 134.724 245.789 132.633 244.41 132.017C238.185 129.24 233.363 134.738 232.724 136.43L232.08 138.122C232.08 138.122 235.172 138.363 237.091 137.719C239.01 137.074 242.357 135.364 244.915 134.794Z" fill="url(#paint17_linear_1_3033)"/>
<path d="M227.899 142.668L238.856 143.222C239.275 143.243 239.776 142.723 239.673 142.369L234.555 125.813C234.507 125.676 234.415 125.559 234.293 125.48C234.171 125.401 234.027 125.365 233.882 125.377L223.375 125.607C223.033 125.628 222.845 126.302 222.938 126.635L227.292 142.195C227.333 142.326 227.414 142.442 227.522 142.526C227.631 142.611 227.762 142.66 227.899 142.668Z" fill="url(#paint18_linear_1_3033)"/>
<path d="M228.097 142.316L239.113 142.833C239.535 142.853 239.826 142.55 239.723 142.197L234.808 125.348C234.76 125.211 234.667 125.093 234.545 125.014C234.422 124.935 234.277 124.899 234.132 124.911L223.609 125.534C223.529 125.539 223.45 125.562 223.38 125.601C223.31 125.64 223.249 125.695 223.203 125.761C223.156 125.827 223.126 125.902 223.113 125.982C223.099 126.061 223.105 126.143 223.127 126.22L227.496 141.848C227.538 141.977 227.617 142.091 227.724 142.174C227.832 142.257 227.961 142.307 228.097 142.316Z" fill="url(#paint19_linear_1_3033)"/>
<path style="mix-blend-mode:multiply" opacity="0.3" d="M233.66 132.27C233.332 133.799 231.955 133.472 230.831 135.328C229.404 137.683 230.771 139.761 229.463 140.624C229.064 140.887 228.389 141.044 227.176 140.733L227.488 141.85C227.53 141.982 227.61 142.097 227.719 142.181C227.828 142.266 227.96 142.315 228.098 142.322L239.114 142.84C239.537 142.86 239.827 142.557 239.724 142.203L234.809 125.348C234.761 125.211 234.668 125.093 234.546 125.014C234.423 124.935 234.278 124.899 234.133 124.911L232.551 125.005C232.341 125.646 232.238 126.318 232.248 126.992C232.297 129.527 234.044 130.476 233.66 132.27Z" fill="url(#paint20_linear_1_3033)"/>
<path d="M223.076 131.034C223.015 130.769 223.146 130.496 223.342 130.481C224.144 130.423 226.004 130.4 227.03 131.289C228.364 132.445 230.088 134.553 228.636 135.617L227.279 136.61C227.252 136.632 227.219 136.647 227.185 136.654C227.151 136.66 227.115 136.659 227.082 136.649C226.6 136.499 224.57 135.862 224.351 135.705C224.148 135.561 223.375 132.315 223.076 131.034Z" fill="url(#paint21_linear_1_3033)"/>
<path style="mix-blend-mode:multiply" opacity="0.3" d="M232.207 175.356C233.381 173.319 233.332 170.244 235.91 168.792C237.412 167.946 238.583 168.342 240.622 168.288C246.7 168.125 247.863 164.302 252.068 164.08C258.578 163.736 261.706 172.593 265.363 171.317C267.752 170.484 269.288 165.708 268.057 162.06C266.339 156.974 260.452 157.671 252.74 150.783C249.441 147.834 244.709 142.52 246.009 140.181C247.374 137.722 253.85 141.328 258.631 137.656C261.421 135.512 261.065 132.863 263.344 128.062C264.579 125.46 269.101 118.695 275.827 114.134C277.99 134.815 279.846 152.796 281.521 168.456C282.011 173.035 283.215 184.25 278.828 186.297C276.55 187.359 274.33 185.218 267.826 181.861C257.608 176.587 249.527 172.415 242.305 174.515C235.396 176.523 233.008 183.185 228.84 181.753C227.539 181.305 226.467 180.201 225.764 178.949C229.48 178.281 231.322 176.89 232.207 175.356Z" fill="url(#paint22_linear_1_3033)"/>
<path d="M249.542 91.6516C249.534 92.5559 251.783 97.085 254.815 99.2812C257.873 101.497 261.725 101.376 262.872 101.661C265.531 102.316 265.873 102.302 265.93 102.566C266.216 103.854 258.964 108.245 251.472 107.184C246.885 106.537 242.715 103.921 242.97 102.547C243.226 101.173 247.808 101.907 249.173 99.4046C250.124 97.6649 249.064 95.1945 247.801 93.1489C249.022 90.8653 248.323 93.9342 249.542 91.6516Z" fill="url(#paint23_linear_1_3033)"/>
<path d="M241.495 93.7453C239.902 92.9098 238.765 90.6698 239.214 88.7029C239.6 87.009 241.042 86.1101 241.905 85.5717C244.408 84.0111 248.272 83.5338 250.588 85.4199C251.961 86.5372 251.894 90.2428 251.915 90.8926C251.941 91.6276 251.562 92.0645 251.337 92.735C251.026 93.6655 250.547 95.1377 249.785 97.5819C249.345 97.037 248.858 96.5312 248.331 96.0704C247.646 95.4713 246.888 94.9622 246.074 94.5556C243.897 93.5268 243.006 94.5371 241.495 93.7453Z" fill="url(#paint24_linear_1_3033)"/>
<path d="M251.344 95.0917C251.344 95.0917 250.956 98.771 247.385 100.188C244.186 101.455 240.435 94.7138 241.717 92.2991C242.145 91.4931 243.371 90.6609 244.591 90.4523C245.311 90.3289 245.652 90.4916 246.825 90.2677C247.907 90.0602 248.129 89.8309 248.535 89.9314C249.044 90.0657 249.667 90.6904 250.023 93.0112C250.331 92.1375 250.932 91.5652 251.552 91.5641C251.768 91.5757 251.977 91.6471 252.156 91.7705C252.963 92.3603 252.72 93.7189 251.344 95.0917Z" fill="url(#paint25_linear_1_3033)"/>
<path d="M248.477 89.4455C248.381 89.629 249.103 89.9697 249.512 90.7441C250.305 92.2457 249.621 94.8221 248.115 95.7285C247.223 96.2648 246.695 95.8225 245.072 96.3925C244.281 96.673 243.54 97.0786 242.877 97.5939C243.187 99.5062 244.44 100.966 245.935 101.211C247.543 101.475 248.848 100.235 249.393 99.7159C249.758 99.3686 250.929 98.259 251.052 96.6459C251.178 94.964 250.06 94.5163 250.505 93.2112C250.724 92.5559 251.209 92.0841 251.352 90.945C251.383 90.7002 251.395 90.4534 251.388 90.2067C250.179 89.7404 248.618 89.1845 248.477 89.4455Z" fill="url(#paint26_linear_1_3033)"/>
<path d="M265.532 109.043C267.348 106.288 270.962 103.582 274.284 103.826C283.989 104.526 295.951 130.667 287.749 141.022C281.488 148.925 262.146 149.309 244.494 135.636V131.092C253.18 132.611 260.381 133.619 265.7 134.29C269.018 134.707 272.323 135.084 272.938 133.784C273.868 131.818 267.224 129.006 264.691 121.661C264.341 120.654 262.12 114.218 265.532 109.043Z" fill="url(#paint27_linear_1_3033)"/>
<g style="mix-blend-mode:multiply" opacity="0.7">
<g style="mix-blend-mode:multiply" opacity="0.7">
<path d="M198.172 48.4906V88.9629L173.265 88.8853L168.546 94.3187L161.588 102.317C161.271 102.69 160.835 102.941 160.355 103.027L160.315 103.068C158.326 105.313 155.898 104.322 155.898 102.288V88.7281L152.67 88.6986C150.757 88.6804 148.918 87.9517 147.512 86.6541C146.676 85.8949 146.009 84.9686 145.554 83.9352C145.099 82.9018 144.865 81.7843 144.869 80.655V47.571L198.172 48.4906Z" fill="#D8DEE8"/>
</g>
</g>
<path style="mix-blend-mode:multiply" opacity="0.1" d="M36.5859 194.694L37.2631 268.608L48.8036 267.972L36.5859 194.694Z" fill="url(#paint28_linear_1_3033)"/>
<path d="M170.96 263.268C171.23 265.151 170.043 266.791 168.316 266.912L52.1076 275.217C50.0041 275.364 47.3732 273.622 47.0838 271.534L36.5873 194.694C36.3044 192.619 38.4909 190.777 40.6042 190.769L157.009 188.366C158.744 188.36 160.379 189.882 160.648 191.752L170.96 263.268Z" fill="url(#paint29_linear_1_3033)"/>
<path d="M173.256 263.366C173.528 265.261 172.333 266.91 170.595 267.031L52.9755 275.217C50.8601 275.365 48.8888 273.767 48.6015 271.668L38.0384 194.417C37.7534 192.335 39.2649 190.627 41.3891 190.62L159.216 188.049C160.963 188.041 162.608 189.578 162.878 191.452L173.256 263.366Z" fill="url(#paint30_linear_1_3033)"/>
<g opacity="0.7">
<path opacity="0.7" d="M82.6119 248.318L62.5461 249.167C61.6407 249.206 60.7539 248.552 60.5803 247.713L59.6072 243.116C59.4303 242.276 60.0287 241.562 60.9363 241.529L81.0534 240.815C81.9271 240.783 82.7845 241.432 82.9548 242.254L83.8897 246.763C84.0601 247.579 83.4856 248.281 82.6119 248.318Z" fill="#F4F7FA"/>
<path opacity="0.7" d="M108.403 247.226L89.2277 248.037C88.3638 248.075 87.5163 247.435 87.347 246.618L86.4187 242.124C86.2483 241.302 86.8206 240.605 87.6878 240.574L106.909 239.886C107.747 239.856 108.564 240.491 108.728 241.296L109.621 245.704C109.787 246.504 109.238 247.191 108.403 247.226Z" fill="#F4F7FA"/>
<path opacity="0.7" d="M133.068 246.182L114.727 246.959C113.9 246.994 113.089 246.367 112.928 245.566L112.04 241.17C111.878 240.368 112.425 239.687 113.254 239.657L131.643 239.001C132.046 238.999 132.438 239.134 132.754 239.385C133.07 239.635 133.292 239.985 133.382 240.378L134.237 244.691C134.279 244.868 134.28 245.053 134.241 245.23C134.202 245.408 134.123 245.575 134.011 245.718C133.899 245.861 133.756 245.977 133.593 246.057C133.429 246.138 133.25 246.18 133.068 246.182Z" fill="#F4F7FA"/>
<path opacity="0.7" d="M156.683 245.184L139.122 245.926C138.722 245.93 138.333 245.797 138.02 245.549C137.707 245.3 137.488 244.952 137.4 244.562L136.551 240.263C136.396 239.477 136.918 238.811 137.712 238.783L155.318 238.153C156.082 238.124 156.834 238.734 156.983 239.504L157.803 243.726C157.951 244.494 157.448 245.15 156.683 245.184Z" fill="#F4F7FA"/>
</g>
<path d="M70.4432 229.974L60.8674 230.302C59.12 230.362 57.4818 228.984 57.2404 227.238L55.9299 217.721C55.6907 215.973 56.9325 214.52 58.6864 214.48L68.2699 214.276C69.9932 214.238 71.5943 215.616 71.8324 217.334L73.1331 226.732C73.3723 228.455 72.1622 229.916 70.4432 229.974Z" fill="url(#paint31_linear_1_3033)"/>
<path d="M69.6445 229.091L61.4186 229.37C59.799 229.424 58.2973 228.155 58.0745 226.542L56.9507 218.373C56.7323 216.76 57.8703 215.424 59.4921 215.382L67.7246 215.194C69.3202 215.158 70.7956 216.425 71.0162 218.019L72.1335 226.101C72.3541 227.694 71.239 229.037 69.6445 229.091ZM59.5478 215.787C58.152 215.819 57.1691 216.975 57.3635 218.363L58.4873 226.529C58.6784 227.918 59.9715 229.01 61.3662 228.965L69.5921 228.688C70.966 228.641 71.9271 227.487 71.736 226.111L70.6187 218.029C70.4287 216.655 69.1574 215.563 67.7792 215.595L59.5478 215.787Z" fill="url(#paint32_linear_1_3033)"/>
<path d="M57.2949 219.38L70.9542 219.026L57.2949 219.38Z" fill="#F4F7FA"/>
<path d="M70.9826 219.227L57.3233 219.583L57.2676 219.177L70.9269 218.825L70.9826 219.227Z" fill="url(#paint33_linear_1_3033)"/>
<path d="M57.7168 222.451L71.3685 222.063L57.7168 222.451Z" fill="#F4F7FA"/>
<path d="M71.4023 222.264L57.7462 222.654L57.6895 222.248L71.3466 221.862L71.4023 222.264Z" fill="url(#paint34_linear_1_3033)"/>
<path d="M58.1406 225.525L71.7923 225.106L58.1406 225.525Z" fill="#F4F7FA"/>
<path d="M71.8228 225.304L58.169 225.725L58.1133 225.319L71.7671 224.902L71.8228 225.304Z" fill="url(#paint35_linear_1_3033)"/>
<path d="M67.2205 227.5L63.4046 227.624C62.9207 227.628 62.4515 227.458 62.0824 227.145C61.7134 226.832 61.4691 226.396 61.394 225.918L60.4111 218.803C60.3747 218.581 60.387 218.354 60.447 218.137C60.5071 217.921 60.6135 217.719 60.7589 217.548C60.9043 217.376 61.0852 217.238 61.2891 217.144C61.4931 217.049 61.7152 216.999 61.9401 216.999L65.7625 216.907C66.2441 216.908 66.7097 217.08 67.0756 217.393C67.4415 217.706 67.6838 218.14 67.7589 218.615L68.7418 225.69C68.7784 225.912 68.7666 226.139 68.7072 226.355C68.6477 226.572 68.5421 226.773 68.3976 226.945C68.253 227.117 68.073 227.256 67.8698 227.351C67.6666 227.447 67.4451 227.498 67.2205 227.5Z" fill="#FEC045"/>
<path d="M67.2461 227.702L63.4313 227.826C62.8913 227.832 62.3675 227.643 61.9556 227.293C61.5437 226.944 61.2712 226.459 61.1881 225.925L60.2051 218.809C60.1639 218.561 60.177 218.308 60.2435 218.066C60.31 217.825 60.4283 217.6 60.5902 217.409C60.7521 217.217 60.9537 217.064 61.1811 216.958C61.4084 216.852 61.656 216.797 61.9067 216.797L65.7291 216.705C66.8082 216.679 67.8042 217.534 67.9538 218.61L68.9313 225.684C69.0787 226.762 68.3241 227.667 67.2461 227.702ZM61.9667 217.201C61.7675 217.201 61.5706 217.244 61.3897 217.328C61.2089 217.411 61.0484 217.533 60.9195 217.685C60.7906 217.837 60.6964 218.016 60.6434 218.208C60.5904 218.4 60.5798 218.601 60.6125 218.798L61.5954 225.912C61.6613 226.335 61.8774 226.721 62.2043 226.998C62.5312 227.275 62.947 227.426 63.3756 227.421L67.1904 227.298C67.3885 227.295 67.5837 227.25 67.7626 227.165C67.9415 227.079 68.0999 226.957 68.2269 226.805C68.3538 226.652 68.4464 226.475 68.4983 226.284C68.5501 226.092 68.56 225.892 68.5272 225.697L67.5443 218.621C67.4786 218.2 67.2646 217.816 66.9408 217.538C66.617 217.261 66.2047 217.108 65.7783 217.108L61.9667 217.201Z" fill="url(#paint36_linear_1_3033)"/>
<path style="mix-blend-mode:multiply" opacity="0.15" d="M90.8722 253.283C81.0288 255.023 74.6115 255.457 66.9895 253.471C56.4242 250.716 48.7126 244.67 44.3594 240.639L48.6001 271.667C48.8874 273.766 50.8587 275.364 52.9741 275.216L170.591 267.026C172.329 266.906 173.525 265.257 173.253 263.362L171.608 251.908C153.385 241.969 139.905 241.284 130.751 242.654C119.578 244.332 113.861 249.224 90.8722 253.283Z" fill="url(#paint37_linear_1_3033)"/>
<g style="mix-blend-mode:multiply" opacity="0.42">
<path style="mix-blend-mode:multiply" opacity="0.42" d="M90.5778 262.457L63.2089 264.138C62.9479 264.148 62.6924 264.062 62.4909 263.895C62.2895 263.729 62.1563 263.495 62.1168 263.237L61.5183 258.885C61.4993 258.763 61.5062 258.639 61.5387 258.519C61.5712 258.4 61.6285 258.289 61.7068 258.193C61.7851 258.098 61.8827 258.02 61.9933 257.964C62.1038 257.909 62.2248 257.877 62.3483 257.872L89.7248 256.323C89.9777 256.317 90.2243 256.403 90.4177 256.566C90.6112 256.729 90.7381 256.958 90.7743 257.208L91.3663 261.457C91.3869 261.576 91.3824 261.697 91.353 261.814C91.3235 261.93 91.2698 262.039 91.1954 262.133C91.121 262.228 91.0275 262.305 90.9211 262.361C90.8147 262.417 90.6977 262.449 90.5778 262.457Z" fill="url(#paint38_linear_1_3033)"/>
<path style="mix-blend-mode:multiply" opacity="0.42" d="M141.067 259.482L106.384 261.611C106.132 261.618 105.886 261.532 105.693 261.369C105.5 261.207 105.374 260.979 105.338 260.729L104.744 256.484C104.724 256.367 104.73 256.247 104.76 256.132C104.79 256.017 104.843 255.91 104.917 255.817C104.991 255.725 105.084 255.649 105.19 255.594C105.295 255.54 105.411 255.508 105.529 255.501L140.23 253.54C140.705 253.513 141.151 253.9 141.222 254.4L141.807 258.52C141.873 259.02 141.54 259.454 141.067 259.482Z" fill="url(#paint39_linear_1_3033)"/>
</g>
<path style="mix-blend-mode:multiply" opacity="0.26" d="M154.072 208.278C154.785 213.272 151.082 217.46 145.819 217.628C140.577 217.797 135.772 213.915 135.071 208.954C134.369 203.994 138.019 199.82 143.255 199.615C148.507 199.41 153.358 203.287 154.072 208.278Z" fill="url(#paint40_linear_1_3033)"/>
<g opacity="0.53">
<path opacity="0.53" d="M78.6253 222.658C78.0792 223.268 77.0592 223.314 76.3416 222.741C75.6241 222.169 75.4876 221.212 76.0435 220.602C76.5994 219.991 77.6205 219.969 78.3293 220.538C79.0381 221.107 79.167 222.051 78.6253 222.658Z" fill="#F4F7FA"/>
<path opacity="0.53" d="M84.4781 228.388C84.3202 228.397 84.1646 228.347 84.0413 228.248C83.9803 228.204 83.929 228.147 83.8903 228.083C83.8516 228.018 83.8264 227.946 83.8162 227.871C83.806 227.797 83.811 227.721 83.8309 227.648C83.8508 227.575 83.8852 227.508 83.932 227.448C86.8808 223.991 86.1349 218.688 82.2545 215.455C81.9913 215.236 81.9411 214.877 82.1453 214.655C82.3495 214.433 82.7219 214.437 82.983 214.655C87.3515 218.314 88.1838 224.291 84.8789 228.198C84.8291 228.256 84.7677 228.302 84.6987 228.335C84.6296 228.368 84.5545 228.386 84.4781 228.388Z" fill="#F4F7FA"/>
<path opacity="0.53" d="M82.578 226.884C82.4169 226.891 82.2585 226.84 82.1324 226.739C82.0705 226.695 82.0183 226.639 81.979 226.573C81.9397 226.508 81.9142 226.435 81.904 226.36C81.8938 226.285 81.8991 226.208 81.9196 226.134C81.9401 226.061 81.9753 225.993 82.0232 225.933C84.2271 223.388 83.6767 219.456 80.7847 217.075C80.5182 216.857 80.4669 216.495 80.6755 216.27C80.8841 216.045 81.2598 216.043 81.5252 216.262C84.9108 219.069 85.5661 223.688 82.9843 226.694C82.9331 226.751 82.8706 226.798 82.8008 226.831C82.7309 226.863 82.6551 226.881 82.578 226.884Z" fill="#F4F7FA"/>
<path opacity="0.53" d="M80.6514 225.357C80.4879 225.364 80.3273 225.311 80.1993 225.209C80.1368 225.165 80.0841 225.108 80.0445 225.042C80.0049 224.977 79.9792 224.903 79.969 224.827C79.9587 224.751 79.9642 224.674 79.985 224.6C80.0059 224.526 80.0416 224.457 80.09 224.398C81.5218 222.771 81.168 220.241 79.2972 218.719C79.0263 218.5 78.9761 218.136 79.188 217.907C79.3998 217.679 79.7799 217.674 80.0475 217.893C81.2095 218.842 81.9499 220.113 82.1399 221.478C82.24 222.134 82.1955 222.804 82.0097 223.441C81.8239 224.078 81.5012 224.667 81.0642 225.167C81.0122 225.225 80.9487 225.272 80.8777 225.305C80.8066 225.338 80.7296 225.355 80.6514 225.357Z" fill="#F4F7FA"/>
</g>
<path d="M214.002 18.8785L155.049 15.2646C150.721 15.0408 147.195 18.4253 147.195 22.8244V77.8973C147.195 82.2964 150.721 85.8961 155.049 85.9365L158.325 85.9681V99.5302C158.325 101.563 160.734 102.554 162.723 100.307L175.06 86.1254L214.002 86.2434C217.644 86.2783 220.584 83.0554 220.584 79.0462V26.4776C220.584 22.4683 217.644 19.0664 214.002 18.8785Z" fill="url(#paint41_linear_1_3033)"/>
<path d="M215.871 84.8071L156.918 84.5003C152.59 84.4598 149.064 80.8602 149.064 76.4611V21.3881C149.064 16.989 152.59 13.6045 156.918 13.8284L215.871 17.4422C219.514 17.6301 222.454 21.0321 222.454 25.0413V77.61C222.454 81.6192 219.519 84.8421 215.871 84.8071Z" fill="url(#paint42_linear_1_3033)"/>
<path d="M151.309 77.9432V20.0427C151.309 17.7022 153.184 15.8926 155.491 16.0138L217.076 19.5785C219.015 19.6768 220.585 21.4887 220.585 23.6282V78.9086C220.585 81.0481 219.015 82.7649 217.076 82.7442L155.491 82.2276C153.184 82.2025 151.309 80.2847 151.309 77.9432Z" fill="url(#paint43_linear_1_3033)"/>
<path d="M190.904 57.1424C190.904 56.0911 190.653 55.2585 190.151 54.6447C189.648 54.0309 188.765 53.439 187.5 52.8689C186.233 52.2988 185.062 51.7236 183.985 51.1433C182.971 50.6077 182.033 49.9376 181.197 49.1513C180.431 48.4241 179.82 47.5497 179.4 46.5804C178.982 45.615 178.773 44.4544 178.773 43.0987C178.773 40.8314 179.516 38.9915 181.003 37.579C182.49 36.1665 184.462 35.3904 186.919 35.2506V31.0251L189.997 31.1551V35.4516C192.35 35.9037 194.195 36.9758 195.531 38.6679C196.868 40.36 197.536 42.4645 197.534 44.9815L191.038 44.7631C191.038 43.3797 190.781 42.3051 190.266 41.5391C189.752 40.7732 189.017 40.3727 188.062 40.3378C187.21 40.3057 186.547 40.5587 186.075 41.0968C185.602 41.6349 185.366 42.3913 185.366 43.3662C185.366 44.3543 185.638 45.1482 186.182 45.7482C186.726 46.3481 187.599 46.9306 188.803 47.4956C190.002 48.0613 191.131 48.6438 192.188 49.243C193.184 49.7938 194.105 50.4686 194.93 51.2515C195.69 51.9809 196.302 52.8506 196.733 53.8125C197.17 54.7801 197.388 55.9338 197.388 57.2735C197.388 59.5415 196.696 61.3763 195.313 62.7778C193.93 64.1794 192.033 64.9756 189.622 65.1663V69.1843L186.543 69.1264V65.0789C183.718 64.7113 181.546 63.6628 180.028 61.9336C178.509 60.2044 177.749 57.9473 177.746 55.1624L184.328 55.3415C184.328 56.8661 184.656 58.0343 185.311 58.8461C185.967 59.658 186.894 60.0781 188.094 60.1065C188.972 60.1283 189.664 59.8753 190.169 59.3474C190.674 58.8196 190.919 58.0846 190.904 57.1424Z" fill="white"/>
<path d="M208.926 28.1605C209.096 28.1732 209.255 28.2504 209.37 28.3762C209.485 28.502 209.548 28.667 209.546 28.8376V72.7009C209.548 72.7838 209.534 72.8664 209.504 72.9437C209.474 73.0209 209.428 73.0914 209.37 73.1509C209.313 73.2105 209.244 73.2578 209.167 73.2903C209.091 73.3227 209.009 73.3396 208.926 73.3398L165.896 72.6266C165.72 72.6215 165.552 72.5477 165.43 72.421C165.308 72.2942 165.239 72.1246 165.24 71.9484V26.8881C165.239 26.8024 165.255 26.7173 165.287 26.6381C165.32 26.5588 165.369 26.4871 165.43 26.4273C165.491 26.3676 165.564 26.321 165.644 26.2906C165.725 26.2601 165.81 26.2464 165.896 26.2503L208.926 28.1605ZM208.926 25.6737L165.896 23.6991C164.148 23.6194 162.729 24.9976 162.729 26.78V71.9069C162.729 73.6893 164.148 75.1549 165.896 75.1833L208.926 75.831C210.58 75.8561 211.917 74.4756 211.917 72.7457V28.9413C211.917 27.2114 210.58 25.7479 208.926 25.6726V25.6737Z" fill="white"/>
<path d="M160.199 98.0942V81.7417L179.312 81.9536L163.99 99.5598C162.669 101.079 160.199 100.127 160.199 98.0942Z" fill="url(#paint44_linear_1_3033)"/>
<defs>
<linearGradient id="paint0_linear_1_3033" x1="120.379" y1="105.168" x2="173.409" y2="-19.3112" gradientUnits="userSpaceOnUse">
<stop stop-color="#FF9085"/>
<stop offset="1" stop-color="#FB6FBB"/>
</linearGradient>
<linearGradient id="paint1_linear_1_3033" x1="56.1682" y1="80.4366" x2="71.837" y2="205.182" gradientUnits="userSpaceOnUse">
<stop stop-color="#6165D7"/>
<stop offset="1" stop-color="#AA80F9"/>
</linearGradient>
<linearGradient id="paint2_linear_1_3033" x1="130.965" y1="280.155" x2="110.67" y2="288.679" gradientUnits="userSpaceOnUse">
<stop stop-color="#40447E"/>
<stop offset="1" stop-color="#3C3B6B"/>
</linearGradient>
<linearGradient id="paint3_linear_1_3033" x1="194122" y1="261705" x2="157644" y2="282580" gradientUnits="userSpaceOnUse">
<stop stop-color="#40447E"/>
<stop offset="1" stop-color="#3C3B6B"/>
</linearGradient>
<linearGradient id="paint4_linear_1_3033" x1="16701.5" y1="268574" x2="398189" y2="268574" gradientUnits="userSpaceOnUse">
<stop stop-color="#40447E"/>
<stop offset="1" stop-color="#3C3B6B"/>
</linearGradient>
<linearGradient id="paint5_linear_1_3033" x1="137.877" y1="146.241" x2="-18.5601" y2="401.981" gradientUnits="userSpaceOnUse">
<stop stop-color="#FFC444"/>
<stop offset="1" stop-color="#F36F56"/>
</linearGradient>
<linearGradient id="paint6_linear_1_3033" x1="23636.3" y1="74123" x2="787923" y2="74123" gradientUnits="userSpaceOnUse">
<stop stop-color="#40447E"/>
<stop offset="1" stop-color="#3C3B6B"/>
</linearGradient>
<linearGradient id="paint7_linear_1_3033" x1="72263.4" y1="48909" x2="482557" y2="48909" gradientUnits="userSpaceOnUse">
<stop stop-color="#40447E"/>
<stop offset="1" stop-color="#3C3B6B"/>
</linearGradient>
<linearGradient id="paint8_linear_1_3033" x1="235.154" y1="128.75" x2="226.134" y2="119.018" gradientUnits="userSpaceOnUse">
<stop stop-color="#AA80F9"/>
<stop offset="1" stop-color="#6165D7"/>
</linearGradient>
<linearGradient id="paint9_linear_1_3033" x1="31636.5" y1="12718.5" x2="32628" y2="12748.2" gradientUnits="userSpaceOnUse">
<stop stop-color="#AA80F9"/>
<stop offset="1" stop-color="#6165D7"/>
</linearGradient>
<linearGradient id="paint10_linear_1_3033" x1="11455.5" y1="13089.5" x2="11763.3" y2="12741.5" gradientUnits="userSpaceOnUse">
<stop stop-color="#FFC444"/>
<stop offset="1" stop-color="#F36F56"/>
</linearGradient>
<linearGradient id="paint11_linear_1_3033" x1="35157.1" y1="17739.2" x2="36267.9" y2="18051.6" gradientUnits="userSpaceOnUse">
<stop stop-color="#AA80F9"/>
<stop offset="1" stop-color="#6165D7"/>
</linearGradient>
<linearGradient id="paint12_linear_1_3033" x1="12839.6" y1="12994.6" x2="13153.4" y2="12616.8" gradientUnits="userSpaceOnUse">
<stop stop-color="#FFC444"/>
<stop offset="1" stop-color="#F36F56"/>
</linearGradient>
<linearGradient id="paint13_linear_1_3033" x1="217.544" y1="242.033" x2="246.976" y2="175.688" gradientUnits="userSpaceOnUse">
<stop stop-color="#AB316D"/>
<stop offset="1" stop-color="#792D3D"/>
</linearGradient>
<linearGradient id="paint14_linear_1_3033" x1="-43290.1" y1="221294" x2="-77780.5" y2="196253" gradientUnits="userSpaceOnUse">
<stop stop-color="#AB316D"/>
<stop offset="1" stop-color="#792D3D"/>
</linearGradient>
<linearGradient id="paint15_linear_1_3033" x1="23929.6" y1="209183" x2="57864.7" y2="194873" gradientUnits="userSpaceOnUse">
<stop stop-color="#AB316D"/>
<stop offset="1" stop-color="#792D3D"/>
</linearGradient>
<linearGradient id="paint16_linear_1_3033" x1="-106934" y1="132515" x2="-81348" y2="114226" gradientUnits="userSpaceOnUse">
<stop stop-color="#AA80F9"/>
<stop offset="1" stop-color="#6165D7"/>
</linearGradient>
<linearGradient id="paint17_linear_1_3033" x1="21092.6" y1="8665.92" x2="19492.2" y2="8665.92" gradientUnits="userSpaceOnUse">
<stop stop-color="#FFC444"/>
<stop offset="1" stop-color="#F36F56"/>
</linearGradient>
<linearGradient id="paint18_linear_1_3033" x1="233.432" y1="131.956" x2="229.237" y2="136.681" gradientUnits="userSpaceOnUse">
<stop stop-color="#444B8C"/>
<stop offset="1" stop-color="#26264F"/>
</linearGradient>
<linearGradient id="paint19_linear_1_3033" x1="244.23" y1="136.643" x2="225.118" y2="132.241" gradientUnits="userSpaceOnUse">
<stop stop-color="#311944"/>
<stop offset="1" stop-color="#893976"/>
</linearGradient>
<linearGradient id="paint20_linear_1_3033" x1="-5241.27" y1="47932.4" x2="-3066.89" y2="47932.4" gradientUnits="userSpaceOnUse">
<stop stop-color="#311944"/>
<stop offset="1" stop-color="#893976"/>
</linearGradient>
<linearGradient id="paint21_linear_1_3033" x1="8852.1" y1="7380.36" x2="8287.18" y2="8087.98" gradientUnits="userSpaceOnUse">
<stop stop-color="#FFC444"/>
<stop offset="1" stop-color="#F36F56"/>
</linearGradient>
<linearGradient id="paint22_linear_1_3033" x1="-104067" y1="112609" x2="-81725.3" y2="93878.6" gradientUnits="userSpaceOnUse">
<stop stop-color="#AA80F9"/>
<stop offset="1" stop-color="#6165D7"/>
</linearGradient>
<linearGradient id="paint23_linear_1_3033" x1="38623.6" y1="13679.7" x2="36648" y2="9436.69" gradientUnits="userSpaceOnUse">
<stop stop-color="#FFC444"/>
<stop offset="1" stop-color="#F36F56"/>
</linearGradient>
<linearGradient id="paint24_linear_1_3033" x1="260.736" y1="105.063" x2="243.587" y2="88.6548" gradientUnits="userSpaceOnUse">
<stop stop-color="#311944"/>
<stop offset="1" stop-color="#6B3976"/>
</linearGradient>
<linearGradient id="paint25_linear_1_3033" x1="28985.2" y1="248.893" x2="30154.9" y2="3092.5" gradientUnits="userSpaceOnUse">
<stop stop-color="#FFC444"/>
<stop offset="1" stop-color="#F36F56"/>
</linearGradient>
<linearGradient id="paint26_linear_1_3033" x1="25859.3" y1="16223.3" x2="24691.4" y2="14095.8" gradientUnits="userSpaceOnUse">
<stop stop-color="#311944"/>
<stop offset="1" stop-color="#6B3976"/>
</linearGradient>
<linearGradient id="paint27_linear_1_3033" x1="-83713.4" y1="57340.4" x2="-81916.3" y2="40807.2" gradientUnits="userSpaceOnUse">
<stop stop-color="#AA80F9"/>
<stop offset="1" stop-color="#6165D7"/>
</linearGradient>
<linearGradient id="paint28_linear_1_3033" x1="4129.51" y1="156972" x2="5496.3" y2="156972" gradientUnits="userSpaceOnUse">
<stop stop-color="#40447E"/>
<stop offset="1" stop-color="#3C3B6B"/>
</linearGradient>
<linearGradient id="paint29_linear_1_3033" x1="142319" y1="205394" x2="-51787.8" y2="203116" gradientUnits="userSpaceOnUse">
<stop stop-color="#311944"/>
<stop offset="1" stop-color="#893976"/>
</linearGradient>
<linearGradient id="paint30_linear_1_3033" x1="47.5428" y1="231.779" x2="254.086" y2="212.447" gradientUnits="userSpaceOnUse">
<stop stop-color="#E38DDD"/>
<stop offset="1" stop-color="#9571F6"/>
</linearGradient>
<linearGradient id="paint31_linear_1_3033" x1="28.5673" y1="205.484" x2="106.823" y2="239.245" gradientUnits="userSpaceOnUse">
<stop stop-color="#F68252"/>
<stop offset="0.04" stop-color="#F99A4D"/>
<stop offset="0.08" stop-color="#FCAD49"/>
<stop offset="0.13" stop-color="#FEBA46"/>
<stop offset="0.2" stop-color="#FFC244"/>
<stop offset="0.32" stop-color="#FFC444"/>
<stop offset="0.45" stop-color="#FDB946"/>
<stop offset="0.69" stop-color="#F99C4C"/>
<stop offset="1" stop-color="#F36F56"/>
</linearGradient>
<linearGradient id="paint32_linear_1_3033" x1="-552.094" y1="32048" x2="1393.1" y2="31792.6" gradientUnits="userSpaceOnUse">
<stop stop-color="#FF9085"/>
<stop offset="1" stop-color="#FB6FBB"/>
</linearGradient>
<linearGradient id="paint33_linear_1_3033" x1="-3958.52" y1="2035.65" x2="-2261.64" y2="1812.86" gradientUnits="userSpaceOnUse">
<stop stop-color="#FF9085"/>
<stop offset="1" stop-color="#FB6FBB"/>
</linearGradient>
<linearGradient id="paint34_linear_1_3033" x1="-3943.62" y1="2135.37" x2="-2246.74" y2="1912.58" gradientUnits="userSpaceOnUse">
<stop stop-color="#FF9085"/>
<stop offset="1" stop-color="#FB6FBB"/>
</linearGradient>
<linearGradient id="paint35_linear_1_3033" x1="-3928.78" y1="2231.82" x2="-2232.03" y2="2009.02" gradientUnits="userSpaceOnUse">
<stop stop-color="#FF9085"/>
<stop offset="1" stop-color="#FB6FBB"/>
</linearGradient>
<linearGradient id="paint36_linear_1_3033" x1="873.975" y1="25143.3" x2="1490.79" y2="25062.3" gradientUnits="userSpaceOnUse">
<stop stop-color="#FF9085"/>
<stop offset="1" stop-color="#FB6FBB"/>
</linearGradient>
<linearGradient id="paint37_linear_1_3033" x1="51.6917" y1="258.068" x2="255.37" y2="239.004" gradientUnits="userSpaceOnUse">
<stop stop-color="#FB6FBB"/>
<stop offset="1" stop-color="#FF9085"/>
</linearGradient>
<linearGradient id="paint38_linear_1_3033" x1="-6976.3" y1="20734.9" x2="982.85" y2="19689.8" gradientUnits="userSpaceOnUse">
<stop stop-color="#FB6FBB"/>
<stop offset="1" stop-color="#FF9085"/>
</linearGradient>
<linearGradient id="paint39_linear_1_3033" x1="5560.41" y1="20925.6" x2="17880.6" y2="19307.8" gradientUnits="userSpaceOnUse">
<stop stop-color="#FB6FBB"/>
<stop offset="1" stop-color="#FF9085"/>
</linearGradient>
<linearGradient id="paint40_linear_1_3033" x1="15282.5" y1="36750" x2="18445.3" y2="35943.1" gradientUnits="userSpaceOnUse">
<stop stop-color="#FF9085"/>
<stop offset="1" stop-color="#FB6FBB"/>
</linearGradient>
<linearGradient id="paint41_linear_1_3033" x1="82541.2" y1="102493" x2="289297" y2="-123226" gradientUnits="userSpaceOnUse">
<stop stop-color="#AB316D"/>
<stop offset="1" stop-color="#792D3D"/>
</linearGradient>
<linearGradient id="paint42_linear_1_3033" x1="146.752" y1="99.5946" x2="192.859" y2="40.3803" gradientUnits="userSpaceOnUse">
<stop stop-color="#FCB148"/>
<stop offset="0.05" stop-color="#FDBA46"/>
<stop offset="0.14" stop-color="#FFC244"/>
<stop offset="0.32" stop-color="#FFC444"/>
<stop offset="0.48" stop-color="#FDB946"/>
<stop offset="0.78" stop-color="#F99C4D"/>
<stop offset="0.87" stop-color="#F8924F"/>
<stop offset="1" stop-color="#F8924F"/>
</linearGradient>
<linearGradient id="paint43_linear_1_3033" x1="125132" y1="48277.7" x2="107392" y2="1438.62" gradientUnits="userSpaceOnUse">
<stop stop-color="#FCB148"/>
<stop offset="0.05" stop-color="#FDBA46"/>
<stop offset="0.14" stop-color="#FFC244"/>
<stop offset="0.32" stop-color="#FFC444"/>
<stop offset="0.48" stop-color="#FDB946"/>
<stop offset="0.78" stop-color="#F99C4D"/>
<stop offset="0.87" stop-color="#F8924F"/>
<stop offset="1" stop-color="#F8924F"/>
</linearGradient>
<linearGradient id="paint44_linear_1_3033" x1="26540.7" y1="18145.1" x2="37443.3" y2="3729.97" gradientUnits="userSpaceOnUse">
<stop stop-color="#FCB148"/>
<stop offset="0.05" stop-color="#FDBA46"/>
<stop offset="0.14" stop-color="#FFC244"/>
<stop offset="0.32" stop-color="#FFC444"/>
<stop offset="0.48" stop-color="#FDB946"/>
<stop offset="0.78" stop-color="#F99C4D"/>
<stop offset="0.87" stop-color="#F8924F"/>
<stop offset="1" stop-color="#F8924F"/>
</linearGradient>
</defs>
</svg>
