<svg width="300" height="299" viewBox="0 0 300 299" fill="none" xmlns="http://www.w3.org/2000/svg">
<path d="M296.125 174.246C278.433 245.748 202.795 302.051 125.208 290.036C66.0136 280.876 15.6351 233.489 3.03079 174.246C-0.304681 158.599 -0.892373 142.491 1.29401 126.643C11.3461 53.5243 77.869 -2.20287 154.668 0.0664134C232.736 2.3732 293.423 63.7746 299.494 131.531C300.799 146.084 299.542 160.452 296.125 174.246Z" fill="#F4F7FA"/>
<path d="M12.666 69.9268L14.6224 70.8407L86.3846 64.2279L79.4653 61.4336L12.666 69.9268Z" fill="url(#paint0_linear_1_3136)"/>
<path d="M286.916 174.247H209.93V65.3453L286.916 79.8611V174.247Z" fill="#AABBCC"/>
<path d="M278.117 174.247H220.928V131.032L278.117 135.367V174.247Z" fill="#EAEDF3"/>
<path d="M220.928 147.105V146.374L278.117 149.166V149.823L220.928 147.105Z" fill="#AABBCC"/>
<path d="M237.424 174.246H236.691V132.233L237.424 132.29V174.246Z" fill="#AABBCC"/>
<path d="M264.553 174.246H263.82V134.291L264.553 134.342V174.246Z" fill="#AABBCC"/>
<path d="M289.117 127.201L215.43 119.741V110.054L289.117 118.843V127.201Z" fill="url(#paint1_linear_1_3136)"/>
<path d="M289.117 85.7313L215.43 71.6785V61.9917L289.117 77.3731V85.7313Z" fill="url(#paint2_linear_1_3136)"/>
<path d="M24.0634 83.8415L21.1309 84.0237V65.0358L24.0634 64.8162V83.8415Z" fill="#97A6B7"/>
<path d="M49.3578 81.9622L47.1582 82.1518V62.7686L49.3578 62.5404V81.9622Z" fill="#97A6B7"/>
<path d="M75.7536 80.0025L73.1875 80.1996V60.406L75.7536 60.1671V80.0025Z" fill="#97A6B7"/>
<path d="M84.5535 31.2889V63.7843L12.6992 69.9278V39.2389L14.211 39.0525L84.5535 31.2889Z" fill="url(#paint3_linear_1_3136)"/>
<path style="mix-blend-mode:multiply" opacity="0.2" d="M84.5535 55.0178V63.7843L12.6992 69.9278V39.2389L14.3803 39.0525C18.6253 39.1093 22.8789 39.6418 26.8174 41.3368C33.2964 44.1225 33.3671 53.8553 40.9206 55.1775C47.3964 56.31 53.6214 52.6328 59.8581 51.4778C67.9292 49.9843 77.5881 50.9903 84.5535 55.0178Z" fill="url(#paint4_linear_1_3136)"/>
<path d="M210.664 174.247H12.6992V80.7954L210.664 65.7236V174.247Z" fill="#BFC8D6"/>
<path d="M101.782 87.7371V174.247H24.0625V92.8521L32.41 92.3078L101.782 87.7371Z" fill="#EAEDF3"/>
<path d="M215.429 71.6785L11.5996 86.3163V78.0138L215.429 61.9917V71.6785Z" fill="url(#paint5_linear_1_3136)"/>
<path d="M215.429 119.741L114.98 123.565V114.559L215.429 110.054V119.741Z" fill="url(#paint6_linear_1_3136)"/>
<path d="M42.393 174.246H41.6602V91.6671L42.393 91.6243V174.246Z" fill="#AABBCC"/>
<path d="M61.4566 174.246H60.7227V90.4264L61.4566 90.3824V174.246Z" fill="#AABBCC"/>
<path d="M81.6196 174.247H80.8867V89.1032L81.6196 89.0582V174.247Z" fill="#AABBCC"/>
<path d="M24.0625 107.043V106.398L101.782 102.137V102.823L24.0625 107.043Z" fill="#AABBCC"/>
<path d="M24.0625 116.72V116.075L101.782 112.423V113.109L24.0625 116.72Z" fill="#AABBCC"/>
<path d="M24.0625 149.943V149.298L101.782 147.736V148.422L24.0625 149.943Z" fill="#AABBCC"/>
<path d="M201.864 130.604V174.247H120.846V133.264L136.52 132.75L140.62 132.62L141.323 132.598L179.08 131.35L179.879 131.327L201.864 130.604Z" fill="#EAEDF3"/>
<path d="M120.846 148.504V147.811L201.864 146.098V146.835L120.846 148.504Z" fill="#AABBCC"/>
<path d="M141.377 132.59V174.247H140.643V132.613L141.377 132.59Z" fill="#AABBCC"/>
<path d="M179.868 131.32V174.246H179.502V131.342L179.868 131.32Z" fill="#AABBCC"/>
<path d="M160.805 174.247H160.072V146.982L160.805 146.974V174.247Z" fill="#AABBCC"/>
<g style="mix-blend-mode:soft-light" opacity="0.5">
<path d="M101.785 153.919V174.246H24.2639C24.1932 173.862 24.0625 173.509 24.0625 173.196V92.852L32.3254 92.3077C37.0289 95.1202 41.7754 100.352 43.8004 110.054C48.4257 132.222 59.1818 138.182 74.8365 140.045C82.33 140.936 94.0836 145.652 101.785 153.919Z" fill="white"/>
</g>
<path d="M84.5527 31.3821L86.3849 32.9314V64.2278L84.5527 63.7928V31.3821Z" fill="url(#paint7_linear_1_3136)"/>
<g style="mix-blend-mode:soft-light" opacity="0.5">
<path d="M201.864 164.516V174.247H120.846V133.264L136.52 132.75C138.202 134.412 139.677 136.439 140.591 138.909C140.601 138.935 140.651 138.961 140.661 138.987C140.875 139.549 141.109 140.098 141.343 140.626C147.014 153.685 159.129 157.31 176.472 158.476C177.302 158.532 178.186 158.61 179.095 158.711C179.309 158.738 179.665 158.763 179.887 158.789C186.437 159.583 194.701 161.513 201.864 164.516Z" fill="white"/>
</g>
<path d="M289.116 127.201L286.981 128.185L210.486 121.696L215.467 119.741L289.116 127.201Z" fill="url(#paint8_linear_1_3136)"/>
<path d="M115.135 123.565L117.862 124.832L210.487 121.696L215.468 119.741L115.135 123.565Z" fill="url(#paint9_linear_1_3136)"/>
<path d="M289.116 85.7314L286.981 86.7675L210.486 74.535L215.467 71.6786L289.116 85.7314Z" fill="url(#paint10_linear_1_3136)"/>
<path d="M11.5996 86.3164L12.6668 86.9539L210.487 74.535L215.468 71.6786L11.5996 86.3164Z" fill="url(#paint11_linear_1_3136)"/>
<g style="mix-blend-mode:multiply">
<path d="M296.126 174.247C278.434 245.748 202.796 302.051 125.208 290.036C66.0141 280.876 15.6355 233.489 3.03125 174.247H296.126Z" fill="#F4F7FA"/>
</g>
<path d="M78.1069 264.429L78.0137 264.444C72.9448 265.254 66.5934 264.688 62.4887 261.315C60.3255 259.537 58.8609 257.193 58.4109 254.417C58.1441 252.77 57.9994 251.034 58.2566 249.376C58.5266 247.642 59.1973 245.967 60.0609 244.447C60.5482 243.598 61.0874 242.779 61.6755 241.995C63.348 239.751 67.2973 236.601 65.4662 233.424C64.3584 231.501 61.8073 230.316 60.1219 228.97C56.5187 226.089 53.9312 221.935 53.8948 217.191C53.8659 213.465 56.2027 209.776 58.8384 207.271C69.5644 197.076 61.6627 179.543 76.8544 180.914C92.0462 182.285 95.343 197.452 89.6526 211.608C87.7476 216.347 85.4291 221.191 84.1359 226.144C83.1169 230.043 84.5569 232.74 87.7316 235.044C89.4459 236.283 91.9369 237.129 93.4208 238.589C96.7358 241.851 99.3919 246.424 98.6001 251.21C97.8158 255.958 93.7691 259.445 89.5037 261.25C85.8212 262.814 82.0562 263.801 78.1069 264.429Z" fill="url(#paint12_linear_1_3136)"/>
<g style="mix-blend-mode:soft-light" opacity="0.8">
<g style="mix-blend-mode:soft-light" opacity="0.8">
<path d="M76.3226 260.357C76.2725 260.357 76.2231 260.345 76.1786 260.321C76.1342 260.298 76.096 260.264 76.0674 260.223C76.0387 260.182 76.0203 260.134 76.0138 260.085C76.0074 260.035 76.013 259.984 76.0301 259.937C76.0934 259.761 82.3891 242.186 76.8776 228.101C71.2751 213.785 77.5419 198.46 77.6051 198.306C77.64 198.234 77.7011 198.178 77.776 198.15C77.8508 198.121 77.9337 198.123 78.0076 198.154C78.0814 198.185 78.1406 198.243 78.173 198.316C78.2054 198.389 78.2084 198.472 78.1816 198.547C78.1184 198.698 71.9512 213.797 77.4584 227.872C83.0576 242.18 76.6816 259.974 76.6162 260.151C76.5943 260.212 76.5543 260.264 76.5018 260.301C76.4493 260.337 76.3868 260.357 76.3226 260.357Z" fill="white"/>
</g>
</g>
<path d="M81.3144 238.033C80.0519 236.049 78.6316 234.169 77.0672 232.413C71.934 226.627 68.3308 220.481 66.0315 213.068C64.2101 207.228 64.254 200.552 63.1269 194.523C62.3104 190.155 60.8308 185.926 59.2944 181.767C56.0158 172.909 51.1065 162.634 42.8565 157.316C39.039 154.852 33.3776 154.609 29.1669 156.374C23.7122 158.659 18.8887 163.112 18.5394 169.304C18.0583 177.818 25.4951 187.362 19.344 195.192C9.92724 207.18 14.3287 220.499 27.2726 227.013C31.4994 229.142 36.4397 231.107 39.9637 234.374C43.4876 237.641 41.393 243.229 40.9997 247.375C40.6312 251.264 40.224 255.783 42.7033 259.109C46.8819 264.72 56.9844 267.165 63.5479 267.719C69.8994 268.255 77.1176 267.554 81.5662 262.469C88.2712 254.806 86.0822 245.58 81.3144 238.033Z" fill="url(#paint13_linear_1_3136)"/>
<g style="mix-blend-mode:soft-light" opacity="0.8">
<g style="mix-blend-mode:soft-light" opacity="0.8">
<path d="M70.9773 262.441C70.9138 262.441 70.8517 262.422 70.7995 262.386C70.7472 262.349 70.7072 262.298 70.6848 262.239C70.4791 261.693 49.9398 207.489 38.2205 185.649C38.1815 185.576 38.173 185.49 38.197 185.411C38.221 185.332 38.2755 185.265 38.3486 185.226C38.4216 185.187 38.5072 185.178 38.5864 185.202C38.6657 185.227 38.7322 185.281 38.7712 185.354C50.5098 207.233 71.063 261.473 71.2687 262.018C71.2834 262.056 71.2903 262.097 71.2891 262.138C71.2879 262.179 71.2787 262.22 71.2618 262.257C71.245 262.294 71.221 262.328 71.1911 262.356C71.1612 262.384 71.1261 262.406 71.0877 262.421C71.0523 262.434 71.015 262.441 70.9773 262.441Z" fill="white"/>
</g>
</g>
<path d="M62.0988 270.107C63.466 269.913 64.8288 269.689 66.1853 269.472C69.9781 268.863 74.6753 267.681 75.8678 263.45C76.2074 262.245 75.6224 260.094 75.482 258.843C75.3518 257.565 75.1442 256.295 74.8606 255.042C74.444 253.327 73.7982 251.677 72.9406 250.135C71.4631 247.441 69.7756 245.414 66.632 244.804C64.3403 244.36 61.801 244.256 59.4717 244.332C46.7742 244.749 45.2131 240.168 38.2392 230.385C31.2653 220.602 -14.6358 236.421 13.051 253.803C13.051 253.803 17.2146 256.51 32.4096 254.741C35.1899 254.419 38.7053 254.205 41.0614 256C45.2174 259.17 41.0389 265.89 45.2346 268.527C47.6817 270.063 51.6149 270.515 54.4253 270.624C56.9988 270.72 59.5542 270.467 62.0988 270.107Z" fill="url(#paint14_linear_1_3136)"/>
<g style="mix-blend-mode:soft-light" opacity="0.8">
<g style="mix-blend-mode:soft-light" opacity="0.8">
<path d="M70.5758 264.869C70.5265 264.869 70.4779 264.857 70.4339 264.835C70.39 264.812 70.352 264.78 70.3229 264.74C70.2426 264.633 62.2036 253.705 50.7994 251.122C46.339 250.113 42.4829 247.856 38.7544 245.672C32.4672 241.99 26.5283 238.512 17.763 240.299C17.6818 240.315 17.5975 240.299 17.5285 240.253C17.4594 240.208 17.4114 240.136 17.3949 240.055C17.3784 239.974 17.3949 239.89 17.4406 239.821C17.4863 239.752 17.5575 239.704 17.6387 239.687C26.6387 237.852 32.9601 241.554 39.0672 245.133C42.754 247.292 46.5672 249.526 50.9344 250.513C62.5722 253.145 70.744 264.261 70.8244 264.374C70.8485 264.407 70.8659 264.444 70.8756 264.484C70.8852 264.524 70.8869 264.566 70.8805 264.606C70.8742 264.647 70.8599 264.685 70.8385 264.72C70.8171 264.755 70.789 264.786 70.7558 264.81C70.7031 264.847 70.6403 264.868 70.5758 264.869Z" fill="white"/>
</g>
</g>
<path d="M170.892 33.2571L218.777 28.2267C222.223 27.8988 225.023 30.5303 225.023 34.1035V78.8485C225.023 82.4228 222.223 85.5299 218.777 85.7882L216.16 85.9842V97.0414C216.16 98.6989 214.231 99.6439 212.642 97.921L202.725 86.9925L170.892 89.1674C167.874 89.3935 165.428 86.8735 165.428 83.5382V39.8142C165.428 36.4799 167.87 33.5442 170.892 33.2571Z" fill="url(#paint15_linear_1_3136)"/>
<path d="M163.902 38.6903V82.4399C163.902 85.7774 166.332 88.2996 169.353 88.0757L201.127 85.8492L214.55 84.9074L217.3 84.7146C220.751 84.4585 223.567 81.3492 223.567 77.7717V33C223.567 29.4225 220.75 26.7857 217.298 27.1146L210.301 27.8475L169.357 32.1278C166.337 32.4161 163.902 35.3571 163.902 38.6903Z" fill="url(#paint16_linear_1_3136)"/>
<path d="M165.42 37.4454V83.4236C165.42 85.2032 166.712 86.5479 168.321 86.4236L199.587 84.1521L201.119 85.845L211.569 97.38C212.628 98.5468 214.546 97.635 214.546 95.9754V83.07L218.403 82.7904C220.243 82.6511 221.832 80.9904 221.832 79.0864V31.9843C221.832 30.0804 220.301 28.6779 218.462 28.8514L209.082 29.8061L168.343 33.9493C166.728 34.1025 165.42 35.6657 165.42 37.4454Z" fill="url(#paint17_linear_1_3136)"/>
<g opacity="0.8">
<g style="mix-blend-mode:multiply" opacity="0.3">
<path style="mix-blend-mode:multiply" opacity="0.3" d="M171.721 63.0149L215.678 59.5006C216.4 59.4427 217.05 58.7806 217.128 58.0199L217.463 54.7563C217.543 53.9838 217.014 53.4063 216.285 53.4706L171.82 57.2763C171.151 57.3342 170.6 57.9759 170.589 58.7088L170.543 61.8052C170.531 62.5263 171.059 63.0674 171.721 63.0149Z" fill="url(#paint18_linear_1_3136)"/>
<path style="mix-blend-mode:multiply" opacity="0.3" d="M173.279 64.0436L176.411 78.63C176.492 79.0547 176.725 79.4352 177.067 79.6994C177.409 79.9636 177.837 80.0932 178.268 80.0636L206.501 78.2936C207.452 78.2336 208.342 77.52 208.658 76.5579L213.84 60.8464L173.279 64.0436ZM202.761 64.3468C202.808 63.7232 203.328 63.18 203.921 63.1339L204.947 63.0546C205.542 63.0086 205.984 63.4832 205.932 64.1046L204.949 75.9975C204.921 76.2906 204.792 76.565 204.585 76.7739C204.377 76.9828 204.104 77.1132 203.811 77.1429L202.814 77.2071C202.237 77.2436 201.806 76.7936 201.85 76.2L202.761 64.3468ZM197.082 64.7754C197.123 64.1561 197.632 63.6171 198.219 63.5711L199.233 63.4929C199.822 63.4468 200.263 63.915 200.219 64.5364L199.371 76.3564C199.347 76.6461 199.222 76.9183 199.019 77.1259C198.815 77.3335 198.546 77.4635 198.257 77.4932L197.27 77.5564C196.699 77.5929 196.268 77.145 196.305 76.5546L197.082 64.7754ZM191.464 65.2039C191.497 64.5889 191.999 64.0532 192.576 64.0082L193.58 63.93C194.161 63.885 194.604 64.35 194.566 64.9671L193.85 76.7154C193.83 77.0023 193.71 77.2731 193.51 77.4799C193.31 77.6867 193.044 77.8163 192.758 77.8457L191.782 77.9079C191.217 77.9443 190.785 77.4986 190.818 76.9114L191.464 65.2039ZM185.905 65.6325C185.932 65.0218 186.419 64.4882 186.994 64.4443L187.987 64.3671C188.563 64.3221 189.006 64.785 188.975 65.3989L188.386 77.0775C188.371 77.3618 188.255 77.6314 188.059 77.8375C187.862 78.0436 187.598 78.1727 187.315 78.2014L186.351 78.2625C185.791 78.2989 185.36 77.8554 185.386 77.2725L185.905 65.6325ZM180.406 66.0525C180.427 65.445 180.904 64.9157 181.478 64.8739L182.459 64.7979C183.029 64.7529 183.473 65.2125 183.448 65.8232L182.986 77.4278C182.963 78.0096 182.495 78.5089 181.94 78.5443L180.984 78.6054C180.431 78.6407 179.998 78.2004 180.02 77.6207L180.406 66.0525Z" fill="url(#paint19_linear_1_3136)"/>
<path style="mix-blend-mode:multiply" opacity="0.3" d="M209.661 52.3831C210.285 52.9585 211.327 52.7924 211.989 52.0113C212.651 51.2303 212.686 50.1192 212.058 49.5385C211.43 48.9578 210.381 49.1292 209.72 49.9188C209.058 50.7085 209.035 51.8078 209.661 52.3831Z" fill="url(#paint20_linear_1_3136)"/>
<path style="mix-blend-mode:multiply" opacity="0.3" d="M196.285 37.532C196.533 37.2106 197.008 37.2106 197.344 37.517L210.723 49.8664C211.051 50.1696 211.109 50.6614 210.853 50.9656C210.597 51.2699 210.124 51.271 209.796 50.9656L196.445 38.6667C196.11 38.357 196.039 37.8503 196.285 37.532Z" fill="url(#paint21_linear_1_3136)"/>
<path style="mix-blend-mode:multiply" opacity="0.3" d="M178.153 55.1302C177.496 55.7966 176.528 55.8084 175.99 55.1559C175.452 54.5034 175.544 53.4277 176.205 52.7548C176.866 52.082 177.836 52.0648 178.378 52.7248C178.919 53.3848 178.813 54.4606 178.153 55.1302Z" fill="url(#paint22_linear_1_3136)"/>
<path style="mix-blend-mode:multiply" opacity="0.3" d="M192.92 37.8782C192.706 37.6082 192.231 37.6993 191.859 38.0796L177.428 52.8471C177.085 53.1996 176.975 53.6904 177.184 53.9443C177.393 54.1982 177.841 54.12 178.186 53.7686L192.634 39.0546C193.002 38.6785 193.132 38.1428 192.92 37.8782Z" fill="url(#paint23_linear_1_3136)"/>
</g>
<path opacity="0.8" d="M171.074 62.4106L215.091 58.906C215.814 58.8492 216.463 58.186 216.541 57.4231L216.876 54.1542C216.955 53.3806 216.425 52.802 215.697 52.8685L171.173 56.6645C170.502 56.7224 169.95 57.3653 169.941 58.0992L169.897 61.201C169.882 61.921 170.411 62.4642 171.074 62.4106Z" fill="white"/>
<path opacity="0.8" d="M172.637 63.4414L175.784 78.0547C175.864 78.4801 176.098 78.8613 176.441 79.1261C176.784 79.391 177.211 79.5213 177.644 79.4925L205.916 77.7289C206.869 77.67 207.759 76.9543 208.075 75.9922L213.253 60.2539L172.637 63.4414ZM202.161 63.7564C202.209 63.1318 202.729 62.5875 203.324 62.5414L204.35 62.4632C204.947 62.4171 205.388 62.8918 205.337 63.5143L204.361 75.4286C204.333 75.7219 204.205 75.9965 203.997 76.2056C203.79 76.4147 203.516 76.5453 203.223 76.575L202.224 76.6382C201.647 76.6757 201.215 76.2236 201.26 75.6289L202.161 63.7564ZM196.473 64.185C196.513 63.5646 197.022 63.0236 197.611 62.9786L198.626 62.9003C199.216 62.8553 199.658 63.3236 199.614 63.9461L198.773 75.7864C198.75 76.0773 198.626 76.3509 198.422 76.5596C198.219 76.7683 197.948 76.8989 197.658 76.9286L196.67 76.9918C196.099 77.0282 195.666 76.5793 195.706 75.9879L196.473 64.185ZM190.846 64.6136C190.88 63.9964 191.381 63.4596 191.96 63.4146L192.964 63.3375C193.548 63.2925 193.99 63.7586 193.954 64.3768L193.243 76.1454C193.225 76.4326 193.105 76.7039 192.905 76.911C192.705 77.1182 192.438 77.2478 192.152 77.2768L191.175 77.3389C190.609 77.3754 190.176 76.9297 190.21 76.3414L190.846 64.6136ZM185.274 65.0357C185.301 64.4239 185.789 63.8903 186.364 63.8453L187.358 63.7693C187.936 63.7243 188.379 64.1882 188.348 64.8021L187.774 76.5C187.744 77.0861 187.265 77.5897 186.702 77.625L185.738 77.6861C185.178 77.7225 184.745 77.2779 184.774 76.6939L185.274 65.0357ZM179.767 65.4546C179.787 64.845 180.265 64.3157 180.838 64.2761L181.822 64.2C182.393 64.1561 182.837 64.6168 182.813 65.2275L182.358 76.8514C182.335 77.4332 181.866 77.9336 181.311 77.9689L180.353 78.03C179.799 78.0654 179.366 77.6239 179.389 77.0432L179.767 65.4546Z" fill="white"/>
<path opacity="0.8" d="M209.063 51.7736C209.69 52.35 210.732 52.185 211.394 51.4028C212.056 50.6207 212.092 49.5075 211.462 48.9257C210.832 48.3439 209.782 48.5132 209.12 49.305C208.457 50.0968 208.436 51.1971 209.063 51.7736Z" fill="white"/>
<path opacity="0.8" d="M195.66 36.8903C195.908 36.5689 196.384 36.5689 196.721 36.8753L210.128 49.2524C210.457 49.5567 210.515 50.0496 210.259 50.3549C210.003 50.6603 209.529 50.6603 209.202 50.3549L195.819 38.025C195.483 37.7142 195.411 37.2085 195.66 36.8903Z" fill="white"/>
<path opacity="0.8" d="M177.511 54.5131C176.853 55.1817 175.885 55.1924 175.346 54.5388C174.807 53.8853 174.897 52.8074 175.552 52.1335C176.208 51.4595 177.188 51.4424 177.73 52.1035C178.272 52.7645 178.171 53.8435 177.511 54.5131Z" fill="white"/>
<path opacity="0.8" d="M192.286 37.2353C192.071 36.9642 191.596 37.0553 191.223 37.4367L176.777 52.2224C176.432 52.5749 176.323 53.0678 176.533 53.3217C176.743 53.5756 177.19 53.4974 177.535 53.146L192 38.4106C192.368 38.0356 192.499 37.5053 192.286 37.2353Z" fill="white"/>
</g>
<path style="mix-blend-mode:multiply" opacity="0.2" d="M163.902 75.75V82.4379C163.902 85.7754 166.332 88.2975 169.353 88.0736L201.127 85.8471L211.573 97.3832C212.632 98.55 214.547 97.6382 214.547 95.9786V84.9075L217.298 84.7146C220.75 84.4586 223.567 81.3493 223.567 77.7718V33C223.567 29.4225 220.75 26.7857 217.298 27.1146L210.301 27.8475C209.86 28.4776 209.453 29.1302 209.08 29.8028C207.676 32.2921 206.815 35.0504 206.553 37.8964C205.462 50.205 192.601 42.6289 185.446 60.7339C181.595 70.4839 172.237 72.0289 165.431 75.0161C164.901 75.2518 164.51 75.4875 163.902 75.75Z" fill="url(#paint24_linear_1_3136)"/>
<path d="M241.756 112.945C243.119 113.289 244.542 113.314 245.916 113.02C247.808 112.603 250.53 111.339 250.535 109.846C250.535 109.13 249.913 108.882 249.049 107.842C247.253 105.676 247.693 104.018 246.752 102.378C244.686 98.7675 237.56 98.0261 236.443 99.7918C235.977 100.528 236.55 101.699 237.614 103.858C238.703 106.07 239.474 106.574 240.392 108.427C241.089 109.849 241.549 111.375 241.756 112.945Z" fill="url(#paint25_linear_1_3136)"/>
<path d="M279.75 235.015L280.131 234.354C280.131 234.354 280.816 233.943 281.139 234.792C281.461 235.64 283.299 240.068 283.396 242.078C282.915 243.279 281.552 242.261 281.27 241.444C280.989 240.628 280.016 237.597 280.016 237.597L279.75 235.015Z" fill="url(#paint26_linear_1_3136)"/>
<path d="M275.412 238.178C275.981 238.17 276.548 238.178 277.12 238.148C278.165 238.103 279.214 238.027 280.269 237.922C280.093 236.825 279.917 235.729 279.741 234.633C279.203 234.427 278.677 234.221 278.163 234.015C277.902 233.908 277.65 233.801 277.394 233.693C277.138 233.586 276.906 233.494 276.669 233.395C276.322 233.247 275.986 233.099 275.65 232.95C275.516 232.892 275.378 232.833 275.245 232.774C274.851 232.597 274.467 232.421 274.089 232.244L273.895 232.154C273.484 231.961 273.086 231.767 272.694 231.573L272.607 231.531C272.195 231.327 271.793 231.122 271.401 230.915L271.383 230.907C270.586 230.489 269.827 230.07 269.109 229.649C260.198 224.441 257.251 219.149 256.344 214.996C253.788 203.298 266.296 195.786 263.066 183.102C260.632 173.542 250.356 165.357 244.028 167.266C236.881 169.422 235.762 183.273 235.073 191.802C234.297 201.399 233.432 212.091 239.573 221.668C245.385 230.737 255.885 236.318 267.966 237.803C268.253 237.839 268.546 237.855 268.836 237.885C269.536 237.96 270.236 238.037 270.946 238.084C271.268 238.106 271.602 238.107 271.928 238.123C272.621 238.156 273.311 238.193 274.011 238.201C274.476 238.203 274.946 238.178 275.412 238.178Z" fill="url(#paint27_linear_1_3136)"/>
<path style="mix-blend-mode:multiply" opacity="0.25" d="M275.412 238.178C275.981 238.17 276.548 238.178 277.12 238.148C278.165 238.103 279.214 238.027 280.269 237.922C280.093 236.825 279.917 235.729 279.741 234.633C279.203 234.427 278.677 234.221 278.163 234.015C277.902 233.908 277.65 233.801 277.394 233.693C277.138 233.586 276.906 233.494 276.669 233.395C276.322 233.247 275.986 233.099 275.65 232.95C275.516 232.892 275.378 232.833 275.245 232.774C274.851 232.597 274.467 232.421 274.089 232.244L273.895 232.154C273.484 231.961 273.086 231.767 272.694 231.573L272.607 231.531C272.195 231.327 271.793 231.122 271.401 230.915L271.383 230.907C270.586 230.489 269.827 230.07 269.109 229.649C260.198 224.441 257.251 219.149 256.344 214.996C253.788 203.298 266.296 195.786 263.066 183.102C260.632 173.542 250.356 165.357 244.028 167.266C236.881 169.422 235.762 183.273 235.073 191.802C234.297 201.399 233.432 212.091 239.573 221.668C245.385 230.737 255.885 236.318 267.966 237.803C268.253 237.839 268.546 237.855 268.836 237.885C269.536 237.96 270.236 238.037 270.946 238.084C271.268 238.106 271.602 238.107 271.928 238.123C272.621 238.156 273.311 238.193 274.011 238.201C274.476 238.203 274.946 238.178 275.412 238.178Z" fill="url(#paint28_linear_1_3136)"/>
<path d="M217.22 170.181C215.853 168.014 222.223 164.817 224.291 155.922C226.04 148.412 222.47 146.509 224.417 136.456C225.502 130.856 227.352 127.604 229.509 125.244C231.286 123.298 233.595 120.77 235.677 121.101C242.206 122.143 249.937 151.821 236.892 164.765C230.195 171.416 218.867 172.796 217.22 170.181Z" fill="url(#paint29_linear_1_3136)"/>
<path d="M251.475 264.169C251.179 263.485 249.547 265.204 248.023 267.021L248.611 274.865C248.076 274.522 247.39 274.146 246.622 273.97C245.697 273.755 244.102 274.089 243.979 274.53C243.222 277.256 250.017 277.851 250.762 276.994C250.981 276.741 251.144 276.445 251.243 276.125C251.342 275.806 251.374 275.469 251.336 275.136C250.646 271.21 250.737 268.55 251.065 266.714C251.294 265.424 251.639 264.546 251.475 264.169Z" fill="url(#paint30_linear_1_3136)"/>
<path d="M268.885 176.475C265.007 170.758 261.227 164.974 257.437 159.198C256.693 158.064 256.259 156.747 256.054 155.365C254.47 156.629 253.036 158.07 251.78 159.661C250.709 165.011 249.065 173.054 246.891 182.804C241.367 207.573 239.042 213.776 237.87 221.567C236.067 233.553 236.706 251.217 248.612 274.869L251.337 275.14C253.25 254.908 255.446 236.647 256.552 227.264C256.928 224.08 258.038 214.529 263.151 206.835C263.234 206.712 270.801 196.364 273.412 192.23C274.281 190.854 275.369 189.069 276.604 186.68C273.673 183.597 271.323 180.071 268.885 176.475Z" fill="url(#paint31_linear_1_3136)"/>
<path style="mix-blend-mode:multiply" opacity="0.25" d="M268.883 176.475C265.006 170.758 261.226 164.974 257.436 159.198C256.692 158.064 256.258 156.747 256.053 155.365C254.469 156.629 253.035 158.07 251.779 159.661C250.087 166.197 248.886 171.797 248.039 176.075C245.697 187.942 245.831 191.223 247.503 194.17C249.809 198.22 252.464 197.125 254.146 200.65C257.1 206.83 249.191 211.052 249.263 222.971C249.304 229.579 251.667 231.238 250.591 237.303C250.313 238.87 249.526 242.309 249.874 247.035C250.026 249.111 250.196 248.659 250.321 250.534C250.683 255.877 249.409 260.788 249.961 264.124C250.092 264.94 250.35 265.73 250.726 266.466C251.064 267.112 251.493 267.707 252 268.231C253.735 250.815 255.566 235.563 256.545 227.261C256.921 224.078 258.031 214.526 263.144 206.832C263.226 206.709 270.794 196.361 273.405 192.226C274.274 190.85 275.361 189.065 276.597 186.677C273.672 183.597 271.322 180.071 268.883 176.475Z" fill="url(#paint32_linear_1_3136)"/>
<path d="M229.179 126.087C226.741 130.557 227.019 135.009 227.285 136.958C228.088 142.817 231.512 146.723 232.662 148.2C236.519 153.151 239.519 162.945 234.737 184.414C237.416 183.986 241.839 183.57 246.986 184.644C260.077 187.373 265.307 197.094 271.585 195.322C273.903 194.668 277.049 192.253 279.249 183.236C281.167 178.547 287.148 162.279 281.017 143.146C276.632 129.462 268.197 121.009 264.018 117.333C260.426 116.123 249.209 112.853 238.536 118.021C235.879 119.308 231.75 121.379 229.179 126.087Z" fill="url(#paint33_linear_1_3136)"/>
<path d="M243.201 108.773C243.201 109.718 243.234 114.773 245.482 115.605C245.972 115.786 246.367 115.67 248.546 115.727C249.788 115.76 250.796 115.827 251.45 115.876C251.305 117.008 251.041 118.122 250.66 119.198C247.864 127.065 238.813 132.532 235.747 130.562C234.15 129.537 234.027 126.462 233.977 125.185C233.92 123.715 234.166 122.25 234.699 120.88C235.822 120.064 236.97 119.247 238.145 118.429C238.912 117.896 239.675 117.372 240.433 116.859C240.383 115.891 240.332 114.923 240.28 113.955C241.254 112.227 242.228 110.499 243.201 108.773Z" fill="url(#paint34_linear_1_3136)"/>
<path d="M244.014 112.166C244.014 112.166 241.311 115.331 237.907 114.193C234.86 113.175 236.449 105.332 238.818 104.379C239.608 104.057 241.077 104.151 242.074 104.736C242.775 105.148 245.306 107.294 244.324 109.886C245.074 109.442 245.844 109.399 246.285 109.769C246.432 109.908 246.538 110.085 246.591 110.28C246.814 111.189 245.821 112.011 244.014 112.166Z" fill="url(#paint35_linear_1_3136)"/>
<path style="mix-blend-mode:multiply" opacity="0.3" d="M280.598 143.541C277.169 132.835 271.264 125.345 266.853 120.827C261.797 124.169 256.652 128.699 257.081 133.556C257.57 139.082 264.953 141.365 264.26 144.86C263.261 149.926 247.179 148.007 245.302 153.582C243.091 160.151 262.159 172.505 261.14 173.905C260.41 174.905 251.639 167.835 241.684 169.483C239.755 169.804 238.023 170.554 236.481 171.547C236.126 175.387 235.437 179.774 234.314 184.811C236.998 184.382 241.416 183.966 246.563 185.04C259.655 187.769 264.884 197.49 271.162 195.718C273.48 195.064 276.626 192.649 278.826 183.632C280.748 178.942 286.729 162.673 280.598 143.541Z" fill="url(#paint36_linear_1_3136)"/>
<path d="M256.478 118.106C259.517 117.348 259.532 116.36 263.597 117.729C275.27 121.658 287.625 139.272 281.24 151.71C277.688 158.628 269.177 164.867 259.795 163.428C252.157 162.256 247.671 156.571 246.53 155.026C246.087 153.258 245.645 151.49 245.203 149.72C250.181 152.542 253.687 152.541 256.036 151.932C260.036 150.892 260.923 148.027 267.533 145.52C270.104 144.543 271.653 144.342 271.733 143.531C271.897 141.855 265.423 141.297 261.34 137.782C258.367 135.221 255.399 129.999 256.478 118.106Z" fill="url(#paint37_linear_1_3136)"/>
<path d="M245.362 150.356L243.592 149.844C243.592 149.844 241.328 148.258 239.871 147.619C239.348 147.373 238.775 147.25 238.197 147.261C238.197 147.261 232.947 145.088 234.083 146.347C234.786 147.121 235.61 147.777 236.522 148.289C236.513 148.327 236.496 148.364 236.473 148.396C236.452 148.426 236.441 148.449 236.42 148.481C236.301 148.657 236.221 148.856 236.183 149.066C235.861 150.06 235.925 151.762 239.397 152.69V152.678C240.233 152.893 241.282 152.915 242.191 152.867C243.141 152.817 246.263 153.956 246.263 153.956L245.362 150.356Z" fill="url(#paint38_linear_1_3136)"/>
<path d="M152.497 188.9C152.441 188.901 152.386 188.888 152.336 188.863C152.292 188.842 152.254 188.812 152.222 188.776C152.19 188.74 152.166 188.698 152.15 188.652C152.135 188.607 152.128 188.558 152.132 188.51C152.135 188.462 152.147 188.415 152.168 188.372C152.207 188.293 156.026 180.461 153.793 177.565C153.014 176.555 151.521 176.266 149.356 176.707C146.463 177.295 144.494 178.554 143.506 180.451C141.8 183.729 143.573 187.88 143.592 187.921C143.611 187.965 143.621 188.013 143.622 188.061C143.623 188.109 143.615 188.157 143.597 188.202C143.579 188.247 143.553 188.287 143.52 188.322C143.487 188.357 143.447 188.385 143.403 188.404C143.358 188.423 143.311 188.434 143.263 188.434C143.215 188.435 143.167 188.427 143.122 188.409C143.077 188.392 143.036 188.365 143.002 188.332C142.967 188.299 142.939 188.259 142.92 188.215C142.841 188.033 140.991 183.708 142.853 180.117C143.948 178.011 146.087 176.622 149.21 175.99C151.675 175.49 153.41 175.871 154.373 177.121C156.882 180.377 152.993 188.36 152.826 188.699C152.796 188.76 152.749 188.811 152.69 188.847C152.632 188.882 152.565 188.901 152.497 188.9Z" fill="#CBD0D8"/>
<path d="M104.984 277.412C104.984 280.388 103.149 282.802 100.885 282.802C98.6214 282.802 96.7871 280.388 96.7871 277.412C96.7871 274.436 98.6225 272.022 100.885 272.022C103.148 272.022 104.984 274.435 104.984 277.412Z" fill="url(#paint39_linear_1_3136)"/>
<path d="M106.123 278.021C106.123 280.998 104.289 283.411 102.026 283.411C99.7631 283.411 97.9277 280.998 97.9277 278.021C97.9277 275.043 99.762 272.63 102.026 272.63C104.29 272.63 106.123 275.043 106.123 278.021Z" fill="url(#paint40_linear_1_3136)"/>
<path d="M103.743 278.129C103.743 279.376 102.974 280.388 102.029 280.388C101.084 280.388 100.314 279.376 100.314 278.129C100.314 276.882 101.083 275.87 102.029 275.87C102.975 275.87 103.743 276.882 103.743 278.129Z" fill="url(#paint41_linear_1_3136)"/>
<path d="M100.885 271.441V277.36C100.885 277.777 101.051 278.177 101.346 278.472C101.641 278.768 102.041 278.933 102.459 278.933C102.706 278.934 102.95 278.876 103.171 278.764C103.392 278.652 103.583 278.49 103.729 278.291L109.053 271.005L100.885 271.441Z" fill="#CBD0D8"/>
<path d="M148.856 272.685C148.856 275.662 147.021 278.075 144.758 278.075C142.496 278.075 140.66 275.662 140.66 272.685C140.66 269.707 142.494 267.295 144.758 267.295C147.022 267.295 148.856 269.707 148.856 272.685Z" fill="url(#paint42_linear_1_3136)"/>
<path d="M149.999 273.294C149.999 276.271 148.165 278.684 145.901 278.684C143.637 278.684 141.803 276.271 141.803 273.294C141.803 270.316 143.638 267.903 145.901 267.903C148.164 267.903 149.999 270.321 149.999 273.294Z" fill="url(#paint43_linear_1_3136)"/>
<path d="M145.899 275.66C146.848 275.66 147.617 274.649 147.617 273.402C147.617 272.154 146.848 271.143 145.899 271.143C144.951 271.143 144.182 272.154 144.182 273.402C144.182 274.649 144.951 275.66 145.899 275.66Z" fill="url(#paint44_linear_1_3136)"/>
<path d="M144.758 266.714V272.633C144.758 272.839 144.798 273.044 144.877 273.235C144.956 273.426 145.072 273.599 145.218 273.745C145.364 273.892 145.538 274.008 145.729 274.087C145.919 274.166 146.124 274.206 146.331 274.206C146.578 274.207 146.822 274.149 147.043 274.037C147.264 273.925 147.456 273.763 147.602 273.564L153.034 265.616L144.758 266.714Z" fill="#CBD0D8"/>
<path d="M100.274 271.94C100.105 271.942 99.9422 271.879 99.819 271.765C99.6958 271.65 99.6217 271.491 99.6123 271.323C99.6029 271.155 99.6589 270.989 99.7685 270.861C99.8782 270.733 100.033 270.653 100.201 270.636L152.158 264.781C153.648 264.516 155.033 263.833 156.15 262.81C157.267 261.787 158.069 260.468 158.463 259.006L180.228 177.975C180.771 175.954 181.931 174.154 183.547 172.825C185.162 171.495 187.152 170.703 189.24 170.56L206.178 169.393C206.351 169.382 206.521 169.441 206.651 169.556C206.78 169.671 206.859 169.833 206.87 170.006C206.88 170.179 206.821 170.349 206.706 170.479C206.591 170.609 206.429 170.687 206.256 170.698L189.328 171.868C187.513 171.994 185.783 172.683 184.379 173.839C182.975 174.996 181.967 176.561 181.495 178.318L159.73 259.348C159.268 261.056 158.328 262.597 157.02 263.79C155.711 264.982 154.09 265.776 152.346 266.078L100.352 271.939C100.326 271.941 100.3 271.942 100.274 271.94Z" fill="#BFC8D6"/>
<path d="M136.42 240.042C136.278 240.042 136.14 239.995 136.026 239.91C135.913 239.824 135.83 239.704 135.791 239.567L123.556 196.755C123.509 196.588 123.529 196.41 123.614 196.258C123.698 196.106 123.839 195.994 124.006 195.947C124.173 195.899 124.352 195.92 124.503 196.004C124.655 196.088 124.767 196.23 124.814 196.396L137.049 239.208C137.076 239.306 137.081 239.408 137.062 239.507C137.044 239.607 137.002 239.7 136.941 239.781C136.88 239.862 136.802 239.927 136.711 239.973C136.621 240.018 136.521 240.042 136.42 240.042Z" fill="#BFC8D6"/>
<path d="M148.938 238.253C148.785 238.252 148.637 238.199 148.52 238.101C148.402 238.003 148.323 237.867 148.295 237.717L140.748 195.308C140.725 195.141 140.768 194.972 140.868 194.836C140.967 194.699 141.115 194.607 141.281 194.577C141.447 194.548 141.618 194.583 141.758 194.677C141.899 194.77 141.997 194.915 142.034 195.079L149.581 237.488C149.596 237.572 149.594 237.659 149.576 237.743C149.558 237.827 149.523 237.906 149.474 237.977C149.424 238.047 149.362 238.107 149.289 238.153C149.217 238.2 149.136 238.231 149.052 238.246C149.014 238.251 148.976 238.253 148.938 238.253Z" fill="#C2C2C2"/>
<path d="M156.713 236.862H156.686C156.6 236.859 156.516 236.838 156.438 236.802C156.36 236.766 156.289 236.715 156.231 236.652C156.173 236.589 156.128 236.515 156.098 236.434C156.069 236.353 156.055 236.268 156.059 236.182L157.8 194.222C157.811 194.05 157.888 193.889 158.015 193.772C158.141 193.655 158.308 193.592 158.481 193.595C158.654 193.603 158.817 193.678 158.935 193.806C159.052 193.934 159.114 194.103 159.107 194.276L157.366 236.236C157.359 236.405 157.287 236.564 157.165 236.68C157.043 236.797 156.881 236.862 156.713 236.862Z" fill="#C2C2C2"/>
<path d="M119.348 241.607C119.211 241.607 119.077 241.564 118.966 241.484C118.855 241.404 118.771 241.291 118.727 241.161L104.362 198.331C104.331 198.249 104.317 198.161 104.321 198.073C104.325 197.985 104.346 197.899 104.384 197.82C104.422 197.741 104.475 197.67 104.541 197.612C104.607 197.553 104.684 197.509 104.767 197.481C104.85 197.453 104.938 197.442 105.026 197.449C105.114 197.456 105.199 197.48 105.277 197.521C105.355 197.561 105.424 197.617 105.48 197.685C105.536 197.753 105.577 197.831 105.602 197.915L119.967 240.75C119.994 240.831 120.006 240.917 120 241.003C119.994 241.088 119.971 241.172 119.933 241.249C119.895 241.326 119.842 241.394 119.777 241.45C119.712 241.507 119.637 241.55 119.556 241.577C119.489 241.598 119.418 241.608 119.348 241.607Z" fill="#BFC8D6"/>
<path d="M241.985 173.973C242.254 173.971 242.512 173.865 242.706 173.677C242.899 173.49 243.013 173.236 243.024 172.967C243.035 172.698 242.942 172.435 242.764 172.232C242.587 172.03 242.338 171.904 242.07 171.88L206.713 168.973C206.436 168.95 206.161 169.038 205.949 169.218C205.737 169.398 205.605 169.654 205.582 169.931C205.559 170.208 205.647 170.483 205.827 170.695C206.006 170.907 206.263 171.039 206.54 171.062L241.897 173.969C241.927 173.972 241.956 173.973 241.985 173.973Z" fill="url(#paint45_linear_1_3136)"/>
<path d="M143.475 292.114C143.475 295.091 141.64 297.505 139.376 297.505C137.113 297.505 135.279 295.091 135.279 292.114C135.279 289.138 137.114 286.723 139.376 286.723C141.639 286.723 143.475 289.137 143.475 292.114Z" fill="url(#paint46_linear_1_3136)"/>
<path d="M144.616 292.723C144.616 295.7 142.781 298.113 140.518 298.113C138.255 298.113 136.42 295.7 136.42 292.723C136.42 289.745 138.255 287.331 140.518 287.331C142.781 287.331 144.616 289.745 144.616 292.723Z" fill="url(#paint47_linear_1_3136)"/>
<path d="M142.235 292.831C142.235 294.078 141.467 295.09 140.521 295.09C139.575 295.09 138.807 294.078 138.807 292.831C138.807 291.584 139.575 290.573 140.521 290.573C141.467 290.573 142.235 291.584 142.235 292.831Z" fill="url(#paint48_linear_1_3136)"/>
<path d="M139.377 286.143V292.062C139.377 292.479 139.543 292.879 139.838 293.175C140.133 293.47 140.533 293.636 140.951 293.636C141.198 293.636 141.442 293.578 141.663 293.466C141.884 293.355 142.075 293.192 142.222 292.993L147.546 285.707L139.377 286.143Z" fill="#97A6B7"/>
<path d="M181.46 288.312C181.46 291.288 179.625 293.702 177.362 293.702C175.099 293.702 173.264 291.288 173.264 288.312C173.264 285.335 175.099 282.92 177.362 282.92C179.625 282.92 181.46 285.334 181.46 288.312Z" fill="url(#paint49_linear_1_3136)"/>
<path d="M182.602 288.92C182.602 291.897 180.767 294.311 178.504 294.311C176.242 294.311 174.406 291.897 174.406 288.92C174.406 285.944 176.241 283.529 178.504 283.529C180.768 283.529 182.602 285.943 182.602 288.92Z" fill="url(#paint50_linear_1_3136)"/>
<path d="M180.22 289.029C180.22 290.276 179.45 291.287 178.505 291.287C177.56 291.287 176.791 290.276 176.791 289.029C176.791 287.781 177.559 286.77 178.505 286.77C179.451 286.77 180.22 287.786 180.22 289.029Z" fill="url(#paint51_linear_1_3136)"/>
<path d="M177.361 282.34V288.259C177.361 288.466 177.402 288.671 177.481 288.862C177.56 289.052 177.676 289.226 177.822 289.372C177.968 289.518 178.142 289.634 178.333 289.713C178.524 289.792 178.729 289.833 178.935 289.833C179.183 289.833 179.427 289.775 179.647 289.664C179.868 289.552 180.06 289.39 180.206 289.19L186.132 281.204L177.361 282.34Z" fill="#97A6B7"/>
<path d="M84.107 199.758C83.9359 199.761 83.7706 199.696 83.6466 199.578C83.5226 199.461 83.4498 199.299 83.4438 199.128C83.4377 198.957 83.499 198.79 83.6144 198.664C83.7298 198.538 83.8901 198.462 84.0609 198.452L176.596 191.792C176.648 191.788 176.701 191.79 176.753 191.8L215.062 198.321C215.22 198.363 215.356 198.462 215.444 198.599C215.533 198.736 215.567 198.901 215.54 199.062C215.513 199.222 215.427 199.367 215.299 199.468C215.172 199.569 215.011 199.619 214.848 199.607L176.617 193.096L84.1562 199.757L84.107 199.758Z" fill="#BFC8D6"/>
<path d="M170.343 188.263C170.303 188.263 170.263 188.256 170.225 188.243C170.18 188.228 170.138 188.204 170.102 188.172C170.065 188.14 170.036 188.102 170.014 188.059C169.993 188.015 169.981 187.968 169.977 187.92C169.974 187.872 169.981 187.824 169.996 187.778C170.014 187.724 171.84 182.247 170.085 179.176C169.505 178.161 168.585 177.516 167.336 177.256C166.143 177.007 165.129 177.22 164.229 177.905C161.291 180.141 160.846 186.584 160.842 186.644C160.84 186.692 160.828 186.74 160.807 186.783C160.786 186.827 160.756 186.866 160.72 186.898C160.684 186.93 160.641 186.954 160.596 186.969C160.55 186.985 160.501 186.991 160.453 186.987C160.405 186.984 160.358 186.971 160.315 186.95C160.271 186.929 160.233 186.899 160.201 186.863C160.169 186.827 160.145 186.785 160.129 186.74C160.114 186.694 160.107 186.646 160.11 186.598C160.128 186.319 160.584 179.759 163.785 177.321C164.849 176.511 166.094 176.25 167.486 176.538C168.945 176.842 170.035 177.61 170.723 178.813C172.64 182.172 170.771 187.777 170.69 188.014C170.666 188.087 170.619 188.15 170.557 188.194C170.494 188.239 170.42 188.263 170.343 188.263Z" fill="#CBD0D8"/>
<path d="M175.944 185.96L176.695 182.684L154.658 183.707L150.436 187.371L166.292 188.54L175.944 185.96Z" fill="url(#paint52_linear_1_3136)"/>
<path d="M176.694 182.684L194.777 225.43L183.242 240.749L172.4 201.747L173.384 185.166L176.694 182.684Z" fill="url(#paint53_linear_1_3136)"/>
<path d="M173.384 185.166L150.434 187.371C148.306 206.685 147.977 216.039 145.85 235.352C156.611 240.125 170.259 243.318 183.243 240.749C180.038 223.27 176.59 202.647 173.384 185.166Z" fill="url(#paint54_linear_1_3136)"/>
<path d="M159.195 189.034C159.107 189.034 159.023 189.003 158.956 188.946C158.89 188.889 158.846 188.81 158.833 188.724C158.791 188.448 157.829 181.941 160.432 178.875C161.298 177.856 162.457 177.332 163.879 177.317C165.379 177.298 166.598 177.815 167.529 178.844C170.122 181.713 169.499 187.589 169.471 187.838C169.46 187.934 169.411 188.022 169.335 188.083C169.259 188.144 169.163 188.172 169.066 188.161C168.969 188.15 168.881 188.102 168.82 188.026C168.76 187.95 168.732 187.853 168.742 187.756C168.749 187.698 169.356 181.958 166.984 179.335C166.201 178.469 165.154 178.032 163.887 178.049C162.671 178.062 161.723 178.487 160.994 179.349C158.603 182.163 159.55 188.547 159.56 188.611C159.575 188.707 159.55 188.805 159.493 188.884C159.435 188.962 159.349 189.014 159.253 189.029C159.234 189.032 159.214 189.034 159.195 189.034Z" fill="#CBD0D8"/>
<path d="M164.981 190.154L166.04 187.191L141.204 183.319L136.219 185.887L153.963 190.491L164.981 190.154Z" fill="url(#paint55_linear_1_3136)"/>
<path d="M166.04 187.191L183.563 231.965L169.595 244.047L159.965 204.439L162.157 188.833L166.04 187.191Z" fill="url(#paint56_linear_1_3136)"/>
<path d="M162.155 188.833L136.217 185.893C132.559 203.856 129.435 218.581 125.777 236.545C140.538 236.95 154.832 243.647 169.599 244.052C167.142 226.66 164.612 206.22 162.155 188.833Z" fill="url(#paint57_linear_1_3136)"/>
<path d="M153.57 190.441C153.507 190.441 153.446 190.424 153.392 190.394C153.338 190.363 153.292 190.32 153.259 190.267C153.226 190.214 153.208 190.154 153.204 190.092C153.201 190.03 153.214 189.968 153.241 189.912C153.279 189.833 157.098 182 154.865 179.105C154.087 178.095 152.594 177.806 150.428 178.248C147.535 178.834 145.566 180.094 144.578 181.992C142.872 185.268 144.646 189.42 144.664 189.462C144.703 189.551 144.705 189.652 144.669 189.742C144.634 189.833 144.564 189.905 144.475 189.944C144.386 189.983 144.285 189.985 144.194 189.95C144.104 189.914 144.031 189.844 143.992 189.755C143.913 189.573 142.064 185.248 143.926 181.657C145.02 179.551 147.159 178.162 150.282 177.529C152.747 177.03 154.484 177.411 155.446 178.661C157.954 181.917 154.066 189.901 153.899 190.24C153.868 190.3 153.821 190.351 153.763 190.387C153.705 190.423 153.638 190.441 153.57 190.441Z" fill="#CBD0D8"/>
<path d="M115.551 209.305C115.486 209.304 115.422 209.295 115.36 209.277L83.9193 199.73C83.7533 199.68 83.6141 199.566 83.5324 199.413C83.4506 199.26 83.4329 199.081 83.4832 198.915C83.5335 198.749 83.6476 198.61 83.8006 198.528C83.9535 198.446 84.1326 198.429 84.2985 198.479L115.616 207.988L214.888 198.321C214.974 198.313 215.06 198.322 215.142 198.347C215.225 198.372 215.301 198.413 215.367 198.467C215.434 198.522 215.488 198.589 215.529 198.665C215.569 198.741 215.594 198.824 215.603 198.909C215.611 198.995 215.602 199.081 215.577 199.163C215.552 199.245 215.511 199.322 215.457 199.388C215.402 199.454 215.335 199.509 215.259 199.549C215.183 199.59 215.1 199.615 215.015 199.623L115.614 209.305H115.551Z" fill="#97A6B7"/>
<path d="M202.983 243.08C202.95 243.08 202.917 243.078 202.884 243.073L165.135 237.281L107.732 242.806C107.56 242.823 107.387 242.77 107.254 242.66C107.12 242.55 107.035 242.391 107.019 242.218C107.002 242.045 107.055 241.873 107.165 241.739C107.275 241.606 107.434 241.521 107.607 241.504L165.091 235.971C165.145 235.964 165.199 235.964 165.253 235.971L203.082 241.775C203.244 241.802 203.39 241.888 203.491 242.017C203.592 242.146 203.642 242.308 203.629 242.471C203.617 242.634 203.544 242.787 203.424 242.899C203.304 243.011 203.147 243.074 202.983 243.076V243.08Z" fill="#CBD0D8"/>
<path d="M134.634 249.58C134.51 249.58 134.388 249.545 134.284 249.478C134.179 249.412 134.095 249.318 134.042 249.206L114.964 208.929C114.901 208.774 114.9 208.601 114.96 208.446C115.021 208.29 115.138 208.164 115.289 208.092C115.44 208.02 115.612 208.009 115.771 208.06C115.93 208.112 116.063 208.222 116.143 208.368L135.029 248.225L202.921 241.769C203.008 241.758 203.096 241.765 203.18 241.789C203.264 241.813 203.343 241.853 203.411 241.908C203.479 241.963 203.536 242.031 203.578 242.108C203.619 242.185 203.645 242.269 203.653 242.356C203.661 242.444 203.652 242.531 203.626 242.615C203.6 242.698 203.557 242.776 203.5 242.843C203.444 242.909 203.374 242.964 203.296 243.003C203.218 243.043 203.133 243.066 203.045 243.072L134.696 249.571C134.675 249.575 134.654 249.578 134.634 249.58Z" fill="#97A6B7"/>
<path d="M134.633 249.58C134.579 249.58 134.525 249.573 134.473 249.559L107.51 242.786C107.422 242.764 107.34 242.724 107.269 242.669C107.197 242.613 107.138 242.544 107.095 242.464L83.5344 199.414C83.491 199.339 83.463 199.255 83.4523 199.169C83.4415 199.082 83.4481 198.995 83.4717 198.911C83.4953 198.827 83.5355 198.748 83.5898 198.68C83.6441 198.612 83.7114 198.555 83.7879 198.514C83.8644 198.472 83.9485 198.446 84.0352 198.437C84.1219 198.428 84.2095 198.436 84.2929 198.462C84.3762 198.487 84.4537 198.529 84.5207 198.585C84.5877 198.641 84.6429 198.709 84.683 198.787L108.107 241.59L134.793 248.291C134.944 248.332 135.076 248.427 135.163 248.558C135.251 248.688 135.288 248.846 135.269 249.002C135.25 249.158 135.175 249.302 135.058 249.407C134.942 249.513 134.791 249.573 134.634 249.576L134.633 249.58Z" fill="#97A6B7"/>
<path d="M122.492 223.954C122.43 223.954 122.368 223.945 122.308 223.928L92.6957 215.249C92.5349 215.195 92.4012 215.082 92.3227 214.932C92.2441 214.781 92.2268 214.607 92.2744 214.444C92.322 214.282 92.4308 214.144 92.5779 214.06C92.7249 213.976 92.8989 213.952 93.0632 213.993L122.557 222.643L210.076 215.01C210.162 215.003 210.248 215.012 210.33 215.038C210.412 215.064 210.488 215.105 210.553 215.16C210.619 215.216 210.674 215.283 210.713 215.359C210.753 215.435 210.777 215.519 210.785 215.604C210.792 215.69 210.783 215.776 210.757 215.858C210.731 215.94 210.69 216.016 210.634 216.082C210.579 216.147 210.512 216.202 210.436 216.241C210.359 216.281 210.276 216.305 210.191 216.313L122.548 223.957C122.529 223.957 122.511 223.956 122.492 223.954Z" fill="#97A6B7"/>
<path d="M129.725 239.222C129.666 239.222 129.607 239.214 129.55 239.199L101.182 231.251C101.096 231.23 101.015 231.193 100.945 231.14C100.874 231.088 100.814 231.022 100.77 230.946C100.725 230.87 100.696 230.786 100.685 230.698C100.674 230.611 100.68 230.523 100.704 230.438C100.728 230.353 100.768 230.274 100.823 230.205C100.878 230.136 100.946 230.079 101.024 230.038C101.101 229.996 101.187 229.97 101.274 229.962C101.362 229.954 101.45 229.964 101.534 229.991L129.788 237.906L205.794 231.257C205.879 231.25 205.965 231.259 206.047 231.285C206.129 231.311 206.205 231.352 206.271 231.407C206.337 231.463 206.391 231.53 206.431 231.606C206.471 231.682 206.495 231.766 206.502 231.851C206.51 231.937 206.501 232.023 206.475 232.105C206.449 232.187 206.407 232.263 206.352 232.329C206.297 232.394 206.229 232.449 206.153 232.488C206.077 232.528 205.994 232.552 205.908 232.56L129.783 239.22C129.764 239.222 129.745 239.222 129.725 239.222Z" fill="#97A6B7"/>
<path d="M148.589 248.25C148.448 248.25 148.311 248.205 148.198 248.12C148.085 248.036 148.002 247.918 147.962 247.783L135.793 206.957C135.768 206.875 135.76 206.788 135.769 206.703C135.778 206.618 135.804 206.535 135.845 206.459C135.885 206.384 135.941 206.317 136.007 206.263C136.074 206.209 136.151 206.168 136.233 206.144C136.315 206.119 136.402 206.111 136.487 206.12C136.573 206.129 136.655 206.155 136.731 206.196C136.806 206.236 136.873 206.292 136.927 206.359C136.981 206.425 137.022 206.502 137.046 206.584L149.215 247.411C149.239 247.493 149.247 247.58 149.239 247.665C149.23 247.75 149.205 247.833 149.164 247.909C149.123 247.984 149.068 248.051 149.001 248.105C148.934 248.159 148.858 248.2 148.775 248.224C148.715 248.242 148.652 248.251 148.589 248.25Z" fill="#97A6B7"/>
<path d="M162.051 246.972C161.898 246.972 161.75 246.918 161.632 246.82C161.515 246.722 161.435 246.586 161.408 246.436L154.108 205.071C154.088 204.985 154.087 204.896 154.103 204.809C154.119 204.722 154.152 204.639 154.201 204.565C154.25 204.491 154.313 204.428 154.387 204.38C154.461 204.331 154.545 204.299 154.632 204.283C154.719 204.268 154.808 204.27 154.894 204.29C154.98 204.311 155.062 204.348 155.133 204.4C155.204 204.453 155.264 204.519 155.309 204.596C155.354 204.672 155.383 204.756 155.394 204.844L162.692 246.208C162.707 246.293 162.705 246.38 162.686 246.464C162.667 246.548 162.632 246.628 162.582 246.698C162.532 246.769 162.469 246.828 162.396 246.874C162.323 246.92 162.242 246.951 162.157 246.965C162.121 246.97 162.086 246.972 162.051 246.972Z" fill="#97A6B7"/>
<path d="M177.233 245.25C177.066 245.25 176.905 245.186 176.784 245.071C176.662 244.956 176.59 244.799 176.581 244.632L174.28 203.561C174.276 203.475 174.288 203.389 174.316 203.308C174.344 203.227 174.389 203.152 174.446 203.088C174.503 203.024 174.572 202.972 174.65 202.935C174.727 202.898 174.811 202.876 174.897 202.871C174.983 202.866 175.069 202.879 175.15 202.907C175.231 202.935 175.305 202.979 175.369 203.037C175.433 203.094 175.485 203.163 175.523 203.241C175.56 203.318 175.582 203.402 175.586 203.488L177.887 244.559C177.896 244.732 177.837 244.902 177.721 245.032C177.605 245.161 177.443 245.239 177.27 245.249L177.233 245.25Z" fill="#97A6B7"/>
<path d="M191.618 243.633H191.583C191.41 243.624 191.247 243.546 191.131 243.418C191.015 243.289 190.955 243.119 190.964 242.946L193.153 201.214C193.156 201.128 193.176 201.043 193.213 200.965C193.249 200.887 193.301 200.817 193.365 200.759C193.43 200.702 193.505 200.657 193.586 200.629C193.668 200.601 193.755 200.59 193.841 200.596C193.926 200.6 194.01 200.622 194.088 200.659C194.166 200.696 194.235 200.747 194.293 200.811C194.35 200.875 194.395 200.949 194.423 201.03C194.452 201.111 194.464 201.197 194.46 201.283L192.271 243.01C192.263 243.177 192.191 243.336 192.07 243.452C191.948 243.568 191.786 243.633 191.618 243.633Z" fill="#97A6B7"/>
<path d="M126.478 247.532C126.355 247.532 126.234 247.497 126.13 247.431C126.026 247.366 125.942 247.272 125.889 247.161L106.22 206.28C106.154 206.125 106.151 205.951 106.21 205.793C106.27 205.636 106.387 205.508 106.539 205.435C106.69 205.362 106.864 205.35 107.024 205.402C107.184 205.454 107.318 205.565 107.398 205.713L127.071 246.593C127.118 246.693 127.14 246.803 127.134 246.914C127.127 247.024 127.093 247.131 127.034 247.225C126.976 247.318 126.894 247.396 126.797 247.449C126.701 247.503 126.592 247.531 126.481 247.532H126.478Z" fill="#97A6B7"/>
<path d="M115.551 244.788C115.43 244.788 115.31 244.754 115.207 244.69C115.103 244.626 115.02 244.535 114.965 244.426L94.0883 202.607C94.05 202.53 94.0272 202.447 94.0211 202.361C94.0151 202.275 94.026 202.189 94.0532 202.108C94.0804 202.026 94.1234 201.951 94.1797 201.886C94.236 201.822 94.3046 201.768 94.3814 201.73C94.4582 201.692 94.5418 201.669 94.6275 201.663C94.7131 201.657 94.7991 201.668 94.8806 201.695C94.962 201.722 95.0373 201.765 95.1021 201.821C95.1669 201.878 95.22 201.946 95.2583 202.023L116.136 243.845C116.185 243.945 116.209 244.056 116.203 244.167C116.198 244.278 116.165 244.386 116.106 244.48C116.048 244.575 115.966 244.653 115.869 244.708C115.772 244.762 115.662 244.791 115.551 244.791V244.788Z" fill="#97A6B7"/>
<path d="M139.171 287.377C139.088 287.377 139.006 287.362 138.93 287.331L100.037 271.894C99.9542 271.864 99.8784 271.818 99.8139 271.759C99.7494 271.699 99.6975 271.627 99.6614 271.547C99.6253 271.467 99.6057 271.381 99.6037 271.293C99.6017 271.205 99.6174 271.118 99.6498 271.036C99.6822 270.955 99.7307 270.881 99.7924 270.818C99.8541 270.756 99.9278 270.706 100.009 270.673C100.09 270.639 100.177 270.623 100.265 270.623C100.353 270.624 100.44 270.643 100.52 270.678L139.262 286.054L186.289 280.309C188 280.104 189.611 279.393 190.916 278.267C192.221 277.14 193.16 275.651 193.613 273.988L219.335 180.61C219.888 178.61 221.046 176.831 222.649 175.515C224.253 174.199 226.224 173.411 228.293 173.258L241.94 172.268C242.109 172.262 242.274 172.322 242.401 172.436C242.527 172.549 242.604 172.707 242.616 172.876C242.628 173.045 242.575 173.212 242.466 173.342C242.358 173.472 242.203 173.555 242.034 173.573L228.388 174.562C226.588 174.695 224.874 175.381 223.479 176.526C222.085 177.67 221.078 179.218 220.596 180.957L194.874 274.335C194.352 276.247 193.272 277.961 191.77 279.256C190.269 280.551 188.416 281.369 186.448 281.605L139.254 287.369C139.227 287.374 139.199 287.376 139.171 287.377Z" fill="#97A6B7"/>
<path d="M220.799 170.131C220.799 170.131 217.419 167.178 214.241 168.221C213.788 168.371 212.988 168.681 212.565 169.485C212.109 170.353 212.275 171.482 212.85 172.195C213.672 173.21 215.25 173.212 216.784 171.858C216.649 171.823 215.813 172.049 215.59 171.299C215.59 171.299 215.427 171.145 215.542 170.789C215.946 169.531 220.499 170.12 220.799 170.131Z" fill="url(#paint58_linear_1_3136)"/>
<defs>
<linearGradient id="paint0_linear_1_3136" x1="12.666" y1="66.1372" x2="86.3857" y2="66.1372" gradientUnits="userSpaceOnUse">
<stop stop-color="#AA80F9"/>
<stop offset="1" stop-color="#6165D7"/>
</linearGradient>
<linearGradient id="paint1_linear_1_3136" x1="148377" y1="19095.2" x2="199055" y2="19095.2" gradientUnits="userSpaceOnUse">
<stop stop-color="#AA80F9"/>
<stop offset="1" stop-color="#6165D7"/>
</linearGradient>
<linearGradient id="paint2_linear_1_3136" x1="148377" y1="16427.6" x2="199055" y2="16427.6" gradientUnits="userSpaceOnUse">
<stop stop-color="#AA80F9"/>
<stop offset="1" stop-color="#6165D7"/>
</linearGradient>
<linearGradient id="paint3_linear_1_3136" x1="8528.87" y1="18282" x2="56717.2" y2="18282" gradientUnits="userSpaceOnUse">
<stop stop-color="#AA80F9"/>
<stop offset="1" stop-color="#6165D7"/>
</linearGradient>
<linearGradient id="paint4_linear_1_3136" x1="8528.87" y1="15741.6" x2="56717.2" y2="15741.6" gradientUnits="userSpaceOnUse">
<stop stop-color="#AA80F9"/>
<stop offset="1" stop-color="#6165D7"/>
</linearGradient>
<linearGradient id="paint5_linear_1_3136" x1="22078.2" y1="16897.3" x2="409846" y2="16897.3" gradientUnits="userSpaceOnUse">
<stop stop-color="#AA80F9"/>
<stop offset="1" stop-color="#6165D7"/>
</linearGradient>
<linearGradient id="paint6_linear_1_3136" x1="107911" y1="14839.7" x2="202084" y2="14839.7" gradientUnits="userSpaceOnUse">
<stop stop-color="#AA80F9"/>
<stop offset="1" stop-color="#6165D7"/>
</linearGradient>
<linearGradient id="paint7_linear_1_3136" x1="1530.41" y1="14686.5" x2="1561.76" y2="14686.5" gradientUnits="userSpaceOnUse">
<stop stop-color="#AA80F9"/>
<stop offset="1" stop-color="#6165D7"/>
</linearGradient>
<linearGradient id="paint8_linear_1_3136" x1="147094" y1="11544.5" x2="149068" y2="3967.72" gradientUnits="userSpaceOnUse">
<stop stop-color="#AA80F9"/>
<stop offset="1" stop-color="#6165D7"/>
</linearGradient>
<linearGradient id="paint9_linear_1_3136" x1="111860" y1="3716.12" x2="112067" y2="7793.72" gradientUnits="userSpaceOnUse">
<stop stop-color="#AA80F9"/>
<stop offset="1" stop-color="#6165D7"/>
</linearGradient>
<linearGradient id="paint10_linear_1_3136" x1="172901" y1="14621.7" x2="173399" y2="10469.5" gradientUnits="userSpaceOnUse">
<stop stop-color="#AA80F9"/>
<stop offset="1" stop-color="#6165D7"/>
</linearGradient>
<linearGradient id="paint11_linear_1_3136" x1="244427" y1="13842.1" x2="244852" y2="20525.6" gradientUnits="userSpaceOnUse">
<stop stop-color="#AA80F9"/>
<stop offset="1" stop-color="#6165D7"/>
</linearGradient>
<linearGradient id="paint12_linear_1_3136" x1="53.8991" y1="222.809" x2="98.7458" y2="222.809" gradientUnits="userSpaceOnUse">
<stop stop-color="#FF9085"/>
<stop offset="1" stop-color="#FB6FBB"/>
</linearGradient>
<linearGradient id="paint13_linear_1_3136" x1="14.2987" y1="211.549" x2="85.7908" y2="211.549" gradientUnits="userSpaceOnUse">
<stop stop-color="#FFC444"/>
<stop offset="1" stop-color="#F36F56"/>
</linearGradient>
<linearGradient id="paint14_linear_1_3136" x1="4.25566" y1="249.013" x2="75.9728" y2="249.013" gradientUnits="userSpaceOnUse">
<stop stop-color="#E38DDD"/>
<stop offset="1" stop-color="#9571F6"/>
</linearGradient>
<linearGradient id="paint15_linear_1_3136" x1="244.106" y1="121.596" x2="40.8483" y2="-139.45" gradientUnits="userSpaceOnUse">
<stop stop-color="#AB316D"/>
<stop offset="1" stop-color="#792D3D"/>
</linearGradient>
<linearGradient id="paint16_linear_1_3136" x1="224.437" y1="97.1549" x2="187.872" y2="50.1932" gradientUnits="userSpaceOnUse">
<stop stop-color="#FCB148"/>
<stop offset="0.05" stop-color="#FDBA46"/>
<stop offset="0.14" stop-color="#FFC244"/>
<stop offset="0.32" stop-color="#FFC444"/>
<stop offset="0.48" stop-color="#FDB946"/>
<stop offset="0.78" stop-color="#F99C4D"/>
<stop offset="0.87" stop-color="#F8924F"/>
<stop offset="1" stop-color="#F8924F"/>
</linearGradient>
<linearGradient id="paint17_linear_1_3136" x1="-70411.2" y1="77472.7" x2="62625.6" y2="-62078.2" gradientUnits="userSpaceOnUse">
<stop stop-color="#FCB148"/>
<stop offset="0.05" stop-color="#FDBA46"/>
<stop offset="0.14" stop-color="#FFC244"/>
<stop offset="0.32" stop-color="#FFC444"/>
<stop offset="0.48" stop-color="#FDB946"/>
<stop offset="0.78" stop-color="#F99C4D"/>
<stop offset="0.87" stop-color="#F8924F"/>
<stop offset="1" stop-color="#F8924F"/>
</linearGradient>
<linearGradient id="paint18_linear_1_3136" x1="47805.8" y1="5246.21" x2="27251.7" y2="5246.21" gradientUnits="userSpaceOnUse">
<stop stop-color="#FFC444"/>
<stop offset="1" stop-color="#F36F56"/>
</linearGradient>
<linearGradient id="paint19_linear_1_3136" x1="39935.1" y1="12700.8" x2="24579.9" y2="12700.8" gradientUnits="userSpaceOnUse">
<stop stop-color="#FFC444"/>
<stop offset="1" stop-color="#F36F56"/>
</linearGradient>
<linearGradient id="paint20_linear_1_3136" x1="3113.29" y1="1728.97" x2="3011.56" y2="1728.97" gradientUnits="userSpaceOnUse">
<stop stop-color="#FFC444"/>
<stop offset="1" stop-color="#F36F56"/>
</linearGradient>
<linearGradient id="paint21_linear_1_3136" x1="14188.1" y1="5779.16" x2="12123" y2="5779.16" gradientUnits="userSpaceOnUse">
<stop stop-color="#FFC444"/>
<stop offset="1" stop-color="#F36F56"/>
</linearGradient>
<linearGradient id="paint22_linear_1_3136" x1="1962.58" y1="1762.84" x2="1873.91" y2="1762.84" gradientUnits="userSpaceOnUse">
<stop stop-color="#FFC444"/>
<stop offset="1" stop-color="#F36F56"/>
</linearGradient>
<linearGradient id="paint23_linear_1_3136" x1="12556.5" y1="7052.02" x2="10183" y2="7052.02" gradientUnits="userSpaceOnUse">
<stop stop-color="#FFC444"/>
<stop offset="1" stop-color="#F36F56"/>
</linearGradient>
<linearGradient id="paint24_linear_1_3136" x1="-64091.9" y1="41340.3" x2="-30866.5" y2="41340.3" gradientUnits="userSpaceOnUse">
<stop stop-color="#FCB148"/>
<stop offset="0.05" stop-color="#FDBA46"/>
<stop offset="0.14" stop-color="#FFC244"/>
<stop offset="0.32" stop-color="#FFC444"/>
<stop offset="0.48" stop-color="#FDB946"/>
<stop offset="0.78" stop-color="#F99C4D"/>
<stop offset="0.87" stop-color="#F8924F"/>
<stop offset="1" stop-color="#F8924F"/>
</linearGradient>
<linearGradient id="paint25_linear_1_3136" x1="236.243" y1="99.7103" x2="249.621" y2="111.152" gradientUnits="userSpaceOnUse">
<stop stop-color="#311944"/>
<stop offset="1" stop-color="#6B3976"/>
</linearGradient>
<linearGradient id="paint26_linear_1_3136" x1="12839.1" y1="18540.5" x2="14563.7" y2="18945.5" gradientUnits="userSpaceOnUse">
<stop stop-color="#AB316D"/>
<stop offset="1" stop-color="#792D3D"/>
</linearGradient>
<linearGradient id="paint27_linear_1_3136" x1="228.16" y1="215.837" x2="257.637" y2="204.341" gradientUnits="userSpaceOnUse">
<stop stop-color="#40447E"/>
<stop offset="1" stop-color="#3C3B6B"/>
</linearGradient>
<linearGradient id="paint28_linear_1_3136" x1="228.16" y1="215.837" x2="257.637" y2="204.341" gradientUnits="userSpaceOnUse">
<stop stop-color="#40447E"/>
<stop offset="1" stop-color="#3C3B6B"/>
</linearGradient>
<linearGradient id="paint29_linear_1_3136" x1="63176.3" y1="61205.2" x2="72524.7" y2="65961.2" gradientUnits="userSpaceOnUse">
<stop stop-color="#FFC444"/>
<stop offset="1" stop-color="#F36F56"/>
</linearGradient>
<linearGradient id="paint30_linear_1_3136" x1="23339.6" y1="33552" x2="24057.9" y2="38367.5" gradientUnits="userSpaceOnUse">
<stop stop-color="#AB316D"/>
<stop offset="1" stop-color="#792D3D"/>
</linearGradient>
<linearGradient id="paint31_linear_1_3136" x1="135690" y1="238642" x2="164826" y2="261123" gradientUnits="userSpaceOnUse">
<stop stop-color="#40447E"/>
<stop offset="1" stop-color="#3C3B6B"/>
</linearGradient>
<linearGradient id="paint32_linear_1_3136" x1="82699.9" y1="194243" x2="106418" y2="215847" gradientUnits="userSpaceOnUse">
<stop stop-color="#40447E"/>
<stop offset="1" stop-color="#3C3B6B"/>
</linearGradient>
<linearGradient id="paint33_linear_1_3136" x1="160869" y1="102019" x2="203162" y2="119387" gradientUnits="userSpaceOnUse">
<stop stop-color="#FFC444"/>
<stop offset="1" stop-color="#F36F56"/>
</linearGradient>
<linearGradient id="paint34_linear_1_3136" x1="249.662" y1="134.986" x2="235.895" y2="104.603" gradientUnits="userSpaceOnUse">
<stop stop-color="#311944"/>
<stop offset="1" stop-color="#893976"/>
</linearGradient>
<linearGradient id="paint35_linear_1_3136" x1="231.26" y1="127.354" x2="240.969" y2="110.949" gradientUnits="userSpaceOnUse">
<stop stop-color="#311944"/>
<stop offset="1" stop-color="#A03976"/>
</linearGradient>
<linearGradient id="paint36_linear_1_3136" x1="138565" y1="95745" x2="177020" y2="110293" gradientUnits="userSpaceOnUse">
<stop stop-color="#FFC444"/>
<stop offset="1" stop-color="#F36F56"/>
</linearGradient>
<linearGradient id="paint37_linear_1_3136" x1="104389" y1="59743.4" x2="118374" y2="66929.3" gradientUnits="userSpaceOnUse">
<stop stop-color="#FFC444"/>
<stop offset="1" stop-color="#F36F56"/>
</linearGradient>
<linearGradient id="paint38_linear_1_3136" x1="31758.1" y1="11343.4" x2="34128.4" y2="11343.4" gradientUnits="userSpaceOnUse">
<stop stop-color="#311944"/>
<stop offset="1" stop-color="#A03976"/>
</linearGradient>
<linearGradient id="paint39_linear_1_3136" x1="25949.6" y1="27810.7" x2="26159.8" y2="27945" gradientUnits="userSpaceOnUse">
<stop stop-color="#AA80F9"/>
<stop offset="1" stop-color="#6165D7"/>
</linearGradient>
<linearGradient id="paint40_linear_1_3136" x1="26059.8" y1="28247" x2="26686.7" y2="28247" gradientUnits="userSpaceOnUse">
<stop stop-color="#AA80F9"/>
<stop offset="1" stop-color="#6165D7"/>
</linearGradient>
<linearGradient id="paint41_linear_1_3136" x1="10895.4" y1="12001.8" x2="11005.3" y2="12001.8" gradientUnits="userSpaceOnUse">
<stop stop-color="#40447E"/>
<stop offset="1" stop-color="#3C3B6B"/>
</linearGradient>
<linearGradient id="paint42_linear_1_3136" x1="29346" y1="27330.4" x2="29556.1" y2="27464.7" gradientUnits="userSpaceOnUse">
<stop stop-color="#AA80F9"/>
<stop offset="1" stop-color="#6165D7"/>
</linearGradient>
<linearGradient id="paint43_linear_1_3136" x1="29463.4" y1="27766.7" x2="30090.5" y2="27766.7" gradientUnits="userSpaceOnUse">
<stop stop-color="#AA80F9"/>
<stop offset="1" stop-color="#6165D7"/>
</linearGradient>
<linearGradient id="paint44_linear_1_3136" x1="12366.6" y1="11797.8" x2="12476.7" y2="11797.8" gradientUnits="userSpaceOnUse">
<stop stop-color="#40447E"/>
<stop offset="1" stop-color="#3C3B6B"/>
</linearGradient>
<linearGradient id="paint45_linear_1_3136" x1="157328" y1="8177.07" x2="170419" y2="8177.07" gradientUnits="userSpaceOnUse">
<stop stop-color="#40447E"/>
<stop offset="1" stop-color="#3C3B6B"/>
</linearGradient>
<linearGradient id="paint46_linear_1_3136" x1="28928.9" y1="29307.4" x2="29139.1" y2="29441.8" gradientUnits="userSpaceOnUse">
<stop stop-color="#AA80F9"/>
<stop offset="1" stop-color="#6165D7"/>
</linearGradient>
<linearGradient id="paint47_linear_1_3136" x1="29046.4" y1="29744" x2="29673.4" y2="29744" gradientUnits="userSpaceOnUse">
<stop stop-color="#AA80F9"/>
<stop offset="1" stop-color="#6165D7"/>
</linearGradient>
<linearGradient id="paint48_linear_1_3136" x1="12165.7" y1="12636.4" x2="12275.6" y2="12636.4" gradientUnits="userSpaceOnUse">
<stop stop-color="#40447E"/>
<stop offset="1" stop-color="#3C3B6B"/>
</linearGradient>
<linearGradient id="paint49_linear_1_3136" x1="31876.2" y1="28921" x2="32086.4" y2="29055.4" gradientUnits="userSpaceOnUse">
<stop stop-color="#AA80F9"/>
<stop offset="1" stop-color="#6165D7"/>
</linearGradient>
<linearGradient id="paint50_linear_1_3136" x1="31986" y1="29357.6" x2="32612.9" y2="29357.6" gradientUnits="userSpaceOnUse">
<stop stop-color="#AA80F9"/>
<stop offset="1" stop-color="#6165D7"/>
</linearGradient>
<linearGradient id="paint51_linear_1_3136" x1="13419.6" y1="12472.2" x2="13529.5" y2="12472.2" gradientUnits="userSpaceOnUse">
<stop stop-color="#40447E"/>
<stop offset="1" stop-color="#3C3B6B"/>
</linearGradient>
<linearGradient id="paint52_linear_1_3136" x1="58096.6" y1="-11345.2" x2="62720.1" y2="-17664.9" gradientUnits="userSpaceOnUse">
<stop stop-color="#AA80F9"/>
<stop offset="1" stop-color="#6165D7"/>
</linearGradient>
<linearGradient id="paint53_linear_1_3136" x1="134034" y1="136870" x2="157466" y2="173010" gradientUnits="userSpaceOnUse">
<stop stop-color="#AA80F9"/>
<stop offset="1" stop-color="#6165D7"/>
</linearGradient>
<linearGradient id="paint54_linear_1_3136" x1="155604" y1="150368" x2="141694" y2="155100" gradientUnits="userSpaceOnUse">
<stop stop-color="#AA80F9"/>
<stop offset="1" stop-color="#6165D7"/>
</linearGradient>
<linearGradient id="paint55_linear_1_3136" x1="50587.6" y1="3188.66" x2="56409.3" y2="-3269.26" gradientUnits="userSpaceOnUse">
<stop stop-color="#FF9085"/>
<stop offset="1" stop-color="#FB6FBB"/>
</linearGradient>
<linearGradient id="paint56_linear_1_3136" x1="31986.6" y1="109336" x2="26158.1" y2="111316" gradientUnits="userSpaceOnUse">
<stop stop-color="#FF9085"/>
<stop offset="1" stop-color="#FB6FBB"/>
</linearGradient>
<linearGradient id="paint57_linear_1_3136" x1="131878" y1="124002" x2="112692" y2="129997" gradientUnits="userSpaceOnUse">
<stop stop-color="#FF9085"/>
<stop offset="1" stop-color="#FB6FBB"/>
</linearGradient>
<linearGradient id="paint58_linear_1_3136" x1="20806.3" y1="7726.37" x2="20683.6" y2="8053.73" gradientUnits="userSpaceOnUse">
<stop stop-color="#311944"/>
<stop offset="1" stop-color="#A03976"/>
</linearGradient>
</defs>
</svg>
