<svg width="52" height="52" viewBox="0 0 52 52" fill="none" xmlns="http://www.w3.org/2000/svg">
<g id="&#208;&#152;&#208;&#186;&#208;&#190;&#208;&#189;&#208;&#186;&#208;&#176;">
<rect id="Rectangle 405" width="52" height="52" fill="white"/>
<g id="Group 21">
<g id="Group">
<g id="Group_2">
<g id="Group_3">
<path id="Vector" d="M20.9677 52.0001C9.40613 52.0001 0 42.5939 0 31.0323C0 19.4707 9.40613 10.0646 20.9677 10.0646C32.5294 10.0646 41.9355 19.4707 41.9355 31.0323C41.9355 42.5939 32.5294 52.0001 20.9677 52.0001ZM20.9677 14.2581C11.7185 14.2581 4.19355 21.783 4.19355 31.0323C4.19355 40.2816 11.7185 47.8065 20.9677 47.8065C30.217 47.8065 37.7419 40.2816 37.7419 31.0323C37.7419 21.783 30.217 14.2581 20.9677 14.2581Z" fill="#41B7E9"/>
</g>
</g>
<g id="Group_4">
<path id="Vector_2" d="M50.3234 0H33.5492C32.6241 0 31.8718 0.752323 31.8718 1.67742V4.12897C26.2222 2.68723 20.0082 3.3171 14.7227 5.95903L15.4909 7.45026C20.5223 4.93581 26.4973 4.38645 31.8718 5.87013V13.1292C32.4496 13.4823 33.0099 13.863 33.5492 14.269V1.67742H38.5814V5.03226C38.5814 5.95735 39.3338 6.70968 40.2589 6.70968H43.6137C44.5388 6.70968 45.2911 5.95735 45.2911 5.03226V1.67742H50.3234V18.4516H37.731C38.1369 18.9909 38.5177 19.5512 38.8708 20.129H47.2721C48.1805 22.6284 48.6459 25.2527 48.6459 27.9416C48.6459 35.5747 45.9654 42.9872 41.0976 48.8599V43.6129H39.4201V52H46.9685V50.3226H42.0671L42.1694 50.201C47.4273 43.9878 50.3234 36.0821 50.3234 27.9416C50.3234 25.2603 49.8965 22.6385 49.0544 20.129H50.3234C51.2485 20.129 52.0008 19.3767 52.0008 18.4516V1.67742C52.0008 0.752323 51.2485 0 50.3234 0V0ZM43.6137 5.03226H40.2589V1.67742H43.6137V5.03226Z" fill="#1F2428"/>
<path id="Vector_3" d="M20.9684 13.4193C11.257 13.4193 3.35547 21.3208 3.35547 31.0322C3.35547 40.7436 11.257 48.6451 20.9684 48.6451C30.6798 48.6451 38.5813 40.7436 38.5813 31.0322C38.5813 21.3208 30.6798 13.4193 20.9684 13.4193ZM36.8611 31.8709C36.664 35.6317 35.1635 39.0444 32.7959 41.6738L30.4567 39.3346L29.2708 40.5205L31.6099 42.8597C28.9806 45.2282 25.5679 46.7278 21.8071 46.9249V43.6129H20.1297V46.9249C16.3689 46.7278 12.9562 45.2274 10.3268 42.8597L12.666 40.5205L11.48 39.3346L9.14089 41.6738C6.77237 39.0444 5.27276 35.6317 5.07566 31.8709H8.38773V30.1935H5.07566C5.27276 26.4327 6.77321 23.02 9.14089 20.3907L11.48 22.7298L12.666 21.5439L10.3268 19.2047C12.9562 16.8362 16.3689 15.3366 20.1297 15.1395V18.4516H21.8071V15.1395C25.5679 15.3366 28.9806 16.8371 31.6099 19.2047L29.2708 21.5439L30.4567 22.7298L32.7959 20.3907C35.1644 23.02 36.664 26.4327 36.8611 30.1935H33.549V31.8709H36.8611Z" fill="#1F2428"/>
<path id="Vector_4" d="M25.1621 18.4517H26.8395V20.1291H25.1621V18.4517Z" fill="#1F2428"/>
<path id="Vector_5" d="M25.1621 41.9354H26.8395V43.6128H25.1621V41.9354Z" fill="#1F2428"/>
<path id="Vector_6" d="M31.8711 25.1613H33.5485V26.8387H31.8711V25.1613Z" fill="#1F2428"/>
<path id="Vector_7" d="M31.8711 35.2258H33.5485V36.9032H31.8711V35.2258Z" fill="#1F2428"/>
<path id="Vector_8" d="M15.0977 18.4517H16.7751V20.1291H15.0977V18.4517Z" fill="#1F2428"/>
<path id="Vector_9" d="M15.0977 41.9354H16.7751V43.6128H15.0977V41.9354Z" fill="#1F2428"/>
<path id="Vector_10" d="M8.38672 25.1613H10.0641V26.8387H8.38672V25.1613Z" fill="#1F2428"/>
<path id="Vector_11" d="M8.38672 35.2258H10.0641V36.9032H8.38672V35.2258Z" fill="#1F2428"/>
<path id="Vector_12" d="M28.6728 18.803L22.6693 27.2077C22.1476 26.9745 21.5748 26.8387 20.9675 26.8387C20.1146 26.8387 19.322 27.0978 18.6586 27.5373L14.0121 22.8908L12.8262 24.0768L17.4726 28.7232C17.0331 29.3867 16.774 30.1792 16.774 31.0322C16.774 32.7348 17.798 34.1967 19.2591 34.8534L18.4715 38.3986L20.1095 38.7626L20.8971 35.219C20.9206 35.219 20.9432 35.2258 20.9675 35.2258C23.2799 35.2258 25.1611 33.3445 25.1611 31.0322C25.1611 29.9318 24.7258 28.9363 24.0297 28.1873L30.0365 19.7776L28.6728 18.803ZM20.9675 33.5483C19.5803 33.5483 18.4514 32.4194 18.4514 31.0322C18.4514 29.645 19.5803 28.5161 20.9675 28.5161C22.3548 28.5161 23.4837 29.645 23.4837 31.0322C23.4837 32.4194 22.3548 33.5483 20.9675 33.5483Z" fill="#1F2428"/>
<path id="Vector_13" d="M40.2578 15.0968H41.9352V16.7742H40.2578V15.0968Z" fill="#1F2428"/>
<path id="Vector_14" d="M43.6133 15.0968H45.2907V16.7742H43.6133V15.0968Z" fill="#1F2428"/>
<path id="Vector_15" d="M46.9668 15.0968H48.6442V16.7742H46.9668V15.0968Z" fill="#1F2428"/>
<path id="Vector_16" d="M5.03226 14.2581C5.03226 12.8708 3.90335 11.7419 2.51613 11.7419C1.1289 11.7419 0 12.8708 0 14.2581C0 15.6453 1.1289 16.7742 2.51613 16.7742C3.90335 16.7742 5.03226 15.6453 5.03226 14.2581ZM2.51613 15.0968C2.05316 15.0968 1.67742 14.721 1.67742 14.2581C1.67742 13.7951 2.05316 13.4194 2.51613 13.4194C2.9791 13.4194 3.35484 13.7951 3.35484 14.2581C3.35484 14.721 2.9791 15.0968 2.51613 15.0968Z" fill="#1F2428"/>
<path id="Vector_17" d="M7.54933 11.742C8.93656 11.742 10.0655 10.6131 10.0655 9.22585C10.0655 7.83862 8.93656 6.70972 7.54933 6.70972C6.16211 6.70972 5.0332 7.83862 5.0332 9.22585C5.0332 10.6131 6.16211 11.742 7.54933 11.742ZM7.54933 8.38714C8.0123 8.38714 8.38804 8.76288 8.38804 9.22585C8.38804 9.68881 8.0123 10.0646 7.54933 10.0646C7.08636 10.0646 6.71062 9.68881 6.71062 9.22585C6.71062 8.76288 7.08636 8.38714 7.54933 8.38714Z" fill="#1F2428"/>
<path id="Vector_18" d="M11.7422 6.70972H13.4196V8.38714H11.7422V6.70972Z" fill="#1F2428"/>
</g>
</g>
</g>
</g>
</svg>
