<svg width="52" height="48" viewBox="0 0 52 48" fill="none" xmlns="http://www.w3.org/2000/svg">
<path fill-rule="evenodd" clip-rule="evenodd" d="M23.8852 0C37.077 0 47.7703 10.6934 47.7703 23.8852C47.7703 37.077 37.077 47.7703 23.8852 47.7703C10.6934 47.7703 0 37.077 0 23.8852C0 10.6934 10.6934 0 23.8852 0ZM23.8852 9.30089C31.9401 9.30089 38.4694 15.8302 38.4694 23.8852C38.4694 31.9401 31.9401 38.4694 23.8852 38.4694C15.8302 38.4694 9.30089 31.9401 9.30089 23.8852C9.30089 15.8302 15.8302 9.30089 23.8852 9.30089Z" fill="url(#paint0_linear_1_4570)"/>
<path opacity="0.2" fill-rule="evenodd" clip-rule="evenodd" d="M40.4714 41.0709C38.4743 42.998 36.1408 44.5821 33.5707 45.723L26.6816 38.1993C29.5832 37.6364 32.1766 36.2139 34.1886 34.2085L40.4731 41.0709H40.4714Z" fill="#1F2428"/>
<path fill-rule="evenodd" clip-rule="evenodd" d="M51.0884 0.25313L42.3572 8.74119C40.2768 6.2061 37.6834 4.10574 34.7369 2.6L37.1688 0.251465H51.0884V0.25313ZM35.6497 15.2621L27.3649 23.3155L49.8859 47.1773H36.5925L13.6934 22.9157L27.3632 9.71891C30.7394 10.5451 33.6526 12.5455 35.648 15.2621H35.6497Z" fill="url(#paint1_linear_1_4570)"/>
<path opacity="0.2" fill-rule="evenodd" clip-rule="evenodd" d="M26.6074 10.4483C29.9787 11.2844 32.8869 13.2915 34.8739 16.0148L35.6485 15.262C33.653 12.5453 30.7399 10.5449 27.3636 9.71875L26.6074 10.4483Z" fill="#1F2428"/>
<defs>
<linearGradient id="paint0_linear_1_4570" x1="0.612057" y1="47.7703" x2="54.7001" y2="37.8739" gradientUnits="userSpaceOnUse">
<stop stop-color="#5B52A3"/>
<stop offset="1" stop-color="#40B8EA"/>
</linearGradient>
<linearGradient id="paint1_linear_1_4570" x1="13.6934" y1="22.9157" x2="49.9525" y2="22.9157" gradientUnits="userSpaceOnUse">
<stop stop-color="#54E1AB"/>
<stop offset="1" stop-color="#7EEEC1"/>
</linearGradient>
</defs>
</svg>
