<svg width="52" height="52" viewBox="0 0 52 52" fill="none" xmlns="http://www.w3.org/2000/svg">
<g id="&#208;&#152;&#208;&#186;&#208;&#190;&#208;&#189;&#208;&#186;&#208;&#176;">
<rect id="Rectangle 6" width="52" height="52" fill="white"/>
<g id="Group 6">
<g id="Group">
<g id="Group_2">
<path id="Vector" d="M17.6133 37.7418C23.1718 37.7418 27.6779 33.2358 27.6779 27.6773C27.6779 22.1188 23.1718 17.6128 17.6133 17.6128C12.0549 17.6128 7.54883 22.1188 7.54883 27.6773C7.54883 33.2358 12.0549 37.7418 17.6133 37.7418Z" fill="#41B7E9"/>
</g>
<g id="Group_3">
<g id="Group_4">
<path id="Vector_2" d="M46.1298 36.9031H37.7427C36.3555 36.9031 35.2266 35.7742 35.2266 34.387V29.3548C35.2266 27.9675 36.3555 26.8386 37.7427 26.8386H46.1298C47.517 26.8386 48.6459 27.9675 48.6459 29.3548V34.387C48.6459 35.7742 47.517 36.9031 46.1298 36.9031Z" fill="#41B7E9"/>
</g>
</g>
<g id="Group_5">
<path id="Vector_3" d="M35.2266 39.4194H48.6459V43.613H35.2266V39.4194Z" fill="#41B7E9"/>
</g>
<g id="Group_6">
<path id="Vector_4" d="M47.8065 10.0645H34.2101C33.6994 9.06394 33.0192 8.18329 32.2148 7.44858L44.0935 3.98303C44.5514 4.61542 45.2903 5.03226 46.129 5.03226C47.5163 5.03226 48.6452 3.90335 48.6452 2.51613C48.6452 1.1289 47.5163 0 46.129 0C44.7913 0 43.7043 1.05258 43.6272 2.37187L30.4938 6.2031C29.1468 5.44994 27.607 5.03226 26 5.03226C24.393 5.03226 22.8532 5.44994 21.5062 6.2031L8.37284 2.37187C8.29568 1.05258 7.20871 0 5.87097 0C4.48374 0 3.35484 1.1289 3.35484 2.51613C3.35484 3.90335 4.48374 5.03226 5.87097 5.03226C6.70968 5.03226 7.44858 4.61542 7.90652 3.98303L19.7852 7.44858C18.98 8.18329 18.3006 9.06477 17.7899 10.0645H4.19355C1.88123 10.0645 0 11.9457 0 14.2581V44.4516C0 46.7639 1.88123 48.6452 4.19355 48.6452H6.70968V49.4839C6.70968 50.8711 7.83858 52 9.22581 52H10.9032C12.2905 52 13.4194 50.8711 13.4194 49.4839V48.6452H31.9557C32.3457 50.5566 34.039 52 36.0645 52H47.8065C50.1188 52 52 50.1188 52 47.8065V35.2258V24.3226V14.2581C52 11.9457 50.1188 10.0645 47.8065 10.0645V10.0645ZM46.129 1.67742C46.592 1.67742 46.9677 2.05316 46.9677 2.51613C46.9677 2.9791 46.592 3.35484 46.129 3.35484C45.6661 3.35484 45.2903 2.9791 45.2903 2.51613C45.2903 2.05316 45.6661 1.67742 46.129 1.67742ZM5.87097 3.35484C5.408 3.35484 5.03226 2.9791 5.03226 2.51613C5.03226 2.05316 5.408 1.67742 5.87097 1.67742C6.33394 1.67742 6.70968 2.05316 6.70968 2.51613C6.70968 2.9791 6.33394 3.35484 5.87097 3.35484ZM26 6.70968C28.543 6.70968 30.8712 7.99794 32.2576 10.0645H19.7424C21.1288 7.99794 23.457 6.70968 26 6.70968ZM1.67742 44.4516V14.2581C1.67742 12.8708 2.80632 11.7419 4.19355 11.7419H47.8065C49.1937 11.7419 50.3226 12.8708 50.3226 14.2581V20.9895C49.8328 20.6188 49.2683 20.3412 48.6452 20.2146V15.0968C48.6452 14.1717 47.8928 13.4194 46.9677 13.4194H5.03226C4.10716 13.4194 3.35484 14.1717 3.35484 15.0968V40.2581C3.35484 41.1832 4.10716 41.9355 5.03226 41.9355H31.871V46.9677H4.19355C2.80632 46.9677 1.67742 45.8388 1.67742 44.4516ZM46.9677 20.129H36.0645C33.7522 20.129 31.871 22.0103 31.871 24.3226V40.2581H5.03226V15.0968H46.9677V20.129ZM36.0645 21.8065H47.8065C48.8985 21.8065 49.821 22.5101 50.1683 23.4839H33.7027C34.0499 22.5101 34.9725 21.8065 36.0645 21.8065ZM11.7419 49.4839C11.7419 49.9468 11.3662 50.3226 10.9032 50.3226H9.22581C8.76284 50.3226 8.3871 49.9468 8.3871 49.4839V48.6452H11.7419V49.4839ZM47.8065 50.3226H36.0645C34.6773 50.3226 33.5484 49.1937 33.5484 47.8065V46.9677H50.3226V47.8065C50.3226 49.1937 49.1937 50.3226 47.8065 50.3226ZM50.3226 45.2903H33.5484V25.1613H50.3226V35.2258V45.2903Z" fill="#1F2428"/>
<path id="Vector_5" d="M17.6122 38.5806C23.6241 38.5806 28.5154 33.6893 28.5154 27.6774C28.5154 21.6655 23.6241 16.7742 17.6122 16.7742C11.6003 16.7742 6.70898 21.6655 6.70898 27.6774C6.70898 33.6893 11.6003 38.5806 17.6122 38.5806ZM15.767 33.6104C16.3692 33.5718 16.984 33.5484 17.6122 33.5484C18.2404 33.5484 18.8552 33.5718 19.4574 33.6104C18.8988 35.7626 18.1163 36.9032 17.6122 36.9032C17.1081 36.9032 16.3256 35.7626 15.767 33.6104ZM15.065 36.5375C13.6158 36.1198 12.3141 35.3575 11.2506 34.3426C12.0918 34.0969 13.048 33.904 14.0854 33.7698C14.3412 34.8249 14.6658 35.7718 15.065 36.5375ZM20.1141 28.5161C20.0789 29.8035 19.9665 30.9492 19.8029 31.9515C19.0892 31.8995 18.357 31.8709 17.6122 31.8709C16.8674 31.8709 16.1352 31.8995 15.4215 31.9515C15.258 30.9492 15.1456 29.8035 15.1103 28.5161H20.1141ZM15.1103 26.8387C15.1456 25.5513 15.258 24.4056 15.4215 23.4033C16.1352 23.4553 16.8674 23.4838 17.6122 23.4838C18.357 23.4838 19.0892 23.4553 19.8029 23.4033C19.9665 24.4056 20.0789 25.5513 20.1141 26.8387H15.1103ZM21.139 33.7706C22.1765 33.9048 23.1326 34.0977 23.9738 34.3435C22.9112 35.3583 21.6095 36.1207 20.1594 36.5384C20.5586 35.7718 20.8832 34.8249 21.139 33.7706ZM21.4644 32.1242C21.6472 30.976 21.758 29.754 21.7915 28.5161H26.7952C26.646 30.1608 26.063 31.6789 25.1631 32.9621C24.1055 32.5922 22.8458 32.3096 21.4644 32.1242V32.1242ZM21.7915 26.8387C21.758 25.6008 21.6464 24.3788 21.4644 23.2306C22.8449 23.0452 24.1055 22.7626 25.1631 22.3927C26.0639 23.6751 26.6468 25.194 26.7952 26.8387H21.7915ZM21.139 21.5842C20.884 20.5299 20.5586 19.583 20.1594 18.8173C21.6087 19.2349 22.9103 19.9973 23.9738 21.0122C23.1326 21.2571 22.1756 21.4508 21.139 21.5842ZM19.4574 21.7444C18.8552 21.7829 18.2404 21.8064 17.6122 21.8064C16.984 21.8064 16.3692 21.7829 15.767 21.7444C16.3256 19.5922 17.1081 18.4516 17.6122 18.4516C18.1163 18.4516 18.8988 19.5922 19.4574 21.7444V21.7444ZM14.0854 21.5842C13.048 21.45 12.0918 21.2571 11.2506 21.0113C12.3132 19.9965 13.6149 19.2341 15.065 18.8164C14.6658 19.583 14.3412 20.5299 14.0854 21.5842ZM13.76 23.2306C13.5772 24.3788 13.4665 25.6008 13.4329 26.8387H8.42918C8.57847 25.194 9.16137 23.6759 10.0613 22.3927C11.1189 22.7626 12.3787 23.0452 13.76 23.2306V23.2306ZM13.4329 28.5161C13.4665 29.754 13.578 30.976 13.76 32.1242C12.3795 32.3096 11.1189 32.5922 10.0613 32.9621C9.16053 31.6797 8.57763 30.1608 8.42918 28.5161H13.4329Z" fill="#1F2428"/>
<path id="Vector_6" d="M6.70898 43.6128H8.3864V45.2902H6.70898V43.6128Z" fill="#1F2428"/>
<path id="Vector_7" d="M10.0645 43.6128H11.7419V45.2902H10.0645V43.6128Z" fill="#1F2428"/>
<path id="Vector_8" d="M13.4199 43.6128H15.0973V45.2902H13.4199V43.6128Z" fill="#1F2428"/>
<path id="Vector_9" d="M35.2266 41.9355H45.2911V43.613H35.2266V41.9355Z" fill="#1F2428"/>
<path id="Vector_10" d="M46.9668 41.9355H48.6442V43.613H46.9668V41.9355Z" fill="#1F2428"/>
<path id="Vector_11" d="M35.2266 38.5806H48.6459V40.258H35.2266V38.5806Z" fill="#1F2428"/>
</g>
</g>
</g>
</g>
</svg>
