<svg width="52" height="52" viewBox="0 0 52 52" fill="none" xmlns="http://www.w3.org/2000/svg">
<g id="Group 69">
<g id="Group">
<g id="Group_2">
<g id="Group_3">
<path id="Vector" d="M39.4196 41.0968C35.7201 41.0968 32.71 38.0867 32.71 34.3872C32.71 30.6876 35.7201 27.6775 39.4196 27.6775C43.1192 27.6775 46.1293 30.6876 46.1293 34.3872C46.1293 38.0867 43.1192 41.0968 39.4196 41.0968Z" fill="#41B7E9"/>
</g>
</g>
<g id="Group_4">
<path id="Vector_2" d="M16.7801 5.03149H13.2424C5.94478 5.03149 0.00503395 10.9687 0.000840401 18.2663L1.69155e-06 20.0016C-0.00251444 25.0523 2.80213 29.5931 7.31942 31.8518C8.40052 32.3927 9.53865 32.8112 10.7036 33.0956L10.9032 33.1442L10.9099 25.1605H10.0704C8.68065 25.1605 7.55426 24.0341 7.55426 22.6444C7.55426 21.2547 8.68065 20.1283 10.0704 20.1283H10.9091V18.4508C10.9091 17.5241 11.6597 16.7734 12.5865 16.7734H22.6494C23.2683 16.7734 23.8034 17.1131 24.0945 17.6121H24.3285C25.7157 17.6121 26.8446 16.4832 26.8446 15.096C26.8446 9.54627 22.3298 5.03149 16.7801 5.03149Z" fill="#41B7E9"/>
</g>
<g id="Group_5">
<path id="Vector_3" d="M18.4574 20.967C19.3825 20.967 20.1348 21.7193 20.1348 22.6444H21.8122C21.8122 20.7942 20.3076 19.2896 18.4574 19.2896C16.6072 19.2896 15.1025 20.7942 15.1025 22.6444H16.78C16.78 21.7193 17.5323 20.967 18.4574 20.967Z" fill="#1F2428"/>
<path id="Vector_4" d="M26.838 38.7349C26.5746 38.641 26.2945 38.5806 25.9993 38.5806H21.5483L20.3212 35.3079C20.0461 34.5749 19.6108 33.9333 19.0716 33.4041C22.5396 32.7239 25.1648 29.6642 25.1648 25.9991V18.4507C25.1648 17.0635 24.0359 15.9346 22.6486 15.9346H12.5858C11.1986 15.9346 10.0697 17.0635 10.0697 18.4507V19.2894C8.21949 19.2894 6.71484 20.7941 6.71484 22.6442C6.71484 24.4944 8.21949 25.9991 10.0697 25.9991L10.0638 32.9386L10.7037 33.0954C11.0476 33.1793 11.3948 33.2489 11.7446 33.3093C10.713 34.2771 10.0638 35.6484 10.0638 37.1715C10.0638 39.1987 10.6828 41.0833 11.7412 42.6475V51.9999H23.4832V46.9677H27.6767V46.9693H31.0316C33.3439 46.9693 35.2251 45.0881 35.2251 42.7758C35.2251 42.4806 35.1647 42.2004 35.0708 41.9371L51.9993 41.9354V26.8386H26.838V38.7349ZM21.4174 30.4652C21.1776 30.3897 20.9352 30.3184 20.7062 30.2287C19.6184 29.801 18.8191 28.8272 18.5532 27.6765H23.2408C22.912 28.7761 22.2696 29.7389 21.4174 30.4652ZM10.0697 24.3217C9.14459 24.3217 8.39226 23.5693 8.39226 22.6442C8.39226 21.7192 9.14459 20.9668 10.0697 20.9668H11.7471V18.4507C11.7471 17.9877 12.1237 17.612 12.5858 17.612H22.6495C23.1116 17.612 23.4882 17.9877 23.4882 18.4507V25.9991H16.7802V26.8378C16.7802 28.818 17.8814 30.6288 19.563 31.5312C18.9533 31.7468 18.2999 31.8701 17.6164 31.8701L14.4754 31.8709C13.5579 31.8709 12.6412 31.7828 11.7421 31.6067L11.7488 24.3217H10.0697ZM21.8057 50.3225H13.4187V44.5337C15.143 46.0442 17.3933 46.9677 19.8599 46.9677H21.8057V50.3225ZM26.838 45.2902H19.8599C15.3829 45.2902 11.7412 41.6477 11.7412 37.1682C11.7412 35.1729 13.365 33.5483 15.3611 33.5483C16.8616 33.5483 18.2236 34.4919 18.7503 35.8975L20.031 39.3119L18.5918 41.4708L19.9874 42.4009L21.4157 40.258H25.9993C26.4614 40.258 26.838 40.6337 26.838 41.0967V41.0984V45.2902ZM32.709 41.9371C33.1711 41.9371 33.5477 42.3128 33.5477 42.7758C33.5477 44.163 32.4188 45.2919 31.0316 45.2919H28.5154V41.4439L29.4565 40.5046C29.6141 40.3469 29.8246 40.2597 30.0494 40.2597H30.1928C30.655 40.2597 31.0316 40.6354 31.0316 41.0984V41.9371H32.709ZM50.3219 40.258L40.2574 40.2588V38.5806C41.6446 38.5806 42.7735 37.4517 42.7735 36.0644C42.7735 34.6772 41.6446 33.5483 40.2574 33.5483H38.5799C38.1178 33.5483 37.7412 33.1726 37.7412 32.7096C37.7412 32.2466 38.1178 31.8709 38.5799 31.8709H40.2574C40.7195 31.8709 41.0961 32.2466 41.0961 32.7096H42.7735C42.7735 31.3224 41.6446 30.1935 40.2574 30.1935V28.5161H50.3219V40.258ZM38.5799 28.5161V30.1935C37.1927 30.1935 36.0638 31.3224 36.0638 32.7096C36.0638 34.0968 37.1927 35.2257 38.5799 35.2257H40.2574C40.7195 35.2257 41.0961 35.6015 41.0961 36.0644C41.0961 36.5274 40.7195 36.9032 40.2574 36.9032H38.5799C38.1178 36.9032 37.7412 36.5274 37.7412 36.0644H36.0638C36.0638 37.4517 37.1927 38.5806 38.5799 38.5806V40.2588L32.5656 40.2597C32.2192 39.2834 31.2865 38.5822 30.1928 38.5822H30.0486C29.4841 38.5822 28.9532 38.776 28.5154 39.1173V28.5161H38.5799Z" fill="#1F2428"/>
<path id="Vector_5" d="M48.1003 3.35484L45.5146 1.28574C44.4771 0.457097 43.1754 0 41.8478 0H34.3866C33.4615 0 32.7092 0.752323 32.7092 1.67742C32.7092 2.29135 32.887 2.85916 33.1755 3.35484H31.0318C29.6445 3.35484 28.5156 4.48374 28.5156 5.87097C28.5156 7.0309 29.3082 8.00045 30.3776 8.28981C30.261 8.58 30.193 8.89452 30.193 9.22581C30.193 10.3857 30.9856 11.3553 32.055 11.6446C31.9384 11.9348 31.8705 12.2494 31.8705 12.5806C31.8705 13.9679 32.9994 15.0968 34.3866 15.0968H42.2185C43.2819 15.0968 44.327 14.8074 45.2395 14.2597L48.0383 12.5806H51.9995V3.35484H48.1003ZM44.3765 12.8214C43.7239 13.213 42.9783 13.4194 42.2185 13.4194H34.3866C33.9245 13.4194 33.5479 13.0436 33.5479 12.5806C33.5479 12.1177 33.9245 11.7419 34.3866 11.7419H39.4189V10.0645H34.3866H32.7092C32.247 10.0645 31.8705 9.68877 31.8705 9.22581C31.8705 8.76284 32.247 8.3871 32.7092 8.3871H39.4189V6.70968H32.7092H31.0318C30.5696 6.70968 30.193 6.33394 30.193 5.87097C30.193 5.408 30.5696 5.03226 31.0318 5.03226H36.064H39.4189H39.8089L40.2416 5.68058C41.0199 6.85058 42.3241 7.54839 43.7307 7.54839H44.4511V5.87097H43.7307C42.8869 5.87097 42.1052 5.45245 41.6372 4.75045L40.7063 3.35484H39.4189H36.064C35.1389 3.35484 34.3866 2.60252 34.3866 1.67742H41.8478C42.7955 1.67742 43.7265 2.00368 44.4679 2.59665L46.9672 4.59697V11.2672L44.3765 12.8214ZM50.3221 10.9032H48.6447V5.03226H50.3221V10.9032Z" fill="#1F2428"/>
<path id="Vector_6" d="M33.5479 16.7742H35.2253V25.1613H33.5479V16.7742Z" fill="#1F2428"/>
<path id="Vector_7" d="M36.9023 23.4839H38.5798V25.1613H36.9023V23.4839Z" fill="#1F2428"/>
<path id="Vector_8" d="M36.9023 16.7742H38.5798V21.8064H36.9023V16.7742Z" fill="#1F2428"/>
<path id="Vector_9" d="M43.6123 23.4839H45.2897V25.1613H43.6123V23.4839Z" fill="#1F2428"/>
<path id="Vector_10" d="M43.6123 16.7742H45.2897V21.8064H43.6123V16.7742Z" fill="#1F2428"/>
<path id="Vector_11" d="M40.2578 16.7742H41.9352V25.1613H40.2578V16.7742Z" fill="#1F2428"/>
</g>
</g>
</g>
</svg>
