<svg width="60" height="60" viewBox="0 0 60 60" fill="none" xmlns="http://www.w3.org/2000/svg">
<g id="&#208;&#152;&#208;&#186;&#208;&#190;&#208;&#189;&#208;&#186;&#208;&#176;">
<rect id="Rectangle 4" width="60" height="60" fill="white"/>
<g id="Group 4">
<path id="Vector" d="M6.77344 0.967773H53.2251V7.74197H6.77344V0.967773Z" fill="#41B7E9"/>
<path id="Vector_2" d="M41.3809 26.1096C39.7186 25.9414 38.4063 24.6065 38.0784 22.9673L37.7424 21.2903V22.2301C37.7424 24.1004 36.4397 25.8077 34.5907 26.0865C32.5824 26.3894 30.7551 25.0606 30.37 23.1369L30.0005 21.2903L29.6579 23.0051C29.3404 24.5923 28.0863 25.888 26.4806 26.0959C24.2016 26.3922 22.2586 24.6259 22.2586 22.4059V21.2903L21.9226 22.9673C21.5947 24.6056 20.2824 25.9414 18.6201 26.1096C17.3684 26.2363 16.2433 25.7321 15.4844 24.8905V36.7742C15.4844 37.8435 16.3505 38.7096 17.4199 38.7096H42.5812C43.6505 38.7096 44.5166 37.8435 44.5166 36.7742V24.8905C43.7568 25.7321 42.6312 26.2363 41.3809 26.1096V26.1096Z" fill="#41B7E9"/>
<path id="Vector_3" d="M7.74219 48.3872H9.67767V50.3227H7.74219V48.3872Z" fill="#1F2428"/>
<path id="Vector_4" d="M3.87109 48.3872H5.80658V50.3227H3.87109V48.3872Z" fill="#1F2428"/>
<path id="Vector_5" d="M11.6133 48.3872H13.5488V50.3227H11.6133V48.3872Z" fill="#1F2428"/>
<path id="Vector_6" d="M55.1613 13.5484H54.1935V0H5.80645V11.6129H7.74194V1.93548H52.2581V15.4839H55.1613C56.7617 15.4839 58.0645 16.7866 58.0645 18.3871V46.4516H19.5831L15.7121 44.5161H1.93548V18.3871C1.93548 16.7866 3.23825 15.4839 4.83871 15.4839H5.80645V42.5806H54.1935V17.4194H52.2581V40.6452H7.74194V13.5484H4.83871C2.1708 13.5484 0 15.7192 0 18.3871V49.3548C0 52.0227 2.1708 54.1935 4.83871 54.1935H17.4194V58.0645H13.5484V60H46.4516V58.0645H42.5806V54.1935H55.1613C57.8292 54.1935 60 52.0227 60 49.3548V18.3871C60 15.7192 57.8292 13.5484 55.1613 13.5484ZM40.6452 58.0645H19.3548V54.1935H40.6452V58.0645ZM55.1613 52.2581H4.83871C3.23825 52.2581 1.93548 50.9553 1.93548 49.3548V46.4516H15.2556L19.1266 48.3871H58.0645V49.3548C58.0645 50.9553 56.7617 52.2581 55.1613 52.2581Z" fill="#1F2428"/>
<path id="Vector_7" d="M9.67773 3.87085H11.6132V5.80633H9.67773V3.87085Z" fill="#1F2428"/>
<path id="Vector_8" d="M13.5488 3.87085H15.4843V5.80633H13.5488V3.87085Z" fill="#1F2428"/>
<path id="Vector_9" d="M17.4199 3.87085H19.3554V5.80633H17.4199V3.87085Z" fill="#1F2428"/>
<path id="Vector_10" d="M13.5488 22.4059C13.5488 24.993 15.6525 27.0967 18.2396 27.0967C19.8236 27.0967 21.2482 26.2858 22.1016 25.0374C22.9465 26.2787 24.3693 27.0967 25.9816 27.0967C27.6605 27.0967 29.1711 26.1946 30.0004 24.8167C30.8307 26.1955 32.3404 27.0967 34.0193 27.0967C35.6306 27.0967 37.0544 26.2787 37.8993 25.0374C38.7536 26.2858 40.1773 27.0967 41.7612 27.0967C44.3483 27.0967 46.4521 24.993 46.4521 22.4059V21.8941C46.4521 21.389 46.3708 20.8886 46.2111 20.4104L43.279 11.6128H16.7219L13.7898 20.4104C13.6301 20.8886 13.5488 21.389 13.5488 21.8941V22.4059ZM41.8832 13.5483L44.3753 21.0232C44.4693 21.3039 44.5166 21.5969 44.5166 21.8941V22.4059C44.5166 23.9255 43.2809 25.1612 41.7612 25.1612C40.4519 25.1612 39.3178 24.2303 39.0603 22.946L38.7101 21.3365V21.2902H38.7007L37.0147 13.5483H41.8832ZM36.7746 21.3946V22.4059C36.7746 23.9255 35.539 25.1612 34.0193 25.1612C32.7099 25.1612 31.5759 24.2303 31.3183 22.946L30.9682 21.1943V13.5483H35.031L36.7746 21.3946ZM29.0327 13.5483V21.1943L28.6826 22.9469C28.425 24.2303 27.29 25.1612 25.9816 25.1612C24.4619 25.1612 23.2262 23.9255 23.2262 22.4059V21.5449L24.9699 13.5483H29.0327ZM15.4843 21.8941C15.4843 21.5969 15.5316 21.3039 15.6256 21.0232L18.1177 13.5483H22.9871L21.3101 21.1007L20.9406 22.9469C20.6831 24.2303 19.5481 25.1612 18.2396 25.1612C16.72 25.1612 15.4843 23.9255 15.4843 22.4059V21.8941Z" fill="#1F2428"/>
<path id="Vector_11" d="M33.8708 38.7096V29.0322H26.1289V38.7096H28.0644V30.9677H31.9354V38.7096H33.8708Z" fill="#1F2428"/>
</g>
</g>
</svg>
