<svg width="300" height="299" viewBox="0 0 300 299" fill="none" xmlns="http://www.w3.org/2000/svg">
<path d="M263.905 256.361C256.097 264.41 249.109 269.142 243.76 272.713C191.588 307.549 131.949 297.508 113.509 294.077C83.7614 288.54 58.6489 284.634 37.0739 265.141C-11.9499 220.847 -9.56927 128.448 27.8934 71.2098C32.3353 64.4223 69.7393 8.97561 129.509 1.16312C130.971 0.971515 132.061 0.863352 133.012 0.762399C142.257 -0.217253 199.558 -5.38335 246.271 33.7574C252.959 39.3603 263.722 49.4658 273.701 64.8796C310.198 121.238 310.314 208.525 263.905 256.361Z" fill="#F4F7FA"/>
<path d="M189.118 143.709L123.273 135.659V38.5485L189.118 26.0757V143.709Z" fill="url(#paint0_linear_1_1910)"/>
<path d="M269.433 138.592L189.118 143.709V26.0757L269.433 37.164V138.592Z" fill="url(#paint1_linear_1_1910)"/>
<g style="mix-blend-mode:soft-light">
<path d="M219.393 30.2549V46.7483L246.131 49.2463V33.9469L219.393 30.2549Z" fill="white"/>
</g>
<path d="M254.811 74.2578L258.852 83.941C259.125 84.5921 259.252 85.2956 259.222 86.0012C259.191 86.7068 259.006 87.397 258.678 88.0224L251.969 100.466L243.811 81.547C243.781 81.4814 243.768 81.4098 243.772 81.3381C243.776 81.2664 243.798 81.1967 243.834 81.1349C243.866 81.0755 243.915 81.0266 243.974 80.9941C244.033 80.9615 244.1 80.9468 244.167 80.9516L250.618 81.4512L251.259 81.5006L251.568 80.8733L254.809 74.2599L254.811 74.2578Z" fill="white"/>
<path d="M237.166 56.6262L226.551 73.4039C226.517 73.4624 226.468 73.5102 226.408 73.5416C226.348 73.573 226.281 73.5867 226.214 73.5811C226.143 73.5762 226.074 73.5511 226.017 73.5088C225.959 73.4664 225.915 73.4086 225.889 73.3421L222.929 66.7328L222.633 66.0735L221.965 66.0663L214.815 65.9891L220.623 57.3566C221.407 56.1915 222.674 55.5559 224.011 55.6548L237.166 56.6262Z" fill="white"/>
<path d="M209.231 92.2314L228.662 93.8858C228.732 93.8926 228.798 93.9186 228.854 93.961C228.91 94.0034 228.953 94.0604 228.979 94.1258C229.01 94.194 229.024 94.2685 229.019 94.3432C229.015 94.4178 228.993 94.4903 228.954 94.5544L225.215 100.86L224.839 101.494L225.182 102.143L228.829 109.045L218.799 108.142C217.417 108.017 216.208 107.13 215.571 105.772L209.231 92.2387V92.2314Z" fill="white"/>
<g style="mix-blend-mode:multiply" opacity="0.3">
<path d="M254.811 74.2578L258.852 83.941C259.125 84.5921 259.252 85.2956 259.222 86.0012C259.191 86.7068 259.006 87.397 258.678 88.0224L251.969 100.466L243.811 81.547C243.781 81.4814 243.768 81.4098 243.772 81.3381C243.776 81.2664 243.798 81.1967 243.834 81.1349C243.866 81.0755 243.915 81.0266 243.974 80.9941C244.033 80.9615 244.1 80.9468 244.167 80.9516L250.618 81.4512L251.259 81.5006L251.568 80.8733L254.809 74.2599L254.811 74.2578Z" fill="white"/>
</g>
<path d="M236.969 92.2336L236.935 92.9073L236.874 94.092L237.93 94.162L251.557 95.0603L251.639 95.0655C252.873 95.1357 254.108 94.9331 255.255 94.4721L249.167 106.124C248.068 108.225 246.049 109.477 243.893 109.382H243.843L237.406 109.038L236.388 108.985L236.285 110.137L236.138 111.771L231.637 101.582L236.969 92.2357V92.2336Z" fill="white"/>
<g style="mix-blend-mode:multiply" opacity="0.3">
<path d="M237.166 56.6262L226.551 73.4039C226.517 73.4624 226.468 73.5102 226.408 73.5416C226.348 73.573 226.281 73.5867 226.214 73.5811C226.143 73.5762 226.074 73.5511 226.017 73.5088C225.959 73.4664 225.915 73.4086 225.889 73.3421L222.929 66.7328L222.633 66.0735L221.965 66.0663L214.815 65.9891L220.623 57.3566C221.407 56.1915 222.674 55.5559 224.011 55.6548L237.166 56.6262Z" fill="white"/>
</g>
<g style="mix-blend-mode:multiply" opacity="0.3">
<path d="M209.231 92.2314L228.662 93.8858C228.732 93.8926 228.798 93.9186 228.854 93.961C228.91 94.0034 228.953 94.0604 228.979 94.1258C229.01 94.194 229.024 94.2685 229.019 94.3432C229.015 94.4178 228.993 94.4903 228.954 94.5544L225.215 100.86L224.839 101.494L225.182 102.143L228.829 109.045L218.799 108.142C217.417 108.017 216.208 107.13 215.571 105.772L209.231 92.2387V92.2314Z" fill="white"/>
</g>
<path d="M208.977 70.9294L219.234 71.8349L223.751 81.6417L223.243 81.2657L222.348 80.6034L221.748 81.5882L213.79 94.6553C213.024 95.9166 212.496 97.3071 212.23 98.7583L206.279 86.4514C205.755 85.3583 205.515 84.151 205.58 82.9406C205.645 81.7302 206.013 80.5556 206.651 79.5248L210.418 73.514L211.007 72.5756L210.167 71.8947L208.977 70.9294Z" fill="white"/>
<path d="M242.97 56.8311C245.025 57.0124 246.878 58.4062 247.812 60.4685L250.64 66.7162L251.085 67.7L251.967 67.2756L253.214 66.6761L247.96 75.5815L238.358 74.9222L238.888 74.6348L239.815 74.1311L239.345 73.0876L233.215 59.4693C232.655 58.2125 231.864 57.0721 230.883 56.1069L242.824 56.8208L242.972 56.8311H242.97Z" fill="white"/>
<path d="M285.23 272.139L177.29 279.73V121.638L285.23 129.23V272.139Z" fill="url(#paint2_linear_1_1910)"/>
<path d="M177.29 279.73L88.7979 268.912V131.73L177.29 121.638V279.73Z" fill="url(#paint3_linear_1_1910)"/>
<g style="mix-blend-mode:soft-light">
<path d="M215.5 124.325V149.042L251.667 150.878V126.869L215.5 124.325Z" fill="white"/>
</g>
<path d="M265.566 193.087L271.826 205.964C272.244 206.839 272.454 207.799 272.442 208.769C272.429 209.738 272.193 210.692 271.752 211.556L262.738 229.352L249.852 204.532C249.804 204.442 249.781 204.342 249.782 204.241C249.784 204.14 249.812 204.041 249.862 203.953C249.908 203.865 249.977 203.79 250.062 203.738C250.146 203.686 250.244 203.658 250.343 203.656L259.833 203.553L260.767 203.544L261.179 202.64L265.566 193.087Z" fill="white"/>
<path d="M238.315 169.856L223.251 195.12C223.2 195.209 223.126 195.283 223.038 195.335C222.949 195.387 222.848 195.414 222.745 195.414C222.639 195.416 222.534 195.388 222.443 195.333C222.352 195.278 222.278 195.199 222.23 195.105L217.108 185.911L216.593 184.984L215.547 185.046L204.267 185.707L212.706 172.445C213.258 171.57 214.025 170.852 214.934 170.358C215.843 169.864 216.864 169.612 217.898 169.626L238.319 169.849L238.315 169.856Z" fill="white"/>
<path d="M197.849 224.3L228.006 223.754C228.108 223.75 228.209 223.775 228.297 223.826C228.385 223.877 228.457 223.952 228.504 224.043C228.555 224.134 228.582 224.238 228.581 224.343C228.579 224.448 228.55 224.551 228.497 224.641L223.304 233.955L222.782 234.891L223.351 235.734L229.348 244.612L214.11 245.053C211.982 245.115 210.052 244.091 208.96 242.311L197.849 224.3Z" fill="white"/>
<g style="mix-blend-mode:multiply" opacity="0.3">
<path d="M265.566 193.087L271.826 205.964C272.244 206.839 272.454 207.799 272.442 208.769C272.429 209.738 272.193 210.692 271.752 211.556L262.738 229.352L249.852 204.532C249.804 204.442 249.781 204.342 249.782 204.241C249.784 204.14 249.812 204.041 249.862 203.953C249.908 203.865 249.977 203.79 250.062 203.738C250.146 203.686 250.244 203.658 250.343 203.656L259.833 203.553L260.767 203.544L261.179 202.64L265.566 193.087Z" fill="white"/>
</g>
<path d="M240.354 220.271L240.346 221.207L240.332 222.855L241.903 222.799L261.878 222.093L261.996 222.087C263.788 222.006 265.545 221.56 267.159 220.777L258.991 237.391C257.52 240.383 254.676 242.385 251.553 242.606L251.48 242.612L242.065 243.195L240.562 243.287L240.484 244.864L240.373 247.098L233.023 233.942L240.354 220.269V220.271Z" fill="white"/>
<g style="mix-blend-mode:multiply" opacity="0.3">
<path d="M238.315 169.856L223.251 195.12C223.2 195.209 223.126 195.283 223.038 195.335C222.949 195.387 222.848 195.414 222.745 195.414C222.639 195.416 222.534 195.388 222.443 195.333C222.352 195.278 222.278 195.199 222.23 195.105L217.108 185.911L216.593 184.984L215.547 185.046L204.267 185.707L212.706 172.445C213.258 171.57 214.025 170.852 214.934 170.358C215.843 169.864 216.864 169.612 217.898 169.626L238.319 169.849L238.315 169.856Z" fill="white"/>
</g>
<g style="mix-blend-mode:multiply" opacity="0.3">
<path d="M197.849 224.3L228.006 223.754C228.108 223.75 228.209 223.775 228.297 223.826C228.385 223.877 228.457 223.952 228.504 224.043C228.555 224.134 228.582 224.238 228.581 224.343C228.579 224.448 228.55 224.551 228.497 224.641L223.304 233.955L222.782 234.891L223.351 235.734L229.348 244.612L214.11 245.053C211.982 245.115 210.052 244.091 208.96 242.311L197.849 224.3Z" fill="white"/>
</g>
<path d="M195.403 193.611L211.75 193.72L219.579 207.214L218.764 206.746L217.328 205.922L216.48 207.401L205.221 227.045C204.152 228.901 203.45 230.945 203.154 233.065L192.604 216.469C190.681 213.444 190.647 209.584 192.517 206.419L197.959 197.209L198.809 195.767L197.401 194.875L195.403 193.606V193.611Z" fill="white"/>
<path d="M247.128 169.631C250.224 169.707 253.075 171.537 254.58 174.396L259.097 182.973L259.803 184.313L261.077 183.623L262.872 182.653L255.624 195.707L241.319 195.895L242.095 195.428L243.456 194.604L242.687 193.183L232.471 174.332C231.505 172.542 230.203 170.957 228.636 169.661L246.904 169.619H247.128V169.631Z" fill="white"/>
<path d="M96.9347 177.226C95.6594 180.251 93.2819 184.452 90.754 189.29H144.705C136.464 174.055 125.685 158.361 134.084 128.616C138.025 114.657 150.21 89.3565 141.595 74.9069C131.78 58.4454 118.475 68.0936 112.854 55.0625C104.067 34.6958 83.8913 22.5599 66.0309 35.9032C48.4157 49.0692 54.5522 86.9604 85.7743 124.865C105.093 154.596 103.59 161.43 96.9347 177.226Z" fill="url(#paint4_linear_1_1910)"/>
<g opacity="0.3">
<path opacity="0.3" d="M118.636 186.165C118.012 179.169 117.071 172.603 116.073 165.651L115.74 163.333C115.054 160.016 114.467 156.726 113.899 153.547C112.617 146.363 111.406 139.576 109.136 132.515C109.051 132.096 108.989 131.685 108.93 131.251C108.697 129.698 108.456 128.094 107.332 126.688L107.302 126.628C98.1216 88.8652 81.004 52.3668 56.4189 18.1418L56.6734 17.9595C81.2739 52.2061 98.406 88.7293 107.593 126.517C108.751 127.982 109.007 129.691 109.234 131.2C109.299 131.632 109.359 132.039 109.44 132.437C111.706 139.501 112.924 146.297 114.208 153.492C114.775 156.671 115.362 159.96 116.05 163.279L116.383 165.606C117.382 172.562 118.325 179.132 118.949 186.136L118.636 186.165Z" fill="#FCFDFE"/>
<path opacity="0.3" d="M113.364 152.267C110.404 134.211 116.839 111.32 122.759 95.3005C129.171 77.9481 136.375 64.6883 136.448 64.5564L136.722 64.7068C136.65 64.8387 129.455 78.0809 123.052 95.4128C117.145 111.399 110.723 134.231 113.678 152.219L113.364 152.267Z" fill="#FCFDFE"/>
<path opacity="0.3" d="M89.8109 75.3387C85.6028 56.3534 85.5791 35.4532 85.5729 28.5853C85.5729 27.2719 85.5729 26.4035 85.541 26.2397L85.8501 26.1841C85.883 26.3685 85.8851 27.0535 85.8861 28.5853C85.8933 35.4449 85.9149 56.3184 90.1168 75.2717L89.8109 75.3387Z" fill="#FCFDFE"/>
<path opacity="0.3" d="M101.158 105.03C92.2874 89.4327 56.304 79.6743 55.9414 79.5775L56.0228 79.2747C56.3864 79.3777 92.4955 89.1639 101.43 104.875L101.158 105.03Z" fill="#FCFDFE"/>
</g>
<path d="M73.5838 119.988C73.8743 144.775 85.8289 136.607 96.8534 139.054C109.575 157.462 110.775 174.541 91.7789 189.29L70.6119 186.123C62.7592 185.758 53.5437 183.358 54.0639 172.901C54.6521 161.073 57.4489 153.561 44.0994 147.753C30.75 141.946 25.0153 131.347 30.4214 119.289C36.1098 106.603 22.7665 89.5028 32.5177 81.0032C49.5097 66.1941 73.2809 94.1785 73.5838 119.988Z" fill="url(#paint5_linear_1_1910)"/>
<g opacity="0.3">
<path opacity="0.3" d="M78.8383 164.346C69.989 154.661 62.3477 143.938 56.0817 132.412C49.764 120.793 44.9492 108.536 41.7702 95.9843C39.9536 88.8247 38.675 81.5392 37.9453 74.1889L38.2636 74.158C38.9922 81.4919 40.268 88.7612 42.0802 95.905C45.253 108.431 50.0586 120.662 56.363 132.258C62.617 143.76 70.2431 154.461 79.0742 164.126L78.8383 164.346Z" fill="#FCFDFE"/>
<path opacity="0.3" d="M52.9958 179.124L52.8506 178.839C56.7816 176.836 61.4192 175.274 66.6337 174.197C69.053 173.692 71.5044 173.355 73.9703 173.189L73.9909 173.509C71.5399 173.673 69.1033 174.008 66.6986 174.51C61.5119 175.581 56.901 177.134 52.9958 179.124Z" fill="#FCFDFE"/>
<path opacity="0.3" d="M60.2022 139.487C49.2725 128.913 26.002 129.88 25.7733 129.892L25.7578 129.573C25.9937 129.562 49.3951 128.587 60.4247 139.256L60.2022 139.487Z" fill="#FCFDFE"/>
<path opacity="0.3" d="M46.7238 111.893C43.4531 95.0264 56.098 75.5291 56.2226 75.3396L56.4894 75.5158C56.3627 75.7094 43.792 95.0944 47.039 111.832L46.7238 111.893Z" fill="#FCFDFE"/>
</g>
<path d="M86.9477 287.821L27.3848 280.539V185.608L86.9477 181.412V287.821Z" fill="url(#paint6_linear_1_1910)"/>
<path d="M159.599 282.912L86.9473 287.821V181.412L159.599 185.588V282.912Z" fill="url(#paint7_linear_1_1910)"/>
<g style="mix-blend-mode:soft-light">
<path d="M113.336 182.928V227.273L137.628 228.08V184.325L113.336 182.928Z" fill="white"/>
</g>
<path d="M73.8889 225.701L77.8673 233.995C78.1387 234.56 78.2757 235.181 78.2674 235.809C78.2592 236.437 78.106 237.054 77.8199 237.612L72.1408 248.551L64.5395 232.737C64.5125 232.682 64.499 232.621 64.5001 232.56C64.5011 232.499 64.5168 232.439 64.5456 232.385C64.5701 232.334 64.6089 232.29 64.6575 232.259C64.706 232.228 64.7623 232.212 64.8197 232.212L70.3762 232.272L70.9397 232.278L71.192 231.717L73.8889 225.701Z" fill="white"/>
<path d="M58.2017 212.247L50.519 227.094C50.4979 227.142 50.4634 227.183 50.4196 227.213C50.3758 227.242 50.3245 227.258 50.2718 227.26C50.2174 227.26 50.1642 227.244 50.1191 227.214C50.074 227.184 50.0393 227.14 50.0194 227.09L47.5615 222.013L47.3184 221.509L46.826 221.561L41.6836 222.096L45.5033 214.714C46.0318 213.692 46.9403 213.039 47.9375 212.969L58.2028 212.248L58.2017 212.247Z" fill="white"/>
<path d="M38.8896 242.505L52.8767 243.402C52.9313 243.407 52.9835 243.427 53.0276 243.46C53.0717 243.492 53.1061 243.536 53.127 243.587C53.1537 243.64 53.1677 243.699 53.1677 243.758C53.1677 243.817 53.1537 243.876 53.127 243.929L50.5517 248.944L50.2962 249.44L50.5744 249.947L53.5617 255.389L46.1644 254.527C45.1786 254.412 44.2947 253.722 43.7951 252.684L38.8989 242.505H38.8896Z" fill="white"/>
<g style="mix-blend-mode:multiply" opacity="0.3">
<path d="M73.8889 225.701L77.8673 233.995C78.1387 234.56 78.2757 235.181 78.2674 235.809C78.2592 236.437 78.106 237.054 77.8199 237.612L72.1408 248.551L64.5395 232.737C64.5125 232.682 64.499 232.621 64.5001 232.56C64.5011 232.499 64.5168 232.439 64.5456 232.385C64.5701 232.334 64.6089 232.29 64.6575 232.259C64.706 232.228 64.7623 232.212 64.8197 232.212L70.3762 232.272L70.9397 232.278L71.192 231.717L73.8889 225.701Z" fill="white"/>
</g>
<path d="M59.2914 241.89V242.442L59.2842 243.411L60.133 243.448L71.62 243.94H71.6911C72.787 243.977 73.878 243.779 74.8907 243.358L69.8739 253.324C68.9963 255.068 67.3223 256.07 65.5144 255.948H65.4732L60.2196 255.542L59.4068 255.479L59.3646 256.406L59.3048 257.715L55.4336 249.508L59.2945 241.893L59.2914 241.89Z" fill="white"/>
<g style="mix-blend-mode:multiply" opacity="0.3">
<path d="M58.2017 212.247L50.519 227.094C50.4979 227.142 50.4634 227.183 50.4196 227.213C50.3758 227.242 50.3245 227.258 50.2718 227.26C50.2174 227.26 50.1642 227.244 50.1191 227.214C50.074 227.184 50.0393 227.14 50.0194 227.09L47.5615 222.013L47.3184 221.509L46.826 221.561L41.6836 222.096L45.5033 214.714C46.0318 213.692 46.9403 213.039 47.9375 212.969L58.2028 212.248L58.2017 212.247Z" fill="white"/>
</g>
<g style="mix-blend-mode:multiply" opacity="0.3">
<path d="M38.8896 242.505L52.8767 243.402C52.9313 243.407 52.9835 243.427 53.0276 243.46C53.0717 243.492 53.1061 243.536 53.127 243.587C53.1537 243.64 53.1677 243.699 53.1677 243.758C53.1677 243.817 53.1537 243.876 53.127 243.929L50.5517 248.944L50.2962 249.44L50.5744 249.947L53.5617 255.389L46.1644 254.527C45.1786 254.412 44.2947 253.722 43.7951 252.684L38.8989 242.505H38.8896Z" fill="white"/>
</g>
<path d="M37.8493 226.357H45.0602L48.7418 233.839L48.3514 233.566L47.6684 233.086L47.2677 233.892L42.1088 244.256C41.6249 245.237 41.3153 246.294 41.1941 247.381L36.6718 238.246C36.2772 237.433 36.0691 236.542 36.0627 235.638C36.0562 234.735 36.2517 233.841 36.6347 233.022L38.9361 228.243L39.3017 227.484L38.6981 227.017L37.8482 226.357H37.8493Z" fill="white"/>
<path d="M63.0023 211.715C64.7536 211.612 66.3843 212.599 67.2588 214.29L69.931 219.449L70.3554 220.268L71.1249 219.808L72.221 219.153L67.8707 227.385L59.81 227.516L60.2303 227.238L60.973 226.749L60.5517 225.908L55.1435 215.092C54.6698 214.125 54.0058 213.264 53.1914 212.56L62.8746 211.729L62.9993 211.72L63.0023 211.715Z" fill="white"/>
<path d="M112.908 121.795C116.052 120.876 120.254 126.649 123.747 131.449C128.972 138.628 135.078 147.016 133.43 157.087C131.813 166.997 123.317 174.715 120.896 173.611C118.825 172.667 122.806 166.002 119.756 157.087C117.295 149.895 113.217 149.892 110.485 142.84C107.091 134.088 109.041 122.924 112.908 121.795Z" fill="white"/>
<path d="M114.463 167.439C130.656 171.37 141.32 177.681 147.55 182.144C150.925 184.563 152.485 186.072 153.327 188.271C158.123 200.804 133.48 219.753 130.854 221.737C129.707 219.063 128.56 216.388 127.413 213.713C129.959 199.737 134.198 195.353 137.746 194.048C138.739 193.684 140.405 193.292 140.372 192.823C140.296 191.712 130.936 193.294 121.991 190.022C113.071 186.758 104.11 178.501 105.715 173.041C105.999 172.045 107.226 169.164 114.463 167.439Z" fill="url(#paint8_linear_1_1910)"/>
<path d="M130.165 259.043C130.165 259.043 128.658 259.58 128.652 260.772C128.647 261.964 130.179 267.215 131.846 269.081C133.513 270.946 133.659 268.163 133.556 266.37C133.453 264.576 133.016 260.564 132.605 259.787C132.194 259.01 130.165 259.043 130.165 259.043Z" fill="url(#paint9_linear_1_1910)"/>
<path style="mix-blend-mode:multiply" opacity="0.3" d="M135.004 185.762C137.946 185.704 144.84 185.155 146.675 188.563C148.206 191.406 145.524 195.715 143.874 198.366C139.389 205.576 135.036 206.309 131.97 210.736C130.783 212.45 129.703 214.845 129.365 218.265C128.714 216.748 128.062 215.23 127.408 213.713C129.955 199.737 134.194 195.351 137.741 194.048C138.734 193.684 140.4 193.292 140.367 192.822C140.291 191.712 130.931 193.294 121.987 190.022C113.856 187.047 105.718 179.926 105.549 174.555C118.43 183.79 128.119 185.897 135.004 185.762Z" fill="url(#paint10_linear_1_1910)"/>
<path d="M129.294 253.978C129.383 255.815 129.538 257.351 129.679 258.491C129.988 261.015 130.276 262.013 130.667 262.921C131.009 263.713 131.863 265.442 132.271 265.321C132.679 265.201 132.259 263.284 131.936 257.959C131.889 257.186 131.747 254.725 131.747 254.725L129.294 253.978Z" fill="url(#paint11_linear_1_1910)"/>
<path d="M105.127 168.49C114.456 174.114 120.512 180.509 124.033 184.829C128.191 189.927 134.513 197.682 136.807 209.243C138.028 215.407 137.425 220.936 136.176 231.742C135.187 240.299 133.71 248.793 131.753 257.182L129.601 258.046C127.68 254.516 125.166 248.927 124.265 241.78C122.791 230.088 127.165 226.373 125.066 218.081C123.246 210.898 117.977 206.493 107.438 197.685C98.7787 190.447 90.7941 186.153 87.8305 177.126C87.3267 175.594 86.9033 173.713 87.7192 171.99C89.49 168.28 96.2549 166.984 105.127 168.49Z" fill="url(#paint12_linear_1_1910)"/>
<path d="M96.0235 121.321C98.4443 120.8 102.427 120.909 106.222 117.915C107.364 117.014 111.414 113.826 110.921 109.262C110.489 105.244 106.682 103.087 106.216 102.83C103.527 101.349 100.836 101.679 97.8613 102.086C93.9983 102.614 92.7106 103.67 90.0323 104.393C83.3911 106.184 81.1443 102.447 74.4578 102.763C65.9077 103.165 65.1712 109.477 57.9757 109.635C49.9036 109.812 48.3564 101.909 40.3863 100.569C29.3227 98.7152 12.5841 110.62 12.922 124.35C13.1167 132.282 19.0204 141.367 26.563 144.094C30.9585 145.685 35.7023 145.18 37.0559 148.039C38.019 150.073 35.8527 151.644 36.0577 155.185C36.3214 159.755 40.2555 162.961 40.891 163.479C46.7885 168.286 60.0113 165.858 69.0403 159.056C85.3215 146.793 82.8564 124.154 96.0235 121.321Z" fill="url(#paint13_linear_1_1910)"/>
<path d="M78.9772 120.834C85.2289 120.064 91.5179 119.634 97.8162 119.548C112.669 119.342 114.795 121.23 115.339 122.624C116.353 125.223 114.618 126.526 115.602 131.057C116.193 133.766 115.634 135.001 116.775 137.913C117.886 140.751 117.015 142.275 116.032 148.929C114.775 157.436 114.195 161.759 116.576 165.189C118.23 167.572 120.078 167.774 119.904 168.905C119.528 171.317 111.19 169.987 100.634 174.617C97.5782 175.956 94.7619 177.604 92.406 178.993C86.8824 182.236 85.8605 183.476 83.3027 184.945C75.2142 189.592 63.0628 190.039 56.6945 184.42C54.3252 182.324 52.5895 179.245 53.3683 178.117C54.4283 176.583 59.1699 180.075 63.5212 177.942C66.4056 176.534 65.8565 174.254 69.1869 171.569C73.1972 168.337 75.9857 170.031 78.7156 167.927C82.9741 164.647 81.0375 156.793 79.8415 143.625C79.1596 136.048 78.8711 128.441 78.9772 120.834Z" fill="white"/>
<path d="M95.0502 117.775C93.0249 119.031 89.7502 120.673 89.3845 121.119C89.0188 121.565 99.3046 123.325 105.702 120.097C105.702 120.097 106.694 119.546 102.837 118.775C102.013 118.61 102.176 117.012 102.286 115.359L101.515 113.927C101.515 113.927 97.0764 116.517 95.0502 117.775Z" fill="url(#paint14_linear_1_1910)"/>
<path d="M100.746 112.362C100.746 112.362 99.9375 115.793 102.959 117.487C105.664 119.006 110.24 112.783 109.386 110.47C109.1 109.698 108.082 108.706 107.017 108.374C106.268 108.139 103.435 108.229 102.221 110.614C101.903 109.917 101.334 109.552 100.952 109.666C100.467 109.812 100.395 110.697 100.378 110.894C100.344 111.41 100.473 111.923 100.746 112.362Z" fill="url(#paint15_linear_1_1910)"/>
<path style="mix-blend-mode:multiply" opacity="0.3" d="M104.764 166.993C101.705 168.261 101.292 171 97.0636 172.556C93.0286 174.038 91.675 172.181 87.6513 173.411C81.6076 175.26 79.297 181.091 78.3802 180.541C77.5427 180.038 78.3462 174.464 82.2308 170.845C86.6923 166.693 91.502 168.594 94.3523 164.285C95.4628 162.608 96.3188 159.93 95.3505 157.867C94.0371 155.074 90.6119 156.043 88.7907 153.732C85.5252 149.581 93.1656 142.092 91.0724 135.764C90.2359 133.238 87.57 130.072 78.9941 127.953C79.1106 134.298 79.4762 139.599 79.8409 143.626C81.0369 156.794 82.9735 164.649 78.715 167.928C75.9851 170.032 73.1966 168.341 69.1863 171.57C65.8538 174.256 66.4049 176.535 63.5206 177.943C59.1693 180.071 54.4276 176.584 53.3676 178.118C52.5889 179.252 54.3195 182.326 56.6939 184.421C63.0622 190.04 75.2136 189.592 83.3021 184.946C85.86 183.477 86.8818 182.237 92.4054 178.994C94.7644 177.61 97.5777 175.957 100.633 174.618C108.042 171.369 114.353 171.054 117.591 170.322C111.164 166.035 107.247 165.964 104.764 166.993Z" fill="url(#paint16_linear_1_1910)"/>
<path d="M131.278 172.444L97.6836 174.078C97.456 174.09 97.2344 174.156 97.038 174.271C96.8415 174.387 96.676 174.548 96.5556 174.742L95.6285 176.233C95.5239 176.402 95.467 176.595 95.464 176.793C95.461 176.992 95.512 177.187 95.6115 177.358C95.711 177.53 95.8553 177.671 96.0289 177.766C96.2025 177.862 96.3988 177.909 96.5968 177.901L132.18 176.546L131.278 172.444Z" fill="url(#paint17_linear_1_1910)"/>
<path d="M166.218 153.731L131.512 154.404C131.008 154.414 130.515 154.555 130.081 154.813C129.648 155.071 129.289 155.437 129.04 155.876L117.022 177.021L153.677 175.561C154.172 175.541 154.654 175.398 155.08 175.145C155.506 174.892 155.863 174.537 156.118 174.112L167.253 155.509C167.36 155.329 167.418 155.123 167.419 154.913C167.42 154.703 167.365 154.497 167.26 154.315C167.154 154.134 167.002 153.984 166.819 153.881C166.636 153.779 166.428 153.727 166.218 153.731Z" fill="url(#paint18_linear_1_1910)"/>
<path style="mix-blend-mode:multiply" opacity="0.3" d="M129.038 155.876C129.287 155.437 129.646 155.071 130.079 154.813C130.513 154.555 131.006 154.414 131.51 154.404L132.271 154.39C132.385 155.509 132.728 156.534 133.414 157.362C135.553 159.945 139.109 158.352 141.758 161.085C144.669 164.088 141.98 167.663 144.583 170.46C147.323 173.402 151.752 171.007 156.841 172.889L156.108 174.114C155.853 174.539 155.496 174.894 155.07 175.147C154.644 175.4 154.161 175.543 153.666 175.563L117.022 177.021L129.038 155.876Z" fill="url(#paint19_linear_1_1910)"/>
<path d="M101.839 171.317L103.151 167.852C98.3183 166.528 91.6348 164.569 84.7793 162.12C83.0848 161.515 82.4657 160.732 82.0124 160.131C78.4976 155.47 87.4422 147.247 87.2815 136.577C87.1703 129.179 82.6861 120.719 78.7315 120.623C70.6965 120.427 52.9906 154.507 67.9058 169.052C75.3125 176.273 89.143 177.11 101.839 171.317Z" fill="white"/>
<path d="M103.15 167.852C106.184 166.24 109.816 167.892 110.052 168.003C111.029 168.467 111.915 169.103 112.668 169.88C112.779 170.031 114.095 171.854 113.616 172.438C113.232 172.907 111.743 172.519 109.955 171.408C108.894 171.259 107.819 171.232 106.752 171.33C104.296 171.557 103.172 172.332 102.28 171.663C101.627 171.172 101.405 170.136 101.64 169.366C101.89 168.535 102.637 168.125 103.15 167.852Z" fill="url(#paint20_linear_1_1910)"/>
<path d="M260.452 294.286C257.018 294.014 252.623 293.059 248.409 290.304C243.846 287.316 237.901 281.191 239.456 277.324C240.035 275.882 241.701 274.646 243.164 274.765C245.327 274.939 245.581 277.946 249.345 281.217C250.04 281.821 253.632 284.947 255.418 283.895C256.306 283.372 256.568 281.921 256.423 280.818C256 277.593 252.062 277.098 248.277 273.607C244.439 270.068 241.24 263.893 243.068 259.719C244.12 257.32 246.899 255.425 248.727 255.958C249.508 256.186 250.002 256.823 252.374 261.946C254.319 266.15 254.752 267.375 256.007 267.774C257.299 268.186 259.303 267.671 260.069 266.397C262.057 263.083 253.467 258.191 252.687 248.918C252.337 244.763 253.461 238.603 257.224 237.278C259.769 236.385 263.393 237.748 264.703 240.083C265.885 242.186 264.45 243.769 265.351 248.496C265.624 249.93 266.187 252.882 267.374 253.037C268.768 253.218 270.328 249.455 270.688 248.538C273.403 241.636 270.291 238.09 272.851 234.74C274.847 232.129 279.189 231.079 282.629 232.399C285.638 233.554 288.047 236.555 288.208 239.666C288.371 242.832 285.71 245.983 280.385 252.286C277.859 255.273 275.852 257.294 275.965 260.264C276.02 261.712 276.594 263.75 277.631 263.935C279.921 264.347 281.047 255.128 286.473 253.704C289.254 252.976 292.701 254.408 294.218 256.911C296.073 259.979 294.837 264.328 292.497 266.612C289.451 269.594 286.328 267.328 280.597 270.531C278.055 271.952 274.06 274.975 274.645 277.475C274.899 278.564 276.041 279.63 277.292 279.773C280.099 280.091 281.027 275.491 285.539 273.469C288.79 272.013 293.285 272.17 294.352 274.003C295.86 276.591 290.506 282.467 287.657 285.064C284.212 288.21 276.098 294.162 260.452 294.286Z" fill="url(#paint21_linear_1_1910)"/>
<path opacity="0.5" d="M261.994 292.812C261.54 285.119 266.636 269.449 270.338 262.041C273.965 254.792 277.436 243.325 277.471 243.209L277.697 243.277C277.662 243.393 274.186 254.88 270.549 262.146C266.853 269.531 261.773 285.144 262.224 292.798L261.994 292.812Z" fill="white"/>
<path d="M252.358 295.289C249.773 291.699 245.98 285.223 245.3 276.557C245.02 272.987 244.476 266.013 248.738 259.997C250.865 256.998 255.375 252.565 258.422 253.843C260.379 254.667 261.599 257.798 261.045 260.178C260.488 262.579 258.459 262.801 256.25 266.874C255.432 268.382 254.499 270.151 255.22 271.151C255.819 271.986 257.466 272.138 258.7 271.637C261.249 270.607 260.451 267.428 263.21 265.148C265.167 263.528 268.437 262.767 269.847 264.093C271.071 265.245 270.857 267.934 269.776 269.728C268.044 272.599 264.934 271.756 262.912 274.896C262.014 276.288 261.375 278.391 262.162 279.222C263.057 280.169 265.694 279.35 267.384 278.302C269.615 276.919 269.697 275.448 271.166 275.264C272.805 275.058 274.854 276.618 275.176 278.345C275.624 280.763 272.657 283.372 270.307 284.505C267.299 285.956 265.065 285.104 263.596 287.086C263.056 287.814 262.566 289.001 263.005 289.721C263.635 290.752 265.915 290.411 267.429 290.185C271.113 289.637 272.127 288.301 273.447 288.949C274.786 289.606 275.473 291.826 274.895 293.378C274.574 294.244 273.609 295.585 268.828 296.423C265.476 297.022 259.854 297.435 252.358 295.289Z" fill="url(#paint22_linear_1_1910)"/>
<defs>
<linearGradient id="paint0_linear_1_1910" x1="189.939" y1="34.1406" x2="117.676" y2="156.186" gradientUnits="userSpaceOnUse">
<stop stop-color="#FFC444"/>
<stop offset="0.31" stop-color="#FBA94A"/>
<stop offset="1" stop-color="#F36F56"/>
</linearGradient>
<linearGradient id="paint1_linear_1_1910" x1="442579" y1="42396.5" x2="345943" y2="153826" gradientUnits="userSpaceOnUse">
<stop stop-color="#FFC444"/>
<stop offset="0.31" stop-color="#FBA94A"/>
<stop offset="1" stop-color="#F36F56"/>
</linearGradient>
<linearGradient id="paint2_linear_1_1910" x1="609482" y1="201519" x2="428780" y2="409889" gradientUnits="userSpaceOnUse">
<stop stop-color="#FFC444"/>
<stop offset="0.31" stop-color="#FBA94A"/>
<stop offset="1" stop-color="#F36F56"/>
</linearGradient>
<linearGradient id="paint3_linear_1_1910" x1="419547" y1="202102" x2="249826" y2="362547" gradientUnits="userSpaceOnUse">
<stop stop-color="#FFC444"/>
<stop offset="0.31" stop-color="#FBA94A"/>
<stop offset="1" stop-color="#F36F56"/>
</linearGradient>
<linearGradient id="paint4_linear_1_1910" x1="104.143" y1="93.2607" x2="122.505" y2="186.905" gradientUnits="userSpaceOnUse">
<stop stop-color="#E38DDD"/>
<stop offset="1" stop-color="#9571F6"/>
</linearGradient>
<linearGradient id="paint5_linear_1_1910" x1="42744.1" y1="177453" x2="95892.6" y2="61544.8" gradientUnits="userSpaceOnUse">
<stop stop-color="#E38DDD"/>
<stop offset="1" stop-color="#9571F6"/>
</linearGradient>
<linearGradient id="paint6_linear_1_1910" x1="229861" y1="194159" x2="152971" y2="266848" gradientUnits="userSpaceOnUse">
<stop stop-color="#FFC444"/>
<stop offset="0.31" stop-color="#FBA94A"/>
<stop offset="1" stop-color="#F36F56"/>
</linearGradient>
<linearGradient id="paint7_linear_1_1910" x1="325378" y1="193593" x2="242983" y2="288602" gradientUnits="userSpaceOnUse">
<stop stop-color="#FFC444"/>
<stop offset="0.31" stop-color="#FBA94A"/>
<stop offset="1" stop-color="#F36F56"/>
</linearGradient>
<linearGradient id="paint8_linear_1_1910" x1="176.704" y1="194.588" x2="128.284" y2="194.588" gradientUnits="userSpaceOnUse">
<stop stop-color="#444B8C"/>
<stop offset="1" stop-color="#26264F"/>
</linearGradient>
<linearGradient id="paint9_linear_1_1910" x1="17773" y1="21147.7" x2="17099.9" y2="24981.1" gradientUnits="userSpaceOnUse">
<stop stop-color="#444B8C"/>
<stop offset="1" stop-color="#26264F"/>
</linearGradient>
<linearGradient id="paint10_linear_1_1910" x1="153.944" y1="196.41" x2="105.524" y2="196.41" gradientUnits="userSpaceOnUse">
<stop stop-color="#444B8C"/>
<stop offset="1" stop-color="#3E4177"/>
</linearGradient>
<linearGradient id="paint11_linear_1_1910" x1="130.724" y1="266.774" x2="144.407" y2="217.62" gradientUnits="userSpaceOnUse">
<stop stop-color="#FFC444"/>
<stop offset="1" stop-color="#F36F56"/>
</linearGradient>
<linearGradient id="paint12_linear_1_1910" x1="-120979" y1="144183" x2="-85031.1" y2="168505" gradientUnits="userSpaceOnUse">
<stop stop-color="#444B8C"/>
<stop offset="1" stop-color="#26264F"/>
</linearGradient>
<linearGradient id="paint13_linear_1_1910" x1="114004" y1="59510.4" x2="147973" y2="106665" gradientUnits="userSpaceOnUse">
<stop stop-color="#444B8C"/>
<stop offset="1" stop-color="#26264F"/>
</linearGradient>
<linearGradient id="paint14_linear_1_1910" x1="16046" y1="10518.5" x2="15770" y2="7618.59" gradientUnits="userSpaceOnUse">
<stop stop-color="#FFC444"/>
<stop offset="0.31" stop-color="#FBA94A"/>
<stop offset="1" stop-color="#F36F56"/>
</linearGradient>
<linearGradient id="paint15_linear_1_1910" x1="9468.55" y1="10638.8" x2="8794.1" y2="8583.37" gradientUnits="userSpaceOnUse">
<stop stop-color="#FFC444"/>
<stop offset="0.31" stop-color="#FBA94A"/>
<stop offset="1" stop-color="#F36F56"/>
</linearGradient>
<linearGradient id="paint16_linear_1_1910" x1="77.5448" y1="167.793" x2="124.177" y2="125.867" gradientUnits="userSpaceOnUse">
<stop stop-color="#FF9085"/>
<stop offset="1" stop-color="#FB6FBB"/>
</linearGradient>
<linearGradient id="paint17_linear_1_1910" x1="95.4586" y1="175.167" x2="132.177" y2="175.167" gradientUnits="userSpaceOnUse">
<stop stop-color="#311944"/>
<stop offset="1" stop-color="#A03976"/>
</linearGradient>
<linearGradient id="paint18_linear_1_1910" x1="57366" y1="37544.1" x2="82022.5" y2="37544.1" gradientUnits="userSpaceOnUse">
<stop stop-color="#311944"/>
<stop offset="1" stop-color="#A03976"/>
</linearGradient>
<linearGradient id="paint19_linear_1_1910" x1="24444.6" y1="33549.9" x2="19881.8" y2="41513.5" gradientUnits="userSpaceOnUse">
<stop stop-color="#E38DDD"/>
<stop offset="1" stop-color="#9571F6"/>
</linearGradient>
<linearGradient id="paint20_linear_1_1910" x1="13401.9" y1="9014.9" x2="12047.3" y2="11762.4" gradientUnits="userSpaceOnUse">
<stop stop-color="#FFC444"/>
<stop offset="0.31" stop-color="#FBA94A"/>
<stop offset="1" stop-color="#F36F56"/>
</linearGradient>
<linearGradient id="paint21_linear_1_1910" x1="293.052" y1="221.705" x2="263.607" y2="277.893" gradientUnits="userSpaceOnUse">
<stop stop-color="#AA80F9"/>
<stop offset="1" stop-color="#6165D7"/>
</linearGradient>
<linearGradient id="paint22_linear_1_1910" x1="79881.5" y1="111180" x2="65680.7" y2="123021" gradientUnits="userSpaceOnUse">
<stop stop-color="#E38DDD"/>
<stop offset="1" stop-color="#9571F6"/>
</linearGradient>
</defs>
</svg>
