<svg width="279" height="300" viewBox="0 0 279 300" fill="none" xmlns="http://www.w3.org/2000/svg">
<path d="M143.328 23.014C72.1597 20.9129 10.513 72.5519 1.19486 140.309C-8.9841 214.393 47.0635 281.05 116.027 291.726C201.806 305.005 285.007 228.182 277.536 144.842C271.908 82.0514 215.671 25.1501 143.328 23.014Z" fill="#F4F7FA"/>
<path d="M149.274 217.959C135.056 218.744 107.957 161.93 126.891 131.699C134.791 119.085 146.717 117.474 151.757 101.412C156.256 87.0787 148.751 82.0265 151.108 66.0622C154.424 43.6141 174.331 19.279 192.668 21.146C201.868 22.0825 212.159 29.7658 215.133 40.683C217.514 49.4253 210.284 58.3171 212.842 60.0905C214.941 61.5451 219.198 55.6202 222.944 56.7241C228.468 58.353 232.281 75.0934 227.288 89.136C218.739 113.174 189.817 114.016 188.632 131.34C187.879 142.383 199.371 145.823 197.478 157.201C195.812 167.21 186.156 169.113 173.797 181.51C154.439 200.913 156.896 217.537 149.274 217.959Z" fill="url(#paint0_linear_1_2308)"/>
<g style="mix-blend-mode:soft-light" opacity="0.5">
<g style="mix-blend-mode:soft-light" opacity="0.5">
<path d="M152.875 230.447C152.74 230.486 152.597 230.485 152.463 230.443C152.33 230.401 152.211 230.321 152.123 230.212C152.035 230.103 151.981 229.97 151.968 229.831C151.954 229.691 151.983 229.551 152.049 229.428C152.049 228.998 151.767 227.606 151.44 226.009C149.598 217.025 144.706 193.161 149.567 155.188C155.68 107.43 174.739 55.3372 206.213 0.35767C206.259 0.276619 206.321 0.20551 206.395 0.148402C206.469 0.091295 206.553 0.0493078 206.643 0.0248381C206.734 0.000368482 206.828 -0.00610447 206.92 0.00578888C207.013 0.0176822 207.102 0.047709 207.183 0.0941547C207.264 0.1406 207.336 0.202555 207.393 0.276483C207.45 0.35041 207.492 0.434861 207.516 0.525015C207.541 0.615169 207.547 0.709259 207.535 0.801915C207.523 0.89457 207.493 0.983976 207.447 1.06503C173.632 60.1333 136.711 147.058 152.834 225.725C153.563 229.284 153.695 229.926 153.08 230.351C153.017 230.394 152.948 230.426 152.875 230.447Z" fill="white"/>
</g>
<g style="mix-blend-mode:soft-light" opacity="0.5">
<path d="M162.571 104.565C162.393 104.614 162.204 104.593 162.042 104.506C161.881 104.418 161.759 104.272 161.703 104.097C161.647 103.921 161.661 103.731 161.742 103.566C161.823 103.401 161.964 103.274 162.137 103.211C192.659 92.5381 210.756 81.606 220.57 74.3192C231.192 66.4247 234.645 60.9841 234.679 60.9303C234.778 60.7699 234.937 60.6555 235.121 60.6124C235.305 60.5692 235.498 60.6008 235.658 60.7001C235.819 60.7995 235.933 60.9585 235.976 61.1421C236.02 61.3258 235.988 61.5191 235.889 61.6795C235.747 61.9066 232.32 67.3373 221.535 75.3743C211.64 82.7467 193.385 93.7944 162.607 104.557L162.571 104.565Z" fill="white"/>
</g>
<g style="mix-blend-mode:soft-light" opacity="0.5">
<path d="M173.65 70.2455C173.505 70.2878 173.349 70.2825 173.207 70.2306C164.895 67.1889 159.168 56.8874 156.182 39.6229C153.979 26.8945 154.163 14.8784 154.166 14.7589C154.175 14.5745 154.256 14.401 154.391 14.275C154.526 14.149 154.704 14.0804 154.889 14.0836C155.073 14.0868 155.25 14.1617 155.38 14.2923C155.51 14.423 155.585 14.5992 155.588 14.7838C155.58 15.256 154.976 62.0432 173.691 68.8946C173.832 68.9461 173.953 69.0408 174.036 69.165C174.12 69.2893 174.162 69.4369 174.157 69.5866C174.152 69.7364 174.1 69.8807 174.008 69.9991C173.916 70.1174 173.789 70.2036 173.645 70.2455H173.65Z" fill="white"/>
</g>
<g style="mix-blend-mode:soft-light" opacity="0.5">
<path d="M149.522 164.453C149.421 164.483 149.313 164.489 149.209 164.472C149.104 164.455 149.005 164.414 148.918 164.354C137.424 156.39 131.868 142.477 129.23 132.208C126.384 121.128 126.228 111.782 126.228 111.683C126.225 111.494 126.298 111.312 126.429 111.177C126.561 111.042 126.741 110.964 126.929 110.962C127.118 110.959 127.3 111.032 127.435 111.163C127.57 111.295 127.648 111.475 127.65 111.664C127.65 111.755 127.805 120.964 130.613 131.888C133.191 141.912 138.599 155.479 149.725 163.186C149.835 163.262 149.922 163.368 149.975 163.492C150.028 163.616 150.044 163.752 150.023 163.885C150.001 164.017 149.943 164.141 149.854 164.242C149.765 164.343 149.649 164.416 149.52 164.453H149.522Z" fill="white"/>
</g>
</g>
<path d="M144.958 249.411C140.307 226.718 140.956 209.133 142.313 197.661C143.378 188.655 145.748 176.068 152.155 174.486C155.226 173.728 156.976 176.052 160.181 175.113C166.231 173.338 166.076 163.27 169.896 155.946C176.428 143.418 197.459 133.423 212.518 140.831C230.651 149.751 232.581 180.193 222.829 189.574C217.051 195.132 206.712 193.738 206.149 197.781C205.583 201.849 215.945 204.058 216.672 210.577C217.423 217.33 207.264 223.449 206.648 223.812C194.335 231.05 184.65 223.564 171.138 226.9C163.807 228.717 154.256 233.986 144.958 249.411Z" fill="url(#paint1_linear_1_2308)"/>
<path d="M144.958 249.411C140.307 226.718 140.956 209.133 142.313 197.661C143.378 188.655 145.748 176.068 152.155 174.486C155.226 173.728 156.976 176.052 160.181 175.113C166.231 173.338 166.076 163.27 169.896 155.946C176.428 143.418 197.459 133.423 212.518 140.831C230.651 149.751 232.581 180.193 222.829 189.574C217.051 195.132 206.712 193.738 206.149 197.781C205.583 201.849 215.945 204.058 216.672 210.577C217.423 217.33 207.264 223.449 206.648 223.812C194.335 231.05 184.65 223.564 171.138 226.9C163.807 228.717 154.256 233.986 144.958 249.411Z" fill="url(#paint2_linear_1_2308)"/>
<g style="mix-blend-mode:soft-light" opacity="0.8">
<g style="mix-blend-mode:soft-light" opacity="0.8">
<path d="M142.413 267.765L142.766 267.778C144.783 213.474 178.801 166.251 233.764 141.457L233.619 141.135C207.571 152.886 185.406 170.363 169.508 191.684C152.798 214.1 143.429 240.407 142.413 267.765Z" fill="white"/>
</g>
<g style="mix-blend-mode:soft-light" opacity="0.8">
<path d="M125.776 188.994C135.725 200.036 145.393 221.59 147.328 237.039L147.678 236.995C145.736 221.485 136.028 199.846 126.038 188.758L125.776 188.994Z" fill="white"/>
</g>
<g style="mix-blend-mode:soft-light" opacity="0.8">
<path d="M142.932 257.11L143.267 257.22C145.797 249.532 152.116 243.419 162.05 239.05C169.333 235.846 178.354 233.638 188.862 232.486L188.823 232.135C178.28 233.291 169.224 235.509 161.908 238.727C151.879 243.138 145.495 249.323 142.932 257.11Z" fill="white"/>
</g>
<g style="mix-blend-mode:soft-light" opacity="0.8">
<path d="M171.88 188.748L172.21 188.875C177.725 174.628 173.978 159.009 169.863 148.413L169.534 148.541C173.626 159.078 177.355 174.607 171.88 188.748Z" fill="white"/>
</g>
<g style="mix-blend-mode:soft-light" opacity="0.8">
<path d="M196.406 163.821L196.572 164.133C211.766 156.054 229.593 158.969 238.866 161.427L238.957 161.085C229.633 158.615 211.708 155.685 196.406 163.821Z" fill="white"/>
</g>
</g>
<path d="M158.18 55.1499L184.198 271.401C184.587 274.644 182.352 277.55 179.222 277.861L70.8561 289.757C64.2179 290.171 60.5835 286.779 60.174 283.331L32.8581 53.4193C32.4516 49.9911 35.7084 46.8857 42.3745 46.8857L151.726 49.1891C154.892 49.2419 157.792 51.9239 158.18 55.1499Z" fill="url(#paint3_linear_1_2308)"/>
<path d="M163.057 54.7773L189.217 272.11C189.608 275.369 187.367 278.287 184.224 278.604L71.8793 289.789C68.3574 290.14 65.1295 287.591 64.717 284.126L37.2487 53.0268C36.8392 49.5797 39.4265 46.8101 42.9872 46.8698L156.577 48.7867C159.755 48.8405 162.666 51.5364 163.057 54.7773Z" fill="url(#paint4_linear_1_2308)"/>
<path d="M160.925 66.7656L185.173 268.277C185.538 271.321 183.439 274.045 180.498 274.331L74.8409 284.602C71.5672 284.92 68.5644 282.541 68.1828 279.315L42.7977 65.833C42.4161 62.624 44.8181 60.0277 48.1248 60.0626L154.866 61.1994C157.838 61.2312 160.561 63.7359 160.925 66.7656Z" fill="url(#paint5_linear_1_2308)"/>
<path d="M104.266 54.628C104.405 55.7856 103.569 56.7112 102.41 56.6962C101.252 56.6813 100.187 55.7299 100.048 54.5712C99.9097 53.4125 100.746 52.486 101.908 52.5029C103.071 52.5199 104.128 53.4713 104.266 54.628Z" fill="url(#paint6_linear_1_2308)"/>
<g style="mix-blend-mode:soft-light" opacity="0.5">
<g style="mix-blend-mode:soft-light" opacity="0.5">
<path d="M142.658 202.032C121.028 162.041 88.7154 150.07 78.9867 108.855C73.7234 86.5765 77.31 65.2561 83.3454 47.5513L42.9872 46.8698C39.4265 46.8101 36.8392 49.5797 37.2487 53.0268L64.717 284.126C65.1295 287.591 68.3574 290.14 71.8793 289.789L160.193 280.996C160.847 245.163 152.3 219.858 142.658 202.032Z" fill="white"/>
</g>
</g>
<g opacity="0.8">
<path opacity="0.8" d="M148.545 174.47C148.427 173.32 147.498 172.349 146.469 172.378L86.0084 173.988C84.9254 174.017 84.1493 175.06 84.2739 176.243L84.9713 182.836C85.0968 184.017 86.0751 184.952 87.1561 184.918L147.548 183.035C148.576 183.003 149.314 182.039 149.196 180.89L148.545 174.47Z" fill="white"/>
<path opacity="0.8" d="M144.053 188.602C143.935 187.45 143.007 186.534 141.975 186.568L94.0207 188.131C92.9457 188.166 92.1726 189.158 92.2962 190.335L95.6178 221.871C95.7413 223.043 96.7137 223.955 97.7807 223.904L145.549 221.637C146.577 221.588 147.317 220.616 147.2 219.468L144.053 188.602ZM130.065 212.574C130.218 214.056 129.255 215.212 127.917 215.272L114.387 215.869C113.032 215.93 111.809 214.863 111.653 213.369L110.089 198.259C109.932 196.765 110.906 195.428 112.263 195.379L125.823 194.893C127.164 194.845 128.376 196.088 128.53 197.577L130.065 212.574Z" fill="white"/>
<path opacity="0.8" d="M118.492 212.909C118.233 212.917 117.975 212.871 117.734 212.776C117.493 212.681 117.274 212.538 117.09 212.355L113.124 208.583C112.298 207.795 112.159 206.468 112.817 205.621C113.474 204.773 114.676 204.724 115.502 205.513L117.968 207.865L124.099 199.932C124.751 199.09 125.942 199.045 126.761 199.832C127.579 200.619 127.714 201.936 127.064 202.779L119.766 212.244C119.616 212.442 119.424 212.604 119.204 212.719C118.983 212.834 118.741 212.899 118.492 212.909Z" fill="white"/>
<path opacity="0.8" d="M146.839 109.311H72.1042C67.0112 109.311 63.1138 113.432 63.6737 118.676L65.8326 138.893C66.3906 144.119 71.1757 148.396 76.2467 148.315L150.669 147.119C155.415 147.043 158.893 142.864 158.387 137.834L156.415 118.342C155.911 113.296 151.604 109.311 146.839 109.311Z" fill="white"/>
</g>
<path d="M232.988 145.208C232.988 145.208 230.921 160.601 247.135 171.453L229.877 175.57C229.877 175.57 224.353 165.241 228.353 148.133L232.988 145.208Z" fill="url(#paint7_linear_1_2308)"/>
<path d="M229.95 148.133C229.95 148.133 229.02 145.841 229.171 144.803C229.321 143.765 231.781 142.39 233.455 140.965C235.129 139.541 233.392 142.398 233.003 143.049C232.613 143.699 231.244 144.672 231.44 146.883L229.95 148.133Z" fill="url(#paint8_linear_1_2308)"/>
<path d="M201.455 56.7452L141.684 136.672L204.752 183.836L264.523 103.91L201.455 56.7452Z" fill="white"/>
<path d="M203.14 88.0091L192.033 79.7022L200.34 68.5967L211.446 76.9026L203.14 88.0091ZM195.5 79.204L202.642 84.5421L207.982 77.4028L200.841 72.0627L195.5 79.204Z" fill="#D8DEE8"/>
<path d="M213.427 83.3285L209.72 88.2864L247.402 116.466L251.11 111.508L213.427 83.3285Z" fill="#D8DEE8"/>
<path d="M190.089 105.461L178.983 97.1551L187.289 86.0486L198.396 94.3555L190.089 105.461ZM182.449 96.6549L189.589 101.995L194.929 94.8547L187.787 89.5156L182.449 96.6549Z" fill="#D8DEE8"/>
<path d="M200.378 100.78L196.67 105.738L234.353 133.918L238.06 128.96L200.378 100.78Z" fill="#D8DEE8"/>
<path d="M177.037 122.914L165.931 114.607L174.238 103.501L185.343 111.807L177.037 122.914ZM169.398 114.108L176.537 119.447L181.877 112.307L174.737 106.967L169.398 114.108Z" fill="#D8DEE8"/>
<path d="M187.326 118.233L183.618 123.191L221.301 151.371L225.009 146.413L187.326 118.233Z" fill="#D8DEE8"/>
<path d="M163.986 140.365L152.881 132.059L161.187 120.953L172.293 129.26L163.986 140.365ZM156.347 131.559L163.486 136.899L168.826 129.76L161.687 124.42L156.347 131.559Z" fill="#D8DEE8"/>
<path d="M174.274 135.684L170.566 140.642L208.249 168.822L211.957 163.864L174.274 135.684Z" fill="#D8DEE8"/>
<path d="M195.106 81.0729L195.091 81.061C194.948 80.9596 194.829 80.8279 194.743 80.6753C194.657 80.5227 194.606 80.353 194.593 80.1783L194.343 76.0676C194.334 75.9057 194.357 75.7437 194.411 75.5907C194.464 75.4377 194.548 75.2968 194.656 75.176C194.764 75.0552 194.895 74.9569 195.041 74.8868C195.187 74.8166 195.346 74.7759 195.508 74.767C195.67 74.7581 195.832 74.7812 195.985 74.8349C196.138 74.8887 196.279 74.972 196.399 75.0802C196.52 75.1884 196.619 75.3193 196.689 75.4655C196.759 75.6117 196.8 75.7702 196.808 75.9321L196.965 78.638L210.19 76.0158C210.513 75.9519 210.847 76.0186 211.12 76.2012C211.393 76.3838 211.583 76.6675 211.646 76.9897C211.71 77.3119 211.644 77.6463 211.461 77.9194C211.278 78.1925 210.995 78.3818 210.673 78.4457L196.066 81.32C195.898 81.349 195.725 81.342 195.56 81.2994C195.394 81.2568 195.239 81.1796 195.106 81.0729Z" fill="url(#paint9_linear_1_2308)"/>
<path d="M168.556 116.572L168.54 116.56C168.397 116.459 168.279 116.327 168.192 116.175C168.106 116.022 168.055 115.853 168.042 115.678L167.792 111.567C167.781 111.404 167.802 111.24 167.854 111.085C167.907 110.93 167.99 110.787 168.098 110.665C168.206 110.542 168.338 110.442 168.485 110.371C168.632 110.299 168.792 110.258 168.956 110.249C169.119 110.24 169.283 110.264 169.437 110.318C169.591 110.373 169.733 110.458 169.854 110.568C169.975 110.678 170.073 110.811 170.142 110.959C170.211 111.108 170.25 111.268 170.257 111.432L170.414 114.138L183.639 111.51C183.961 111.446 184.296 111.513 184.569 111.696C184.842 111.878 185.031 112.162 185.095 112.484C185.159 112.806 185.092 113.141 184.91 113.414C184.727 113.687 184.443 113.876 184.121 113.94L169.52 116.82C169.351 116.85 169.177 116.843 169.011 116.8C168.845 116.757 168.69 116.68 168.556 116.572Z" fill="url(#paint10_linear_1_2308)"/>
<path d="M155.652 133.827L155.636 133.815C155.493 133.713 155.375 133.582 155.289 133.429C155.202 133.277 155.151 133.107 155.138 132.932L154.888 128.822C154.879 128.66 154.902 128.498 154.956 128.345C155.009 128.192 155.093 128.051 155.201 127.93C155.309 127.809 155.44 127.711 155.586 127.641C155.732 127.571 155.891 127.53 156.053 127.521C156.215 127.512 156.377 127.535 156.53 127.589C156.683 127.643 156.824 127.726 156.944 127.834C157.065 127.943 157.163 128.073 157.234 128.22C157.304 128.366 157.344 128.524 157.353 128.686L157.51 131.391L170.734 128.765C171.054 128.708 171.383 128.778 171.651 128.961C171.919 129.144 172.105 129.424 172.168 129.743C172.231 130.061 172.167 130.391 171.989 130.663C171.811 130.934 171.534 131.125 171.217 131.194L156.614 134.074C156.445 134.103 156.272 134.096 156.106 134.054C155.941 134.011 155.786 133.934 155.652 133.827Z" fill="url(#paint11_linear_1_2308)"/>
<path d="M189.092 104.1C188.962 104.003 188.852 103.881 188.769 103.741C188.685 103.601 188.631 103.446 188.608 103.285L186.559 89.0733C186.532 88.9107 186.538 88.7444 186.576 88.5842C186.614 88.4239 186.684 88.2729 186.781 88.14C186.878 88.007 187.001 87.8948 187.143 87.81C187.284 87.7251 187.44 87.6693 187.604 87.6458C187.767 87.6222 187.933 87.6315 188.092 87.6729C188.252 87.7144 188.401 87.7873 188.532 87.8873C188.663 87.9873 188.773 88.1124 188.855 88.2553C188.937 88.3982 188.989 88.5561 189.009 88.7196L191.06 102.932C191.095 103.175 191.057 103.422 190.951 103.643C190.845 103.864 190.677 104.049 190.466 104.174C190.255 104.298 190.012 104.358 189.768 104.345C189.523 104.332 189.288 104.247 189.092 104.1Z" fill="url(#paint12_linear_1_2308)"/>
<path d="M180.964 98.0188C180.768 97.8721 180.62 97.6707 180.538 97.4399C180.457 97.2092 180.446 96.9594 180.506 96.7223C180.566 96.4851 180.696 96.2711 180.877 96.1073C181.059 95.9436 181.286 95.8373 181.528 95.8021L195.741 93.7498C196.066 93.7029 196.396 93.787 196.659 93.9838C196.922 94.1805 197.096 94.4737 197.143 94.7988C197.19 95.124 197.106 95.4544 196.909 95.7175C196.713 95.9806 196.419 96.1547 196.094 96.2016L181.881 98.2529C181.721 98.2765 181.557 98.2679 181.399 98.2277C181.242 98.1875 181.094 98.1165 180.964 98.0188Z" fill="url(#paint13_linear_1_2308)"/>
<path d="M249.025 160.316C248.295 158.88 247.995 158.888 247.815 158.13C247.407 156.402 248.461 154.209 249.354 154.178C249.93 154.158 249.978 155.054 251.198 156.45C252.692 158.16 253.599 157.936 254.477 159.42C254.684 159.767 255.609 161.33 255.039 162.497C254.313 163.985 251.453 164.221 250.257 163.072C249.684 162.528 249.922 162.085 249.025 160.316Z" fill="url(#paint14_linear_1_2308)"/>
<path d="M251.758 161.652C251.758 161.652 251.161 164.824 251.587 167.404C251.969 169.736 256.288 172.158 257.116 172.852C257.944 173.546 254.924 174.3 252.148 173.937C249.371 173.574 241.781 171.147 240.627 169.79C239.473 168.432 241.97 169.103 244.071 168.846C246.172 168.589 248.177 165.07 248.237 163.273C248.298 161.476 251.758 161.652 251.758 161.652Z" fill="url(#paint15_linear_1_2308)"/>
<path d="M250.394 163.904C250.394 163.904 248.567 164.701 246.949 163.413C245.5 162.254 247.654 158.695 249.128 158.649C249.62 158.634 250.337 158.986 250.761 159.502C251.011 159.801 251.026 160.009 251.444 160.498C251.831 160.95 252 160.991 252.059 161.21C252.132 161.484 252.006 161.942 251.015 162.729C251.513 162.638 251.934 162.769 252.099 163.057C252.152 163.161 252.174 163.278 252.164 163.395C252.104 163.932 251.403 164.181 250.394 163.904Z" fill="url(#paint16_linear_1_2308)"/>
<path d="M204.194 152.984C204.194 152.984 202.909 152.805 203.309 150.349C203.623 148.424 203.386 147.777 202.931 148.118C202.475 148.46 202.413 149.572 202.413 149.572C202.413 149.572 200.755 148.158 200.072 146.306C199.39 144.454 198.951 146.013 198.805 146.94C198.659 147.866 199.78 150.742 200.414 151.278C201.048 151.814 201.974 154.178 201.974 154.178L204.194 152.984Z" fill="url(#paint17_linear_1_2308)"/>
<path d="M251.748 288.795C252.41 290.144 252.224 290.724 252.059 290.979C251.577 291.728 250.414 291.02 247.377 291.377C246.751 291.472 246.112 291.45 245.495 291.311C244.768 291.14 243.912 290.753 243.948 290.559C243.962 290.488 244.091 290.46 244.14 290.45C244.981 290.27 250.254 288.656 250.254 288.656L251.748 288.795Z" fill="url(#paint18_linear_1_2308)"/>
<path d="M252.157 285.832L251.687 288.849C251.687 288.849 250.391 289.765 250.05 288.649C249.806 287.852 249.812 285.693 249.812 285.693L252.157 285.832Z" fill="url(#paint19_linear_1_2308)"/>
<path d="M237.38 286.035L238.652 289.508L240.501 289.214L240.072 285.998L237.38 286.035Z" fill="url(#paint20_linear_1_2308)"/>
<path d="M239.229 291.421C240.125 290.36 240.922 290.456 241.084 289.727C241.21 289.154 240.859 288.451 240.33 288.184C239.585 287.808 238.683 288.395 238.479 288.527C237.096 289.423 237.472 290.833 236.168 291.444C235.905 291.566 235.489 291.697 235.05 292.107C234.864 292.283 234.403 292.714 234.51 293.012C234.636 293.357 235.459 293.345 236.241 293.334C237.179 293.32 237.648 293.314 238.1 293.035C238.725 292.64 238.538 292.241 239.229 291.421Z" fill="url(#paint21_linear_1_2308)"/>
<path d="M262.044 213.675C261.758 219.7 260.925 225.688 259.554 231.563C258.324 236.816 257.655 237.714 257.228 241.355C256.301 249.279 258.835 250.47 259.112 259.454C259.419 269.374 256.615 277.194 255.515 280.176C254.737 282.282 253.836 284.341 252.815 286.341C251.889 287.114 250.507 286.78 249.048 286.451C248.701 277.451 248.21 268.978 247.863 259.979C246.414 246.42 244.964 232.862 243.514 219.304L262.044 213.675Z" fill="url(#paint22_linear_1_2308)"/>
<path style="mix-blend-mode:multiply" opacity="0.3" d="M249.049 286.451C248.702 277.451 248.211 268.978 247.864 259.979C246.415 246.42 244.965 232.862 243.515 219.304L262.045 213.675C262.022 214.139 261.99 214.587 261.962 215.042C253.194 222.331 251.384 228.215 251.382 232.255C251.382 237.155 254.004 239.64 253.329 246.73C252.847 251.799 251.301 252.661 251.203 257.243C251.077 263.142 253.538 266.513 254.699 269.949C255.82 273.27 256.143 277.945 253.703 284.534C253.386 285.213 253.087 285.82 252.821 286.341C251.89 287.114 250.508 286.78 249.049 286.451Z" fill="url(#paint23_linear_1_2308)"/>
<path d="M251.566 218.918C246.008 225.724 242.838 232.088 241.006 236.546C238.805 241.909 237.209 245.929 237.709 251.135C238.259 256.865 240.859 258.924 242.584 263.809C244.258 268.547 245.075 275.837 240.707 286.685L237.412 287.824C236.682 284.893 235.502 280.509 233.735 275.286C230.236 264.938 226.748 258.128 225.806 256.013C222.484 248.565 222.149 235.267 235.974 209.61L251.566 218.918Z" fill="url(#paint24_linear_1_2308)"/>
<path d="M200.768 153.642L205.151 150.569C206.931 161.509 210.976 165.803 214.412 167.681C222.701 172.212 230.099 164.138 245.965 167.433C250.337 168.341 257.958 170.033 262.184 176.26C263.295 177.898 263.69 179.138 265.535 190.883C267.892 205.896 267.975 208.517 267.644 211.748C267.035 217.664 266.666 221.249 263.939 224.423C256.696 232.848 241.3 228.507 239.37 227.932C235.805 226.876 230.263 225.234 228.062 220.523C227.025 218.305 227.135 216.279 228.727 208.169C231.881 192.109 232.284 191.07 231.404 189.311C228.433 183.376 219.019 186.772 211.066 181.253C206.421 178.029 201.18 170.997 200.768 153.642Z" fill="url(#paint25_linear_1_2308)"/>
<path style="mix-blend-mode:multiply" opacity="0.3" d="M246.589 225.787C245.037 222.599 247.123 219.669 244.835 215.842C241.918 210.966 236.67 212.622 234.696 209.018C231.318 202.856 244.611 194.261 241.91 184.45C240.621 179.767 236.117 176.375 232.355 175.091C224.005 172.239 218.542 179.508 210.712 177.236C208.856 176.697 206.727 175.581 204.572 173.265C206.476 177.282 208.841 179.709 211.071 181.256C219.024 186.775 228.438 183.379 231.409 189.314C232.289 191.073 231.886 192.112 228.732 208.172C227.138 216.279 227.03 218.305 228.066 220.526C230.268 225.237 235.81 226.879 239.375 227.935C240.431 228.248 245.523 229.687 251.103 229.548C248.614 228.533 247.276 227.192 246.589 225.787Z" fill="url(#paint26_linear_1_2308)"/>
<path d="M74.8361 59.4051C74.8361 76.1893 61.3106 90.7011 44.5752 91.8199C27.7819 92.9417 14.127 80.1635 14.127 63.2746C14.127 46.3857 27.7819 31.8669 44.5752 30.8487C61.3106 29.8335 74.8361 42.6198 74.8361 59.4051Z" fill="#9D3060"/>
<path d="M78.4279 60.48C78.4279 77.2652 64.9024 91.776 48.167 92.8948C31.3737 94.0176 17.7188 81.2384 17.7188 64.3505C17.7188 47.4626 31.3737 32.9419 48.167 31.9237C64.9024 30.9085 78.4279 43.6947 78.4279 60.48Z" fill="url(#paint27_linear_1_2308)"/>
<path d="M47.0988 78.9052C46.4649 78.9545 45.8295 78.8296 45.2614 78.5439C44.6934 78.2582 44.2142 77.8226 43.8759 77.2842L32.4336 58.9109C31.3606 57.1893 31.9355 54.8262 33.7238 53.6436C35.5121 52.461 37.8205 52.8904 38.8915 54.612L46.8268 67.3643L57.2987 46.044C58.2382 44.1301 60.4958 43.2544 62.3399 44.0823C64.184 44.9102 64.9172 47.1349 63.9787 49.0478L50.4473 76.6257C50.1457 77.2444 49.6927 77.7768 49.1303 78.1736C48.5679 78.5704 47.9143 78.8186 47.2303 78.8952L47.0988 78.9052Z" fill="white"/>
<path d="M59.9691 295.086C59.9691 295.086 59.747 296.854 59.8964 297.446C60.0459 298.037 65.1826 298.466 66.9271 298.26C68.6716 298.053 65.888 296.272 64.7772 295.938C63.6663 295.604 59.9691 295.086 59.9691 295.086Z" fill="url(#paint28_linear_1_2308)"/>
<path d="M62.5555 292.138L62.0136 295.684C62.0136 295.684 60.6327 296.305 59.9692 295.691L59.8965 291.98L62.5555 292.138Z" fill="url(#paint29_linear_1_2308)"/>
<path d="M33.5915 291.98C33.5915 291.98 34.6815 292.789 34.3885 293.758C34.0956 294.728 31.5541 298.609 29.7409 299.71C27.9277 300.811 28.4966 298.515 29.0246 297.087C29.5526 295.659 30.8996 292.504 31.4266 291.98C31.9536 291.456 33.5915 291.98 33.5915 291.98Z" fill="url(#paint30_linear_1_2308)"/>
<path d="M35.5522 288.084C35.0251 289.554 34.518 290.761 34.1215 291.652C33.2448 293.623 32.7656 294.363 32.2226 295.004C31.7484 295.562 30.6286 296.754 30.3297 296.555C30.0308 296.355 30.8438 294.905 32.4219 290.663C32.652 290.047 33.3763 288.084 33.3763 288.084H35.5532H35.5522Z" fill="url(#paint31_linear_1_2308)"/>
<path d="M73.3149 226.705C73.8689 232.147 73.9356 237.628 73.5142 243.083C72.8108 252.149 70.9996 257.878 68.7321 267.54C67.3432 273.445 65.4722 282.136 63.7786 293.005C62.8606 293.536 61.7924 293.746 60.7419 293.603C60.0907 293.504 59.4683 293.266 58.9167 292.906C54.4743 279.33 55.7864 270.917 57.9304 265.675C58.844 263.441 59.9528 261.678 60.5446 258.244C61.3287 253.7 60.3593 251.16 58.9775 240.634C57.9922 233.132 58.1635 231.972 58.8181 230.847C61.4313 226.354 69.4394 226.438 73.3149 226.705Z" fill="url(#paint32_linear_1_2308)"/>
<path d="M58.0223 228.284C55.3004 242.339 52.6294 249.722 50.608 253.897C49.1512 256.846 47.9035 259.893 46.8739 263.017C45.4791 267.233 44.9013 270.335 44.6044 271.7C43.6659 276.009 41.3466 282.299 35.1069 290.55C35.0292 290.596 33.9652 291.198 32.948 290.662C32.5705 290.457 32.2655 290.14 32.0742 289.755C32.8902 281.866 33.8267 275.237 34.6396 270.121C34.81 269.048 35.5612 264.353 36.7388 258.15C37.2001 255.723 37.8755 252.167 38.6845 248.514C39.6918 243.964 41.237 237.776 43.6181 230.36L58.0223 228.284Z" fill="url(#paint33_linear_1_2308)"/>
<path d="M60.3407 172.688C61.885 171.26 64.8379 169.616 66.3184 165.792C66.7647 164.641 68.3438 160.563 66.0195 157.444C64.6367 155.593 62.0673 154.335 59.8037 154.78C57.869 155.16 57.5661 156.508 54.2784 159.22C52.9992 160.275 50.9419 161.972 48.6524 162.915C44.7301 164.532 42.3759 163.015 38.4366 163.184C33.5987 163.397 27.9757 166.097 25.2718 170.024C20.4657 176.991 27.4277 184.059 22.1634 192.223C20.4388 194.897 19.589 194.297 15.5043 199.474C11.4195 204.65 9.36821 207.245 9.73285 210.426C10.238 214.833 14.9852 219.044 19.4565 219.33C23.8242 219.61 26.5998 216.174 28.8215 217.678C30.4046 218.747 29.499 220.827 31.1797 223.327C33.3466 226.551 37.6057 227.193 38.2931 227.297C44.6773 228.26 53.2841 220.774 56.9404 211.905C63.5298 195.913 51.9491 180.444 60.3407 172.688Z" fill="url(#paint34_linear_1_2308)"/>
<path d="M86.5364 177.127C86.5802 172.663 76.4391 169.095 71.7994 167.946C64.5814 166.153 58.802 167.281 57.3982 167.578C48.3969 169.485 42.7908 174.886 40.6817 177.157C42.4092 178.282 47.1764 181.714 49.5386 188.227C50.2729 190.253 52.4438 197.179 49.3394 203.669C47.551 207.407 44.3869 210.213 41.9838 212.345C38.3793 215.543 36.5133 216.032 35.3088 218.899C33.9927 222.018 35.3187 223.54 33.6848 225.674C31.9304 227.965 29.8741 226.901 26.8992 229.22C23.8516 231.595 24.9365 233.551 22.1629 236.176C18.1339 239.99 12.7979 238.752 12.5438 240.468C12.3296 241.945 16.1304 243.947 19.3514 244.76C25.7385 246.368 31.3067 243.664 32.9665 242.835C37.5494 240.532 36.7613 239.04 40.2583 237.283C46.1144 234.342 50.1164 237.615 63.4536 237.952C70.6756 238.135 74.328 238.176 76.3285 235.732C78.1557 233.5 77.1953 231.049 76.0994 220.501C75.5773 215.479 75.389 210.427 75.0035 205.393C73.9155 191.153 73.8817 189.899 74.8481 187.931C78.3071 180.878 86.4975 181.133 86.5364 177.127Z" fill="url(#paint35_linear_1_2308)"/>
<g style="mix-blend-mode:multiply" opacity="0.3">
<path style="mix-blend-mode:multiply" opacity="0.3" d="M22.1586 236.176C24.9322 233.551 23.8522 231.594 26.8949 229.22C29.8697 226.901 31.9261 227.967 33.6805 225.674C35.3144 223.539 33.9883 222.017 35.3044 218.899C36.5129 216.035 38.3789 215.544 41.9795 212.346C44.3825 210.213 47.5467 207.407 49.335 203.669C52.4394 197.18 50.2685 190.254 49.5343 188.227C47.1721 181.714 42.4049 178.282 40.6774 177.157C40.8437 176.978 41.039 176.774 41.2492 176.559C52.6327 178.123 59.2699 184.701 60.0908 186.649C61.9837 191.151 58.9839 192.805 58.9062 205.79C58.8694 211.996 59.5389 214.447 57.5254 217.037C55.222 220 52.5679 219.083 49.2374 222.957C46.6789 225.933 47.0884 227.82 44.6993 229.074C42.1299 230.422 40.493 228.851 37.5959 229.472C32.754 230.505 31.7178 236.087 28.5188 239.141C26.0988 241.451 21.6236 243.066 12.7985 241.333C12.5993 241.034 12.4997 240.745 12.5355 240.474C12.7886 238.752 18.1316 239.99 22.1586 236.176Z" fill="url(#paint36_linear_1_2308)"/>
</g>
<path d="M56.6416 190.151C57.851 192.72 52.2908 198.706 46.1109 201.547C44.8516 202.127 35.8084 206.284 31.7785 202.286C28.4479 198.983 30.5979 192.151 31.365 189.712C35.1329 177.736 46.7077 171.644 51.5526 169.447C55.1721 178.495 53.04 182.528 52.2011 183.787C51.3254 185.103 48.8796 187.865 46.2813 190.299C44.4541 192.011 43.3164 192.844 43.4698 193.111C43.6601 193.442 45.8021 192.812 54.121 188.766C55.0854 188.922 56.2281 189.273 56.6416 190.151Z" fill="url(#paint37_linear_1_2308)"/>
<path d="M91.4487 175.387L87.364 195.711C87.2998 196.029 87.1441 196.322 86.9157 196.554C86.6874 196.785 86.3965 196.945 86.0788 197.013L55.6445 203.545C55.3906 203.599 55.1275 203.593 54.8761 203.528C54.6248 203.463 54.3921 203.34 54.1967 203.169C54.0012 202.998 53.8484 202.784 53.7504 202.543C53.6523 202.303 53.6118 202.043 53.632 201.784L55.238 181.111C55.2641 180.761 55.4002 180.428 55.6269 180.16C55.8536 179.891 56.1592 179.701 56.5003 179.617C61.3283 178.421 79.9128 173.963 89.7112 173.383C89.9674 173.367 90.2239 173.41 90.4606 173.509C90.6974 173.608 90.9081 173.761 91.0762 173.955C91.2444 174.149 91.3655 174.379 91.4301 174.627C91.4947 174.875 91.5011 175.135 91.4487 175.387Z" fill="url(#paint38_linear_1_2308)"/>
<path d="M61.0929 160.541C61.0929 160.541 60.5181 165.131 58.8244 166.182C57.1308 167.233 54.392 168.607 54.0911 168.979C53.7902 169.352 64.5839 170.513 69.9319 167.813C68.1685 167.445 67.6893 167.315 67.6893 167.315C66.9002 167.11 66.1393 166.809 65.4237 166.418C64.4326 165.845 63.5817 165.058 62.9331 164.115L62.952 161.573L61.0929 160.541Z" fill="url(#paint39_linear_1_2308)"/>
<path d="M60.8351 162.167C60.8351 162.167 61.94 163.682 63.6715 163.051C65.2227 162.486 64.2972 158.48 63.0668 158.023C62.6563 157.871 61.9031 157.938 61.399 158.253C61.0453 158.473 60.1038 159.648 60.6418 160.966C60.2493 160.852 59.9046 160.955 59.8179 161.149C59.7083 161.395 60.0401 161.73 60.1168 161.807C60.3127 161.999 60.5639 162.125 60.8351 162.167Z" fill="url(#paint40_linear_1_2308)"/>
<path style="mix-blend-mode:multiply" opacity="0.3" d="M64.0411 192.962C67.3099 192.04 70.0188 194.33 72.625 192.519C75.2921 190.664 73.5516 187.494 76.3242 184.379C79.2901 181.048 83.0511 182.679 85.7958 179.643C86.815 178.516 87.7316 176.679 87.7455 173.548C88.4329 173.481 89.0915 173.428 89.7142 173.391C89.9689 173.376 90.2237 173.419 90.459 173.518C90.6943 173.617 90.9038 173.768 91.0713 173.961C91.2389 174.153 91.36 174.382 91.4255 174.628C91.4909 174.875 91.4988 175.133 91.4487 175.384L87.3639 195.708C87.3001 196.027 87.1444 196.32 86.9161 196.551C86.6877 196.783 86.3967 196.943 86.0787 197.011L56.8301 203.287C58.8983 196.048 61.654 193.635 64.0411 192.962Z" fill="url(#paint41_linear_1_2308)"/>
<path d="M89.5121 186.204C89.5121 186.204 91.4578 184.411 91.665 182.319C91.8723 180.226 90.4107 178.567 88.9921 178.141C87.5734 177.716 86.8152 178.34 87.7677 180.396C88.7201 182.451 90.2314 183.783 89.5121 186.204Z" fill="url(#paint42_linear_1_2308)"/>
<defs>
<linearGradient id="paint0_linear_1_2308" x1="199.785" y1="48.4301" x2="134.924" y2="216.13" gradientUnits="userSpaceOnUse">
<stop stop-color="#FF9085"/>
<stop offset="1" stop-color="#FB6FBB"/>
</linearGradient>
<linearGradient id="paint1_linear_1_2308" x1="156362" y1="149351" x2="107087" y2="282288" gradientUnits="userSpaceOnUse">
<stop stop-color="#FFC444"/>
<stop offset="1" stop-color="#F36F56"/>
</linearGradient>
<linearGradient id="paint2_linear_1_2308" x1="211.866" y1="137.118" x2="150.685" y2="257.418" gradientUnits="userSpaceOnUse">
<stop stop-color="#FFC444"/>
<stop offset="1" stop-color="#F36F56"/>
</linearGradient>
<linearGradient id="paint3_linear_1_2308" x1="107.186" y1="162.746" x2="64.4799" y2="167.405" gradientUnits="userSpaceOnUse">
<stop stop-color="#444B8C"/>
<stop offset="1" stop-color="#26264F"/>
</linearGradient>
<linearGradient id="paint4_linear_1_2308" x1="221059" y1="134407" x2="-145221" y2="914837" gradientUnits="userSpaceOnUse">
<stop stop-color="#444B8C"/>
<stop offset="1" stop-color="#26264F"/>
</linearGradient>
<linearGradient id="paint5_linear_1_2308" x1="35.76" y1="156.365" x2="141.93" y2="178.68" gradientUnits="userSpaceOnUse">
<stop stop-color="#E38DDD"/>
<stop offset="1" stop-color="#9571F6"/>
</linearGradient>
<linearGradient id="paint6_linear_1_2308" x1="105.243" y1="46.2423" x2="-18.8645" y2="382.371" gradientUnits="userSpaceOnUse">
<stop stop-color="#311944"/>
<stop offset="1" stop-color="#893976"/>
</linearGradient>
<linearGradient id="paint7_linear_1_2308" x1="49513.1" y1="61554.2" x2="47443.4" y2="53277.3" gradientUnits="userSpaceOnUse">
<stop stop-color="#FF9085"/>
<stop offset="1" stop-color="#FB6FBB"/>
</linearGradient>
<linearGradient id="paint8_linear_1_2308" x1="231.701" y1="143.447" x2="232.416" y2="153.846" gradientUnits="userSpaceOnUse">
<stop stop-color="#F36F56"/>
<stop offset="1" stop-color="#FFC444"/>
</linearGradient>
<linearGradient id="paint9_linear_1_2308" x1="195.841" y1="73.7611" x2="207.927" y2="82.8255" gradientUnits="userSpaceOnUse">
<stop stop-color="#AA80F9"/>
<stop offset="1" stop-color="#6165D7"/>
</linearGradient>
<linearGradient id="paint10_linear_1_2308" x1="58206.6" y1="-2021.43" x2="60834.5" y2="-2021.43" gradientUnits="userSpaceOnUse">
<stop stop-color="#AA80F9"/>
<stop offset="1" stop-color="#6165D7"/>
</linearGradient>
<linearGradient id="paint11_linear_1_2308" x1="58113.9" y1="-576.726" x2="60738" y2="-576.726" gradientUnits="userSpaceOnUse">
<stop stop-color="#AA80F9"/>
<stop offset="1" stop-color="#6165D7"/>
</linearGradient>
<linearGradient id="paint12_linear_1_2308" x1="17615.4" y1="2003.22" x2="18074.9" y2="2347.84" gradientUnits="userSpaceOnUse">
<stop stop-color="#FF9085"/>
<stop offset="1" stop-color="#FB6FBB"/>
</linearGradient>
<linearGradient id="paint13_linear_1_2308" x1="64741.6" y1="45622.5" x2="63049" y2="44353" gradientUnits="userSpaceOnUse">
<stop stop-color="#FF9085"/>
<stop offset="1" stop-color="#FB6FBB"/>
</linearGradient>
<linearGradient id="paint14_linear_1_2308" x1="252.449" y1="161.222" x2="252.097" y2="150.648" gradientUnits="userSpaceOnUse">
<stop stop-color="#26264F"/>
<stop offset="1" stop-color="#444B8C"/>
</linearGradient>
<linearGradient id="paint15_linear_1_2308" x1="40167.5" y1="18880.6" x2="40031.9" y2="23370.2" gradientUnits="userSpaceOnUse">
<stop stop-color="#F36F56"/>
<stop offset="1" stop-color="#FFC444"/>
</linearGradient>
<linearGradient id="paint16_linear_1_2308" x1="2172.58" y1="7276.21" x2="1601.18" y2="7640.45" gradientUnits="userSpaceOnUse">
<stop stop-color="#F36F56"/>
<stop offset="1" stop-color="#FFC444"/>
</linearGradient>
<linearGradient id="paint17_linear_1_2308" x1="11190.1" y1="13575.4" x2="11439.8" y2="14068.5" gradientUnits="userSpaceOnUse">
<stop stop-color="#F36F56"/>
<stop offset="1" stop-color="#FFC444"/>
</linearGradient>
<linearGradient id="paint18_linear_1_2308" x1="3536.19" y1="8642.99" x2="3595.25" y2="7999.84" gradientUnits="userSpaceOnUse">
<stop stop-color="#444B8C"/>
<stop offset="1" stop-color="#26264F"/>
</linearGradient>
<linearGradient id="paint19_linear_1_2308" x1="1179.13" y1="10723.1" x2="1167.07" y2="9516.88" gradientUnits="userSpaceOnUse">
<stop stop-color="#FFC444"/>
<stop offset="1" stop-color="#F36F56"/>
</linearGradient>
<linearGradient id="paint20_linear_1_2308" x1="1184.52" y1="10679.6" x2="1172.46" y2="9473.24" gradientUnits="userSpaceOnUse">
<stop stop-color="#FFC444"/>
<stop offset="1" stop-color="#F36F56"/>
</linearGradient>
<linearGradient id="paint21_linear_1_2308" x1="2331.29" y1="15978.5" x2="2601.42" y2="14811" gradientUnits="userSpaceOnUse">
<stop stop-color="#444B8C"/>
<stop offset="1" stop-color="#26264F"/>
</linearGradient>
<linearGradient id="paint22_linear_1_2308" x1="11010.3" y1="163601" x2="20371.3" y2="214005" gradientUnits="userSpaceOnUse">
<stop stop-color="#311944"/>
<stop offset="1" stop-color="#893976"/>
</linearGradient>
<linearGradient id="paint23_linear_1_2308" x1="11010.3" y1="163601" x2="20371.3" y2="214005" gradientUnits="userSpaceOnUse">
<stop stop-color="#311944"/>
<stop offset="1" stop-color="#893976"/>
</linearGradient>
<linearGradient id="paint24_linear_1_2308" x1="200.395" y1="198022" x2="19484.8" y2="197519" gradientUnits="userSpaceOnUse">
<stop stop-color="#311944"/>
<stop offset="1" stop-color="#893976"/>
</linearGradient>
<linearGradient id="paint25_linear_1_2308" x1="156713" y1="136372" x2="168215" y2="187202" gradientUnits="userSpaceOnUse">
<stop stop-color="#FF9085"/>
<stop offset="1" stop-color="#FB6FBB"/>
</linearGradient>
<linearGradient id="paint26_linear_1_2308" x1="104137" y1="98352.7" x2="112530" y2="134482" gradientUnits="userSpaceOnUse">
<stop stop-color="#FF9085"/>
<stop offset="1" stop-color="#FB6FBB"/>
</linearGradient>
<linearGradient id="paint27_linear_1_2308" x1="10815.4" y1="38307.5" x2="47809.2" y2="38307.5" gradientUnits="userSpaceOnUse">
<stop stop-color="#FFC444"/>
<stop offset="1" stop-color="#F36F56"/>
</linearGradient>
<linearGradient id="paint28_linear_1_2308" x1="-17158.7" y1="9481.14" x2="-17183.1" y2="10518.8" gradientUnits="userSpaceOnUse">
<stop stop-color="#444B8C"/>
<stop offset="1" stop-color="#26264F"/>
</linearGradient>
<linearGradient id="paint29_linear_1_2308" x1="62.5555" y1="293.971" x2="59.8965" y2="293.971" gradientUnits="userSpaceOnUse">
<stop stop-color="#311944"/>
<stop offset="1" stop-color="#A03976"/>
</linearGradient>
<linearGradient id="paint30_linear_1_2308" x1="-15155.3" y1="23644.5" x2="-15359.2" y2="26284.7" gradientUnits="userSpaceOnUse">
<stop stop-color="#444B8C"/>
<stop offset="1" stop-color="#26264F"/>
</linearGradient>
<linearGradient id="paint31_linear_1_2308" x1="13585.5" y1="25206.9" x2="13866" y2="25206.9" gradientUnits="userSpaceOnUse">
<stop stop-color="#311944"/>
<stop offset="1" stop-color="#A03976"/>
</linearGradient>
<linearGradient id="paint32_linear_1_2308" x1="-40422.7" y1="195900" x2="-38196.6" y2="172996" gradientUnits="userSpaceOnUse">
<stop stop-color="#311944"/>
<stop offset="1" stop-color="#893976"/>
</linearGradient>
<linearGradient id="paint33_linear_1_2308" x1="-64035.8" y1="182605" x2="-62694.6" y2="161101" gradientUnits="userSpaceOnUse">
<stop stop-color="#311944"/>
<stop offset="1" stop-color="#893976"/>
</linearGradient>
<linearGradient id="paint34_linear_1_2308" x1="-149360" y1="149225" x2="-139797" y2="138497" gradientUnits="userSpaceOnUse">
<stop stop-color="#444B8C"/>
<stop offset="1" stop-color="#26264F"/>
</linearGradient>
<linearGradient id="paint35_linear_1_2308" x1="52099.9" y1="156622" x2="998.996" y2="184662" gradientUnits="userSpaceOnUse">
<stop stop-color="#FFC444"/>
<stop offset="1" stop-color="#F36F56"/>
</linearGradient>
<linearGradient id="paint36_linear_1_2308" x1="-118496" y1="109977" x2="-127468" y2="150341" gradientUnits="userSpaceOnUse">
<stop stop-color="#FFC444"/>
<stop offset="1" stop-color="#F36F56"/>
</linearGradient>
<linearGradient id="paint37_linear_1_2308" x1="-65312" y1="58217.6" x2="-69818.2" y2="79615.5" gradientUnits="userSpaceOnUse">
<stop stop-color="#FFC444"/>
<stop offset="1" stop-color="#F36F56"/>
</linearGradient>
<linearGradient id="paint38_linear_1_2308" x1="20432" y1="57312.7" x2="34815.7" y2="57312.7" gradientUnits="userSpaceOnUse">
<stop stop-color="#FF9085"/>
<stop offset="1" stop-color="#FB6FBB"/>
</linearGradient>
<linearGradient id="paint39_linear_1_2308" x1="-17007.7" y1="21058.7" x2="-16635.3" y2="21469.3" gradientUnits="userSpaceOnUse">
<stop stop-color="#311944"/>
<stop offset="1" stop-color="#A03976"/>
</linearGradient>
<linearGradient id="paint40_linear_1_2308" x1="-3707.34" y1="8358.37" x2="-3175.53" y2="8528.03" gradientUnits="userSpaceOnUse">
<stop stop-color="#311944"/>
<stop offset="1" stop-color="#A03976"/>
</linearGradient>
<linearGradient id="paint41_linear_1_2308" x1="19823.9" y1="56696.2" x2="31875.2" y2="56696.2" gradientUnits="userSpaceOnUse">
<stop stop-color="#FF9085"/>
<stop offset="1" stop-color="#FB6FBB"/>
</linearGradient>
<linearGradient id="paint42_linear_1_2308" x1="8765.36" y1="16016.2" x2="9310.42" y2="14541.9" gradientUnits="userSpaceOnUse">
<stop stop-color="#311944"/>
<stop offset="1" stop-color="#A03976"/>
</linearGradient>
</defs>
</svg>
