<svg width="300" height="290" viewBox="0 0 300 290" fill="none" xmlns="http://www.w3.org/2000/svg">
<path d="M151.754 13.6814C151.754 13.6814 17.1683 -35.2523 29.1349 51.9659C41.1016 139.184 -51.6133 266.568 61.2859 280.576C174.185 294.584 276.617 273.306 287.084 228.3C297.552 183.294 323.51 71.0203 151.754 13.6814Z" fill="#F4F7FA"/>
<path d="M150.084 213.044C148.649 203.985 147.888 189.847 155.336 177.26C168.336 155.301 191.707 162.771 214.287 139.302C232.498 120.373 226.901 105.527 247.026 93.0022C250.394 90.9061 268.193 79.3637 281.323 86.4774C288.722 90.4859 291.357 98.6307 291.852 100.16C299.328 123.268 275.599 159.206 244.877 175.507C227.226 184.874 221.573 181.736 190.549 192.588C176.227 197.614 162.623 204.491 150.084 213.044Z" fill="url(#paint0_linear_1_2504)"/>
<path d="M150.084 213.044C148.649 203.985 147.888 189.847 155.336 177.26C168.336 155.301 191.707 162.771 214.287 139.302C232.498 120.373 226.901 105.527 247.026 93.0022C250.394 90.9061 268.193 79.3637 281.323 86.4774C288.722 90.4859 291.357 98.6307 291.852 100.16C299.328 123.268 275.599 159.206 244.877 175.507C227.226 184.874 221.573 181.736 190.549 192.588C176.227 197.614 162.623 204.491 150.084 213.044Z" fill="url(#paint1_linear_1_2504)"/>
<g style="mix-blend-mode:soft-light">
<g style="mix-blend-mode:soft-light">
<path d="M147.386 223.914L147.021 223.836C151.673 202.231 160.315 187.754 172.71 180.804C178.777 177.402 183.589 176.89 188.692 176.348C194.17 175.766 199.836 175.163 207.338 170.696C214.624 166.354 217.26 162.144 220.593 156.813C223.588 152.015 227.325 146.044 235.665 138.114C242.976 131.162 248.287 127.922 252.974 125.063C258.047 121.969 262.057 119.523 266.715 113.501C274.329 103.663 278.359 91.0089 278.693 75.8892L279.064 75.8981C278.728 91.0988 274.672 103.826 267.008 113.728C262.304 119.804 258.272 122.265 253.165 125.38C248.495 128.229 243.202 131.458 235.92 138.382C227.613 146.281 223.894 152.23 220.906 157.01C217.546 162.384 214.893 166.628 207.526 171.015C199.954 175.523 194.25 176.13 188.729 176.717C183.669 177.255 178.89 177.763 172.888 181.128C160.594 188.024 152.016 202.422 147.386 223.914Z" fill="white"/>
</g>
<g style="mix-blend-mode:soft-light">
<path d="M253.332 126.702C252.573 126.702 251.804 126.688 251.026 126.659L250.778 126.649L250.857 126.414C250.956 126.114 260.867 96.1702 249.9 83.6935L250.18 83.448C260.765 95.4885 252.205 123.427 251.287 126.296C267.715 126.844 279.982 120.706 287.389 115.442C295.454 109.714 299.654 103.769 299.694 103.71L300 103.923C299.958 103.983 295.722 109.979 287.605 115.746C280.463 120.819 268.837 126.702 253.332 126.702Z" fill="white"/>
</g>
<g style="mix-blend-mode:soft-light">
<path d="M254.446 152.289C251.93 152.289 249.417 152.159 246.915 151.901C235.414 150.715 227.632 147.223 227.551 147.188L227.406 147.122L227.449 146.967C231.878 131.348 228.216 109.054 228.178 108.831L228.545 108.77C228.583 108.993 232.238 131.222 227.851 146.914C228.969 147.394 236.382 150.443 246.964 151.533C257.519 152.62 273.475 151.922 289.557 142.429L289.747 142.749C277.047 150.248 264.421 152.289 254.446 152.289Z" fill="white"/>
</g>
<g style="mix-blend-mode:soft-light">
<path d="M240.789 188.717C210.837 188.717 193.699 176.194 193.526 176.065L193.369 175.948L193.494 175.797C205.472 161.38 201.006 137.384 200.96 137.143L201.325 137.073C201.372 137.315 205.838 161.311 193.908 175.881C195.738 177.163 213.123 188.757 242.379 188.332L242.385 188.705C241.849 188.713 241.316 188.717 240.789 188.717Z" fill="white"/>
</g>
</g>
<path d="M181.068 194.794C188.578 189.459 196.805 185.212 205.504 182.181C225.257 175.329 234.26 179.512 242.658 171.237C251.353 162.672 245.817 154.14 256.221 144.581C257.096 143.777 268.265 133.779 278.28 137.594C285.288 140.265 287.969 148.264 289.227 152.017C294.11 166.584 291.063 188.709 275.485 199.529C260.713 209.784 242.138 204.719 236.241 203.073C225.895 200.178 223.465 196.124 212.945 193.497C200.154 190.305 188.619 192.529 181.068 194.794Z" fill="url(#paint2_linear_1_2504)"/>
<path d="M33.2844 193.072C28.7329 193.229 24.1434 191.965 20.4084 189.18C12.1369 183.022 11.2465 171.831 18.4331 164.262L123.461 52.8692C126.898 49.252 131.864 47.2607 137.066 47.4024C142.243 47.5441 147.147 49.786 150.511 53.54L185.676 92.7528L225.634 48.8188C231.611 42.246 241.964 41.8468 248.748 47.8586C255.491 53.8344 256.211 63.9415 250.367 70.4983L198.564 128.612C195.337 132.232 190.639 134.346 185.677 134.401C180.693 134.454 175.934 132.423 172.642 128.824L137.066 89.944L47.971 186.54C44.1461 190.654 38.7422 192.886 33.2844 193.072Z" fill="url(#paint3_linear_1_2504)"/>
<path d="M261.545 78.9386L217.536 40.3246L274.011 21.363H277.954L265.102 78.5912L261.545 78.9386Z" fill="url(#paint4_linear_1_2504)"/>
<path d="M37.2307 193.072C32.6792 193.229 28.0897 191.965 24.3547 189.18C16.0831 183.022 15.1928 171.831 22.3794 164.262L127.404 52.8692C130.841 49.252 135.808 47.2607 141.009 47.4024C146.186 47.5441 151.09 49.786 154.454 53.54L189.619 92.7528L229.578 48.8188C235.554 42.246 245.907 41.8468 252.691 47.8586C259.434 53.8344 260.155 63.9415 254.31 70.4983L202.507 128.612C199.28 132.232 194.582 134.346 189.62 134.401C184.637 134.454 179.877 132.423 176.586 128.824L141.009 89.944L51.9143 186.54C48.0894 190.654 42.6855 192.886 37.2307 193.072Z" fill="url(#paint5_linear_1_2504)"/>
<path d="M265.102 78.5912L221.479 40.3246L277.954 21.363L265.102 78.5912Z" fill="url(#paint6_linear_1_2504)"/>
<path d="M56.3892 129.509L35.3854 264.252C34.9861 266.847 36.8397 269.197 39.2033 269.086L144.331 264.124L56.3892 129.509Z" fill="url(#paint7_linear_1_2504)"/>
<path d="M79.289 254.213C82.6088 244.097 85.9865 228.655 82.0319 211.51C77.4904 191.823 67.4292 187.884 58.396 166.839C45.5021 136.796 60.0929 115.036 46.7468 105.858C40.237 101.381 30.0011 101.378 23.6899 105.872C5.68948 118.697 10.6203 174.559 39.1879 196.357C52.1088 206.216 63.3827 205.041 73.0786 217.804C81.6476 229.077 80.9739 243.944 79.289 254.213Z" fill="url(#paint8_linear_1_2504)"/>
<g style="mix-blend-mode:soft-light">
<g style="mix-blend-mode:soft-light">
<path d="M81.2955 228.766C80.2121 224.509 78.7652 220.354 76.9706 216.345C72.8633 207.177 68.3297 202.134 62.5904 195.749C58.8424 191.579 54.5953 186.854 49.6865 180.078C40.5036 167.402 37.6519 162.949 35.0967 155.768C30.0431 141.562 30.8187 128.824 31.731 122.494C33.0231 113.526 36.0651 104.898 40.6843 97.1028L41.0047 97.2914C36.4108 105.044 33.3854 113.625 32.1003 122.544C31.192 128.84 30.4204 141.509 35.4481 155.64C37.9873 162.776 40.829 167.219 49.9879 179.856C54.8848 186.616 59.1249 191.335 62.8639 195.495C68.6252 201.904 73.1767 206.967 77.308 216.187C79.1124 220.217 80.567 224.394 81.6559 228.673L81.2955 228.766Z" fill="white"/>
</g>
<g style="mix-blend-mode:soft-light">
<path d="M32.6769 145.77L32.4074 145.624C32.3545 145.595 27.0174 142.662 22.2763 136.693C17.8985 131.181 13.1413 121.879 15.3412 108.865L15.7075 108.927C13.5316 121.803 18.2368 131.008 22.5677 136.461C26.6601 141.611 31.1856 144.472 32.3175 145.145C32.6309 134.764 39.2865 128.043 44.8471 124.216C50.9188 120.037 57.0294 118.327 57.0903 118.306L57.1901 118.665C57.1302 118.681 51.0705 120.382 45.0508 124.528C39.5101 128.343 32.8675 135.073 32.6838 145.465L32.6769 145.77Z" fill="white"/>
</g>
<g style="mix-blend-mode:soft-light">
<path d="M34.1733 179.166C28.7744 179.166 22.4333 177.84 16.5752 173.277L16.8038 172.977C29.8794 183.158 45.4124 177.012 47.0643 176.312C44.4172 166.067 46.7648 158.504 49.2083 153.95C51.8703 148.992 55.227 146.442 55.261 146.417L55.4836 146.716C55.3518 146.816 42.3411 156.85 47.4645 176.385L47.5045 176.536L47.3617 176.6C47.2649 176.643 41.6164 179.166 34.1733 179.166Z" fill="white"/>
</g>
<g style="mix-blend-mode:soft-light">
<path d="M46.2036 198.734C42.1562 198.734 37.3113 197.998 31.6758 195.939L31.8045 195.59C50.1563 202.294 60.0069 194.844 61.0928 193.951C56.6122 183.433 62.9334 166.448 62.9983 166.278L63.3466 166.409C63.2828 166.58 56.9586 183.561 61.4891 193.929L61.542 194.052L61.4422 194.142C61.3733 194.206 56.2459 198.734 46.2036 198.734Z" fill="white"/>
</g>
</g>
<path d="M112.055 262.594C113.179 255.798 113.824 245.186 108.293 235.696C98.6437 219.139 81.0556 224.631 64.22 206.893C50.6454 192.585 54.9214 181.466 39.8755 171.958C37.3572 170.367 24.055 161.608 14.1545 166.888C8.57787 169.861 6.55764 175.964 6.17835 177.109C0.446051 194.423 18.0821 221.526 41.0682 233.928C54.2746 241.052 58.5356 238.719 81.7762 247.031C92.5041 250.877 102.683 256.109 112.055 262.594Z" fill="url(#paint9_linear_1_2504)"/>
<g style="mix-blend-mode:soft-light">
<g style="mix-blend-mode:soft-light">
<path d="M113.98 270.778C110.618 254.625 104.254 243.785 95.0676 238.555C90.587 236.002 87.0057 235.597 83.2137 235.168C79.0675 234.699 74.7815 234.214 69.1091 230.783C63.5904 227.445 61.6171 224.241 59.1187 220.184C56.8999 216.581 54.14 212.099 47.9466 206.128C42.5167 200.896 38.5641 198.442 35.0706 196.283C31.2478 193.915 28.2294 192.044 24.723 187.451C19.0126 179.965 16.0282 170.383 15.8535 158.955L16.2248 158.949C16.3995 170.294 19.358 179.81 25.0194 187.225C28.4829 191.765 31.4763 193.614 35.2663 195.966C38.7727 198.138 42.7463 200.599 48.2041 205.861C54.4315 211.862 57.2063 216.368 59.4351 219.988C61.9075 224.003 63.8599 227.175 69.3027 230.469C74.9042 233.856 79.1493 234.337 83.2557 234.802C87.0865 235.235 90.7047 235.645 95.2523 238.235C104.535 243.525 110.959 254.45 114.345 270.71L113.98 270.778Z" fill="white"/>
</g>
<g style="mix-blend-mode:soft-light">
<path d="M35.2722 197.28C12.2232 197.28 0.121773 180.092 0 179.912L0.306428 179.7C0.429199 179.879 12.851 197.487 36.439 196.889C35.6754 194.43 29.5578 173.663 37.516 164.733L37.7944 164.981C29.5099 174.274 36.7963 196.784 36.8672 197.01L36.945 197.247L36.6965 197.255C36.2204 197.272 35.7423 197.28 35.2722 197.28Z" fill="white"/>
</g>
<g style="mix-blend-mode:soft-light">
<path d="M34.3715 216.487C26.8166 216.487 17.1806 214.932 7.5127 209.136L7.70334 208.816C19.7239 216.023 31.6975 216.626 39.6237 215.863C47.4581 215.108 52.9838 212.912 53.938 212.511C50.744 200.698 53.5917 184.051 53.6206 183.885L53.9879 183.949C53.958 184.116 51.0933 200.829 54.3393 212.569L54.3812 212.724L54.2355 212.789C54.1776 212.815 48.3085 215.401 39.6627 216.233C38.0517 216.388 36.277 216.487 34.3715 216.487Z" fill="white"/>
</g>
<g style="mix-blend-mode:soft-light">
<path d="M44.6168 243.911C44.0406 243.911 43.459 243.904 42.8721 243.892L42.8791 243.519C54.9565 243.781 64.2502 241.27 69.9216 239.12C75.3115 237.075 78.5405 234.958 79.2722 234.454C70.4147 223.432 73.8822 205.456 73.9221 205.275L74.2875 205.349C74.2515 205.528 70.782 223.504 79.6864 234.373L79.8111 234.525L79.6524 234.641C79.5207 234.737 66.7815 243.911 44.6168 243.911Z" fill="white"/>
</g>
</g>
<path d="M88.5537 287.435L34.6084 269.302L112.204 264.124L88.5537 287.435Z" fill="#D8DEE8"/>
<path d="M248.669 132.318L60.4254 126.496C57.6795 126.411 55.8799 128.513 56.4129 131.187L86.9479 284.548C87.4809 287.227 90.101 289.239 92.791 289.045L277.221 275.717C279.308 275.567 280.614 273.54 280.148 271.192L253.367 136.69C252.899 134.341 250.799 132.384 248.669 132.318Z" fill="url(#paint10_linear_1_2504)"/>
<path d="M249.685 132.318L61.4361 126.496C58.6902 126.411 56.8906 128.513 57.4236 131.187L87.9636 284.548C88.4966 287.227 91.1167 289.239 93.8057 289.045L278.236 275.717C280.324 275.567 281.63 273.54 281.163 271.192L254.383 136.69C253.915 134.341 251.814 132.384 249.685 132.318Z" fill="url(#paint11_linear_1_2504)"/>
<g style="mix-blend-mode:multiply" opacity="0.3">
<path style="mix-blend-mode:multiply" opacity="0.3" d="M200.558 213.578C163.507 193.446 128.393 209.096 103.114 183.273C87.5483 167.372 84.6906 144.859 85.1567 127.228L61.441 126.496C58.6951 126.411 56.8955 128.513 57.4285 131.187L87.9635 284.548C88.4965 287.226 91.1166 289.239 93.8056 289.045L253.826 277.482C236.338 239.516 216.618 222.304 200.558 213.578Z" fill="url(#paint12_linear_1_2504)"/>
</g>
<path d="M271.938 270.61L97.2303 282.534C94.3277 282.734 91.499 280.545 90.9221 277.644L63.7198 141.028C63.1429 138.133 65.0803 135.837 68.0378 135.917L246.006 140.391C248.33 140.449 250.622 142.569 251.131 145.126L275.138 265.701C275.651 268.255 274.22 270.454 271.938 270.61Z" fill="#D8DEE8"/>
<path d="M272.721 270.556L98.224 282.467C95.3294 282.666 92.4996 280.479 91.9237 277.583L64.7385 141.05C64.1615 138.155 66.0969 135.868 69.0494 135.942L246.809 140.411C249.13 140.469 251.419 142.588 251.928 145.143L275.921 265.648C276.43 268.199 275.001 270.4 272.721 270.556Z" fill="url(#paint13_linear_1_2504)"/>
<path d="M157.606 185.21L138.559 185.328C137.987 185.328 137.429 184.86 137.313 184.275L134.162 168.451C134.045 167.866 134.416 167.394 134.989 167.396L154.081 167.503C154.639 167.503 155.179 167.976 155.299 168.553L158.405 184.156C158.517 184.736 158.159 185.206 157.606 185.21ZM139.171 183.206L156.181 183.124L153.486 169.589L136.446 169.519L139.171 183.206Z" fill="#D8DEE8"/>
<path d="M181.673 185.06L163.235 185.175C162.682 185.175 162.137 184.714 162.026 184.139L158.926 168.568C158.811 167.993 159.168 167.529 159.724 167.532L178.206 167.632C178.746 167.632 179.276 168.098 179.389 168.666L182.446 184.02C182.56 184.594 182.212 185.054 181.673 185.06ZM163.821 183.087L180.29 183.008L177.639 169.691L161.144 169.622L163.821 183.087Z" fill="#D8DEE8"/>
<path d="M204.983 184.917L187.125 185.026C186.59 185.026 186.064 184.574 185.952 184.007L182.901 168.685C182.788 168.118 183.133 167.662 183.67 167.665L201.569 167.765C202.092 167.765 202.606 168.223 202.718 168.782L205.727 183.895C205.838 184.455 205.505 184.914 204.983 184.917ZM187.686 182.973L203.633 182.896L201.024 169.789L185.054 169.722L187.686 182.973Z" fill="#D8DEE8"/>
<path d="M227.575 184.777L210.27 184.884C209.752 184.884 209.241 184.438 209.13 183.886L206.128 168.808C206.017 168.25 206.348 167.801 206.868 167.804L224.213 167.904C224.72 167.904 225.22 168.355 225.33 168.902L228.293 183.78C228.397 184.325 228.074 184.774 227.575 184.777ZM210.806 182.859L226.259 182.785L223.687 169.883L208.207 169.818L210.806 182.859Z" fill="#D8DEE8"/>
<path d="M249.468 184.641L232.692 184.741C232.193 184.741 231.694 184.302 231.583 183.753L228.628 168.909C228.519 168.36 228.838 167.917 229.342 167.92L246.158 168.014C246.649 168.014 247.135 168.458 247.243 168.999L250.16 183.657C250.268 184.197 249.958 184.638 249.468 184.641ZM233.206 182.759L248.187 182.687L245.657 169.981L230.65 169.918L233.206 182.759Z" fill="#D8DEE8"/>
<path d="M111.323 207.091L91.0181 207.501C90.7093 207.496 90.4111 207.388 90.1714 207.193C89.9316 206.998 89.7644 206.729 89.6965 206.428L86.4386 190.058C86.3178 189.453 86.7151 188.96 87.326 188.954L107.679 188.784C108.278 188.784 108.851 189.26 108.97 189.855L112.182 205.986C112.3 206.586 111.916 207.079 111.323 207.091ZM91.6848 205.295L109.817 204.954L107.031 190.964L88.8651 191.14L91.6848 205.295Z" fill="#D8DEE8"/>
<path d="M136.958 206.575L117.324 206.974C116.735 206.986 116.161 206.514 116.043 205.919L112.839 189.828C112.721 189.23 113.103 188.748 113.694 188.743L133.373 188.58C133.949 188.58 134.509 189.047 134.626 189.633L137.785 205.496C137.902 206.079 137.532 206.563 136.958 206.575ZM117.961 204.798L135.494 204.469L132.752 190.711L115.185 190.882L117.961 204.798Z" fill="#D8DEE8"/>
<path d="M161.756 206.076L142.761 206.459C142.191 206.47 141.634 206.005 141.518 205.421L138.367 189.595C138.25 189.01 138.62 188.532 139.191 188.528L158.23 188.369C158.787 188.369 159.328 188.829 159.446 189.405L162.553 205.011C162.668 205.588 162.312 206.064 161.756 206.076ZM143.37 204.319L160.333 204L157.638 190.466L140.645 190.631L143.37 204.319Z" fill="#D8DEE8"/>
<path d="M185.76 205.592L167.373 205.962C166.821 205.973 166.281 205.516 166.167 204.94L163.072 189.369C162.958 188.793 163.313 188.323 163.871 188.318L182.301 188.166C182.84 188.166 183.368 188.618 183.481 189.186L186.538 204.541C186.641 205.117 186.298 205.581 185.76 205.592ZM167.956 203.861L184.377 203.554L181.724 190.237L165.275 190.395L167.956 203.861Z" fill="#D8DEE8"/>
<path d="M209.009 205.124L191.202 205.483C190.668 205.493 190.144 205.043 190.031 204.477L186.98 189.158C186.868 188.592 187.21 188.129 187.745 188.125L205.596 187.977C206.118 187.977 206.631 188.422 206.741 188.975L209.751 204.089C209.859 204.653 209.527 205.117 209.009 205.124ZM191.757 203.42L207.66 203.121L205.05 190.013L189.118 190.168L191.757 203.42Z" fill="#D8DEE8"/>
<path d="M231.532 204.671L214.276 205.017C213.759 205.027 213.249 204.584 213.138 204.027L210.136 188.947C210.025 188.389 210.355 187.934 210.874 187.93L228.174 187.79C228.679 187.79 229.178 188.228 229.288 188.778L232.25 203.657C232.356 204.207 232.037 204.661 231.532 204.671ZM214.81 202.983L230.22 202.694L227.651 189.792L212.213 189.941L214.81 202.983Z" fill="#D8DEE8"/>
<path d="M253.368 204.231L236.639 204.568C236.14 204.578 235.641 204.141 235.533 203.593L232.577 188.747C232.467 188.2 232.787 187.749 233.29 187.749L250.059 187.611C250.55 187.611 251.035 188.043 251.143 188.584L254.059 203.236C254.166 203.774 253.858 204.219 253.368 204.231ZM237.151 202.565L252.09 202.285L249.561 189.579L234.589 189.724L237.151 202.565Z" fill="#D8DEE8"/>
<path d="M115.617 228.66L95.3686 229.353C95.0613 229.353 94.7632 229.248 94.5235 229.056C94.2838 228.863 94.1168 228.595 94.0501 228.295L90.7922 211.925C90.6714 211.321 91.0677 210.819 91.6765 210.805L111.973 210.354C112.566 210.34 113.142 210.813 113.261 211.409L116.473 227.54C116.592 228.14 116.209 228.64 115.617 228.66ZM96.0324 227.127L114.115 226.535L111.329 212.544L93.2137 212.973L96.0324 227.127Z" fill="#D8DEE8"/>
<path d="M141.18 227.787L121.602 228.457C121.014 228.476 120.442 228.01 120.323 227.415L117.119 211.325C117.001 210.727 117.383 210.237 117.971 210.227L137.597 209.79C138.17 209.777 138.729 210.242 138.845 210.829L142.005 226.693C142.121 227.276 141.752 227.768 141.18 227.787ZM122.235 226.269L139.72 225.696L136.981 211.937L119.465 212.352L122.235 226.269Z" fill="#D8DEE8"/>
<path d="M165.911 226.942L146.968 227.589C146.4 227.609 145.844 227.15 145.728 226.565L142.577 210.741C142.46 210.156 142.829 209.672 143.398 209.659L162.385 209.235C162.94 209.223 163.483 209.682 163.597 210.258L166.704 225.863C166.819 226.44 166.464 226.923 165.911 226.942ZM147.575 225.438L164.492 224.88L161.797 211.346L144.851 211.746L147.575 225.438Z" fill="#D8DEE8"/>
<path d="M189.846 226.124L171.509 226.751C170.96 226.77 170.421 226.318 170.311 225.742L167.211 210.171C167.097 209.597 167.45 209.12 168.002 209.107L186.382 208.698C186.919 208.686 187.446 209.137 187.559 209.704L190.616 225.06C190.727 225.631 190.385 226.106 189.846 226.124ZM172.09 224.636L188.459 224.099L185.808 210.781L169.404 211.17L172.09 224.636Z" fill="#D8DEE8"/>
<path d="M213.03 225.332L195.272 225.939C194.739 225.957 194.216 225.513 194.103 224.941L191.053 209.623C190.94 209.057 191.281 208.587 191.815 208.575L209.616 208.176C210.136 208.165 210.648 208.608 210.76 209.167L213.768 224.28C213.88 224.847 213.55 225.314 213.03 225.332ZM195.827 223.858L211.686 223.338L209.076 210.231L193.189 210.607L195.827 223.858Z" fill="#D8DEE8"/>
<path d="M235.494 224.565L218.285 225.153C217.769 225.171 217.261 224.733 217.15 224.176L214.147 209.098C214.037 208.54 214.366 208.079 214.883 208.068L232.132 207.683C232.631 207.672 233.13 208.109 233.244 208.658L236.206 223.538C236.315 224.088 235.997 224.548 235.494 224.565ZM218.817 223.105L234.188 222.605L231.619 209.703L216.224 210.067L218.817 223.105Z" fill="#D8DEE8"/>
<path d="M257.268 223.82L240.585 224.391C240.086 224.408 239.587 223.976 239.482 223.428L236.527 208.583C236.417 208.034 236.735 207.58 237.236 207.569L253.958 207.197C254.447 207.186 254.931 207.616 255.039 208.158L257.957 222.81C258.064 223.351 257.756 223.804 257.268 223.82ZM241.098 222.374L255.992 221.885L253.463 209.18L238.538 209.533L241.098 222.374Z" fill="#D8DEE8"/>
<path d="M119.912 250.233L99.7202 251.207C99.4144 251.212 99.1164 251.111 98.8767 250.921C98.6369 250.731 98.4702 250.464 98.4046 250.165L95.1467 233.796C95.0259 233.191 95.4212 232.683 96.0281 232.661L116.268 231.926C116.859 231.904 117.435 232.37 117.554 232.967L120.765 249.097C120.884 249.695 120.502 250.201 119.912 250.233ZM100.381 248.966L118.412 248.122L115.627 234.131L97.5612 234.813L100.381 248.966Z" fill="#D8DEE8"/>
<path d="M145.405 248.999L125.88 249.941C125.294 249.969 124.723 249.51 124.605 248.915L121.401 232.825C121.282 232.226 121.663 231.727 122.25 231.709L141.82 231C142.392 230.979 142.95 231.437 143.067 232.024L146.227 247.887C146.342 248.473 145.975 248.971 145.405 248.999ZM126.511 247.737L143.946 246.92L141.208 233.165L123.74 233.823L126.511 247.737Z" fill="#D8DEE8"/>
<path d="M170.066 247.808L151.176 248.72C150.61 248.748 150.056 248.295 149.939 247.71L146.788 231.886C146.672 231.301 147.038 230.81 147.606 230.788L166.54 230.101C167.094 230.08 167.638 230.532 167.75 231.109L170.857 246.714C170.972 247.292 170.618 247.781 170.066 247.808ZM151.78 246.555L168.649 245.764L165.954 232.23L149.055 232.867L151.78 246.555Z" fill="#D8DEE8"/>
<path d="M193.938 246.655L175.652 247.539C175.104 247.565 174.567 247.12 174.455 246.541L171.361 230.97C171.246 230.395 171.599 229.912 172.148 229.892L190.477 229.226C191.013 229.207 191.539 229.651 191.652 230.219L194.709 245.574C194.813 246.149 194.471 246.63 193.938 246.655ZM176.23 245.41L192.559 244.644L189.908 231.327L173.549 231.944L176.23 245.41Z" fill="#D8DEE8"/>
<path d="M217.055 245.542L199.345 246.397C198.814 246.422 198.292 245.984 198.179 245.418L195.129 230.099C195.016 229.533 195.357 229.058 195.889 229.038L213.64 228.395C214.159 228.376 214.67 228.813 214.781 229.372L217.794 244.483C217.901 245.043 217.572 245.515 217.055 245.542ZM199.898 244.302L215.712 243.561L213.102 230.453L197.258 231.052L199.898 244.302Z" fill="#D8DEE8"/>
<path d="M239.453 244.458L222.294 245.287C221.778 245.312 221.271 244.88 221.161 244.323L218.158 229.245C218.047 228.687 218.376 228.22 218.891 228.202L236.093 227.577C236.592 227.559 237.091 227.99 237.201 228.54L240.163 243.418C240.274 243.968 239.952 244.434 239.453 244.458ZM222.822 243.226L238.147 242.508L235.578 229.604L220.225 230.183L222.822 243.226Z" fill="#D8DEE8"/>
<path d="M261.168 243.41L244.532 244.209C244.033 244.233 243.54 243.81 243.434 243.26L240.477 228.414C240.369 227.866 240.685 227.406 241.185 227.388L257.861 226.784C258.349 226.766 258.831 227.19 258.939 227.732L261.856 242.383C261.961 242.928 261.655 243.386 261.168 243.41ZM245.042 242.185L259.899 241.486L257.369 228.78L242.486 229.342L245.042 242.185Z" fill="#D8DEE8"/>
<path d="M124.207 271.799L104.071 273.056C103.766 273.066 103.468 272.969 103.228 272.781C102.988 272.594 102.822 272.327 102.758 272.029L99.5003 255.66C99.3795 255.055 99.7738 254.54 100.379 254.509L120.563 253.492C121.152 253.462 121.726 253.921 121.845 254.518L125.057 270.648C125.175 271.249 124.795 271.762 124.207 271.799ZM104.729 270.8L122.71 269.703L119.924 255.711L101.91 256.646L104.729 270.8Z" fill="#D8DEE8"/>
<path d="M149.628 270.211L130.158 271.426C129.573 271.463 129.003 271.01 128.885 270.416L125.682 254.325C125.563 253.726 125.942 253.227 126.528 253.195L146.044 252.211C146.615 252.182 147.171 252.634 147.288 253.221L150.447 269.085C150.563 269.671 150.197 270.175 149.628 270.211ZM130.786 269.212L148.174 268.151L145.434 254.393L128.016 255.291L130.786 269.212Z" fill="#D8DEE8"/>
<path d="M174.221 268.674L155.383 269.851C154.818 269.886 154.266 269.441 154.149 268.853L150.998 253.028C150.882 252.443 151.247 251.946 151.814 251.917L170.695 250.965C171.246 250.937 171.787 251.383 171.902 251.963L175.009 267.568C175.124 268.144 174.774 268.64 174.221 268.674ZM155.984 267.671L172.807 266.645L170.112 253.11L153.259 253.984L155.984 267.671Z" fill="#D8DEE8"/>
<path d="M198.024 267.187L179.79 268.326C179.243 268.361 178.707 267.922 178.593 267.346L175.498 251.775C175.384 251.199 175.735 250.71 176.283 250.683L194.561 249.761C195.095 249.734 195.62 250.173 195.732 250.74L198.785 266.103C198.898 266.667 198.557 267.154 198.024 267.187ZM180.363 266.183L196.647 265.185L193.995 251.868L177.682 252.713L180.363 266.183Z" fill="#D8DEE8"/>
<path d="M102.023 164.569L81.3326 164.418L80.4502 159.986L101.152 160.195L102.023 164.569Z" fill="url(#paint14_linear_1_2504)"/>
<path d="M128.133 164.76L108.135 164.614L107.268 160.257L127.276 160.458L128.133 164.76Z" fill="url(#paint15_linear_1_2504)"/>
<path d="M153.383 164.943L134.044 164.802L133.19 160.518L152.54 160.713L153.383 164.943Z" fill="url(#paint16_linear_1_2504)"/>
<path d="M177.813 165.122L159.1 164.985L158.262 160.771L176.985 160.961L177.813 165.122Z" fill="url(#paint17_linear_1_2504)"/>
<path d="M201.464 165.293L183.347 165.162L182.521 161.015L200.649 161.199L201.464 165.293Z" fill="url(#paint18_linear_1_2504)"/>
<path d="M224.37 165.46L206.822 165.332L206.01 161.253L223.568 161.43L224.37 165.46Z" fill="url(#paint19_linear_1_2504)"/>
<path d="M246.569 165.622L229.563 165.498L228.764 161.482L245.779 161.654L246.569 165.622Z" fill="url(#paint20_linear_1_2504)"/>
<path d="M244.705 156.261L79.2499 153.963L77.582 145.585L243.212 148.761L244.705 156.261Z" fill="#D8DEE8"/>
<g style="mix-blend-mode:multiply" opacity="0.3">
<g style="mix-blend-mode:multiply" opacity="0.3">
<path d="M200.559 213.578C163.507 193.446 128.394 209.095 103.115 183.273C90.1513 170.03 85.9941 152.156 85.2415 136.345L68.9449 135.936C66.0503 135.863 64.1539 138.106 64.7158 140.946L91.944 277.681C92.5089 280.521 95.2808 282.665 98.1244 282.473L251.232 272.023C234.413 237.848 215.831 221.876 200.559 213.578Z" fill="#D8DEE8"/>
</g>
</g>
<path d="M181.629 157.348C181.201 156.373 179.743 155.735 178.845 156.569C176.272 158.956 175.757 162.92 174.436 166.099C173.429 168.524 172.307 170.9 171.22 173.291C168.899 169.986 166.913 166.432 164.518 163.179C163.686 162.05 161.704 163.08 162.332 164.408C164.812 169.639 166.46 175.077 169.76 179.917C170.917 181.614 173.413 181.09 174.243 179.408C176.156 175.526 178.108 171.658 179.77 167.658C181.062 164.538 183.085 160.668 181.629 157.348Z" fill="url(#paint21_linear_1_2504)"/>
<path d="M111.531 40.3477C112.639 40.9106 114.033 40.3936 114.642 39.1928C115.251 37.9921 114.847 36.5627 113.743 35.9988C113.686 35.9688 113.627 35.9449 113.568 35.9209C113.772 35.2655 113.928 34.5959 114.034 33.9177C114.098 33.9177 114.161 33.9177 114.226 33.9107C115.491 33.7979 116.495 32.635 116.468 31.3155C116.441 29.996 115.395 29.0138 114.13 29.1266C114.064 29.1326 113.999 29.1436 113.93 29.1545C113.799 28.5037 113.618 27.8639 113.388 27.2411C113.447 27.2072 113.505 27.1722 113.561 27.1323C114.644 26.3737 114.99 24.8775 114.334 23.7896C113.679 22.7016 112.27 22.4341 111.187 23.1907C111.132 23.2296 111.079 23.2715 111.028 23.3134C110.598 22.8385 110.128 22.4005 109.624 22.0039C109.66 21.945 109.695 21.8861 109.724 21.8232C110.333 20.6255 111.129 19.3109 110.012 18.7659C107.427 17.5033 106.319 18.5843 105.707 19.785C105.676 19.8469 105.648 19.9098 105.623 19.9737C105.005 19.8007 104.374 19.6801 103.736 19.6134C103.736 19.5465 103.743 19.4796 103.742 19.4137C103.715 18.0922 104.107 17.3775 102.838 17.3526C100.068 17.2987 99.1337 18.5004 99.1606 19.822C99.1606 19.8918 99.1676 19.9587 99.1746 20.0216C98.5361 20.204 97.9127 20.4356 97.3101 20.7143C97.2811 20.6554 97.2512 20.5965 97.2172 20.5396C96.5615 19.4517 95.1521 19.1842 94.0701 19.9407C92.9881 20.6973 92.6418 22.1955 93.2965 23.2835C93.3305 23.3394 93.3674 23.3913 93.4043 23.4432C92.9193 23.929 92.4706 24.4498 92.0619 25.0013C92.008 24.9674 91.953 24.9354 91.8962 24.9015C90.7872 24.3385 89.3938 24.8556 88.784 26.0563C88.1741 27.2571 88.5843 28.6874 89.6883 29.2504C89.7452 29.2793 89.8041 29.3043 89.8629 29.3272C89.6595 29.9864 89.5047 30.6596 89.3998 31.3415C89.3359 31.3415 89.2721 31.3415 89.2072 31.3485C87.9425 31.4612 86.9384 32.6241 86.9644 33.9436C86.9903 35.2631 88.0354 36.2453 89.303 36.1325C89.3699 36.1265 89.4347 36.1166 89.5026 36.1046C89.634 36.7553 89.8152 37.395 90.0446 38.018C89.9867 38.0519 89.9288 38.0879 89.8719 38.1268C88.79 38.8854 88.4436 40.3826 89.0994 41.4706C89.7551 42.5585 91.9251 43.0676 93.0071 42.305C93.063 42.2661 92.3533 41.9866 92.4082 41.9437C92.8384 42.4191 93.3078 42.8575 93.8116 43.2542C93.7766 43.3121 93.7417 43.372 93.7118 43.4339C93.1019 44.6317 93.5121 46.065 94.6161 46.6279C95.72 47.1909 97.1184 46.6738 97.7273 45.4731C97.7592 45.4102 97.7862 45.3473 97.8121 45.2844C98.4298 45.4569 99.0608 45.5774 99.6986 45.6448C99.6986 45.7106 99.6916 45.7775 99.6986 45.8444C99.7245 47.1659 100.772 48.1461 102.037 48.0333C103.303 47.9205 104.306 46.7577 104.28 45.4382C104.28 45.3693 104.273 45.3014 104.266 45.2385C104.904 45.0563 105.528 44.825 106.131 44.5468C106.16 44.6057 106.189 44.6646 106.223 44.7215C106.879 45.8095 108.288 46.076 109.371 45.3204C110.454 44.5648 110.799 43.0656 110.143 41.9776C110.11 41.9228 110.074 41.8698 110.035 41.8189C110.521 41.3328 110.97 40.8117 111.379 40.2598C111.419 40.2858 111.473 40.3187 111.531 40.3477ZM97.7063 40.5243C93.6798 38.4791 92.2106 33.2878 94.4234 28.928C96.6363 24.5681 101.696 22.6906 105.722 24.7358C109.749 26.781 111.218 31.9713 109.004 36.3312C106.79 40.691 101.733 42.5675 97.7063 40.5243Z" fill="url(#paint22_linear_1_2504)"/>
<path d="M114.221 33.9116C115.486 33.7988 116.49 32.636 116.463 31.3164C116.436 29.9969 115.39 29.0147 114.125 29.1275C114.059 29.1335 113.994 29.1445 113.925 29.1555C113.794 28.5046 113.613 27.8648 113.383 27.242C113.442 27.2081 113.5 27.1732 113.556 27.1332C114.639 26.3746 115.978 24.5381 115.214 23.528C113.764 21.6016 112.265 22.435 111.182 23.1936C111.127 23.2325 111.075 23.2744 111.024 23.3164C110.593 22.8414 110.123 22.4034 109.619 22.0068C109.655 21.9479 109.69 21.889 109.719 21.8261C109.876 21.522 109.97 21.1891 109.994 20.8476C110.019 20.5061 109.973 20.1632 109.861 19.8398C108.815 21.6804 107.783 23.529 106.767 25.3855C109.995 27.7381 111.013 32.3764 109.004 36.3321C107.308 39.6828 103.921 41.5643 100.62 41.3287C100.472 41.711 100.328 42.0943 100.17 42.4726C99.7417 43.4997 99.2556 44.5058 98.7725 45.5099C99.0792 45.5678 99.3866 45.6131 99.6947 45.6457C99.6947 45.7115 99.6878 45.7784 99.6947 45.8453C99.7207 47.1668 100.523 48.2897 102.816 48.168C104.085 48.1011 104.302 46.7586 104.276 45.4371C104.276 45.3682 104.269 45.3003 104.262 45.2374C104.901 45.0552 105.524 44.8239 106.127 44.5457C106.156 44.6046 106.186 44.6635 106.22 44.7204C106.875 45.8084 109.149 46.2705 110.232 45.5119C111.315 44.7533 110.795 43.0615 110.139 41.9735C110.106 41.9187 110.07 41.8657 110.031 41.8148C110.517 41.3287 110.966 40.8076 111.375 40.2557C111.429 40.2897 111.483 40.3226 111.541 40.3555C112.65 40.9185 114.043 40.4015 114.652 39.2007C115.261 37.9999 114.857 36.5706 113.753 36.0067C113.696 35.9767 113.637 35.9528 113.578 35.9288C113.782 35.2733 113.938 34.6038 114.044 33.9255C114.093 33.9186 114.156 33.9166 114.221 33.9116Z" fill="url(#paint23_linear_1_2504)"/>
<path d="M112.724 40.4833C113.833 41.0462 115.226 40.5292 115.835 39.3285C116.444 38.1277 116.041 36.6984 114.937 36.1344C114.879 36.1045 114.82 36.0805 114.761 36.0566C114.965 35.4011 115.121 34.7316 115.227 34.0533C115.29 34.0533 115.354 34.0533 115.419 34.0463C116.685 33.9335 117.689 32.7707 117.662 31.4512C117.635 30.1316 116.583 29.1455 115.318 29.2612C115.252 29.2672 115.187 29.2782 115.118 29.2892C114.988 28.6383 114.806 27.9986 114.576 27.3758C114.635 27.3418 114.693 27.3069 114.749 27.267C115.832 26.5084 116.178 25.0122 115.523 23.9242C114.867 22.8362 113.459 22.5687 112.376 23.3253C112.32 23.3643 112.268 23.4062 112.217 23.4481C111.786 22.9732 111.316 22.5351 110.812 22.1385C110.848 22.0797 110.883 22.0208 110.912 21.9579C111.522 20.7601 111.118 19.3278 110.014 18.7638C108.91 18.1999 107.512 18.7179 106.902 19.9187C106.871 19.9806 106.843 20.0435 106.817 20.1073C106.199 19.9339 105.568 19.8133 104.93 19.747C104.93 19.6801 104.937 19.6133 104.936 19.5474C104.909 18.2258 103.862 17.2517 102.598 17.3595C101.333 17.4673 100.328 18.6341 100.355 19.9546C100.355 20.0235 100.362 20.0914 100.369 20.1542C99.7305 20.3363 99.1071 20.5676 98.5044 20.846C98.4755 20.7871 98.4455 20.7292 98.4106 20.6723C97.7558 19.5843 96.3465 19.3168 95.2645 20.0734C94.1825 20.83 93.8351 22.3282 94.4909 23.4162C94.5249 23.4721 94.5618 23.524 94.5987 23.5759C94.1137 24.0617 93.665 24.5824 93.2562 25.134C93.2023 25.1 93.1474 25.0671 93.0905 25.0341C91.9816 24.4712 90.5882 24.9882 89.9783 26.189C89.3685 27.3897 89.7737 28.8201 90.8827 29.383C90.9395 29.412 90.9984 29.4359 91.0573 29.4599C90.8535 30.1157 90.6981 30.7856 90.5922 31.4641C90.5283 31.4641 90.4644 31.4641 90.3996 31.4711C89.1349 31.5839 88.1308 32.7457 88.1567 34.0663C88.1827 35.3868 89.2307 36.368 90.4954 36.2552C90.5623 36.2492 90.6271 36.2382 90.695 36.2272C90.8234 36.8822 91.0023 37.5263 91.23 38.1536C91.1721 38.1876 91.1142 38.2235 91.0573 38.2624C89.9753 39.021 89.629 40.5182 90.2848 41.6062C90.9405 42.6942 92.3489 42.9607 93.4309 42.2051C93.4868 42.1662 93.5387 42.1242 93.5906 42.0813C94.0211 42.5565 94.4905 42.9949 94.994 43.3919C94.9591 43.4498 94.9241 43.5097 94.8942 43.5715C94.2843 44.7693 94.6896 46.2016 95.7985 46.7656C96.9074 47.3295 98.3008 46.8115 98.9097 45.6107C98.9416 45.5478 98.9686 45.485 98.9945 45.4221C99.6121 45.5947 100.243 45.7149 100.881 45.7814C100.881 45.8483 100.874 45.9152 100.876 45.981C100.902 47.3026 101.949 48.2827 103.215 48.17C104.48 48.0572 105.483 46.8943 105.457 45.5748C105.457 45.5059 105.45 45.4381 105.443 45.3752C106.082 45.1929 106.705 44.9617 107.308 44.6835C107.337 44.7424 107.367 44.8002 107.401 44.8571C108.057 45.9451 109.465 46.2126 110.548 45.456C111.631 44.6994 111.976 43.2012 111.321 42.1133C111.288 42.0574 111.251 42.0055 111.213 41.9536C111.698 41.468 112.147 40.9472 112.556 40.3955C112.612 40.4244 112.666 40.4544 112.724 40.4833ZM98.8997 40.659C94.8732 38.6148 93.4039 33.4235 95.6218 29.0636C97.8397 24.7038 102.894 22.8263 106.921 24.8714C110.947 26.9166 112.416 32.1079 110.203 36.4668C107.989 40.8257 102.926 42.7032 98.8997 40.659Z" fill="url(#paint24_linear_1_2504)"/>
<path d="M74.6769 73.5018C76.8498 74.6047 79.5787 73.5916 80.7725 71.239C81.9663 68.8864 81.1718 66.0866 79.0018 64.9837C78.889 64.9268 78.7742 64.8779 78.6594 64.832C79.0586 63.5477 79.3632 62.236 79.5707 60.9073C79.6955 60.9073 79.8203 60.9073 79.948 60.8933C82.4264 60.6717 84.3927 58.398 84.3398 55.8028C84.2869 53.2077 82.2368 51.2952 79.7584 51.5108C79.6286 51.5228 79.5019 51.5438 79.3751 51.5657C79.1188 50.2905 78.764 49.0371 78.3141 47.8167C78.4279 47.7508 78.5417 47.682 78.6525 47.6041C80.7725 46.1189 81.4472 43.1864 80.1666 41.0553C78.886 38.9243 76.1222 38.4003 74.0021 39.8865C73.8933 39.9624 73.7915 40.0442 73.6907 40.1281C72.8476 39.1969 71.9277 38.3381 70.9409 37.5609C71.0107 37.4461 71.0786 37.3303 71.1405 37.2085C72.3382 34.8559 73.8953 32.2867 71.7064 31.2197C66.6419 28.7473 64.4679 30.8634 63.2742 33.216C63.2123 33.3378 63.1584 33.4615 63.1075 33.5853C61.8984 33.2469 60.663 33.0108 59.4144 32.8796C59.4224 32.7489 59.4283 32.6181 59.4254 32.4804C59.3734 29.8922 60.142 28.4878 57.6547 28.4429C52.2288 28.3371 50.3992 30.6917 50.4511 33.2799C50.4511 33.4156 50.4651 33.5474 50.4781 33.6791C49.2276 34.0362 48.0065 34.4894 46.8259 35.0346C46.769 34.9188 46.7101 34.804 46.6432 34.6932C45.3596 32.5622 42.5998 32.0382 40.4787 33.5244C38.3577 35.0106 37.6839 37.9412 38.9645 40.0732C39.0304 40.182 39.1023 40.2838 39.1761 40.3846C38.2257 41.3367 37.3463 42.3572 36.5451 43.4379C36.4403 43.372 36.3335 43.3071 36.2207 43.2502C34.0487 42.1473 31.3188 43.1594 30.125 45.512C28.9313 47.8646 29.7258 50.6654 31.8957 51.7683C32.0085 51.8252 32.1233 51.8731 32.2381 51.9191C31.8388 53.2036 31.5342 54.5157 31.3268 55.8447C31.202 55.8447 31.0773 55.8447 30.9505 55.8577C28.4721 56.0793 26.5048 58.3531 26.5587 60.9482C26.6126 63.5434 28.6618 65.4558 31.1401 65.2352C31.2699 65.2232 31.3967 65.2033 31.5234 65.1803C31.7801 66.4554 32.1348 67.7088 32.5845 68.9293C32.4707 68.9962 32.3569 69.0651 32.2461 69.1429C30.126 70.6281 29.4513 73.5597 30.7319 75.6907C32.0125 77.8217 36.2676 78.8129 38.3876 77.3266C38.4964 77.2508 37.107 76.7018 37.2088 76.619C38.0517 77.5501 38.9716 78.4085 39.9587 79.1852C39.8888 79.3 39.8199 79.4157 39.7591 79.5375C38.5613 81.8901 39.3598 84.6909 41.5298 85.7938C43.6997 86.8968 46.4316 85.8837 47.6254 83.5321C47.6873 83.4103 47.7412 83.2865 47.7921 83.1627C49.0013 83.5004 50.2366 83.7361 51.4852 83.8674C51.4772 83.9982 51.4712 84.1299 51.4742 84.2617C51.5261 86.8509 53.5773 88.7703 56.0556 88.5537C58.534 88.3371 60.5013 86.0583 60.4474 83.4632C60.4474 83.3274 60.4335 83.1957 60.4195 83.0639C61.67 82.707 62.8911 82.2538 64.0717 81.7085C64.1286 81.8242 64.1875 81.939 64.2543 82.0498C65.5389 84.1818 68.2988 84.7049 70.4188 83.2196C72.5389 81.7344 73.2136 78.8019 71.933 76.6709C71.8671 76.5611 71.7953 76.4593 71.7224 76.3584C72.6723 75.4064 73.5513 74.3863 74.3525 73.3061C74.4613 73.38 74.5611 73.4439 74.6769 73.5018ZM47.5974 73.8451C39.7121 69.8406 36.8315 59.6716 41.1674 51.1305C45.5033 42.5895 55.4128 38.9143 63.2991 42.9199C71.1854 46.9254 74.062 57.0934 69.7291 65.6325C65.3962 74.1715 55.4847 77.8547 47.5974 73.8451Z" fill="url(#paint25_linear_1_2504)"/>
<path d="M79.9513 60.8933C82.4296 60.6717 84.396 58.398 84.3431 55.8028C84.2902 53.2077 82.24 51.2952 79.7616 51.5168C79.6319 51.5278 79.5051 51.5488 79.3783 51.5707C79.122 50.2955 78.7673 49.0421 78.3173 47.8217C78.4311 47.7559 78.5449 47.687 78.6557 47.6091C80.7757 46.1239 83.3998 42.5336 81.9036 40.5453C79.0639 36.7724 76.1254 38.4053 74.0054 39.8915C73.8966 39.9674 73.7948 40.0492 73.6939 40.1331C72.8508 39.2019 71.9309 38.3431 70.9441 37.5659C71.014 37.4511 71.0818 37.3353 71.1437 37.2135C71.4522 36.6177 71.6361 35.9652 71.6839 35.2959C71.7318 34.6266 71.6428 33.9545 71.4222 33.3208C69.374 36.9261 67.3564 40.5476 65.3695 44.1855C71.6577 48.7959 73.664 57.882 69.7313 65.6285C66.3966 72.1972 59.7719 75.8824 53.301 75.4212C53.0126 76.1688 52.7291 76.9184 52.4197 77.663C51.5812 79.6743 50.629 81.6436 49.6748 83.6109C50.2737 83.7247 50.8759 83.8132 51.4814 83.8764C51.4734 84.0072 51.4675 84.1389 51.4704 84.2707C51.5224 86.8599 53.0934 89.0618 57.585 88.8202C60.0704 88.6884 60.4976 86.0594 60.4457 83.4712C60.4457 83.3354 60.4317 83.2037 60.4177 83.0719C61.6683 82.715 62.8893 82.2618 64.0699 81.7165C64.1268 81.8322 64.1857 81.947 64.2526 82.0578C65.5372 84.1898 69.9919 85.0952 72.1119 83.6099C74.2319 82.1247 73.2158 78.8099 71.9312 76.6789C71.8654 76.5691 71.7935 76.4673 71.7206 76.3665C72.6705 75.4144 73.5495 74.3943 74.3507 73.3141C74.4565 73.38 74.5633 73.4439 74.6751 73.5008C76.8481 74.6047 79.577 73.5916 80.7707 71.239C81.9645 68.8864 81.17 66.0866 79 64.9837C78.8872 64.9258 78.7725 64.8779 78.6577 64.832C79.0568 63.5478 79.3614 62.236 79.569 60.9073C79.6957 60.9063 79.8205 60.9043 79.9513 60.8933Z" fill="url(#paint26_linear_1_2504)"/>
<path d="M77.0128 73.7673C79.1848 74.8702 81.9147 73.8571 83.1085 71.5055C84.3022 69.1539 83.5077 66.3521 81.3378 65.2492C81.225 65.1923 81.1102 65.1444 80.9954 65.0985C81.3946 63.8139 81.6992 62.5019 81.9067 61.1728C82.0315 61.1728 82.1562 61.1728 82.283 61.1588C84.7614 60.9382 86.7287 58.6635 86.6748 56.0683C86.6209 53.4732 84.5717 51.5598 82.0933 51.7813C81.9636 51.7923 81.8368 51.8133 81.7101 51.8352C81.4532 50.5618 81.0985 49.3101 80.649 48.0912C80.7628 48.0244 80.8766 47.9555 80.9874 47.8776C83.1075 46.3924 83.7822 43.4599 82.5016 41.3289C81.221 39.1978 78.4571 38.6738 76.3371 40.16C76.2283 40.2359 76.1265 40.3178 76.0247 40.4016C75.1818 39.4702 74.2619 38.6114 73.2748 37.8344C73.3447 37.7206 73.4136 37.6038 73.4744 37.482C74.6722 35.1304 73.8737 32.3297 71.7037 31.2267C69.5338 30.1238 66.8019 31.1359 65.6081 33.4885C65.5462 33.6103 65.4923 33.734 65.4414 33.8578C64.2324 33.5194 62.997 33.2833 61.7483 33.1521C61.7563 33.0214 61.7623 32.8906 61.7593 32.7579C61.7074 30.1697 59.6562 28.2503 57.1779 28.4709C54.6995 28.6915 52.7322 30.9662 52.7861 33.5614C52.7861 33.6961 52.8 33.8289 52.814 33.9606C51.5635 34.3176 50.3424 34.7707 49.1618 35.3161C49.1049 35.2013 49.046 35.0865 48.9792 34.9747C47.6956 32.8437 44.9347 32.3197 42.8147 33.8059C40.6946 35.2921 40.0199 38.2237 41.3005 40.3547C41.3664 40.4635 41.4382 40.5653 41.5111 40.6661C40.5609 41.6181 39.6816 42.6383 38.88 43.7184C38.7742 43.6525 38.6684 43.5876 38.5556 43.5308C36.3827 42.4328 33.6538 43.4409 32.46 45.7925C31.2662 48.1441 32.0607 50.9459 34.2307 52.0488C34.3435 52.1057 34.4583 52.1536 34.5731 52.1996C34.1738 53.4841 33.8692 54.7962 33.6618 56.1252C33.537 56.1252 33.4122 56.1252 33.2855 56.1392C30.8071 56.3598 28.8398 58.6345 28.8937 61.2297C28.9476 63.8249 30.9967 65.7373 33.4751 65.5217C33.6049 65.5097 33.7316 65.4897 33.8584 65.4668C34.1149 66.7419 34.4697 67.9953 34.9194 69.2158C34.8056 69.2827 34.6918 69.3515 34.581 69.4294C32.461 70.9146 31.7863 73.8461 33.0669 75.9782C34.3475 78.1102 37.1113 78.6322 39.2314 77.147C39.3402 77.0711 39.442 76.9883 39.5428 76.9054C40.3862 77.8361 41.306 78.6945 42.2926 79.4716C42.2228 79.5864 42.1549 79.7022 42.093 79.825C40.8953 82.1766 41.6938 84.9774 43.8637 86.0803C46.0337 87.1832 48.7656 86.1711 49.9593 83.8185C50.0212 83.6968 50.0751 83.573 50.126 83.4492C51.3351 83.7873 52.5705 84.023 53.8191 84.1539C53.8111 84.2846 53.8052 84.4164 53.8082 84.5532C53.8601 87.1413 55.9112 89.0607 58.3896 88.8391C60.868 88.6176 62.8343 86.3438 62.7814 83.7487C62.7814 83.6139 62.7674 83.4812 62.7544 83.3494C64.0049 82.9923 65.226 82.5391 66.4066 81.9939C66.4635 82.1097 66.5224 82.2245 66.5893 82.3363C67.8729 84.4673 70.6327 84.9903 72.7538 83.5051C74.8748 82.0199 75.5486 79.0874 74.268 76.9563C74.2021 76.8475 74.1302 76.7447 74.0564 76.6439C75.0071 75.6924 75.8865 74.6722 76.6874 73.5916C76.7942 73.6455 76.9 73.7104 77.0128 73.7673ZM49.9334 74.1106C42.0481 70.1061 39.1675 59.9371 43.5034 51.3971C47.8393 42.857 57.7478 39.1799 65.6351 43.1844C73.5224 47.1889 76.401 57.3579 72.0651 65.898C67.7292 74.438 57.8207 78.1152 49.9334 74.1106Z" fill="url(#paint27_linear_1_2504)"/>
<defs>
<linearGradient id="paint0_linear_1_2504" x1="259.878" y1="99.8784" x2="177.064" y2="219.39" gradientUnits="userSpaceOnUse">
<stop stop-color="#AA80F9"/>
<stop offset="1" stop-color="#6165D7"/>
</linearGradient>
<linearGradient id="paint1_linear_1_2504" x1="293.236" y1="148.615" x2="149.147" y2="148.615" gradientUnits="userSpaceOnUse">
<stop stop-color="#FF9085"/>
<stop offset="1" stop-color="#FB6FBB"/>
</linearGradient>
<linearGradient id="paint2_linear_1_2504" x1="-421568" y1="97850.7" x2="-545655" y2="179412" gradientUnits="userSpaceOnUse">
<stop stop-color="#E38DDD"/>
<stop offset="1" stop-color="#9571F6"/>
</linearGradient>
<linearGradient id="paint3_linear_1_2504" x1="99.7393" y1="159.251" x2="-14.5932" y2="297.449" gradientUnits="userSpaceOnUse">
<stop stop-color="#F36F56"/>
<stop offset="1" stop-color="#FFC444"/>
</linearGradient>
<linearGradient id="paint4_linear_1_2504" x1="81799.6" y1="108603" x2="16514.7" y2="191412" gradientUnits="userSpaceOnUse">
<stop stop-color="#F36F56"/>
<stop offset="1" stop-color="#FFC444"/>
</linearGradient>
<linearGradient id="paint5_linear_1_2504" x1="63.823" y1="191.889" x2="268.079" y2="-12.3671" gradientUnits="userSpaceOnUse">
<stop stop-color="#FFC444"/>
<stop offset="1" stop-color="#F36F56"/>
</linearGradient>
<linearGradient id="paint6_linear_1_2504" x1="49639.6" y1="123525" x2="166739" y2="7967.67" gradientUnits="userSpaceOnUse">
<stop stop-color="#FFC444"/>
<stop offset="1" stop-color="#F36F56"/>
</linearGradient>
<linearGradient id="paint7_linear_1_2504" x1="3548.41" y1="344861" x2="49874.9" y2="326351" gradientUnits="userSpaceOnUse">
<stop stop-color="#AA80F9"/>
<stop offset="1" stop-color="#6165D7"/>
</linearGradient>
<linearGradient id="paint8_linear_1_2504" x1="16936.8" y1="157783" x2="122997" y2="315007" gradientUnits="userSpaceOnUse">
<stop stop-color="#FF9085"/>
<stop offset="1" stop-color="#FB6FBB"/>
</linearGradient>
<linearGradient id="paint9_linear_1_2504" x1="-15.2077" y1="127.773" x2="155.004" y2="338.688" gradientUnits="userSpaceOnUse">
<stop stop-color="#E38DDD"/>
<stop offset="1" stop-color="#9571F6"/>
</linearGradient>
<linearGradient id="paint10_linear_1_2504" x1="56.319" y1="207.775" x2="280.243" y2="207.775" gradientUnits="userSpaceOnUse">
<stop stop-color="#EBEFF2"/>
<stop offset="1" stop-color="white"/>
</linearGradient>
<linearGradient id="paint11_linear_1_2504" x1="483058" y1="241669" x2="682991" y2="705098" gradientUnits="userSpaceOnUse">
<stop stop-color="#AA80F9"/>
<stop offset="1" stop-color="#6165D7"/>
</linearGradient>
<linearGradient id="paint12_linear_1_2504" x1="360875" y1="277775" x2="586616" y2="730833" gradientUnits="userSpaceOnUse">
<stop stop-color="#FF9085"/>
<stop offset="1" stop-color="#FB6FBB"/>
</linearGradient>
<linearGradient id="paint13_linear_1_2504" x1="547464" y1="435988" x2="573273" y2="162248" gradientUnits="userSpaceOnUse">
<stop stop-color="#EBEFF2"/>
<stop offset="1" stop-color="white"/>
</linearGradient>
<linearGradient id="paint14_linear_1_2504" x1="34985" y1="6830.98" x2="35055.5" y2="11424.7" gradientUnits="userSpaceOnUse">
<stop stop-color="#E38DDD"/>
<stop offset="1" stop-color="#9571F6"/>
</linearGradient>
<linearGradient id="paint15_linear_1_2504" x1="39372.9" y1="6656.8" x2="39441.8" y2="11074.1" gradientUnits="userSpaceOnUse">
<stop stop-color="#E38DDD"/>
<stop offset="1" stop-color="#9571F6"/>
</linearGradient>
<linearGradient id="paint16_linear_1_2504" x1="43284.4" y1="6489.58" x2="43351.7" y2="10739.3" gradientUnits="userSpaceOnUse">
<stop stop-color="#E38DDD"/>
<stop offset="1" stop-color="#9571F6"/>
</linearGradient>
<linearGradient id="paint17_linear_1_2504" x1="46766.9" y1="6332.29" x2="46832.7" y2="10425" gradientUnits="userSpaceOnUse">
<stop stop-color="#E38DDD"/>
<stop offset="1" stop-color="#9571F6"/>
</linearGradient>
<linearGradient id="paint18_linear_1_2504" x1="49865.7" y1="6180.7" x2="49930" y2="10123.5" gradientUnits="userSpaceOnUse">
<stop stop-color="#E38DDD"/>
<stop offset="1" stop-color="#9571F6"/>
</linearGradient>
<linearGradient id="paint19_linear_1_2504" x1="52611.6" y1="6035.3" x2="52674.6" y2="9835.93" gradientUnits="userSpaceOnUse">
<stop stop-color="#E38DDD"/>
<stop offset="1" stop-color="#9571F6"/>
</linearGradient>
<linearGradient id="paint20_linear_1_2504" x1="55043" y1="5897.49" x2="55104.6" y2="9563.97" gradientUnits="userSpaceOnUse">
<stop stop-color="#E38DDD"/>
<stop offset="1" stop-color="#9571F6"/>
</linearGradient>
<linearGradient id="paint21_linear_1_2504" x1="162.677" y1="165.448" x2="181.715" y2="168.14" gradientUnits="userSpaceOnUse">
<stop stop-color="#AB316D"/>
<stop offset="1" stop-color="#792D3D"/>
</linearGradient>
<linearGradient id="paint22_linear_1_2504" x1="138.296" y1="42.843" x2="103.668" y2="33.0443" gradientUnits="userSpaceOnUse">
<stop stop-color="#311944"/>
<stop offset="1" stop-color="#A03976"/>
</linearGradient>
<linearGradient id="paint23_linear_1_2504" x1="24595" y1="12274" x2="18166.6" y2="11138.3" gradientUnits="userSpaceOnUse">
<stop stop-color="#311944"/>
<stop offset="1" stop-color="#A03976"/>
</linearGradient>
<linearGradient id="paint24_linear_1_2504" x1="30465.4" y1="6491.12" x2="30640" y2="19995.8" gradientUnits="userSpaceOnUse">
<stop stop-color="#FF9085"/>
<stop offset="1" stop-color="#FB6FBB"/>
</linearGradient>
<linearGradient id="paint25_linear_1_2504" x1="73610.1" y1="47252.2" x2="34118.2" y2="36513.4" gradientUnits="userSpaceOnUse">
<stop stop-color="#311944"/>
<stop offset="1" stop-color="#A03976"/>
</linearGradient>
<linearGradient id="paint26_linear_1_2504" x1="44137.2" y1="43983.8" x2="19460.6" y2="39623" gradientUnits="userSpaceOnUse">
<stop stop-color="#311944"/>
<stop offset="1" stop-color="#A03976"/>
</linearGradient>
<linearGradient id="paint27_linear_1_2504" x1="33315.5" y1="21525.9" x2="33986.1" y2="73359.9" gradientUnits="userSpaceOnUse">
<stop stop-color="#FF9085"/>
<stop offset="1" stop-color="#FB6FBB"/>
</linearGradient>
</defs>
</svg>
