<svg width="52" height="52" viewBox="0 0 52 52" fill="none" xmlns="http://www.w3.org/2000/svg">
<g id="&#208;&#152;&#208;&#186;&#208;&#190;&#208;&#189;&#208;&#186;&#208;&#176;">
<rect id="Rectangle 10" width="52" height="52" fill="white"/>
<g id="Group 10">
<g id="Group">
<g id="Group_2">
<g id="Group_3">
<path id="Vector" d="M46.9669 48.6464H38.5798C37.6547 48.6464 36.9023 47.8944 36.9023 46.9696V43.6158C36.9023 42.691 37.6547 41.939 38.5798 41.939H46.9669C47.892 41.939 48.6443 42.691 48.6443 43.6158V46.9696C48.6443 47.8944 47.892 48.6464 46.9669 48.6464Z" fill="#41B7E9"/>
</g>
</g>
<g id="Group_4">
<path id="Vector_2" d="M33.5479 29.3623V22.6549C33.5479 21.5632 32.8443 20.6409 31.8705 20.2938V12.5937C31.8705 11.502 31.1668 10.5798 30.1931 10.2326V6.01533C30.1931 3.75408 29.0499 1.62698 27.2081 0.464072C26.2285 -0.154691 25.7706 -0.154691 24.7893 0.464072C22.9492 1.62698 21.806 3.75408 21.806 6.01533V10.2326C20.8323 10.5798 20.1286 11.502 20.1286 12.5937V20.2938C19.1548 20.6409 18.4512 21.5632 18.4512 22.6549V29.3623C18.4512 30.454 19.1548 31.3762 20.1286 31.7234V39.4235C20.1286 40.5152 20.8323 41.4374 21.806 41.7845V46.0019C21.806 48.2631 22.9492 50.3902 24.791 51.5531C25.2808 51.8625 25.6532 52 25.9996 52C26.3459 52 26.7183 51.8625 27.209 51.5531C29.0499 50.3902 30.1931 48.2631 30.1931 46.0019V41.7845C31.1668 41.4374 31.8705 40.5152 31.8705 39.4235V31.7234C32.8443 31.3762 33.5479 30.454 33.5479 29.3623V29.3623ZM20.9673 30.2008C20.6067 30.2008 20.3056 29.9702 20.1873 29.6507L28.0242 21.8164H31.0318C31.3925 21.8164 31.6936 22.047 31.8118 22.3664L23.9749 30.2008H20.9673ZM25.685 1.8827C25.8427 1.78293 25.9434 1.7343 25.9996 1.71082C26.0558 1.7343 26.1572 1.78376 26.3132 1.8827C27.6719 2.73958 28.5157 4.32422 28.5157 6.01533V10.0784H23.4834V6.01533C23.4834 4.32422 24.3272 2.73958 25.685 1.8827ZM22.6447 11.7552H29.3544C29.8174 11.7552 30.1931 12.1309 30.1931 12.5937V20.1396H21.806V12.5937C21.806 12.1309 22.1818 11.7552 22.6447 11.7552V11.7552ZM20.9673 21.8164H25.6523L20.1286 27.3383V22.6549C20.1286 22.192 20.5043 21.8164 20.9673 21.8164ZM26.3141 50.1345C26.1564 50.2334 26.0558 50.2829 25.9996 50.3064C25.9434 50.2829 25.8419 50.2334 25.6859 50.1345C24.3272 49.2776 23.4834 47.693 23.4834 46.0019V41.9388H28.5157V46.0019C28.5157 47.693 27.6719 49.2776 26.3141 50.1345V50.1345ZM29.3544 40.2619H22.6447C22.1818 40.2619 21.806 39.8863 21.806 39.4235V31.8776H30.1931V39.4235C30.1931 39.8863 29.8174 40.2619 29.3544 40.2619ZM31.0318 30.2008H26.3468L31.8705 24.6788V29.3623C31.8705 29.8251 31.4948 30.2008 31.0318 30.2008Z" fill="#1F2428"/>
<path id="Vector_3" d="M50.323 30.3549V27.6854C50.323 26.5937 49.6193 25.6714 48.6456 25.3243V10.9167C48.6456 9.82507 47.9419 8.9028 46.9682 8.55569V2.53239C46.9682 1.14562 45.8393 0.0170898 44.4521 0.0170898H41.0972C39.71 0.0170898 38.5811 1.14562 38.5811 2.53239V8.55569C37.6073 8.9028 36.9037 9.82507 36.9037 10.9167V25.3243C35.9299 25.6714 35.2262 26.5937 35.2262 27.6854V30.3549C34.2525 30.702 33.5488 31.6243 33.5488 32.716V49.4846C33.5488 51.818 40.6108 51.9999 42.7746 51.9999C44.9385 51.9999 52.0004 51.818 52.0004 49.4846V32.716C52.0004 31.6243 51.2968 30.702 50.323 30.3549ZM41.0972 1.69395H44.4521C44.915 1.69395 45.2908 2.06957 45.2908 2.53239V8.40141H40.2585V2.53239C40.2585 2.06957 40.6342 1.69395 41.0972 1.69395ZM39.4198 10.0783H46.1295C46.5924 10.0783 46.9682 10.4539 46.9682 10.9167V25.1701H38.5811V10.9167C38.5811 10.4539 38.9568 10.0783 39.4198 10.0783ZM37.7424 26.8469H47.8069C48.2699 26.8469 48.6456 27.2225 48.6456 27.6854V30.2007H36.9037V27.6854C36.9037 27.2225 37.2794 26.8469 37.7424 26.8469ZM36.065 31.8775H49.4843C49.9473 31.8775 50.323 32.2531 50.323 32.716V35.2313H35.2262V32.716C35.2262 32.2531 35.602 31.8775 36.065 31.8775ZM50.323 36.9081V38.585H35.2262V36.9081H50.323ZM42.7746 50.323C38.4444 50.323 35.81 49.6749 35.2262 49.2892V40.2618H50.323V49.2892C49.7393 49.6749 47.1049 50.323 42.7746 50.323V50.323Z" fill="#1F2428"/>
<path id="Vector_4" d="M16.7742 30.3549V27.6854C16.7742 26.5937 16.0705 25.6714 15.0968 25.3243V15.9473C15.0968 14.8557 14.3931 13.9334 13.4194 13.5863V2.53239C13.4194 1.14562 12.2905 0.0170898 10.9032 0.0170898H7.54839C6.16116 0.0170898 5.03226 1.14562 5.03226 2.53239V13.5863C4.05852 13.9334 3.35484 14.8557 3.35484 15.9473V25.3243C2.3811 25.6714 1.67742 26.5937 1.67742 27.6854V30.3549C0.703677 30.702 0 31.6243 0 32.716V49.4846C0 51.818 7.06194 51.9999 9.22581 51.9999C11.3897 51.9999 18.4516 51.818 18.4516 49.4846V32.716C18.4516 31.6243 17.7479 30.702 16.7742 30.3549ZM7.54839 1.69395H10.9032C11.3662 1.69395 11.7419 2.06957 11.7419 2.53239V13.432H6.70968V2.53239C6.70968 2.06957 7.08542 1.69395 7.54839 1.69395ZM5.87097 15.1089H12.5806C13.0436 15.1089 13.4194 15.4845 13.4194 15.9473V25.1701H5.03226V15.9473C5.03226 15.4845 5.408 15.1089 5.87097 15.1089ZM4.19355 26.8469H14.2581C14.721 26.8469 15.0968 27.2225 15.0968 27.6854V30.2007H3.35484V27.6854C3.35484 27.2225 3.73058 26.8469 4.19355 26.8469ZM2.51613 31.8775H15.9355C16.3985 31.8775 16.7742 32.2531 16.7742 32.716V35.2313H1.67742V32.716C1.67742 32.2531 2.05316 31.8775 2.51613 31.8775ZM16.7742 36.9081V38.585H1.67742V36.9081H16.7742ZM9.22581 50.323C4.89555 50.323 2.26116 49.6749 1.67742 49.2892V40.2618H16.7742V49.2892C16.1905 49.6749 13.5561 50.323 9.22581 50.323V50.323Z" fill="#1F2428"/>
</g>
<g id="Group_5">
<g id="Group_6">
<path id="Vector_5" d="M13.42 48.6464H5.03289C4.10779 48.6464 3.35547 47.8944 3.35547 46.9696V43.6158C3.35547 42.691 4.10779 41.939 5.03289 41.939H13.42C14.3451 41.939 15.0974 42.691 15.0974 43.6158V46.9696C15.0974 47.8944 14.3451 48.6464 13.42 48.6464Z" fill="#41B7E9"/>
</g>
</g>
</g>
</g>
</g>
</svg>
