<svg width="280" height="280" viewBox="0 0 280 280" fill="none" xmlns="http://www.w3.org/2000/svg">
<path d="M280 0H0V280H280V0Z" fill="white"/>
<path d="M138.717 235.911C161.323 226.552 163.17 203.411 183.613 201.138C201.424 199.158 208.443 215.788 220.913 212.614C239.912 207.778 251.252 162.158 243.067 124.897C234.614 86.4203 200.67 35.5939 145.591 32.8732C83.752 29.8188 37.8419 89.5041 35.7219 141.34C35.4955 146.946 34.3347 193.905 70.6094 221.121C72.4215 222.481 108.157 248.566 138.717 235.911Z" fill="#F4F7FA"/>
<path d="M110.292 231.947L97.2285 221.132C97.2285 221.132 100.315 212.396 107.431 210.316C121.949 206.073 117.219 193.654 116.016 188.156C114.205 179.864 116.243 172.78 125.231 174.527C135.4 176.504 137.643 161.221 132.783 148.253C128.029 135.563 147.843 119.787 160.657 146.308C168.31 162.147 155.567 173.614 150.51 180.934C145.453 188.254 155.14 197.225 144.76 202.69C135.893 207.359 125.952 207.886 126.203 216.35C126.453 224.815 122.353 230.673 110.292 231.947Z" fill="url(#paint0_linear_1_3844)"/>
<g style="mix-blend-mode:soft-light" opacity="0.5">
<g style="mix-blend-mode:soft-light" opacity="0.5">
<path d="M103.634 228.48L103.404 228.206C103.574 228.063 120.528 213.732 133.052 194.458C144.59 176.701 154.618 150.993 136.874 129.356L137.151 129.13C145.049 138.761 148.197 149.986 146.509 162.489C145.157 172.479 140.731 183.301 133.352 194.657C120.794 213.977 103.804 228.337 103.634 228.48Z" fill="#BEB8F2"/>
</g>
<g style="mix-blend-mode:soft-light" opacity="0.5">
<path d="M145.573 167.686L145.328 167.425C154.001 159.255 161.239 143.444 161.311 143.285L161.637 143.436C161.565 143.593 154.297 159.472 145.573 167.686Z" fill="#BEB8F2"/>
</g>
<g style="mix-blend-mode:soft-light" opacity="0.5">
<path d="M146.472 159.321C141.975 145.853 131.005 141.45 130.895 141.407L131.024 141.073C131.136 141.116 142.26 145.575 146.812 159.208L146.472 159.321Z" fill="#BEB8F2"/>
</g>
<g style="mix-blend-mode:soft-light" opacity="0.5">
<path d="M124.179 206.613C131.856 191.058 116.811 173.232 116.65 173.071L116.887 172.802C117.059 172.946 132.246 191.078 124.499 206.771L124.179 206.613Z" fill="#BEB8F2"/>
</g>
<g style="mix-blend-mode:soft-light" opacity="0.5">
<path d="M128.824 201.174L128.598 200.894C137.244 193.982 151.053 195.733 151.192 195.752L151.145 196.106C151.011 196.088 137.349 194.359 128.824 201.174Z" fill="#BEB8F2"/>
</g>
<g style="mix-blend-mode:soft-light" opacity="0.5">
<path d="M106.023 225.893C109.814 220.502 105.905 210.514 105.865 210.415L106.198 210.282C106.364 210.699 110.219 220.546 106.316 226.098L106.023 225.893Z" fill="#BEB8F2"/>
</g>
<g style="mix-blend-mode:soft-light" opacity="0.5">
<path d="M110.083 222.552L109.85 222.281C113.8 218.885 123.428 219.426 126.592 219.604C127.04 219.629 127.422 219.651 127.498 219.641L127.552 219.995C127.454 220.01 127.198 219.995 126.576 219.961C123.444 219.785 113.924 219.246 110.083 222.552Z" fill="#BEB8F2"/>
</g>
</g>
<path d="M90.3726 205.52C94.1688 204.966 96.8685 207.526 98.5326 209.684C98.4118 210.033 98.4315 210.263 98.3877 210.641C97.9952 214.045 97.1047 215.414 96.1854 218.708C95.9877 219.417 94.7756 221.322 94.23 222.068L93.1915 223.444C93.1915 223.444 84.3613 223.639 83.6994 218.657C83.0375 213.676 74.6277 212.798 70.2307 211.783C67.5304 211.16 66.4957 210.011 65.5402 209.622C55.427 205.513 51.3145 207.584 48.8466 204.231C46.1228 200.525 50.356 196.937 47.6036 192.75C44.4979 188.023 37.0164 189.423 35.0753 184.292C34.7432 183.412 34.4255 182.499 34.4783 181.246C34.6081 178.152 37.024 176.423 35.39 173.629C32.107 168.014 32.753 160.825 39.0127 158.429C45.1908 156.064 53.073 163.888 56.5923 178.165C60.2549 188.033 62.1311 188.772 67.0194 189.66C70.4451 190.283 80.1455 189.702 81.8873 195.528C83.6292 201.353 86.0322 206.153 90.3726 205.52Z" fill="url(#paint1_linear_1_3844)"/>
<g style="mix-blend-mode:soft-light" opacity="0.5">
<g style="mix-blend-mode:soft-light" opacity="0.5">
<path d="M96.8974 217.069L96.7865 217.295C95.5307 216.697 94.2725 216.076 93.0469 215.451C83.9691 210.824 75.6884 205.453 68.4431 199.485C62.302 194.429 56.8122 188.874 52.1269 182.977C48.3586 178.235 45.0876 173.245 42.4054 168.147C40.5797 164.702 39.0119 161.126 37.7148 157.449C37.5012 156.836 37.3163 156.195 37.1374 155.575C36.899 154.749 36.6529 153.894 36.3359 153.101L36.5571 152.993C36.8778 153.798 37.1261 154.653 37.3661 155.49C37.5435 156.106 37.7276 156.745 37.939 157.351C39.2331 161.017 40.7971 164.583 42.6182 168.018C45.2937 173.103 48.5571 178.08 52.3163 182.811C56.9956 188.697 62.471 194.238 68.6008 199.285C75.8363 205.243 84.1005 210.606 93.1639 215.226C94.3865 215.849 95.6431 216.471 96.8974 217.069Z" fill="#FCFDFE"/>
</g>
<g style="mix-blend-mode:soft-light" opacity="0.5">
<path d="M58.3155 189.721L58.1457 189.905C51.0106 182.796 33.6763 181.452 33.502 181.435L33.5336 181.188C33.7087 181.201 51.1238 182.554 58.3155 189.721Z" fill="#FCFDFE"/>
</g>
<g style="mix-blend-mode:soft-light" opacity="0.5">
<path d="M80.0661 207.667L79.9151 207.869C74.4813 203.667 74.0526 189.756 74.0488 189.617L74.2873 189.594C74.2926 189.736 74.7213 203.531 80.0661 207.667Z" fill="#FCFDFE"/>
</g>
<g style="mix-blend-mode:soft-light" opacity="0.5">
<path d="M83.3638 209.76L83.2483 209.986C79.2483 207.972 72.6257 207.524 64.591 208.724C64.1865 208.784 64.1865 208.784 64.1465 208.765L64.2589 208.539L64.2031 208.651L64.2159 208.528C64.2423 208.528 64.3955 208.505 64.5721 208.478C72.6529 207.269 79.3261 207.725 83.3638 209.76Z" fill="#FCFDFE"/>
</g>
<g style="mix-blend-mode:soft-light" opacity="0.5">
<path d="M94.6239 215.941L94.4541 216.126C90.9296 212.644 91.7862 204.894 91.7952 204.816L92.0314 204.831C92.0224 204.905 91.1801 212.539 94.6239 215.941Z" fill="#FCFDFE"/>
</g>
<g style="mix-blend-mode:soft-light" opacity="0.5">
<path d="M96.7885 217.434C92.7742 217.137 88.47 218.038 83.6315 220.192L83.5508 219.966C88.4263 217.797 92.7666 216.888 96.821 217.188L96.7885 217.434Z" fill="#FCFDFE"/>
</g>
<g style="mix-blend-mode:soft-light" opacity="0.5">
<path d="M44.2458 170.989L44.067 171.164C40.3266 166.967 35.4035 163.525 33.7862 162.394C33.3945 162.121 33.2579 162.024 33.2148 161.981L33.3877 161.799C33.4201 161.831 33.6443 161.988 33.9273 162.186C35.5469 163.321 40.4888 166.773 44.2458 170.989Z" fill="#FCFDFE"/>
</g>
<g style="mix-blend-mode:soft-light" opacity="0.5">
<path d="M49.2968 178.819L49.0794 178.934C46.9111 174.019 50.77 163.425 50.9352 162.977L51.1564 163.052C51.1164 163.161 47.17 173.995 49.2968 178.819Z" fill="#FCFDFE"/>
</g>
</g>
<path d="M104.342 198.013C103.836 198.722 100.393 195.707 94.1729 195.207C92.6189 195.082 84.1903 193.815 80.9487 199.344C80.3203 200.417 79.6914 201.49 79.0619 202.562C76.0959 202.178 73.3721 201.266 74.2219 197.438C75.5419 191.494 66.9404 186.846 63.1072 186.665C58.3631 186.439 47.3389 185.684 49.2393 176.476C50.8242 168.805 53.3638 164.099 45.4853 159.394C37.6068 154.689 35.0483 147.381 39.7117 139.893C44.6174 132.012 37.9004 119.945 44.9555 115.073C57.2574 106.584 69.4838 126.464 67.0355 143.314C64.5872 160.164 73.8242 154.584 80.6831 157.672C81.5953 158.145 82.4481 158.726 83.2235 159.4C89.2763 164.677 86.5812 172.514 89.4484 180.707C93.3578 191.879 105.196 196.819 104.342 198.013Z" fill="url(#paint2_linear_1_3844)"/>
<g style="mix-blend-mode:soft-light" opacity="0.5">
<g style="mix-blend-mode:soft-light" opacity="0.5">
<path d="M83.8337 192.211L83.5568 192.55C60.368 173.216 47.1235 141.969 48.9907 111.003H49.4111C47.5514 141.842 60.7416 172.958 83.8337 192.211Z" fill="#FCFDFE"/>
</g>
<g style="mix-blend-mode:soft-light" opacity="0.5">
<path d="M72.1367 180.515L71.9284 180.899C61.4228 175.371 48.0945 180.506 47.961 180.558L47.8281 180.159C47.9632 180.105 61.4658 174.9 72.1367 180.515Z" fill="#FCFDFE"/>
</g>
<g style="mix-blend-mode:soft-light" opacity="0.5">
<path d="M79.67 188.529L79.3123 188.775C72.8292 178.532 82.5576 157.511 82.6603 157.3L83.0376 157.468C82.944 157.679 73.31 178.482 79.67 188.529Z" fill="#FCFDFE"/>
</g>
<g style="mix-blend-mode:soft-light" opacity="0.5">
<path d="M56.8023 154.902L56.4649 155.178C50.6347 147.567 35.8166 146.604 35.668 146.595L35.7148 146.166C35.8657 146.175 50.8687 147.151 56.8023 154.902Z" fill="#FCFDFE"/>
</g>
<g style="mix-blend-mode:soft-light" opacity="0.5">
<path d="M51.1314 136.162L50.7103 136.199C50.3563 124.933 60.4009 113.058 60.5028 112.939L60.8137 113.211C60.7126 113.328 50.7828 125.071 51.1314 136.162Z" fill="#FCFDFE"/>
</g>
</g>
<path d="M124.106 75.5902C130.264 127.628 136.421 179.124 142.578 230.076C142.854 232.361 141.276 234.378 139.068 234.569C114.323 236.917 89.577 239.316 64.8294 241.766C60.4158 241.98 57.9916 239.514 57.7071 237.045C51.3675 182.042 45.0301 126.463 38.695 70.3072C38.4105 67.785 40.5471 65.6174 44.9592 65.8325C69.8261 67.6056 94.6932 69.3553 119.561 71.0816C121.788 71.228 123.831 73.2559 124.106 75.5902Z" fill="#26264F"/>
<path d="M127.548 75.4837C133.744 127.749 139.94 179.464 146.136 230.63C146.414 232.922 144.826 234.954 142.604 235.143C116.909 237.32 91.2139 239.539 65.5193 241.801C63.1744 242.01 61.019 240.152 60.7329 237.671C54.3536 182.416 47.9752 126.578 41.5978 70.1569C41.3118 67.6241 43.0114 65.6799 45.3714 65.8399C71.2386 67.5657 97.1063 69.2706 122.974 70.9547C125.212 71.1033 127.267 73.1388 127.548 75.4837Z" fill="url(#paint3_linear_1_3844)"/>
<path d="M126.051 84.034C131.79 132.458 137.529 180.41 143.268 227.888C143.528 230.034 142.044 231.929 139.968 232.098C115.803 234.075 91.6384 236.087 67.4733 238.136C65.2899 238.323 63.2831 236.585 63.016 234.279C57.1196 183.245 51.223 131.712 45.3262 79.6792C45.0598 77.3253 46.6409 75.5034 48.8386 75.6332C73.1536 77.0491 97.4686 78.4501 121.784 79.8362C123.873 79.9555 125.793 81.8468 126.051 84.034Z" fill="url(#paint4_linear_1_3844)"/>
<path style="mix-blend-mode:multiply" opacity="0.3" d="M121.784 79.8362C97.7572 78.4672 73.7303 77.0835 49.7031 75.6853C50.5114 80.4012 51.9304 84.9917 53.9243 89.3411C61.8941 106.632 73.602 107.583 78.1831 122.651C82.9024 138.174 72.2594 143.032 77.4586 157.048C83.1009 172.257 96.9386 170.056 104.251 186.738C110.555 201.117 102.44 207.69 108.958 216.428C116.103 226.005 129.321 222.758 143.04 226.002C137.377 179.139 131.715 131.817 126.051 84.0355C125.793 81.8468 123.873 79.9555 121.784 79.8362Z" fill="url(#paint5_linear_1_3844)"/>
<path d="M86.6897 73.4537C86.7871 74.2952 86.2218 74.9405 85.4256 74.8944C84.6293 74.8484 83.9041 74.1223 83.8059 73.2763C83.7078 72.4302 84.2754 71.7842 85.0716 71.8363C85.8678 71.8884 86.5916 72.6099 86.6897 73.4537Z" fill="#DE8BDF"/>
<path d="M95.3682 120.248C98.4397 120.248 100.93 117.311 100.93 113.687C100.93 110.064 98.4397 107.127 95.3682 107.127C92.2966 107.127 89.8066 110.064 89.8066 113.687C89.8066 117.311 92.2966 120.248 95.3682 120.248Z" fill="url(#paint6_linear_1_3844)"/>
<path d="M117.507 120.248C120.578 120.248 123.068 117.311 123.068 113.687C123.068 110.064 120.578 107.127 117.507 107.127C114.435 107.127 111.945 110.064 111.945 113.687C111.945 117.311 114.435 120.248 117.507 120.248Z" fill="url(#paint7_linear_1_3844)"/>
<path d="M106.377 120.248C109.492 120.248 112.018 117.311 112.018 113.687C112.018 110.064 109.492 107.127 106.377 107.127C103.262 107.127 100.736 110.064 100.736 113.687C100.736 117.311 103.262 120.248 106.377 120.248Z" fill="#D8DEE8"/>
<path d="M139.644 120.248C142.715 120.248 145.205 117.311 145.205 113.687C145.205 110.064 142.715 107.127 139.644 107.127C136.572 107.127 134.082 110.064 134.082 113.687C134.082 117.311 136.572 120.248 139.644 120.248Z" fill="url(#paint8_linear_1_3844)"/>
<path d="M128.514 120.248C131.629 120.248 134.155 117.311 134.155 113.687C134.155 110.064 131.629 107.127 128.514 107.127C125.399 107.127 122.873 110.064 122.873 113.687C122.873 117.311 125.399 120.248 128.514 120.248Z" fill="#D8DEE8"/>
<path d="M150.651 120.248C153.766 120.248 156.291 117.311 156.291 113.687C156.291 110.064 153.766 107.127 150.651 107.127C147.535 107.127 145.01 110.064 145.01 113.687C145.01 117.311 147.535 120.248 150.651 120.248Z" fill="#D8DEE8"/>
<path d="M84.2384 120.248C87.3537 120.248 89.8792 117.311 89.8792 113.687C89.8792 110.064 87.3537 107.127 84.2384 107.127C81.1231 107.127 78.5977 110.064 78.5977 113.687C78.5977 117.311 81.1231 120.248 84.2384 120.248Z" fill="#D8DEE8"/>
<path d="M44.209 74.9842L78.7192 114.576H167.789L124.629 79.9985L44.209 74.9842Z" fill="url(#paint9_linear_1_3844)"/>
<path d="M44.209 74.9842L78.7192 114.576H89.8792L53.492 75.563L44.209 74.9842Z" fill="#F4F7FA"/>
<path d="M63.4609 76.1842L100.878 114.577H111.902L73.5017 76.8106L63.4609 76.1842Z" fill="#F4F7FA"/>
<path d="M83.6172 77.4414L122.953 114.576H134.03L93.8096 78.0769L83.6172 77.4414Z" fill="#F4F7FA"/>
<path d="M114.427 79.3623L104.078 78.717L145.134 114.577H156.265L114.427 79.3623Z" fill="#F4F7FA"/>
<path d="M156.275 114.576C156.644 117.778 158.964 120.249 161.78 120.249C164.595 120.249 166.912 117.778 167.284 114.576H156.275Z" fill="url(#paint10_linear_1_3844)"/>
<path opacity="0.63" d="M113.943 139.31C109.126 128.208 96.9053 122.816 86.6479 127.267C76.3906 131.719 71.9793 144.324 76.7966 155.427C81.614 166.531 93.8343 171.92 104.092 167.472C114.349 163.024 118.76 150.411 113.943 139.31ZM98.817 155.129L99.2283 158.256L96.2238 158.651L95.8404 155.738C93.7747 155.917 91.7098 155.627 90.4555 155.106L90.9038 151.398C92.2842 151.933 94.1777 152.34 96.171 152.077C97.9181 151.851 99.0253 151.015 98.8638 149.79C98.7128 148.624 97.6328 148.018 95.2638 147.549C91.8381 146.876 89.3989 145.637 89.0079 142.664C88.6532 139.966 90.2759 137.6 93.4721 136.525L93.0895 133.613L96.094 133.218L96.4479 135.916C98.5144 135.738 99.9506 135.986 101.027 136.344L100.593 139.925C99.7513 139.693 98.2487 139.17 96.0411 139.463C94.0479 139.725 93.5174 140.67 93.6261 141.526C93.7596 142.538 94.9166 143.041 97.6517 143.679C101.47 144.488 103.161 145.981 103.526 148.736C103.888 151.472 102.265 154.052 98.817 155.129Z" fill="#F4F7FA"/>
<g opacity="0.63">
<path opacity="0.63" d="M124.949 199.589L77.9978 201.012C77.1822 201.037 76.3857 200.762 75.7589 200.24C75.132 199.717 74.7182 198.983 74.5955 198.177L72.6921 185.66C72.6209 185.191 72.6505 184.713 72.7788 184.256C72.9071 183.799 73.1312 183.375 73.4363 183.012C73.7413 182.648 74.1203 182.354 74.5479 182.149C74.9755 181.943 75.442 181.831 75.9163 181.82L122.918 180.732C123.73 180.713 124.521 180.991 125.143 181.513C125.765 182.035 126.175 182.766 126.297 183.568L128.152 195.75C128.223 196.217 128.194 196.694 128.066 197.149C127.939 197.605 127.717 198.028 127.415 198.39C127.112 198.753 126.736 199.048 126.311 199.254C125.886 199.461 125.422 199.575 124.949 199.589V199.589Z" fill="#F4F7FA"/>
<path opacity="0.63" d="M126.528 209.879L79.604 211.485C78.7861 211.513 77.9864 211.239 77.3567 210.717C76.727 210.194 76.3112 209.458 76.1881 208.649L76.1708 208.531C76.0998 208.065 76.1286 207.588 76.2552 207.134C76.3818 206.679 76.6034 206.256 76.9054 205.893C77.2074 205.531 77.5828 205.236 78.007 205.029C78.4312 204.822 78.8945 204.707 79.3662 204.692L126.31 203.205C127.125 203.18 127.922 203.454 128.55 203.976C129.177 204.497 129.592 205.231 129.715 206.038V206.038C129.786 206.504 129.758 206.98 129.632 207.434C129.506 207.889 129.285 208.311 128.984 208.674C128.683 209.037 128.308 209.332 127.885 209.54C127.462 209.748 126.999 209.863 126.528 209.879V209.879Z" fill="#F4F7FA"/>
</g>
<path d="M228.642 140.161C229.455 140.366 230.305 140.381 231.125 140.205C232.254 139.957 233.879 139.202 233.882 138.311C233.882 137.884 233.51 137.737 232.995 137.116C231.922 135.823 232.185 134.833 231.623 133.851C230.39 131.697 226.137 131.254 225.47 132.308C225.192 132.747 225.537 133.446 226.17 134.734C226.819 136.055 227.28 136.356 227.83 137.462C228.245 138.312 228.519 139.223 228.642 140.161Z" fill="url(#paint11_linear_1_3844)"/>
<path d="M251.314 213.016L251.541 212.622C251.541 212.622 251.949 212.377 252.145 212.883C252.34 213.388 253.433 216.031 253.492 217.231C253.204 217.948 252.391 217.34 252.223 216.853C252.056 216.367 251.474 214.558 251.474 214.558L251.314 213.016Z" fill="url(#paint12_linear_1_3844)"/>
<path d="M248.728 214.902C249.068 214.898 249.407 214.902 249.748 214.885C250.371 214.857 250.997 214.812 251.627 214.749C251.521 214.095 251.416 213.441 251.311 212.787C250.991 212.665 250.677 212.542 250.37 212.419C250.213 212.355 250.064 212.292 249.911 212.229C249.757 212.165 249.619 212.109 249.478 212.05C249.271 211.962 249.07 211.873 248.87 211.785C248.79 211.75 248.707 211.715 248.628 211.68C248.393 211.574 248.164 211.469 247.938 211.363L247.822 211.31C247.578 211.195 247.339 211.079 247.105 210.964C247.089 210.955 247.071 210.946 247.054 210.938C246.808 210.816 246.568 210.693 246.333 210.57L246.323 210.566C245.847 210.314 245.394 210.063 244.965 209.811C239.647 206.703 237.888 203.547 237.342 201.066C235.818 194.084 243.283 189.601 241.354 182.03C239.902 176.325 233.769 171.44 229.992 172.58C225.727 173.863 225.059 182.133 224.647 187.221C224.184 192.949 223.666 199.33 227.332 205.047C230.803 210.459 237.068 213.79 244.28 214.677C244.452 214.697 244.627 214.707 244.8 214.725C245.218 214.77 245.635 214.816 246.059 214.844C246.253 214.856 246.45 214.857 246.645 214.867C247.059 214.887 247.471 214.909 247.888 214.914C248.169 214.92 248.453 214.907 248.728 214.902Z" fill="url(#paint13_linear_1_3844)"/>
<path style="mix-blend-mode:multiply" opacity="0.25" d="M248.728 214.902C249.068 214.898 249.407 214.902 249.748 214.885C250.371 214.857 250.997 214.812 251.627 214.749C251.521 214.095 251.416 213.441 251.311 212.787C250.991 212.665 250.677 212.542 250.37 212.419C250.213 212.355 250.064 212.292 249.911 212.229C249.757 212.165 249.619 212.109 249.478 212.05C249.271 211.962 249.07 211.873 248.87 211.785C248.79 211.75 248.707 211.715 248.628 211.68C248.393 211.574 248.164 211.469 247.938 211.363L247.822 211.31C247.578 211.195 247.339 211.079 247.105 210.964C247.089 210.955 247.071 210.946 247.054 210.938C246.808 210.816 246.568 210.693 246.333 210.57L246.323 210.566C245.847 210.314 245.394 210.063 244.965 209.811C239.647 206.703 237.888 203.547 237.342 201.066C235.818 194.084 243.283 189.601 241.354 182.03C239.902 176.325 233.769 171.44 229.992 172.58C225.727 173.863 225.059 182.133 224.647 187.221C224.184 192.949 223.666 199.33 227.332 205.047C230.803 210.459 237.068 213.79 244.28 214.677C244.452 214.697 244.627 214.707 244.8 214.725C245.218 214.77 245.635 214.816 246.059 214.844C246.253 214.856 246.45 214.857 246.645 214.867C247.059 214.887 247.471 214.909 247.888 214.914C248.169 214.92 248.453 214.907 248.728 214.902Z" fill="url(#paint14_linear_1_3844)"/>
<path d="M213.996 174.322C213.181 173.028 216.983 171.12 218.219 165.811C219.263 161.329 217.133 160.193 218.294 154.193C218.942 150.851 220.046 148.91 221.333 147.501C222.394 146.34 223.772 144.831 225.014 145.029C228.909 145.647 233.523 163.364 225.74 171.089C221.74 175.058 214.98 175.883 213.996 174.322Z" fill="url(#paint15_linear_1_3844)"/>
<path d="M234.443 230.415C234.265 230.007 233.291 231.033 232.382 232.118L232.733 236.797C232.37 236.554 231.969 236.373 231.545 236.262C230.994 236.135 230.042 236.334 229.969 236.597C229.516 238.224 233.573 238.579 234.017 238.068C234.148 237.917 234.245 237.74 234.304 237.549C234.363 237.358 234.382 237.157 234.36 236.959C233.948 234.615 234.003 233.028 234.197 231.932C234.335 231.17 234.541 230.642 234.443 230.415Z" fill="url(#paint16_linear_1_3844)"/>
<path d="M244.829 178.078C242.515 174.666 240.259 171.21 237.998 167.767C237.553 167.088 237.296 166.304 237.167 165.479C236.222 166.234 235.366 167.095 234.617 168.045C233.98 171.237 232.997 176.037 231.699 181.856C228.402 196.639 227.014 200.341 226.315 204.991C225.239 212.146 225.62 222.688 232.726 236.804L234.352 236.966C235.494 224.89 236.804 213.993 237.466 208.392C237.692 206.492 238.352 200.791 241.404 196.199C241.453 196.124 245.97 189.95 247.527 187.482C248.047 186.661 248.696 185.596 249.433 184.17C247.69 182.329 246.287 180.227 244.829 178.078Z" fill="url(#paint17_linear_1_3844)"/>
<path style="mix-blend-mode:multiply" opacity="0.25" d="M244.829 178.078C242.515 174.666 240.259 171.21 237.998 167.767C237.553 167.088 237.296 166.304 237.167 165.479C236.222 166.234 235.366 167.095 234.617 168.045C233.607 171.948 232.888 175.29 232.384 177.841C230.987 184.923 231.066 186.882 232.068 188.64C233.444 191.055 235.028 190.404 236.034 192.507C237.796 196.196 233.076 198.716 233.119 205.83C233.143 209.774 234.553 210.764 233.912 214.384C233.746 215.319 233.276 217.372 233.484 220.196C233.575 221.434 233.675 221.165 233.751 222.284C233.967 225.473 233.206 228.404 233.536 230.395C233.613 230.881 233.766 231.353 233.989 231.792C234.19 232.179 234.446 232.535 234.749 232.849C235.784 222.454 236.877 213.351 237.465 208.396C237.692 206.495 238.352 200.795 241.404 196.203C241.453 196.128 245.97 189.953 247.527 187.486C248.047 186.664 248.696 185.599 249.433 184.174C247.69 182.329 246.287 180.227 244.829 178.078Z" fill="url(#paint18_linear_1_3844)"/>
<path d="M220.885 148.241C219.429 150.909 219.595 153.565 219.752 154.731C220.232 158.23 222.275 160.56 222.961 161.442C225.261 164.397 227.055 170.242 224.2 183.055C225.801 182.799 228.438 182.552 231.51 183.192C239.324 184.82 242.443 190.623 246.192 189.565C247.576 189.174 249.455 187.734 250.766 182.352C251.912 179.553 255.481 169.843 251.823 158.427C249.208 150.254 244.172 145.208 241.678 143.019C239.534 142.297 232.839 140.346 226.469 143.43C224.882 144.195 222.416 145.434 220.885 148.241Z" fill="url(#paint19_linear_1_3844)"/>
<path d="M229.504 137.67C229.504 138.234 229.523 141.253 230.862 141.746C231.156 141.854 231.391 141.785 232.692 141.821C233.433 141.841 234.036 141.88 234.428 141.91C234.341 142.585 234.183 143.249 233.956 143.89C232.287 148.586 226.886 151.848 225.055 150.673C224.103 150.061 224.029 148.225 223.999 147.463C223.965 146.586 224.112 145.712 224.43 144.894C225.1 144.408 225.786 143.92 226.486 143.432C226.945 143.112 227.4 142.8 227.852 142.494C227.822 141.917 227.792 141.338 227.761 140.758L229.504 137.67Z" fill="url(#paint20_linear_1_3844)"/>
<path d="M229.988 139.698C229.988 139.698 228.375 141.585 226.344 140.906C224.525 140.298 225.473 135.617 226.887 135.048C227.359 134.858 228.236 134.913 228.831 135.261C229.249 135.507 230.76 136.788 230.172 138.335C230.619 138.07 231.077 138.045 231.342 138.265C231.429 138.347 231.493 138.451 231.525 138.567C231.659 139.113 231.067 139.604 229.988 139.698Z" fill="url(#paint21_linear_1_3844)"/>
<path style="mix-blend-mode:multiply" opacity="0.3" d="M251.823 158.422C249.775 152.031 246.252 147.561 243.619 144.864C240.6 146.859 237.531 149.562 237.787 152.461C238.079 155.759 242.485 157.122 242.074 159.208C241.477 162.231 231.879 161.086 230.759 164.416C229.439 168.336 240.82 175.71 240.211 176.545C239.775 177.142 234.541 172.922 228.6 173.903C227.491 174.096 226.434 174.515 225.494 175.135C225.282 177.427 224.871 180.045 224.201 183.051C225.803 182.794 228.44 182.548 231.511 183.188C239.325 184.816 242.444 190.619 246.193 189.561C247.577 189.17 249.456 187.729 250.767 182.348C251.913 179.547 255.482 169.84 251.823 158.422Z" fill="url(#paint22_linear_1_3844)"/>
<path d="M237.429 143.241C239.24 142.788 239.252 142.199 241.678 143.014C248.644 145.359 256.018 155.873 252.207 163.297C250.087 167.426 245.008 171.146 239.408 170.29C234.849 169.591 232.172 166.196 231.491 165.276C231.227 164.219 230.963 163.162 230.699 162.106C233.67 163.79 235.763 163.79 237.165 163.426C239.552 162.805 240.082 161.095 244.026 159.599C245.563 159.016 246.486 158.895 246.533 158.411C246.63 157.411 242.767 157.079 240.332 154.981C238.556 153.455 236.784 150.34 237.429 143.241Z" fill="url(#paint23_linear_1_3844)"/>
<path d="M230.908 162.95L230.078 162.711C230.078 162.711 229.016 161.967 228.334 161.667C228.088 161.552 227.819 161.494 227.548 161.499C227.548 161.499 225.09 160.481 225.62 161.071C225.95 161.433 226.336 161.739 226.763 161.977C226.759 161.996 226.751 162.013 226.74 162.028C226.731 162.043 226.725 162.053 226.715 162.068C226.66 162.151 226.622 162.245 226.604 162.342C226.453 162.809 226.483 163.607 228.113 164.041C228.505 164.144 228.997 164.152 229.423 164.13C229.869 164.106 231.331 164.64 231.331 164.64L230.908 162.95Z" fill="url(#paint24_linear_1_3844)"/>
<path d="M149.111 238.655C149.111 240.43 148.017 241.868 146.668 241.868C145.318 241.868 144.225 240.43 144.225 238.655C144.225 236.879 145.319 235.441 146.668 235.441C148.016 235.441 149.111 236.879 149.111 238.655Z" fill="url(#paint25_linear_1_3844)"/>
<path d="M149.791 239.019C149.791 240.794 148.698 242.232 147.348 242.232C145.999 242.232 144.906 240.792 144.906 239.019C144.906 237.245 146 235.805 147.349 235.805C148.699 235.805 149.791 237.242 149.791 239.019Z" fill="url(#paint26_linear_1_3844)"/>
<path d="M148.372 239.082C148.372 239.825 147.914 240.428 147.348 240.428C146.783 240.428 146.324 239.825 146.324 239.082C146.324 238.339 146.783 237.735 147.348 237.735C147.914 237.735 148.372 238.339 148.372 239.082Z" fill="url(#paint27_linear_1_3844)"/>
<path d="M146.668 235.095V238.624C146.668 238.872 146.767 239.111 146.943 239.287C147.119 239.463 147.357 239.562 147.606 239.562C147.753 239.561 147.898 239.526 148.029 239.459C148.161 239.393 148.274 239.296 148.361 239.177L151.531 234.831L146.668 235.095Z" fill="#C2C2C2"/>
<path d="M175.265 235.836C175.265 237.611 174.171 239.05 172.822 239.05C171.472 239.05 170.379 237.611 170.379 235.836C170.379 234.061 171.473 232.623 172.822 232.623C174.171 232.623 175.265 234.062 175.265 235.836Z" fill="url(#paint28_linear_1_3844)"/>
<path d="M175.947 236.199C175.947 237.974 174.853 239.413 173.504 239.413C172.154 239.413 171.061 237.974 171.061 236.199C171.061 234.424 172.154 232.986 173.504 232.986C174.853 232.986 175.947 234.424 175.947 236.199Z" fill="url(#paint29_linear_1_3844)"/>
<path d="M174.526 236.264C174.526 237.008 174.068 237.611 173.503 237.611C172.937 237.611 172.479 237.007 172.479 236.264C172.479 235.522 172.937 234.917 173.503 234.917C174.068 234.917 174.526 235.52 174.526 236.264Z" fill="url(#paint30_linear_1_3844)"/>
<path d="M172.822 232.276V235.805C172.822 236.054 172.921 236.293 173.097 236.469C173.273 236.645 173.512 236.743 173.76 236.743C173.908 236.743 174.053 236.708 174.184 236.641C174.315 236.574 174.428 236.477 174.515 236.358L177.689 232.013L172.822 232.276Z" fill="#C2C2C2"/>
<path d="M146.304 235.307C146.224 235.311 146.145 235.284 146.085 235.23C146.025 235.177 145.989 235.102 145.985 235.022C145.98 234.942 146.008 234.863 146.061 234.803C146.115 234.744 146.19 234.707 146.27 234.703L177.245 231.212C178.151 231.053 178.992 230.638 179.671 230.017C180.35 229.396 180.837 228.594 181.077 227.706L194.052 179.396C194.372 178.209 195.053 177.151 196.003 176.37C196.952 175.589 198.121 175.124 199.348 175.039L208.766 174.477C208.846 174.472 208.924 174.5 208.985 174.553C209.045 174.606 209.081 174.681 209.086 174.761C209.091 174.841 209.063 174.92 209.01 174.98C208.957 175.04 208.882 175.076 208.802 175.081L199.386 175.642C198.287 175.719 197.238 176.137 196.388 176.837C195.537 177.538 194.926 178.487 194.64 179.551L181.665 227.858C181.393 228.861 180.841 229.766 180.074 230.466C179.306 231.166 178.354 231.631 177.33 231.809L146.34 235.305L146.304 235.307Z" fill="#C2C2C2"/>
<path d="M167.849 216.29C167.783 216.29 167.719 216.269 167.666 216.229C167.613 216.189 167.575 216.133 167.557 216.069L160.264 190.546C160.253 190.508 160.249 190.468 160.254 190.428C160.259 190.388 160.271 190.35 160.29 190.315C160.31 190.28 160.336 190.25 160.367 190.225C160.398 190.2 160.434 190.182 160.473 190.171C160.511 190.16 160.551 190.156 160.591 190.161C160.631 190.165 160.669 190.178 160.704 190.197C160.739 190.217 160.77 190.243 160.794 190.274C160.819 190.305 160.838 190.341 160.849 190.38L168.142 215.903C168.154 215.941 168.157 215.982 168.153 216.021C168.149 216.061 168.136 216.1 168.117 216.135C168.097 216.17 168.071 216.201 168.04 216.226C168.008 216.251 167.972 216.269 167.933 216.28C167.906 216.287 167.878 216.29 167.849 216.29Z" fill="#C2C2C2"/>
<path d="M175.314 215.223C175.242 215.224 175.172 215.199 175.117 215.153C175.061 215.107 175.024 215.043 175.012 214.972L170.513 189.689C170.498 189.61 170.516 189.528 170.563 189.462C170.609 189.396 170.679 189.351 170.759 189.337C170.838 189.323 170.92 189.341 170.986 189.387C171.052 189.433 171.097 189.504 171.111 189.583L175.61 214.866C175.618 214.905 175.617 214.945 175.609 214.985C175.6 215.024 175.584 215.061 175.561 215.093C175.538 215.126 175.509 215.154 175.475 215.176C175.442 215.197 175.404 215.211 175.364 215.218C175.348 215.221 175.331 215.223 175.314 215.223Z" fill="#C2C2C2"/>
<path d="M179.95 214.394H179.937C179.897 214.392 179.858 214.383 179.822 214.366C179.786 214.35 179.753 214.326 179.726 214.297C179.699 214.267 179.678 214.233 179.665 214.195C179.651 214.158 179.645 214.118 179.647 214.078L180.685 189.063C180.685 189.022 180.694 188.983 180.711 188.946C180.727 188.91 180.751 188.877 180.78 188.849C180.81 188.822 180.845 188.801 180.883 188.788C180.92 188.774 180.961 188.769 181.001 188.771C181.041 188.773 181.08 188.782 181.117 188.799C181.153 188.815 181.186 188.839 181.213 188.869C181.24 188.898 181.261 188.933 181.275 188.971C181.288 189.008 181.294 189.048 181.292 189.088L180.254 214.103C180.251 214.181 180.218 214.255 180.161 214.31C180.104 214.364 180.029 214.394 179.95 214.394Z" fill="#C2C2C2"/>
<path d="M157.675 217.224C157.611 217.225 157.549 217.205 157.497 217.167C157.445 217.13 157.407 217.077 157.387 217.017L148.822 191.482C148.797 191.406 148.803 191.323 148.839 191.25C148.874 191.178 148.938 191.123 149.014 191.098C149.091 191.072 149.174 191.078 149.246 191.114C149.318 191.15 149.373 191.213 149.399 191.289L157.963 216.824C157.976 216.861 157.981 216.901 157.978 216.941C157.976 216.981 157.965 217.02 157.947 217.056C157.929 217.092 157.905 217.124 157.874 217.15C157.844 217.176 157.809 217.196 157.771 217.208C157.74 217.219 157.708 217.224 157.675 217.224Z" fill="#C2C2C2"/>
<path d="M230.773 176.971C230.756 176.971 230.739 176.971 230.721 176.971L209.165 175.235C209.085 175.23 209.006 175.209 208.933 175.173C208.861 175.137 208.796 175.087 208.743 175.026C208.691 174.964 208.65 174.893 208.625 174.816C208.6 174.739 208.591 174.658 208.598 174.577C208.605 174.497 208.627 174.418 208.665 174.346C208.702 174.275 208.754 174.211 208.816 174.16C208.879 174.108 208.951 174.069 209.028 174.046C209.105 174.022 209.187 174.015 209.267 174.023L230.823 175.759C230.984 175.766 231.136 175.836 231.245 175.954C231.354 176.073 231.412 176.23 231.405 176.391C231.398 176.552 231.328 176.704 231.21 176.813C231.091 176.922 230.934 176.98 230.773 176.973V176.971Z" fill="url(#paint31_linear_1_3844)"/>
<path d="M172.058 247.419C172.058 249.194 170.965 250.633 169.615 250.633C168.266 250.633 167.17 249.194 167.17 247.419C167.17 245.644 168.264 244.206 169.613 244.206C170.962 244.206 172.058 245.645 172.058 247.419Z" fill="url(#paint32_linear_1_3844)"/>
<path d="M172.74 247.782C172.74 249.557 171.645 250.995 170.297 250.995C168.948 250.995 167.854 249.557 167.854 247.782C167.854 246.007 168.947 244.568 170.297 244.568C171.646 244.568 172.74 246.007 172.74 247.782Z" fill="url(#paint33_linear_1_3844)"/>
<path d="M171.321 247.849C171.321 248.592 170.863 249.195 170.297 249.195C169.731 249.195 169.273 248.591 169.273 247.849C169.273 247.106 169.732 246.502 170.297 246.502C170.862 246.502 171.321 247.103 171.321 247.849Z" fill="url(#paint34_linear_1_3844)"/>
<path d="M169.615 243.86V247.388C169.615 247.511 169.639 247.633 169.686 247.747C169.734 247.861 169.803 247.965 169.89 248.052C169.977 248.139 170.08 248.208 170.194 248.255C170.308 248.302 170.43 248.326 170.553 248.326C170.701 248.326 170.846 248.291 170.977 248.224C171.108 248.157 171.221 248.06 171.308 247.941L174.482 243.596L169.615 243.86Z" fill="#999999"/>
<path d="M194.702 245.152C194.702 246.927 193.608 248.366 192.259 248.366C190.911 248.366 189.816 246.927 189.816 245.152C189.816 243.378 190.91 241.939 192.259 241.939C193.609 241.939 194.702 243.377 194.702 245.152Z" fill="url(#paint35_linear_1_3844)"/>
<path d="M195.384 245.514C195.384 247.29 194.29 248.729 192.942 248.729C191.593 248.729 190.498 247.29 190.498 245.514C190.498 243.739 191.592 242.301 192.942 242.301C194.291 242.301 195.384 243.74 195.384 245.514Z" fill="url(#paint36_linear_1_3844)"/>
<path d="M193.963 245.58C193.963 246.323 193.505 246.926 192.939 246.926C192.374 246.926 191.916 246.323 191.916 245.58C191.916 244.837 192.374 244.233 192.939 244.233C193.505 244.233 193.963 244.836 193.963 245.58Z" fill="url(#paint37_linear_1_3844)"/>
<path d="M192.26 241.592V245.122C192.26 245.37 192.359 245.609 192.535 245.785C192.71 245.961 192.949 246.06 193.198 246.06C193.345 246.059 193.49 246.024 193.621 245.957C193.752 245.89 193.866 245.794 193.953 245.675L197.122 241.328L192.26 241.592Z" fill="#999999"/>
<path d="M136.667 192.275C136.627 192.276 136.587 192.27 136.55 192.256C136.513 192.242 136.479 192.221 136.45 192.194C136.421 192.167 136.397 192.135 136.381 192.098C136.364 192.062 136.355 192.023 136.354 191.984C136.352 191.944 136.359 191.905 136.372 191.867C136.386 191.83 136.407 191.796 136.434 191.767C136.461 191.738 136.494 191.715 136.53 191.698C136.566 191.682 136.605 191.672 136.645 191.671L191.811 187.698C191.836 187.697 191.861 187.698 191.886 187.702L214.724 191.592C214.763 191.598 214.801 191.613 214.835 191.634C214.868 191.655 214.898 191.683 214.921 191.715C214.944 191.748 214.96 191.785 214.969 191.824C214.978 191.863 214.979 191.903 214.973 191.942C214.966 191.982 214.952 192.019 214.93 192.053C214.909 192.087 214.881 192.116 214.849 192.139C214.816 192.162 214.779 192.179 214.741 192.188C214.702 192.196 214.661 192.198 214.622 192.191L191.821 188.307L136.691 192.275L136.667 192.275Z" fill="#C2C2C2"/>
<path d="M155.411 197.966C155.381 197.966 155.352 197.962 155.323 197.953L136.579 192.262C136.502 192.239 136.437 192.186 136.399 192.114C136.361 192.043 136.353 191.96 136.376 191.883C136.4 191.806 136.453 191.741 136.524 191.703C136.595 191.665 136.678 191.657 136.756 191.68L155.442 197.354L214.642 191.587C214.681 191.584 214.721 191.588 214.759 191.599C214.797 191.611 214.833 191.63 214.864 191.655C214.894 191.68 214.92 191.711 214.939 191.747C214.957 191.782 214.969 191.82 214.973 191.86C214.977 191.899 214.973 191.94 214.961 191.978C214.95 192.016 214.931 192.051 214.905 192.082C214.88 192.113 214.849 192.138 214.814 192.157C214.779 192.176 214.74 192.187 214.7 192.191L155.441 197.963L155.411 197.966Z" fill="#999999"/>
<path d="M207.534 218.101C207.518 218.102 207.503 218.102 207.487 218.101L184.972 214.641L150.741 217.936C150.66 217.944 150.581 217.92 150.519 217.869C150.456 217.817 150.417 217.744 150.41 217.664C150.402 217.583 150.426 217.504 150.477 217.442C150.529 217.38 150.602 217.34 150.682 217.333L184.952 214.035C184.977 214.031 185.002 214.031 185.027 214.035L207.58 217.494C207.62 217.497 207.658 217.508 207.694 217.526C207.729 217.544 207.761 217.569 207.787 217.599C207.813 217.629 207.832 217.664 207.845 217.702C207.857 217.74 207.862 217.779 207.859 217.819C207.856 217.859 207.845 217.897 207.827 217.933C207.809 217.968 207.784 218 207.754 218.026C207.724 218.052 207.689 218.071 207.651 218.084C207.613 218.096 207.574 218.101 207.534 218.098V218.101Z" fill="#C2C2C2"/>
<path d="M166.787 221.976C166.73 221.976 166.673 221.96 166.625 221.929C166.576 221.898 166.537 221.854 166.513 221.802L155.137 197.791C155.12 197.755 155.11 197.716 155.108 197.676C155.106 197.637 155.112 197.597 155.125 197.559C155.152 197.483 155.208 197.421 155.281 197.387C155.354 197.352 155.438 197.348 155.514 197.375C155.59 197.402 155.652 197.458 155.686 197.531L166.971 221.348L207.506 217.494C207.545 217.49 207.585 217.494 207.624 217.506C207.662 217.518 207.697 217.537 207.728 217.562C207.759 217.587 207.784 217.618 207.803 217.654C207.821 217.689 207.833 217.727 207.837 217.767C207.841 217.807 207.837 217.847 207.825 217.885C207.813 217.923 207.794 217.958 207.769 217.989C207.744 218.02 207.712 218.045 207.677 218.064C207.642 218.082 207.604 218.094 207.564 218.098L166.817 221.972L166.787 221.976Z" fill="#999999"/>
<path d="M166.788 221.976C166.763 221.976 166.737 221.973 166.712 221.967L150.637 217.93C150.596 217.92 150.558 217.902 150.524 217.875C150.491 217.85 150.464 217.817 150.444 217.78L136.399 192.115C136.38 192.08 136.367 192.041 136.363 192.002C136.359 191.962 136.362 191.922 136.374 191.883C136.385 191.845 136.403 191.809 136.428 191.778C136.453 191.747 136.484 191.721 136.519 191.702C136.554 191.683 136.593 191.671 136.633 191.666C136.672 191.662 136.713 191.666 136.751 191.677C136.789 191.688 136.825 191.707 136.856 191.732C136.887 191.757 136.913 191.788 136.932 191.823L150.914 217.371L166.86 221.371C166.939 221.381 167.011 221.422 167.06 221.486C167.11 221.549 167.132 221.629 167.122 221.709C167.112 221.788 167.07 221.86 167.007 221.909C166.944 221.959 166.864 221.98 166.784 221.97L166.788 221.976Z" fill="#999999"/>
<path d="M159.548 206.699C159.519 206.699 159.49 206.695 159.463 206.687L141.812 201.51C141.735 201.487 141.67 201.434 141.631 201.364C141.592 201.293 141.583 201.21 141.606 201.132C141.629 201.055 141.681 200.99 141.752 200.951C141.823 200.912 141.906 200.904 141.983 200.926L159.582 206.084L211.774 201.535C211.854 201.528 211.934 201.553 211.995 201.605C212.057 201.657 212.096 201.731 212.103 201.811C212.11 201.891 212.084 201.97 212.033 202.032C211.981 202.094 211.907 202.132 211.827 202.139L159.579 206.696L159.548 206.699Z" fill="#999999"/>
<path d="M163.862 215.802C163.834 215.801 163.807 215.798 163.78 215.79L146.868 211.052C146.83 211.041 146.794 211.023 146.763 210.998C146.731 210.974 146.705 210.943 146.685 210.909C146.666 210.874 146.653 210.835 146.649 210.796C146.644 210.756 146.647 210.716 146.658 210.678C146.668 210.639 146.687 210.603 146.711 210.572C146.736 210.541 146.767 210.514 146.801 210.495C146.836 210.475 146.874 210.463 146.914 210.458C146.954 210.453 146.994 210.456 147.032 210.467L163.891 215.19L209.218 211.225C209.258 211.221 209.298 211.226 209.336 211.238C209.374 211.25 209.409 211.269 209.44 211.295C209.47 211.32 209.495 211.352 209.514 211.387C209.532 211.422 209.543 211.461 209.547 211.5C209.55 211.54 209.546 211.58 209.534 211.618C209.522 211.656 209.503 211.691 209.477 211.722C209.451 211.752 209.42 211.777 209.385 211.796C209.35 211.814 209.311 211.825 209.271 211.829L163.889 215.799L163.862 215.802Z" fill="#999999"/>
<path d="M175.107 221.185C175.042 221.185 174.978 221.164 174.925 221.125C174.873 221.086 174.834 221.03 174.816 220.967L167.561 196.628C167.538 196.55 167.547 196.467 167.585 196.396C167.624 196.325 167.689 196.273 167.766 196.25C167.843 196.227 167.927 196.235 167.997 196.274C168.068 196.312 168.121 196.377 168.144 196.454L175.398 220.794C175.41 220.832 175.414 220.872 175.41 220.912C175.406 220.951 175.394 220.99 175.375 221.025C175.356 221.06 175.33 221.091 175.299 221.116C175.268 221.141 175.232 221.16 175.194 221.171C175.166 221.18 175.137 221.184 175.107 221.185Z" fill="#999999"/>
<path d="M183.132 220.421C183.06 220.422 182.99 220.398 182.935 220.352C182.88 220.306 182.843 220.241 182.83 220.171L178.479 195.511C178.472 195.471 178.473 195.431 178.482 195.392C178.49 195.353 178.507 195.316 178.53 195.284C178.552 195.251 178.581 195.223 178.615 195.202C178.649 195.18 178.686 195.166 178.726 195.159C178.765 195.152 178.805 195.153 178.844 195.161C178.883 195.17 178.92 195.186 178.953 195.209C178.985 195.232 179.013 195.261 179.035 195.295C179.056 195.328 179.071 195.366 179.078 195.405L183.43 220.065C183.437 220.104 183.436 220.145 183.427 220.184C183.419 220.223 183.403 220.26 183.38 220.292C183.357 220.325 183.328 220.353 183.294 220.374C183.26 220.396 183.222 220.41 183.183 220.417C183.166 220.419 183.149 220.421 183.132 220.421Z" fill="#999999"/>
<path d="M192.183 219.392C192.106 219.392 192.031 219.362 191.975 219.309C191.919 219.255 191.885 219.182 191.881 219.105L190.51 194.619C190.508 194.579 190.514 194.539 190.527 194.502C190.54 194.464 190.561 194.429 190.587 194.399C190.614 194.37 190.646 194.345 190.682 194.328C190.718 194.311 190.757 194.301 190.797 194.298C190.837 194.296 190.877 194.302 190.915 194.315C190.952 194.328 190.987 194.349 191.017 194.375C191.047 194.402 191.071 194.434 191.088 194.47C191.105 194.506 191.116 194.545 191.118 194.585L192.488 219.071C192.491 219.111 192.485 219.151 192.472 219.189C192.459 219.226 192.439 219.261 192.412 219.291C192.385 219.321 192.353 219.345 192.317 219.362C192.281 219.379 192.242 219.389 192.202 219.391L192.183 219.392Z" fill="#999999"/>
<path d="M200.76 218.431H200.743C200.703 218.429 200.664 218.42 200.628 218.403C200.592 218.386 200.559 218.362 200.532 218.332C200.505 218.303 200.484 218.268 200.471 218.231C200.457 218.193 200.451 218.153 200.454 218.113L201.759 193.237C201.763 193.157 201.799 193.082 201.858 193.028C201.918 192.974 201.996 192.947 202.076 192.951C202.156 192.955 202.232 192.991 202.285 193.05C202.339 193.11 202.367 193.188 202.362 193.268L201.057 218.145C201.053 218.221 201.02 218.293 200.965 218.346C200.91 218.399 200.837 218.43 200.76 218.431Z" fill="#999999"/>
<path d="M161.926 220.755C161.868 220.755 161.812 220.739 161.764 220.708C161.715 220.678 161.676 220.634 161.652 220.582L149.926 196.211C149.892 196.139 149.887 196.055 149.914 195.979C149.94 195.903 149.996 195.841 150.069 195.806C150.141 195.771 150.225 195.766 150.301 195.793C150.377 195.819 150.439 195.875 150.474 195.948L162.2 220.319C162.223 220.366 162.234 220.417 162.231 220.469C162.228 220.52 162.213 220.57 162.185 220.614C162.158 220.658 162.119 220.694 162.074 220.719C162.028 220.743 161.978 220.756 161.926 220.755V220.755Z" fill="#999999"/>
<path d="M155.411 219.119C155.355 219.119 155.299 219.104 155.251 219.074C155.203 219.044 155.164 219.002 155.139 218.951L142.692 194.019C142.674 193.983 142.664 193.944 142.661 193.904C142.658 193.864 142.663 193.824 142.676 193.786C142.688 193.749 142.708 193.714 142.735 193.683C142.761 193.653 142.793 193.629 142.828 193.611C142.864 193.593 142.903 193.582 142.943 193.579C142.983 193.577 143.023 193.582 143.061 193.594C143.098 193.607 143.133 193.627 143.164 193.653C143.194 193.679 143.218 193.711 143.236 193.747L155.683 218.68C155.701 218.715 155.712 218.754 155.715 218.794C155.718 218.834 155.713 218.874 155.7 218.912C155.687 218.95 155.667 218.985 155.641 219.015C155.614 219.045 155.582 219.07 155.546 219.087C155.504 219.108 155.458 219.119 155.411 219.119Z" fill="#999999"/>
<path d="M169.493 244.51C169.454 244.51 169.417 244.503 169.381 244.489L146.189 235.286C146.114 235.256 146.054 235.197 146.023 235.123C145.991 235.048 145.99 234.965 146.02 234.89C146.05 234.815 146.108 234.755 146.183 234.723C146.257 234.691 146.341 234.69 146.416 234.72L169.533 243.895L197.591 240.467C198.628 240.343 199.604 239.912 200.394 239.23C201.185 238.548 201.754 237.645 202.029 236.638L217.364 180.97C217.689 179.795 218.369 178.75 219.311 177.976C220.254 177.203 221.412 176.74 222.628 176.65L230.764 176.06C230.844 176.054 230.923 176.08 230.984 176.133C231.044 176.185 231.082 176.26 231.087 176.34C231.093 176.42 231.067 176.499 231.014 176.56C230.962 176.62 230.887 176.658 230.807 176.664L222.672 177.254C221.581 177.334 220.542 177.75 219.697 178.443C218.851 179.137 218.241 180.075 217.949 181.129L202.616 236.797C202.309 237.92 201.674 238.927 200.792 239.688C199.91 240.448 198.821 240.929 197.665 241.067L169.53 244.504C169.517 244.507 169.505 244.509 169.493 244.51Z" fill="#999999"/>
<path d="M216.048 174.367C216.048 174.367 213.898 172.474 211.787 173.167C211.485 173.265 210.957 173.473 210.674 174.007C210.372 174.583 210.481 175.333 210.863 175.806C211.409 176.485 212.457 176.485 213.476 175.579C213.385 175.556 212.792 175.839 212.646 175.341C212.606 175.186 212.608 175.023 212.653 174.869C212.919 174.038 215.849 174.36 216.048 174.367Z" fill="url(#paint38_linear_1_3844)"/>
<path d="M70.8489 207.076C70.7134 207.076 70.5829 207.025 70.4827 206.934C70.3825 206.843 70.3199 206.718 70.307 206.583C69.83 201.575 68.1938 196.815 65.7092 193.183C63.5047 189.965 60.879 188.044 58.6904 188.044H58.6828C50.6979 188.06 49.0277 206.393 49.0118 206.578C49.0058 206.649 48.9857 206.718 48.9527 206.782C48.9198 206.845 48.8747 206.902 48.82 206.948C48.7652 206.994 48.702 207.029 48.6337 207.051C48.5655 207.072 48.4937 207.08 48.4224 207.074C48.3511 207.068 48.2817 207.048 48.2181 207.015C48.1546 206.982 48.0981 206.937 48.052 206.882C48.0059 206.828 47.971 206.764 47.9494 206.696C47.9277 206.628 47.9197 206.556 47.9258 206.485C47.9937 205.688 49.7032 186.972 58.6805 186.954H58.6904C61.2805 186.954 64.1666 188.999 66.6104 192.567C69.2006 196.349 70.8994 201.29 71.3938 206.479C71.4006 206.551 71.3934 206.623 71.3725 206.691C71.3515 206.76 71.3173 206.823 71.2717 206.878C71.2262 206.934 71.1702 206.979 71.1069 207.013C71.0437 207.047 70.9745 207.067 70.9032 207.074C70.8843 207.076 70.8685 207.076 70.8489 207.076Z" fill="url(#paint39_linear_1_3844)"/>
<path d="M37.5842 244.807L48.0959 250.128L54.4649 230.585L43.9743 204.383L40.9985 205.112L36.4838 242.743C36.433 243.158 36.5114 243.579 36.7083 243.948C36.9052 244.318 37.211 244.617 37.5842 244.807Z" fill="url(#paint40_linear_1_3844)"/>
<path style="mix-blend-mode:multiply" opacity="0.52" d="M54.4643 230.584L43.9738 204.383L42.2183 204.814C42.0183 207.635 42.0281 210.468 42.2477 213.288C42.9443 222.208 45.2839 224.691 44.1519 230.914C43.2107 236.088 41.1557 236.791 41.3353 240.272C41.5307 244.064 44.1753 247.24 47.3194 249.737L48.0953 250.129L54.4643 230.584Z" fill="url(#paint41_linear_1_3844)"/>
<path d="M43.9688 204.383H83.1612L96.1325 246.257L48.094 250.128L43.9688 204.383Z" fill="url(#paint42_linear_1_3844)"/>
<path d="M56.1098 207.972C55.9873 207.972 55.8685 207.93 55.7726 207.854C55.6767 207.778 55.6094 207.671 55.5815 207.552C55.4698 207.076 52.8947 195.854 56.5257 190.35C57.5664 188.772 59.0162 187.808 60.8472 187.482C70.2328 185.828 76.0117 205.987 76.2532 206.846C76.2924 206.985 76.2746 207.135 76.2038 207.261C76.1331 207.387 76.0151 207.48 75.8759 207.519C75.7367 207.558 75.5876 207.54 75.4615 207.469C75.3354 207.399 75.2426 207.281 75.2034 207.141C75.1468 206.941 69.4585 187.066 61.0366 188.556C59.4947 188.827 58.3196 189.612 57.4359 190.946C54.0608 196.065 56.6162 207.187 56.6426 207.299C56.6614 207.379 56.6619 207.462 56.6441 207.542C56.6263 207.622 56.5907 207.697 56.5399 207.761C56.4891 207.826 56.4245 207.878 56.3508 207.913C56.2771 207.949 56.1963 207.968 56.1143 207.969L56.1098 207.972Z" fill="url(#paint43_linear_1_3844)"/>
<g style="mix-blend-mode:multiply" opacity="0.3">
<path style="mix-blend-mode:multiply" opacity="0.3" d="M83.1622 204.383H63.7191C62.7606 205.358 62.0799 206.483 62.015 207.743C61.7093 213.669 75.3297 215.614 76.6429 223.735C77.5908 229.592 71.7599 236.351 66.5576 239.362C61.0769 242.532 57.3629 240.928 53.652 244.451C52.0233 245.998 51.0316 247.933 50.4414 249.939L96.1297 246.257L83.1622 204.383Z" fill="url(#paint44_linear_1_3844)"/>
</g>
<path d="M56.1136 209.578C56.9552 209.578 57.6374 208.896 57.6374 208.054C57.6374 207.213 56.9552 206.53 56.1136 206.53C55.2721 206.53 54.5898 207.213 54.5898 208.054C54.5898 208.896 55.2721 209.578 56.1136 209.578Z" fill="url(#paint45_linear_1_3844)"/>
<path d="M76.5662 209.321C77.3436 208.999 77.7128 208.108 77.3908 207.33C77.0688 206.553 76.1774 206.183 75.3999 206.505C74.6225 206.828 74.2533 207.719 74.5753 208.496C74.8973 209.274 75.7887 209.643 76.5662 209.321Z" fill="url(#paint46_linear_1_3844)"/>
<path d="M120.708 69.4385L185.689 70.7525L200.431 71.0484C203.484 71.1102 205.963 68.6333 205.963 65.6597V49.9767C205.963 47.0023 203.506 44.4906 200.453 44.3729L120.85 41.305C119.822 41.265 118.731 41.4612 117.875 41.8423C115.893 42.7246 114.418 44.5925 114.418 46.7985V63.4718C114.418 66.631 117.297 69.3691 120.708 69.4385Z" fill="#97A6B7"/>
<path d="M207.152 49.939V65.6371C207.152 68.6137 204.673 70.9851 201.615 70.9202L121.928 69.3028C118.512 69.2334 115.721 66.6017 115.721 63.4379V46.7533C115.721 44.5458 117.079 42.6779 119.066 41.7933C119.966 41.3966 120.945 41.2119 121.928 41.2537L201.615 44.3269C204.673 44.4454 207.152 46.9624 207.152 49.939Z" fill="#D8DEE8"/>
<path d="M206.509 49.7705C206.509 47.1773 204.183 44.9932 201.52 44.8913L121.702 41.8535C118.728 41.7396 116.059 43.8784 116.059 46.6324V63.0988C116.059 65.852 118.639 68.135 121.613 68.1977L201.441 69.8701C204.105 69.9267 206.509 67.8694 206.509 65.2769V49.7705Z" fill="white"/>
<path d="M149.369 52.652L150.932 55.4965L154.399 56.0052C154.771 56.0596 154.919 56.4709 154.65 56.7018L152.151 58.846L152.743 61.9335C152.807 62.2663 152.416 62.5177 152.08 62.3584L148.958 60.8754L145.804 62.3192C145.461 62.4754 145.06 62.2165 145.124 61.8799L145.728 58.7697L143.152 56.5237C142.873 56.2799 143.027 55.8656 143.413 55.8226L146.961 55.4279L148.536 52.6354C148.709 52.3335 149.199 52.3441 149.369 52.652Z" fill="url(#paint47_linear_1_3844)"/>
<path d="M162.398 52.9366L163.896 55.7215L167.221 56.2174C167.578 56.2709 167.72 56.6702 167.462 56.8966L165.062 58.9977L165.63 62.0166C165.691 62.3434 165.316 62.5894 164.994 62.4332L162.001 60.9819L158.977 62.3955C158.648 62.5464 158.264 62.2951 158.327 61.966L158.908 58.92L156.439 56.7223C156.172 56.4838 156.319 56.0785 156.69 56.0362L160.093 55.6483L161.602 52.9125C161.765 52.6242 162.235 52.6347 162.398 52.9366Z" fill="url(#paint48_linear_1_3844)"/>
<path d="M174.894 53.2076L176.332 55.9351L179.523 56.4204C179.866 56.4725 180.002 56.8672 179.755 57.0883L177.451 59.1472L177.996 62.1087C178.055 62.4287 177.694 62.6695 177.386 62.517L174.513 61.0951L171.612 62.4808C171.297 62.6317 170.928 62.3819 170.989 62.0597L171.546 59.077L169.178 56.9245C168.921 56.6913 169.063 56.2936 169.418 56.2528L172.683 55.8755L174.131 53.1947C174.287 52.9057 174.738 52.914 174.894 53.2076Z" fill="url(#paint49_linear_1_3844)"/>
<path d="M186.89 53.4709L188.271 56.1427L191.337 56.6174C191.666 56.6687 191.798 57.0551 191.559 57.2725L189.346 59.2913L189.87 62.1932C189.927 62.5065 189.58 62.7434 189.284 62.5932L186.524 61.2008L183.739 62.5593C183.437 62.7102 183.083 62.4634 183.14 62.1472L183.675 59.2242L181.402 57.1162C181.346 57.0666 181.306 57.0014 181.288 56.929C181.269 56.8566 181.272 56.7803 181.297 56.7097C181.321 56.6391 181.366 56.5774 181.426 56.5325C181.486 56.4876 181.558 56.4614 181.632 56.4574L184.767 56.08L186.158 53.4528C186.308 53.1713 186.741 53.1811 186.89 53.4709Z" fill="url(#paint50_linear_1_3844)"/>
<path d="M198.416 53.7224L199.744 56.3412L202.687 56.8061C202.757 56.8158 202.822 56.8447 202.876 56.8898C202.931 56.9348 202.971 56.9941 202.993 57.0609C203.016 57.1277 203.019 57.1994 203.002 57.2679C202.986 57.3364 202.951 57.3989 202.9 57.4484L200.773 59.428L201.276 62.2733C201.287 62.3438 201.277 62.4159 201.249 62.4813C201.221 62.5468 201.175 62.603 201.116 62.6438C201.058 62.6846 200.989 62.7082 200.918 62.7121C200.847 62.716 200.776 62.6999 200.713 62.6658L198.06 61.3005L195.383 62.6318C195.093 62.7767 194.753 62.5382 194.808 62.228L195.322 59.3601L193.138 57.2952C193.085 57.2462 193.047 57.1828 193.029 57.1127C193.011 57.0426 193.014 56.9688 193.038 56.9003C193.061 56.8318 193.104 56.7716 193.161 56.727C193.218 56.6824 193.286 56.6553 193.359 56.6492L196.371 56.2809L197.708 53.7043C197.744 53.6406 197.796 53.5879 197.859 53.5518C197.923 53.5157 197.995 53.4976 198.067 53.4995C198.14 53.5013 198.211 53.5231 198.273 53.5624C198.334 53.6017 198.384 53.657 198.416 53.7224Z" fill="#D8DEE8"/>
<path d="M184.648 49.8709C184.648 50.4596 184.221 50.9207 183.61 50.9004L144.919 49.6015C144.275 49.5796 143.658 49.0732 143.658 48.4694V48.2732C143.658 47.6694 144.311 47.1962 144.956 47.2166L183.546 48.5751C183.836 48.5828 184.112 48.7017 184.317 48.9074C184.523 49.113 184.641 49.3896 184.648 49.68V49.8709Z" fill="url(#paint51_linear_1_3844)"/>
<path d="M130.433 64.6461C124.969 64.5178 120.494 60.2688 120.494 55.1737C120.494 50.0786 124.969 46.0929 130.433 46.2868C135.859 46.4793 140.244 50.7269 140.244 55.7556C140.244 60.7842 135.859 64.7737 130.433 64.6461Z" fill="url(#paint52_linear_1_3844)"/>
<path d="M139.455 55.7328C139.455 60.3638 135.43 64.0219 130.435 63.9026C125.407 63.7819 121.303 59.8845 121.303 55.1977C121.303 50.5109 125.403 46.8551 130.435 47.0309C135.43 47.2053 139.455 51.1011 139.455 55.7328Z" fill="url(#paint53_linear_1_3844)"/>
<path d="M134.778 53.7962C134.778 56.015 132.846 57.7599 130.457 57.6928C128.067 57.6256 126.113 55.7622 126.113 53.5305C126.113 51.2988 128.062 49.5547 130.46 49.6347C132.857 49.7147 134.778 51.5773 134.778 53.7962Z" fill="white"/>
<path d="M136.692 64.3131C136.402 61.307 133.717 58.9229 130.433 58.833C127.135 58.7432 124.417 60.9983 124.123 64.0142L136.692 64.3131Z" fill="white"/>
<g style="mix-blend-mode:multiply" opacity="0.3">
<g style="mix-blend-mode:multiply" opacity="0.3">
<path d="M186.968 70.6234L121.928 69.3026C118.512 69.2332 115.721 66.6015 115.721 63.4377V46.7532C115.721 44.5457 117.079 42.6777 119.066 41.7932C119.277 41.9306 119.487 42.0725 119.692 42.2189L119.826 42.3162C121.808 43.7502 123.49 45.5842 124.484 47.9238C124.586 48.166 124.684 48.4136 124.771 48.6679L124.775 48.6792C125.251 50.0536 125.756 51.3562 126.324 52.5781C128.078 56.3781 130.349 59.3826 133.72 61.2574C134.44 61.6568 135.191 61.9975 135.965 62.2762C136.255 62.3811 136.552 62.48 136.857 62.5698C140.141 63.5562 144.253 63.7298 149.494 62.9155C149.881 62.8559 150.263 62.7955 150.648 62.7366C150.863 62.7026 151.078 62.6702 151.293 62.6377C153.703 62.2702 156.063 61.9313 158.378 61.6951L158.861 61.6476C159.559 61.5811 160.253 61.5255 160.943 61.4808C161.464 61.4468 161.982 61.4204 162.499 61.4C162.608 61.3962 162.718 61.3925 162.828 61.3902C163.381 61.3726 163.929 61.365 164.471 61.3676C164.817 61.3676 165.163 61.3731 165.509 61.3842C166.384 61.4091 167.256 61.4596 168.121 61.5457C169.089 61.64 170.05 61.7721 171.006 61.9555C171.4 62.0294 171.795 62.112 172.19 62.203C176.935 63.2989 181.572 65.6068 186.195 69.8898C186.443 70.1162 186.692 70.354 186.94 70.5947C186.949 70.6053 186.959 70.6136 186.968 70.6234Z" fill="#D8DEE8"/>
</g>
</g>
<path d="M206.467 126.012L126.613 127.275C125.623 127.29 124.649 127.527 123.763 127.971C121.774 128.962 120.43 130.909 120.43 133.119V149.818C120.43 152.988 123.218 155.574 126.64 155.457L191.756 153.233L206.433 152.732C209.496 152.627 211.973 150.015 211.973 147.036V131.328C211.973 128.349 209.53 125.962 206.467 126.012Z" fill="#97A6B7"/>
<path d="M213.51 131.351V147.072C213.51 150.054 211.023 152.564 207.955 152.669L128 155.396C124.572 155.512 121.771 153.029 121.771 149.86V133.143C121.771 130.932 123.136 128.984 125.128 127.992C126.021 127.549 127 127.312 127.996 127.296L207.949 126.032C211.019 125.983 213.51 128.37 213.51 131.351Z" fill="#D8DEE8"/>
<path d="M212.52 131.234C212.52 128.637 210.359 126.567 207.69 126.61L127.807 127.906C124.824 127.954 122.348 130.23 122.348 132.988V149.482C122.348 152.24 124.821 154.395 127.805 154.295L207.668 151.63C210.34 151.541 212.524 149.366 212.524 146.765L212.52 131.234Z" fill="white"/>
<path d="M155.535 137.218L157.104 139.983L160.582 140.303C160.956 140.337 161.105 140.741 160.835 140.987L158.324 143.271L158.918 146.331C158.982 146.661 158.59 146.935 158.253 146.793L155.12 145.479L151.956 147.094C151.612 147.27 151.209 147.033 151.276 146.691L151.885 143.543L149.299 141.434C149.019 141.208 149.174 140.781 149.561 140.717L153.124 140.128L154.704 137.244C154.874 136.935 155.365 136.919 155.535 137.218Z" fill="url(#paint54_linear_1_3844)"/>
<path d="M168.607 136.793L170.111 139.501L173.447 139.817C173.805 139.851 173.948 140.246 173.689 140.487L171.281 142.722L171.85 145.719C171.912 146.042 171.536 146.31 171.213 146.172L168.209 144.881L165.176 146.461C164.846 146.633 164.46 146.4 164.524 146.067L165.106 142.984L162.629 140.918C162.361 140.692 162.509 140.279 162.881 140.217L166.295 139.642L167.81 136.82C167.973 136.515 168.444 136.5 168.607 136.793Z" fill="url(#paint55_linear_1_3844)"/>
<path d="M181.146 136.385L182.589 139.038L185.79 139.35C185.865 139.355 185.936 139.381 185.996 139.425C186.056 139.47 186.101 139.531 186.125 139.601C186.15 139.671 186.154 139.747 186.136 139.82C186.117 139.892 186.078 139.957 186.023 140.007L183.711 142.196L184.258 145.132C184.317 145.449 183.956 145.71 183.646 145.575L180.763 144.307L177.853 145.852C177.537 146.021 177.167 145.792 177.227 145.465L177.787 142.446L175.411 140.42C175.153 140.2 175.295 139.794 175.651 139.733L178.927 139.174L180.381 136.41C180.538 136.112 180.99 136.098 181.146 136.385Z" fill="url(#paint56_linear_1_3844)"/>
<path d="M193.18 135.992L194.567 138.594L197.642 138.902C197.714 138.907 197.784 138.932 197.843 138.976C197.901 139.02 197.945 139.08 197.969 139.149C197.993 139.218 197.997 139.292 197.979 139.363C197.961 139.434 197.922 139.497 197.868 139.546L195.648 141.689L196.176 144.567C196.233 144.878 195.885 145.133 195.587 145L192.819 143.755L190.027 145.265C189.725 145.429 189.368 145.204 189.423 144.887L189.96 141.93L187.679 139.943C187.432 139.727 187.568 139.33 187.91 139.271L191.055 138.725L192.451 136.017C192.596 135.725 193.031 135.711 193.18 135.992Z" fill="#D8DEE8"/>
<path d="M204.746 135.617L206.078 138.168L209.034 138.469C209.104 138.476 209.172 138.502 209.227 138.546C209.283 138.589 209.325 138.648 209.348 138.715C209.37 138.782 209.373 138.854 209.356 138.923C209.338 138.991 209.301 139.053 209.249 139.101L207.114 141.2L207.62 144.023C207.629 144.094 207.62 144.167 207.592 144.233C207.564 144.3 207.519 144.358 207.462 144.401C207.404 144.444 207.336 144.471 207.264 144.479C207.193 144.487 207.12 144.476 207.054 144.447L204.393 143.224L201.707 144.703C201.416 144.864 201.075 144.644 201.13 144.331L201.646 141.432L199.457 139.482C199.22 139.271 199.351 138.879 199.679 138.823L202.698 138.291L204.04 135.637C204.184 135.353 204.604 135.34 204.746 135.617Z" fill="#D8DEE8"/>
<path d="M190.931 132.507C190.931 133.097 190.503 133.583 189.89 133.596L151.276 134.398C150.629 134.412 150.215 133.93 150.215 133.324V133.132C150.212 132.986 150.238 132.841 150.292 132.705C150.346 132.57 150.426 132.446 150.528 132.342C150.63 132.237 150.752 132.154 150.887 132.098C151.021 132.041 151.166 132.011 151.312 132.011L189.928 131.271C190.541 131.26 190.931 131.73 190.931 132.32V132.507Z" fill="url(#paint57_linear_1_3844)"/>
<path d="M136.537 150.264C131.054 150.434 126.564 146.42 126.564 141.318C126.564 136.215 131.054 131.977 136.537 131.874C141.981 131.77 146.381 135.786 146.381 140.824C146.381 145.862 141.981 150.096 136.537 150.264Z" fill="url(#paint58_linear_1_3844)"/>
<path d="M145.584 140.844C145.584 145.483 141.545 149.367 136.533 149.523C131.488 149.674 127.373 145.996 127.373 141.302C127.373 136.607 131.488 132.721 136.533 132.622C141.548 132.522 145.584 136.205 145.584 140.844Z" fill="url(#paint59_linear_1_3844)"/>
<path d="M140.897 139.16C140.897 141.383 138.958 143.235 136.56 143.298C134.161 143.361 132.199 141.601 132.199 139.366C132.199 137.13 134.155 135.278 136.56 135.227C138.965 135.176 140.897 136.937 140.897 139.16Z" fill="white"/>
<path d="M142.817 149.59C142.527 146.595 139.832 144.353 136.537 144.442C133.228 144.532 130.499 146.939 130.205 149.976L142.817 149.59Z" fill="white"/>
<g style="mix-blend-mode:multiply" opacity="0.3">
<g style="mix-blend-mode:multiply" opacity="0.3">
<path d="M193.26 153.169L128 155.396C124.572 155.513 121.771 153.03 121.771 149.86V133.144C121.771 130.932 123.136 128.984 125.128 127.993C125.34 128.119 125.55 128.25 125.756 128.385C125.802 128.414 125.846 128.445 125.891 128.476C127.88 129.805 129.567 131.55 130.565 133.839C130.668 134.076 130.765 134.318 130.853 134.568C130.853 134.571 130.853 134.575 130.853 134.579C131.305 135.879 131.824 137.154 132.407 138.401C134.167 142.111 136.445 144.998 139.83 146.693C140.555 147.055 141.308 147.355 142.082 147.591C142.374 147.68 142.672 147.762 142.978 147.836C146.273 148.645 150.399 148.595 155.657 147.494L156.815 147.251L157.461 147.117C159.876 146.618 162.247 146.15 164.571 145.787C164.731 145.762 164.894 145.737 165.055 145.711C165.756 145.605 166.452 145.512 167.144 145.43C167.666 145.368 168.187 145.313 168.704 145.264C168.815 145.254 168.925 145.245 169.036 145.236C169.587 145.19 170.137 145.15 170.683 145.125C171.031 145.107 171.379 145.094 171.725 145.084C172.603 145.062 173.478 145.066 174.347 145.104C175.316 145.145 176.281 145.227 177.24 145.356C177.636 145.409 178.033 145.47 178.428 145.54C183.189 146.379 187.842 148.438 192.48 152.476C192.728 152.692 192.978 152.913 193.226 153.142C193.241 153.152 193.251 153.16 193.26 153.169Z" fill="#D8DEE8"/>
</g>
</g>
<path d="M233.735 85.9817L157.461 85.2073C156.48 85.1975 155.435 85.4171 154.615 85.8111C152.718 86.7288 151.309 88.5945 151.309 90.753V107.059C151.309 110.154 154.063 112.754 157.327 112.728L219.575 112.222L233.715 112.108C236.645 112.084 239.026 109.594 239.026 106.681V91.3205C239.024 89.9135 238.467 88.5642 237.477 87.5649C236.486 86.5656 235.142 85.9967 233.735 85.9817Z" fill="#97A6B7"/>
<path d="M240.264 91.3124V106.686C240.264 109.601 237.886 111.993 234.953 112.017L158.599 112.633C155.329 112.659 152.658 110.162 152.658 107.067V90.7456C152.658 88.5856 153.959 86.7184 155.859 85.7999C156.713 85.3896 157.651 85.183 158.599 85.1961L234.953 85.9742C237.887 86.0006 240.264 88.3969 240.264 91.3124Z" fill="#D8DEE8"/>
<path d="M239.3 91.1751C239.297 89.9496 238.811 88.7747 237.948 87.9053C237.084 87.0358 235.912 86.5419 234.687 86.5306L158.549 85.7834C155.703 85.7555 153.492 87.9162 153.492 90.609V106.717C153.492 109.41 155.705 111.577 158.549 111.556L234.732 110.997C237.288 110.978 239.295 108.905 239.295 106.365L239.3 91.1751Z" fill="white"/>
<path d="M184.873 95.5802L186.371 98.3205L189.692 98.7213C190.049 98.7643 190.191 99.1628 189.932 99.396L187.535 101.565L188.103 104.57C188.164 104.894 187.789 105.151 187.467 105.004L184.476 103.64L181.458 105.139C181.129 105.302 180.745 105.059 180.808 104.729L181.389 101.668L178.922 99.5417C178.654 99.3107 178.802 98.9009 179.171 98.8481L182.572 98.3635L184.082 95.5854C184.242 95.2858 184.711 95.2828 184.873 95.5802Z" fill="url(#paint60_linear_1_3844)"/>
<path d="M197.354 95.4959L198.788 98.1797L201.974 98.5729C202.048 98.5779 202.12 98.6046 202.179 98.6498C202.239 98.6951 202.283 98.7568 202.308 98.8273C202.333 98.8978 202.336 98.9741 202.318 99.0465C202.3 99.119 202.26 99.1845 202.205 99.2348L199.907 101.359L200.451 104.302C200.51 104.62 200.149 104.871 199.842 104.727L196.974 103.39L194.078 104.857C193.763 105.016 193.395 104.781 193.455 104.454L194.011 101.457L191.647 99.3744C191.39 99.148 191.531 98.7473 191.886 98.6952L195.146 98.2212L196.593 95.5043C196.631 95.4374 196.686 95.3818 196.753 95.3428C196.819 95.3038 196.894 95.2828 196.971 95.282C197.048 95.2811 197.124 95.3005 197.191 95.338C197.258 95.3755 197.314 95.43 197.354 95.4959Z" fill="url(#paint61_linear_1_3844)"/>
<path d="M209.331 95.4146L210.709 98.0447L213.768 98.4311C213.84 98.4387 213.908 98.4665 213.964 98.5113C214.02 98.5561 214.062 98.6161 214.086 98.6841C214.109 98.7522 214.112 98.8255 214.095 98.8954C214.078 98.9653 214.042 99.0289 213.99 99.0787L211.782 101.159L212.305 104.043C212.361 104.354 212.016 104.601 211.72 104.46L208.966 103.147L206.186 104.581C205.884 104.737 205.53 104.506 205.588 104.187L206.122 101.251L203.853 99.213C203.606 98.9911 203.742 98.5987 204.079 98.5481L207.208 98.084L208.597 95.4199C208.633 95.3538 208.685 95.2985 208.75 95.2598C208.814 95.2212 208.887 95.2005 208.963 95.1999C209.038 95.1994 209.111 95.219 209.176 95.2568C209.241 95.2945 209.295 95.349 209.331 95.4146Z" fill="url(#paint62_linear_1_3844)"/>
<path d="M220.829 95.3368L222.154 97.9149L225.097 98.2923C225.167 98.2997 225.234 98.3271 225.289 98.3712C225.344 98.4153 225.385 98.4743 225.408 98.5411C225.43 98.608 225.433 98.6799 225.416 98.7483C225.399 98.8167 225.362 98.8787 225.311 98.927L223.188 100.965L223.69 103.792C223.701 103.863 223.691 103.935 223.664 104.001C223.636 104.066 223.591 104.123 223.533 104.165C223.475 104.207 223.407 104.233 223.336 104.239C223.264 104.245 223.193 104.232 223.129 104.2L220.483 102.917L217.81 104.322C217.52 104.473 217.181 104.247 217.236 103.936L217.749 101.059L215.57 99.0583C215.516 99.0089 215.479 98.945 215.461 98.8745C215.443 98.8041 215.446 98.7299 215.469 98.661C215.492 98.5922 215.535 98.5315 215.592 98.4863C215.649 98.4411 215.718 98.4133 215.79 98.4063L218.796 97.9534L220.13 95.3421C220.163 95.2788 220.213 95.2258 220.275 95.1886C220.336 95.1515 220.406 95.1315 220.478 95.131C220.55 95.1305 220.62 95.1493 220.682 95.1855C220.744 95.2218 220.795 95.274 220.829 95.3368Z" fill="url(#paint63_linear_1_3844)"/>
<path d="M231.885 95.261L233.159 97.79L235.986 98.1621C236.054 98.1709 236.118 98.1987 236.171 98.2424C236.224 98.2861 236.263 98.3439 236.285 98.4091C236.306 98.4743 236.309 98.5443 236.292 98.6109C236.275 98.6775 236.24 98.738 236.191 98.7855L234.153 100.784L234.636 103.557C234.648 103.625 234.64 103.696 234.614 103.76C234.588 103.825 234.544 103.881 234.488 103.922C234.432 103.964 234.366 103.989 234.297 103.995C234.228 104.001 234.158 103.988 234.096 103.957L231.548 102.693L228.982 104.075C228.921 104.11 228.852 104.127 228.782 104.124C228.713 104.121 228.645 104.099 228.588 104.06C228.53 104.02 228.485 103.965 228.457 103.901C228.429 103.837 228.42 103.767 228.43 103.698L228.924 100.878L226.828 98.9153C226.779 98.8658 226.745 98.8036 226.729 98.7357C226.713 98.6678 226.716 98.5967 226.738 98.5305C226.76 98.4643 226.8 98.4054 226.853 98.3605C226.907 98.3156 226.972 98.2864 227.041 98.2761L229.93 97.8323L231.213 95.2716C231.243 95.2091 231.291 95.1562 231.349 95.1189C231.408 95.0816 231.476 95.0613 231.546 95.0602C231.615 95.0591 231.684 95.0773 231.744 95.1127C231.804 95.1482 231.853 95.1995 231.885 95.261Z" fill="url(#paint64_linear_1_3844)"/>
<path d="M218.804 91.8701C218.804 92.0078 218.776 92.1441 218.723 92.271C218.669 92.3979 218.591 92.513 218.493 92.6095C218.394 92.7061 218.278 92.7822 218.15 92.8335C218.022 92.8849 217.886 92.9104 217.748 92.9086L180.67 92.7154C180.053 92.7154 179.455 92.2308 179.455 91.6384V91.4467C179.455 90.8542 180.054 90.3765 180.672 90.381L217.7 90.6323C218.287 90.6369 218.805 91.1063 218.805 91.6829L218.804 91.8701Z" fill="url(#paint65_linear_1_3844)"/>
<path d="M166.74 107.842C161.51 107.868 157.23 103.834 157.23 98.8505C157.23 93.8672 161.513 89.8415 166.74 89.8792C171.935 89.9162 176.134 93.9494 176.134 98.8709C176.134 103.792 171.935 107.817 166.74 107.842Z" fill="url(#paint66_linear_1_3844)"/>
<path d="M175.378 98.8679C175.378 103.396 171.524 107.094 166.741 107.112C161.928 107.134 158.004 103.434 158.004 98.849C158.004 94.2641 161.928 90.5728 166.741 90.6045C171.524 90.6415 175.378 94.3396 175.378 98.8679Z" fill="url(#paint67_linear_1_3844)"/>
<path d="M170.9 97.1059C170.9 99.2772 169.05 101.038 166.762 101.039C164.475 101.039 162.602 99.2704 162.602 97.087C162.602 94.9036 164.467 93.1429 166.762 93.1542C169.057 93.1655 170.9 94.9346 170.9 97.1059Z" fill="white"/>
<path d="M172.733 107.344C172.456 104.41 169.885 102.152 166.741 102.155C163.584 102.155 160.982 104.44 160.703 107.399L172.733 107.344Z" fill="white"/>
<g style="mix-blend-mode:multiply" opacity="0.3">
<g style="mix-blend-mode:multiply" opacity="0.3">
<path d="M220.906 112.13L158.599 112.633C155.329 112.659 152.658 110.162 152.658 107.067V90.7456C152.658 88.5856 153.959 86.7184 155.859 85.7999C156.061 85.929 156.262 86.0618 156.459 86.1991L156.587 86.2905C158.484 87.6391 160.093 89.3848 161.045 91.649C161.144 91.8837 161.236 92.1229 161.319 92.369L161.324 92.3803C161.777 93.7116 162.267 94.972 162.806 96.1539C164.485 99.8226 166.659 102.7 169.888 104.441C170.578 104.812 171.297 105.125 172.038 105.376C172.315 105.471 172.6 105.559 172.891 105.639C176.036 106.513 179.974 106.569 184.994 105.627C185.365 105.558 185.731 105.488 186.099 105.42C186.306 105.381 186.51 105.345 186.717 105.306C189.026 104.878 191.286 104.481 193.504 104.186L193.967 104.127C194.636 104.041 195.3 103.967 195.962 103.906C196.461 103.858 196.958 103.817 197.452 103.783C197.558 103.777 197.663 103.77 197.768 103.764C198.297 103.733 198.821 103.709 199.342 103.697C199.674 103.689 200.006 103.684 200.337 103.684C201.176 103.684 202.011 103.713 202.841 103.77C203.768 103.835 204.689 103.94 205.605 104.091C205.984 104.152 206.361 104.222 206.737 104.3C211.285 105.242 215.731 107.373 220.164 111.439C220.401 111.657 220.639 111.88 220.876 112.109C220.888 112.113 220.898 112.121 220.906 112.13Z" fill="#D8DEE8"/>
</g>
</g>
<defs>
<linearGradient id="paint0_linear_1_3844" x1="149.406" y1="137" x2="113.993" y2="232.488" gradientUnits="userSpaceOnUse">
<stop stop-color="#FFC444"/>
<stop offset="1" stop-color="#F36F56"/>
</linearGradient>
<linearGradient id="paint1_linear_1_3844" x1="29.5724" y1="163.88" x2="102.025" y2="232.104" gradientUnits="userSpaceOnUse">
<stop stop-color="#AA80F9"/>
<stop offset="1" stop-color="#6165D7"/>
</linearGradient>
<linearGradient id="paint2_linear_1_3844" x1="-114711" y1="669298" x2="-76870.5" y2="761435" gradientUnits="userSpaceOnUse">
<stop stop-color="#FF9085"/>
<stop offset="1" stop-color="#FB6FBB"/>
</linearGradient>
<linearGradient id="paint3_linear_1_3844" x1="54.2174" y1="153.445" x2="207.628" y2="129.172" gradientUnits="userSpaceOnUse">
<stop stop-color="#444B8C"/>
<stop offset="1" stop-color="#26264F"/>
</linearGradient>
<linearGradient id="paint4_linear_1_3844" x1="45.2967" y1="156.891" x2="143.297" y2="156.891" gradientUnits="userSpaceOnUse">
<stop stop-color="#E38DDD"/>
<stop offset="1" stop-color="#9571F6"/>
</linearGradient>
<linearGradient id="paint5_linear_1_3844" x1="153003" y1="187698" x2="-219606" y2="667593" gradientUnits="userSpaceOnUse">
<stop stop-color="#E38DDD"/>
<stop offset="1" stop-color="#9571F6"/>
</linearGradient>
<linearGradient id="paint6_linear_1_3844" x1="13325.8" y1="19872.8" x2="14965" y2="19872.8" gradientUnits="userSpaceOnUse">
<stop stop-color="#FF9085"/>
<stop offset="1" stop-color="#FB6FBB"/>
</linearGradient>
<linearGradient id="paint7_linear_1_3844" x1="16610.5" y1="19872.8" x2="18249.7" y2="19872.8" gradientUnits="userSpaceOnUse">
<stop stop-color="#FF9085"/>
<stop offset="1" stop-color="#FB6FBB"/>
</linearGradient>
<linearGradient id="paint8_linear_1_3844" x1="19895.3" y1="19872.8" x2="21534.6" y2="19872.8" gradientUnits="userSpaceOnUse">
<stop stop-color="#FF9085"/>
<stop offset="1" stop-color="#FB6FBB"/>
</linearGradient>
<linearGradient id="paint9_linear_1_3844" x1="72434.7" y1="49796.6" x2="274788" y2="49796.6" gradientUnits="userSpaceOnUse">
<stop stop-color="#FF9085"/>
<stop offset="1" stop-color="#FB6FBB"/>
</linearGradient>
<linearGradient id="paint10_linear_1_3844" x1="22952.3" y1="8939.33" x2="24558.2" y2="8939.33" gradientUnits="userSpaceOnUse">
<stop stop-color="#FF9085"/>
<stop offset="1" stop-color="#FB6FBB"/>
</linearGradient>
<linearGradient id="paint11_linear_1_3844" x1="225.524" y1="132.194" x2="233.508" y2="139.023" gradientUnits="userSpaceOnUse">
<stop stop-color="#311944"/>
<stop offset="1" stop-color="#6B3976"/>
</linearGradient>
<linearGradient id="paint12_linear_1_3844" x1="239.102" y1="206.003" x2="259.299" y2="219.74" gradientUnits="userSpaceOnUse">
<stop stop-color="#AB316D"/>
<stop offset="1" stop-color="#792D3D"/>
</linearGradient>
<linearGradient id="paint13_linear_1_3844" x1="220.526" y1="201.57" x2="238.119" y2="194.709" gradientUnits="userSpaceOnUse">
<stop stop-color="#40447E"/>
<stop offset="1" stop-color="#3C3B6B"/>
</linearGradient>
<linearGradient id="paint14_linear_1_3844" x1="220.526" y1="201.57" x2="238.119" y2="194.709" gradientUnits="userSpaceOnUse">
<stop stop-color="#40447E"/>
<stop offset="1" stop-color="#3C3B6B"/>
</linearGradient>
<linearGradient id="paint15_linear_1_3844" x1="44949.5" y1="60004.1" x2="49677.2" y2="62409.5" gradientUnits="userSpaceOnUse">
<stop stop-color="#AA80F9"/>
<stop offset="1" stop-color="#6165D7"/>
</linearGradient>
<linearGradient id="paint16_linear_1_3844" x1="16541.2" y1="24352.6" x2="16904.3" y2="26787.2" gradientUnits="userSpaceOnUse">
<stop stop-color="#AB316D"/>
<stop offset="1" stop-color="#792D3D"/>
</linearGradient>
<linearGradient id="paint17_linear_1_3844" x1="98215.4" y1="188562" x2="112950" y2="199930" gradientUnits="userSpaceOnUse">
<stop stop-color="#40447E"/>
<stop offset="1" stop-color="#3C3B6B"/>
</linearGradient>
<linearGradient id="paint18_linear_1_3844" x1="56431.4" y1="163266" x2="68426.9" y2="174193" gradientUnits="userSpaceOnUse">
<stop stop-color="#40447E"/>
<stop offset="1" stop-color="#3C3B6B"/>
</linearGradient>
<linearGradient id="paint19_linear_1_3844" x1="110414" y1="96958.4" x2="131802" y2="105741" gradientUnits="userSpaceOnUse">
<stop stop-color="#AA80F9"/>
<stop offset="1" stop-color="#6165D7"/>
</linearGradient>
<linearGradient id="paint20_linear_1_3844" x1="233.45" y1="153.708" x2="225.233" y2="135.574" gradientUnits="userSpaceOnUse">
<stop stop-color="#311944"/>
<stop offset="1" stop-color="#893976"/>
</linearGradient>
<linearGradient id="paint21_linear_1_3844" x1="222.436" y1="148.946" x2="228.231" y2="139.154" gradientUnits="userSpaceOnUse">
<stop stop-color="#311944"/>
<stop offset="1" stop-color="#A03976"/>
</linearGradient>
<linearGradient id="paint22_linear_1_3844" x1="95431.1" y1="90754.2" x2="114877" y2="98110.4" gradientUnits="userSpaceOnUse">
<stop stop-color="#AA80F9"/>
<stop offset="1" stop-color="#6165D7"/>
</linearGradient>
<linearGradient id="paint23_linear_1_3844" x1="70963.6" y1="57098" x2="78035.6" y2="60732" gradientUnits="userSpaceOnUse">
<stop stop-color="#AA80F9"/>
<stop offset="1" stop-color="#6165D7"/>
</linearGradient>
<linearGradient id="paint24_linear_1_3844" x1="17518.3" y1="8254.03" x2="18258" y2="8254.03" gradientUnits="userSpaceOnUse">
<stop stop-color="#311944"/>
<stop offset="1" stop-color="#A03976"/>
</linearGradient>
<linearGradient id="paint25_linear_1_3844" x1="9468.63" y1="20370.3" x2="9574.63" y2="20438.1" gradientUnits="userSpaceOnUse">
<stop stop-color="#AA80F9"/>
<stop offset="1" stop-color="#6165D7"/>
</linearGradient>
<linearGradient id="paint26_linear_1_3844" x1="9524.37" y1="20590.6" x2="9840.63" y2="20590.6" gradientUnits="userSpaceOnUse">
<stop stop-color="#AA80F9"/>
<stop offset="1" stop-color="#6165D7"/>
</linearGradient>
<linearGradient id="paint27_linear_1_3844" x1="4116.09" y1="8770.59" x2="4171.64" y2="8770.59" gradientUnits="userSpaceOnUse">
<stop stop-color="#40447E"/>
<stop offset="1" stop-color="#3C3B6B"/>
</linearGradient>
<linearGradient id="paint28_linear_1_3844" x1="11188.1" y1="20127.4" x2="11294.1" y2="20195.2" gradientUnits="userSpaceOnUse">
<stop stop-color="#AA80F9"/>
<stop offset="1" stop-color="#6165D7"/>
</linearGradient>
<linearGradient id="paint29_linear_1_3844" x1="11245.5" y1="20347.7" x2="11561.8" y2="20347.7" gradientUnits="userSpaceOnUse">
<stop stop-color="#AA80F9"/>
<stop offset="1" stop-color="#6165D7"/>
</linearGradient>
<linearGradient id="paint30_linear_1_3844" x1="4851.84" y1="8667.24" x2="4907.39" y2="8667.24" gradientUnits="userSpaceOnUse">
<stop stop-color="#40447E"/>
<stop offset="1" stop-color="#3C3B6B"/>
</linearGradient>
<linearGradient id="paint31_linear_1_3844" x1="63251.8" y1="7043.1" x2="70142.4" y2="7043.1" gradientUnits="userSpaceOnUse">
<stop stop-color="#40447E"/>
<stop offset="1" stop-color="#3C3B6B"/>
</linearGradient>
<linearGradient id="paint32_linear_1_3844" x1="10982.2" y1="21127.9" x2="11088.2" y2="21195.7" gradientUnits="userSpaceOnUse">
<stop stop-color="#AA80F9"/>
<stop offset="1" stop-color="#6165D7"/>
</linearGradient>
<linearGradient id="paint33_linear_1_3844" x1="11034.6" y1="21345.7" x2="11350.9" y2="21345.7" gradientUnits="userSpaceOnUse">
<stop stop-color="#AA80F9"/>
<stop offset="1" stop-color="#6165D7"/>
</linearGradient>
<linearGradient id="paint34_linear_1_3844" x1="4761.58" y1="9089.71" x2="4817.13" y2="9089.71" gradientUnits="userSpaceOnUse">
<stop stop-color="#40447E"/>
<stop offset="1" stop-color="#3C3B6B"/>
</linearGradient>
<linearGradient id="paint35_linear_1_3844" x1="12465.9" y1="20930.1" x2="12571.9" y2="20997.9" gradientUnits="userSpaceOnUse">
<stop stop-color="#AA80F9"/>
<stop offset="1" stop-color="#6165D7"/>
</linearGradient>
<linearGradient id="paint36_linear_1_3844" x1="12523.3" y1="21152.8" x2="12839.6" y2="21152.8" gradientUnits="userSpaceOnUse">
<stop stop-color="#AA80F9"/>
<stop offset="1" stop-color="#6165D7"/>
</linearGradient>
<linearGradient id="paint37_linear_1_3844" x1="5396.76" y1="9006.5" x2="5452.27" y2="9006.5" gradientUnits="userSpaceOnUse">
<stop stop-color="#40447E"/>
<stop offset="1" stop-color="#3C3B6B"/>
</linearGradient>
<linearGradient id="paint38_linear_1_3844" x1="16061.2" y1="7581.74" x2="15983" y2="7786.45" gradientUnits="userSpaceOnUse">
<stop stop-color="#311944"/>
<stop offset="1" stop-color="#A03976"/>
</linearGradient>
<linearGradient id="paint39_linear_1_3844" x1="14157.2" y1="51858.3" x2="15578.5" y2="52474.3" gradientUnits="userSpaceOnUse">
<stop stop-color="#AB316D"/>
<stop offset="1" stop-color="#792D3D"/>
</linearGradient>
<linearGradient id="paint40_linear_1_3844" x1="7667.92" y1="127608" x2="16083.3" y2="133160" gradientUnits="userSpaceOnUse">
<stop stop-color="#FF9085"/>
<stop offset="1" stop-color="#FB6FBB"/>
</linearGradient>
<linearGradient id="paint41_linear_1_3844" x1="5971.18" y1="126868" x2="13129.1" y2="130315" gradientUnits="userSpaceOnUse">
<stop stop-color="#FF9085"/>
<stop offset="1" stop-color="#FB6FBB"/>
</linearGradient>
<linearGradient id="paint42_linear_1_3844" x1="38152.2" y1="133049" x2="61406.1" y2="153480" gradientUnits="userSpaceOnUse">
<stop stop-color="#FF9085"/>
<stop offset="1" stop-color="#FB6FBB"/>
</linearGradient>
<linearGradient id="paint43_linear_1_3844" x1="18006" y1="50809.7" x2="18996.7" y2="57461.4" gradientUnits="userSpaceOnUse">
<stop stop-color="#AB316D"/>
<stop offset="1" stop-color="#792D3D"/>
</linearGradient>
<linearGradient id="paint44_linear_1_3844" x1="33720.4" y1="132120" x2="56317.6" y2="149581" gradientUnits="userSpaceOnUse">
<stop stop-color="#FF9085"/>
<stop offset="1" stop-color="#FB6FBB"/>
</linearGradient>
<linearGradient id="paint45_linear_1_3844" x1="2237.49" y1="8576.91" x2="2262.3" y2="8586.11" gradientUnits="userSpaceOnUse">
<stop stop-color="#AB316D"/>
<stop offset="1" stop-color="#792D3D"/>
</linearGradient>
<linearGradient id="paint46_linear_1_3844" x1="3059.6" y1="8571.25" x2="3084.41" y2="8580.49" gradientUnits="userSpaceOnUse">
<stop stop-color="#AB316D"/>
<stop offset="1" stop-color="#792D3D"/>
</linearGradient>
<linearGradient id="paint47_linear_1_3844" x1="22988.5" y1="5837" x2="24439.3" y2="14458.9" gradientUnits="userSpaceOnUse">
<stop stop-color="#FFC444"/>
<stop offset="1" stop-color="#F36F56"/>
</linearGradient>
<linearGradient id="paint48_linear_1_3844" x1="23948.2" y1="5470.02" x2="25382.2" y2="13818.6" gradientUnits="userSpaceOnUse">
<stop stop-color="#FFC444"/>
<stop offset="1" stop-color="#F36F56"/>
</linearGradient>
<linearGradient id="paint49_linear_1_3844" x1="24737.8" y1="5132.84" x2="26157.8" y2="13229.4" gradientUnits="userSpaceOnUse">
<stop stop-color="#FFC444"/>
<stop offset="1" stop-color="#F36F56"/>
</linearGradient>
<linearGradient id="paint50_linear_1_3844" x1="25382.3" y1="4818.28" x2="26788.8" y2="12675.6" gradientUnits="userSpaceOnUse">
<stop stop-color="#FFC444"/>
<stop offset="1" stop-color="#F36F56"/>
</linearGradient>
<linearGradient id="paint51_linear_1_3844" x1="88706.7" y1="2175.52" x2="88716.6" y2="2732.72" gradientUnits="userSpaceOnUse">
<stop stop-color="#FF9085"/>
<stop offset="1" stop-color="#FB6FBB"/>
</linearGradient>
<linearGradient id="paint52_linear_1_3844" x1="34646.2" y1="11771.6" x2="31325.2" y2="28415.1" gradientUnits="userSpaceOnUse">
<stop stop-color="#FF9085"/>
<stop offset="1" stop-color="#FB6FBB"/>
</linearGradient>
<linearGradient id="paint53_linear_1_3844" x1="121.307" y1="55.4649" x2="139.455" y2="55.4649" gradientUnits="userSpaceOnUse">
<stop stop-color="#FF9085"/>
<stop offset="1" stop-color="#FB6FBB"/>
</linearGradient>
<linearGradient id="paint54_linear_1_3844" x1="24039.2" y1="17410.4" x2="25506.2" y2="26021.3" gradientUnits="userSpaceOnUse">
<stop stop-color="#FFC444"/>
<stop offset="1" stop-color="#F36F56"/>
</linearGradient>
<linearGradient id="paint55_linear_1_3844" x1="24971" y1="16710.4" x2="26422.6" y2="25054.2" gradientUnits="userSpaceOnUse">
<stop stop-color="#FFC444"/>
<stop offset="1" stop-color="#F36F56"/>
</linearGradient>
<linearGradient id="paint56_linear_1_3844" x1="25726.1" y1="16049.8" x2="27162.7" y2="24139.4" gradientUnits="userSpaceOnUse">
<stop stop-color="#FFC444"/>
<stop offset="1" stop-color="#F36F56"/>
</linearGradient>
<linearGradient id="paint57_linear_1_3844" x1="91695.2" y1="5450.68" x2="91701" y2="5835.06" gradientUnits="userSpaceOnUse">
<stop stop-color="#FF9085"/>
<stop offset="1" stop-color="#FB6FBB"/>
</linearGradient>
<linearGradient id="paint58_linear_1_3844" x1="36376.5" y1="32717.2" x2="33007.4" y2="49632" gradientUnits="userSpaceOnUse">
<stop stop-color="#FF9085"/>
<stop offset="1" stop-color="#FB6FBB"/>
</linearGradient>
<linearGradient id="paint59_linear_1_3844" x1="30863.3" y1="31736" x2="35257.7" y2="31736" gradientUnits="userSpaceOnUse">
<stop stop-color="#FF9085"/>
<stop offset="1" stop-color="#FB6FBB"/>
</linearGradient>
<linearGradient id="paint60_linear_1_3844" x1="27377" y1="11419" x2="28795" y2="19620.1" gradientUnits="userSpaceOnUse">
<stop stop-color="#FFC444"/>
<stop offset="1" stop-color="#F36F56"/>
</linearGradient>
<linearGradient id="paint61_linear_1_3844" x1="28001.6" y1="10902.4" x2="29404.5" y2="18849.5" gradientUnits="userSpaceOnUse">
<stop stop-color="#FFC444"/>
<stop offset="1" stop-color="#F36F56"/>
</linearGradient>
<linearGradient id="paint62_linear_1_3844" x1="28493.3" y1="10422.2" x2="29882.5" y2="18131.4" gradientUnits="userSpaceOnUse">
<stop stop-color="#FFC444"/>
<stop offset="1" stop-color="#F36F56"/>
</linearGradient>
<linearGradient id="paint63_linear_1_3844" x1="28883.6" y1="9966.54" x2="30257.4" y2="17446.8" gradientUnits="userSpaceOnUse">
<stop stop-color="#FFC444"/>
<stop offset="1" stop-color="#F36F56"/>
</linearGradient>
<linearGradient id="paint64_linear_1_3844" x1="29125" y1="9547.65" x2="30488.4" y2="16816.5" gradientUnits="userSpaceOnUse">
<stop stop-color="#FFC444"/>
<stop offset="1" stop-color="#F36F56"/>
</linearGradient>
<linearGradient id="paint65_linear_1_3844" x1="103510" y1="3000.22" x2="103514" y2="3332.7" gradientUnits="userSpaceOnUse">
<stop stop-color="#FF9085"/>
<stop offset="1" stop-color="#FB6FBB"/>
</linearGradient>
<linearGradient id="paint66_linear_1_3844" x1="42291" y1="21913.8" x2="39032.7" y2="37894.7" gradientUnits="userSpaceOnUse">
<stop stop-color="#FF9085"/>
<stop offset="1" stop-color="#FB6FBB"/>
</linearGradient>
<linearGradient id="paint67_linear_1_3844" x1="36531.9" y1="21714.7" x2="40531.6" y2="21714.7" gradientUnits="userSpaceOnUse">
<stop stop-color="#FF9085"/>
<stop offset="1" stop-color="#FB6FBB"/>
</linearGradient>
</defs>
</svg>
