<svg width="280" height="280" viewBox="0 0 280 280" fill="none" xmlns="http://www.w3.org/2000/svg">
<path d="M280 0H0V280H280V0Z" fill="white"/>
<path d="M227.384 74.7449C181.669 17.1736 73.4349 13.9555 41.6138 59.6227C24.0764 84.7789 31.4062 122.389 35.0198 140.946C41.6749 175.094 58.0809 197.08 61.6613 201.743C70.3556 213.057 91.4726 240.545 123.238 246.827C177.518 257.563 245.248 202.903 249 141.242C251.163 105.686 231.337 79.7223 227.384 74.7449Z" fill="#F4F7FA"/>
<path d="M197.871 215.109C191.331 207.611 182.801 195.551 179.963 179.355C176.704 160.758 183.928 153.705 184.038 132.304C184.199 101.755 163.717 88.3411 171.863 75.5788C175.835 69.3554 184.644 65.6256 191.712 67.1962C211.881 71.6785 227.97 121.553 211.321 150.717C203.791 163.906 193.661 167.004 189.963 181.514C186.69 194.334 192.684 206.888 197.871 215.109Z" fill="url(#paint0_linear_1_3721)"/>
<g style="mix-blend-mode:soft-light">
<g style="mix-blend-mode:soft-light">
<path d="M186.572 193.985C185.952 189.91 185.683 185.789 185.768 181.667C185.966 172.233 188.039 166.221 190.663 158.61C192.368 153.665 194.3 148.06 196.055 140.458C199.337 126.238 200.166 121.382 199.753 114.312C198.935 100.311 193.654 89.6823 190.58 84.5925C186.224 77.3781 180.492 71.0904 173.711 66.0868L173.873 65.8672C180.683 70.8926 186.439 77.2075 190.814 84.4528C193.901 89.5638 199.204 100.238 200.026 114.297C200.441 121.402 199.61 126.271 196.321 140.521C194.563 148.137 192.629 153.749 190.922 158.7C188.305 166.289 186.239 172.285 186.041 181.675C185.956 185.78 186.224 189.886 186.842 193.946L186.572 193.985Z" fill="white"/>
</g>
<g style="mix-blend-mode:soft-light">
<path d="M198.513 104.735L198.422 104.53C194.473 95.637 186.293 92.2589 180.127 90.991C173.43 89.6136 167.592 90.3562 167.534 90.3638L167.498 90.0936C167.557 90.0861 173.433 89.3389 180.177 90.7215C186.361 91.9917 194.549 95.3646 198.58 104.209C199.247 103.315 202.182 99.1525 203.857 93.1147C205.599 86.8408 206.296 77.2 199.73 66.9004L199.96 66.7532C206.583 77.1419 205.877 86.8679 204.118 93.1985C202.212 100.054 198.691 104.519 198.656 104.56L198.513 104.735Z" fill="white"/>
</g>
<g style="mix-blend-mode:soft-light">
<path d="M197.283 136.65C197.164 136.65 197.099 136.65 197.094 136.65H196.979L196.963 136.536C195.549 126.762 190.805 121.126 187.077 118.121C183.032 114.861 179.271 113.901 179.234 113.894L179.3 113.63C179.338 113.639 183.149 114.611 187.237 117.903C190.996 120.928 195.77 126.587 197.219 136.385H197.255C198.962 136.385 214.564 136 222.114 122.479L222.352 122.611C218.153 130.133 211.509 133.555 206.676 135.094C202.056 136.559 198.166 136.65 197.283 136.65Z" fill="white"/>
</g>
<g style="mix-blend-mode:soft-light">
<path d="M196.066 157.486C193.141 157.486 191.392 156.882 191.369 156.876L191.277 156.844V156.746C191.398 146.159 179.766 133.834 179.648 133.711L179.846 133.522C179.964 133.646 191.599 145.975 191.551 156.648C192.083 156.811 194.886 157.575 199.076 157.005C203.368 156.422 210.033 154.282 217.416 147.394L217.602 147.594C210.157 154.537 203.427 156.693 199.093 157.278C198.09 157.415 197.078 157.485 196.066 157.486Z" fill="white"/>
</g>
</g>
<path d="M183.241 205.208C179.8 199.769 175.38 190.868 176.685 180.689C178.962 162.925 196.1 161.249 204.131 139.853C210.608 122.596 202.877 114.584 212.365 100.923C213.949 98.6363 222.217 86.2544 232.654 87.1918C238.535 87.7201 242.496 92.2363 243.239 93.0839C254.476 105.898 249.167 135.65 233.898 154.688C225.125 165.627 220.611 165.175 203.634 180.786C195.801 188.003 188.945 196.213 183.241 205.208Z" fill="url(#paint1_linear_1_3721)"/>
<g style="mix-blend-mode:soft-light">
<g style="mix-blend-mode:soft-light">
<path d="M184.26 213.012C181.256 197.796 182.804 186.064 188.863 178.144C191.829 174.265 194.792 172.597 197.927 170.831C201.295 168.934 204.778 166.973 208.371 162.011C211.862 157.19 212.389 153.746 213.055 149.386C213.655 145.461 214.402 140.575 217.574 133.146C220.356 126.635 222.878 123.072 225.104 119.928C227.513 116.525 229.416 113.836 230.747 108.661C232.92 100.208 232.002 90.9351 228.019 81.1004L228.272 80.9977C232.278 90.8845 233.199 100.218 231.011 108.73C229.668 113.952 227.752 116.659 225.327 120.085C223.109 123.218 220.595 126.77 217.826 133.254C214.666 140.651 213.923 145.517 213.325 149.427C212.653 153.823 212.122 157.297 208.592 162.171C204.964 167.181 201.454 169.158 198.061 171.069C194.95 172.82 192.012 174.475 189.08 178.31C183.072 186.168 181.541 197.826 184.53 212.962L184.26 213.012Z" fill="white"/>
</g>
<g style="mix-blend-mode:soft-light">
<path d="M224.126 121.57L224.111 121.388C224.093 121.166 222.161 99.1202 211.631 94.1293L211.748 93.8825C221.904 98.6968 224.156 119.038 224.366 121.184C235.101 116.972 241.296 109.613 244.606 104.166C248.211 98.2357 249.266 93.2394 249.276 93.1896L249.543 93.2447C249.534 93.2945 248.469 98.3368 244.839 104.308C241.49 109.818 235.207 117.276 224.296 121.504L224.126 121.57Z" fill="white"/>
</g>
<g style="mix-blend-mode:soft-light">
<path d="M214.979 141.255H214.869H214.752L214.736 141.138C213.961 135.239 211.25 128.817 209.113 124.469C206.795 119.754 204.635 116.393 204.613 116.362L204.84 116.212C204.861 116.246 207.028 119.618 209.354 124.346C211.486 128.684 214.185 135.079 214.988 140.982C215.858 140.982 221.474 140.883 228.582 138.65C235.69 136.417 245.773 131.538 253.498 120.954L253.718 121.115C245.945 131.762 235.798 136.671 228.653 138.914C221.484 141.166 215.817 141.255 214.979 141.255Z" fill="white"/>
</g>
<g style="mix-blend-mode:soft-light">
<path d="M208.842 169.993C203.937 169.993 201.028 169.331 200.963 169.314L200.823 169.281L200.864 169.143C204.575 156.528 195.035 142.307 194.938 142.164L195.164 142.013C195.261 142.156 204.805 156.377 201.167 169.081C202.733 169.405 217.15 172.032 235.851 163.64L235.963 163.889C224.808 168.892 215.165 169.993 208.842 169.993Z" fill="white"/>
</g>
</g>
<path d="M180.936 200.325C184.293 194.801 188.414 189.779 193.178 185.409C204.004 175.506 210.967 175.701 214.083 168.036C217.307 160.101 211.366 156.141 215.419 147.091C215.759 146.329 220.179 136.784 227.696 136.463C232.954 136.236 236.903 140.649 238.757 142.717C245.95 150.748 250.132 165.852 243.098 177.15C236.429 187.861 223.052 189.759 218.796 190.335C211.324 191.345 208.633 189.405 201.124 190.637C191.987 192.131 185.172 196.768 180.936 200.325Z" fill="url(#paint2_linear_1_3721)"/>
<path d="M103.793 227.817C107.234 222.379 111.653 213.478 110.349 203.298C108.072 185.535 90.9343 183.859 82.9033 162.463C76.4263 145.206 84.1577 137.194 74.6701 123.533C73.0852 121.246 64.8181 108.864 54.3803 109.802C48.4988 110.33 44.5388 114.846 43.7954 115.694C32.5577 128.508 37.8672 158.26 53.1358 177.298C61.9094 188.237 66.4233 187.784 83.3999 203.395C91.2329 210.613 98.0887 218.823 103.793 227.817Z" fill="url(#paint3_linear_1_3721)"/>
<g style="mix-blend-mode:soft-light">
<g style="mix-blend-mode:soft-light">
<path d="M102.777 235.622L102.509 235.57C105.497 220.434 103.966 208.777 97.9586 200.918C95.0265 197.083 92.0884 195.428 88.9774 193.677C85.5812 191.766 82.074 189.789 78.4461 184.779C74.9163 179.905 74.3849 176.431 73.7132 172.035C73.1155 168.125 72.3714 163.259 69.2121 155.862C66.443 149.378 63.9291 145.825 61.7117 142.693C59.2861 139.267 57.3706 136.561 56.0272 131.338C53.8385 122.826 54.7608 113.496 58.7661 103.606L59.0189 103.708C55.0362 113.543 54.1185 122.816 56.2913 131.269C57.6219 136.444 59.5253 139.133 61.9344 142.536C64.16 145.68 66.683 149.244 69.4634 155.755C72.6332 163.183 73.3827 168.068 73.9827 171.994C74.6491 176.354 75.1759 179.798 78.6672 184.619C82.2604 189.581 85.7427 191.542 89.111 193.439C92.2468 195.205 95.2084 196.873 98.1744 200.752C104.233 208.679 105.781 220.408 102.777 235.622Z" fill="white"/>
</g>
<g style="mix-blend-mode:soft-light">
<path d="M62.9103 144.181L62.7397 144.115C51.8288 139.889 45.5458 132.43 42.1963 126.919C38.5669 120.948 37.5028 115.905 37.4922 115.856L37.7601 115.8C37.7699 115.85 38.8273 120.857 42.4356 126.787C45.7458 132.23 51.939 139.585 62.6695 143.795C62.8794 141.649 65.1314 121.305 75.2877 116.493L75.4046 116.74C64.8741 121.736 62.9443 143.777 62.9246 144L62.9103 144.181Z" fill="white"/>
</g>
<g style="mix-blend-mode:soft-light">
<path d="M72.0582 163.866C71.2197 163.866 65.5525 163.777 58.3782 161.526C51.2333 159.283 41.0846 154.374 33.3125 143.727L33.5336 143.566C41.2612 154.153 51.354 159.038 58.4597 161.266C65.5653 163.494 71.1721 163.593 72.0446 163.594C72.8453 157.691 75.5465 151.296 77.6785 146.958C80.0031 142.229 82.1721 138.857 82.1933 138.823L82.4197 138.974C82.3978 139.007 80.2363 142.37 77.9193 147.084C75.7819 151.431 73.0717 157.852 72.2967 163.75L72.2816 163.866H72.1638L72.0582 163.866Z" fill="white"/>
</g>
<g style="mix-blend-mode:soft-light">
<path d="M78.1942 192.604C71.8712 192.604 62.2297 191.503 51.0742 186.498L51.1859 186.249C69.8886 194.641 84.3037 192.015 85.8704 191.691C82.2335 178.986 91.7761 164.766 91.8735 164.623L92.0999 164.774C92.0033 164.917 82.4629 179.138 86.1738 191.752L86.2146 191.89L86.075 191.924C86.0086 191.942 83.0999 192.604 78.1942 192.604Z" fill="white"/>
</g>
</g>
<path d="M106.099 222.936C102.742 217.412 98.62 212.39 93.8564 208.02C83.0308 198.117 76.067 198.312 72.9508 190.647C69.7274 182.712 75.6677 178.752 71.6157 169.702C71.2753 168.941 66.8549 159.395 59.3387 159.074C54.0806 158.848 50.1311 163.26 48.2776 165.328C41.0874 173.359 36.9055 188.463 43.9387 199.761C50.6081 210.472 63.9847 212.371 68.2406 212.947C75.7123 213.956 78.4036 212.017 85.913 213.248C95.0474 214.742 101.862 219.379 106.099 222.936Z" fill="url(#paint4_linear_1_3721)"/>
<path d="M159.697 101.207C159.647 101.213 159.597 101.215 159.546 101.215C158.746 101.215 158.062 100.561 157.984 99.6882C156.603 84.1886 151.9 69.4595 144.731 58.2157C138.38 48.2535 130.819 42.3116 124.505 42.3116H124.484C101.474 42.3591 96.6603 99.1018 96.6143 99.6754C96.5388 100.604 95.7841 101.291 94.9147 101.212C94.0452 101.133 93.4098 100.315 93.4845 99.3863C93.6815 96.9206 98.6082 38.9908 124.478 38.9335H124.506C131.97 38.9335 140.286 45.2633 147.327 56.3056C154.792 68.0135 159.688 83.3063 161.113 99.3674C161.192 100.302 160.558 101.122 159.697 101.207Z" fill="url(#paint5_linear_1_3721)"/>
<path d="M63.6837 217.999L93.9742 234.471L112.327 173.98L82.0867 92.8828L73.5101 95.1409L60.501 211.61C60.2067 214.247 61.4784 216.8 63.6837 217.999Z" fill="url(#paint6_linear_1_3721)"/>
<path style="mix-blend-mode:multiply" opacity="0.3" d="M112.327 173.979L82.0865 92.8828L77.0299 94.2149C76.3287 105.043 76.6366 113.955 77.1136 120.442C79.1408 148.053 85.8729 155.737 82.6117 174.998C79.9 191.015 73.977 193.187 74.4948 203.964C75.0593 215.699 82.6797 225.527 91.7408 233.256L93.9755 234.471L112.327 173.979Z" fill="url(#paint7_linear_1_3721)"/>
<path d="M82.0859 92.8828L196.155 99.0934L232.406 222.49L93.9735 234.471L82.0859 92.8828Z" fill="url(#paint8_linear_1_3721)"/>
<g style="mix-blend-mode:multiply" opacity="0.3">
<path style="mix-blend-mode:multiply" opacity="0.3" d="M196.156 99.0944L136.668 95.856C135.664 97.4341 134.334 100.007 134.087 103.285C132.623 122.682 172.653 128.966 176.241 152.78C178.971 170.909 162.17 191.829 147.178 201.149C131.384 210.968 120.682 205.995 109.999 216.897C105.306 221.687 102.448 227.676 100.748 233.885L232.407 222.489L196.156 99.0944Z" fill="url(#paint9_linear_1_3721)"/>
</g>
<path d="M117.073 103.992C116.361 103.992 115.715 103.463 115.545 102.689C115.224 101.22 107.804 66.4905 118.264 49.4475C121.262 44.5622 125.452 41.5803 130.717 40.5826C157.764 35.4641 174.415 97.8588 175.112 100.518C175.347 101.414 174.86 102.346 174.025 102.598C173.189 102.85 172.322 102.327 172.087 101.43C171.924 100.809 155.533 39.3034 131.262 43.9064C126.821 44.7479 123.427 47.1675 120.887 51.3026C111.161 67.1456 118.527 101.57 118.602 101.917C118.8 102.823 118.276 103.728 117.432 103.945C117.314 103.975 117.194 103.991 117.073 103.992Z" fill="url(#paint10_linear_1_3721)"/>
<path d="M117.086 108.961C119.51 108.961 121.476 106.85 121.476 104.246C121.476 101.642 119.51 99.5304 117.086 99.5304C114.661 99.5304 112.695 101.642 112.695 104.246C112.695 106.85 114.661 108.961 117.086 108.961Z" fill="url(#paint11_linear_1_3721)"/>
<path d="M174.339 108.524C176.764 108.524 178.73 106.413 178.73 103.809C178.73 101.205 176.764 99.0934 174.339 99.0934C171.915 99.0934 169.949 101.205 169.949 103.809C169.949 106.413 171.915 108.524 174.339 108.524Z" fill="url(#paint12_linear_1_3721)"/>
<path d="M204.885 158.471L169.47 123.937C169.117 123.584 168.666 123.346 168.176 123.252C167.685 123.159 167.178 123.215 166.72 123.413L147.821 131.665C146.228 132.36 145.679 134.486 146.711 135.967L177.556 180.129C178.408 181.35 180.012 181.619 181.17 180.733L204.642 162.851C206.005 161.811 206.125 159.68 204.885 158.471ZM164.388 136.075C163.194 136.937 161.313 136.177 160.187 134.377C159.061 132.577 159.114 130.419 160.307 129.557C161.501 128.695 163.381 129.456 164.508 131.256C165.635 133.056 165.585 135.216 164.388 136.075Z" fill="#D8DEE8"/>
<path d="M204.884 157.999L169.47 123.467C169.116 123.113 168.665 122.873 168.174 122.78C167.682 122.687 167.175 122.744 166.716 122.944L147.817 131.195C146.224 131.89 145.675 134.016 146.707 135.497L177.552 179.66C178.405 180.88 180.008 181.15 181.166 180.264L204.638 162.383C206.005 161.34 206.125 159.208 204.884 157.999ZM164.387 135.606C163.193 136.468 161.313 135.707 160.186 133.907C159.06 132.107 159.113 129.95 160.306 129.088C161.5 128.227 163.38 128.987 164.507 130.787C165.634 132.587 165.584 134.744 164.387 135.606Z" fill="#F4F7FA"/>
<path d="M157.027 127.125C156.97 127.125 156.914 127.109 156.867 127.077C156.819 127.045 156.782 127.001 156.76 126.948C155.533 124.056 153.878 121.558 151.841 119.523C146.256 113.947 139.054 113.071 132.085 112.223C125.15 111.379 118.6 110.583 114.686 105.063C113.696 103.666 112.157 101.139 112.983 99.9268C113.314 99.4392 113.975 99.2151 114.945 99.2619C114.984 99.2629 115.022 99.2716 115.057 99.2875C115.092 99.3035 115.124 99.3262 115.15 99.3546C115.177 99.3829 115.197 99.4162 115.21 99.4524C115.224 99.4887 115.23 99.5273 115.228 99.5659C115.226 99.6045 115.217 99.6424 115.2 99.6773C115.183 99.7122 115.16 99.7434 115.131 99.7692C115.102 99.7949 115.068 99.8146 115.032 99.8272C114.995 99.8397 114.957 99.8449 114.918 99.8423C114.398 99.8181 113.724 99.8687 113.463 100.254C113.025 100.899 113.689 102.655 115.16 104.728C118.924 110.036 125.349 110.818 132.154 111.646C139.221 112.506 146.529 113.395 152.251 119.112C154.341 121.2 156.037 123.76 157.293 126.722C157.322 126.792 157.323 126.87 157.295 126.941C157.266 127.011 157.212 127.068 157.142 127.099C157.106 127.115 157.067 127.124 157.027 127.125Z" fill="#26264F"/>
<path d="M160.052 132.969C159.995 132.969 159.939 132.952 159.891 132.92C159.843 132.888 159.806 132.843 159.784 132.79C159.762 132.737 159.756 132.678 159.768 132.622C159.779 132.565 159.807 132.514 159.848 132.473C159.872 132.448 162.297 129.995 162.285 126.722C162.278 124.711 161.363 122.797 159.568 121.033C155.758 117.291 145.649 112.958 136.731 109.136C131.288 106.802 126.146 104.599 122.768 102.698C122.003 102.267 121.193 101.857 120.361 101.482C120.324 101.467 120.291 101.445 120.262 101.418C120.234 101.39 120.212 101.357 120.197 101.32C120.182 101.284 120.175 101.244 120.176 101.205C120.177 101.165 120.185 101.127 120.202 101.091C120.218 101.055 120.242 101.022 120.271 100.996C120.3 100.969 120.334 100.949 120.372 100.936C120.409 100.923 120.449 100.918 120.488 100.921C120.527 100.924 120.566 100.935 120.601 100.953C121.448 101.336 122.273 101.753 123.054 102.192C126.403 104.079 131.531 106.275 136.959 108.602C145.925 112.445 156.086 116.802 159.978 120.619C161.892 122.498 162.864 124.552 162.87 126.726C162.88 130.245 160.369 132.78 160.261 132.886C160.234 132.913 160.201 132.934 160.165 132.949C160.129 132.963 160.091 132.97 160.052 132.969Z" fill="#26264F"/>
<path d="M204.884 157.999L169.469 123.467C169.116 123.113 168.665 122.873 168.174 122.78C167.682 122.687 167.175 122.744 166.716 122.944L165.033 123.678C165.529 125.505 166.235 127.269 167.138 128.933C172.369 138.525 180.949 138.112 182.934 144.769C184.692 150.669 178.797 153.834 178.02 162.113C177.632 166.249 178.518 171.752 183.265 178.664L204.635 162.382C206.005 161.34 206.125 159.209 204.884 157.999Z" fill="white"/>
<path d="M173.106 146.244C175.045 149.453 174.644 152.114 173.098 153.192C171.471 154.324 169.133 153.477 167.392 150.599C165.738 147.863 165.65 144.973 167.475 143.7C169.316 142.415 171.522 143.626 173.106 146.244ZM169.193 149.207C170.163 150.812 171.241 151.703 171.964 151.199C172.671 150.706 172.389 149.427 171.347 147.705C170.406 146.149 169.385 145.152 168.61 145.69C167.869 146.207 168.266 147.675 169.193 149.207ZM177.109 159.516L173.66 139.386L175.008 138.446L178.444 158.587L177.109 159.516ZM184.651 147.245C186.592 150.454 186.19 153.115 184.644 154.189C183.033 155.313 180.695 154.462 178.939 151.595C177.284 148.859 177.196 145.969 179.021 144.696C180.863 143.416 183.068 144.627 184.651 147.245ZM180.754 150.198C181.707 151.814 182.784 152.706 183.508 152.201C184.214 151.708 183.932 150.429 182.891 148.707C181.949 147.15 180.943 146.141 180.17 146.681C179.416 147.209 179.829 148.665 180.754 150.198Z" fill="#D8DEE8"/>
<path d="M177.853 170.653C177.606 170.65 177.364 170.581 177.153 170.453C176.942 170.326 176.769 170.144 176.651 169.927C176.249 169.215 176.46 168.288 177.123 167.855L194.18 156.735C194.843 156.304 195.706 156.531 196.109 157.242C196.511 157.954 196.3 158.882 195.637 159.314L178.58 170.434C178.364 170.576 178.111 170.652 177.853 170.653Z" fill="#D8DEE8"/>
<path d="M155.342 234.923C155.342 236.472 154.243 237.804 152.894 237.884L57.8488 243.689C56.0481 243.795 54.0156 242.272 54.0156 240.472V173.957C54.0156 172.157 56.0971 170.644 57.8979 170.719L152.894 174.785C154.243 174.841 155.342 176.153 155.342 177.702V234.923Z" fill="url(#paint13_linear_1_3721)"/>
<path d="M157.106 235.032C157.106 236.588 156.001 237.926 154.646 238.007L58.5857 243.698C58.1622 243.728 57.737 243.67 57.3369 243.528C56.9369 243.386 56.5705 243.162 56.2609 242.872C55.9513 242.581 55.7052 242.23 55.5379 241.839C55.3707 241.449 55.286 241.028 55.2891 240.604V173.771C55.2876 173.345 55.373 172.922 55.5399 172.529C55.7069 172.137 55.9521 171.782 56.2605 171.487C56.5689 171.192 56.9341 170.963 57.3338 170.814C57.7336 170.665 58.1595 170.598 58.5857 170.619L154.646 174.602C156.004 174.658 157.106 175.977 157.106 177.534V235.032Z" fill="url(#paint14_linear_1_3721)"/>
<path d="M157.106 219.363L55.2891 224.586V236.826L157.106 230.85V219.363Z" fill="url(#paint15_linear_1_3721)"/>
<g style="mix-blend-mode:multiply" opacity="0.15">
<path style="mix-blend-mode:multiply" opacity="0.15" d="M85.3381 192.721C85.2226 200.317 80.4724 204.264 75.1826 204.244C69.4203 204.222 64.8007 199.803 64.9101 192.545C65.015 185.647 69.3629 180.733 75.8173 181.215C82.0822 181.686 85.4339 186.521 85.3381 192.721ZM71.6573 192.575C71.5969 196.537 72.8935 199.417 75.4263 199.465C77.8648 199.51 79.0799 197.025 79.1426 192.868C79.1999 189.11 78.2369 186.145 75.5735 185.985C72.9811 185.831 71.7146 188.787 71.6573 192.575ZM77.0045 216.995L95.3592 183.764C95.531 183.452 95.7886 183.197 96.1012 183.028C96.4139 182.859 96.7685 182.783 97.123 182.81C97.4327 182.833 97.7316 182.933 97.9925 183.102C98.2533 183.27 98.4677 183.502 98.6161 183.774C98.7644 184.047 98.842 184.353 98.8417 184.664C98.8414 184.974 98.7632 185.28 98.6143 185.552L80.4633 218.774C80.3102 219.055 80.0873 219.291 79.8161 219.46C79.5449 219.629 79.2347 219.725 78.9154 219.739L78.7124 219.748C78.3827 219.763 78.0552 219.689 77.7634 219.535C77.4716 219.381 77.2261 219.152 77.0522 218.872C76.8782 218.592 76.7821 218.27 76.7737 217.94C76.7654 217.61 76.845 217.284 77.0045 216.995ZM108.41 207.63C108.302 214.665 104.226 218.514 99.6981 218.717C94.8309 218.93 90.9049 215.05 90.9539 208.364C91.0505 202.006 94.7547 197.28 100.264 197.428C105.628 197.568 108.497 201.887 108.41 207.63ZM96.7547 208.092C96.649 211.751 97.7524 214.356 99.9162 214.29C102 214.229 103.043 211.882 103.101 208.038C103.154 204.561 102.38 201.865 100.104 201.838C97.8415 201.811 96.8052 204.595 96.7547 208.092Z" fill="url(#paint16_linear_1_3721)"/>
</g>
<path d="M86.224 192.367C86.1093 199.963 81.3584 203.91 76.0693 203.89C70.3063 203.868 65.6867 199.45 65.7969 192.192C65.901 185.294 70.2497 180.379 76.7033 180.862C82.9682 181.333 86.3184 186.168 86.224 192.367ZM72.5433 192.221C72.4836 196.184 73.7803 199.064 76.3131 199.111C78.7508 199.156 79.9667 196.673 80.0293 192.516C80.0859 188.757 79.1236 185.792 76.4595 185.632C73.8693 185.477 72.6036 188.434 72.5433 192.221ZM77.8912 216.642L96.2452 183.411C96.4171 183.099 96.6748 182.844 96.9876 182.675C97.3003 182.506 97.6551 182.43 98.0097 182.456C98.3194 182.479 98.6183 182.58 98.8792 182.748C99.14 182.917 99.3543 183.148 99.5027 183.421C99.651 183.694 99.7286 184 99.7283 184.31C99.728 184.621 99.6499 184.927 99.501 185.199L81.3501 218.421C81.1967 218.702 80.9737 218.938 80.7026 219.106C80.4314 219.275 80.1213 219.372 79.8021 219.386L79.5991 219.395C79.2695 219.409 78.9419 219.336 78.6501 219.182C78.3583 219.028 78.1128 218.799 77.9389 218.518C77.765 218.238 77.6689 217.916 77.6605 217.586C77.6521 217.257 77.7317 216.93 77.8912 216.642ZM109.296 207.276C109.189 214.312 105.112 218.161 100.586 218.359C95.7199 218.574 91.7931 214.693 91.8429 208.007C91.9387 201.648 95.6436 196.922 101.153 197.07C106.515 197.214 109.383 201.534 109.296 207.276ZM97.6384 207.738C97.5335 211.397 98.6368 214.002 100.8 213.937C102.884 213.876 103.927 211.528 103.985 207.684C104.038 204.212 103.264 201.512 100.989 201.485C98.7274 201.457 97.6912 204.242 97.6384 207.738Z" fill="white"/>
<path style="mix-blend-mode:multiply" opacity="0.3" d="M154.645 174.602L59.6914 170.665C63.9774 183.356 70.1148 189.041 75.3895 191.824C85.4273 197.122 92.6243 192.063 101.227 198.918C110.057 205.955 106.694 214.643 115.991 220.497C122.979 224.897 127.483 221.629 134.73 225.608C140.097 228.551 143.451 233.542 145.598 238.54L154.654 238.003C156.013 237.922 157.115 236.584 157.115 235.028V177.534C157.106 175.977 156 174.658 154.645 174.602Z" fill="url(#paint17_linear_1_3721)"/>
<path style="mix-blend-mode:multiply" opacity="0.3" d="M155.768 205.021L153.451 202.823L151.252 205.14L148.935 202.943L146.737 205.26L144.42 203.062L142.221 205.379L139.904 203.18L137.707 205.497L135.39 203.299L133.191 205.616L130.874 203.417L128.679 205.736L126.362 203.537L124.163 205.854L121.846 203.656L119.649 205.973L116.688 203.164V237.869C116.688 237.869 116.567 239.857 114.164 240.38L155.141 237.375C155.594 237.341 156.036 237.215 156.439 237.005C156.874 236.441 157.109 235.748 157.108 235.035V203.611L155.768 205.021Z" fill="url(#paint18_linear_1_3721)"/>
<path d="M162.356 203.87V235.484C162.356 237.248 160.951 238.714 159.192 238.844L146.199 239.795L118.123 241.848C120.526 241.325 120.578 239.337 120.578 239.337V204.631L123.597 207.441L125.178 205.806L125.839 205.127L128.163 207.325L130.365 205.008L132.684 207.207L134.883 204.89L137.2 207.087L139.399 204.771L141.715 206.969L143.914 204.652L146.231 206.85L148.431 204.533L150.747 206.732L152.946 204.415L155.263 206.615L157.461 204.296L159.822 206.496L162.356 203.87Z" fill="white"/>
<path d="M157.624 222.23L152.556 222.457C152.392 222.464 152.238 222.534 152.124 222.653C152.011 222.772 151.947 222.929 151.947 223.094V225.42C151.947 225.506 151.965 225.592 151.999 225.672C152.034 225.752 152.084 225.824 152.147 225.883C152.21 225.943 152.285 225.989 152.366 226.019C152.448 226.049 152.535 226.061 152.621 226.057L157.689 225.771C157.852 225.762 158.006 225.691 158.118 225.573C158.23 225.454 158.293 225.298 158.293 225.134V222.868C158.293 222.782 158.275 222.696 158.241 222.617C158.207 222.537 158.158 222.466 158.095 222.406C158.033 222.346 157.959 222.3 157.878 222.27C157.797 222.24 157.711 222.226 157.624 222.23Z" fill="#D8DEE8"/>
<path d="M157.618 226.725L152.551 227.011C152.388 227.02 152.234 227.091 152.122 227.209C152.01 227.328 151.947 227.485 151.947 227.648V230.076C151.947 230.163 151.965 230.25 152 230.33C152.034 230.41 152.085 230.482 152.149 230.542C152.212 230.602 152.288 230.648 152.37 230.677C152.452 230.707 152.539 230.719 152.627 230.713L157.694 230.39C157.856 230.38 158.008 230.308 158.119 230.19C158.23 230.071 158.291 229.915 158.291 229.753V227.362C158.291 227.276 158.274 227.19 158.239 227.11C158.205 227.03 158.155 226.959 158.092 226.899C158.029 226.839 157.954 226.793 157.873 226.763C157.791 226.734 157.705 226.721 157.618 226.725Z" fill="#D8DEE8"/>
<path d="M158.291 215.784V211.622C158.291 211.537 158.273 211.452 158.24 211.373C158.207 211.294 158.158 211.223 158.096 211.163C158.034 211.104 157.961 211.057 157.881 211.027C157.801 210.996 157.716 210.982 157.63 210.985L152.562 211.167C152.397 211.173 152.241 211.242 152.126 211.361C152.011 211.48 151.947 211.639 151.947 211.804V216.012C151.947 216.098 151.965 216.183 151.999 216.263C152.033 216.342 152.082 216.414 152.145 216.473C152.207 216.533 152.281 216.579 152.361 216.609C152.442 216.64 152.528 216.653 152.614 216.65L157.682 216.423C157.846 216.416 158.001 216.345 158.115 216.226C158.228 216.107 158.291 215.948 158.291 215.784Z" fill="#D8DEE8"/>
<path d="M147.095 222.705L126.461 223.635C126.296 223.643 126.142 223.713 126.028 223.832C125.915 223.951 125.851 224.109 125.852 224.273V226.893C125.852 226.98 125.869 227.065 125.904 227.145C125.938 227.225 125.988 227.297 126.051 227.356C126.114 227.416 126.189 227.462 126.271 227.492C126.352 227.522 126.439 227.535 126.526 227.53L147.16 226.367C147.323 226.358 147.476 226.287 147.588 226.169C147.701 226.05 147.763 225.893 147.763 225.73V223.343C147.763 223.256 147.746 223.171 147.712 223.091C147.678 223.012 147.628 222.94 147.566 222.881C147.503 222.821 147.429 222.775 147.348 222.744C147.267 222.714 147.181 222.701 147.095 222.705Z" fill="#D8DEE8"/>
<path d="M147.089 227.321L126.455 228.485C126.292 228.493 126.139 228.564 126.026 228.683C125.914 228.801 125.852 228.958 125.852 229.122V231.745C125.852 231.832 125.869 231.919 125.904 231.999C125.939 232.079 125.99 232.151 126.053 232.211C126.117 232.27 126.192 232.316 126.274 232.346C126.356 232.375 126.444 232.387 126.531 232.381L147.165 231.064C147.327 231.054 147.479 230.982 147.59 230.864C147.701 230.746 147.762 230.59 147.763 230.427V227.959C147.763 227.872 147.745 227.786 147.711 227.706C147.676 227.627 147.626 227.555 147.563 227.495C147.5 227.435 147.426 227.389 147.344 227.359C147.263 227.329 147.176 227.316 147.089 227.321Z" fill="#D8DEE8"/>
<path d="M147.764 216.259V212C147.764 211.914 147.747 211.829 147.713 211.75C147.68 211.671 147.631 211.6 147.569 211.541C147.507 211.481 147.434 211.435 147.354 211.404C147.274 211.373 147.188 211.359 147.103 211.362L126.469 212.105C126.303 212.111 126.147 212.181 126.032 212.3C125.918 212.419 125.854 212.577 125.854 212.743V217.187C125.854 217.274 125.871 217.359 125.905 217.438C125.939 217.517 125.988 217.589 126.051 217.649C126.113 217.708 126.187 217.755 126.268 217.785C126.348 217.815 126.435 217.829 126.521 217.825L147.155 216.894C147.318 216.887 147.473 216.817 147.586 216.699C147.7 216.58 147.763 216.423 147.764 216.259Z" fill="#D8DEE8"/>
<g style="mix-blend-mode:multiply" opacity="0.4">
<path d="M146.176 239.795L118.113 241.848C120.517 241.325 120.58 239.337 120.58 239.337V204.632L123.599 207.442L125.18 205.806C126.499 206.999 127.559 208.915 127.853 211.952C128.834 222.066 133.571 221.397 139.162 221.777C144.753 222.156 147.326 228.627 145.063 233.626C144.049 235.862 144.462 238.113 146.176 239.795Z" fill="#F4F7FA"/>
</g>
<path d="M52.6934 240.981V245.125C52.6934 246.464 61.0579 247.55 71.3771 247.55C81.6964 247.55 90.0602 246.464 90.0602 245.125V240.981H52.6934Z" fill="url(#paint19_linear_1_3721)"/>
<path d="M90.0602 240.981C90.0602 242.32 81.6956 243.406 71.3771 243.406C61.0586 243.406 52.6934 242.322 52.6934 240.981C52.6934 239.64 61.0564 238.558 71.3771 238.558C81.6979 238.558 90.0602 239.645 90.0602 240.981Z" fill="url(#paint20_linear_1_3721)"/>
<path d="M71.3767 243.575C62.2379 243.575 52.6816 242.703 52.6816 241.019C52.6816 240.926 52.7149 240.764 52.8077 240.764C52.9005 240.764 52.8598 240.891 52.8598 240.983C52.8598 242.051 60.4643 243.241 71.3767 243.241C82.2892 243.241 89.8929 242.051 89.8929 240.983C89.8929 240.891 89.9088 240.805 90.0009 240.805C90.0929 240.805 90.071 240.928 90.071 241.02C90.071 242.703 80.5148 243.575 71.3767 243.575Z" fill="url(#paint21_linear_1_3721)"/>
<path d="M69.6116 241.118C69.7948 240.992 69.9905 240.866 70.1988 240.741C70.4524 240.598 70.722 240.486 71.0018 240.407C71.4051 240.292 71.817 240.211 72.2335 240.163C72.8459 240.093 73.4618 240.06 74.0781 240.063C74.8006 240.06 75.4798 240.083 76.1158 240.132C76.677 240.172 77.2352 240.246 77.7875 240.354C78.192 240.428 78.5862 240.55 78.9618 240.718C79.2637 240.862 79.4403 241.029 79.4984 241.215L81.6018 241.237C81.7373 241.236 81.8726 241.248 82.0056 241.274C82.1226 241.298 82.1799 241.328 82.1799 241.365V241.538L79.4758 241.512C79.3807 241.724 79.1389 241.918 78.7505 242.094C78.2738 242.299 77.7766 242.452 77.2675 242.552L76.2864 242.415C76.2125 242.405 76.1397 242.388 76.069 242.364C76.0116 242.342 75.9845 242.32 75.9845 242.296C75.9845 242.272 76.0599 242.22 76.2109 242.182C76.3618 242.143 76.5354 242.086 76.7271 242.022C76.9195 241.958 77.108 241.882 77.2916 241.796C77.4448 241.736 77.5745 241.628 77.6615 241.488L71.2781 241.425C71.0971 241.556 70.9089 241.678 70.7143 241.789C70.4516 241.929 70.1728 242.037 69.8841 242.111C69.4628 242.22 69.0339 242.297 68.6011 242.342C67.9577 242.409 67.3112 242.441 66.6645 242.438C66.0788 242.438 65.5098 242.418 64.9513 242.371C64.4519 242.332 63.9555 242.261 63.4652 242.159C63.0969 242.086 62.7388 241.969 62.3988 241.81C62.1226 241.672 61.9671 241.512 61.9347 241.332L60.1988 241.314C60.0617 241.314 59.9248 241.302 59.7898 241.278C59.6705 241.255 59.6094 241.224 59.6094 241.185V241.013L61.9769 241.035C62.0818 240.853 62.2962 240.693 62.6245 240.558C63.014 240.404 63.416 240.283 63.826 240.197L64.6192 240.305C64.8599 240.339 64.9799 240.381 64.9799 240.425C64.9799 240.449 64.9316 240.479 64.829 240.516C64.7264 240.553 64.6101 240.595 64.4735 240.646C64.3381 240.696 64.2063 240.756 64.0788 240.824C63.9667 240.878 63.8682 240.957 63.7905 241.055L69.6116 241.118ZM63.7739 241.358C63.8408 241.49 63.952 241.594 64.0879 241.652C64.2797 241.745 64.4826 241.813 64.6916 241.855C64.9589 241.912 65.2297 241.951 65.5022 241.972C65.8041 241.996 66.1191 242.008 66.4471 242.007C66.7823 242.007 67.1173 241.99 67.4509 241.957C67.705 241.931 67.9571 241.889 68.2056 241.83C68.3987 241.784 68.5876 241.722 68.7701 241.644C68.9198 241.578 69.0641 241.501 69.2018 241.413L63.7739 241.358ZM77.6705 241.207C77.623 241.092 77.5067 240.991 77.3264 240.905C77.1052 240.806 76.8732 240.733 76.635 240.687C76.3111 240.623 75.9834 240.579 75.6539 240.556C75.2816 240.527 74.8705 240.514 74.4207 240.516C74.0756 240.515 73.7306 240.533 73.3875 240.57C73.1346 240.597 72.8839 240.643 72.6373 240.705C72.4509 240.753 72.27 240.82 72.0977 240.905C71.9549 240.978 71.8168 241.059 71.6841 241.148L77.6705 241.207Z" fill="#FCB048"/>
<path d="M71.3788 238.821C63.0482 238.821 54.3743 239.554 52.9863 240.974C53.0401 241.023 53.0905 241.076 53.1373 241.133C54.3071 240.148 61.4693 239.155 71.378 239.155C81.5411 239.155 88.8188 240.199 89.6995 241.209C89.7429 241.153 89.7898 241.1 89.8399 241.051C88.6943 239.581 79.8573 238.821 71.3788 238.821Z" fill="url(#paint22_linear_1_3721)"/>
<path d="M47.5 236.63V240.774C47.5 242.114 55.8645 243.199 66.1838 243.199C76.503 243.199 84.8668 242.114 84.8668 240.774V236.63H47.5Z" fill="url(#paint23_linear_1_3721)"/>
<path d="M84.8668 236.63C84.8668 237.97 76.5023 239.055 66.1838 239.055C55.8653 239.055 47.5 237.97 47.5 236.63C47.5 235.291 55.8645 234.206 66.1838 234.206C76.503 234.206 84.8668 235.291 84.8668 236.63Z" fill="url(#paint24_linear_1_3721)"/>
<path d="M66.1834 239.222C57.0445 239.222 47.4883 238.349 47.4883 236.666C47.4883 236.574 47.5215 236.411 47.6143 236.411C47.7072 236.411 47.6664 236.538 47.6664 236.63C47.6664 237.698 55.2709 238.888 66.1834 238.888C77.0959 238.888 84.6997 237.698 84.6997 236.63C84.6997 236.538 84.7155 236.451 84.8076 236.451C84.8997 236.451 84.8778 236.575 84.8778 236.667C84.8778 238.351 75.3208 239.222 66.1834 239.222Z" fill="url(#paint25_linear_1_3721)"/>
<path d="M64.4173 236.765C64.6009 236.638 64.7966 236.513 65.0044 236.388C65.2579 236.245 65.5274 236.132 65.8075 236.053C66.2107 235.938 66.6226 235.857 67.0391 235.81C67.6514 235.739 68.2674 235.706 68.8837 235.71C69.6057 235.706 70.2837 235.729 70.9176 235.779C71.4788 235.818 72.0371 235.892 72.5893 236C72.9939 236.074 73.3881 236.197 73.7637 236.364C74.0656 236.509 74.2429 236.675 74.3003 236.862L76.4037 236.883C76.5392 236.882 76.6744 236.895 76.8074 236.921C76.9252 236.944 76.9818 236.974 76.9818 237.011V237.185L74.2776 237.158C74.1825 237.371 73.9408 237.565 73.5524 237.741C73.0755 237.945 72.5784 238.099 72.0693 238.198L71.0882 238.061C71.0142 238.051 70.9414 238.034 70.8708 238.01C70.8135 237.989 70.7863 237.967 70.7863 237.942C70.7863 237.917 70.8618 237.871 71.0127 237.828C71.1637 237.785 71.3373 237.732 71.529 237.669C71.7214 237.605 71.91 237.529 72.0935 237.443C72.2467 237.383 72.3765 237.275 72.4633 237.136L66.0799 237.072C65.8988 237.204 65.7106 237.325 65.5161 237.436C65.2535 237.577 64.9747 237.685 64.6859 237.758C64.2647 237.867 63.8358 237.945 63.4029 237.99C62.7595 238.056 62.1131 238.087 61.4663 238.084C60.8807 238.084 60.3116 238.065 59.7531 238.018C59.2528 237.981 58.7554 237.912 58.2641 237.811C57.8957 237.739 57.5376 237.622 57.1976 237.463C56.9214 237.324 56.7659 237.161 56.7335 236.984L54.9976 236.967C54.8605 236.967 54.7235 236.955 54.5886 236.93C54.4693 236.907 54.4082 236.877 54.4082 236.838V236.665L56.7758 236.687C56.8807 236.505 57.095 236.346 57.4233 236.21C57.813 236.057 58.2149 235.936 58.6248 235.849L59.418 235.958C59.6588 235.992 59.7788 236.034 59.7788 236.077C59.7788 236.102 59.7305 236.132 59.6278 236.168C59.5252 236.204 59.409 236.248 59.2724 236.299C59.1368 236.349 59.005 236.408 58.8776 236.477C58.7654 236.531 58.6669 236.61 58.5893 236.708L64.4173 236.765ZM58.5758 237.001C58.6424 237.133 58.7536 237.237 58.8897 237.295C59.0814 237.388 59.2843 237.457 59.4935 237.498C59.76 237.555 60.03 237.594 60.3018 237.615C60.6037 237.64 60.9186 237.651 61.2467 237.65C61.5819 237.651 61.9169 237.634 62.2505 237.601C62.5033 237.574 62.7541 237.532 63.0014 237.473C63.1946 237.427 63.3834 237.365 63.5659 237.287C63.7163 237.221 63.8614 237.144 63.9999 237.056L58.5758 237.001ZM72.4724 236.847C72.4248 236.731 72.3086 236.631 72.1282 236.545C71.9072 236.445 71.6751 236.372 71.4369 236.327C71.1131 236.261 70.7853 236.217 70.4557 236.195C70.0839 236.166 69.6729 236.153 69.2225 236.155C68.8774 236.154 68.5325 236.172 68.1893 236.208C67.9363 236.236 67.6856 236.281 67.4391 236.345C67.2527 236.392 67.0718 236.458 66.8995 236.544C66.7568 236.617 66.6186 236.698 66.4859 236.788L72.4724 236.847Z" fill="#FCB048"/>
<path d="M66.1893 234.468C57.8588 234.468 49.1848 235.201 47.7969 236.62C47.8508 236.67 47.9012 236.723 47.9478 236.78C49.1176 235.795 56.2799 234.803 66.1886 234.803C76.3516 234.803 83.6293 235.847 84.5108 236.856C84.5539 236.8 84.6005 236.747 84.6505 236.698C83.5018 235.228 74.6648 234.468 66.1893 234.468Z" fill="url(#paint26_linear_1_3721)"/>
<path d="M51.9805 232.291V236.435C51.9805 237.774 60.3458 238.859 70.6642 238.859C80.9827 238.859 89.348 237.774 89.348 236.435V232.291H51.9805Z" fill="url(#paint27_linear_1_3721)"/>
<path d="M89.348 232.291C89.348 233.63 80.9827 234.715 70.6642 234.715C60.3458 234.715 51.9805 233.63 51.9805 232.291C51.9805 230.952 60.3458 229.866 70.6642 229.866C80.9827 229.866 89.348 230.951 89.348 232.291Z" fill="url(#paint28_linear_1_3721)"/>
<path d="M70.6651 234.882C61.5262 234.882 51.9707 234.009 51.9707 232.326C51.9707 232.233 52.0032 232.071 52.096 232.071C52.1888 232.071 52.1488 232.198 52.1488 232.291C52.1488 233.358 59.7534 234.548 70.6651 234.548C81.5768 234.548 89.1813 233.358 89.1813 232.291C89.1813 232.198 89.1972 232.111 89.2892 232.111C89.3813 232.111 89.3594 232.235 89.3594 232.327C89.3587 234.011 79.8032 234.882 70.6651 234.882Z" fill="url(#paint29_linear_1_3721)"/>
<path d="M68.9003 232.426C69.0829 232.299 69.2786 232.173 69.4874 232.048C69.7407 231.906 70.01 231.793 70.2897 231.714C70.6929 231.599 71.1048 231.518 71.5214 231.47C72.1337 231.401 72.7497 231.368 73.3659 231.371C74.0879 231.367 74.7659 231.39 75.3999 231.439C75.9614 231.479 76.5199 231.553 77.0723 231.661C77.4766 231.735 77.8706 231.858 78.2459 232.025C78.5478 232.17 78.7267 232.336 78.7825 232.522L80.8867 232.543C81.0219 232.543 81.1569 232.556 81.2897 232.581C81.4074 232.605 81.464 232.636 81.464 232.672V232.845L78.7599 232.819C78.6648 233.032 78.423 233.226 78.0346 233.402C77.5577 233.606 77.0606 233.759 76.5516 233.859L75.5704 233.722C75.4964 233.712 75.4236 233.695 75.3531 233.67C75.2965 233.65 75.2686 233.627 75.2686 233.603C75.2686 233.579 75.344 233.528 75.495 233.489C75.6459 233.451 75.8187 233.393 76.0104 233.33C76.2029 233.266 76.3914 233.19 76.575 233.103C76.7283 233.044 76.8582 232.936 76.9455 232.796L70.5614 232.733C70.3804 232.865 70.1922 232.986 69.9976 233.097C69.7351 233.237 69.4563 233.345 69.1674 233.418C68.7463 233.528 68.3174 233.606 67.8844 233.651C67.241 233.716 66.5946 233.748 65.9478 233.745C65.3621 233.745 64.7931 233.726 64.2354 233.679C63.7357 233.64 63.2391 233.569 62.7486 233.467C62.3803 233.394 62.0222 233.277 61.6821 233.118C61.4059 232.979 61.2504 232.82 61.218 232.64L59.4867 232.622C59.3492 232.623 59.2121 232.61 59.0769 232.586C58.9576 232.563 58.8972 232.532 58.8965 232.494V232.321L61.2648 232.343C61.3697 232.161 61.584 232.002 61.9116 231.866C62.3013 231.712 62.7035 231.591 63.1138 231.505L63.9071 231.614C64.1478 231.648 64.2671 231.689 64.2671 231.732C64.2671 231.757 64.2188 231.787 64.1161 231.823L63.7606 231.954C63.6253 232.005 63.4934 232.064 63.3659 232.132C63.2539 232.187 63.1555 232.266 63.0776 232.363L68.9003 232.426ZM63.058 232.662C63.125 232.794 63.2365 232.898 63.3727 232.956C63.5647 233.048 63.7675 233.116 63.9765 233.159C64.2438 233.215 64.5146 233.254 64.787 233.275C65.0889 233.299 65.4042 233.311 65.7327 233.31C66.0677 233.31 66.4024 233.294 66.7357 233.26C66.9885 233.234 67.2393 233.192 67.4867 233.134C67.6797 233.087 67.8686 233.025 68.0512 232.946C68.2009 232.881 68.3452 232.804 68.4829 232.716L63.058 232.662ZM76.9546 232.506C76.9071 232.392 76.7916 232.291 76.6112 232.205C76.3897 232.105 76.1575 232.032 75.9191 231.986C75.5953 231.921 75.2675 231.877 74.938 231.854C74.5662 231.826 74.1551 231.813 73.7048 231.815C73.3599 231.814 73.0152 231.832 72.6723 231.869C72.419 231.896 72.1681 231.941 71.9214 232.005C71.7351 232.052 71.5543 232.119 71.3818 232.204C71.2392 232.277 71.101 232.358 70.9682 232.448L76.9546 232.506Z" fill="#FCB048"/>
<path d="M70.6678 230.128C62.3373 230.128 53.6633 230.861 52.2754 232.28C52.3291 232.33 52.3796 232.383 52.4263 232.44C53.5961 231.454 60.7584 230.462 70.6671 230.462C80.8301 230.462 88.1078 231.506 88.9894 232.516C89.0322 232.46 89.0789 232.407 89.129 232.358C87.9833 230.888 79.1463 230.128 70.6678 230.128Z" fill="url(#paint30_linear_1_3721)"/>
<path d="M54.7012 227.937V232.082C54.7012 233.42 63.0657 234.506 73.3842 234.506C83.7027 234.506 92.068 233.42 92.068 232.082V227.937H54.7012Z" fill="url(#paint31_linear_1_3721)"/>
<path d="M73.3849 230.362C83.7037 230.362 92.0687 229.277 92.0687 227.937C92.0687 226.598 83.7037 225.512 73.3849 225.512C63.0662 225.512 54.7012 226.598 54.7012 227.937C54.7012 229.277 63.0662 230.362 73.3849 230.362Z" fill="url(#paint32_linear_1_3721)"/>
<path d="M73.3838 230.529C64.2457 230.529 54.6895 229.657 54.6895 227.973C54.6895 227.88 54.7227 227.718 54.8147 227.718C54.9068 227.718 54.8676 227.845 54.8676 227.938C54.8676 229.005 62.4721 230.195 73.3838 230.195C84.2955 230.195 91.9 229.005 91.9 227.938C91.9 227.845 91.9159 227.759 92.0087 227.759C92.1015 227.759 92.0789 227.882 92.0789 227.975C92.0789 229.661 82.5227 230.529 73.3838 230.529Z" fill="url(#paint33_linear_1_3721)"/>
<path d="M71.6217 228.075C71.8051 227.949 71.9991 227.823 72.2089 227.698C72.4623 227.556 72.7316 227.443 73.0111 227.364C73.4144 227.249 73.8264 227.168 74.2428 227.12C74.8554 227.051 75.4716 227.017 76.0881 227.02C76.8106 227.017 77.4884 227.04 78.1213 227.09C78.6828 227.129 79.2413 227.203 79.7938 227.311C80.1984 227.385 80.5926 227.508 80.9681 227.675C81.27 227.82 81.4489 227.986 81.5047 228.173L83.6081 228.194C83.7434 228.193 83.8784 228.205 84.0111 228.231C84.1289 228.255 84.1862 228.285 84.1862 228.322V228.495L81.4813 228.469C81.387 228.682 81.1447 228.875 80.7568 229.051C80.28 229.256 79.7829 229.41 79.2738 229.509L78.2927 229.372C78.2185 229.362 78.1455 229.345 78.0745 229.321C78.0179 229.3 77.9908 229.278 77.99 229.253C77.9893 229.228 78.0655 229.182 78.2164 229.139C78.3674 229.096 78.541 229.043 78.7327 228.98C78.9248 228.916 79.113 228.84 79.2964 228.754C79.4498 228.694 79.5797 228.586 79.667 228.446L73.2821 228.385C73.1009 228.516 72.9127 228.638 72.7183 228.749C72.4555 228.889 72.1768 228.997 71.8881 229.07C71.4668 229.179 71.038 229.257 70.6051 229.302C69.9615 229.368 69.3148 229.4 68.6678 229.397C68.0828 229.397 67.513 229.377 66.9553 229.331C66.4559 229.292 65.9596 229.221 65.4693 229.119C65.101 229.046 64.743 228.929 64.4028 228.77C64.1256 228.631 63.9709 228.471 63.9387 228.291L62.2066 228.274C62.0695 228.274 61.9326 228.262 61.7976 228.238C61.6783 228.214 61.6172 228.183 61.6172 228.146V227.972L63.9847 227.995C64.0896 227.812 64.304 227.653 64.6323 227.518C65.0218 227.363 65.4238 227.242 65.8338 227.156L66.627 227.265C66.868 227.299 66.9883 227.338 66.9878 227.384C66.9878 227.408 66.9387 227.439 66.8368 227.475L66.4813 227.605C66.3464 227.656 66.2148 227.716 66.0874 227.783C65.9751 227.838 65.8766 227.917 65.7991 228.014L71.6217 228.075ZM65.7795 228.312C65.8467 228.443 65.9581 228.547 66.0942 228.605C66.286 228.698 66.4889 228.767 66.6979 228.808C66.9655 228.865 67.2365 228.905 67.5093 228.925C67.8111 228.95 68.1261 228.962 68.4542 228.96C68.7894 228.961 69.1245 228.944 69.4579 228.91C69.712 228.885 69.9642 228.842 70.2127 228.783C70.4058 228.737 70.5947 228.675 70.7772 228.597C70.9264 228.533 71.0705 228.457 71.2081 228.371L65.7795 228.312ZM79.6768 228.157C79.6293 228.042 79.513 227.94 79.3327 227.855C79.1114 227.755 78.8791 227.682 78.6406 227.636C78.3167 227.571 77.989 227.528 77.6594 227.505C77.2881 227.476 76.8773 227.463 76.427 227.465C76.0819 227.464 75.737 227.482 75.3938 227.519C75.1405 227.546 74.8896 227.592 74.6428 227.655C74.4567 227.702 74.276 227.769 74.104 227.854C73.961 227.927 73.8228 228.008 73.6904 228.098L79.6768 228.157Z" fill="#FCB048"/>
<path d="M73.3866 225.775C65.056 225.775 56.3813 226.508 54.9941 227.928C55.0479 227.977 55.0983 228.03 55.1451 228.087C56.3141 227.102 63.4772 226.109 73.3858 226.109C83.5489 226.109 90.8258 227.153 91.7074 228.163C91.7508 228.108 91.7975 228.055 91.847 228.005C90.7021 226.535 81.8651 225.775 73.3866 225.775Z" fill="url(#paint34_linear_1_3721)"/>
<path d="M52.6934 223.245V227.389C52.6934 228.728 61.0579 229.814 71.3771 229.814C81.6964 229.814 90.0602 228.728 90.0602 227.389V223.245H52.6934Z" fill="url(#paint35_linear_1_3721)"/>
<path d="M90.0602 223.245C90.0602 224.584 81.6956 225.669 71.3771 225.669C61.0586 225.669 52.6934 224.58 52.6934 223.245C52.6934 221.91 61.0579 220.82 71.3771 220.82C81.6964 220.82 90.0602 221.902 90.0602 223.245Z" fill="url(#paint36_linear_1_3721)"/>
<path d="M71.3767 225.833C62.2379 225.833 52.6816 224.96 52.6816 223.276C52.6816 223.184 52.7149 223.022 52.8077 223.022C52.9005 223.022 52.8598 223.149 52.8598 223.241C52.8598 224.309 60.4643 225.498 71.3767 225.498C82.2892 225.498 89.8929 224.309 89.8929 223.241C89.8929 223.149 89.9088 223.062 90.0009 223.062C90.0929 223.062 90.071 223.186 90.071 223.278C90.071 224.961 80.5148 225.833 71.3767 225.833Z" fill="url(#paint37_linear_1_3721)"/>
<path d="M69.6115 223.377C69.7949 223.249 69.9889 223.125 70.1987 222.999C70.4522 222.856 70.7217 222.744 71.0017 222.665C71.4049 222.55 71.8168 222.469 72.2334 222.421C72.8457 222.352 73.4617 222.318 74.0779 222.321C74.8004 222.317 75.4797 222.34 76.1157 222.39C76.6769 222.43 77.2351 222.504 77.7874 222.611C78.1918 222.686 78.586 222.808 78.9617 222.976C79.2636 223.121 79.4402 223.287 79.4983 223.473L81.6017 223.494C81.7372 223.494 81.8724 223.507 82.0055 223.532C82.1224 223.556 82.1798 223.586 82.1798 223.623V223.796L79.4719 223.774C79.3768 223.986 79.135 224.18 78.7466 224.356C78.2697 224.561 77.7726 224.714 77.2636 224.814L76.2824 224.676C76.2084 224.667 76.1356 224.65 76.0651 224.625C76.0077 224.605 75.9806 224.582 75.9806 224.557C75.9806 224.532 76.056 224.486 76.207 224.444C76.3579 224.402 76.5315 224.348 76.7232 224.285C76.9157 224.22 77.1042 224.145 77.2877 224.058C77.441 223.999 77.5708 223.891 77.6575 223.751L71.2741 223.688C71.0932 223.819 70.905 223.941 70.7104 224.051C70.4478 224.192 70.169 224.3 69.8802 224.373C69.4589 224.482 69.0301 224.56 68.5972 224.605C67.9537 224.671 67.3073 224.703 66.6606 224.7C66.0749 224.7 65.5058 224.681 64.9474 224.633C64.448 224.595 63.9516 224.524 63.4613 224.422C63.093 224.349 62.7349 224.232 62.3949 224.073C62.1187 223.934 61.9632 223.774 61.9308 223.594L60.1949 223.577C60.0577 223.577 59.9208 223.565 59.7858 223.54C59.6666 223.518 59.6055 223.487 59.6055 223.448V223.275L61.973 223.297C62.0779 223.115 62.2923 222.956 62.6206 222.82C63.0103 222.667 63.4122 222.546 63.8221 222.459L64.6153 222.568C64.8563 222.602 64.9765 222.642 64.976 222.687C64.976 222.712 64.9277 222.742 64.8251 222.778C64.7224 222.814 64.6062 222.858 64.4696 222.909C64.3341 222.959 64.2022 223.018 64.0749 223.087C63.9628 223.141 63.8643 223.22 63.7866 223.318L69.6115 223.377ZM63.77 223.612C63.8366 223.744 63.9479 223.848 64.084 223.906C64.2757 223.999 64.4786 224.068 64.6877 224.11C64.9551 224.166 65.2258 224.205 65.4983 224.226C65.8002 224.251 66.1152 224.262 66.4432 224.26C66.7784 224.261 67.1134 224.245 67.447 224.211C67.7011 224.185 67.9532 224.143 68.2017 224.084C68.3948 224.038 68.5837 223.976 68.7662 223.897C68.9157 223.833 69.0601 223.757 69.1979 223.671L63.77 223.612ZM77.6666 223.457C77.619 223.343 77.5028 223.242 77.3224 223.156C77.1014 223.056 76.8693 222.983 76.6311 222.937C76.3073 222.872 75.9795 222.828 75.65 222.805C75.2777 222.777 74.8666 222.763 74.4168 222.765C74.0717 222.765 73.7268 222.783 73.3836 222.819C73.1306 222.846 72.8799 222.892 72.6334 222.955C72.4471 223.003 72.2663 223.07 72.0938 223.155C71.951 223.227 71.8129 223.309 71.6802 223.399L77.6666 223.457Z" fill="#FCB048"/>
<path d="M71.3788 221.079C63.0482 221.079 54.3743 221.812 52.9863 223.231C53.0401 223.281 53.0905 223.335 53.1373 223.391C54.3071 222.405 61.4693 221.414 71.378 221.414C81.5411 221.414 88.8188 222.458 89.6995 223.467C89.7431 223.411 89.79 223.359 89.8399 223.309C88.6943 221.839 79.8573 221.079 71.3788 221.079Z" fill="url(#paint38_linear_1_3721)"/>
<path d="M47.5 218.888V223.032C47.5 224.371 55.8645 225.457 66.1838 225.457C76.503 225.457 84.8668 224.371 84.8668 223.032V218.888H47.5Z" fill="url(#paint39_linear_1_3721)"/>
<path d="M66.1838 221.313C76.5025 221.313 84.8675 220.228 84.8675 218.889C84.8675 217.549 76.5025 216.464 66.1838 216.464C55.865 216.464 47.5 217.549 47.5 218.889C47.5 220.228 55.865 221.313 66.1838 221.313Z" fill="url(#paint40_linear_1_3721)"/>
<path d="M66.1834 221.48C57.0445 221.48 47.4883 220.607 47.4883 218.924C47.4883 218.831 47.5215 218.668 47.6143 218.668C47.7072 218.668 47.6664 218.795 47.6664 218.888C47.6664 219.956 55.2709 221.145 66.1834 221.145C77.0959 221.145 84.6997 219.956 84.6997 218.888C84.6997 218.795 84.7155 218.709 84.8076 218.709C84.8997 218.709 84.8778 218.832 84.8778 218.925C84.8778 220.608 75.3208 221.48 66.1834 221.48Z" fill="url(#paint41_linear_1_3721)"/>
<path d="M64.4181 219.023C64.6018 218.897 64.7975 218.771 65.0053 218.646C65.2589 218.504 65.5285 218.391 65.8083 218.312C66.2116 218.197 66.6235 218.116 67.04 218.068C67.6524 217.999 68.2683 217.965 68.8846 217.968C69.6066 217.965 70.2846 217.988 70.9185 218.038C71.4797 218.077 72.038 218.151 72.5902 218.259C72.9947 218.333 73.3889 218.455 73.7646 218.623C74.0664 218.768 74.2438 218.934 74.3012 219.12L76.4046 219.142C76.54 219.141 76.6753 219.153 76.8083 219.179C76.9261 219.203 76.9827 219.233 76.9827 219.27V219.443L74.2785 219.417C74.1834 219.63 73.9417 219.824 73.5532 219.999C73.0765 220.204 72.5794 220.357 72.0702 220.457L71.0891 220.32C71.0152 220.31 70.9424 220.293 70.8717 220.269C70.8144 220.248 70.7872 220.225 70.7872 220.201C70.7872 220.177 70.8627 220.129 71.0136 220.087C71.1646 220.045 71.3381 219.991 71.5298 219.928C71.7223 219.865 71.9108 219.79 72.0944 219.705C72.2475 219.645 72.3772 219.537 72.4642 219.397L66.0808 219.334C65.8998 219.465 65.7116 219.587 65.517 219.697C65.2543 219.838 64.9755 219.946 64.6868 220.02C64.2655 220.129 63.8367 220.206 63.4038 220.251C62.7604 220.318 62.114 220.349 61.4672 220.346C60.8815 220.346 60.3125 220.327 59.754 220.28C59.2547 220.241 58.7583 220.17 58.268 220.068C57.8996 219.995 57.5415 219.878 57.2015 219.719C56.9253 219.58 56.7698 219.421 56.7374 219.241L55.0015 219.223C54.8644 219.223 54.7275 219.211 54.5925 219.187C54.4732 219.164 54.4121 219.133 54.4121 219.094V218.922L56.7797 218.944C56.8846 218.762 57.0989 218.602 57.4272 218.467C57.8168 218.313 58.2187 218.192 58.6287 218.106L59.4219 218.214C59.6627 218.248 59.7827 218.29 59.7827 218.334C59.7827 218.358 59.7344 218.388 59.6317 218.425C59.5291 218.462 59.4129 218.5 59.2763 218.555C59.1409 218.605 59.009 218.665 58.8815 218.733C58.7694 218.787 58.6709 218.866 58.5932 218.964L64.4181 219.023ZM58.5766 219.26C58.6435 219.391 58.7547 219.495 58.8906 219.553C59.0824 219.646 59.2853 219.715 59.4944 219.756C59.7617 219.813 60.0325 219.852 60.3049 219.873C60.6068 219.898 60.9218 219.909 61.2498 219.908C61.5851 219.908 61.9201 219.892 62.2536 219.858C62.5065 219.833 62.7573 219.79 63.0046 219.731C63.1977 219.685 63.3866 219.623 63.5691 219.545C63.7187 219.479 63.8631 219.402 64.0008 219.314L58.5766 219.26ZM72.4732 219.105C72.4257 218.989 72.3095 218.888 72.1291 218.803C71.9079 218.704 71.6759 218.631 71.4378 218.585C71.1139 218.52 70.7862 218.476 70.4566 218.454C70.0848 218.425 69.6737 218.412 69.2234 218.414C68.8783 218.412 68.5334 218.43 68.1902 218.467C67.9373 218.495 67.6866 218.54 67.44 218.603C67.2536 218.651 67.0728 218.718 66.9004 218.803C66.7577 218.875 66.6195 218.957 66.4868 219.046L72.4732 219.105Z" fill="#FCB048"/>
<path d="M66.1893 216.726C57.8588 216.726 49.1848 217.459 47.7969 218.878C47.8506 218.928 47.901 218.981 47.9478 219.038C49.1176 218.053 56.2799 217.06 66.1886 217.06C76.3516 217.06 83.6293 218.104 84.5108 219.114C84.5537 219.058 84.6004 219.005 84.6505 218.955C83.5018 217.486 74.6648 216.726 66.1893 216.726Z" fill="url(#paint42_linear_1_3721)"/>
<path d="M51.9805 214.548V218.692C51.9805 220.031 60.3458 221.117 70.6642 221.117C80.9827 221.117 89.348 220.031 89.348 218.692V214.548H51.9805Z" fill="url(#paint43_linear_1_3721)"/>
<path d="M70.6642 216.973C80.983 216.973 89.348 215.887 89.348 214.548C89.348 213.209 80.983 212.123 70.6642 212.123C60.3455 212.123 51.9805 213.209 51.9805 214.548C51.9805 215.887 60.3455 216.973 70.6642 216.973Z" fill="url(#paint44_linear_1_3721)"/>
<path d="M70.6651 217.14C61.5262 217.14 51.9707 216.267 51.9707 214.583C51.9707 214.491 52.0032 214.328 52.096 214.328C52.1888 214.328 52.1488 214.456 52.1488 214.548C52.1488 215.616 59.7534 216.805 70.6651 216.805C81.5768 216.805 89.1813 215.616 89.1813 214.548C89.1813 214.456 89.1972 214.369 89.2892 214.369C89.3813 214.369 89.3594 214.492 89.3594 214.585C89.3587 216.269 79.8032 217.14 70.6651 217.14Z" fill="url(#paint45_linear_1_3721)"/>
<path d="M68.9003 214.683C69.0829 214.556 69.2786 214.43 69.4874 214.306C69.7407 214.163 70.01 214.05 70.2897 213.971C70.6929 213.856 71.1049 213.775 71.5214 213.728C72.1337 213.657 72.7496 213.624 73.3659 213.628C74.0879 213.624 74.7659 213.647 75.3999 213.697C75.9613 213.736 76.5199 213.81 77.0723 213.918C77.4767 213.992 77.8707 214.114 78.2459 214.282C78.5478 214.427 78.7267 214.593 78.7825 214.78L80.8867 214.801C81.0219 214.8 81.1568 214.812 81.2897 214.838C81.4074 214.862 81.464 214.892 81.464 214.929V215.103L78.7599 215.076C78.6648 215.289 78.423 215.483 78.0346 215.658C77.5579 215.863 77.0608 216.017 76.5516 216.116L75.5704 215.979C75.4965 215.969 75.4237 215.952 75.3531 215.928C75.2965 215.907 75.2686 215.885 75.2686 215.86C75.2686 215.835 75.344 215.789 75.495 215.746C75.6459 215.703 75.8187 215.65 76.0104 215.587C76.2028 215.523 76.3913 215.447 76.575 215.361C76.7282 215.301 76.858 215.193 76.9455 215.054L70.5614 214.99C70.3802 215.122 70.192 215.243 69.9976 215.354C69.7351 215.495 69.4563 215.603 69.1674 215.675C68.7461 215.785 68.3173 215.862 67.8844 215.907C67.241 215.974 66.5946 216.005 65.9478 216.002C65.3621 216.002 64.7931 215.983 64.2354 215.936C63.7357 215.897 63.2391 215.826 62.7486 215.724C62.3804 215.651 62.0224 215.534 61.6821 215.375C61.4059 215.236 61.2504 215.077 61.218 214.897L59.4867 214.879C59.3493 214.879 59.2121 214.867 59.0769 214.843C58.9576 214.82 58.8972 214.789 58.8965 214.751V214.577L61.2648 214.6C61.3697 214.417 61.584 214.258 61.9116 214.123C62.3015 213.969 62.7037 213.848 63.1138 213.762L63.9071 213.87C64.1478 213.904 64.2671 213.946 64.2671 213.989C64.2671 214.014 64.2188 214.045 64.1161 214.081C64.0135 214.117 63.8972 214.161 63.7606 214.211C63.6253 214.262 63.4934 214.321 63.3659 214.389C63.2539 214.443 63.1555 214.522 63.0776 214.62L68.9003 214.683ZM63.058 214.919C63.1248 215.051 63.2363 215.155 63.3727 215.213C63.5644 215.306 63.7673 215.374 63.9765 215.416C64.2437 215.473 64.5145 215.512 64.787 215.533C65.0889 215.558 65.4042 215.569 65.7327 215.568C66.0677 215.568 66.4024 215.552 66.7357 215.519C66.9885 215.492 67.2394 215.45 67.4867 215.391C67.6798 215.345 67.8687 215.283 68.0512 215.205C68.2008 215.139 68.3451 215.062 68.4829 214.974L63.058 214.919ZM76.9546 214.768C76.9071 214.653 76.7916 214.552 76.6112 214.466C76.39 214.367 76.1576 214.293 75.9191 214.248C75.5953 214.183 75.2676 214.139 74.938 214.116C74.5662 214.088 74.1551 214.074 73.7048 214.076C73.3599 214.076 73.0153 214.094 72.6723 214.13C72.4204 214.157 72.1707 214.202 71.9252 214.264C71.7387 214.311 71.5578 214.378 71.3855 214.463C71.2428 214.536 71.1046 214.617 70.972 214.707L76.9546 214.768Z" fill="#FCB048"/>
<path d="M70.6678 212.385C62.3373 212.385 53.6633 213.119 52.2754 214.538C52.3291 214.588 52.3796 214.641 52.4263 214.697C53.5961 213.716 60.7584 212.721 70.6671 212.721C80.8301 212.721 88.1078 213.764 88.9894 214.773C89.0326 214.718 89.0792 214.665 89.129 214.615C87.9833 213.146 79.1463 212.385 70.6678 212.385Z" fill="url(#paint46_linear_1_3721)"/>
<path d="M49.6504 210.196V214.34C49.6504 215.679 58.0157 216.764 68.3342 216.764C78.6527 216.764 87.0194 215.679 87.0194 214.34V210.196H49.6504Z" fill="url(#paint47_linear_1_3721)"/>
<path d="M68.3342 212.62C78.6529 212.62 87.0179 211.535 87.0179 210.195C87.0179 208.856 78.6529 207.771 68.3342 207.771C58.0154 207.771 49.6504 208.856 49.6504 210.195C49.6504 211.535 58.0154 212.62 68.3342 212.62Z" fill="url(#paint48_linear_1_3721)"/>
<path d="M68.333 212.787C59.1949 212.787 49.6387 211.914 49.6387 210.231C49.6387 210.138 49.6719 209.976 49.764 209.976C49.856 209.976 49.8168 210.103 49.8168 210.196C49.8168 211.263 57.4213 212.453 68.333 212.453C79.2447 212.453 86.8492 211.263 86.8492 210.196C86.8492 210.103 86.8651 210.016 86.9579 210.016C87.0508 210.016 87.0281 210.14 87.0281 210.232C87.0281 211.916 77.4719 212.787 68.333 212.787Z" fill="url(#paint49_linear_1_3721)"/>
<path d="M66.5661 210.331C66.7495 210.204 66.9435 210.078 67.1533 209.953C67.4067 209.811 67.676 209.699 67.9556 209.619C68.3588 209.504 68.7707 209.422 69.1873 209.375C69.7999 209.306 70.416 209.272 71.0326 209.275C71.7541 209.271 72.4318 209.294 73.0658 209.344C73.6273 209.384 74.1858 209.458 74.7382 209.566C75.1425 209.64 75.5364 209.762 75.9118 209.93C76.2137 210.075 76.3926 210.24 76.4484 210.427L78.5526 210.448C78.6878 210.448 78.8228 210.46 78.9556 210.486C79.0733 210.51 79.1299 210.54 79.1307 210.577V210.75L76.4258 210.724C76.3317 210.937 76.0899 211.131 75.7005 211.306C75.2236 211.511 74.7265 211.664 74.2175 211.764L73.2363 211.627C73.1624 211.617 73.0896 211.599 73.019 211.575C72.9624 211.555 72.9344 211.532 72.9344 211.508C72.9344 211.484 73.0099 211.436 73.1609 211.394C73.3118 211.352 73.4854 211.298 73.6763 211.235C73.8689 211.171 74.0574 211.095 74.2409 211.008C74.3942 210.948 74.5241 210.841 74.6114 210.701L68.2265 210.641C68.0454 210.773 67.8572 210.894 67.6627 211.005C67.4001 211.146 67.1213 211.254 66.8326 211.327C66.4114 211.437 65.9825 211.514 65.5495 211.559C64.9061 211.625 64.2597 211.656 63.6129 211.653C63.028 211.653 62.4582 211.635 61.9005 211.587C61.4009 211.548 60.9043 211.478 60.4137 211.376C60.0456 211.303 59.6878 211.186 59.348 211.026C59.071 210.887 58.9156 210.724 58.8839 210.549L57.148 210.531C57.0108 210.531 56.8739 210.519 56.739 210.494C56.619 210.472 56.5586 210.441 56.5586 210.402V210.229L58.9269 210.252C59.0318 210.069 59.2461 209.91 59.5744 209.775C59.9638 209.62 60.3658 209.499 60.776 209.414L61.5692 209.522C61.8099 209.556 61.9292 209.598 61.9299 209.641C61.9299 209.666 61.8809 209.696 61.779 209.732L61.4235 209.863C61.2884 209.913 61.1568 209.973 61.0295 210.041C60.9172 210.095 60.8185 210.174 60.7405 210.272L66.5661 210.331ZM60.7261 210.566C60.7933 210.698 60.9047 210.802 61.0409 210.86C61.2328 210.952 61.4357 211.021 61.6446 211.063C61.9119 211.119 62.1827 211.158 62.4552 211.179C62.7571 211.203 63.0723 211.215 63.4009 211.214C63.7361 211.214 64.0711 211.198 64.4046 211.164C64.6574 211.138 64.9082 211.096 65.1556 211.038C65.3486 210.991 65.5375 210.929 65.7201 210.851C65.8697 210.786 66.0138 210.709 66.151 210.62L60.7261 210.566ZM74.6235 210.415C74.576 210.3 74.4597 210.199 74.2794 210.113C74.0579 210.014 73.8257 209.941 73.5873 209.895C73.2634 209.83 72.9357 209.786 72.6061 209.763C72.2343 209.734 71.8235 209.721 71.3737 209.724C71.0286 209.722 70.6836 209.74 70.3405 209.777C70.0859 209.804 69.8337 209.849 69.5858 209.913C69.3997 209.961 69.2192 210.028 69.0469 210.112C68.9042 210.185 68.7661 210.267 68.6333 210.356L74.6235 210.415Z" fill="#FCB048"/>
<path d="M68.3358 208.033C60.0045 208.033 51.3305 208.766 49.9434 210.185C49.9969 210.235 50.0473 210.289 50.0943 210.345C51.2634 209.359 58.4256 208.368 68.3351 208.368C78.4981 208.368 85.7751 209.411 86.6566 210.421C86.6997 210.365 86.7463 210.312 86.7962 210.263C85.6513 208.793 76.8143 208.033 68.3358 208.033Z" fill="url(#paint50_linear_1_3721)"/>
<path d="M92.3315 213.117L88.9541 215.519C87.8628 216.295 91.8273 223.741 97.8085 232.149C103.79 240.557 109.522 246.745 110.614 245.968L113.99 243.567L92.3315 213.117Z" fill="url(#paint51_linear_1_3721)"/>
<path d="M113.99 243.567C112.899 244.343 107.166 238.155 101.185 229.747C95.2036 221.339 91.2398 213.893 92.3311 213.117C93.4224 212.341 99.1553 218.528 105.136 226.937C111.118 235.346 115.081 242.792 113.99 243.567Z" fill="url(#paint52_linear_1_3721)"/>
<path d="M101.049 229.844C95.7522 222.397 90.9242 214.104 92.2941 213.128C92.3695 213.075 92.5205 213.008 92.5748 213.083C92.6291 213.158 92.4993 213.199 92.4239 213.253C91.5537 213.872 94.9899 220.758 101.317 229.65C107.645 238.542 113.016 244.049 113.89 243.43C113.965 243.377 114.044 243.34 114.098 243.414C114.151 243.489 114.038 243.543 113.963 243.597C112.595 244.573 106.346 237.291 101.049 229.844Z" fill="url(#paint53_linear_1_3721)"/>
<path d="M102.027 226.981C102.237 227.056 102.452 227.143 102.674 227.242C102.937 227.366 103.185 227.52 103.411 227.702C103.739 227.964 104.044 228.252 104.324 228.564C104.736 229.023 105.12 229.506 105.475 230.01C105.896 230.596 106.27 231.162 106.597 231.707C106.89 232.187 107.154 232.685 107.386 233.198C107.56 233.571 107.689 233.963 107.77 234.366C107.826 234.694 107.794 234.936 107.676 235.091L108.877 236.818C108.956 236.928 109.025 237.045 109.081 237.168C109.129 237.278 109.138 237.342 109.108 237.364L108.967 237.465L107.421 235.245C107.194 235.291 106.892 235.207 106.526 234.992C106.083 234.722 105.67 234.406 105.294 234.049L104.834 233.167C104.8 233.101 104.771 233.031 104.75 232.96C104.735 232.902 104.737 232.866 104.756 232.852C104.776 232.837 104.859 232.872 104.983 232.972C105.107 233.071 105.248 233.18 105.411 233.3C105.574 233.42 105.744 233.53 105.92 233.631C106.058 233.721 106.221 233.764 106.385 233.754L102.737 228.515C102.525 228.444 102.316 228.361 102.113 228.267C101.847 228.135 101.598 227.971 101.371 227.779C101.038 227.499 100.725 227.194 100.437 226.868C100.01 226.382 99.6099 225.873 99.2371 225.345C98.895 224.869 98.582 224.391 98.2983 223.911C98.0405 223.481 97.8106 223.036 97.61 222.577C97.4556 222.235 97.3436 221.875 97.2764 221.506C97.2286 221.2 97.2686 220.981 97.3964 220.85L96.4069 219.429C96.3272 219.317 96.2577 219.199 96.1994 219.074C96.1488 218.964 96.139 218.896 96.17 218.874L96.3103 218.773L97.6688 220.716C97.8776 220.695 98.1322 220.778 98.4326 220.967C98.7841 221.195 99.1157 221.452 99.4236 221.736L99.7949 222.446C99.9066 222.662 99.9458 222.782 99.9066 222.809C99.887 222.823 99.8311 222.801 99.7466 222.741C99.662 222.681 99.5541 222.609 99.4341 222.527C99.3136 222.445 99.1875 222.372 99.0568 222.308C98.9473 222.249 98.8258 222.214 98.7013 222.207L102.027 226.981ZM98.4485 222.357C98.3798 222.488 98.3598 222.64 98.3919 222.784C98.4268 222.994 98.4884 223.198 98.5753 223.392C98.685 223.643 98.8111 223.886 98.9526 224.121C99.1076 224.38 99.2809 224.644 99.4726 224.911C99.6662 225.184 99.8738 225.448 100.095 225.7C100.262 225.891 100.442 226.071 100.633 226.238C100.783 226.369 100.943 226.487 101.113 226.59C101.253 226.674 101.399 226.747 101.55 226.808L98.4485 222.357ZM106.63 233.592C106.696 233.487 106.711 233.333 106.677 233.139C106.629 232.901 106.553 232.669 106.451 232.449C106.316 232.147 106.162 231.855 105.989 231.573C105.797 231.253 105.571 230.911 105.31 230.545C105.11 230.264 104.896 229.993 104.667 229.735C104.498 229.544 104.315 229.366 104.121 229.202C103.975 229.077 103.815 228.969 103.645 228.878C103.504 228.804 103.357 228.738 103.208 228.682L106.63 233.592Z" fill="#FCB048"/>
<path d="M104.925 227.094C100.095 220.306 94.4718 213.66 92.511 213.354C92.5019 213.427 92.4878 213.499 92.4688 213.571C93.9495 213.952 98.9095 219.214 104.653 227.288C110.544 235.57 113.912 242.105 113.6 243.408C113.67 243.411 113.74 243.419 113.81 243.43C114.34 241.641 109.84 233.999 104.925 227.094Z" fill="url(#paint54_linear_1_3721)"/>
<path d="M201.586 235.265L199.895 235.398C199.457 235.433 199.016 235.415 198.583 235.343L191.877 234.251L191.767 234.233L183.975 232.962H183.927L177.82 231.973V197.613H183.963H183.975L191.767 198L191.883 198.058L201.308 198.421L201.586 235.265Z" fill="url(#paint55_linear_1_3721)"/>
<path d="M225.295 199.8V231.868C225.298 232.417 225.089 232.947 224.713 233.347C224.337 233.748 223.822 233.989 223.274 234.02L200.909 235.351C200.004 235.405 199.232 234.653 199.232 233.721V200.312C199.232 199.378 199.964 198.605 200.872 198.576L223.398 197.949C223.646 197.941 223.892 197.983 224.123 198.073C224.353 198.163 224.563 198.298 224.74 198.471C224.918 198.644 225.058 198.851 225.153 199.079C225.248 199.307 225.297 199.553 225.295 199.8Z" fill="url(#paint56_linear_1_3721)"/>
<path d="M177.867 197.613L199.234 198.625L223.4 197.951L198.624 197.144L177.867 197.613Z" fill="url(#paint57_linear_1_3721)"/>
<path style="mix-blend-mode:multiply" opacity="0.3" d="M223.368 197.952L205.726 198.444C205.236 198.463 204.772 198.672 204.432 199.026C204.092 199.38 203.903 199.852 203.904 200.343C203.904 202.055 204.191 203.823 204.944 205.53C207.456 211.218 213.07 211.428 214.238 216.649C215.211 220.999 211.765 222.871 211.4 228.43C211.302 230.017 211.46 231.609 211.866 233.146C211.976 233.573 212.23 233.949 212.586 234.211C212.941 234.472 213.377 234.602 213.817 234.58L223.53 234.002C224.009 233.974 224.459 233.764 224.788 233.414C225.116 233.064 225.298 232.601 225.296 232.121V199.831C225.297 199.58 225.248 199.331 225.151 199.099C225.054 198.867 224.911 198.658 224.731 198.482C224.551 198.307 224.338 198.169 224.103 198.078C223.869 197.987 223.619 197.944 223.368 197.952Z" fill="url(#paint58_linear_1_3721)"/>
<path d="M207.072 234.984L215.364 234.49V198.175L207.072 198.406V234.984Z" fill="url(#paint59_linear_1_3721)"/>
<path d="M207.445 234.961L215.364 234.49V198.175L207.445 198.396V234.961Z" fill="url(#paint60_linear_1_3721)"/>
<path d="M191.655 198.106V234.251L184.059 232.961V197.902L186.478 197.855L191.655 198.106Z" fill="url(#paint61_linear_1_3721)"/>
<path d="M192.434 197.284L215.549 198.599H207.238L187.029 197.406L192.434 197.284Z" fill="url(#paint62_linear_1_3721)"/>
<path d="M203.681 196.174C204.219 192.877 204.613 190.467 206.766 188.241C207.672 187.303 208.666 186.279 210.291 186.007C212.161 185.694 214.548 186.432 215.202 187.958C215.823 189.408 214.36 190.354 214.982 192.02C215.604 193.685 217.426 193.657 217.623 195.01C217.792 196.155 216.675 197.454 215.546 198.063C213.597 199.115 212.49 197.635 208.684 197.874C206.06 198.039 204.546 198.869 203.836 198.032C203.5 197.633 203.533 197.079 203.681 196.174Z" fill="url(#paint63_linear_1_3721)"/>
<g style="mix-blend-mode:multiply" opacity="0.3">
<path style="mix-blend-mode:multiply" opacity="0.3" d="M214.101 194.884C211.751 193.985 210.547 192.029 209.505 192.491C208.58 192.903 209.145 194.62 208.057 196.017C207.064 197.294 205.243 197.597 203.625 197.598C203.661 197.757 203.735 197.906 203.839 198.032C204.55 198.869 206.063 198.039 208.687 197.874C212.494 197.635 213.6 199.115 215.55 198.063C216.585 197.505 217.608 196.365 217.64 195.296C216.542 195.414 215.322 195.35 214.101 194.884Z" fill="url(#paint64_linear_1_3721)"/>
</g>
<path d="M189.484 188.022C191.069 186.773 192.729 188.165 194.678 186.794C196.65 185.404 196.077 183.176 197.605 182.544C199.382 181.81 202.013 184.05 203.272 185.472C206.47 189.082 207.972 195.493 205.444 197.748C204.495 198.595 201.809 198.246 196.475 197.514C190.378 196.677 189.501 196.08 188.918 195.293C187.345 193.179 187.698 189.434 189.484 188.022Z" fill="url(#paint65_linear_1_3721)"/>
<g style="mix-blend-mode:multiply" opacity="0.3">
<path style="mix-blend-mode:multiply" opacity="0.3" d="M199.494 190.729C198.615 190.451 198.211 191.457 196.408 191.861C196.077 191.937 192.892 192.601 191.183 190.602C190.504 189.809 190.186 188.743 190.223 187.611C189.955 187.705 189.705 187.844 189.483 188.021C187.694 189.433 187.344 193.178 188.917 195.292C189.5 196.077 190.377 196.676 196.474 197.513C201.808 198.245 204.494 198.594 205.443 197.748C205.57 197.632 205.687 197.506 205.793 197.371C204.509 197.328 203.17 197.019 202.201 196.077C200.331 194.264 200.987 191.2 199.494 190.729Z" fill="url(#paint66_linear_1_3721)"/>
</g>
<path d="M199.873 197.965L191.765 198.272L183.961 197.902L186.485 197.855L197.532 197.659L199.873 197.965Z" fill="url(#paint67_linear_1_3721)"/>
<defs>
<linearGradient id="paint0_linear_1_3721" x1="175.214" y1="68.9562" x2="214.519" y2="194.017" gradientUnits="userSpaceOnUse">
<stop stop-color="#FF9085"/>
<stop offset="1" stop-color="#FB6FBB"/>
</linearGradient>
<linearGradient id="paint1_linear_1_3721" x1="246.241" y1="86.748" x2="298.002" y2="-7.01797" gradientUnits="userSpaceOnUse">
<stop stop-color="#E38DDD"/>
<stop offset="1" stop-color="#9571F6"/>
</linearGradient>
<linearGradient id="paint2_linear_1_3721" x1="243.92" y1="147.593" x2="156.512" y2="230.136" gradientUnits="userSpaceOnUse">
<stop stop-color="#AA80F9"/>
<stop offset="1" stop-color="#6165D7"/>
</linearGradient>
<linearGradient id="paint3_linear_1_3721" x1="378855" y1="1.35532e+06" x2="556051" y2="1.5926e+06" gradientUnits="userSpaceOnUse">
<stop stop-color="#E38DDD"/>
<stop offset="1" stop-color="#9571F6"/>
</linearGradient>
<linearGradient id="paint4_linear_1_3721" x1="-153297" y1="82133.6" x2="-78941.8" y2="154529" gradientUnits="userSpaceOnUse">
<stop stop-color="#FF9085"/>
<stop offset="1" stop-color="#FB6FBB"/>
</linearGradient>
<linearGradient id="paint5_linear_1_3721" x1="66.2543" y1="73.3644" x2="121.712" y2="70.9531" gradientUnits="userSpaceOnUse">
<stop stop-color="#AB316D"/>
<stop offset="1" stop-color="#792D3D"/>
</linearGradient>
<linearGradient id="paint6_linear_1_3721" x1="60.4588" y1="163.677" x2="112.327" y2="163.677" gradientUnits="userSpaceOnUse">
<stop stop-color="#FFC444"/>
<stop offset="1" stop-color="#F36F56"/>
</linearGradient>
<linearGradient id="paint7_linear_1_3721" x1="37431.7" y1="307157" x2="56429" y2="307157" gradientUnits="userSpaceOnUse">
<stop stop-color="#FFC444"/>
<stop offset="1" stop-color="#F36F56"/>
</linearGradient>
<linearGradient id="paint8_linear_1_3721" x1="274975" y1="290705" x2="439878" y2="585677" gradientUnits="userSpaceOnUse">
<stop stop-color="#FFC444"/>
<stop offset="1" stop-color="#F36F56"/>
</linearGradient>
<linearGradient id="paint9_linear_1_3721" x1="240407" y1="258633" x2="378897" y2="568866" gradientUnits="userSpaceOnUse">
<stop stop-color="#FFC444"/>
<stop offset="1" stop-color="#F36F56"/>
</linearGradient>
<linearGradient id="paint10_linear_1_3721" x1="125347" y1="19541.1" x2="104605" y2="193174" gradientUnits="userSpaceOnUse">
<stop stop-color="#AB316D"/>
<stop offset="1" stop-color="#792D3D"/>
</linearGradient>
<linearGradient id="paint11_linear_1_3721" x1="19189.1" y1="1979.78" x2="10127.3" y2="18030.2" gradientUnits="userSpaceOnUse">
<stop stop-color="#AB316D"/>
<stop offset="1" stop-color="#792D3D"/>
</linearGradient>
<linearGradient id="paint12_linear_1_3721" x1="24360.4" y1="5085.98" x2="15298.6" y2="21136.3" gradientUnits="userSpaceOnUse">
<stop stop-color="#AB316D"/>
<stop offset="1" stop-color="#792D3D"/>
</linearGradient>
<linearGradient id="paint13_linear_1_3721" x1="50256.4" y1="191960" x2="71116.6" y2="196615" gradientUnits="userSpaceOnUse">
<stop stop-color="#AA80F9"/>
<stop offset="1" stop-color="#6165D7"/>
</linearGradient>
<linearGradient id="paint14_linear_1_3721" x1="130759" y1="191865" x2="187989" y2="287050" gradientUnits="userSpaceOnUse">
<stop stop-color="#AA80F9"/>
<stop offset="1" stop-color="#6165D7"/>
</linearGradient>
<linearGradient id="paint15_linear_1_3721" x1="80.117" y1="219.859" x2="166.429" y2="247.115" gradientUnits="userSpaceOnUse">
<stop stop-color="#444B8C"/>
<stop offset="1" stop-color="#26264F"/>
</linearGradient>
<linearGradient id="paint16_linear_1_3721" x1="36760.6" y1="103297" x2="61962.6" y2="103801" gradientUnits="userSpaceOnUse">
<stop stop-color="#FF9085"/>
<stop offset="1" stop-color="#FB6FBB"/>
</linearGradient>
<linearGradient id="paint17_linear_1_3721" x1="122173" y1="143819" x2="174561" y2="233597" gradientUnits="userSpaceOnUse">
<stop stop-color="#AA80F9"/>
<stop offset="1" stop-color="#6165D7"/>
</linearGradient>
<linearGradient id="paint18_linear_1_3721" x1="65073" y1="110477" x2="89508.5" y2="110477" gradientUnits="userSpaceOnUse">
<stop stop-color="#AA80F9"/>
<stop offset="1" stop-color="#6165D7"/>
</linearGradient>
<linearGradient id="paint19_linear_1_3721" x1="49.4986" y1="244.268" x2="92.4873" y2="244.268" gradientUnits="userSpaceOnUse">
<stop stop-color="#FCB148"/>
<stop offset="0.05" stop-color="#FDBA46"/>
<stop offset="0.14" stop-color="#FFC244"/>
<stop offset="0.32" stop-color="#FFC444"/>
<stop offset="0.48" stop-color="#FDB946"/>
<stop offset="0.78" stop-color="#F99C4D"/>
<stop offset="0.87" stop-color="#F8924F"/>
<stop offset="1" stop-color="#F8924F"/>
</linearGradient>
<linearGradient id="paint20_linear_1_3721" x1="71.1907" y1="239.425" x2="73.4571" y2="258.398" gradientUnits="userSpaceOnUse">
<stop stop-color="#FFDB44"/>
<stop offset="1" stop-color="#FEEF06"/>
</linearGradient>
<linearGradient id="paint21_linear_1_3721" x1="35274.5" y1="9127.74" x2="35276.5" y2="9347.89" gradientUnits="userSpaceOnUse">
<stop stop-color="#FFDB44"/>
<stop offset="1" stop-color="#FEEF06"/>
</linearGradient>
<linearGradient id="paint22_linear_1_3721" x1="71.7463" y1="243.795" x2="71.0527" y2="237.989" gradientUnits="userSpaceOnUse">
<stop stop-color="#F36F56"/>
<stop offset="0.31" stop-color="#F99C4C"/>
<stop offset="0.55" stop-color="#FDB946"/>
<stop offset="0.68" stop-color="#FFC444"/>
<stop offset="0.8" stop-color="#FFC244"/>
<stop offset="0.87" stop-color="#FEBA46"/>
<stop offset="0.92" stop-color="#FCAD49"/>
<stop offset="0.96" stop-color="#F99A4D"/>
<stop offset="1" stop-color="#F57E53"/>
</linearGradient>
<linearGradient id="paint23_linear_1_3721" x1="21983.3" y1="21118.8" x2="43267.4" y2="21118.8" gradientUnits="userSpaceOnUse">
<stop stop-color="#FCB148"/>
<stop offset="0.05" stop-color="#FDBA46"/>
<stop offset="0.14" stop-color="#FFC244"/>
<stop offset="0.32" stop-color="#FFC444"/>
<stop offset="0.48" stop-color="#FDB946"/>
<stop offset="0.78" stop-color="#F99C4D"/>
<stop offset="0.87" stop-color="#F8924F"/>
<stop offset="1" stop-color="#F8924F"/>
</linearGradient>
<linearGradient id="paint24_linear_1_3721" x1="32723.3" y1="15337.6" x2="32742.4" y2="16573.7" gradientUnits="userSpaceOnUse">
<stop stop-color="#FFDB44"/>
<stop offset="1" stop-color="#FEEF06"/>
</linearGradient>
<linearGradient id="paint25_linear_1_3721" x1="32696.1" y1="8961.22" x2="32698.1" y2="9181.33" gradientUnits="userSpaceOnUse">
<stop stop-color="#FFDB44"/>
<stop offset="1" stop-color="#FEEF06"/>
</linearGradient>
<linearGradient id="paint26_linear_1_3721" x1="29067" y1="2515.5" x2="29068.5" y2="2701.81" gradientUnits="userSpaceOnUse">
<stop stop-color="#F36F56"/>
<stop offset="0.31" stop-color="#F99C4C"/>
<stop offset="0.55" stop-color="#FDB946"/>
<stop offset="0.68" stop-color="#FFC444"/>
<stop offset="0.8" stop-color="#FFC244"/>
<stop offset="0.87" stop-color="#FEBA46"/>
<stop offset="0.92" stop-color="#FCAD49"/>
<stop offset="0.96" stop-color="#F99A4D"/>
<stop offset="1" stop-color="#F57E53"/>
</linearGradient>
<linearGradient id="paint27_linear_1_3721" x1="24207.1" y1="20734.2" x2="45492" y2="20734.2" gradientUnits="userSpaceOnUse">
<stop stop-color="#FCB148"/>
<stop offset="0.05" stop-color="#FDBA46"/>
<stop offset="0.14" stop-color="#FFC244"/>
<stop offset="0.32" stop-color="#FFC444"/>
<stop offset="0.48" stop-color="#FDB946"/>
<stop offset="0.78" stop-color="#F99C4D"/>
<stop offset="0.87" stop-color="#F8924F"/>
<stop offset="1" stop-color="#F8924F"/>
</linearGradient>
<linearGradient id="paint28_linear_1_3721" x1="34947.3" y1="15054.4" x2="34966.4" y2="16290.5" gradientUnits="userSpaceOnUse">
<stop stop-color="#FFDB44"/>
<stop offset="1" stop-color="#FEEF06"/>
</linearGradient>
<linearGradient id="paint29_linear_1_3721" x1="34920.6" y1="8795.34" x2="34922.6" y2="9015.45" gradientUnits="userSpaceOnUse">
<stop stop-color="#FFDB44"/>
<stop offset="1" stop-color="#FEEF06"/>
</linearGradient>
<linearGradient id="paint30_linear_1_3721" x1="26883.2" y1="2648.47" x2="26884.6" y2="2834.79" gradientUnits="userSpaceOnUse">
<stop stop-color="#F36F56"/>
<stop offset="0.31" stop-color="#F99C4C"/>
<stop offset="0.55" stop-color="#FDB946"/>
<stop offset="0.68" stop-color="#FFC444"/>
<stop offset="0.8" stop-color="#FFC244"/>
<stop offset="0.87" stop-color="#FEBA46"/>
<stop offset="0.92" stop-color="#FCAD49"/>
<stop offset="0.96" stop-color="#F99A4D"/>
<stop offset="1" stop-color="#F57E53"/>
</linearGradient>
<linearGradient id="paint31_linear_1_3721" x1="25556" y1="20353.5" x2="46840.2" y2="20353.5" gradientUnits="userSpaceOnUse">
<stop stop-color="#FCB148"/>
<stop offset="0.05" stop-color="#FDBA46"/>
<stop offset="0.14" stop-color="#FFC244"/>
<stop offset="0.32" stop-color="#FFC444"/>
<stop offset="0.48" stop-color="#FDB946"/>
<stop offset="0.78" stop-color="#F99C4D"/>
<stop offset="0.87" stop-color="#F8924F"/>
<stop offset="1" stop-color="#F8924F"/>
</linearGradient>
<linearGradient id="paint32_linear_1_3721" x1="36296.7" y1="14772.7" x2="36315.9" y2="16008.9" gradientUnits="userSpaceOnUse">
<stop stop-color="#FFDB44"/>
<stop offset="1" stop-color="#FEEF06"/>
</linearGradient>
<linearGradient id="paint33_linear_1_3721" x1="36271.3" y1="8628.83" x2="36273.3" y2="8848.97" gradientUnits="userSpaceOnUse">
<stop stop-color="#FFDB44"/>
<stop offset="1" stop-color="#FEEF06"/>
</linearGradient>
<linearGradient id="paint34_linear_1_3721" x1="25557.5" y1="2781.83" x2="25559" y2="2968.15" gradientUnits="userSpaceOnUse">
<stop stop-color="#F36F56"/>
<stop offset="0.31" stop-color="#F99C4C"/>
<stop offset="0.55" stop-color="#FDB946"/>
<stop offset="0.68" stop-color="#FFC444"/>
<stop offset="0.8" stop-color="#FFC244"/>
<stop offset="0.87" stop-color="#FEBA46"/>
<stop offset="0.92" stop-color="#FCAD49"/>
<stop offset="0.96" stop-color="#F99A4D"/>
<stop offset="1" stop-color="#F57E53"/>
</linearGradient>
<linearGradient id="paint35_linear_1_3721" x1="24560.1" y1="19937.7" x2="45844.2" y2="19937.7" gradientUnits="userSpaceOnUse">
<stop stop-color="#FCB148"/>
<stop offset="0.05" stop-color="#FDBA46"/>
<stop offset="0.14" stop-color="#FFC244"/>
<stop offset="0.32" stop-color="#FFC444"/>
<stop offset="0.48" stop-color="#FDB946"/>
<stop offset="0.78" stop-color="#F99C4D"/>
<stop offset="0.87" stop-color="#F8924F"/>
<stop offset="1" stop-color="#F8924F"/>
</linearGradient>
<linearGradient id="paint36_linear_1_3721" x1="35300" y1="14464" x2="35319.2" y2="15700" gradientUnits="userSpaceOnUse">
<stop stop-color="#FFDB44"/>
<stop offset="1" stop-color="#FEEF06"/>
</linearGradient>
<linearGradient id="paint37_linear_1_3721" x1="35274.5" y1="8449.17" x2="35276.5" y2="8669.28" gradientUnits="userSpaceOnUse">
<stop stop-color="#FFDB44"/>
<stop offset="1" stop-color="#FEEF06"/>
</linearGradient>
<linearGradient id="paint38_linear_1_3721" x1="26536" y1="2924.86" x2="26537.4" y2="3111.11" gradientUnits="userSpaceOnUse">
<stop stop-color="#F36F56"/>
<stop offset="0.31" stop-color="#F99C4C"/>
<stop offset="0.55" stop-color="#FDB946"/>
<stop offset="0.68" stop-color="#FFC444"/>
<stop offset="0.8" stop-color="#FFC244"/>
<stop offset="0.87" stop-color="#FEBA46"/>
<stop offset="0.92" stop-color="#FCAD49"/>
<stop offset="0.96" stop-color="#F99A4D"/>
<stop offset="1" stop-color="#F57E53"/>
</linearGradient>
<linearGradient id="paint39_linear_1_3721" x1="21983.3" y1="19554.6" x2="43267.4" y2="19554.6" gradientUnits="userSpaceOnUse">
<stop stop-color="#FCB148"/>
<stop offset="0.05" stop-color="#FDBA46"/>
<stop offset="0.14" stop-color="#FFC244"/>
<stop offset="0.32" stop-color="#FFC444"/>
<stop offset="0.48" stop-color="#FDB946"/>
<stop offset="0.78" stop-color="#F99C4D"/>
<stop offset="0.87" stop-color="#F8924F"/>
<stop offset="1" stop-color="#F8924F"/>
</linearGradient>
<linearGradient id="paint40_linear_1_3721" x1="32723.9" y1="14182.1" x2="32743.1" y2="15418.4" gradientUnits="userSpaceOnUse">
<stop stop-color="#FFDB44"/>
<stop offset="1" stop-color="#FEEF06"/>
</linearGradient>
<linearGradient id="paint41_linear_1_3721" x1="32696.1" y1="8282.66" x2="32698.1" y2="8502.8" gradientUnits="userSpaceOnUse">
<stop stop-color="#FFDB44"/>
<stop offset="1" stop-color="#FEEF06"/>
</linearGradient>
<linearGradient id="paint42_linear_1_3721" x1="29067" y1="3059.12" x2="29068.5" y2="3245.43" gradientUnits="userSpaceOnUse">
<stop stop-color="#F36F56"/>
<stop offset="0.31" stop-color="#F99C4C"/>
<stop offset="0.55" stop-color="#FDB946"/>
<stop offset="0.68" stop-color="#FFC444"/>
<stop offset="0.8" stop-color="#FFC244"/>
<stop offset="0.87" stop-color="#FEBA46"/>
<stop offset="0.92" stop-color="#FCAD49"/>
<stop offset="0.96" stop-color="#F99A4D"/>
<stop offset="1" stop-color="#F57E53"/>
</linearGradient>
<linearGradient id="paint43_linear_1_3721" x1="24207.1" y1="19174.7" x2="45492" y2="19174.7" gradientUnits="userSpaceOnUse">
<stop stop-color="#FCB148"/>
<stop offset="0.05" stop-color="#FDBA46"/>
<stop offset="0.14" stop-color="#FFC244"/>
<stop offset="0.32" stop-color="#FFC444"/>
<stop offset="0.48" stop-color="#FDB946"/>
<stop offset="0.78" stop-color="#F99C4D"/>
<stop offset="0.87" stop-color="#F8924F"/>
<stop offset="1" stop-color="#F8924F"/>
</linearGradient>
<linearGradient id="paint44_linear_1_3721" x1="34947.3" y1="13898.9" x2="34966.5" y2="15135.2" gradientUnits="userSpaceOnUse">
<stop stop-color="#FFDB44"/>
<stop offset="1" stop-color="#FEEF06"/>
</linearGradient>
<linearGradient id="paint45_linear_1_3721" x1="34920.6" y1="8116.71" x2="34922.6" y2="8336.82" gradientUnits="userSpaceOnUse">
<stop stop-color="#FFDB44"/>
<stop offset="1" stop-color="#FEEF06"/>
</linearGradient>
<linearGradient id="paint46_linear_1_3721" x1="26883.2" y1="3192.09" x2="26884.6" y2="3378.4" gradientUnits="userSpaceOnUse">
<stop stop-color="#F36F56"/>
<stop offset="0.31" stop-color="#F99C4C"/>
<stop offset="0.55" stop-color="#FDB946"/>
<stop offset="0.68" stop-color="#FFC444"/>
<stop offset="0.8" stop-color="#FFC244"/>
<stop offset="0.87" stop-color="#FEBA46"/>
<stop offset="0.92" stop-color="#FCAD49"/>
<stop offset="0.96" stop-color="#F99A4D"/>
<stop offset="1" stop-color="#F57E53"/>
</linearGradient>
<linearGradient id="paint47_linear_1_3721" x1="23051.8" y1="18789.3" x2="44337.2" y2="18789.3" gradientUnits="userSpaceOnUse">
<stop stop-color="#FCB148"/>
<stop offset="0.05" stop-color="#FDBA46"/>
<stop offset="0.14" stop-color="#FFC244"/>
<stop offset="0.32" stop-color="#FFC444"/>
<stop offset="0.48" stop-color="#FDB946"/>
<stop offset="0.78" stop-color="#F99C4D"/>
<stop offset="0.87" stop-color="#F8924F"/>
<stop offset="1" stop-color="#F8924F"/>
</linearGradient>
<linearGradient id="paint48_linear_1_3721" x1="33791" y1="13614.8" x2="33810.2" y2="14851.1" gradientUnits="userSpaceOnUse">
<stop stop-color="#FFDB44"/>
<stop offset="1" stop-color="#FEEF06"/>
</linearGradient>
<linearGradient id="paint49_linear_1_3721" x1="33764" y1="7950.2" x2="33766" y2="8170.31" gradientUnits="userSpaceOnUse">
<stop stop-color="#FFDB44"/>
<stop offset="1" stop-color="#FEEF06"/>
</linearGradient>
<linearGradient id="paint50_linear_1_3721" x1="28018.7" y1="3325.49" x2="28020.1" y2="3511.8" gradientUnits="userSpaceOnUse">
<stop stop-color="#F36F56"/>
<stop offset="0.31" stop-color="#F99C4C"/>
<stop offset="0.55" stop-color="#FDB946"/>
<stop offset="0.68" stop-color="#FFC444"/>
<stop offset="0.8" stop-color="#FFC244"/>
<stop offset="0.87" stop-color="#FEBA46"/>
<stop offset="0.92" stop-color="#FCAD49"/>
<stop offset="0.96" stop-color="#F99A4D"/>
<stop offset="1" stop-color="#F57E53"/>
</linearGradient>
<linearGradient id="paint51_linear_1_3721" x1="-42462.5" y1="88461.9" x2="-34131.6" y2="100097" gradientUnits="userSpaceOnUse">
<stop stop-color="#FCB148"/>
<stop offset="0.05" stop-color="#FDBA46"/>
<stop offset="0.14" stop-color="#FFC244"/>
<stop offset="0.32" stop-color="#FFC444"/>
<stop offset="0.48" stop-color="#FDB946"/>
<stop offset="0.78" stop-color="#F99C4D"/>
<stop offset="0.87" stop-color="#F8924F"/>
<stop offset="1" stop-color="#F8924F"/>
</linearGradient>
<linearGradient id="paint52_linear_1_3721" x1="-35711.6" y1="84054.2" x2="-41127.2" y2="89474.6" gradientUnits="userSpaceOnUse">
<stop stop-color="#FFDB44"/>
<stop offset="1" stop-color="#FEEF06"/>
</linearGradient>
<linearGradient id="paint53_linear_1_3721" x1="-35522.4" y1="83971" x2="-37188.8" y2="85638.7" gradientUnits="userSpaceOnUse">
<stop stop-color="#FFDB44"/>
<stop offset="1" stop-color="#FEEF06"/>
</linearGradient>
<linearGradient id="paint54_linear_1_3721" x1="43115.7" y1="-17705.5" x2="44741.8" y2="-19339.8" gradientUnits="userSpaceOnUse">
<stop stop-color="#F36F56"/>
<stop offset="0.31" stop-color="#F99C4C"/>
<stop offset="0.55" stop-color="#FDB946"/>
<stop offset="0.68" stop-color="#FFC444"/>
<stop offset="0.8" stop-color="#FFC244"/>
<stop offset="0.87" stop-color="#FEBA46"/>
<stop offset="0.92" stop-color="#FCAD49"/>
<stop offset="0.96" stop-color="#F99A4D"/>
<stop offset="1" stop-color="#F57E53"/>
</linearGradient>
<linearGradient id="paint55_linear_1_3721" x1="53395.2" y1="92420.3" x2="62672.4" y2="101235" gradientUnits="userSpaceOnUse">
<stop stop-color="#AA80F9"/>
<stop offset="1" stop-color="#6165D7"/>
</linearGradient>
<linearGradient id="paint56_linear_1_3721" x1="76907.1" y1="99068.7" x2="62972.9" y2="115465" gradientUnits="userSpaceOnUse">
<stop stop-color="#AA80F9"/>
<stop offset="1" stop-color="#6165D7"/>
</linearGradient>
<linearGradient id="paint57_linear_1_3721" x1="123205" y1="3850.35" x2="123203" y2="4145.94" gradientUnits="userSpaceOnUse">
<stop stop-color="#E38DDD"/>
<stop offset="1" stop-color="#9571F6"/>
</linearGradient>
<linearGradient id="paint58_linear_1_3721" x1="63660.6" y1="97541.2" x2="49711.6" y2="111299" gradientUnits="userSpaceOnUse">
<stop stop-color="#E38DDD"/>
<stop offset="1" stop-color="#9571F6"/>
</linearGradient>
<linearGradient id="paint59_linear_1_3721" x1="23069.8" y1="98137.1" x2="35917.1" y2="112717" gradientUnits="userSpaceOnUse">
<stop stop-color="#AB316D"/>
<stop offset="1" stop-color="#792D3D"/>
</linearGradient>
<linearGradient id="paint60_linear_1_3721" x1="22201.4" y1="105825" x2="24125.6" y2="105764" gradientUnits="userSpaceOnUse">
<stop stop-color="#AB316D"/>
<stop offset="1" stop-color="#792D3D"/>
</linearGradient>
<linearGradient id="paint61_linear_1_3721" x1="18930.5" y1="104513" x2="20692.3" y2="104458" gradientUnits="userSpaceOnUse">
<stop stop-color="#AB316D"/>
<stop offset="1" stop-color="#792D3D"/>
</linearGradient>
<linearGradient id="paint62_linear_1_3721" x1="74839.9" y1="3656.1" x2="76143.4" y2="-525.533" gradientUnits="userSpaceOnUse">
<stop stop-color="#AB316D"/>
<stop offset="1" stop-color="#792D3D"/>
</linearGradient>
<linearGradient id="paint63_linear_1_3721" x1="40623.1" y1="31240.9" x2="39075.7" y2="33050.6" gradientUnits="userSpaceOnUse">
<stop stop-color="#AB316D"/>
<stop offset="1" stop-color="#792D3D"/>
</linearGradient>
<linearGradient id="paint64_linear_1_3721" x1="40759" y1="15263.5" x2="40226.4" y2="16552.1" gradientUnits="userSpaceOnUse">
<stop stop-color="#AB316D"/>
<stop offset="1" stop-color="#792D3D"/>
</linearGradient>
<linearGradient id="paint65_linear_1_3721" x1="48650" y1="40335.7" x2="54843" y2="39248.8" gradientUnits="userSpaceOnUse">
<stop stop-color="#AB316D"/>
<stop offset="1" stop-color="#792D3D"/>
</linearGradient>
<linearGradient id="paint66_linear_1_3721" x1="46340.4" y1="27409.2" x2="52057.5" y2="25987.6" gradientUnits="userSpaceOnUse">
<stop stop-color="#AB316D"/>
<stop offset="1" stop-color="#792D3D"/>
</linearGradient>
<linearGradient id="paint67_linear_1_3721" x1="40203.8" y1="1807.42" x2="40496.4" y2="683.973" gradientUnits="userSpaceOnUse">
<stop stop-color="#AB316D"/>
<stop offset="1" stop-color="#792D3D"/>
</linearGradient>
</defs>
</svg>
