<svg width="280" height="280" viewBox="0 0 280 280" fill="none" xmlns="http://www.w3.org/2000/svg">
<path d="M280 0H0V280H280V0Z" fill="white"/>
<path d="M218.728 212.784C213.308 218.369 208.458 221.654 204.745 224.134C168.534 248.313 127.141 241.341 114.343 238.962C93.6947 235.119 76.2652 232.408 61.2901 218.879C27.2622 188.135 28.9173 124 54.9188 84.2763C58.0018 79.5653 83.9641 41.0816 125.447 35.6589C126.461 35.5261 127.218 35.4506 127.882 35.3804C134.297 34.7012 174.066 31.1148 206.492 58.2816C211.134 62.1706 218.603 69.185 225.53 79.8823C250.858 118.999 250.938 179.583 218.728 212.784Z" fill="#F4F7FA"/>
<path d="M173.145 50.3881L62.3456 46.9745C56.9765 46.8085 52.5977 50.7217 52.5977 55.7156V213.591C52.5977 218.584 56.975 222.302 62.3456 221.898L173.145 213.538C177.786 213.187 181.529 209.172 181.529 204.567V58.9821C181.529 54.379 177.786 50.5307 173.145 50.3881Z" fill="url(#paint0_linear_1_3599)"/>
<g style="mix-blend-mode:soft-light" opacity="0.74">
<path d="M55.7227 214.312V54.8551C55.7227 51.9812 58.2404 49.7231 61.3355 49.8151L174.022 53.0906C176.699 53.1661 178.862 55.3872 178.862 58.0468V205.623C178.862 208.283 176.699 210.599 174.022 210.796L61.3355 219.101C58.2404 219.33 55.7227 217.186 55.7227 214.312Z" fill="white"/>
</g>
<path d="M173.145 50.3881L62.3456 46.9745C56.9765 46.8085 52.5977 50.7217 52.5977 55.7156V62.2017L181.529 64.9655V58.9843C181.529 54.379 177.786 50.5307 173.145 50.3881Z" fill="url(#paint1_linear_1_3599)"/>
<path d="M69.9051 55.2877C69.9051 56.9051 68.4968 58.1821 66.7565 58.1398C65.0161 58.0975 63.5957 56.7481 63.5957 55.1209C63.5957 53.4938 65.0123 52.2205 66.7565 52.2681C68.5006 52.3156 69.9051 53.6704 69.9051 55.2877Z" fill="white"/>
<path d="M80.8685 55.5714C80.8685 57.1774 79.4791 58.4468 77.7621 58.4053C76.0451 58.3638 74.6406 57.0227 74.6406 55.4099C74.6406 53.797 76.0383 52.5291 77.7591 52.5767C79.4798 52.6242 80.8685 53.9623 80.8685 55.5714Z" fill="white"/>
<path d="M91.6849 55.8491C91.6849 57.4446 90.3143 58.7049 88.62 58.6642C86.9256 58.6234 85.543 57.2921 85.543 55.6899C85.543 54.0876 86.9218 52.828 88.62 52.8748C90.3181 52.9216 91.6849 54.2551 91.6849 55.8491Z" fill="white"/>
<path d="M115.558 95.1745L69.9538 95.099C69.2104 95.099 68.6074 94.5443 68.6074 93.8628V90.9609C68.6074 90.2816 69.2112 89.7299 69.9538 89.7344L115.558 89.9903C116.251 89.9903 116.812 90.5299 116.812 91.1865V93.9835C116.812 94.6416 116.251 95.1752 115.558 95.1745Z" fill="white"/>
<path d="M71.7227 96.1946L75.6434 110.573C75.891 111.483 76.78 112.112 77.7981 112.1L108.157 111.759C109.127 111.748 109.972 111.116 110.208 110.225L113.906 96.2271L71.7227 96.1946ZM82.977 109.73C82.977 110.301 82.4774 110.768 81.86 110.775L80.7943 110.785C80.1762 110.792 79.6736 110.333 79.6736 109.761V98.6172C79.6736 98.0452 80.1762 97.5818 80.7943 97.5818H81.86C82.4774 97.5818 82.977 98.0444 82.977 98.6142V109.73ZM88.9015 109.674C88.9015 110.242 88.4064 110.708 87.7951 110.714L86.7385 110.724C86.1249 110.731 85.6275 110.272 85.6275 109.705V98.6112C85.6275 98.0414 86.1249 97.5803 86.7385 97.5795H87.7951C88.4064 97.5795 88.9015 98.0399 88.9015 98.6074V109.674ZM94.7739 109.619C94.7739 110.184 94.2826 110.647 93.6766 110.653L92.6298 110.664C92.026 110.67 91.5294 110.216 91.5294 109.649V98.6044C91.5294 98.0376 92.0222 97.578 92.6298 97.578H93.6766C94.2804 97.578 94.7739 98.0361 94.7739 98.6014V109.619ZM100.594 109.563C100.594 110.126 100.107 110.587 99.506 110.594L98.469 110.604C97.8653 110.61 97.3777 110.158 97.3777 109.594V98.5984C97.3777 98.0346 97.8668 97.5765 98.469 97.5765H99.506C100.11 97.5765 100.594 98.0293 100.594 98.5953V109.563ZM106.361 109.509C106.361 110.069 105.879 110.528 105.284 110.534L104.255 110.545C103.659 110.551 103.175 110.1 103.175 109.539V98.5953C103.175 98.0338 103.659 97.578 104.255 97.578H105.283C105.878 97.578 106.36 98.0308 106.36 98.5923L106.361 109.509Z" fill="white"/>
<path d="M76.8453 88.3127C76.5017 88.5787 76.0723 88.7089 75.6388 88.6786C75.2054 88.6482 74.7983 88.4594 74.4951 88.1482C74.3519 88.0013 74.2415 87.8256 74.1713 87.6328C74.1011 87.44 74.0727 87.2345 74.088 87.0298C74.1033 86.8252 74.1619 86.6262 74.2599 86.446C74.3579 86.2657 74.4932 86.1084 74.6566 85.9844C75.0006 85.7191 75.4301 85.5896 75.8634 85.6207C76.2967 85.6517 76.7034 85.8411 77.0061 86.1527C77.1486 86.2995 77.2584 86.475 77.3282 86.6673C77.398 86.8597 77.4262 87.0647 77.411 87.2688C77.3958 87.4729 77.3375 87.6714 77.24 87.8514C77.1425 88.0313 77.008 88.1885 76.8453 88.3127Z" fill="white"/>
<path d="M91.4798 74.65C91.2534 74.4025 90.7787 74.4289 90.4232 74.7104L75.9831 86.1776C75.6201 86.4652 75.516 86.9006 75.7499 87.1497C75.9839 87.3988 76.4669 87.3663 76.8292 87.0788L91.2511 75.607C91.6066 75.3278 91.7077 74.8983 91.4798 74.65Z" fill="white"/>
<path d="M109.063 88.5281C109.383 88.7912 109.79 88.924 110.203 88.8999C110.617 88.8759 111.006 88.6967 111.293 88.3983C111.428 88.2535 111.532 88.0823 111.598 87.8954C111.664 87.7085 111.691 87.5099 111.677 87.3122C111.663 87.1144 111.608 86.9217 111.516 86.7461C111.424 86.5706 111.296 86.4159 111.142 86.2919C110.822 86.0282 110.416 85.8947 110.002 85.918C109.589 85.9414 109.2 86.12 108.912 86.418C108.776 86.5628 108.671 86.7342 108.605 86.9215C108.538 87.1088 108.511 87.3078 108.525 87.5061C108.539 87.7044 108.594 87.8976 108.687 88.0735C108.78 88.2494 108.908 88.4042 109.063 88.5281Z" fill="white"/>
<path d="M94.8205 74.7079C95.0469 74.4679 95.5171 74.5109 95.8688 74.8038L109.882 86.4596C110.226 86.7456 110.325 87.1705 110.103 87.4098C109.881 87.649 109.423 87.6113 109.077 87.3253L95.0469 75.6717C94.6945 75.3789 94.5933 74.9472 94.8205 74.7079Z" fill="white"/>
<path d="M168.659 81.464L121.633 80.8633V75.0105L168.659 75.8255V81.464Z" fill="white"/>
<path d="M168.659 91.336L121.633 91.1118V85.2582L168.659 85.6975V91.336Z" fill="white"/>
<path d="M168.659 101.208L121.633 101.36V95.5064L168.659 95.5691V101.208Z" fill="white"/>
<path d="M168.659 111.08L121.633 111.608V105.755L168.659 105.441V111.08Z" fill="white"/>
<path d="M151.991 127.339L68.6074 129.347V123.251L151.991 121.624V127.339Z" fill="white"/>
<path d="M151.991 137.344L68.6074 140.02V133.924L151.991 131.629V137.344Z" fill="white"/>
<path d="M151.991 147.349L68.6074 150.692V144.596L151.991 141.634V147.349Z" fill="white"/>
<path d="M151.991 157.355L68.6074 161.364V155.268L151.991 151.64V157.355Z" fill="white"/>
<path d="M168.66 126.937L157.691 127.202V121.513L168.66 121.299V126.937Z" fill="white"/>
<path d="M168.66 136.809L157.691 137.161V131.473L168.66 131.171V136.809Z" fill="white"/>
<path d="M168.66 146.681L157.691 147.121V141.432L168.66 141.042V146.681Z" fill="white"/>
<path d="M168.66 156.553L157.691 157.08V151.392L168.66 150.914V156.553Z" fill="white"/>
<path d="M151.991 173.591L68.6074 178.683V172.587L151.991 167.876V173.591Z" fill="white"/>
<path d="M151.991 183.597L68.6074 189.356V183.26L151.991 177.882V183.597Z" fill="white"/>
<path d="M151.991 193.601L68.6074 200.027V193.931L151.991 187.886V193.601Z" fill="white"/>
<path d="M151.991 203.606L68.6074 210.7V204.604L151.991 197.891V203.606Z" fill="white"/>
<path d="M168.66 172.573L157.691 173.243V167.554L168.66 166.934V172.573Z" fill="white"/>
<path d="M168.66 182.445L157.691 183.203V177.513L168.66 176.806V182.445Z" fill="url(#paint2_linear_1_3599)"/>
<path d="M168.66 192.316L157.691 193.162V187.473L168.66 186.678V192.316Z" fill="url(#paint3_linear_1_3599)"/>
<path d="M168.66 202.188L157.691 203.121V197.432L168.66 196.549V202.188Z" fill="url(#paint4_linear_1_3599)"/>
<path d="M187.768 178.02L162.758 174.962V138.076L187.768 133.338V178.02Z" fill="url(#paint5_linear_1_3599)"/>
<path d="M218.274 176.076L187.768 178.02V133.338L218.274 137.55V176.076Z" fill="url(#paint6_linear_1_3599)"/>
<g style="mix-blend-mode:soft-light">
<path d="M199.268 134.926V153.144L209.424 153.953V136.328L199.268 134.926Z" fill="white"/>
</g>
<path d="M229.233 231.32L182.838 234.583V166.63L229.233 169.893V231.32Z" fill="url(#paint7_linear_1_3599)"/>
<path d="M182.839 234.583L144.803 229.933V170.968L182.839 166.63V234.583Z" fill="url(#paint8_linear_1_3599)"/>
<g style="mix-blend-mode:soft-light">
<path d="M199.264 167.785V195.358H214.81V168.879L199.264 167.785Z" fill="white"/>
</g>
<path d="M112.772 144.744C114.915 142.457 108.984 133.862 105.809 130.096C103.035 126.806 100.184 123.424 96.6832 123.853C93.61 124.23 90.6191 127.47 90.4402 130.577C89.961 138.934 109.726 148 112.772 144.744Z" fill="url(#paint9_linear_1_3599)"/>
<path d="M87.0459 233.06C86.6429 233.388 86.5682 234.207 86.5176 234.742C86.4957 234.981 86.4851 235.101 86.5123 235.186C86.707 235.802 87.9017 235.865 89.7749 236.057C92.7348 236.359 93.6156 236.592 93.8503 236.152C94.0677 235.74 93.5424 235.063 93.4828 234.989C93.165 234.589 92.7741 234.442 92.0194 234.194C90.6232 233.734 89.6798 233.483 89.3938 233.407C87.6089 232.931 87.3108 232.845 87.0459 233.06Z" fill="url(#paint10_linear_1_3599)"/>
<path d="M88.8069 230.357L89.1028 233.729C89.019 233.892 88.016 234.381 87.2197 233.962L86.459 230.646L88.8069 230.357Z" fill="url(#paint11_linear_1_3599)"/>
<path d="M110.523 232.627C110.04 233.161 109.93 234.144 110.35 234.628C110.771 235.112 111.384 234.747 113.143 234.8C115.03 234.856 115.523 235.302 116.806 234.951C117.324 234.808 118.24 234.461 118.222 234.091C118.21 233.83 117.744 233.696 116.184 233.174C113.976 232.435 113.985 232.394 113.516 232.316C112.345 232.118 111.162 231.925 110.523 232.627Z" fill="url(#paint12_linear_1_3599)"/>
<path d="M111.733 229.549L112.68 232.697C112.604 232.866 111.646 233.43 110.82 233.075L109.414 230.018L111.733 229.549Z" fill="url(#paint13_linear_1_3599)"/>
<path d="M103.32 160.578C103.622 184.162 106.752 207.625 112.641 230.465L109.019 231.44C105.955 228.582 102.089 224.084 100.223 217.728C99.0657 213.783 99.4513 211.755 98.714 206.903C97.5449 199.177 95.1766 195.13 92.7291 188.899C90.5291 183.3 87.9291 175.087 86.5352 164.1L103.32 160.578Z" fill="url(#paint14_linear_1_3599)"/>
<path d="M92.4172 159.569C91.6776 173.029 91.0738 186.737 90.6059 200.693C90.2602 211.164 90.0041 221.501 89.8376 231.704L86.1357 232.161C84.4411 229.013 83.1444 225.667 82.2754 222.199C80.9584 216.916 81.2633 213.779 80.6852 208.304C80.0369 202.163 79.0957 200.826 77.4278 193.079C74.0452 177.359 72.3524 169.497 76.129 164.604C77.3576 163.019 81.1976 159.038 92.4172 159.569Z" fill="url(#paint15_linear_1_3599)"/>
<path d="M74.4365 125.74C78.453 124.609 82.5808 123.92 86.7467 123.683C94.1429 123.265 97.841 123.057 100.463 124.815C106.517 128.884 101.83 138.274 104.307 161.55C104.661 164.871 104.741 168.222 104.997 171.555C105.421 177.073 105.518 177.373 105.134 177.932C102.726 181.439 93.7421 176.15 80.5753 178.241C73.2078 179.411 69.8666 182.106 67.8485 180.162C65.4946 177.897 67.5134 171.797 69.2515 166.549C71.2463 160.523 72.4787 160.446 73.6115 155.907C74.7949 151.165 74.0787 148.723 73.8946 141.244C73.772 136.07 73.9529 130.893 74.4365 125.74Z" fill="url(#paint16_linear_1_3599)"/>
<g style="mix-blend-mode:multiply" opacity="0.3">
<path style="mix-blend-mode:multiply" opacity="0.3" d="M92.3416 169.438C88.9001 169.168 86.6669 171.114 83.6963 169.598C79.6209 167.519 78.3137 161.05 78.5733 156.471C78.968 149.514 82.9401 147.68 82.2556 143.184C81.8858 140.752 80.1492 137.523 73.9152 134.224C73.8322 137.001 73.848 139.367 73.8941 141.243C74.0782 148.722 74.7944 151.164 73.6111 155.907C72.479 160.445 71.2458 160.522 69.2511 166.548C67.5152 171.796 65.4941 177.894 67.848 180.161C69.8661 182.105 73.2065 179.406 80.5748 178.24C91.9205 176.439 100.155 180.112 103.758 178.919C99.4043 171.728 95.4556 169.682 92.3416 169.438Z" fill="url(#paint17_linear_1_3599)"/>
</g>
<path d="M79.1307 126.217C76.6726 124.197 71.7307 126.483 70.4092 127.094C63.0424 130.502 56.4273 139.685 58.0665 149.389C58.3125 150.845 59.4522 157.653 65.2167 160.952C70.4182 163.928 77.4432 163.162 83.0681 158.947L85.3753 156.9C86.13 156.083 86.8867 155.265 87.6455 154.446C85.86 152.96 83.8071 151.829 81.5971 151.114C77.856 149.906 75.1315 152.073 73.3956 150.426C72.1979 149.29 72.1948 147.282 72.4899 146.065C73.0862 143.613 75.2484 142.923 77.0522 141.182C81.2922 137.093 82.0734 128.635 79.1307 126.217Z" fill="url(#paint18_linear_1_3599)"/>
<path d="M114.453 157.898L81.5078 157.406L90.2686 161.634L114.536 160.046L114.453 157.898Z" fill="url(#paint19_linear_1_3599)"/>
<path d="M80.3438 158.282C80.3438 158.583 80.4364 158.876 80.6091 159.123C80.7818 159.369 81.0261 159.557 81.309 159.66L91.8357 163.786L91.884 160.925L81.5083 157.406C81.3725 157.367 81.2295 157.36 81.0905 157.385C80.9514 157.41 80.8203 157.468 80.7073 157.553C80.5943 157.638 80.5027 157.748 80.4396 157.874C80.3765 158.001 80.3437 158.14 80.3438 158.282Z" fill="url(#paint20_linear_1_3599)"/>
<path d="M85.4174 156.332C85.2151 156.288 86.3985 153.922 87.3343 154.195C88.2702 154.468 92.8242 157.11 93.2385 158.195L93.6536 159.282C93.6536 159.282 91.6649 159.438 90.4317 159.023C89.1985 158.609 87.0611 156.699 85.4174 156.332Z" fill="url(#paint21_linear_1_3599)"/>
<path d="M92.7583 140.851L90.4361 161.995C90.3561 162.724 91.3772 163.811 92.11 163.777L126.177 161.685C126.449 161.672 126.708 161.567 126.912 161.387C127.116 161.207 127.252 160.962 127.298 160.694L131.573 140.273C131.701 139.53 130.366 138.764 129.611 138.783L93.9131 139.787C93.6246 139.795 93.3487 139.907 93.1364 140.102C92.9241 140.298 92.7898 140.564 92.7583 140.851Z" fill="url(#paint22_linear_1_3599)"/>
<path d="M93.5372 141.467L91.2142 162.611C91.1953 162.783 91.2139 162.957 91.2686 163.12C91.3233 163.284 91.4129 163.434 91.5311 163.56C91.6493 163.686 91.7933 163.784 91.9533 163.849C92.1134 163.914 92.2855 163.943 92.4579 163.935L126.956 162.302C127.228 162.289 127.487 162.184 127.691 162.004C127.895 161.823 128.031 161.579 128.077 161.311L131.601 140.796C131.631 140.622 131.622 140.444 131.575 140.274C131.527 140.104 131.443 139.946 131.327 139.813C131.212 139.679 131.068 139.573 130.907 139.502C130.746 139.43 130.57 139.396 130.394 139.4L94.6957 140.404C94.4065 140.411 94.1297 140.522 93.9166 140.718C93.7036 140.913 93.5687 141.18 93.5372 141.467Z" fill="url(#paint23_linear_1_3599)"/>
<path style="mix-blend-mode:multiply" opacity="0.3" d="M113.794 157.347C110.782 156.071 111.845 153.636 108.284 150.602C103.592 146.602 98.8088 148.338 97.1348 145.234C96.6133 144.268 96.3643 142.765 97.2722 140.328L94.6873 140.404C94.3991 140.412 94.1235 140.524 93.9115 140.72C93.6996 140.915 93.5655 141.181 93.5341 141.467L91.2141 162.612C91.1954 162.783 91.214 162.957 91.2688 163.12C91.3235 163.284 91.4131 163.434 91.5313 163.56C91.6494 163.686 91.7935 163.784 91.9534 163.849C92.1134 163.914 92.2854 163.943 92.4578 163.935L126.956 162.302C127.228 162.289 127.487 162.184 127.691 162.004C127.894 161.824 128.031 161.579 128.077 161.311L128.563 158.48C127.391 157.82 126.123 157.345 124.806 157.072C119.745 156.046 117.262 158.818 113.794 157.347Z" fill="url(#paint24_linear_1_3599)"/>
<path d="M129.132 159.344C129.145 159.305 129.149 159.263 129.143 159.222C129.138 159.181 129.123 159.141 129.099 159.107C129.076 159.072 129.045 159.044 129.008 159.024C128.972 159.003 128.932 158.992 128.89 158.99C128.161 158.953 126.47 158.938 125.536 159.509C124.323 160.252 122.756 161.608 124.076 162.292L125.309 162.93C125.364 162.959 125.428 162.968 125.489 162.955C125.928 162.859 127.772 162.449 127.973 162.351C128.155 162.255 128.858 160.169 129.132 159.344Z" fill="url(#paint25_linear_1_3599)"/>
<path d="M87.2978 115.602C87.3172 117.321 87.1638 119.037 86.8397 120.725C86.5748 122.09 86.3868 122.442 86.1401 122.728C85.7733 123.159 85.217 123.52 82.0744 124.299C80.3642 124.723 80.1446 124.712 80.1068 124.882C79.9227 125.712 84.5853 128.531 89.4027 127.851C92.3514 127.435 95.0336 125.752 94.8691 124.869C94.7046 123.985 91.7582 124.457 90.8804 122.849C90.2699 121.73 90.9559 120.142 91.7635 118.826C90.9793 117.359 88.0812 117.07 87.2978 115.602Z" fill="url(#paint26_linear_1_3599)"/>
<path d="M92.7698 116.469C93.4657 115.545 93.5087 113.932 92.7072 112.911C92.0173 112.033 90.9313 111.908 90.2815 111.833C88.3947 111.616 86.0211 112.402 85.1946 114.135C84.7048 115.163 85.7644 117.298 85.9305 117.682C86.1184 118.116 86.4588 118.266 86.7743 118.593C87.2105 119.046 87.8943 119.772 89.0105 120.982C89.116 120.545 89.2591 120.117 89.4384 119.704C89.6712 119.168 89.9718 118.663 90.3328 118.202C91.3147 117.003 92.1102 117.345 92.7698 116.469Z" fill="url(#paint27_linear_1_3599)"/>
<path d="M87.4199 119.963C87.4199 119.963 88.6577 121.994 91.1233 121.834C93.3309 121.69 93.6539 116.741 92.2441 115.69C91.7739 115.34 90.8312 115.194 90.066 115.409C89.6131 115.535 89.4622 115.723 88.7165 115.916C88.0312 116.094 87.8373 116.018 87.6305 116.192C87.3716 116.41 87.1822 116.947 87.6146 118.391C87.1935 117.965 86.6878 117.801 86.3316 117.97C86.2093 118.037 86.1077 118.136 86.038 118.257C85.7271 118.822 86.2433 119.547 87.4199 119.963Z" fill="url(#paint28_linear_1_3599)"/>
<path d="M87.5299 115.896C87.6363 115.975 87.311 116.372 87.2869 116.935C87.2393 118.026 88.3435 119.335 89.4703 119.446C90.1367 119.512 90.3201 119.11 91.4212 118.993C91.9581 118.939 92.5003 118.97 93.0273 119.086C93.373 120.283 93.0477 121.476 92.2477 122.03C91.3865 122.626 90.2854 122.264 89.8265 122.113C89.5193 122.012 88.5329 121.69 88.0152 120.786C87.4778 119.843 88.0046 119.276 87.3888 118.639C87.0786 118.317 86.6703 118.178 86.2733 117.556C86.1868 117.422 86.1111 117.282 86.0469 117.136C86.622 116.534 87.3759 115.781 87.5299 115.896Z" fill="url(#paint29_linear_1_3599)"/>
<path d="M92.2259 119.531C92.2259 119.531 91.7496 119.78 90.9255 119.734C90.8855 119.734 90.841 119.743 90.8364 119.764C90.8176 119.839 91.3459 120.192 91.8327 120.055C92.1783 119.958 92.4477 119.631 92.401 119.547C92.3813 119.512 92.3013 119.517 92.2259 119.531Z" fill="url(#paint30_linear_1_3599)"/>
<path d="M141.367 233.711C139.608 233.572 137.358 233.084 135.199 231.674C132.859 230.146 129.819 227.007 130.613 225.028C130.91 224.29 131.764 223.658 132.515 223.718C133.623 223.807 133.752 225.347 135.678 227.022C136.034 227.332 137.873 228.933 138.788 228.393C139.241 228.125 139.377 227.382 139.303 226.817C139.086 225.165 137.069 224.911 135.13 223.124C133.168 221.312 131.526 218.148 132.463 216.01C133.001 214.781 134.425 213.811 135.361 214.084C135.761 214.2 136.014 214.527 137.229 217.151C138.226 219.304 138.447 219.931 139.09 220.136C139.751 220.345 140.779 220.082 141.17 219.431C142.188 217.733 137.789 215.228 137.389 210.478C137.21 208.349 137.786 205.195 139.713 204.515C141.016 204.059 142.872 204.757 143.544 205.949C144.148 207.027 143.413 207.836 143.875 210.258C144.015 210.993 144.303 212.505 144.912 212.584C145.626 212.677 146.425 210.749 146.609 210.28C147.999 206.746 146.405 204.929 147.716 203.213C148.738 201.875 150.961 201.338 152.724 202.013C154.266 202.605 155.499 204.142 155.581 205.736C155.666 207.358 154.298 208.971 151.574 212.199C150.281 213.73 149.252 214.765 149.31 216.286C149.338 217.028 149.632 218.071 150.164 218.167C151.336 218.376 151.913 213.655 154.692 212.926C156.115 212.553 157.882 213.286 158.659 214.568C159.61 216.139 158.973 218.366 157.777 219.536C156.217 221.065 154.618 219.903 151.683 221.545C150.38 222.272 148.334 223.821 148.634 225.101C148.764 225.659 149.349 226.205 149.992 226.277C151.426 226.441 151.905 224.085 154.219 223.049C155.884 222.303 158.186 222.384 158.733 223.323C159.506 224.648 156.763 227.658 155.305 228.988C153.538 230.6 149.381 233.648 141.367 233.711Z" fill="url(#paint31_linear_1_3599)"/>
<path opacity="0.5" d="M142.157 232.957C141.925 229.017 144.534 220.99 146.433 217.197C148.291 213.483 150.069 207.612 150.087 207.551L150.202 207.586C150.185 207.645 148.404 213.529 146.541 217.246C144.648 221.029 142.046 229.025 142.278 232.944L142.157 232.957Z" fill="white"/>
<path d="M137.223 234.226C135.898 232.387 133.956 229.069 133.608 224.631C133.464 222.802 133.183 219.23 135.369 216.149C136.458 214.614 138.765 212.343 140.328 212.998C141.332 213.419 141.956 215.023 141.673 216.243C141.389 217.463 140.347 217.586 139.216 219.672C138.797 220.445 138.319 221.351 138.688 221.861C138.995 222.289 139.838 222.367 140.47 222.11C141.776 221.582 141.368 219.955 142.78 218.789C143.783 217.959 145.457 217.571 146.176 218.25C146.802 218.839 146.694 220.217 146.14 221.135C145.252 222.606 143.661 222.174 142.624 223.782C142.164 224.495 141.837 225.573 142.239 225.998C142.698 226.484 144.051 226.064 144.914 225.528C146.057 224.82 146.099 224.066 146.852 223.971C147.691 223.866 148.739 224.665 148.905 225.549C149.131 226.788 147.615 228.125 146.414 228.705C144.874 229.448 143.729 229.011 142.977 230.026C142.7 230.399 142.448 231.008 142.675 231.377C142.998 231.905 144.166 231.729 144.939 231.614C146.826 231.333 147.345 230.648 148.021 230.981C148.697 231.314 149.059 232.454 148.763 233.252C148.599 233.695 148.104 234.384 145.655 234.812C143.942 235.112 141.062 235.324 137.223 234.226Z" fill="url(#paint32_linear_1_3599)"/>
<path d="M231.885 97.4974C231.885 113.762 218.78 127.822 202.563 128.906C186.291 129.994 173.061 117.612 173.061 101.248C173.061 84.8831 186.291 70.8136 202.565 69.8272C218.78 68.8431 231.885 81.2333 231.885 97.4974Z" fill="url(#paint33_linear_1_3599)"/>
<path d="M201.529 115.351C200.253 115.435 199.067 114.842 198.406 113.781L187.321 95.9767C186.282 94.3088 186.842 92.0227 188.571 90.8725C190.3 89.7224 192.541 90.1435 193.579 91.8107L201.268 104.17L211.414 83.5065C212.325 81.6514 214.512 80.8009 216.299 81.6054C218.086 82.4099 218.797 84.5631 217.884 86.4167L204.773 113.142C204.481 113.742 204.042 114.258 203.497 114.642C202.952 115.026 202.318 115.267 201.656 115.34C201.614 115.345 201.571 115.349 201.529 115.351Z" fill="white"/>
<defs>
<linearGradient id="paint0_linear_1_3599" x1="52.5977" y1="134.448" x2="181.529" y2="134.448" gradientUnits="userSpaceOnUse">
<stop stop-color="#FF9085"/>
<stop offset="1" stop-color="#FB6FBB"/>
</linearGradient>
<linearGradient id="paint1_linear_1_3599" x1="117.749" y1="53.9156" x2="106.737" y2="153.447" gradientUnits="userSpaceOnUse">
<stop stop-color="#40447E"/>
<stop offset="1" stop-color="#3C3B6B"/>
</linearGradient>
<linearGradient id="paint2_linear_1_3599" x1="80.1034" y1="180.004" x2="380.893" y2="180.004" gradientUnits="userSpaceOnUse">
<stop stop-color="#AA80F9"/>
<stop offset="1" stop-color="#6165D7"/>
</linearGradient>
<linearGradient id="paint3_linear_1_3599" x1="11799.2" y1="16502.7" x2="55513" y2="16502.7" gradientUnits="userSpaceOnUse">
<stop stop-color="#AA80F9"/>
<stop offset="1" stop-color="#6165D7"/>
</linearGradient>
<linearGradient id="paint4_linear_1_3599" x1="11799.2" y1="17598.2" x2="55513" y2="17598.2" gradientUnits="userSpaceOnUse">
<stop stop-color="#AA80F9"/>
<stop offset="1" stop-color="#6165D7"/>
</linearGradient>
<linearGradient id="paint5_linear_1_3599" x1="188.08" y1="136.402" x2="160.632" y2="182.759" gradientUnits="userSpaceOnUse">
<stop stop-color="#FFC444"/>
<stop offset="0.31" stop-color="#FBA94A"/>
<stop offset="1" stop-color="#F36F56"/>
</linearGradient>
<linearGradient id="paint6_linear_1_3599" x1="178569" y1="81553.8" x2="159539" y2="103497" gradientUnits="userSpaceOnUse">
<stop stop-color="#FFC444"/>
<stop offset="0.31" stop-color="#FBA94A"/>
<stop offset="1" stop-color="#F36F56"/>
</linearGradient>
<linearGradient id="paint7_linear_1_3599" x1="277345" y1="153907" x2="231777" y2="206453" gradientUnits="userSpaceOnUse">
<stop stop-color="#FFC444"/>
<stop offset="0.31" stop-color="#FBA94A"/>
<stop offset="1" stop-color="#F36F56"/>
</linearGradient>
<linearGradient id="paint8_linear_1_3599" x1="207178" y1="154054" x2="164380" y2="194514" gradientUnits="userSpaceOnUse">
<stop stop-color="#FFC444"/>
<stop offset="0.31" stop-color="#FBA94A"/>
<stop offset="1" stop-color="#F36F56"/>
</linearGradient>
<linearGradient id="paint9_linear_1_3599" x1="-74169.1" y1="40643.7" x2="-68366.6" y2="70003.6" gradientUnits="userSpaceOnUse">
<stop stop-color="#AA80F9"/>
<stop offset="1" stop-color="#6165D7"/>
</linearGradient>
<linearGradient id="paint10_linear_1_3599" x1="93.9383" y1="235.131" x2="86.5626" y2="235.352" gradientUnits="userSpaceOnUse">
<stop stop-color="#444B8C"/>
<stop offset="1" stop-color="#26264F"/>
</linearGradient>
<linearGradient id="paint11_linear_1_3599" x1="89.1028" y1="232.242" x2="86.4582" y2="232.242" gradientUnits="userSpaceOnUse">
<stop stop-color="#FFC444"/>
<stop offset="1" stop-color="#F36F56"/>
</linearGradient>
<linearGradient id="paint12_linear_1_3599" x1="-44694.8" y1="18660.3" x2="-45505.4" y2="18888.3" gradientUnits="userSpaceOnUse">
<stop stop-color="#444B8C"/>
<stop offset="1" stop-color="#26264F"/>
</linearGradient>
<linearGradient id="paint13_linear_1_3599" x1="16771.7" y1="11392.9" x2="16913" y2="11392.9" gradientUnits="userSpaceOnUse">
<stop stop-color="#FFC444"/>
<stop offset="1" stop-color="#F36F56"/>
</linearGradient>
<linearGradient id="paint14_linear_1_3599" x1="-80683.8" y1="206520" x2="-106705" y2="184910" gradientUnits="userSpaceOnUse">
<stop stop-color="#40447E"/>
<stop offset="1" stop-color="#3C3B6B"/>
</linearGradient>
<linearGradient id="paint15_linear_1_3599" x1="-45179.3" y1="181161" x2="-69944.2" y2="170719" gradientUnits="userSpaceOnUse">
<stop stop-color="#40447E"/>
<stop offset="1" stop-color="#3C3B6B"/>
</linearGradient>
<linearGradient id="paint16_linear_1_3599" x1="-135787" y1="110933" x2="-112822" y2="184920" gradientUnits="userSpaceOnUse">
<stop stop-color="#AA80F9"/>
<stop offset="1" stop-color="#6165D7"/>
</linearGradient>
<linearGradient id="paint17_linear_1_3599" x1="-132942" y1="129917" x2="-125840" y2="103161" gradientUnits="userSpaceOnUse">
<stop stop-color="#AA80F9"/>
<stop offset="1" stop-color="#6165D7"/>
</linearGradient>
<linearGradient id="paint18_linear_1_3599" x1="-110323" y1="67599.2" x2="-100130" y2="106647" gradientUnits="userSpaceOnUse">
<stop stop-color="#AA80F9"/>
<stop offset="1" stop-color="#6165D7"/>
</linearGradient>
<linearGradient id="paint19_linear_1_3599" x1="102.874" y1="171.519" x2="98.8889" y2="160.226" gradientUnits="userSpaceOnUse">
<stop stop-color="#311944"/>
<stop offset="1" stop-color="#893976"/>
</linearGradient>
<linearGradient id="paint20_linear_1_3599" x1="-40330.4" y1="13348.6" x2="-40260.4" y2="14219.2" gradientUnits="userSpaceOnUse">
<stop stop-color="#311944"/>
<stop offset="1" stop-color="#893976"/>
</linearGradient>
<linearGradient id="paint21_linear_1_3599" x1="44307.6" y1="10824.9" x2="45211.3" y2="10824.9" gradientUnits="userSpaceOnUse">
<stop stop-color="#FFC444"/>
<stop offset="1" stop-color="#F36F56"/>
</linearGradient>
<linearGradient id="paint22_linear_1_3599" x1="-127870" y1="51816" x2="-129846" y2="47195.4" gradientUnits="userSpaceOnUse">
<stop stop-color="#444B8C"/>
<stop offset="1" stop-color="#26264F"/>
</linearGradient>
<linearGradient id="paint23_linear_1_3599" x1="-133895" y1="56807.5" x2="-130067" y2="44000.8" gradientUnits="userSpaceOnUse">
<stop stop-color="#311944"/>
<stop offset="1" stop-color="#893976"/>
</linearGradient>
<linearGradient id="paint24_linear_1_3599" x1="-127875" y1="47729.1" x2="-109385" y2="47729.1" gradientUnits="userSpaceOnUse">
<stop stop-color="#311944"/>
<stop offset="1" stop-color="#893976"/>
</linearGradient>
<linearGradient id="paint25_linear_1_3599" x1="27335.9" y1="8661.45" x2="27747.2" y2="8661.45" gradientUnits="userSpaceOnUse">
<stop stop-color="#FFC444"/>
<stop offset="1" stop-color="#F36F56"/>
</linearGradient>
<linearGradient id="paint26_linear_1_3599" x1="80503.5" y1="19040.5" x2="80308.3" y2="23008.5" gradientUnits="userSpaceOnUse">
<stop stop-color="#FFC444"/>
<stop offset="1" stop-color="#F36F56"/>
</linearGradient>
<linearGradient id="paint27_linear_1_3599" x1="84.1516" y1="125.197" x2="89.7296" y2="111.031" gradientUnits="userSpaceOnUse">
<stop stop-color="#311944"/>
<stop offset="1" stop-color="#6B3976"/>
</linearGradient>
<linearGradient id="paint28_linear_1_3599" x1="38396.8" y1="10382.3" x2="39073.3" y2="10382.3" gradientUnits="userSpaceOnUse">
<stop stop-color="#FFC444"/>
<stop offset="1" stop-color="#F36F56"/>
</linearGradient>
<linearGradient id="paint29_linear_1_3599" x1="39485.5" y1="9862.11" x2="39039.3" y2="8616.52" gradientUnits="userSpaceOnUse">
<stop stop-color="#311944"/>
<stop offset="1" stop-color="#6B3976"/>
</linearGradient>
<linearGradient id="paint30_linear_1_3599" x1="8524.81" y1="1017.74" x2="8557.49" y2="1017.74" gradientUnits="userSpaceOnUse">
<stop stop-color="#FFC444"/>
<stop offset="1" stop-color="#F36F56"/>
</linearGradient>
<linearGradient id="paint31_linear_1_3599" x1="60101.7" y1="83506.6" x2="53322.5" y2="95085.7" gradientUnits="userSpaceOnUse">
<stop stop-color="#AA80F9"/>
<stop offset="1" stop-color="#6165D7"/>
</linearGradient>
<linearGradient id="paint32_linear_1_3599" x1="147.526" y1="218.189" x2="130.216" y2="238.941" gradientUnits="userSpaceOnUse">
<stop stop-color="#E38DDD"/>
<stop offset="1" stop-color="#9571F6"/>
</linearGradient>
<linearGradient id="paint33_linear_1_3599" x1="135062" y1="78017.1" x2="180912" y2="78017.1" gradientUnits="userSpaceOnUse">
<stop stop-color="#AA80F9"/>
<stop offset="1" stop-color="#6165D7"/>
</linearGradient>
</defs>
</svg>
