<svg width="26" height="26" viewBox="0 0 26 26" fill="none" xmlns="http://www.w3.org/2000/svg">
<g id="Buildings">
<path id="Vector" d="M1.625 21.9358H24.375" stroke="#1F2428" stroke-linecap="round" stroke-linejoin="round"/>
<path id="Vector_2" d="M14.624 21.9358V4.06079C14.624 3.8453 14.5384 3.63864 14.386 3.48627C14.2337 3.33389 14.027 3.24829 13.8115 3.24829H4.06152C3.84604 3.24829 3.63937 3.33389 3.487 3.48627C3.33463 3.63864 3.24902 3.8453 3.24902 4.06079V21.9358" stroke="#1F2428" stroke-linecap="round" stroke-linejoin="round"/>
<path id="Vector_3" d="M22.749 21.9358V10.5608C22.749 10.3453 22.6634 10.1386 22.511 9.98627C22.3587 9.83389 22.152 9.74829 21.9365 9.74829H14.624" stroke="#1F2428" stroke-linecap="round" stroke-linejoin="round"/>
<path id="Vector_4" d="M6.49902 7.31079H9.74902" stroke="#1F2428" stroke-linecap="round" stroke-linejoin="round"/>
<path id="Vector_5" d="M8.12402 13.8108H11.374" stroke="#1F2428" stroke-linecap="round" stroke-linejoin="round"/>
<path id="Vector_6" d="M6.49902 17.8733H9.74902" stroke="#1F2428" stroke-linecap="round" stroke-linejoin="round"/>
<path id="Vector_7" d="M17.874 17.8733H19.499" stroke="#1F2428" stroke-linecap="round" stroke-linejoin="round"/>
<path id="Vector_8" d="M17.874 13.8108H19.499" stroke="#1F2428" stroke-linecap="round" stroke-linejoin="round"/>
</g>
</svg>
